G04 #@! TF.GenerationSoftware,KiCad,Pcbnew,(5.1.5)-3*
G04 #@! TF.CreationDate,2020-11-18T22:18:38+01:00*
G04 #@! TF.ProjectId,AVRISP_breakout,41565249-5350-45f6-9272-65616b6f7574,rev?*
G04 #@! TF.SameCoordinates,Original*
G04 #@! TF.FileFunction,Legend,Top*
G04 #@! TF.FilePolarity,Positive*
%FSLAX46Y46*%
G04 Gerber Fmt 4.6, Leading zero omitted, Abs format (unit mm)*
G04 Created by KiCad (PCBNEW (5.1.5)-3) date 2020-11-18 22:18:38*
%MOMM*%
%LPD*%
G04 APERTURE LIST*
%ADD10C,0.150000*%
%ADD11C,0.120000*%
G04 APERTURE END LIST*
D10*
X126238095Y-84590000D02*
X126142857Y-84542380D01*
X126000000Y-84542380D01*
X125857142Y-84590000D01*
X125761904Y-84685238D01*
X125714285Y-84780476D01*
X125666666Y-84970952D01*
X125666666Y-85113809D01*
X125714285Y-85304285D01*
X125761904Y-85399523D01*
X125857142Y-85494761D01*
X126000000Y-85542380D01*
X126095238Y-85542380D01*
X126238095Y-85494761D01*
X126285714Y-85447142D01*
X126285714Y-85113809D01*
X126095238Y-85113809D01*
X126714285Y-85542380D02*
X126714285Y-84542380D01*
X127285714Y-85542380D01*
X127285714Y-84542380D01*
X127761904Y-85542380D02*
X127761904Y-84542380D01*
X128000000Y-84542380D01*
X128142857Y-84590000D01*
X128238095Y-84685238D01*
X128285714Y-84780476D01*
X128333333Y-84970952D01*
X128333333Y-85113809D01*
X128285714Y-85304285D01*
X128238095Y-85399523D01*
X128142857Y-85494761D01*
X128000000Y-85542380D01*
X127761904Y-85542380D01*
X130746666Y-84542380D02*
X131080000Y-85542380D01*
X131413333Y-84542380D01*
X132318095Y-85447142D02*
X132270476Y-85494761D01*
X132127619Y-85542380D01*
X132032380Y-85542380D01*
X131889523Y-85494761D01*
X131794285Y-85399523D01*
X131746666Y-85304285D01*
X131699047Y-85113809D01*
X131699047Y-84970952D01*
X131746666Y-84780476D01*
X131794285Y-84685238D01*
X131889523Y-84590000D01*
X132032380Y-84542380D01*
X132127619Y-84542380D01*
X132270476Y-84590000D01*
X132318095Y-84637619D01*
X133318095Y-85447142D02*
X133270476Y-85494761D01*
X133127619Y-85542380D01*
X133032380Y-85542380D01*
X132889523Y-85494761D01*
X132794285Y-85399523D01*
X132746666Y-85304285D01*
X132699047Y-85113809D01*
X132699047Y-84970952D01*
X132746666Y-84780476D01*
X132794285Y-84685238D01*
X132889523Y-84590000D01*
X133032380Y-84542380D01*
X133127619Y-84542380D01*
X133270476Y-84590000D01*
X133318095Y-84637619D01*
X134717500Y-75285000D02*
X135717500Y-75285000D01*
X135527023Y-76652380D02*
X135193690Y-76176190D01*
X134955595Y-76652380D02*
X134955595Y-75652380D01*
X135336547Y-75652380D01*
X135431785Y-75700000D01*
X135479404Y-75747619D01*
X135527023Y-75842857D01*
X135527023Y-75985714D01*
X135479404Y-76080952D01*
X135431785Y-76128571D01*
X135336547Y-76176190D01*
X134955595Y-76176190D01*
X135717500Y-75285000D02*
X136669880Y-75285000D01*
X135907976Y-76604761D02*
X136050833Y-76652380D01*
X136288928Y-76652380D01*
X136384166Y-76604761D01*
X136431785Y-76557142D01*
X136479404Y-76461904D01*
X136479404Y-76366666D01*
X136431785Y-76271428D01*
X136384166Y-76223809D01*
X136288928Y-76176190D01*
X136098452Y-76128571D01*
X136003214Y-76080952D01*
X135955595Y-76033333D01*
X135907976Y-75938095D01*
X135907976Y-75842857D01*
X135955595Y-75747619D01*
X136003214Y-75700000D01*
X136098452Y-75652380D01*
X136336547Y-75652380D01*
X136479404Y-75700000D01*
X136669880Y-75285000D02*
X137431785Y-75285000D01*
X136765119Y-75652380D02*
X137336547Y-75652380D01*
X137050833Y-76652380D02*
X137050833Y-75652380D01*
X135479404Y-73160000D02*
X135384166Y-73112380D01*
X135241309Y-73112380D01*
X135098452Y-73160000D01*
X135003214Y-73255238D01*
X134955595Y-73350476D01*
X134907976Y-73540952D01*
X134907976Y-73683809D01*
X134955595Y-73874285D01*
X135003214Y-73969523D01*
X135098452Y-74064761D01*
X135241309Y-74112380D01*
X135336547Y-74112380D01*
X135479404Y-74064761D01*
X135527023Y-74017142D01*
X135527023Y-73683809D01*
X135336547Y-73683809D01*
X135955595Y-74112380D02*
X135955595Y-73112380D01*
X136527023Y-74112380D01*
X136527023Y-73112380D01*
X137003214Y-74112380D02*
X137003214Y-73112380D01*
X137241309Y-73112380D01*
X137384166Y-73160000D01*
X137479404Y-73255238D01*
X137527023Y-73350476D01*
X137574642Y-73540952D01*
X137574642Y-73683809D01*
X137527023Y-73874285D01*
X137479404Y-73969523D01*
X137384166Y-74064761D01*
X137241309Y-74112380D01*
X137003214Y-74112380D01*
X134812738Y-70572380D02*
X135146071Y-71572380D01*
X135479404Y-70572380D01*
X136384166Y-71477142D02*
X136336547Y-71524761D01*
X136193690Y-71572380D01*
X136098452Y-71572380D01*
X135955595Y-71524761D01*
X135860357Y-71429523D01*
X135812738Y-71334285D01*
X135765119Y-71143809D01*
X135765119Y-71000952D01*
X135812738Y-70810476D01*
X135860357Y-70715238D01*
X135955595Y-70620000D01*
X136098452Y-70572380D01*
X136193690Y-70572380D01*
X136336547Y-70620000D01*
X136384166Y-70667619D01*
X137384166Y-71477142D02*
X137336547Y-71524761D01*
X137193690Y-71572380D01*
X137098452Y-71572380D01*
X136955595Y-71524761D01*
X136860357Y-71429523D01*
X136812738Y-71334285D01*
X136765119Y-71143809D01*
X136765119Y-71000952D01*
X136812738Y-70810476D01*
X136860357Y-70715238D01*
X136955595Y-70620000D01*
X137098452Y-70572380D01*
X137193690Y-70572380D01*
X137336547Y-70620000D01*
X137384166Y-70667619D01*
X120981547Y-76652380D02*
X120981547Y-75652380D01*
X121314880Y-76366666D01*
X121648214Y-75652380D01*
X121648214Y-76652380D01*
X122124404Y-76652380D02*
X122124404Y-75652380D01*
X122552976Y-76604761D02*
X122695833Y-76652380D01*
X122933928Y-76652380D01*
X123029166Y-76604761D01*
X123076785Y-76557142D01*
X123124404Y-76461904D01*
X123124404Y-76366666D01*
X123076785Y-76271428D01*
X123029166Y-76223809D01*
X122933928Y-76176190D01*
X122743452Y-76128571D01*
X122648214Y-76080952D01*
X122600595Y-76033333D01*
X122552976Y-75938095D01*
X122552976Y-75842857D01*
X122600595Y-75747619D01*
X122648214Y-75700000D01*
X122743452Y-75652380D01*
X122981547Y-75652380D01*
X123124404Y-75700000D01*
X123743452Y-75652380D02*
X123933928Y-75652380D01*
X124029166Y-75700000D01*
X124124404Y-75795238D01*
X124172023Y-75985714D01*
X124172023Y-76319047D01*
X124124404Y-76509523D01*
X124029166Y-76604761D01*
X123933928Y-76652380D01*
X123743452Y-76652380D01*
X123648214Y-76604761D01*
X123552976Y-76509523D01*
X123505357Y-76319047D01*
X123505357Y-75985714D01*
X123552976Y-75795238D01*
X123648214Y-75700000D01*
X123743452Y-75652380D01*
X120981547Y-74112380D02*
X120981547Y-73112380D01*
X121314880Y-73826666D01*
X121648214Y-73112380D01*
X121648214Y-74112380D01*
X122314880Y-73112380D02*
X122505357Y-73112380D01*
X122600595Y-73160000D01*
X122695833Y-73255238D01*
X122743452Y-73445714D01*
X122743452Y-73779047D01*
X122695833Y-73969523D01*
X122600595Y-74064761D01*
X122505357Y-74112380D01*
X122314880Y-74112380D01*
X122219642Y-74064761D01*
X122124404Y-73969523D01*
X122076785Y-73779047D01*
X122076785Y-73445714D01*
X122124404Y-73255238D01*
X122219642Y-73160000D01*
X122314880Y-73112380D01*
X123124404Y-74064761D02*
X123267261Y-74112380D01*
X123505357Y-74112380D01*
X123600595Y-74064761D01*
X123648214Y-74017142D01*
X123695833Y-73921904D01*
X123695833Y-73826666D01*
X123648214Y-73731428D01*
X123600595Y-73683809D01*
X123505357Y-73636190D01*
X123314880Y-73588571D01*
X123219642Y-73540952D01*
X123172023Y-73493333D01*
X123124404Y-73398095D01*
X123124404Y-73302857D01*
X123172023Y-73207619D01*
X123219642Y-73160000D01*
X123314880Y-73112380D01*
X123552976Y-73112380D01*
X123695833Y-73160000D01*
X124124404Y-74112380D02*
X124124404Y-73112380D01*
X121600595Y-71524761D02*
X121743452Y-71572380D01*
X121981547Y-71572380D01*
X122076785Y-71524761D01*
X122124404Y-71477142D01*
X122172023Y-71381904D01*
X122172023Y-71286666D01*
X122124404Y-71191428D01*
X122076785Y-71143809D01*
X121981547Y-71096190D01*
X121791071Y-71048571D01*
X121695833Y-71000952D01*
X121648214Y-70953333D01*
X121600595Y-70858095D01*
X121600595Y-70762857D01*
X121648214Y-70667619D01*
X121695833Y-70620000D01*
X121791071Y-70572380D01*
X122029166Y-70572380D01*
X122172023Y-70620000D01*
X123172023Y-71477142D02*
X123124404Y-71524761D01*
X122981547Y-71572380D01*
X122886309Y-71572380D01*
X122743452Y-71524761D01*
X122648214Y-71429523D01*
X122600595Y-71334285D01*
X122552976Y-71143809D01*
X122552976Y-71000952D01*
X122600595Y-70810476D01*
X122648214Y-70715238D01*
X122743452Y-70620000D01*
X122886309Y-70572380D01*
X122981547Y-70572380D01*
X123124404Y-70620000D01*
X123172023Y-70667619D01*
X123600595Y-71572380D02*
X123600595Y-70572380D01*
X124172023Y-71572380D02*
X123743452Y-71000952D01*
X124172023Y-70572380D02*
X123600595Y-71143809D01*
D11*
X133410000Y-78680000D02*
X133410000Y-80010000D01*
X132080000Y-78680000D02*
X133410000Y-78680000D01*
X133410000Y-81280000D02*
X133410000Y-83880000D01*
X130810000Y-81280000D02*
X133410000Y-81280000D01*
X130810000Y-78680000D02*
X130810000Y-81280000D01*
X133410000Y-83880000D02*
X125670000Y-83880000D01*
X130810000Y-78680000D02*
X125670000Y-78680000D01*
X125670000Y-78680000D02*
X125670000Y-83880000D01*
D10*
X129206666Y-76922380D02*
X129206666Y-77636666D01*
X129159047Y-77779523D01*
X129063809Y-77874761D01*
X128920952Y-77922380D01*
X128825714Y-77922380D01*
X130206666Y-77922380D02*
X129635238Y-77922380D01*
X129920952Y-77922380D02*
X129920952Y-76922380D01*
X129825714Y-77065238D01*
X129730476Y-77160476D01*
X129635238Y-77208095D01*
M02*
