M48
; DRILL file {KiCad (5.1.10-0-10_14)} date Tuesday, November 02, 2021 at 10:25:11 AM
; FORMAT={2:4/ absolute / inch / suppress leading zeros}
; #@! TF.CreationDate,2021-11-02T10:25:11+01:00
; #@! TF.GenerationSoftware,Kicad,Pcbnew,(5.1.10-0-10_14)
FMAT,2
INCH,TZ
T1C0.0157
T2C0.0236
T3C0.0315
T4C0.0362
T5C0.0394
T6C0.0917
%
G90
G05
T1
X45000Y-29900
X45900Y-26100
X47300Y-24500
X48000Y-26800
X48353Y-24689
X48353Y-28088
X48600Y-24400
X48600Y-28900
X48847Y-26939
X49100Y-25300
X49601Y-23614
X49700Y-30500
X49868Y-27518
X49900Y-24200
X50200Y-23000
X50200Y-26600
X50500Y-25400
X50638Y-22938
X50900Y-23400
X51400Y-27600
X53100Y-30500
X53200Y-23100
X53200Y-26700
X53500Y-28900
X53790Y-25702
X53800Y-24100
X55700Y-23000
X58600Y-25000
X59400Y-23100
T2
X44250Y-30500
X45037Y-30500
T3
X53750Y-30250
X55671Y-30250
T4
X41713Y-26266
X41713Y-27250
X42500Y-26266
X42500Y-27250
T5
X59000Y-22500
X59000Y-23500
X59000Y-24500
X59250Y-29750
X59250Y-30750
X60000Y-22500
X60000Y-23500
X60000Y-24500
X61750Y-27500
X61750Y-28500
X61750Y-29500
X62750Y-27500
X62750Y-28500
X62750Y-29500
T6
X40646Y-24388
X40646Y-29128
T0
M30
