%TF.GenerationSoftware,KiCad,Pcbnew,(5.1.10-0-10_14)*%
%TF.CreationDate,2021-11-02T10:24:53+01:00*%
%TF.ProjectId,UPDI_programmer,55504449-5f70-4726-9f67-72616d6d6572,rev?*%
%TF.SameCoordinates,Original*%
%TF.FileFunction,Copper,L1,Top*%
%TF.FilePolarity,Positive*%
%FSLAX46Y46*%
G04 Gerber Fmt 4.6, Leading zero omitted, Abs format (unit mm)*
G04 Created by KiCad (PCBNEW (5.1.10-0-10_14)) date 2021-11-02 10:24:53*
%MOMM*%
%LPD*%
G01*
G04 APERTURE LIST*
%TA.AperFunction,ComponentPad*%
%ADD10C,3.500000*%
%TD*%
%TA.AperFunction,ComponentPad*%
%ADD11C,1.700000*%
%TD*%
%TA.AperFunction,ComponentPad*%
%ADD12R,1.700000X1.700000*%
%TD*%
%TA.AperFunction,ComponentPad*%
%ADD13O,1.700000X1.700000*%
%TD*%
%TA.AperFunction,ComponentPad*%
%ADD14C,1.500000*%
%TD*%
%TA.AperFunction,SMDPad,CuDef*%
%ADD15R,1.000000X0.400000*%
%TD*%
%TA.AperFunction,SMDPad,CuDef*%
%ADD16R,1.600000X0.550000*%
%TD*%
%TA.AperFunction,SMDPad,CuDef*%
%ADD17R,0.550000X1.600000*%
%TD*%
%TA.AperFunction,ComponentPad*%
%ADD18C,1.200000*%
%TD*%
%TA.AperFunction,ComponentPad*%
%ADD19R,1.200000X1.200000*%
%TD*%
%TA.AperFunction,ViaPad*%
%ADD20C,0.600000*%
%TD*%
%TA.AperFunction,Conductor*%
%ADD21C,0.152400*%
%TD*%
%TA.AperFunction,Conductor*%
%ADD22C,0.254000*%
%TD*%
%TA.AperFunction,Conductor*%
%ADD23C,0.100000*%
%TD*%
G04 APERTURE END LIST*
D10*
%TO.P,J3,5*%
%TO.N,Net-(J3-Pad5)*%
X103240000Y-61945000D03*
X103240000Y-73985000D03*
D11*
%TO.P,J3,4*%
%TO.N,GND*%
X105950000Y-69215000D03*
%TO.P,J3,3*%
%TO.N,Net-(C2-Pad1)*%
X105950000Y-66715000D03*
%TO.P,J3,2*%
%TO.N,Net-(C1-Pad1)*%
X107950000Y-66715000D03*
D12*
%TO.P,J3,1*%
%TO.N,Net-(C3-Pad1)*%
X107950000Y-69215000D03*
%TD*%
D13*
%TO.P,J2,6*%
%TO.N,GND*%
X152400000Y-62230000D03*
%TO.P,J2,5*%
%TO.N,~RESET*%
X149860000Y-62230000D03*
%TO.P,J2,4*%
%TO.N,MOSI*%
X152400000Y-59690000D03*
%TO.P,J2,3*%
%TO.N,SCK*%
X149860000Y-59690000D03*
%TO.P,J2,2*%
%TO.N,VCC*%
X152400000Y-57150000D03*
D12*
%TO.P,J2,1*%
%TO.N,MISO*%
X149860000Y-57150000D03*
%TD*%
D14*
%TO.P,Y1,2*%
%TO.N,Net-(C11-Pad1)*%
X141405000Y-76835000D03*
%TO.P,Y1,1*%
%TO.N,Net-(C10-Pad2)*%
X136525000Y-76835000D03*
%TD*%
D15*
%TO.P,U1,16*%
%TO.N,Net-(U1-Pad16)*%
X130535000Y-58050000D03*
%TO.P,U1,15*%
%TO.N,Net-(U1-Pad15)*%
X130535000Y-58700000D03*
%TO.P,U1,14*%
%TO.N,~RXLED*%
X130535000Y-59350000D03*
%TO.P,U1,13*%
%TO.N,GND*%
X130535000Y-60000000D03*
%TO.P,U1,12*%
%TO.N,VCC*%
X130535000Y-60650000D03*
%TO.P,U1,11*%
%TO.N,Net-(C9-Pad2)*%
X130535000Y-61300000D03*
%TO.P,U1,10*%
X130535000Y-61950000D03*
%TO.P,U1,9*%
%TO.N,USBD-*%
X130535000Y-62600000D03*
%TO.P,U1,8*%
%TO.N,USBD+*%
X124735000Y-62600000D03*
%TO.P,U1,7*%
%TO.N,~TXLED*%
X124735000Y-61950000D03*
%TO.P,U1,6*%
%TO.N,GND*%
X124735000Y-61300000D03*
%TO.P,U1,5*%
X124735000Y-60650000D03*
%TO.P,U1,4*%
%TO.N,TxD*%
X124735000Y-60000000D03*
%TO.P,U1,3*%
%TO.N,Net-(C9-Pad2)*%
X124735000Y-59350000D03*
%TO.P,U1,2*%
%TO.N,Net-(U1-Pad2)*%
X124735000Y-58700000D03*
%TO.P,U1,1*%
%TO.N,RxD*%
X124735000Y-58050000D03*
%TD*%
D16*
%TO.P,U2,32*%
%TO.N,Net-(U2-Pad32)*%
X132910000Y-70110000D03*
%TO.P,U2,31*%
%TO.N,TxD*%
X132910000Y-69310000D03*
%TO.P,U2,30*%
%TO.N,RxD*%
X132910000Y-68510000D03*
%TO.P,U2,29*%
%TO.N,~RESET*%
X132910000Y-67710000D03*
%TO.P,U2,28*%
%TO.N,Net-(U2-Pad28)*%
X132910000Y-66910000D03*
%TO.P,U2,27*%
%TO.N,Net-(U2-Pad27)*%
X132910000Y-66110000D03*
%TO.P,U2,26*%
%TO.N,Net-(U2-Pad26)*%
X132910000Y-65310000D03*
%TO.P,U2,25*%
%TO.N,Net-(U2-Pad25)*%
X132910000Y-64510000D03*
D17*
%TO.P,U2,24*%
%TO.N,Net-(U2-Pad24)*%
X134360000Y-63060000D03*
%TO.P,U2,23*%
%TO.N,Net-(U2-Pad23)*%
X135160000Y-63060000D03*
%TO.P,U2,22*%
%TO.N,Net-(U2-Pad22)*%
X135960000Y-63060000D03*
%TO.P,U2,21*%
%TO.N,GND*%
X136760000Y-63060000D03*
%TO.P,U2,20*%
%TO.N,Net-(C8-Pad1)*%
X137560000Y-63060000D03*
%TO.P,U2,19*%
%TO.N,Net-(U2-Pad19)*%
X138360000Y-63060000D03*
%TO.P,U2,18*%
%TO.N,VCC*%
X139160000Y-63060000D03*
%TO.P,U2,17*%
%TO.N,SCK*%
X139960000Y-63060000D03*
D16*
%TO.P,U2,16*%
%TO.N,MISO*%
X141410000Y-64510000D03*
%TO.P,U2,15*%
%TO.N,MOSI*%
X141410000Y-65310000D03*
%TO.P,U2,14*%
%TO.N,Net-(U2-Pad14)*%
X141410000Y-66110000D03*
%TO.P,U2,13*%
%TO.N,Net-(U2-Pad13)*%
X141410000Y-66910000D03*
%TO.P,U2,12*%
%TO.N,Net-(U2-Pad12)*%
X141410000Y-67710000D03*
%TO.P,U2,11*%
%TO.N,Net-(U2-Pad11)*%
X141410000Y-68510000D03*
%TO.P,U2,10*%
%TO.N,UPDI*%
X141410000Y-69310000D03*
%TO.P,U2,9*%
%TO.N,Net-(U2-Pad9)*%
X141410000Y-70110000D03*
D17*
%TO.P,U2,8*%
%TO.N,Net-(C11-Pad1)*%
X139960000Y-71560000D03*
%TO.P,U2,7*%
%TO.N,Net-(C10-Pad2)*%
X139160000Y-71560000D03*
%TO.P,U2,6*%
%TO.N,VCC*%
X138360000Y-71560000D03*
%TO.P,U2,5*%
%TO.N,GND*%
X137560000Y-71560000D03*
%TO.P,U2,4*%
%TO.N,VCC*%
X136760000Y-71560000D03*
%TO.P,U2,3*%
%TO.N,GND*%
X135960000Y-71560000D03*
%TO.P,U2,2*%
%TO.N,Net-(U2-Pad2)*%
X135160000Y-71560000D03*
%TO.P,U2,1*%
%TO.N,Net-(U2-Pad1)*%
X134360000Y-71560000D03*
%TD*%
%TO.P,R5,2*%
%TO.N,Net-(D2-Pad2)*%
%TA.AperFunction,SMDPad,CuDef*%
G36*
G01*
X127265000Y-78095000D02*
X127265000Y-76845000D01*
G75*
G02*
X127515000Y-76595000I250000J0D01*
G01*
X128315000Y-76595000D01*
G75*
G02*
X128565000Y-76845000I0J-250000D01*
G01*
X128565000Y-78095000D01*
G75*
G02*
X128315000Y-78345000I-250000J0D01*
G01*
X127515000Y-78345000D01*
G75*
G02*
X127265000Y-78095000I0J250000D01*
G01*
G37*
%TD.AperFunction*%
%TO.P,R5,1*%
%TO.N,Net-(C9-Pad2)*%
%TA.AperFunction,SMDPad,CuDef*%
G36*
G01*
X124165000Y-78095000D02*
X124165000Y-76845000D01*
G75*
G02*
X124415000Y-76595000I250000J0D01*
G01*
X125215000Y-76595000D01*
G75*
G02*
X125465000Y-76845000I0J-250000D01*
G01*
X125465000Y-78095000D01*
G75*
G02*
X125215000Y-78345000I-250000J0D01*
G01*
X124415000Y-78345000D01*
G75*
G02*
X124165000Y-78095000I0J250000D01*
G01*
G37*
%TD.AperFunction*%
%TD*%
%TO.P,R1,2*%
%TO.N,VCC*%
%TA.AperFunction,SMDPad,CuDef*%
G36*
G01*
X114565000Y-59045000D02*
X114565000Y-57795000D01*
G75*
G02*
X114815000Y-57545000I250000J0D01*
G01*
X115615000Y-57545000D01*
G75*
G02*
X115865000Y-57795000I0J-250000D01*
G01*
X115865000Y-59045000D01*
G75*
G02*
X115615000Y-59295000I-250000J0D01*
G01*
X114815000Y-59295000D01*
G75*
G02*
X114565000Y-59045000I0J250000D01*
G01*
G37*
%TD.AperFunction*%
%TO.P,R1,1*%
%TO.N,Net-(D3-Pad2)*%
%TA.AperFunction,SMDPad,CuDef*%
G36*
G01*
X111465000Y-59045000D02*
X111465000Y-57795000D01*
G75*
G02*
X111715000Y-57545000I250000J0D01*
G01*
X112515000Y-57545000D01*
G75*
G02*
X112765000Y-57795000I0J-250000D01*
G01*
X112765000Y-59045000D01*
G75*
G02*
X112515000Y-59295000I-250000J0D01*
G01*
X111715000Y-59295000D01*
G75*
G02*
X111465000Y-59045000I0J250000D01*
G01*
G37*
%TD.AperFunction*%
%TD*%
%TO.P,R4,2*%
%TO.N,Net-(D1-Pad2)*%
%TA.AperFunction,SMDPad,CuDef*%
G36*
G01*
X120915000Y-78095000D02*
X120915000Y-76845000D01*
G75*
G02*
X121165000Y-76595000I250000J0D01*
G01*
X121965000Y-76595000D01*
G75*
G02*
X122215000Y-76845000I0J-250000D01*
G01*
X122215000Y-78095000D01*
G75*
G02*
X121965000Y-78345000I-250000J0D01*
G01*
X121165000Y-78345000D01*
G75*
G02*
X120915000Y-78095000I0J250000D01*
G01*
G37*
%TD.AperFunction*%
%TO.P,R4,1*%
%TO.N,Net-(C9-Pad2)*%
%TA.AperFunction,SMDPad,CuDef*%
G36*
G01*
X117815000Y-78095000D02*
X117815000Y-76845000D01*
G75*
G02*
X118065000Y-76595000I250000J0D01*
G01*
X118865000Y-76595000D01*
G75*
G02*
X119115000Y-76845000I0J-250000D01*
G01*
X119115000Y-78095000D01*
G75*
G02*
X118865000Y-78345000I-250000J0D01*
G01*
X118065000Y-78345000D01*
G75*
G02*
X117815000Y-78095000I0J250000D01*
G01*
G37*
%TD.AperFunction*%
%TD*%
%TO.P,R6,2*%
%TO.N,~RESET*%
%TA.AperFunction,SMDPad,CuDef*%
G36*
G01*
X142505000Y-59045000D02*
X142505000Y-57795000D01*
G75*
G02*
X142755000Y-57545000I250000J0D01*
G01*
X143555000Y-57545000D01*
G75*
G02*
X143805000Y-57795000I0J-250000D01*
G01*
X143805000Y-59045000D01*
G75*
G02*
X143555000Y-59295000I-250000J0D01*
G01*
X142755000Y-59295000D01*
G75*
G02*
X142505000Y-59045000I0J250000D01*
G01*
G37*
%TD.AperFunction*%
%TO.P,R6,1*%
%TO.N,VCC*%
%TA.AperFunction,SMDPad,CuDef*%
G36*
G01*
X139405000Y-59045000D02*
X139405000Y-57795000D01*
G75*
G02*
X139655000Y-57545000I250000J0D01*
G01*
X140455000Y-57545000D01*
G75*
G02*
X140705000Y-57795000I0J-250000D01*
G01*
X140705000Y-59045000D01*
G75*
G02*
X140455000Y-59295000I-250000J0D01*
G01*
X139655000Y-59295000D01*
G75*
G02*
X139405000Y-59045000I0J250000D01*
G01*
G37*
%TD.AperFunction*%
%TD*%
%TO.P,R2,2*%
%TO.N,Net-(C1-Pad1)*%
%TA.AperFunction,SMDPad,CuDef*%
G36*
G01*
X120915000Y-66665000D02*
X120915000Y-65415000D01*
G75*
G02*
X121165000Y-65165000I250000J0D01*
G01*
X121965000Y-65165000D01*
G75*
G02*
X122215000Y-65415000I0J-250000D01*
G01*
X122215000Y-66665000D01*
G75*
G02*
X121965000Y-66915000I-250000J0D01*
G01*
X121165000Y-66915000D01*
G75*
G02*
X120915000Y-66665000I0J250000D01*
G01*
G37*
%TD.AperFunction*%
%TO.P,R2,1*%
%TO.N,USBD-*%
%TA.AperFunction,SMDPad,CuDef*%
G36*
G01*
X117815000Y-66665000D02*
X117815000Y-65415000D01*
G75*
G02*
X118065000Y-65165000I250000J0D01*
G01*
X118865000Y-65165000D01*
G75*
G02*
X119115000Y-65415000I0J-250000D01*
G01*
X119115000Y-66665000D01*
G75*
G02*
X118865000Y-66915000I-250000J0D01*
G01*
X118065000Y-66915000D01*
G75*
G02*
X117815000Y-66665000I0J250000D01*
G01*
G37*
%TD.AperFunction*%
%TD*%
%TO.P,R3,2*%
%TO.N,Net-(C2-Pad1)*%
%TA.AperFunction,SMDPad,CuDef*%
G36*
G01*
X120915000Y-70475000D02*
X120915000Y-69225000D01*
G75*
G02*
X121165000Y-68975000I250000J0D01*
G01*
X121965000Y-68975000D01*
G75*
G02*
X122215000Y-69225000I0J-250000D01*
G01*
X122215000Y-70475000D01*
G75*
G02*
X121965000Y-70725000I-250000J0D01*
G01*
X121165000Y-70725000D01*
G75*
G02*
X120915000Y-70475000I0J250000D01*
G01*
G37*
%TD.AperFunction*%
%TO.P,R3,1*%
%TO.N,USBD+*%
%TA.AperFunction,SMDPad,CuDef*%
G36*
G01*
X117815000Y-70475000D02*
X117815000Y-69225000D01*
G75*
G02*
X118065000Y-68975000I250000J0D01*
G01*
X118865000Y-68975000D01*
G75*
G02*
X119115000Y-69225000I0J-250000D01*
G01*
X119115000Y-70475000D01*
G75*
G02*
X118865000Y-70725000I-250000J0D01*
G01*
X118065000Y-70725000D01*
G75*
G02*
X117815000Y-70475000I0J250000D01*
G01*
G37*
%TD.AperFunction*%
%TD*%
%TO.P,R7,2*%
%TO.N,Net-(J1-Pad1)*%
%TA.AperFunction,SMDPad,CuDef*%
G36*
G01*
X147585000Y-70475000D02*
X147585000Y-69225000D01*
G75*
G02*
X147835000Y-68975000I250000J0D01*
G01*
X148635000Y-68975000D01*
G75*
G02*
X148885000Y-69225000I0J-250000D01*
G01*
X148885000Y-70475000D01*
G75*
G02*
X148635000Y-70725000I-250000J0D01*
G01*
X147835000Y-70725000D01*
G75*
G02*
X147585000Y-70475000I0J250000D01*
G01*
G37*
%TD.AperFunction*%
%TO.P,R7,1*%
%TO.N,UPDI*%
%TA.AperFunction,SMDPad,CuDef*%
G36*
G01*
X144485000Y-70475000D02*
X144485000Y-69225000D01*
G75*
G02*
X144735000Y-68975000I250000J0D01*
G01*
X145535000Y-68975000D01*
G75*
G02*
X145785000Y-69225000I0J-250000D01*
G01*
X145785000Y-70475000D01*
G75*
G02*
X145535000Y-70725000I-250000J0D01*
G01*
X144735000Y-70725000D01*
G75*
G02*
X144485000Y-70475000I0J250000D01*
G01*
G37*
%TD.AperFunction*%
%TD*%
D13*
%TO.P,JP1,2*%
%TO.N,UPDI*%
X150495000Y-78105000D03*
D12*
%TO.P,JP1,1*%
%TO.N,Net-(J1-Pad1)*%
X150495000Y-75565000D03*
%TD*%
D11*
%TO.P,J1,6*%
%TO.N,GND*%
X159385000Y-74930000D03*
%TO.P,J1,4*%
%TO.N,Net-(J1-Pad4)*%
X159385000Y-72390000D03*
%TO.P,J1,2*%
%TO.N,VCC*%
X159385000Y-69850000D03*
%TO.P,J1,5*%
%TO.N,Net-(J1-Pad5)*%
X156845000Y-74930000D03*
%TO.P,J1,3*%
%TO.N,Net-(J1-Pad3)*%
X156845000Y-72390000D03*
%TO.P,J1,1*%
%TO.N,Net-(J1-Pad1)*%
%TA.AperFunction,ComponentPad*%
G36*
G01*
X155995000Y-70450000D02*
X155995000Y-69250000D01*
G75*
G02*
X156245000Y-69000000I250000J0D01*
G01*
X157445000Y-69000000D01*
G75*
G02*
X157695000Y-69250000I0J-250000D01*
G01*
X157695000Y-70450000D01*
G75*
G02*
X157445000Y-70700000I-250000J0D01*
G01*
X156245000Y-70700000D01*
G75*
G02*
X155995000Y-70450000I0J250000D01*
G01*
G37*
%TD.AperFunction*%
%TD*%
%TO.P,FB1,2*%
%TO.N,Net-(C3-Pad1)*%
%TA.AperFunction,SMDPad,CuDef*%
G36*
G01*
X106415000Y-76845000D02*
X106415000Y-78095000D01*
G75*
G02*
X106165000Y-78345000I-250000J0D01*
G01*
X105365000Y-78345000D01*
G75*
G02*
X105115000Y-78095000I0J250000D01*
G01*
X105115000Y-76845000D01*
G75*
G02*
X105365000Y-76595000I250000J0D01*
G01*
X106165000Y-76595000D01*
G75*
G02*
X106415000Y-76845000I0J-250000D01*
G01*
G37*
%TD.AperFunction*%
%TO.P,FB1,1*%
%TO.N,VCC*%
%TA.AperFunction,SMDPad,CuDef*%
G36*
G01*
X109515000Y-76845000D02*
X109515000Y-78095000D01*
G75*
G02*
X109265000Y-78345000I-250000J0D01*
G01*
X108465000Y-78345000D01*
G75*
G02*
X108215000Y-78095000I0J250000D01*
G01*
X108215000Y-76845000D01*
G75*
G02*
X108465000Y-76595000I250000J0D01*
G01*
X109265000Y-76595000D01*
G75*
G02*
X109515000Y-76845000I0J-250000D01*
G01*
G37*
%TD.AperFunction*%
%TD*%
%TO.P,D3,2*%
%TO.N,Net-(D3-Pad2)*%
%TA.AperFunction,SMDPad,CuDef*%
G36*
G01*
X108090000Y-59045000D02*
X108090000Y-57795000D01*
G75*
G02*
X108340000Y-57545000I250000J0D01*
G01*
X109265000Y-57545000D01*
G75*
G02*
X109515000Y-57795000I0J-250000D01*
G01*
X109515000Y-59045000D01*
G75*
G02*
X109265000Y-59295000I-250000J0D01*
G01*
X108340000Y-59295000D01*
G75*
G02*
X108090000Y-59045000I0J250000D01*
G01*
G37*
%TD.AperFunction*%
%TO.P,D3,1*%
%TO.N,GND*%
%TA.AperFunction,SMDPad,CuDef*%
G36*
G01*
X105115000Y-59045000D02*
X105115000Y-57795000D01*
G75*
G02*
X105365000Y-57545000I250000J0D01*
G01*
X106290000Y-57545000D01*
G75*
G02*
X106540000Y-57795000I0J-250000D01*
G01*
X106540000Y-59045000D01*
G75*
G02*
X106290000Y-59295000I-250000J0D01*
G01*
X105365000Y-59295000D01*
G75*
G02*
X105115000Y-59045000I0J250000D01*
G01*
G37*
%TD.AperFunction*%
%TD*%
%TO.P,D2,2*%
%TO.N,Net-(D2-Pad2)*%
%TA.AperFunction,SMDPad,CuDef*%
G36*
G01*
X127140000Y-74285000D02*
X127140000Y-73035000D01*
G75*
G02*
X127390000Y-72785000I250000J0D01*
G01*
X128315000Y-72785000D01*
G75*
G02*
X128565000Y-73035000I0J-250000D01*
G01*
X128565000Y-74285000D01*
G75*
G02*
X128315000Y-74535000I-250000J0D01*
G01*
X127390000Y-74535000D01*
G75*
G02*
X127140000Y-74285000I0J250000D01*
G01*
G37*
%TD.AperFunction*%
%TO.P,D2,1*%
%TO.N,~TXLED*%
%TA.AperFunction,SMDPad,CuDef*%
G36*
G01*
X124165000Y-74285000D02*
X124165000Y-73035000D01*
G75*
G02*
X124415000Y-72785000I250000J0D01*
G01*
X125340000Y-72785000D01*
G75*
G02*
X125590000Y-73035000I0J-250000D01*
G01*
X125590000Y-74285000D01*
G75*
G02*
X125340000Y-74535000I-250000J0D01*
G01*
X124415000Y-74535000D01*
G75*
G02*
X124165000Y-74285000I0J250000D01*
G01*
G37*
%TD.AperFunction*%
%TD*%
%TO.P,D1,2*%
%TO.N,Net-(D1-Pad2)*%
%TA.AperFunction,SMDPad,CuDef*%
G36*
G01*
X120790000Y-74285000D02*
X120790000Y-73035000D01*
G75*
G02*
X121040000Y-72785000I250000J0D01*
G01*
X121965000Y-72785000D01*
G75*
G02*
X122215000Y-73035000I0J-250000D01*
G01*
X122215000Y-74285000D01*
G75*
G02*
X121965000Y-74535000I-250000J0D01*
G01*
X121040000Y-74535000D01*
G75*
G02*
X120790000Y-74285000I0J250000D01*
G01*
G37*
%TD.AperFunction*%
%TO.P,D1,1*%
%TO.N,~RXLED*%
%TA.AperFunction,SMDPad,CuDef*%
G36*
G01*
X117815000Y-74285000D02*
X117815000Y-73035000D01*
G75*
G02*
X118065000Y-72785000I250000J0D01*
G01*
X118990000Y-72785000D01*
G75*
G02*
X119240000Y-73035000I0J-250000D01*
G01*
X119240000Y-74285000D01*
G75*
G02*
X118990000Y-74535000I-250000J0D01*
G01*
X118065000Y-74535000D01*
G75*
G02*
X117815000Y-74285000I0J250000D01*
G01*
G37*
%TD.AperFunction*%
%TD*%
%TO.P,C9,2*%
%TO.N,Net-(C9-Pad2)*%
%TA.AperFunction,SMDPad,CuDef*%
G36*
G01*
X136155000Y-59070001D02*
X136155000Y-57769999D01*
G75*
G02*
X136404999Y-57520000I249999J0D01*
G01*
X137230001Y-57520000D01*
G75*
G02*
X137480000Y-57769999I0J-249999D01*
G01*
X137480000Y-59070001D01*
G75*
G02*
X137230001Y-59320000I-249999J0D01*
G01*
X136404999Y-59320000D01*
G75*
G02*
X136155000Y-59070001I0J249999D01*
G01*
G37*
%TD.AperFunction*%
%TO.P,C9,1*%
%TO.N,GND*%
%TA.AperFunction,SMDPad,CuDef*%
G36*
G01*
X133030000Y-59070001D02*
X133030000Y-57769999D01*
G75*
G02*
X133279999Y-57520000I249999J0D01*
G01*
X134105001Y-57520000D01*
G75*
G02*
X134355000Y-57769999I0J-249999D01*
G01*
X134355000Y-59070001D01*
G75*
G02*
X134105001Y-59320000I-249999J0D01*
G01*
X133279999Y-59320000D01*
G75*
G02*
X133030000Y-59070001I0J249999D01*
G01*
G37*
%TD.AperFunction*%
%TD*%
D18*
%TO.P,C4,2*%
%TO.N,GND*%
X114395000Y-77470000D03*
D19*
%TO.P,C4,1*%
%TO.N,VCC*%
X112395000Y-77470000D03*
%TD*%
%TO.P,C6,2*%
%TO.N,VCC*%
%TA.AperFunction,SMDPad,CuDef*%
G36*
G01*
X120915000Y-62880001D02*
X120915000Y-61579999D01*
G75*
G02*
X121164999Y-61330000I249999J0D01*
G01*
X121990001Y-61330000D01*
G75*
G02*
X122240000Y-61579999I0J-249999D01*
G01*
X122240000Y-62880001D01*
G75*
G02*
X121990001Y-63130000I-249999J0D01*
G01*
X121164999Y-63130000D01*
G75*
G02*
X120915000Y-62880001I0J249999D01*
G01*
G37*
%TD.AperFunction*%
%TO.P,C6,1*%
%TO.N,GND*%
%TA.AperFunction,SMDPad,CuDef*%
G36*
G01*
X117790000Y-62880001D02*
X117790000Y-61579999D01*
G75*
G02*
X118039999Y-61330000I249999J0D01*
G01*
X118865001Y-61330000D01*
G75*
G02*
X119115000Y-61579999I0J-249999D01*
G01*
X119115000Y-62880001D01*
G75*
G02*
X118865001Y-63130000I-249999J0D01*
G01*
X118039999Y-63130000D01*
G75*
G02*
X117790000Y-62880001I0J249999D01*
G01*
G37*
%TD.AperFunction*%
%TD*%
%TO.P,C1,2*%
%TO.N,GND*%
%TA.AperFunction,SMDPad,CuDef*%
G36*
G01*
X114565000Y-62880001D02*
X114565000Y-61579999D01*
G75*
G02*
X114814999Y-61330000I249999J0D01*
G01*
X115640001Y-61330000D01*
G75*
G02*
X115890000Y-61579999I0J-249999D01*
G01*
X115890000Y-62880001D01*
G75*
G02*
X115640001Y-63130000I-249999J0D01*
G01*
X114814999Y-63130000D01*
G75*
G02*
X114565000Y-62880001I0J249999D01*
G01*
G37*
%TD.AperFunction*%
%TO.P,C1,1*%
%TO.N,Net-(C1-Pad1)*%
%TA.AperFunction,SMDPad,CuDef*%
G36*
G01*
X111440000Y-62880001D02*
X111440000Y-61579999D01*
G75*
G02*
X111689999Y-61330000I249999J0D01*
G01*
X112515001Y-61330000D01*
G75*
G02*
X112765000Y-61579999I0J-249999D01*
G01*
X112765000Y-62880001D01*
G75*
G02*
X112515001Y-63130000I-249999J0D01*
G01*
X111689999Y-63130000D01*
G75*
G02*
X111440000Y-62880001I0J249999D01*
G01*
G37*
%TD.AperFunction*%
%TD*%
%TO.P,C2,2*%
%TO.N,GND*%
%TA.AperFunction,SMDPad,CuDef*%
G36*
G01*
X114565000Y-66690001D02*
X114565000Y-65389999D01*
G75*
G02*
X114814999Y-65140000I249999J0D01*
G01*
X115640001Y-65140000D01*
G75*
G02*
X115890000Y-65389999I0J-249999D01*
G01*
X115890000Y-66690001D01*
G75*
G02*
X115640001Y-66940000I-249999J0D01*
G01*
X114814999Y-66940000D01*
G75*
G02*
X114565000Y-66690001I0J249999D01*
G01*
G37*
%TD.AperFunction*%
%TO.P,C2,1*%
%TO.N,Net-(C2-Pad1)*%
%TA.AperFunction,SMDPad,CuDef*%
G36*
G01*
X111440000Y-66690001D02*
X111440000Y-65389999D01*
G75*
G02*
X111689999Y-65140000I249999J0D01*
G01*
X112515001Y-65140000D01*
G75*
G02*
X112765000Y-65389999I0J-249999D01*
G01*
X112765000Y-66690001D01*
G75*
G02*
X112515001Y-66940000I-249999J0D01*
G01*
X111689999Y-66940000D01*
G75*
G02*
X111440000Y-66690001I0J249999D01*
G01*
G37*
%TD.AperFunction*%
%TD*%
%TO.P,C3,2*%
%TO.N,GND*%
%TA.AperFunction,SMDPad,CuDef*%
G36*
G01*
X114565000Y-70500001D02*
X114565000Y-69199999D01*
G75*
G02*
X114814999Y-68950000I249999J0D01*
G01*
X115640001Y-68950000D01*
G75*
G02*
X115890000Y-69199999I0J-249999D01*
G01*
X115890000Y-70500001D01*
G75*
G02*
X115640001Y-70750000I-249999J0D01*
G01*
X114814999Y-70750000D01*
G75*
G02*
X114565000Y-70500001I0J249999D01*
G01*
G37*
%TD.AperFunction*%
%TO.P,C3,1*%
%TO.N,Net-(C3-Pad1)*%
%TA.AperFunction,SMDPad,CuDef*%
G36*
G01*
X111440000Y-70500001D02*
X111440000Y-69199999D01*
G75*
G02*
X111689999Y-68950000I249999J0D01*
G01*
X112515001Y-68950000D01*
G75*
G02*
X112765000Y-69199999I0J-249999D01*
G01*
X112765000Y-70500001D01*
G75*
G02*
X112515001Y-70750000I-249999J0D01*
G01*
X111689999Y-70750000D01*
G75*
G02*
X111440000Y-70500001I0J249999D01*
G01*
G37*
%TD.AperFunction*%
%TD*%
%TO.P,C11,2*%
%TO.N,GND*%
%TA.AperFunction,SMDPad,CuDef*%
G36*
G01*
X146034999Y-77735000D02*
X147335001Y-77735000D01*
G75*
G02*
X147585000Y-77984999I0J-249999D01*
G01*
X147585000Y-78810001D01*
G75*
G02*
X147335001Y-79060000I-249999J0D01*
G01*
X146034999Y-79060000D01*
G75*
G02*
X145785000Y-78810001I0J249999D01*
G01*
X145785000Y-77984999D01*
G75*
G02*
X146034999Y-77735000I249999J0D01*
G01*
G37*
%TD.AperFunction*%
%TO.P,C11,1*%
%TO.N,Net-(C11-Pad1)*%
%TA.AperFunction,SMDPad,CuDef*%
G36*
G01*
X146034999Y-74610000D02*
X147335001Y-74610000D01*
G75*
G02*
X147585000Y-74859999I0J-249999D01*
G01*
X147585000Y-75685001D01*
G75*
G02*
X147335001Y-75935000I-249999J0D01*
G01*
X146034999Y-75935000D01*
G75*
G02*
X145785000Y-75685001I0J249999D01*
G01*
X145785000Y-74859999D01*
G75*
G02*
X146034999Y-74610000I249999J0D01*
G01*
G37*
%TD.AperFunction*%
%TD*%
%TO.P,C10,2*%
%TO.N,Net-(C10-Pad2)*%
%TA.AperFunction,SMDPad,CuDef*%
G36*
G01*
X132095001Y-75935000D02*
X130794999Y-75935000D01*
G75*
G02*
X130545000Y-75685001I0J249999D01*
G01*
X130545000Y-74859999D01*
G75*
G02*
X130794999Y-74610000I249999J0D01*
G01*
X132095001Y-74610000D01*
G75*
G02*
X132345000Y-74859999I0J-249999D01*
G01*
X132345000Y-75685001D01*
G75*
G02*
X132095001Y-75935000I-249999J0D01*
G01*
G37*
%TD.AperFunction*%
%TO.P,C10,1*%
%TO.N,GND*%
%TA.AperFunction,SMDPad,CuDef*%
G36*
G01*
X132095001Y-79060000D02*
X130794999Y-79060000D01*
G75*
G02*
X130545000Y-78810001I0J249999D01*
G01*
X130545000Y-77984999D01*
G75*
G02*
X130794999Y-77735000I249999J0D01*
G01*
X132095001Y-77735000D01*
G75*
G02*
X132345000Y-77984999I0J-249999D01*
G01*
X132345000Y-78810001D01*
G75*
G02*
X132095001Y-79060000I-249999J0D01*
G01*
G37*
%TD.AperFunction*%
%TD*%
%TO.P,C8,2*%
%TO.N,GND*%
%TA.AperFunction,SMDPad,CuDef*%
G36*
G01*
X127265000Y-70500001D02*
X127265000Y-69199999D01*
G75*
G02*
X127514999Y-68950000I249999J0D01*
G01*
X128340001Y-68950000D01*
G75*
G02*
X128590000Y-69199999I0J-249999D01*
G01*
X128590000Y-70500001D01*
G75*
G02*
X128340001Y-70750000I-249999J0D01*
G01*
X127514999Y-70750000D01*
G75*
G02*
X127265000Y-70500001I0J249999D01*
G01*
G37*
%TD.AperFunction*%
%TO.P,C8,1*%
%TO.N,Net-(C8-Pad1)*%
%TA.AperFunction,SMDPad,CuDef*%
G36*
G01*
X124140000Y-70500001D02*
X124140000Y-69199999D01*
G75*
G02*
X124389999Y-68950000I249999J0D01*
G01*
X125215001Y-68950000D01*
G75*
G02*
X125465000Y-69199999I0J-249999D01*
G01*
X125465000Y-70500001D01*
G75*
G02*
X125215001Y-70750000I-249999J0D01*
G01*
X124389999Y-70750000D01*
G75*
G02*
X124140000Y-70500001I0J249999D01*
G01*
G37*
%TD.AperFunction*%
%TD*%
%TO.P,C7,2*%
%TO.N,VCC*%
%TA.AperFunction,SMDPad,CuDef*%
G36*
G01*
X127265000Y-66690001D02*
X127265000Y-65389999D01*
G75*
G02*
X127514999Y-65140000I249999J0D01*
G01*
X128340001Y-65140000D01*
G75*
G02*
X128590000Y-65389999I0J-249999D01*
G01*
X128590000Y-66690001D01*
G75*
G02*
X128340001Y-66940000I-249999J0D01*
G01*
X127514999Y-66940000D01*
G75*
G02*
X127265000Y-66690001I0J249999D01*
G01*
G37*
%TD.AperFunction*%
%TO.P,C7,1*%
%TO.N,GND*%
%TA.AperFunction,SMDPad,CuDef*%
G36*
G01*
X124140000Y-66690001D02*
X124140000Y-65389999D01*
G75*
G02*
X124389999Y-65140000I249999J0D01*
G01*
X125215001Y-65140000D01*
G75*
G02*
X125465000Y-65389999I0J-249999D01*
G01*
X125465000Y-66690001D01*
G75*
G02*
X125215001Y-66940000I-249999J0D01*
G01*
X124389999Y-66940000D01*
G75*
G02*
X124140000Y-66690001I0J249999D01*
G01*
G37*
%TD.AperFunction*%
%TD*%
%TO.P,C5,2*%
%TO.N,GND*%
%TA.AperFunction,SMDPad,CuDef*%
G36*
G01*
X120915000Y-59070001D02*
X120915000Y-57769999D01*
G75*
G02*
X121164999Y-57520000I249999J0D01*
G01*
X121990001Y-57520000D01*
G75*
G02*
X122240000Y-57769999I0J-249999D01*
G01*
X122240000Y-59070001D01*
G75*
G02*
X121990001Y-59320000I-249999J0D01*
G01*
X121164999Y-59320000D01*
G75*
G02*
X120915000Y-59070001I0J249999D01*
G01*
G37*
%TD.AperFunction*%
%TO.P,C5,1*%
%TO.N,VCC*%
%TA.AperFunction,SMDPad,CuDef*%
G36*
G01*
X117790000Y-59070001D02*
X117790000Y-57769999D01*
G75*
G02*
X118039999Y-57520000I249999J0D01*
G01*
X118865001Y-57520000D01*
G75*
G02*
X119115000Y-57769999I0J-249999D01*
G01*
X119115000Y-59070001D01*
G75*
G02*
X118865001Y-59320000I-249999J0D01*
G01*
X118039999Y-59320000D01*
G75*
G02*
X117790000Y-59070001I0J249999D01*
G01*
G37*
%TD.AperFunction*%
%TD*%
D20*
%TO.N,GND*%
X134874000Y-77470000D03*
X135890000Y-73406000D03*
X135128000Y-58674000D03*
X136652000Y-61214000D03*
X116586000Y-66294000D03*
X124714000Y-64262000D03*
%TO.N,VCC*%
X114300000Y-75946000D03*
X128270000Y-64516000D03*
X128619299Y-58261299D03*
X120142000Y-62230000D03*
X121920000Y-68072000D03*
%TO.N,Net-(C8-Pad1)*%
X130556000Y-70104000D03*
X136626710Y-65284287D03*
%TO.N,~RXLED*%
X129286000Y-59436000D03*
X126663526Y-69894536D03*
%TO.N,~TXLED*%
X123444000Y-73406000D03*
X123444000Y-61976000D03*
%TO.N,~RESET*%
X150876000Y-58674000D03*
X141478000Y-58420000D03*
X135128000Y-67818000D03*
%TO.N,MISO*%
X148844000Y-63500000D03*
%TO.N,USBD+*%
X122815390Y-62710877D03*
X122815390Y-71343711D03*
%TO.N,TxD*%
X125987078Y-59978610D03*
X124072610Y-68425520D03*
%TO.N,RxD*%
X127508000Y-58420000D03*
X127508000Y-67564000D03*
%TO.N,Net-(C9-Pad2)*%
X126238000Y-77470000D03*
X126746000Y-61468000D03*
%TD*%
D21*
%TO.N,GND*%
X133946500Y-78397500D02*
X134874000Y-77470000D01*
X131445000Y-78397500D02*
X133946500Y-78397500D01*
X135890000Y-71630000D02*
X135960000Y-71560000D01*
X135890000Y-73406000D02*
X135890000Y-71630000D01*
X137560000Y-70531400D02*
X137560000Y-71560000D01*
X135998101Y-70493299D02*
X137521899Y-70493299D01*
X135960000Y-70531400D02*
X135998101Y-70493299D01*
X137521899Y-70493299D02*
X137560000Y-70531400D01*
X135960000Y-71560000D02*
X135960000Y-70531400D01*
X123807500Y-60650000D02*
X124735000Y-60650000D01*
X121577500Y-58420000D02*
X123807500Y-60650000D01*
X124735000Y-60650000D02*
X124735000Y-61300000D01*
X132112500Y-60000000D02*
X133692500Y-58420000D01*
X130535000Y-60000000D02*
X132112500Y-60000000D01*
X134874000Y-58420000D02*
X135128000Y-58674000D01*
X133692500Y-58420000D02*
X134874000Y-58420000D01*
X136652000Y-62952000D02*
X136760000Y-63060000D01*
X136652000Y-61214000D02*
X136652000Y-62952000D01*
X136760000Y-63060000D02*
X136760000Y-64088600D01*
X135960000Y-64888600D02*
X135960000Y-70531400D01*
X136760000Y-64088600D02*
X135960000Y-64888600D01*
X116332000Y-66040000D02*
X116586000Y-66294000D01*
X115227500Y-66040000D02*
X116332000Y-66040000D01*
X124802500Y-64350500D02*
X124714000Y-64262000D01*
X124802500Y-66040000D02*
X124802500Y-64350500D01*
%TO.N,VCC*%
X108865000Y-77470000D02*
X112395000Y-77470000D01*
X112776000Y-77470000D02*
X114300000Y-75946000D01*
X112395000Y-77470000D02*
X112776000Y-77470000D01*
X159385000Y-64135000D02*
X159385000Y-69850000D01*
X152400000Y-57150000D02*
X159385000Y-64135000D01*
X151283299Y-56033299D02*
X152400000Y-57150000D01*
X141566701Y-56033299D02*
X151283299Y-56033299D01*
X140055000Y-57545000D02*
X141566701Y-56033299D01*
X140055000Y-58420000D02*
X140055000Y-57545000D01*
X129182710Y-57253290D02*
X128619299Y-57816701D01*
X128619299Y-57816701D02*
X128619299Y-59756017D01*
X138888290Y-57253290D02*
X129182710Y-57253290D01*
X128619299Y-59756017D02*
X129513282Y-60650000D01*
X140055000Y-58420000D02*
X138888290Y-57253290D01*
X129513282Y-60650000D02*
X130535000Y-60650000D01*
X115215000Y-58420000D02*
X118452500Y-58420000D01*
X118452500Y-59105000D02*
X121577500Y-62230000D01*
X118452500Y-58420000D02*
X118452500Y-59105000D01*
X127927500Y-64858500D02*
X128270000Y-64516000D01*
X127927500Y-66040000D02*
X127927500Y-64858500D01*
X139160000Y-63815062D02*
X139160000Y-63060000D01*
X138360000Y-64615062D02*
X139160000Y-63815062D01*
X138360000Y-71560000D02*
X138360000Y-64615062D01*
X139160000Y-59315000D02*
X140055000Y-58420000D01*
X139160000Y-63060000D02*
X139160000Y-59315000D01*
X121577500Y-62230000D02*
X120142000Y-62230000D01*
X127927500Y-66040000D02*
X126295499Y-67672001D01*
X126295499Y-67672001D02*
X122319999Y-67672001D01*
X122319999Y-67672001D02*
X121920000Y-68072000D01*
X138360000Y-72588600D02*
X138360000Y-71560000D01*
X138321899Y-72626701D02*
X138360000Y-72588600D01*
X136798101Y-72626701D02*
X138321899Y-72626701D01*
X136760000Y-72588600D02*
X136798101Y-72626701D01*
X136760000Y-71560000D02*
X136760000Y-72588600D01*
%TO.N,Net-(C3-Pad1)*%
X107950000Y-69215000D02*
X107950000Y-72390000D01*
X105765000Y-74575000D02*
X105765000Y-77470000D01*
X107950000Y-72390000D02*
X105765000Y-74575000D01*
X111467500Y-69215000D02*
X112102500Y-69850000D01*
X107950000Y-69215000D02*
X111467500Y-69215000D01*
%TO.N,Net-(C8-Pad1)*%
X128538248Y-68721390D02*
X129920858Y-70104000D01*
X124802500Y-69850000D02*
X125931110Y-68721390D01*
X125931110Y-68721390D02*
X128538248Y-68721390D01*
X129920858Y-70104000D02*
X130556000Y-70104000D01*
X137560000Y-63060000D02*
X137560000Y-64350997D01*
X137560000Y-64350997D02*
X136626710Y-65284287D01*
%TO.N,Net-(D1-Pad2)*%
X121565000Y-73722500D02*
X121502500Y-73660000D01*
X121565000Y-77470000D02*
X121565000Y-73722500D01*
%TO.N,~RXLED*%
X130449000Y-59436000D02*
X130535000Y-59350000D01*
X129286000Y-59436000D02*
X130449000Y-59436000D01*
X119631110Y-72556390D02*
X124001672Y-72556390D01*
X124001672Y-72556390D02*
X126663526Y-69894536D01*
X118527500Y-73660000D02*
X119631110Y-72556390D01*
%TO.N,Net-(D2-Pad2)*%
X127915000Y-73722500D02*
X127852500Y-73660000D01*
X127915000Y-77470000D02*
X127915000Y-73722500D01*
%TO.N,~TXLED*%
X123698000Y-73660000D02*
X123444000Y-73406000D01*
X124877500Y-73660000D02*
X123698000Y-73660000D01*
X123470000Y-61950000D02*
X123444000Y-61976000D01*
X124735000Y-61950000D02*
X123470000Y-61950000D01*
%TO.N,Net-(D3-Pad2)*%
X108802500Y-58420000D02*
X112115000Y-58420000D01*
%TO.N,Net-(J1-Pad1)*%
X151130000Y-75565000D02*
X156845000Y-69850000D01*
X150495000Y-75565000D02*
X151130000Y-75565000D01*
X150495000Y-72110000D02*
X150495000Y-75565000D01*
X148235000Y-69850000D02*
X150495000Y-72110000D01*
%TO.N,~RESET*%
X143346399Y-58228601D02*
X143155000Y-58420000D01*
X150430601Y-58228601D02*
X143346399Y-58228601D01*
X150876000Y-58674000D02*
X150430601Y-58228601D01*
X143155000Y-58420000D02*
X141478000Y-58420000D01*
X133018000Y-67818000D02*
X132910000Y-67710000D01*
X135128000Y-67818000D02*
X133018000Y-67818000D01*
%TO.N,MOSI*%
X151321399Y-60768601D02*
X152400000Y-59690000D01*
X151321399Y-62364931D02*
X151321399Y-60768601D01*
X148376330Y-65310000D02*
X151321399Y-62364931D01*
X141410000Y-65310000D02*
X148376330Y-65310000D01*
%TO.N,SCK*%
X143330000Y-59690000D02*
X139960000Y-63060000D01*
X149860000Y-59690000D02*
X143330000Y-59690000D01*
%TO.N,MISO*%
X147834000Y-64510000D02*
X148844000Y-63500000D01*
X141410000Y-64510000D02*
X147834000Y-64510000D01*
%TO.N,Net-(J3-Pad5)*%
X103240000Y-61945000D02*
X103240000Y-73985000D01*
%TO.N,UPDI*%
X147813610Y-75423610D02*
X150495000Y-78105000D01*
X147813610Y-72528610D02*
X147813610Y-75423610D01*
X144595000Y-69310000D02*
X145135000Y-69850000D01*
X141410000Y-69310000D02*
X144595000Y-69310000D01*
X145135000Y-69850000D02*
X147813610Y-72528610D01*
%TO.N,USBD+*%
X119483710Y-71743710D02*
X122415391Y-71743710D01*
X118465000Y-70725000D02*
X119483710Y-71743710D01*
X122415391Y-71743710D02*
X122815390Y-71343711D01*
X118465000Y-69850000D02*
X118465000Y-70725000D01*
X124735000Y-62600000D02*
X124624123Y-62710877D01*
X124624123Y-62710877D02*
X122815390Y-62710877D01*
%TO.N,USBD-*%
X119568610Y-67143610D02*
X122163248Y-67143610D01*
X118465000Y-66040000D02*
X119568610Y-67143610D01*
X122188248Y-67168610D02*
X125413248Y-67168610D01*
X125413248Y-67168610D02*
X126746000Y-65835858D01*
X122163248Y-67143610D02*
X122188248Y-67168610D01*
X126746000Y-65835858D02*
X126746000Y-64770000D01*
X126746000Y-64770000D02*
X127762000Y-63754000D01*
X129381000Y-63754000D02*
X130535000Y-62600000D01*
X127762000Y-63754000D02*
X129381000Y-63754000D01*
%TO.N,TxD*%
X124735000Y-60000000D02*
X125965688Y-60000000D01*
X125965688Y-60000000D02*
X125987078Y-59978610D01*
X129557924Y-69310000D02*
X128664504Y-68416579D01*
X128664504Y-68416579D02*
X124647236Y-68416579D01*
X124638295Y-68425520D02*
X124072610Y-68425520D01*
X132910000Y-69310000D02*
X129557924Y-69310000D01*
X124647236Y-68416579D02*
X124638295Y-68425520D01*
%TO.N,RxD*%
X127138000Y-58050000D02*
X127508000Y-58420000D01*
X124735000Y-58050000D02*
X127138000Y-58050000D01*
X131957600Y-68510000D02*
X132910000Y-68510000D01*
X131011600Y-67564000D02*
X131957600Y-68510000D01*
X127508000Y-67564000D02*
X131011600Y-67564000D01*
%TO.N,Net-(C1-Pad1)*%
X112102500Y-62562500D02*
X112102500Y-62230000D01*
X107950000Y-66715000D02*
X112102500Y-62562500D01*
X119343610Y-61381752D02*
X118921858Y-60960000D01*
X119343610Y-63818610D02*
X119343610Y-61381752D01*
X121565000Y-66040000D02*
X119343610Y-63818610D01*
X113372500Y-60960000D02*
X112102500Y-62230000D01*
X118921858Y-60960000D02*
X113372500Y-60960000D01*
%TO.N,Net-(C2-Pad1)*%
X110348899Y-67793601D02*
X112102500Y-66040000D01*
X107028601Y-67793601D02*
X110348899Y-67793601D01*
X105950000Y-66715000D02*
X107028601Y-67793601D01*
X118883610Y-67168610D02*
X121565000Y-69850000D01*
X112102500Y-66040000D02*
X113231110Y-67168610D01*
X113231110Y-67168610D02*
X118883610Y-67168610D01*
%TO.N,Net-(C9-Pad2)*%
X123711390Y-78573610D02*
X124815000Y-77470000D01*
X119568610Y-78573610D02*
X123711390Y-78573610D01*
X118465000Y-77470000D02*
X119568610Y-78573610D01*
X124735000Y-59350000D02*
X126660000Y-59350000D01*
X126660000Y-59350000D02*
X128610000Y-61300000D01*
X130535000Y-61300000D02*
X130535000Y-61950000D01*
X133937500Y-61300000D02*
X136817500Y-58420000D01*
X130535000Y-61300000D02*
X133937500Y-61300000D01*
X124815000Y-77470000D02*
X126238000Y-77470000D01*
X128696000Y-61468000D02*
X128864000Y-61300000D01*
X126746000Y-61468000D02*
X128696000Y-61468000D01*
X128864000Y-61300000D02*
X130535000Y-61300000D01*
X128610000Y-61300000D02*
X128864000Y-61300000D01*
%TO.N,Net-(C10-Pad2)*%
X134962500Y-75272500D02*
X136525000Y-76835000D01*
X131445000Y-75272500D02*
X134962500Y-75272500D01*
X139160000Y-74200000D02*
X139160000Y-71560000D01*
X136525000Y-76835000D02*
X139160000Y-74200000D01*
%TO.N,Net-(C11-Pad1)*%
X139960000Y-75390000D02*
X141405000Y-76835000D01*
X139960000Y-71560000D02*
X139960000Y-75390000D01*
X145122500Y-76835000D02*
X146685000Y-75272500D01*
X141405000Y-76835000D02*
X145122500Y-76835000D01*
%TD*%
D22*
%TO.N,GND*%
X139687285Y-56906928D02*
X139655000Y-56906928D01*
X139557334Y-56916547D01*
X139415892Y-56775105D01*
X139393617Y-56747963D01*
X139285323Y-56659088D01*
X139161771Y-56593048D01*
X139027710Y-56552381D01*
X138923226Y-56542090D01*
X138923216Y-56542090D01*
X138888290Y-56538650D01*
X138853364Y-56542090D01*
X129217627Y-56542090D01*
X129182709Y-56538651D01*
X129147791Y-56542090D01*
X129147774Y-56542090D01*
X129043290Y-56552381D01*
X128909229Y-56593048D01*
X128785677Y-56659088D01*
X128785675Y-56659089D01*
X128785676Y-56659089D01*
X128704518Y-56725693D01*
X128704514Y-56725697D01*
X128677383Y-56747963D01*
X128655117Y-56775095D01*
X128141109Y-57289104D01*
X128113972Y-57311375D01*
X128025097Y-57419669D01*
X127959057Y-57543221D01*
X127945158Y-57589040D01*
X127780729Y-57520932D01*
X127600089Y-57485000D01*
X127570616Y-57485000D01*
X127535033Y-57455798D01*
X127411481Y-57389758D01*
X127277420Y-57349091D01*
X127172936Y-57338800D01*
X127172926Y-57338800D01*
X127138000Y-57335360D01*
X127103074Y-57338800D01*
X125613056Y-57338800D01*
X125589494Y-57319463D01*
X125479180Y-57260498D01*
X125359482Y-57224188D01*
X125235000Y-57211928D01*
X124235000Y-57211928D01*
X124110518Y-57224188D01*
X123990820Y-57260498D01*
X123880506Y-57319463D01*
X123783815Y-57398815D01*
X123704463Y-57495506D01*
X123645498Y-57605820D01*
X123609188Y-57725518D01*
X123596928Y-57850000D01*
X123596928Y-58250000D01*
X123609188Y-58374482D01*
X123609345Y-58375000D01*
X123609188Y-58375518D01*
X123596928Y-58500000D01*
X123596928Y-58900000D01*
X123609188Y-59024482D01*
X123609345Y-59025000D01*
X123609188Y-59025518D01*
X123596928Y-59150000D01*
X123596928Y-59550000D01*
X123609188Y-59674482D01*
X123609345Y-59675000D01*
X123609188Y-59675518D01*
X123596928Y-59800000D01*
X123596928Y-60200000D01*
X123609188Y-60324482D01*
X123610134Y-60327602D01*
X123600000Y-60418250D01*
X123667968Y-60486218D01*
X123704463Y-60554494D01*
X123783529Y-60650836D01*
X123711445Y-60735272D01*
X123666905Y-60814845D01*
X123600000Y-60881750D01*
X123610425Y-60975000D01*
X123601590Y-61054029D01*
X123536089Y-61041000D01*
X123351911Y-61041000D01*
X123171271Y-61076932D01*
X123001111Y-61147414D01*
X122847972Y-61249738D01*
X122821432Y-61276278D01*
X122810472Y-61240149D01*
X122728405Y-61086613D01*
X122617962Y-60952038D01*
X122483387Y-60841595D01*
X122329851Y-60759528D01*
X122163255Y-60708992D01*
X121990001Y-60691928D01*
X121164999Y-60691928D01*
X121055956Y-60702668D01*
X119703548Y-59350261D01*
X119712727Y-59320000D01*
X120276928Y-59320000D01*
X120289188Y-59444482D01*
X120325498Y-59564180D01*
X120384463Y-59674494D01*
X120463815Y-59771185D01*
X120560506Y-59850537D01*
X120670820Y-59909502D01*
X120790518Y-59945812D01*
X120915000Y-59958072D01*
X121291750Y-59955000D01*
X121450500Y-59796250D01*
X121450500Y-58547000D01*
X121704500Y-58547000D01*
X121704500Y-59796250D01*
X121863250Y-59955000D01*
X122240000Y-59958072D01*
X122364482Y-59945812D01*
X122484180Y-59909502D01*
X122594494Y-59850537D01*
X122691185Y-59771185D01*
X122770537Y-59674494D01*
X122829502Y-59564180D01*
X122865812Y-59444482D01*
X122878072Y-59320000D01*
X122875000Y-58705750D01*
X122716250Y-58547000D01*
X121704500Y-58547000D01*
X121450500Y-58547000D01*
X120438750Y-58547000D01*
X120280000Y-58705750D01*
X120276928Y-59320000D01*
X119712727Y-59320000D01*
X119736008Y-59243255D01*
X119753072Y-59070001D01*
X119753072Y-57769999D01*
X119736008Y-57596745D01*
X119712728Y-57520000D01*
X120276928Y-57520000D01*
X120280000Y-58134250D01*
X120438750Y-58293000D01*
X121450500Y-58293000D01*
X121450500Y-57043750D01*
X121704500Y-57043750D01*
X121704500Y-58293000D01*
X122716250Y-58293000D01*
X122875000Y-58134250D01*
X122878072Y-57520000D01*
X122865812Y-57395518D01*
X122829502Y-57275820D01*
X122770537Y-57165506D01*
X122691185Y-57068815D01*
X122594494Y-56989463D01*
X122484180Y-56930498D01*
X122364482Y-56894188D01*
X122240000Y-56881928D01*
X121863250Y-56885000D01*
X121704500Y-57043750D01*
X121450500Y-57043750D01*
X121291750Y-56885000D01*
X120915000Y-56881928D01*
X120790518Y-56894188D01*
X120670820Y-56930498D01*
X120560506Y-56989463D01*
X120463815Y-57068815D01*
X120384463Y-57165506D01*
X120325498Y-57275820D01*
X120289188Y-57395518D01*
X120276928Y-57520000D01*
X119712728Y-57520000D01*
X119685472Y-57430149D01*
X119603405Y-57276613D01*
X119492962Y-57142038D01*
X119358387Y-57031595D01*
X119204851Y-56949528D01*
X119038255Y-56898992D01*
X118865001Y-56881928D01*
X118039999Y-56881928D01*
X117866745Y-56898992D01*
X117700149Y-56949528D01*
X117546613Y-57031595D01*
X117412038Y-57142038D01*
X117301595Y-57276613D01*
X117219528Y-57430149D01*
X117168992Y-57596745D01*
X117157956Y-57708800D01*
X116494582Y-57708800D01*
X116486008Y-57621746D01*
X116435472Y-57455150D01*
X116353405Y-57301614D01*
X116242962Y-57167038D01*
X116108386Y-57056595D01*
X115954850Y-56974528D01*
X115788254Y-56923992D01*
X115615000Y-56906928D01*
X114815000Y-56906928D01*
X114641746Y-56923992D01*
X114475150Y-56974528D01*
X114321614Y-57056595D01*
X114187038Y-57167038D01*
X114076595Y-57301614D01*
X113994528Y-57455150D01*
X113943992Y-57621746D01*
X113926928Y-57795000D01*
X113926928Y-59045000D01*
X113943992Y-59218254D01*
X113994528Y-59384850D01*
X114076595Y-59538386D01*
X114187038Y-59672962D01*
X114321614Y-59783405D01*
X114475150Y-59865472D01*
X114641746Y-59916008D01*
X114815000Y-59933072D01*
X115615000Y-59933072D01*
X115788254Y-59916008D01*
X115954850Y-59865472D01*
X116108386Y-59783405D01*
X116242962Y-59672962D01*
X116353405Y-59538386D01*
X116435472Y-59384850D01*
X116486008Y-59218254D01*
X116494582Y-59131200D01*
X117157956Y-59131200D01*
X117168992Y-59243255D01*
X117219528Y-59409851D01*
X117301595Y-59563387D01*
X117412038Y-59697962D01*
X117546613Y-59808405D01*
X117700149Y-59890472D01*
X117866745Y-59941008D01*
X118039999Y-59958072D01*
X118299785Y-59958072D01*
X118590513Y-60248800D01*
X113407425Y-60248800D01*
X113372499Y-60245360D01*
X113337573Y-60248800D01*
X113337564Y-60248800D01*
X113233080Y-60259091D01*
X113099019Y-60299758D01*
X113032959Y-60335068D01*
X112975467Y-60365798D01*
X112894308Y-60432403D01*
X112894304Y-60432407D01*
X112867173Y-60454673D01*
X112844907Y-60481804D01*
X112624044Y-60702668D01*
X112515001Y-60691928D01*
X111689999Y-60691928D01*
X111516745Y-60708992D01*
X111350149Y-60759528D01*
X111196613Y-60841595D01*
X111062038Y-60952038D01*
X110951595Y-61086613D01*
X110869528Y-61240149D01*
X110818992Y-61406745D01*
X110801928Y-61579999D01*
X110801928Y-62857284D01*
X108373972Y-65285241D01*
X108096260Y-65230000D01*
X107803740Y-65230000D01*
X107516842Y-65287068D01*
X107246589Y-65399010D01*
X107003368Y-65561525D01*
X106950000Y-65614893D01*
X106896632Y-65561525D01*
X106653411Y-65399010D01*
X106383158Y-65287068D01*
X106096260Y-65230000D01*
X105803740Y-65230000D01*
X105516842Y-65287068D01*
X105246589Y-65399010D01*
X105003368Y-65561525D01*
X104796525Y-65768368D01*
X104634010Y-66011589D01*
X104522068Y-66281842D01*
X104465000Y-66568740D01*
X104465000Y-66861260D01*
X104522068Y-67148158D01*
X104634010Y-67418411D01*
X104796525Y-67661632D01*
X105003368Y-67868475D01*
X105166410Y-67977416D01*
X105101208Y-68186603D01*
X105950000Y-69035395D01*
X105964143Y-69021253D01*
X106143748Y-69200858D01*
X106129605Y-69215000D01*
X106143748Y-69229143D01*
X105964143Y-69408748D01*
X105950000Y-69394605D01*
X105101208Y-70243397D01*
X105178843Y-70492472D01*
X105442883Y-70618371D01*
X105726411Y-70690339D01*
X106018531Y-70705611D01*
X106308019Y-70663599D01*
X106583747Y-70565919D01*
X106659850Y-70525241D01*
X106745506Y-70595537D01*
X106855820Y-70654502D01*
X106975518Y-70690812D01*
X107100000Y-70703072D01*
X107238800Y-70703072D01*
X107238801Y-72095410D01*
X105618217Y-73715996D01*
X105533346Y-73289321D01*
X105353560Y-72855279D01*
X105092550Y-72464651D01*
X104760349Y-72132450D01*
X104369721Y-71871440D01*
X103951200Y-71698083D01*
X103951200Y-69283531D01*
X104459389Y-69283531D01*
X104501401Y-69573019D01*
X104599081Y-69848747D01*
X104672528Y-69986157D01*
X104921603Y-70063792D01*
X105770395Y-69215000D01*
X104921603Y-68366208D01*
X104672528Y-68443843D01*
X104546629Y-68707883D01*
X104474661Y-68991411D01*
X104459389Y-69283531D01*
X103951200Y-69283531D01*
X103951200Y-64231917D01*
X104369721Y-64058560D01*
X104760349Y-63797550D01*
X105092550Y-63465349D01*
X105353560Y-63074721D01*
X105533346Y-62640679D01*
X105625000Y-62179902D01*
X105625000Y-61710098D01*
X105533346Y-61249321D01*
X105353560Y-60815279D01*
X105092550Y-60424651D01*
X104760349Y-60092450D01*
X104369721Y-59831440D01*
X103935679Y-59651654D01*
X103474902Y-59560000D01*
X103005098Y-59560000D01*
X102544321Y-59651654D01*
X102110279Y-59831440D01*
X101719651Y-60092450D01*
X101387450Y-60424651D01*
X101126440Y-60815279D01*
X100946654Y-61249321D01*
X100855000Y-61710098D01*
X100855000Y-62179902D01*
X100946654Y-62640679D01*
X101126440Y-63074721D01*
X101387450Y-63465349D01*
X101719651Y-63797550D01*
X102110279Y-64058560D01*
X102528800Y-64231917D01*
X102528801Y-71698083D01*
X102110279Y-71871440D01*
X101719651Y-72132450D01*
X101387450Y-72464651D01*
X101126440Y-72855279D01*
X100946654Y-73289321D01*
X100855000Y-73750098D01*
X100855000Y-74219902D01*
X100946654Y-74680679D01*
X101126440Y-75114721D01*
X101387450Y-75505349D01*
X101719651Y-75837550D01*
X102110279Y-76098560D01*
X102544321Y-76278346D01*
X103005098Y-76370000D01*
X103474902Y-76370000D01*
X103935679Y-76278346D01*
X104369721Y-76098560D01*
X104760349Y-75837550D01*
X105053800Y-75544099D01*
X105053800Y-76015837D01*
X105025150Y-76024528D01*
X104871614Y-76106595D01*
X104737038Y-76217038D01*
X104626595Y-76351614D01*
X104544528Y-76505150D01*
X104493992Y-76671746D01*
X104476928Y-76845000D01*
X104476928Y-78095000D01*
X104493992Y-78268254D01*
X104544528Y-78434850D01*
X104626595Y-78588386D01*
X104737038Y-78722962D01*
X104871614Y-78833405D01*
X105025150Y-78915472D01*
X105191746Y-78966008D01*
X105365000Y-78983072D01*
X106165000Y-78983072D01*
X106338254Y-78966008D01*
X106504850Y-78915472D01*
X106658386Y-78833405D01*
X106792962Y-78722962D01*
X106903405Y-78588386D01*
X106985472Y-78434850D01*
X107036008Y-78268254D01*
X107053072Y-78095000D01*
X107053072Y-76845000D01*
X107576928Y-76845000D01*
X107576928Y-78095000D01*
X107593992Y-78268254D01*
X107644528Y-78434850D01*
X107726595Y-78588386D01*
X107837038Y-78722962D01*
X107971614Y-78833405D01*
X108125150Y-78915472D01*
X108291746Y-78966008D01*
X108465000Y-78983072D01*
X109265000Y-78983072D01*
X109438254Y-78966008D01*
X109604850Y-78915472D01*
X109758386Y-78833405D01*
X109892962Y-78722962D01*
X110003405Y-78588386D01*
X110085472Y-78434850D01*
X110136008Y-78268254D01*
X110144582Y-78181200D01*
X111167880Y-78181200D01*
X111169188Y-78194482D01*
X111205498Y-78314180D01*
X111264463Y-78424494D01*
X111343815Y-78521185D01*
X111440506Y-78600537D01*
X111550820Y-78659502D01*
X111670518Y-78695812D01*
X111795000Y-78708072D01*
X112995000Y-78708072D01*
X113119482Y-78695812D01*
X113239180Y-78659502D01*
X113349494Y-78600537D01*
X113446185Y-78521185D01*
X113525537Y-78424494D01*
X113549858Y-78378994D01*
X113607736Y-78436872D01*
X113724842Y-78319766D01*
X113772148Y-78543348D01*
X113993516Y-78644237D01*
X114230313Y-78700000D01*
X114473438Y-78708495D01*
X114713549Y-78669395D01*
X114941418Y-78584202D01*
X115017852Y-78543348D01*
X115065159Y-78319764D01*
X114395000Y-77649605D01*
X114380858Y-77663748D01*
X114201253Y-77484143D01*
X114215395Y-77470000D01*
X114574605Y-77470000D01*
X115244764Y-78140159D01*
X115468348Y-78092852D01*
X115569237Y-77871484D01*
X115625000Y-77634687D01*
X115633495Y-77391562D01*
X115594395Y-77151451D01*
X115509202Y-76923582D01*
X115468348Y-76847148D01*
X115244764Y-76799841D01*
X114574605Y-77470000D01*
X114215395Y-77470000D01*
X114201253Y-77455858D01*
X114380858Y-77276253D01*
X114395000Y-77290395D01*
X115065159Y-76620236D01*
X115043236Y-76516624D01*
X115128586Y-76388889D01*
X115199068Y-76218729D01*
X115235000Y-76038089D01*
X115235000Y-75853911D01*
X115199068Y-75673271D01*
X115128586Y-75503111D01*
X115026262Y-75349972D01*
X114896028Y-75219738D01*
X114742889Y-75117414D01*
X114572729Y-75046932D01*
X114392089Y-75011000D01*
X114207911Y-75011000D01*
X114027271Y-75046932D01*
X113857111Y-75117414D01*
X113703972Y-75219738D01*
X113573738Y-75349972D01*
X113471414Y-75503111D01*
X113400932Y-75673271D01*
X113365000Y-75853911D01*
X113365000Y-75875212D01*
X113007093Y-76233119D01*
X112995000Y-76231928D01*
X111795000Y-76231928D01*
X111670518Y-76244188D01*
X111550820Y-76280498D01*
X111440506Y-76339463D01*
X111343815Y-76418815D01*
X111264463Y-76515506D01*
X111205498Y-76625820D01*
X111169188Y-76745518D01*
X111167880Y-76758800D01*
X110144582Y-76758800D01*
X110136008Y-76671746D01*
X110085472Y-76505150D01*
X110003405Y-76351614D01*
X109892962Y-76217038D01*
X109758386Y-76106595D01*
X109604850Y-76024528D01*
X109438254Y-75973992D01*
X109265000Y-75956928D01*
X108465000Y-75956928D01*
X108291746Y-75973992D01*
X108125150Y-76024528D01*
X107971614Y-76106595D01*
X107837038Y-76217038D01*
X107726595Y-76351614D01*
X107644528Y-76505150D01*
X107593992Y-76671746D01*
X107576928Y-76845000D01*
X107053072Y-76845000D01*
X107036008Y-76671746D01*
X106985472Y-76505150D01*
X106903405Y-76351614D01*
X106792962Y-76217038D01*
X106658386Y-76106595D01*
X106504850Y-76024528D01*
X106476200Y-76015837D01*
X106476200Y-74869587D01*
X108428196Y-72917593D01*
X108455327Y-72895327D01*
X108477593Y-72868196D01*
X108477598Y-72868191D01*
X108544202Y-72787033D01*
X108610242Y-72663482D01*
X108650909Y-72529420D01*
X108653124Y-72506932D01*
X108661200Y-72424936D01*
X108661200Y-72424929D01*
X108664640Y-72390000D01*
X108661200Y-72355072D01*
X108661200Y-70703072D01*
X108800000Y-70703072D01*
X108924482Y-70690812D01*
X109044180Y-70654502D01*
X109154494Y-70595537D01*
X109251185Y-70516185D01*
X109330537Y-70419494D01*
X109389502Y-70309180D01*
X109425812Y-70189482D01*
X109438072Y-70065000D01*
X109438072Y-69926200D01*
X110801928Y-69926200D01*
X110801928Y-70500001D01*
X110818992Y-70673255D01*
X110869528Y-70839851D01*
X110951595Y-70993387D01*
X111062038Y-71127962D01*
X111196613Y-71238405D01*
X111350149Y-71320472D01*
X111516745Y-71371008D01*
X111689999Y-71388072D01*
X112515001Y-71388072D01*
X112688255Y-71371008D01*
X112854851Y-71320472D01*
X113008387Y-71238405D01*
X113142962Y-71127962D01*
X113253405Y-70993387D01*
X113335472Y-70839851D01*
X113362727Y-70750000D01*
X113926928Y-70750000D01*
X113939188Y-70874482D01*
X113975498Y-70994180D01*
X114034463Y-71104494D01*
X114113815Y-71201185D01*
X114210506Y-71280537D01*
X114320820Y-71339502D01*
X114440518Y-71375812D01*
X114565000Y-71388072D01*
X114941750Y-71385000D01*
X115100500Y-71226250D01*
X115100500Y-69977000D01*
X115354500Y-69977000D01*
X115354500Y-71226250D01*
X115513250Y-71385000D01*
X115890000Y-71388072D01*
X116014482Y-71375812D01*
X116134180Y-71339502D01*
X116244494Y-71280537D01*
X116341185Y-71201185D01*
X116420537Y-71104494D01*
X116479502Y-70994180D01*
X116515812Y-70874482D01*
X116528072Y-70750000D01*
X116525000Y-70135750D01*
X116366250Y-69977000D01*
X115354500Y-69977000D01*
X115100500Y-69977000D01*
X114088750Y-69977000D01*
X113930000Y-70135750D01*
X113926928Y-70750000D01*
X113362727Y-70750000D01*
X113386008Y-70673255D01*
X113403072Y-70500001D01*
X113403072Y-69199999D01*
X113386008Y-69026745D01*
X113362728Y-68950000D01*
X113926928Y-68950000D01*
X113930000Y-69564250D01*
X114088750Y-69723000D01*
X115100500Y-69723000D01*
X115100500Y-68473750D01*
X115354500Y-68473750D01*
X115354500Y-69723000D01*
X116366250Y-69723000D01*
X116525000Y-69564250D01*
X116528072Y-68950000D01*
X116515812Y-68825518D01*
X116479502Y-68705820D01*
X116420537Y-68595506D01*
X116341185Y-68498815D01*
X116244494Y-68419463D01*
X116134180Y-68360498D01*
X116014482Y-68324188D01*
X115890000Y-68311928D01*
X115513250Y-68315000D01*
X115354500Y-68473750D01*
X115100500Y-68473750D01*
X114941750Y-68315000D01*
X114565000Y-68311928D01*
X114440518Y-68324188D01*
X114320820Y-68360498D01*
X114210506Y-68419463D01*
X114113815Y-68498815D01*
X114034463Y-68595506D01*
X113975498Y-68705820D01*
X113939188Y-68825518D01*
X113926928Y-68950000D01*
X113362728Y-68950000D01*
X113335472Y-68860149D01*
X113253405Y-68706613D01*
X113142962Y-68572038D01*
X113008387Y-68461595D01*
X112854851Y-68379528D01*
X112688255Y-68328992D01*
X112515001Y-68311928D01*
X111689999Y-68311928D01*
X111516745Y-68328992D01*
X111350149Y-68379528D01*
X111196613Y-68461595D01*
X111145186Y-68503800D01*
X110393998Y-68503800D01*
X110488319Y-68494510D01*
X110622380Y-68453843D01*
X110745932Y-68387803D01*
X110854226Y-68298928D01*
X110876501Y-68271786D01*
X111580956Y-67567332D01*
X111689999Y-67578072D01*
X112515001Y-67578072D01*
X112624043Y-67567332D01*
X112703517Y-67646806D01*
X112725783Y-67673937D01*
X112752914Y-67696203D01*
X112752919Y-67696208D01*
X112834077Y-67762812D01*
X112957628Y-67828852D01*
X113043201Y-67854810D01*
X113091690Y-67869519D01*
X113196174Y-67879810D01*
X113196181Y-67879810D01*
X113231110Y-67883250D01*
X113266038Y-67879810D01*
X118589023Y-67879810D01*
X119074069Y-68364856D01*
X119038254Y-68353992D01*
X118865000Y-68336928D01*
X118065000Y-68336928D01*
X117891746Y-68353992D01*
X117725150Y-68404528D01*
X117571614Y-68486595D01*
X117437038Y-68597038D01*
X117326595Y-68731614D01*
X117244528Y-68885150D01*
X117193992Y-69051746D01*
X117176928Y-69225000D01*
X117176928Y-70475000D01*
X117193992Y-70648254D01*
X117244528Y-70814850D01*
X117326595Y-70968386D01*
X117437038Y-71102962D01*
X117571614Y-71213405D01*
X117725150Y-71295472D01*
X117891746Y-71346008D01*
X118065000Y-71363072D01*
X118097285Y-71363072D01*
X118881139Y-72146928D01*
X118065000Y-72146928D01*
X117891746Y-72163992D01*
X117725150Y-72214528D01*
X117571614Y-72296595D01*
X117437038Y-72407038D01*
X117326595Y-72541614D01*
X117244528Y-72695150D01*
X117193992Y-72861746D01*
X117176928Y-73035000D01*
X117176928Y-74285000D01*
X117193992Y-74458254D01*
X117244528Y-74624850D01*
X117326595Y-74778386D01*
X117437038Y-74912962D01*
X117571614Y-75023405D01*
X117725150Y-75105472D01*
X117891746Y-75156008D01*
X118065000Y-75173072D01*
X118990000Y-75173072D01*
X119163254Y-75156008D01*
X119329850Y-75105472D01*
X119483386Y-75023405D01*
X119617962Y-74912962D01*
X119728405Y-74778386D01*
X119810472Y-74624850D01*
X119861008Y-74458254D01*
X119878072Y-74285000D01*
X119878072Y-73315217D01*
X119925699Y-73267590D01*
X120151928Y-73267590D01*
X120151928Y-74285000D01*
X120168992Y-74458254D01*
X120219528Y-74624850D01*
X120301595Y-74778386D01*
X120412038Y-74912962D01*
X120546614Y-75023405D01*
X120700150Y-75105472D01*
X120853801Y-75152081D01*
X120853800Y-76015837D01*
X120825150Y-76024528D01*
X120671614Y-76106595D01*
X120537038Y-76217038D01*
X120426595Y-76351614D01*
X120344528Y-76505150D01*
X120293992Y-76671746D01*
X120276928Y-76845000D01*
X120276928Y-77862410D01*
X119863199Y-77862410D01*
X119753072Y-77752284D01*
X119753072Y-76845000D01*
X119736008Y-76671746D01*
X119685472Y-76505150D01*
X119603405Y-76351614D01*
X119492962Y-76217038D01*
X119358386Y-76106595D01*
X119204850Y-76024528D01*
X119038254Y-75973992D01*
X118865000Y-75956928D01*
X118065000Y-75956928D01*
X117891746Y-75973992D01*
X117725150Y-76024528D01*
X117571614Y-76106595D01*
X117437038Y-76217038D01*
X117326595Y-76351614D01*
X117244528Y-76505150D01*
X117193992Y-76671746D01*
X117176928Y-76845000D01*
X117176928Y-78095000D01*
X117193992Y-78268254D01*
X117244528Y-78434850D01*
X117326595Y-78588386D01*
X117437038Y-78722962D01*
X117571614Y-78833405D01*
X117725150Y-78915472D01*
X117891746Y-78966008D01*
X118065000Y-78983072D01*
X118865000Y-78983072D01*
X118962664Y-78973453D01*
X119041017Y-79051806D01*
X119063283Y-79078937D01*
X119090414Y-79101203D01*
X119090418Y-79101207D01*
X119171577Y-79167812D01*
X119295129Y-79233852D01*
X119429190Y-79274519D01*
X119533674Y-79284810D01*
X119533683Y-79284810D01*
X119568609Y-79288250D01*
X119603535Y-79284810D01*
X123676464Y-79284810D01*
X123711390Y-79288250D01*
X123746316Y-79284810D01*
X123746326Y-79284810D01*
X123850810Y-79274519D01*
X123984871Y-79233852D01*
X124108423Y-79167812D01*
X124216717Y-79078937D01*
X124232258Y-79060000D01*
X129906928Y-79060000D01*
X129919188Y-79184482D01*
X129955498Y-79304180D01*
X130014463Y-79414494D01*
X130093815Y-79511185D01*
X130190506Y-79590537D01*
X130300820Y-79649502D01*
X130420518Y-79685812D01*
X130545000Y-79698072D01*
X131159250Y-79695000D01*
X131318000Y-79536250D01*
X131318000Y-78524500D01*
X131572000Y-78524500D01*
X131572000Y-79536250D01*
X131730750Y-79695000D01*
X132345000Y-79698072D01*
X132469482Y-79685812D01*
X132589180Y-79649502D01*
X132699494Y-79590537D01*
X132796185Y-79511185D01*
X132875537Y-79414494D01*
X132934502Y-79304180D01*
X132970812Y-79184482D01*
X132983072Y-79060000D01*
X145146928Y-79060000D01*
X145159188Y-79184482D01*
X145195498Y-79304180D01*
X145254463Y-79414494D01*
X145333815Y-79511185D01*
X145430506Y-79590537D01*
X145540820Y-79649502D01*
X145660518Y-79685812D01*
X145785000Y-79698072D01*
X146399250Y-79695000D01*
X146558000Y-79536250D01*
X146558000Y-78524500D01*
X146812000Y-78524500D01*
X146812000Y-79536250D01*
X146970750Y-79695000D01*
X147585000Y-79698072D01*
X147709482Y-79685812D01*
X147829180Y-79649502D01*
X147939494Y-79590537D01*
X148036185Y-79511185D01*
X148115537Y-79414494D01*
X148174502Y-79304180D01*
X148210812Y-79184482D01*
X148223072Y-79060000D01*
X148220000Y-78683250D01*
X148061250Y-78524500D01*
X146812000Y-78524500D01*
X146558000Y-78524500D01*
X145308750Y-78524500D01*
X145150000Y-78683250D01*
X145146928Y-79060000D01*
X132983072Y-79060000D01*
X132980000Y-78683250D01*
X132821250Y-78524500D01*
X131572000Y-78524500D01*
X131318000Y-78524500D01*
X130068750Y-78524500D01*
X129910000Y-78683250D01*
X129906928Y-79060000D01*
X124232258Y-79060000D01*
X124238991Y-79051796D01*
X124317334Y-78973453D01*
X124415000Y-78983072D01*
X125215000Y-78983072D01*
X125388254Y-78966008D01*
X125554850Y-78915472D01*
X125708386Y-78833405D01*
X125842962Y-78722962D01*
X125953405Y-78588386D01*
X126035472Y-78434850D01*
X126050296Y-78385981D01*
X126145911Y-78405000D01*
X126330089Y-78405000D01*
X126510729Y-78369068D01*
X126656285Y-78308777D01*
X126694528Y-78434850D01*
X126776595Y-78588386D01*
X126887038Y-78722962D01*
X127021614Y-78833405D01*
X127175150Y-78915472D01*
X127341746Y-78966008D01*
X127515000Y-78983072D01*
X128315000Y-78983072D01*
X128488254Y-78966008D01*
X128654850Y-78915472D01*
X128808386Y-78833405D01*
X128942962Y-78722962D01*
X129053405Y-78588386D01*
X129135472Y-78434850D01*
X129186008Y-78268254D01*
X129203072Y-78095000D01*
X129203072Y-77735000D01*
X129906928Y-77735000D01*
X129910000Y-78111750D01*
X130068750Y-78270500D01*
X131318000Y-78270500D01*
X131318000Y-77258750D01*
X131572000Y-77258750D01*
X131572000Y-78270500D01*
X132821250Y-78270500D01*
X132980000Y-78111750D01*
X132983072Y-77735000D01*
X132970812Y-77610518D01*
X132934502Y-77490820D01*
X132875537Y-77380506D01*
X132796185Y-77283815D01*
X132699494Y-77204463D01*
X132589180Y-77145498D01*
X132469482Y-77109188D01*
X132345000Y-77096928D01*
X131730750Y-77100000D01*
X131572000Y-77258750D01*
X131318000Y-77258750D01*
X131159250Y-77100000D01*
X130545000Y-77096928D01*
X130420518Y-77109188D01*
X130300820Y-77145498D01*
X130190506Y-77204463D01*
X130093815Y-77283815D01*
X130014463Y-77380506D01*
X129955498Y-77490820D01*
X129919188Y-77610518D01*
X129906928Y-77735000D01*
X129203072Y-77735000D01*
X129203072Y-76845000D01*
X129186008Y-76671746D01*
X129135472Y-76505150D01*
X129053405Y-76351614D01*
X128942962Y-76217038D01*
X128808386Y-76106595D01*
X128654850Y-76024528D01*
X128626200Y-76015837D01*
X128626200Y-75114163D01*
X128654850Y-75105472D01*
X128808386Y-75023405D01*
X128942962Y-74912962D01*
X129053405Y-74778386D01*
X129135472Y-74624850D01*
X129186008Y-74458254D01*
X129203072Y-74285000D01*
X129203072Y-73035000D01*
X129186008Y-72861746D01*
X129135472Y-72695150D01*
X129053405Y-72541614D01*
X128942962Y-72407038D01*
X128808386Y-72296595D01*
X128654850Y-72214528D01*
X128488254Y-72163992D01*
X128315000Y-72146928D01*
X127390000Y-72146928D01*
X127216746Y-72163992D01*
X127050150Y-72214528D01*
X126896614Y-72296595D01*
X126762038Y-72407038D01*
X126651595Y-72541614D01*
X126569528Y-72695150D01*
X126518992Y-72861746D01*
X126501928Y-73035000D01*
X126501928Y-74285000D01*
X126518992Y-74458254D01*
X126569528Y-74624850D01*
X126651595Y-74778386D01*
X126762038Y-74912962D01*
X126896614Y-75023405D01*
X127050150Y-75105472D01*
X127203801Y-75152081D01*
X127203800Y-76015837D01*
X127175150Y-76024528D01*
X127021614Y-76106595D01*
X126887038Y-76217038D01*
X126776595Y-76351614D01*
X126694528Y-76505150D01*
X126656285Y-76631223D01*
X126510729Y-76570932D01*
X126330089Y-76535000D01*
X126145911Y-76535000D01*
X126050296Y-76554019D01*
X126035472Y-76505150D01*
X125953405Y-76351614D01*
X125842962Y-76217038D01*
X125708386Y-76106595D01*
X125554850Y-76024528D01*
X125388254Y-75973992D01*
X125215000Y-75956928D01*
X124415000Y-75956928D01*
X124241746Y-75973992D01*
X124075150Y-76024528D01*
X123921614Y-76106595D01*
X123787038Y-76217038D01*
X123676595Y-76351614D01*
X123594528Y-76505150D01*
X123543992Y-76671746D01*
X123526928Y-76845000D01*
X123526928Y-77752284D01*
X123416803Y-77862410D01*
X122853072Y-77862410D01*
X122853072Y-76845000D01*
X122836008Y-76671746D01*
X122785472Y-76505150D01*
X122703405Y-76351614D01*
X122592962Y-76217038D01*
X122458386Y-76106595D01*
X122304850Y-76024528D01*
X122276200Y-76015837D01*
X122276200Y-75114163D01*
X122304850Y-75105472D01*
X122458386Y-75023405D01*
X122592962Y-74912962D01*
X122703405Y-74778386D01*
X122785472Y-74624850D01*
X122836008Y-74458254D01*
X122853072Y-74285000D01*
X122853072Y-74135670D01*
X123001111Y-74234586D01*
X123171271Y-74305068D01*
X123351911Y-74341000D01*
X123492949Y-74341000D01*
X123533660Y-74353350D01*
X123543992Y-74458254D01*
X123594528Y-74624850D01*
X123676595Y-74778386D01*
X123787038Y-74912962D01*
X123921614Y-75023405D01*
X124075150Y-75105472D01*
X124241746Y-75156008D01*
X124415000Y-75173072D01*
X125340000Y-75173072D01*
X125513254Y-75156008D01*
X125679850Y-75105472D01*
X125833386Y-75023405D01*
X125967962Y-74912962D01*
X126078405Y-74778386D01*
X126160472Y-74624850D01*
X126211008Y-74458254D01*
X126228072Y-74285000D01*
X126228072Y-73035000D01*
X126211008Y-72861746D01*
X126160472Y-72695150D01*
X126078405Y-72541614D01*
X125967962Y-72407038D01*
X125833386Y-72296595D01*
X125679850Y-72214528D01*
X125513254Y-72163992D01*
X125410025Y-72153825D01*
X126650867Y-70912983D01*
X126675498Y-70994180D01*
X126734463Y-71104494D01*
X126813815Y-71201185D01*
X126910506Y-71280537D01*
X127020820Y-71339502D01*
X127140518Y-71375812D01*
X127265000Y-71388072D01*
X127641750Y-71385000D01*
X127800500Y-71226250D01*
X127800500Y-69977000D01*
X127780500Y-69977000D01*
X127780500Y-69723000D01*
X127800500Y-69723000D01*
X127800500Y-69703000D01*
X128054500Y-69703000D01*
X128054500Y-69723000D01*
X128074500Y-69723000D01*
X128074500Y-69977000D01*
X128054500Y-69977000D01*
X128054500Y-71226250D01*
X128213250Y-71385000D01*
X128590000Y-71388072D01*
X128714482Y-71375812D01*
X128834180Y-71339502D01*
X128944494Y-71280537D01*
X129041185Y-71201185D01*
X129120537Y-71104494D01*
X129179502Y-70994180D01*
X129215812Y-70874482D01*
X129228072Y-70750000D01*
X129226398Y-70415328D01*
X129393261Y-70582191D01*
X129415531Y-70609327D01*
X129523825Y-70698202D01*
X129647377Y-70764242D01*
X129781438Y-70804909D01*
X129885922Y-70815200D01*
X129885929Y-70815200D01*
X129920858Y-70818640D01*
X129945885Y-70816175D01*
X129959972Y-70830262D01*
X130113111Y-70932586D01*
X130283271Y-71003068D01*
X130463911Y-71039000D01*
X130648089Y-71039000D01*
X130828729Y-71003068D01*
X130998889Y-70932586D01*
X131152028Y-70830262D01*
X131282262Y-70700028D01*
X131384586Y-70546889D01*
X131455068Y-70376729D01*
X131471928Y-70291969D01*
X131471928Y-70385000D01*
X131484188Y-70509482D01*
X131520498Y-70629180D01*
X131579463Y-70739494D01*
X131658815Y-70836185D01*
X131755506Y-70915537D01*
X131865820Y-70974502D01*
X131985518Y-71010812D01*
X132110000Y-71023072D01*
X133446928Y-71023072D01*
X133446928Y-72360000D01*
X133459188Y-72484482D01*
X133495498Y-72604180D01*
X133554463Y-72714494D01*
X133633815Y-72811185D01*
X133730506Y-72890537D01*
X133840820Y-72949502D01*
X133960518Y-72985812D01*
X134085000Y-72998072D01*
X134635000Y-72998072D01*
X134759482Y-72985812D01*
X134760000Y-72985655D01*
X134760518Y-72985812D01*
X134885000Y-72998072D01*
X135435000Y-72998072D01*
X135559482Y-72985812D01*
X135560620Y-72985467D01*
X135674250Y-72995000D01*
X135766333Y-72902917D01*
X135789494Y-72890537D01*
X135886185Y-72811185D01*
X135960000Y-72721241D01*
X136033815Y-72811185D01*
X136102828Y-72867822D01*
X136165798Y-72985632D01*
X136218822Y-73050242D01*
X136254674Y-73093927D01*
X136275598Y-73111099D01*
X136292774Y-73132028D01*
X136401068Y-73220903D01*
X136524620Y-73286943D01*
X136658681Y-73327610D01*
X136763165Y-73337901D01*
X136763173Y-73337901D01*
X136798101Y-73341341D01*
X136833029Y-73337901D01*
X138286973Y-73337901D01*
X138321899Y-73341341D01*
X138356825Y-73337901D01*
X138356835Y-73337901D01*
X138448800Y-73328843D01*
X138448800Y-73905411D01*
X136863929Y-75490284D01*
X136661411Y-75450000D01*
X136388589Y-75450000D01*
X136186071Y-75490284D01*
X135490102Y-74794314D01*
X135467827Y-74767173D01*
X135359533Y-74678298D01*
X135235981Y-74612258D01*
X135101920Y-74571591D01*
X134997436Y-74561300D01*
X134997426Y-74561300D01*
X134962500Y-74557860D01*
X134927574Y-74561300D01*
X132927955Y-74561300D01*
X132915472Y-74520149D01*
X132833405Y-74366613D01*
X132722962Y-74232038D01*
X132588387Y-74121595D01*
X132434851Y-74039528D01*
X132268255Y-73988992D01*
X132095001Y-73971928D01*
X130794999Y-73971928D01*
X130621745Y-73988992D01*
X130455149Y-74039528D01*
X130301613Y-74121595D01*
X130167038Y-74232038D01*
X130056595Y-74366613D01*
X129974528Y-74520149D01*
X129923992Y-74686745D01*
X129906928Y-74859999D01*
X129906928Y-75685001D01*
X129923992Y-75858255D01*
X129974528Y-76024851D01*
X130056595Y-76178387D01*
X130167038Y-76312962D01*
X130301613Y-76423405D01*
X130455149Y-76505472D01*
X130621745Y-76556008D01*
X130794999Y-76573072D01*
X132095001Y-76573072D01*
X132268255Y-76556008D01*
X132434851Y-76505472D01*
X132588387Y-76423405D01*
X132722962Y-76312962D01*
X132833405Y-76178387D01*
X132915472Y-76024851D01*
X132927955Y-75983700D01*
X134667913Y-75983700D01*
X135180284Y-76496071D01*
X135140000Y-76698589D01*
X135140000Y-76971411D01*
X135193225Y-77238989D01*
X135297629Y-77491043D01*
X135449201Y-77717886D01*
X135642114Y-77910799D01*
X135868957Y-78062371D01*
X136121011Y-78166775D01*
X136388589Y-78220000D01*
X136661411Y-78220000D01*
X136928989Y-78166775D01*
X137181043Y-78062371D01*
X137407886Y-77910799D01*
X137600799Y-77717886D01*
X137752371Y-77491043D01*
X137856775Y-77238989D01*
X137910000Y-76971411D01*
X137910000Y-76698589D01*
X137869716Y-76496071D01*
X139248801Y-75116988D01*
X139248801Y-75355064D01*
X139245360Y-75390000D01*
X139248801Y-75424936D01*
X139259092Y-75529420D01*
X139290637Y-75633411D01*
X139299759Y-75663481D01*
X139365798Y-75787032D01*
X139424250Y-75858255D01*
X139454674Y-75895327D01*
X139481810Y-75917597D01*
X140060284Y-76496071D01*
X140020000Y-76698589D01*
X140020000Y-76971411D01*
X140073225Y-77238989D01*
X140177629Y-77491043D01*
X140329201Y-77717886D01*
X140522114Y-77910799D01*
X140748957Y-78062371D01*
X141001011Y-78166775D01*
X141268589Y-78220000D01*
X141541411Y-78220000D01*
X141808989Y-78166775D01*
X142061043Y-78062371D01*
X142287886Y-77910799D01*
X142480799Y-77717886D01*
X142595516Y-77546200D01*
X145087574Y-77546200D01*
X145122500Y-77549640D01*
X145157426Y-77546200D01*
X145157436Y-77546200D01*
X145179354Y-77544041D01*
X145159188Y-77610518D01*
X145146928Y-77735000D01*
X145150000Y-78111750D01*
X145308750Y-78270500D01*
X146558000Y-78270500D01*
X146558000Y-77258750D01*
X146812000Y-77258750D01*
X146812000Y-78270500D01*
X148061250Y-78270500D01*
X148220000Y-78111750D01*
X148223072Y-77735000D01*
X148210812Y-77610518D01*
X148174502Y-77490820D01*
X148115537Y-77380506D01*
X148036185Y-77283815D01*
X147939494Y-77204463D01*
X147829180Y-77145498D01*
X147709482Y-77109188D01*
X147585000Y-77096928D01*
X146970750Y-77100000D01*
X146812000Y-77258750D01*
X146558000Y-77258750D01*
X146399250Y-77100000D01*
X145865954Y-77097333D01*
X146390216Y-76573072D01*
X147335001Y-76573072D01*
X147508255Y-76556008D01*
X147674851Y-76505472D01*
X147814852Y-76430639D01*
X149065241Y-77681028D01*
X149010000Y-77958740D01*
X149010000Y-78251260D01*
X149067068Y-78538158D01*
X149179010Y-78808411D01*
X149341525Y-79051632D01*
X149548368Y-79258475D01*
X149791589Y-79420990D01*
X150061842Y-79532932D01*
X150348740Y-79590000D01*
X150641260Y-79590000D01*
X150928158Y-79532932D01*
X151198411Y-79420990D01*
X151441632Y-79258475D01*
X151648475Y-79051632D01*
X151810990Y-78808411D01*
X151922932Y-78538158D01*
X151980000Y-78251260D01*
X151980000Y-77958740D01*
X151922932Y-77671842D01*
X151810990Y-77401589D01*
X151648475Y-77158368D01*
X151516620Y-77026513D01*
X151589180Y-77004502D01*
X151699494Y-76945537D01*
X151796185Y-76866185D01*
X151875537Y-76769494D01*
X151934502Y-76659180D01*
X151970812Y-76539482D01*
X151983072Y-76415000D01*
X151983072Y-75717715D01*
X155360000Y-72340788D01*
X155360000Y-72536260D01*
X155417068Y-72823158D01*
X155529010Y-73093411D01*
X155691525Y-73336632D01*
X155898368Y-73543475D01*
X156072760Y-73660000D01*
X155898368Y-73776525D01*
X155691525Y-73983368D01*
X155529010Y-74226589D01*
X155417068Y-74496842D01*
X155360000Y-74783740D01*
X155360000Y-75076260D01*
X155417068Y-75363158D01*
X155529010Y-75633411D01*
X155691525Y-75876632D01*
X155898368Y-76083475D01*
X156141589Y-76245990D01*
X156411842Y-76357932D01*
X156698740Y-76415000D01*
X156991260Y-76415000D01*
X157278158Y-76357932D01*
X157548411Y-76245990D01*
X157791632Y-76083475D01*
X157916710Y-75958397D01*
X158536208Y-75958397D01*
X158613843Y-76207472D01*
X158877883Y-76333371D01*
X159161411Y-76405339D01*
X159453531Y-76420611D01*
X159743019Y-76378599D01*
X160018747Y-76280919D01*
X160156157Y-76207472D01*
X160233792Y-75958397D01*
X159385000Y-75109605D01*
X158536208Y-75958397D01*
X157916710Y-75958397D01*
X157998475Y-75876632D01*
X158114311Y-75703271D01*
X158356603Y-75778792D01*
X159205395Y-74930000D01*
X159564605Y-74930000D01*
X160413397Y-75778792D01*
X160662472Y-75701157D01*
X160788371Y-75437117D01*
X160860339Y-75153589D01*
X160875611Y-74861469D01*
X160833599Y-74571981D01*
X160735919Y-74296253D01*
X160662472Y-74158843D01*
X160413397Y-74081208D01*
X159564605Y-74930000D01*
X159205395Y-74930000D01*
X158356603Y-74081208D01*
X158114311Y-74156729D01*
X157998475Y-73983368D01*
X157791632Y-73776525D01*
X157617240Y-73660000D01*
X157791632Y-73543475D01*
X157998475Y-73336632D01*
X158115000Y-73162240D01*
X158231525Y-73336632D01*
X158438368Y-73543475D01*
X158611729Y-73659311D01*
X158536208Y-73901603D01*
X159385000Y-74750395D01*
X160233792Y-73901603D01*
X160158271Y-73659311D01*
X160331632Y-73543475D01*
X160538475Y-73336632D01*
X160700990Y-73093411D01*
X160812932Y-72823158D01*
X160870000Y-72536260D01*
X160870000Y-72243740D01*
X160812932Y-71956842D01*
X160700990Y-71686589D01*
X160538475Y-71443368D01*
X160331632Y-71236525D01*
X160157240Y-71120000D01*
X160331632Y-71003475D01*
X160538475Y-70796632D01*
X160700990Y-70553411D01*
X160812932Y-70283158D01*
X160870000Y-69996260D01*
X160870000Y-69703740D01*
X160812932Y-69416842D01*
X160700990Y-69146589D01*
X160538475Y-68903368D01*
X160331632Y-68696525D01*
X160096200Y-68539214D01*
X160096200Y-64169928D01*
X160099640Y-64135000D01*
X160096200Y-64100071D01*
X160096200Y-64100064D01*
X160085909Y-63995580D01*
X160069925Y-63942889D01*
X160045242Y-63861518D01*
X159979202Y-63737967D01*
X159912598Y-63656809D01*
X159912588Y-63656799D01*
X159890326Y-63629673D01*
X159863201Y-63607412D01*
X153829759Y-57573972D01*
X153885000Y-57296260D01*
X153885000Y-57003740D01*
X153827932Y-56716842D01*
X153715990Y-56446589D01*
X153553475Y-56203368D01*
X153346632Y-55996525D01*
X153209655Y-55905000D01*
X165067721Y-55905000D01*
X165217869Y-55919722D01*
X165331246Y-55953953D01*
X165435819Y-56009555D01*
X165527596Y-56084407D01*
X165603091Y-56175664D01*
X165659419Y-56279844D01*
X165694440Y-56392976D01*
X165710001Y-56541031D01*
X165710000Y-79342721D01*
X165695278Y-79492869D01*
X165661047Y-79606246D01*
X165605446Y-79710817D01*
X165530594Y-79802595D01*
X165439335Y-79878091D01*
X165335160Y-79934419D01*
X165222024Y-79969440D01*
X165073979Y-79985000D01*
X100362279Y-79985000D01*
X100212131Y-79970278D01*
X100098754Y-79936047D01*
X99994183Y-79880446D01*
X99902405Y-79805594D01*
X99826909Y-79714335D01*
X99770581Y-79610160D01*
X99735560Y-79497024D01*
X99720000Y-79348979D01*
X99720000Y-59295000D01*
X104476928Y-59295000D01*
X104489188Y-59419482D01*
X104525498Y-59539180D01*
X104584463Y-59649494D01*
X104663815Y-59746185D01*
X104760506Y-59825537D01*
X104870820Y-59884502D01*
X104990518Y-59920812D01*
X105115000Y-59933072D01*
X105541750Y-59930000D01*
X105700500Y-59771250D01*
X105700500Y-58547000D01*
X105954500Y-58547000D01*
X105954500Y-59771250D01*
X106113250Y-59930000D01*
X106540000Y-59933072D01*
X106664482Y-59920812D01*
X106784180Y-59884502D01*
X106894494Y-59825537D01*
X106991185Y-59746185D01*
X107070537Y-59649494D01*
X107129502Y-59539180D01*
X107165812Y-59419482D01*
X107178072Y-59295000D01*
X107175000Y-58705750D01*
X107016250Y-58547000D01*
X105954500Y-58547000D01*
X105700500Y-58547000D01*
X104638750Y-58547000D01*
X104480000Y-58705750D01*
X104476928Y-59295000D01*
X99720000Y-59295000D01*
X99720000Y-57545000D01*
X104476928Y-57545000D01*
X104480000Y-58134250D01*
X104638750Y-58293000D01*
X105700500Y-58293000D01*
X105700500Y-57068750D01*
X105954500Y-57068750D01*
X105954500Y-58293000D01*
X107016250Y-58293000D01*
X107175000Y-58134250D01*
X107176768Y-57795000D01*
X107451928Y-57795000D01*
X107451928Y-59045000D01*
X107468992Y-59218254D01*
X107519528Y-59384850D01*
X107601595Y-59538386D01*
X107712038Y-59672962D01*
X107846614Y-59783405D01*
X108000150Y-59865472D01*
X108166746Y-59916008D01*
X108340000Y-59933072D01*
X109265000Y-59933072D01*
X109438254Y-59916008D01*
X109604850Y-59865472D01*
X109758386Y-59783405D01*
X109892962Y-59672962D01*
X110003405Y-59538386D01*
X110085472Y-59384850D01*
X110136008Y-59218254D01*
X110144582Y-59131200D01*
X110835418Y-59131200D01*
X110843992Y-59218254D01*
X110894528Y-59384850D01*
X110976595Y-59538386D01*
X111087038Y-59672962D01*
X111221614Y-59783405D01*
X111375150Y-59865472D01*
X111541746Y-59916008D01*
X111715000Y-59933072D01*
X112515000Y-59933072D01*
X112688254Y-59916008D01*
X112854850Y-59865472D01*
X113008386Y-59783405D01*
X113142962Y-59672962D01*
X113253405Y-59538386D01*
X113335472Y-59384850D01*
X113386008Y-59218254D01*
X113403072Y-59045000D01*
X113403072Y-57795000D01*
X113386008Y-57621746D01*
X113335472Y-57455150D01*
X113253405Y-57301614D01*
X113142962Y-57167038D01*
X113008386Y-57056595D01*
X112854850Y-56974528D01*
X112688254Y-56923992D01*
X112515000Y-56906928D01*
X111715000Y-56906928D01*
X111541746Y-56923992D01*
X111375150Y-56974528D01*
X111221614Y-57056595D01*
X111087038Y-57167038D01*
X110976595Y-57301614D01*
X110894528Y-57455150D01*
X110843992Y-57621746D01*
X110835418Y-57708800D01*
X110144582Y-57708800D01*
X110136008Y-57621746D01*
X110085472Y-57455150D01*
X110003405Y-57301614D01*
X109892962Y-57167038D01*
X109758386Y-57056595D01*
X109604850Y-56974528D01*
X109438254Y-56923992D01*
X109265000Y-56906928D01*
X108340000Y-56906928D01*
X108166746Y-56923992D01*
X108000150Y-56974528D01*
X107846614Y-57056595D01*
X107712038Y-57167038D01*
X107601595Y-57301614D01*
X107519528Y-57455150D01*
X107468992Y-57621746D01*
X107451928Y-57795000D01*
X107176768Y-57795000D01*
X107178072Y-57545000D01*
X107165812Y-57420518D01*
X107129502Y-57300820D01*
X107070537Y-57190506D01*
X106991185Y-57093815D01*
X106894494Y-57014463D01*
X106784180Y-56955498D01*
X106664482Y-56919188D01*
X106540000Y-56906928D01*
X106113250Y-56910000D01*
X105954500Y-57068750D01*
X105700500Y-57068750D01*
X105541750Y-56910000D01*
X105115000Y-56906928D01*
X104990518Y-56919188D01*
X104870820Y-56955498D01*
X104760506Y-57014463D01*
X104663815Y-57093815D01*
X104584463Y-57190506D01*
X104525498Y-57300820D01*
X104489188Y-57420518D01*
X104476928Y-57545000D01*
X99720000Y-57545000D01*
X99720000Y-56547279D01*
X99734722Y-56397131D01*
X99768953Y-56283754D01*
X99824555Y-56179181D01*
X99899407Y-56087404D01*
X99990664Y-56011909D01*
X100094844Y-55955581D01*
X100207976Y-55920560D01*
X100356022Y-55905000D01*
X140689212Y-55905000D01*
X139687285Y-56906928D01*
%TA.AperFunction,Conductor*%
D23*
G36*
X139687285Y-56906928D02*
G01*
X139655000Y-56906928D01*
X139557334Y-56916547D01*
X139415892Y-56775105D01*
X139393617Y-56747963D01*
X139285323Y-56659088D01*
X139161771Y-56593048D01*
X139027710Y-56552381D01*
X138923226Y-56542090D01*
X138923216Y-56542090D01*
X138888290Y-56538650D01*
X138853364Y-56542090D01*
X129217627Y-56542090D01*
X129182709Y-56538651D01*
X129147791Y-56542090D01*
X129147774Y-56542090D01*
X129043290Y-56552381D01*
X128909229Y-56593048D01*
X128785677Y-56659088D01*
X128785675Y-56659089D01*
X128785676Y-56659089D01*
X128704518Y-56725693D01*
X128704514Y-56725697D01*
X128677383Y-56747963D01*
X128655117Y-56775095D01*
X128141109Y-57289104D01*
X128113972Y-57311375D01*
X128025097Y-57419669D01*
X127959057Y-57543221D01*
X127945158Y-57589040D01*
X127780729Y-57520932D01*
X127600089Y-57485000D01*
X127570616Y-57485000D01*
X127535033Y-57455798D01*
X127411481Y-57389758D01*
X127277420Y-57349091D01*
X127172936Y-57338800D01*
X127172926Y-57338800D01*
X127138000Y-57335360D01*
X127103074Y-57338800D01*
X125613056Y-57338800D01*
X125589494Y-57319463D01*
X125479180Y-57260498D01*
X125359482Y-57224188D01*
X125235000Y-57211928D01*
X124235000Y-57211928D01*
X124110518Y-57224188D01*
X123990820Y-57260498D01*
X123880506Y-57319463D01*
X123783815Y-57398815D01*
X123704463Y-57495506D01*
X123645498Y-57605820D01*
X123609188Y-57725518D01*
X123596928Y-57850000D01*
X123596928Y-58250000D01*
X123609188Y-58374482D01*
X123609345Y-58375000D01*
X123609188Y-58375518D01*
X123596928Y-58500000D01*
X123596928Y-58900000D01*
X123609188Y-59024482D01*
X123609345Y-59025000D01*
X123609188Y-59025518D01*
X123596928Y-59150000D01*
X123596928Y-59550000D01*
X123609188Y-59674482D01*
X123609345Y-59675000D01*
X123609188Y-59675518D01*
X123596928Y-59800000D01*
X123596928Y-60200000D01*
X123609188Y-60324482D01*
X123610134Y-60327602D01*
X123600000Y-60418250D01*
X123667968Y-60486218D01*
X123704463Y-60554494D01*
X123783529Y-60650836D01*
X123711445Y-60735272D01*
X123666905Y-60814845D01*
X123600000Y-60881750D01*
X123610425Y-60975000D01*
X123601590Y-61054029D01*
X123536089Y-61041000D01*
X123351911Y-61041000D01*
X123171271Y-61076932D01*
X123001111Y-61147414D01*
X122847972Y-61249738D01*
X122821432Y-61276278D01*
X122810472Y-61240149D01*
X122728405Y-61086613D01*
X122617962Y-60952038D01*
X122483387Y-60841595D01*
X122329851Y-60759528D01*
X122163255Y-60708992D01*
X121990001Y-60691928D01*
X121164999Y-60691928D01*
X121055956Y-60702668D01*
X119703548Y-59350261D01*
X119712727Y-59320000D01*
X120276928Y-59320000D01*
X120289188Y-59444482D01*
X120325498Y-59564180D01*
X120384463Y-59674494D01*
X120463815Y-59771185D01*
X120560506Y-59850537D01*
X120670820Y-59909502D01*
X120790518Y-59945812D01*
X120915000Y-59958072D01*
X121291750Y-59955000D01*
X121450500Y-59796250D01*
X121450500Y-58547000D01*
X121704500Y-58547000D01*
X121704500Y-59796250D01*
X121863250Y-59955000D01*
X122240000Y-59958072D01*
X122364482Y-59945812D01*
X122484180Y-59909502D01*
X122594494Y-59850537D01*
X122691185Y-59771185D01*
X122770537Y-59674494D01*
X122829502Y-59564180D01*
X122865812Y-59444482D01*
X122878072Y-59320000D01*
X122875000Y-58705750D01*
X122716250Y-58547000D01*
X121704500Y-58547000D01*
X121450500Y-58547000D01*
X120438750Y-58547000D01*
X120280000Y-58705750D01*
X120276928Y-59320000D01*
X119712727Y-59320000D01*
X119736008Y-59243255D01*
X119753072Y-59070001D01*
X119753072Y-57769999D01*
X119736008Y-57596745D01*
X119712728Y-57520000D01*
X120276928Y-57520000D01*
X120280000Y-58134250D01*
X120438750Y-58293000D01*
X121450500Y-58293000D01*
X121450500Y-57043750D01*
X121704500Y-57043750D01*
X121704500Y-58293000D01*
X122716250Y-58293000D01*
X122875000Y-58134250D01*
X122878072Y-57520000D01*
X122865812Y-57395518D01*
X122829502Y-57275820D01*
X122770537Y-57165506D01*
X122691185Y-57068815D01*
X122594494Y-56989463D01*
X122484180Y-56930498D01*
X122364482Y-56894188D01*
X122240000Y-56881928D01*
X121863250Y-56885000D01*
X121704500Y-57043750D01*
X121450500Y-57043750D01*
X121291750Y-56885000D01*
X120915000Y-56881928D01*
X120790518Y-56894188D01*
X120670820Y-56930498D01*
X120560506Y-56989463D01*
X120463815Y-57068815D01*
X120384463Y-57165506D01*
X120325498Y-57275820D01*
X120289188Y-57395518D01*
X120276928Y-57520000D01*
X119712728Y-57520000D01*
X119685472Y-57430149D01*
X119603405Y-57276613D01*
X119492962Y-57142038D01*
X119358387Y-57031595D01*
X119204851Y-56949528D01*
X119038255Y-56898992D01*
X118865001Y-56881928D01*
X118039999Y-56881928D01*
X117866745Y-56898992D01*
X117700149Y-56949528D01*
X117546613Y-57031595D01*
X117412038Y-57142038D01*
X117301595Y-57276613D01*
X117219528Y-57430149D01*
X117168992Y-57596745D01*
X117157956Y-57708800D01*
X116494582Y-57708800D01*
X116486008Y-57621746D01*
X116435472Y-57455150D01*
X116353405Y-57301614D01*
X116242962Y-57167038D01*
X116108386Y-57056595D01*
X115954850Y-56974528D01*
X115788254Y-56923992D01*
X115615000Y-56906928D01*
X114815000Y-56906928D01*
X114641746Y-56923992D01*
X114475150Y-56974528D01*
X114321614Y-57056595D01*
X114187038Y-57167038D01*
X114076595Y-57301614D01*
X113994528Y-57455150D01*
X113943992Y-57621746D01*
X113926928Y-57795000D01*
X113926928Y-59045000D01*
X113943992Y-59218254D01*
X113994528Y-59384850D01*
X114076595Y-59538386D01*
X114187038Y-59672962D01*
X114321614Y-59783405D01*
X114475150Y-59865472D01*
X114641746Y-59916008D01*
X114815000Y-59933072D01*
X115615000Y-59933072D01*
X115788254Y-59916008D01*
X115954850Y-59865472D01*
X116108386Y-59783405D01*
X116242962Y-59672962D01*
X116353405Y-59538386D01*
X116435472Y-59384850D01*
X116486008Y-59218254D01*
X116494582Y-59131200D01*
X117157956Y-59131200D01*
X117168992Y-59243255D01*
X117219528Y-59409851D01*
X117301595Y-59563387D01*
X117412038Y-59697962D01*
X117546613Y-59808405D01*
X117700149Y-59890472D01*
X117866745Y-59941008D01*
X118039999Y-59958072D01*
X118299785Y-59958072D01*
X118590513Y-60248800D01*
X113407425Y-60248800D01*
X113372499Y-60245360D01*
X113337573Y-60248800D01*
X113337564Y-60248800D01*
X113233080Y-60259091D01*
X113099019Y-60299758D01*
X113032959Y-60335068D01*
X112975467Y-60365798D01*
X112894308Y-60432403D01*
X112894304Y-60432407D01*
X112867173Y-60454673D01*
X112844907Y-60481804D01*
X112624044Y-60702668D01*
X112515001Y-60691928D01*
X111689999Y-60691928D01*
X111516745Y-60708992D01*
X111350149Y-60759528D01*
X111196613Y-60841595D01*
X111062038Y-60952038D01*
X110951595Y-61086613D01*
X110869528Y-61240149D01*
X110818992Y-61406745D01*
X110801928Y-61579999D01*
X110801928Y-62857284D01*
X108373972Y-65285241D01*
X108096260Y-65230000D01*
X107803740Y-65230000D01*
X107516842Y-65287068D01*
X107246589Y-65399010D01*
X107003368Y-65561525D01*
X106950000Y-65614893D01*
X106896632Y-65561525D01*
X106653411Y-65399010D01*
X106383158Y-65287068D01*
X106096260Y-65230000D01*
X105803740Y-65230000D01*
X105516842Y-65287068D01*
X105246589Y-65399010D01*
X105003368Y-65561525D01*
X104796525Y-65768368D01*
X104634010Y-66011589D01*
X104522068Y-66281842D01*
X104465000Y-66568740D01*
X104465000Y-66861260D01*
X104522068Y-67148158D01*
X104634010Y-67418411D01*
X104796525Y-67661632D01*
X105003368Y-67868475D01*
X105166410Y-67977416D01*
X105101208Y-68186603D01*
X105950000Y-69035395D01*
X105964143Y-69021253D01*
X106143748Y-69200858D01*
X106129605Y-69215000D01*
X106143748Y-69229143D01*
X105964143Y-69408748D01*
X105950000Y-69394605D01*
X105101208Y-70243397D01*
X105178843Y-70492472D01*
X105442883Y-70618371D01*
X105726411Y-70690339D01*
X106018531Y-70705611D01*
X106308019Y-70663599D01*
X106583747Y-70565919D01*
X106659850Y-70525241D01*
X106745506Y-70595537D01*
X106855820Y-70654502D01*
X106975518Y-70690812D01*
X107100000Y-70703072D01*
X107238800Y-70703072D01*
X107238801Y-72095410D01*
X105618217Y-73715996D01*
X105533346Y-73289321D01*
X105353560Y-72855279D01*
X105092550Y-72464651D01*
X104760349Y-72132450D01*
X104369721Y-71871440D01*
X103951200Y-71698083D01*
X103951200Y-69283531D01*
X104459389Y-69283531D01*
X104501401Y-69573019D01*
X104599081Y-69848747D01*
X104672528Y-69986157D01*
X104921603Y-70063792D01*
X105770395Y-69215000D01*
X104921603Y-68366208D01*
X104672528Y-68443843D01*
X104546629Y-68707883D01*
X104474661Y-68991411D01*
X104459389Y-69283531D01*
X103951200Y-69283531D01*
X103951200Y-64231917D01*
X104369721Y-64058560D01*
X104760349Y-63797550D01*
X105092550Y-63465349D01*
X105353560Y-63074721D01*
X105533346Y-62640679D01*
X105625000Y-62179902D01*
X105625000Y-61710098D01*
X105533346Y-61249321D01*
X105353560Y-60815279D01*
X105092550Y-60424651D01*
X104760349Y-60092450D01*
X104369721Y-59831440D01*
X103935679Y-59651654D01*
X103474902Y-59560000D01*
X103005098Y-59560000D01*
X102544321Y-59651654D01*
X102110279Y-59831440D01*
X101719651Y-60092450D01*
X101387450Y-60424651D01*
X101126440Y-60815279D01*
X100946654Y-61249321D01*
X100855000Y-61710098D01*
X100855000Y-62179902D01*
X100946654Y-62640679D01*
X101126440Y-63074721D01*
X101387450Y-63465349D01*
X101719651Y-63797550D01*
X102110279Y-64058560D01*
X102528800Y-64231917D01*
X102528801Y-71698083D01*
X102110279Y-71871440D01*
X101719651Y-72132450D01*
X101387450Y-72464651D01*
X101126440Y-72855279D01*
X100946654Y-73289321D01*
X100855000Y-73750098D01*
X100855000Y-74219902D01*
X100946654Y-74680679D01*
X101126440Y-75114721D01*
X101387450Y-75505349D01*
X101719651Y-75837550D01*
X102110279Y-76098560D01*
X102544321Y-76278346D01*
X103005098Y-76370000D01*
X103474902Y-76370000D01*
X103935679Y-76278346D01*
X104369721Y-76098560D01*
X104760349Y-75837550D01*
X105053800Y-75544099D01*
X105053800Y-76015837D01*
X105025150Y-76024528D01*
X104871614Y-76106595D01*
X104737038Y-76217038D01*
X104626595Y-76351614D01*
X104544528Y-76505150D01*
X104493992Y-76671746D01*
X104476928Y-76845000D01*
X104476928Y-78095000D01*
X104493992Y-78268254D01*
X104544528Y-78434850D01*
X104626595Y-78588386D01*
X104737038Y-78722962D01*
X104871614Y-78833405D01*
X105025150Y-78915472D01*
X105191746Y-78966008D01*
X105365000Y-78983072D01*
X106165000Y-78983072D01*
X106338254Y-78966008D01*
X106504850Y-78915472D01*
X106658386Y-78833405D01*
X106792962Y-78722962D01*
X106903405Y-78588386D01*
X106985472Y-78434850D01*
X107036008Y-78268254D01*
X107053072Y-78095000D01*
X107053072Y-76845000D01*
X107576928Y-76845000D01*
X107576928Y-78095000D01*
X107593992Y-78268254D01*
X107644528Y-78434850D01*
X107726595Y-78588386D01*
X107837038Y-78722962D01*
X107971614Y-78833405D01*
X108125150Y-78915472D01*
X108291746Y-78966008D01*
X108465000Y-78983072D01*
X109265000Y-78983072D01*
X109438254Y-78966008D01*
X109604850Y-78915472D01*
X109758386Y-78833405D01*
X109892962Y-78722962D01*
X110003405Y-78588386D01*
X110085472Y-78434850D01*
X110136008Y-78268254D01*
X110144582Y-78181200D01*
X111167880Y-78181200D01*
X111169188Y-78194482D01*
X111205498Y-78314180D01*
X111264463Y-78424494D01*
X111343815Y-78521185D01*
X111440506Y-78600537D01*
X111550820Y-78659502D01*
X111670518Y-78695812D01*
X111795000Y-78708072D01*
X112995000Y-78708072D01*
X113119482Y-78695812D01*
X113239180Y-78659502D01*
X113349494Y-78600537D01*
X113446185Y-78521185D01*
X113525537Y-78424494D01*
X113549858Y-78378994D01*
X113607736Y-78436872D01*
X113724842Y-78319766D01*
X113772148Y-78543348D01*
X113993516Y-78644237D01*
X114230313Y-78700000D01*
X114473438Y-78708495D01*
X114713549Y-78669395D01*
X114941418Y-78584202D01*
X115017852Y-78543348D01*
X115065159Y-78319764D01*
X114395000Y-77649605D01*
X114380858Y-77663748D01*
X114201253Y-77484143D01*
X114215395Y-77470000D01*
X114574605Y-77470000D01*
X115244764Y-78140159D01*
X115468348Y-78092852D01*
X115569237Y-77871484D01*
X115625000Y-77634687D01*
X115633495Y-77391562D01*
X115594395Y-77151451D01*
X115509202Y-76923582D01*
X115468348Y-76847148D01*
X115244764Y-76799841D01*
X114574605Y-77470000D01*
X114215395Y-77470000D01*
X114201253Y-77455858D01*
X114380858Y-77276253D01*
X114395000Y-77290395D01*
X115065159Y-76620236D01*
X115043236Y-76516624D01*
X115128586Y-76388889D01*
X115199068Y-76218729D01*
X115235000Y-76038089D01*
X115235000Y-75853911D01*
X115199068Y-75673271D01*
X115128586Y-75503111D01*
X115026262Y-75349972D01*
X114896028Y-75219738D01*
X114742889Y-75117414D01*
X114572729Y-75046932D01*
X114392089Y-75011000D01*
X114207911Y-75011000D01*
X114027271Y-75046932D01*
X113857111Y-75117414D01*
X113703972Y-75219738D01*
X113573738Y-75349972D01*
X113471414Y-75503111D01*
X113400932Y-75673271D01*
X113365000Y-75853911D01*
X113365000Y-75875212D01*
X113007093Y-76233119D01*
X112995000Y-76231928D01*
X111795000Y-76231928D01*
X111670518Y-76244188D01*
X111550820Y-76280498D01*
X111440506Y-76339463D01*
X111343815Y-76418815D01*
X111264463Y-76515506D01*
X111205498Y-76625820D01*
X111169188Y-76745518D01*
X111167880Y-76758800D01*
X110144582Y-76758800D01*
X110136008Y-76671746D01*
X110085472Y-76505150D01*
X110003405Y-76351614D01*
X109892962Y-76217038D01*
X109758386Y-76106595D01*
X109604850Y-76024528D01*
X109438254Y-75973992D01*
X109265000Y-75956928D01*
X108465000Y-75956928D01*
X108291746Y-75973992D01*
X108125150Y-76024528D01*
X107971614Y-76106595D01*
X107837038Y-76217038D01*
X107726595Y-76351614D01*
X107644528Y-76505150D01*
X107593992Y-76671746D01*
X107576928Y-76845000D01*
X107053072Y-76845000D01*
X107036008Y-76671746D01*
X106985472Y-76505150D01*
X106903405Y-76351614D01*
X106792962Y-76217038D01*
X106658386Y-76106595D01*
X106504850Y-76024528D01*
X106476200Y-76015837D01*
X106476200Y-74869587D01*
X108428196Y-72917593D01*
X108455327Y-72895327D01*
X108477593Y-72868196D01*
X108477598Y-72868191D01*
X108544202Y-72787033D01*
X108610242Y-72663482D01*
X108650909Y-72529420D01*
X108653124Y-72506932D01*
X108661200Y-72424936D01*
X108661200Y-72424929D01*
X108664640Y-72390000D01*
X108661200Y-72355072D01*
X108661200Y-70703072D01*
X108800000Y-70703072D01*
X108924482Y-70690812D01*
X109044180Y-70654502D01*
X109154494Y-70595537D01*
X109251185Y-70516185D01*
X109330537Y-70419494D01*
X109389502Y-70309180D01*
X109425812Y-70189482D01*
X109438072Y-70065000D01*
X109438072Y-69926200D01*
X110801928Y-69926200D01*
X110801928Y-70500001D01*
X110818992Y-70673255D01*
X110869528Y-70839851D01*
X110951595Y-70993387D01*
X111062038Y-71127962D01*
X111196613Y-71238405D01*
X111350149Y-71320472D01*
X111516745Y-71371008D01*
X111689999Y-71388072D01*
X112515001Y-71388072D01*
X112688255Y-71371008D01*
X112854851Y-71320472D01*
X113008387Y-71238405D01*
X113142962Y-71127962D01*
X113253405Y-70993387D01*
X113335472Y-70839851D01*
X113362727Y-70750000D01*
X113926928Y-70750000D01*
X113939188Y-70874482D01*
X113975498Y-70994180D01*
X114034463Y-71104494D01*
X114113815Y-71201185D01*
X114210506Y-71280537D01*
X114320820Y-71339502D01*
X114440518Y-71375812D01*
X114565000Y-71388072D01*
X114941750Y-71385000D01*
X115100500Y-71226250D01*
X115100500Y-69977000D01*
X115354500Y-69977000D01*
X115354500Y-71226250D01*
X115513250Y-71385000D01*
X115890000Y-71388072D01*
X116014482Y-71375812D01*
X116134180Y-71339502D01*
X116244494Y-71280537D01*
X116341185Y-71201185D01*
X116420537Y-71104494D01*
X116479502Y-70994180D01*
X116515812Y-70874482D01*
X116528072Y-70750000D01*
X116525000Y-70135750D01*
X116366250Y-69977000D01*
X115354500Y-69977000D01*
X115100500Y-69977000D01*
X114088750Y-69977000D01*
X113930000Y-70135750D01*
X113926928Y-70750000D01*
X113362727Y-70750000D01*
X113386008Y-70673255D01*
X113403072Y-70500001D01*
X113403072Y-69199999D01*
X113386008Y-69026745D01*
X113362728Y-68950000D01*
X113926928Y-68950000D01*
X113930000Y-69564250D01*
X114088750Y-69723000D01*
X115100500Y-69723000D01*
X115100500Y-68473750D01*
X115354500Y-68473750D01*
X115354500Y-69723000D01*
X116366250Y-69723000D01*
X116525000Y-69564250D01*
X116528072Y-68950000D01*
X116515812Y-68825518D01*
X116479502Y-68705820D01*
X116420537Y-68595506D01*
X116341185Y-68498815D01*
X116244494Y-68419463D01*
X116134180Y-68360498D01*
X116014482Y-68324188D01*
X115890000Y-68311928D01*
X115513250Y-68315000D01*
X115354500Y-68473750D01*
X115100500Y-68473750D01*
X114941750Y-68315000D01*
X114565000Y-68311928D01*
X114440518Y-68324188D01*
X114320820Y-68360498D01*
X114210506Y-68419463D01*
X114113815Y-68498815D01*
X114034463Y-68595506D01*
X113975498Y-68705820D01*
X113939188Y-68825518D01*
X113926928Y-68950000D01*
X113362728Y-68950000D01*
X113335472Y-68860149D01*
X113253405Y-68706613D01*
X113142962Y-68572038D01*
X113008387Y-68461595D01*
X112854851Y-68379528D01*
X112688255Y-68328992D01*
X112515001Y-68311928D01*
X111689999Y-68311928D01*
X111516745Y-68328992D01*
X111350149Y-68379528D01*
X111196613Y-68461595D01*
X111145186Y-68503800D01*
X110393998Y-68503800D01*
X110488319Y-68494510D01*
X110622380Y-68453843D01*
X110745932Y-68387803D01*
X110854226Y-68298928D01*
X110876501Y-68271786D01*
X111580956Y-67567332D01*
X111689999Y-67578072D01*
X112515001Y-67578072D01*
X112624043Y-67567332D01*
X112703517Y-67646806D01*
X112725783Y-67673937D01*
X112752914Y-67696203D01*
X112752919Y-67696208D01*
X112834077Y-67762812D01*
X112957628Y-67828852D01*
X113043201Y-67854810D01*
X113091690Y-67869519D01*
X113196174Y-67879810D01*
X113196181Y-67879810D01*
X113231110Y-67883250D01*
X113266038Y-67879810D01*
X118589023Y-67879810D01*
X119074069Y-68364856D01*
X119038254Y-68353992D01*
X118865000Y-68336928D01*
X118065000Y-68336928D01*
X117891746Y-68353992D01*
X117725150Y-68404528D01*
X117571614Y-68486595D01*
X117437038Y-68597038D01*
X117326595Y-68731614D01*
X117244528Y-68885150D01*
X117193992Y-69051746D01*
X117176928Y-69225000D01*
X117176928Y-70475000D01*
X117193992Y-70648254D01*
X117244528Y-70814850D01*
X117326595Y-70968386D01*
X117437038Y-71102962D01*
X117571614Y-71213405D01*
X117725150Y-71295472D01*
X117891746Y-71346008D01*
X118065000Y-71363072D01*
X118097285Y-71363072D01*
X118881139Y-72146928D01*
X118065000Y-72146928D01*
X117891746Y-72163992D01*
X117725150Y-72214528D01*
X117571614Y-72296595D01*
X117437038Y-72407038D01*
X117326595Y-72541614D01*
X117244528Y-72695150D01*
X117193992Y-72861746D01*
X117176928Y-73035000D01*
X117176928Y-74285000D01*
X117193992Y-74458254D01*
X117244528Y-74624850D01*
X117326595Y-74778386D01*
X117437038Y-74912962D01*
X117571614Y-75023405D01*
X117725150Y-75105472D01*
X117891746Y-75156008D01*
X118065000Y-75173072D01*
X118990000Y-75173072D01*
X119163254Y-75156008D01*
X119329850Y-75105472D01*
X119483386Y-75023405D01*
X119617962Y-74912962D01*
X119728405Y-74778386D01*
X119810472Y-74624850D01*
X119861008Y-74458254D01*
X119878072Y-74285000D01*
X119878072Y-73315217D01*
X119925699Y-73267590D01*
X120151928Y-73267590D01*
X120151928Y-74285000D01*
X120168992Y-74458254D01*
X120219528Y-74624850D01*
X120301595Y-74778386D01*
X120412038Y-74912962D01*
X120546614Y-75023405D01*
X120700150Y-75105472D01*
X120853801Y-75152081D01*
X120853800Y-76015837D01*
X120825150Y-76024528D01*
X120671614Y-76106595D01*
X120537038Y-76217038D01*
X120426595Y-76351614D01*
X120344528Y-76505150D01*
X120293992Y-76671746D01*
X120276928Y-76845000D01*
X120276928Y-77862410D01*
X119863199Y-77862410D01*
X119753072Y-77752284D01*
X119753072Y-76845000D01*
X119736008Y-76671746D01*
X119685472Y-76505150D01*
X119603405Y-76351614D01*
X119492962Y-76217038D01*
X119358386Y-76106595D01*
X119204850Y-76024528D01*
X119038254Y-75973992D01*
X118865000Y-75956928D01*
X118065000Y-75956928D01*
X117891746Y-75973992D01*
X117725150Y-76024528D01*
X117571614Y-76106595D01*
X117437038Y-76217038D01*
X117326595Y-76351614D01*
X117244528Y-76505150D01*
X117193992Y-76671746D01*
X117176928Y-76845000D01*
X117176928Y-78095000D01*
X117193992Y-78268254D01*
X117244528Y-78434850D01*
X117326595Y-78588386D01*
X117437038Y-78722962D01*
X117571614Y-78833405D01*
X117725150Y-78915472D01*
X117891746Y-78966008D01*
X118065000Y-78983072D01*
X118865000Y-78983072D01*
X118962664Y-78973453D01*
X119041017Y-79051806D01*
X119063283Y-79078937D01*
X119090414Y-79101203D01*
X119090418Y-79101207D01*
X119171577Y-79167812D01*
X119295129Y-79233852D01*
X119429190Y-79274519D01*
X119533674Y-79284810D01*
X119533683Y-79284810D01*
X119568609Y-79288250D01*
X119603535Y-79284810D01*
X123676464Y-79284810D01*
X123711390Y-79288250D01*
X123746316Y-79284810D01*
X123746326Y-79284810D01*
X123850810Y-79274519D01*
X123984871Y-79233852D01*
X124108423Y-79167812D01*
X124216717Y-79078937D01*
X124232258Y-79060000D01*
X129906928Y-79060000D01*
X129919188Y-79184482D01*
X129955498Y-79304180D01*
X130014463Y-79414494D01*
X130093815Y-79511185D01*
X130190506Y-79590537D01*
X130300820Y-79649502D01*
X130420518Y-79685812D01*
X130545000Y-79698072D01*
X131159250Y-79695000D01*
X131318000Y-79536250D01*
X131318000Y-78524500D01*
X131572000Y-78524500D01*
X131572000Y-79536250D01*
X131730750Y-79695000D01*
X132345000Y-79698072D01*
X132469482Y-79685812D01*
X132589180Y-79649502D01*
X132699494Y-79590537D01*
X132796185Y-79511185D01*
X132875537Y-79414494D01*
X132934502Y-79304180D01*
X132970812Y-79184482D01*
X132983072Y-79060000D01*
X145146928Y-79060000D01*
X145159188Y-79184482D01*
X145195498Y-79304180D01*
X145254463Y-79414494D01*
X145333815Y-79511185D01*
X145430506Y-79590537D01*
X145540820Y-79649502D01*
X145660518Y-79685812D01*
X145785000Y-79698072D01*
X146399250Y-79695000D01*
X146558000Y-79536250D01*
X146558000Y-78524500D01*
X146812000Y-78524500D01*
X146812000Y-79536250D01*
X146970750Y-79695000D01*
X147585000Y-79698072D01*
X147709482Y-79685812D01*
X147829180Y-79649502D01*
X147939494Y-79590537D01*
X148036185Y-79511185D01*
X148115537Y-79414494D01*
X148174502Y-79304180D01*
X148210812Y-79184482D01*
X148223072Y-79060000D01*
X148220000Y-78683250D01*
X148061250Y-78524500D01*
X146812000Y-78524500D01*
X146558000Y-78524500D01*
X145308750Y-78524500D01*
X145150000Y-78683250D01*
X145146928Y-79060000D01*
X132983072Y-79060000D01*
X132980000Y-78683250D01*
X132821250Y-78524500D01*
X131572000Y-78524500D01*
X131318000Y-78524500D01*
X130068750Y-78524500D01*
X129910000Y-78683250D01*
X129906928Y-79060000D01*
X124232258Y-79060000D01*
X124238991Y-79051796D01*
X124317334Y-78973453D01*
X124415000Y-78983072D01*
X125215000Y-78983072D01*
X125388254Y-78966008D01*
X125554850Y-78915472D01*
X125708386Y-78833405D01*
X125842962Y-78722962D01*
X125953405Y-78588386D01*
X126035472Y-78434850D01*
X126050296Y-78385981D01*
X126145911Y-78405000D01*
X126330089Y-78405000D01*
X126510729Y-78369068D01*
X126656285Y-78308777D01*
X126694528Y-78434850D01*
X126776595Y-78588386D01*
X126887038Y-78722962D01*
X127021614Y-78833405D01*
X127175150Y-78915472D01*
X127341746Y-78966008D01*
X127515000Y-78983072D01*
X128315000Y-78983072D01*
X128488254Y-78966008D01*
X128654850Y-78915472D01*
X128808386Y-78833405D01*
X128942962Y-78722962D01*
X129053405Y-78588386D01*
X129135472Y-78434850D01*
X129186008Y-78268254D01*
X129203072Y-78095000D01*
X129203072Y-77735000D01*
X129906928Y-77735000D01*
X129910000Y-78111750D01*
X130068750Y-78270500D01*
X131318000Y-78270500D01*
X131318000Y-77258750D01*
X131572000Y-77258750D01*
X131572000Y-78270500D01*
X132821250Y-78270500D01*
X132980000Y-78111750D01*
X132983072Y-77735000D01*
X132970812Y-77610518D01*
X132934502Y-77490820D01*
X132875537Y-77380506D01*
X132796185Y-77283815D01*
X132699494Y-77204463D01*
X132589180Y-77145498D01*
X132469482Y-77109188D01*
X132345000Y-77096928D01*
X131730750Y-77100000D01*
X131572000Y-77258750D01*
X131318000Y-77258750D01*
X131159250Y-77100000D01*
X130545000Y-77096928D01*
X130420518Y-77109188D01*
X130300820Y-77145498D01*
X130190506Y-77204463D01*
X130093815Y-77283815D01*
X130014463Y-77380506D01*
X129955498Y-77490820D01*
X129919188Y-77610518D01*
X129906928Y-77735000D01*
X129203072Y-77735000D01*
X129203072Y-76845000D01*
X129186008Y-76671746D01*
X129135472Y-76505150D01*
X129053405Y-76351614D01*
X128942962Y-76217038D01*
X128808386Y-76106595D01*
X128654850Y-76024528D01*
X128626200Y-76015837D01*
X128626200Y-75114163D01*
X128654850Y-75105472D01*
X128808386Y-75023405D01*
X128942962Y-74912962D01*
X129053405Y-74778386D01*
X129135472Y-74624850D01*
X129186008Y-74458254D01*
X129203072Y-74285000D01*
X129203072Y-73035000D01*
X129186008Y-72861746D01*
X129135472Y-72695150D01*
X129053405Y-72541614D01*
X128942962Y-72407038D01*
X128808386Y-72296595D01*
X128654850Y-72214528D01*
X128488254Y-72163992D01*
X128315000Y-72146928D01*
X127390000Y-72146928D01*
X127216746Y-72163992D01*
X127050150Y-72214528D01*
X126896614Y-72296595D01*
X126762038Y-72407038D01*
X126651595Y-72541614D01*
X126569528Y-72695150D01*
X126518992Y-72861746D01*
X126501928Y-73035000D01*
X126501928Y-74285000D01*
X126518992Y-74458254D01*
X126569528Y-74624850D01*
X126651595Y-74778386D01*
X126762038Y-74912962D01*
X126896614Y-75023405D01*
X127050150Y-75105472D01*
X127203801Y-75152081D01*
X127203800Y-76015837D01*
X127175150Y-76024528D01*
X127021614Y-76106595D01*
X126887038Y-76217038D01*
X126776595Y-76351614D01*
X126694528Y-76505150D01*
X126656285Y-76631223D01*
X126510729Y-76570932D01*
X126330089Y-76535000D01*
X126145911Y-76535000D01*
X126050296Y-76554019D01*
X126035472Y-76505150D01*
X125953405Y-76351614D01*
X125842962Y-76217038D01*
X125708386Y-76106595D01*
X125554850Y-76024528D01*
X125388254Y-75973992D01*
X125215000Y-75956928D01*
X124415000Y-75956928D01*
X124241746Y-75973992D01*
X124075150Y-76024528D01*
X123921614Y-76106595D01*
X123787038Y-76217038D01*
X123676595Y-76351614D01*
X123594528Y-76505150D01*
X123543992Y-76671746D01*
X123526928Y-76845000D01*
X123526928Y-77752284D01*
X123416803Y-77862410D01*
X122853072Y-77862410D01*
X122853072Y-76845000D01*
X122836008Y-76671746D01*
X122785472Y-76505150D01*
X122703405Y-76351614D01*
X122592962Y-76217038D01*
X122458386Y-76106595D01*
X122304850Y-76024528D01*
X122276200Y-76015837D01*
X122276200Y-75114163D01*
X122304850Y-75105472D01*
X122458386Y-75023405D01*
X122592962Y-74912962D01*
X122703405Y-74778386D01*
X122785472Y-74624850D01*
X122836008Y-74458254D01*
X122853072Y-74285000D01*
X122853072Y-74135670D01*
X123001111Y-74234586D01*
X123171271Y-74305068D01*
X123351911Y-74341000D01*
X123492949Y-74341000D01*
X123533660Y-74353350D01*
X123543992Y-74458254D01*
X123594528Y-74624850D01*
X123676595Y-74778386D01*
X123787038Y-74912962D01*
X123921614Y-75023405D01*
X124075150Y-75105472D01*
X124241746Y-75156008D01*
X124415000Y-75173072D01*
X125340000Y-75173072D01*
X125513254Y-75156008D01*
X125679850Y-75105472D01*
X125833386Y-75023405D01*
X125967962Y-74912962D01*
X126078405Y-74778386D01*
X126160472Y-74624850D01*
X126211008Y-74458254D01*
X126228072Y-74285000D01*
X126228072Y-73035000D01*
X126211008Y-72861746D01*
X126160472Y-72695150D01*
X126078405Y-72541614D01*
X125967962Y-72407038D01*
X125833386Y-72296595D01*
X125679850Y-72214528D01*
X125513254Y-72163992D01*
X125410025Y-72153825D01*
X126650867Y-70912983D01*
X126675498Y-70994180D01*
X126734463Y-71104494D01*
X126813815Y-71201185D01*
X126910506Y-71280537D01*
X127020820Y-71339502D01*
X127140518Y-71375812D01*
X127265000Y-71388072D01*
X127641750Y-71385000D01*
X127800500Y-71226250D01*
X127800500Y-69977000D01*
X127780500Y-69977000D01*
X127780500Y-69723000D01*
X127800500Y-69723000D01*
X127800500Y-69703000D01*
X128054500Y-69703000D01*
X128054500Y-69723000D01*
X128074500Y-69723000D01*
X128074500Y-69977000D01*
X128054500Y-69977000D01*
X128054500Y-71226250D01*
X128213250Y-71385000D01*
X128590000Y-71388072D01*
X128714482Y-71375812D01*
X128834180Y-71339502D01*
X128944494Y-71280537D01*
X129041185Y-71201185D01*
X129120537Y-71104494D01*
X129179502Y-70994180D01*
X129215812Y-70874482D01*
X129228072Y-70750000D01*
X129226398Y-70415328D01*
X129393261Y-70582191D01*
X129415531Y-70609327D01*
X129523825Y-70698202D01*
X129647377Y-70764242D01*
X129781438Y-70804909D01*
X129885922Y-70815200D01*
X129885929Y-70815200D01*
X129920858Y-70818640D01*
X129945885Y-70816175D01*
X129959972Y-70830262D01*
X130113111Y-70932586D01*
X130283271Y-71003068D01*
X130463911Y-71039000D01*
X130648089Y-71039000D01*
X130828729Y-71003068D01*
X130998889Y-70932586D01*
X131152028Y-70830262D01*
X131282262Y-70700028D01*
X131384586Y-70546889D01*
X131455068Y-70376729D01*
X131471928Y-70291969D01*
X131471928Y-70385000D01*
X131484188Y-70509482D01*
X131520498Y-70629180D01*
X131579463Y-70739494D01*
X131658815Y-70836185D01*
X131755506Y-70915537D01*
X131865820Y-70974502D01*
X131985518Y-71010812D01*
X132110000Y-71023072D01*
X133446928Y-71023072D01*
X133446928Y-72360000D01*
X133459188Y-72484482D01*
X133495498Y-72604180D01*
X133554463Y-72714494D01*
X133633815Y-72811185D01*
X133730506Y-72890537D01*
X133840820Y-72949502D01*
X133960518Y-72985812D01*
X134085000Y-72998072D01*
X134635000Y-72998072D01*
X134759482Y-72985812D01*
X134760000Y-72985655D01*
X134760518Y-72985812D01*
X134885000Y-72998072D01*
X135435000Y-72998072D01*
X135559482Y-72985812D01*
X135560620Y-72985467D01*
X135674250Y-72995000D01*
X135766333Y-72902917D01*
X135789494Y-72890537D01*
X135886185Y-72811185D01*
X135960000Y-72721241D01*
X136033815Y-72811185D01*
X136102828Y-72867822D01*
X136165798Y-72985632D01*
X136218822Y-73050242D01*
X136254674Y-73093927D01*
X136275598Y-73111099D01*
X136292774Y-73132028D01*
X136401068Y-73220903D01*
X136524620Y-73286943D01*
X136658681Y-73327610D01*
X136763165Y-73337901D01*
X136763173Y-73337901D01*
X136798101Y-73341341D01*
X136833029Y-73337901D01*
X138286973Y-73337901D01*
X138321899Y-73341341D01*
X138356825Y-73337901D01*
X138356835Y-73337901D01*
X138448800Y-73328843D01*
X138448800Y-73905411D01*
X136863929Y-75490284D01*
X136661411Y-75450000D01*
X136388589Y-75450000D01*
X136186071Y-75490284D01*
X135490102Y-74794314D01*
X135467827Y-74767173D01*
X135359533Y-74678298D01*
X135235981Y-74612258D01*
X135101920Y-74571591D01*
X134997436Y-74561300D01*
X134997426Y-74561300D01*
X134962500Y-74557860D01*
X134927574Y-74561300D01*
X132927955Y-74561300D01*
X132915472Y-74520149D01*
X132833405Y-74366613D01*
X132722962Y-74232038D01*
X132588387Y-74121595D01*
X132434851Y-74039528D01*
X132268255Y-73988992D01*
X132095001Y-73971928D01*
X130794999Y-73971928D01*
X130621745Y-73988992D01*
X130455149Y-74039528D01*
X130301613Y-74121595D01*
X130167038Y-74232038D01*
X130056595Y-74366613D01*
X129974528Y-74520149D01*
X129923992Y-74686745D01*
X129906928Y-74859999D01*
X129906928Y-75685001D01*
X129923992Y-75858255D01*
X129974528Y-76024851D01*
X130056595Y-76178387D01*
X130167038Y-76312962D01*
X130301613Y-76423405D01*
X130455149Y-76505472D01*
X130621745Y-76556008D01*
X130794999Y-76573072D01*
X132095001Y-76573072D01*
X132268255Y-76556008D01*
X132434851Y-76505472D01*
X132588387Y-76423405D01*
X132722962Y-76312962D01*
X132833405Y-76178387D01*
X132915472Y-76024851D01*
X132927955Y-75983700D01*
X134667913Y-75983700D01*
X135180284Y-76496071D01*
X135140000Y-76698589D01*
X135140000Y-76971411D01*
X135193225Y-77238989D01*
X135297629Y-77491043D01*
X135449201Y-77717886D01*
X135642114Y-77910799D01*
X135868957Y-78062371D01*
X136121011Y-78166775D01*
X136388589Y-78220000D01*
X136661411Y-78220000D01*
X136928989Y-78166775D01*
X137181043Y-78062371D01*
X137407886Y-77910799D01*
X137600799Y-77717886D01*
X137752371Y-77491043D01*
X137856775Y-77238989D01*
X137910000Y-76971411D01*
X137910000Y-76698589D01*
X137869716Y-76496071D01*
X139248801Y-75116988D01*
X139248801Y-75355064D01*
X139245360Y-75390000D01*
X139248801Y-75424936D01*
X139259092Y-75529420D01*
X139290637Y-75633411D01*
X139299759Y-75663481D01*
X139365798Y-75787032D01*
X139424250Y-75858255D01*
X139454674Y-75895327D01*
X139481810Y-75917597D01*
X140060284Y-76496071D01*
X140020000Y-76698589D01*
X140020000Y-76971411D01*
X140073225Y-77238989D01*
X140177629Y-77491043D01*
X140329201Y-77717886D01*
X140522114Y-77910799D01*
X140748957Y-78062371D01*
X141001011Y-78166775D01*
X141268589Y-78220000D01*
X141541411Y-78220000D01*
X141808989Y-78166775D01*
X142061043Y-78062371D01*
X142287886Y-77910799D01*
X142480799Y-77717886D01*
X142595516Y-77546200D01*
X145087574Y-77546200D01*
X145122500Y-77549640D01*
X145157426Y-77546200D01*
X145157436Y-77546200D01*
X145179354Y-77544041D01*
X145159188Y-77610518D01*
X145146928Y-77735000D01*
X145150000Y-78111750D01*
X145308750Y-78270500D01*
X146558000Y-78270500D01*
X146558000Y-77258750D01*
X146812000Y-77258750D01*
X146812000Y-78270500D01*
X148061250Y-78270500D01*
X148220000Y-78111750D01*
X148223072Y-77735000D01*
X148210812Y-77610518D01*
X148174502Y-77490820D01*
X148115537Y-77380506D01*
X148036185Y-77283815D01*
X147939494Y-77204463D01*
X147829180Y-77145498D01*
X147709482Y-77109188D01*
X147585000Y-77096928D01*
X146970750Y-77100000D01*
X146812000Y-77258750D01*
X146558000Y-77258750D01*
X146399250Y-77100000D01*
X145865954Y-77097333D01*
X146390216Y-76573072D01*
X147335001Y-76573072D01*
X147508255Y-76556008D01*
X147674851Y-76505472D01*
X147814852Y-76430639D01*
X149065241Y-77681028D01*
X149010000Y-77958740D01*
X149010000Y-78251260D01*
X149067068Y-78538158D01*
X149179010Y-78808411D01*
X149341525Y-79051632D01*
X149548368Y-79258475D01*
X149791589Y-79420990D01*
X150061842Y-79532932D01*
X150348740Y-79590000D01*
X150641260Y-79590000D01*
X150928158Y-79532932D01*
X151198411Y-79420990D01*
X151441632Y-79258475D01*
X151648475Y-79051632D01*
X151810990Y-78808411D01*
X151922932Y-78538158D01*
X151980000Y-78251260D01*
X151980000Y-77958740D01*
X151922932Y-77671842D01*
X151810990Y-77401589D01*
X151648475Y-77158368D01*
X151516620Y-77026513D01*
X151589180Y-77004502D01*
X151699494Y-76945537D01*
X151796185Y-76866185D01*
X151875537Y-76769494D01*
X151934502Y-76659180D01*
X151970812Y-76539482D01*
X151983072Y-76415000D01*
X151983072Y-75717715D01*
X155360000Y-72340788D01*
X155360000Y-72536260D01*
X155417068Y-72823158D01*
X155529010Y-73093411D01*
X155691525Y-73336632D01*
X155898368Y-73543475D01*
X156072760Y-73660000D01*
X155898368Y-73776525D01*
X155691525Y-73983368D01*
X155529010Y-74226589D01*
X155417068Y-74496842D01*
X155360000Y-74783740D01*
X155360000Y-75076260D01*
X155417068Y-75363158D01*
X155529010Y-75633411D01*
X155691525Y-75876632D01*
X155898368Y-76083475D01*
X156141589Y-76245990D01*
X156411842Y-76357932D01*
X156698740Y-76415000D01*
X156991260Y-76415000D01*
X157278158Y-76357932D01*
X157548411Y-76245990D01*
X157791632Y-76083475D01*
X157916710Y-75958397D01*
X158536208Y-75958397D01*
X158613843Y-76207472D01*
X158877883Y-76333371D01*
X159161411Y-76405339D01*
X159453531Y-76420611D01*
X159743019Y-76378599D01*
X160018747Y-76280919D01*
X160156157Y-76207472D01*
X160233792Y-75958397D01*
X159385000Y-75109605D01*
X158536208Y-75958397D01*
X157916710Y-75958397D01*
X157998475Y-75876632D01*
X158114311Y-75703271D01*
X158356603Y-75778792D01*
X159205395Y-74930000D01*
X159564605Y-74930000D01*
X160413397Y-75778792D01*
X160662472Y-75701157D01*
X160788371Y-75437117D01*
X160860339Y-75153589D01*
X160875611Y-74861469D01*
X160833599Y-74571981D01*
X160735919Y-74296253D01*
X160662472Y-74158843D01*
X160413397Y-74081208D01*
X159564605Y-74930000D01*
X159205395Y-74930000D01*
X158356603Y-74081208D01*
X158114311Y-74156729D01*
X157998475Y-73983368D01*
X157791632Y-73776525D01*
X157617240Y-73660000D01*
X157791632Y-73543475D01*
X157998475Y-73336632D01*
X158115000Y-73162240D01*
X158231525Y-73336632D01*
X158438368Y-73543475D01*
X158611729Y-73659311D01*
X158536208Y-73901603D01*
X159385000Y-74750395D01*
X160233792Y-73901603D01*
X160158271Y-73659311D01*
X160331632Y-73543475D01*
X160538475Y-73336632D01*
X160700990Y-73093411D01*
X160812932Y-72823158D01*
X160870000Y-72536260D01*
X160870000Y-72243740D01*
X160812932Y-71956842D01*
X160700990Y-71686589D01*
X160538475Y-71443368D01*
X160331632Y-71236525D01*
X160157240Y-71120000D01*
X160331632Y-71003475D01*
X160538475Y-70796632D01*
X160700990Y-70553411D01*
X160812932Y-70283158D01*
X160870000Y-69996260D01*
X160870000Y-69703740D01*
X160812932Y-69416842D01*
X160700990Y-69146589D01*
X160538475Y-68903368D01*
X160331632Y-68696525D01*
X160096200Y-68539214D01*
X160096200Y-64169928D01*
X160099640Y-64135000D01*
X160096200Y-64100071D01*
X160096200Y-64100064D01*
X160085909Y-63995580D01*
X160069925Y-63942889D01*
X160045242Y-63861518D01*
X159979202Y-63737967D01*
X159912598Y-63656809D01*
X159912588Y-63656799D01*
X159890326Y-63629673D01*
X159863201Y-63607412D01*
X153829759Y-57573972D01*
X153885000Y-57296260D01*
X153885000Y-57003740D01*
X153827932Y-56716842D01*
X153715990Y-56446589D01*
X153553475Y-56203368D01*
X153346632Y-55996525D01*
X153209655Y-55905000D01*
X165067721Y-55905000D01*
X165217869Y-55919722D01*
X165331246Y-55953953D01*
X165435819Y-56009555D01*
X165527596Y-56084407D01*
X165603091Y-56175664D01*
X165659419Y-56279844D01*
X165694440Y-56392976D01*
X165710001Y-56541031D01*
X165710000Y-79342721D01*
X165695278Y-79492869D01*
X165661047Y-79606246D01*
X165605446Y-79710817D01*
X165530594Y-79802595D01*
X165439335Y-79878091D01*
X165335160Y-79934419D01*
X165222024Y-79969440D01*
X165073979Y-79985000D01*
X100362279Y-79985000D01*
X100212131Y-79970278D01*
X100098754Y-79936047D01*
X99994183Y-79880446D01*
X99902405Y-79805594D01*
X99826909Y-79714335D01*
X99770581Y-79610160D01*
X99735560Y-79497024D01*
X99720000Y-79348979D01*
X99720000Y-59295000D01*
X104476928Y-59295000D01*
X104489188Y-59419482D01*
X104525498Y-59539180D01*
X104584463Y-59649494D01*
X104663815Y-59746185D01*
X104760506Y-59825537D01*
X104870820Y-59884502D01*
X104990518Y-59920812D01*
X105115000Y-59933072D01*
X105541750Y-59930000D01*
X105700500Y-59771250D01*
X105700500Y-58547000D01*
X105954500Y-58547000D01*
X105954500Y-59771250D01*
X106113250Y-59930000D01*
X106540000Y-59933072D01*
X106664482Y-59920812D01*
X106784180Y-59884502D01*
X106894494Y-59825537D01*
X106991185Y-59746185D01*
X107070537Y-59649494D01*
X107129502Y-59539180D01*
X107165812Y-59419482D01*
X107178072Y-59295000D01*
X107175000Y-58705750D01*
X107016250Y-58547000D01*
X105954500Y-58547000D01*
X105700500Y-58547000D01*
X104638750Y-58547000D01*
X104480000Y-58705750D01*
X104476928Y-59295000D01*
X99720000Y-59295000D01*
X99720000Y-57545000D01*
X104476928Y-57545000D01*
X104480000Y-58134250D01*
X104638750Y-58293000D01*
X105700500Y-58293000D01*
X105700500Y-57068750D01*
X105954500Y-57068750D01*
X105954500Y-58293000D01*
X107016250Y-58293000D01*
X107175000Y-58134250D01*
X107176768Y-57795000D01*
X107451928Y-57795000D01*
X107451928Y-59045000D01*
X107468992Y-59218254D01*
X107519528Y-59384850D01*
X107601595Y-59538386D01*
X107712038Y-59672962D01*
X107846614Y-59783405D01*
X108000150Y-59865472D01*
X108166746Y-59916008D01*
X108340000Y-59933072D01*
X109265000Y-59933072D01*
X109438254Y-59916008D01*
X109604850Y-59865472D01*
X109758386Y-59783405D01*
X109892962Y-59672962D01*
X110003405Y-59538386D01*
X110085472Y-59384850D01*
X110136008Y-59218254D01*
X110144582Y-59131200D01*
X110835418Y-59131200D01*
X110843992Y-59218254D01*
X110894528Y-59384850D01*
X110976595Y-59538386D01*
X111087038Y-59672962D01*
X111221614Y-59783405D01*
X111375150Y-59865472D01*
X111541746Y-59916008D01*
X111715000Y-59933072D01*
X112515000Y-59933072D01*
X112688254Y-59916008D01*
X112854850Y-59865472D01*
X113008386Y-59783405D01*
X113142962Y-59672962D01*
X113253405Y-59538386D01*
X113335472Y-59384850D01*
X113386008Y-59218254D01*
X113403072Y-59045000D01*
X113403072Y-57795000D01*
X113386008Y-57621746D01*
X113335472Y-57455150D01*
X113253405Y-57301614D01*
X113142962Y-57167038D01*
X113008386Y-57056595D01*
X112854850Y-56974528D01*
X112688254Y-56923992D01*
X112515000Y-56906928D01*
X111715000Y-56906928D01*
X111541746Y-56923992D01*
X111375150Y-56974528D01*
X111221614Y-57056595D01*
X111087038Y-57167038D01*
X110976595Y-57301614D01*
X110894528Y-57455150D01*
X110843992Y-57621746D01*
X110835418Y-57708800D01*
X110144582Y-57708800D01*
X110136008Y-57621746D01*
X110085472Y-57455150D01*
X110003405Y-57301614D01*
X109892962Y-57167038D01*
X109758386Y-57056595D01*
X109604850Y-56974528D01*
X109438254Y-56923992D01*
X109265000Y-56906928D01*
X108340000Y-56906928D01*
X108166746Y-56923992D01*
X108000150Y-56974528D01*
X107846614Y-57056595D01*
X107712038Y-57167038D01*
X107601595Y-57301614D01*
X107519528Y-57455150D01*
X107468992Y-57621746D01*
X107451928Y-57795000D01*
X107176768Y-57795000D01*
X107178072Y-57545000D01*
X107165812Y-57420518D01*
X107129502Y-57300820D01*
X107070537Y-57190506D01*
X106991185Y-57093815D01*
X106894494Y-57014463D01*
X106784180Y-56955498D01*
X106664482Y-56919188D01*
X106540000Y-56906928D01*
X106113250Y-56910000D01*
X105954500Y-57068750D01*
X105700500Y-57068750D01*
X105541750Y-56910000D01*
X105115000Y-56906928D01*
X104990518Y-56919188D01*
X104870820Y-56955498D01*
X104760506Y-57014463D01*
X104663815Y-57093815D01*
X104584463Y-57190506D01*
X104525498Y-57300820D01*
X104489188Y-57420518D01*
X104476928Y-57545000D01*
X99720000Y-57545000D01*
X99720000Y-56547279D01*
X99734722Y-56397131D01*
X99768953Y-56283754D01*
X99824555Y-56179181D01*
X99899407Y-56087404D01*
X99990664Y-56011909D01*
X100094844Y-55955581D01*
X100207976Y-55920560D01*
X100356022Y-55905000D01*
X140689212Y-55905000D01*
X139687285Y-56906928D01*
G37*
%TD.AperFunction*%
D22*
X158673800Y-64429589D02*
X158673801Y-68539214D01*
X158438368Y-68696525D01*
X158251285Y-68883608D01*
X158183405Y-68756614D01*
X158072962Y-68622038D01*
X157938386Y-68511595D01*
X157784850Y-68429528D01*
X157618254Y-68378992D01*
X157445000Y-68361928D01*
X156245000Y-68361928D01*
X156071746Y-68378992D01*
X155905150Y-68429528D01*
X155751614Y-68511595D01*
X155617038Y-68622038D01*
X155506595Y-68756614D01*
X155424528Y-68910150D01*
X155373992Y-69076746D01*
X155356928Y-69250000D01*
X155356928Y-70332283D01*
X151569642Y-74119571D01*
X151469482Y-74089188D01*
X151345000Y-74076928D01*
X151206200Y-74076928D01*
X151206200Y-72144928D01*
X151209640Y-72110000D01*
X151206200Y-72075071D01*
X151206200Y-72075064D01*
X151195909Y-71970580D01*
X151191742Y-71956842D01*
X151155242Y-71836518D01*
X151089202Y-71712967D01*
X151022598Y-71631809D01*
X151022588Y-71631799D01*
X151000326Y-71604673D01*
X150973201Y-71582412D01*
X149523072Y-70132284D01*
X149523072Y-69225000D01*
X149506008Y-69051746D01*
X149455472Y-68885150D01*
X149373405Y-68731614D01*
X149262962Y-68597038D01*
X149128386Y-68486595D01*
X148974850Y-68404528D01*
X148808254Y-68353992D01*
X148635000Y-68336928D01*
X147835000Y-68336928D01*
X147661746Y-68353992D01*
X147495150Y-68404528D01*
X147341614Y-68486595D01*
X147207038Y-68597038D01*
X147096595Y-68731614D01*
X147014528Y-68885150D01*
X146963992Y-69051746D01*
X146946928Y-69225000D01*
X146946928Y-70475000D01*
X146963992Y-70648254D01*
X146974856Y-70684068D01*
X146423072Y-70132284D01*
X146423072Y-69225000D01*
X146406008Y-69051746D01*
X146355472Y-68885150D01*
X146273405Y-68731614D01*
X146162962Y-68597038D01*
X146028386Y-68486595D01*
X145874850Y-68404528D01*
X145708254Y-68353992D01*
X145535000Y-68336928D01*
X144735000Y-68336928D01*
X144561746Y-68353992D01*
X144395150Y-68404528D01*
X144241614Y-68486595D01*
X144107038Y-68597038D01*
X144105592Y-68598800D01*
X142848072Y-68598800D01*
X142848072Y-68235000D01*
X142835812Y-68110518D01*
X142835655Y-68110000D01*
X142835812Y-68109482D01*
X142848072Y-67985000D01*
X142848072Y-67435000D01*
X142835812Y-67310518D01*
X142835655Y-67310000D01*
X142835812Y-67309482D01*
X142848072Y-67185000D01*
X142848072Y-66635000D01*
X142835812Y-66510518D01*
X142835655Y-66510000D01*
X142835812Y-66509482D01*
X142848072Y-66385000D01*
X142848072Y-66021200D01*
X148341404Y-66021200D01*
X148376330Y-66024640D01*
X148411256Y-66021200D01*
X148411266Y-66021200D01*
X148515750Y-66010909D01*
X148649811Y-65970242D01*
X148773363Y-65904202D01*
X148881657Y-65815327D01*
X148903932Y-65788185D01*
X151386265Y-63305853D01*
X151518645Y-63425178D01*
X151768748Y-63574157D01*
X152043109Y-63671481D01*
X152273000Y-63550814D01*
X152273000Y-62357000D01*
X152527000Y-62357000D01*
X152527000Y-63550814D01*
X152756891Y-63671481D01*
X153031252Y-63574157D01*
X153281355Y-63425178D01*
X153497588Y-63230269D01*
X153671641Y-62996920D01*
X153796825Y-62734099D01*
X153841476Y-62586890D01*
X153720155Y-62357000D01*
X152527000Y-62357000D01*
X152273000Y-62357000D01*
X152253000Y-62357000D01*
X152253000Y-62103000D01*
X152273000Y-62103000D01*
X152273000Y-62083000D01*
X152527000Y-62083000D01*
X152527000Y-62103000D01*
X153720155Y-62103000D01*
X153841476Y-61873110D01*
X153796825Y-61725901D01*
X153671641Y-61463080D01*
X153497588Y-61229731D01*
X153281355Y-61034822D01*
X153164466Y-60965195D01*
X153346632Y-60843475D01*
X153553475Y-60636632D01*
X153715990Y-60393411D01*
X153827932Y-60123158D01*
X153885000Y-59836260D01*
X153885000Y-59640788D01*
X158673800Y-64429589D01*
%TA.AperFunction,Conductor*%
D23*
G36*
X158673800Y-64429589D02*
G01*
X158673801Y-68539214D01*
X158438368Y-68696525D01*
X158251285Y-68883608D01*
X158183405Y-68756614D01*
X158072962Y-68622038D01*
X157938386Y-68511595D01*
X157784850Y-68429528D01*
X157618254Y-68378992D01*
X157445000Y-68361928D01*
X156245000Y-68361928D01*
X156071746Y-68378992D01*
X155905150Y-68429528D01*
X155751614Y-68511595D01*
X155617038Y-68622038D01*
X155506595Y-68756614D01*
X155424528Y-68910150D01*
X155373992Y-69076746D01*
X155356928Y-69250000D01*
X155356928Y-70332283D01*
X151569642Y-74119571D01*
X151469482Y-74089188D01*
X151345000Y-74076928D01*
X151206200Y-74076928D01*
X151206200Y-72144928D01*
X151209640Y-72110000D01*
X151206200Y-72075071D01*
X151206200Y-72075064D01*
X151195909Y-71970580D01*
X151191742Y-71956842D01*
X151155242Y-71836518D01*
X151089202Y-71712967D01*
X151022598Y-71631809D01*
X151022588Y-71631799D01*
X151000326Y-71604673D01*
X150973201Y-71582412D01*
X149523072Y-70132284D01*
X149523072Y-69225000D01*
X149506008Y-69051746D01*
X149455472Y-68885150D01*
X149373405Y-68731614D01*
X149262962Y-68597038D01*
X149128386Y-68486595D01*
X148974850Y-68404528D01*
X148808254Y-68353992D01*
X148635000Y-68336928D01*
X147835000Y-68336928D01*
X147661746Y-68353992D01*
X147495150Y-68404528D01*
X147341614Y-68486595D01*
X147207038Y-68597038D01*
X147096595Y-68731614D01*
X147014528Y-68885150D01*
X146963992Y-69051746D01*
X146946928Y-69225000D01*
X146946928Y-70475000D01*
X146963992Y-70648254D01*
X146974856Y-70684068D01*
X146423072Y-70132284D01*
X146423072Y-69225000D01*
X146406008Y-69051746D01*
X146355472Y-68885150D01*
X146273405Y-68731614D01*
X146162962Y-68597038D01*
X146028386Y-68486595D01*
X145874850Y-68404528D01*
X145708254Y-68353992D01*
X145535000Y-68336928D01*
X144735000Y-68336928D01*
X144561746Y-68353992D01*
X144395150Y-68404528D01*
X144241614Y-68486595D01*
X144107038Y-68597038D01*
X144105592Y-68598800D01*
X142848072Y-68598800D01*
X142848072Y-68235000D01*
X142835812Y-68110518D01*
X142835655Y-68110000D01*
X142835812Y-68109482D01*
X142848072Y-67985000D01*
X142848072Y-67435000D01*
X142835812Y-67310518D01*
X142835655Y-67310000D01*
X142835812Y-67309482D01*
X142848072Y-67185000D01*
X142848072Y-66635000D01*
X142835812Y-66510518D01*
X142835655Y-66510000D01*
X142835812Y-66509482D01*
X142848072Y-66385000D01*
X142848072Y-66021200D01*
X148341404Y-66021200D01*
X148376330Y-66024640D01*
X148411256Y-66021200D01*
X148411266Y-66021200D01*
X148515750Y-66010909D01*
X148649811Y-65970242D01*
X148773363Y-65904202D01*
X148881657Y-65815327D01*
X148903932Y-65788185D01*
X151386265Y-63305853D01*
X151518645Y-63425178D01*
X151768748Y-63574157D01*
X152043109Y-63671481D01*
X152273000Y-63550814D01*
X152273000Y-62357000D01*
X152527000Y-62357000D01*
X152527000Y-63550814D01*
X152756891Y-63671481D01*
X153031252Y-63574157D01*
X153281355Y-63425178D01*
X153497588Y-63230269D01*
X153671641Y-62996920D01*
X153796825Y-62734099D01*
X153841476Y-62586890D01*
X153720155Y-62357000D01*
X152527000Y-62357000D01*
X152273000Y-62357000D01*
X152253000Y-62357000D01*
X152253000Y-62103000D01*
X152273000Y-62103000D01*
X152273000Y-62083000D01*
X152527000Y-62083000D01*
X152527000Y-62103000D01*
X153720155Y-62103000D01*
X153841476Y-61873110D01*
X153796825Y-61725901D01*
X153671641Y-61463080D01*
X153497588Y-61229731D01*
X153281355Y-61034822D01*
X153164466Y-60965195D01*
X153346632Y-60843475D01*
X153553475Y-60636632D01*
X153715990Y-60393411D01*
X153827932Y-60123158D01*
X153885000Y-59836260D01*
X153885000Y-59640788D01*
X158673800Y-64429589D01*
G37*
%TD.AperFunction*%
D22*
X135560518Y-64485812D02*
X135685000Y-64498072D01*
X136120408Y-64498072D01*
X136030682Y-64558025D01*
X135900448Y-64688259D01*
X135798124Y-64841398D01*
X135727642Y-65011558D01*
X135691710Y-65192198D01*
X135691710Y-65376376D01*
X135727642Y-65557016D01*
X135798124Y-65727176D01*
X135900448Y-65880315D01*
X136030682Y-66010549D01*
X136183821Y-66112873D01*
X136353981Y-66183355D01*
X136534621Y-66219287D01*
X136718799Y-66219287D01*
X136899439Y-66183355D01*
X137069599Y-66112873D01*
X137222738Y-66010549D01*
X137352972Y-65880315D01*
X137455296Y-65727176D01*
X137525778Y-65557016D01*
X137561710Y-65376376D01*
X137561710Y-65355075D01*
X137648801Y-65267984D01*
X137648800Y-70296517D01*
X137633815Y-70308815D01*
X137560000Y-70398759D01*
X137486185Y-70308815D01*
X137389494Y-70229463D01*
X137366333Y-70217083D01*
X137274250Y-70125000D01*
X137160620Y-70134533D01*
X137159482Y-70134188D01*
X137035000Y-70121928D01*
X136485000Y-70121928D01*
X136360518Y-70134188D01*
X136359380Y-70134533D01*
X136245750Y-70125000D01*
X136153667Y-70217083D01*
X136130506Y-70229463D01*
X136033815Y-70308815D01*
X135960000Y-70398759D01*
X135886185Y-70308815D01*
X135789494Y-70229463D01*
X135766333Y-70217083D01*
X135674250Y-70125000D01*
X135560620Y-70134533D01*
X135559482Y-70134188D01*
X135435000Y-70121928D01*
X134885000Y-70121928D01*
X134760518Y-70134188D01*
X134760000Y-70134345D01*
X134759482Y-70134188D01*
X134635000Y-70121928D01*
X134348072Y-70121928D01*
X134348072Y-69835000D01*
X134335812Y-69710518D01*
X134335655Y-69710000D01*
X134335812Y-69709482D01*
X134348072Y-69585000D01*
X134348072Y-69035000D01*
X134335812Y-68910518D01*
X134335655Y-68910000D01*
X134335812Y-68909482D01*
X134348072Y-68785000D01*
X134348072Y-68529200D01*
X134516910Y-68529200D01*
X134531972Y-68544262D01*
X134685111Y-68646586D01*
X134855271Y-68717068D01*
X135035911Y-68753000D01*
X135220089Y-68753000D01*
X135400729Y-68717068D01*
X135570889Y-68646586D01*
X135724028Y-68544262D01*
X135854262Y-68414028D01*
X135956586Y-68260889D01*
X136027068Y-68090729D01*
X136063000Y-67910089D01*
X136063000Y-67725911D01*
X136027068Y-67545271D01*
X135956586Y-67375111D01*
X135854262Y-67221972D01*
X135724028Y-67091738D01*
X135570889Y-66989414D01*
X135400729Y-66918932D01*
X135220089Y-66883000D01*
X135035911Y-66883000D01*
X134855271Y-66918932D01*
X134685111Y-66989414D01*
X134531972Y-67091738D01*
X134516910Y-67106800D01*
X134348072Y-67106800D01*
X134348072Y-66635000D01*
X134335812Y-66510518D01*
X134335655Y-66510000D01*
X134335812Y-66509482D01*
X134348072Y-66385000D01*
X134348072Y-65835000D01*
X134335812Y-65710518D01*
X134335655Y-65710000D01*
X134335812Y-65709482D01*
X134348072Y-65585000D01*
X134348072Y-65035000D01*
X134335812Y-64910518D01*
X134335655Y-64910000D01*
X134335812Y-64909482D01*
X134348072Y-64785000D01*
X134348072Y-64498072D01*
X134635000Y-64498072D01*
X134759482Y-64485812D01*
X134760000Y-64485655D01*
X134760518Y-64485812D01*
X134885000Y-64498072D01*
X135435000Y-64498072D01*
X135559482Y-64485812D01*
X135560000Y-64485655D01*
X135560518Y-64485812D01*
%TA.AperFunction,Conductor*%
D23*
G36*
X135560518Y-64485812D02*
G01*
X135685000Y-64498072D01*
X136120408Y-64498072D01*
X136030682Y-64558025D01*
X135900448Y-64688259D01*
X135798124Y-64841398D01*
X135727642Y-65011558D01*
X135691710Y-65192198D01*
X135691710Y-65376376D01*
X135727642Y-65557016D01*
X135798124Y-65727176D01*
X135900448Y-65880315D01*
X136030682Y-66010549D01*
X136183821Y-66112873D01*
X136353981Y-66183355D01*
X136534621Y-66219287D01*
X136718799Y-66219287D01*
X136899439Y-66183355D01*
X137069599Y-66112873D01*
X137222738Y-66010549D01*
X137352972Y-65880315D01*
X137455296Y-65727176D01*
X137525778Y-65557016D01*
X137561710Y-65376376D01*
X137561710Y-65355075D01*
X137648801Y-65267984D01*
X137648800Y-70296517D01*
X137633815Y-70308815D01*
X137560000Y-70398759D01*
X137486185Y-70308815D01*
X137389494Y-70229463D01*
X137366333Y-70217083D01*
X137274250Y-70125000D01*
X137160620Y-70134533D01*
X137159482Y-70134188D01*
X137035000Y-70121928D01*
X136485000Y-70121928D01*
X136360518Y-70134188D01*
X136359380Y-70134533D01*
X136245750Y-70125000D01*
X136153667Y-70217083D01*
X136130506Y-70229463D01*
X136033815Y-70308815D01*
X135960000Y-70398759D01*
X135886185Y-70308815D01*
X135789494Y-70229463D01*
X135766333Y-70217083D01*
X135674250Y-70125000D01*
X135560620Y-70134533D01*
X135559482Y-70134188D01*
X135435000Y-70121928D01*
X134885000Y-70121928D01*
X134760518Y-70134188D01*
X134760000Y-70134345D01*
X134759482Y-70134188D01*
X134635000Y-70121928D01*
X134348072Y-70121928D01*
X134348072Y-69835000D01*
X134335812Y-69710518D01*
X134335655Y-69710000D01*
X134335812Y-69709482D01*
X134348072Y-69585000D01*
X134348072Y-69035000D01*
X134335812Y-68910518D01*
X134335655Y-68910000D01*
X134335812Y-68909482D01*
X134348072Y-68785000D01*
X134348072Y-68529200D01*
X134516910Y-68529200D01*
X134531972Y-68544262D01*
X134685111Y-68646586D01*
X134855271Y-68717068D01*
X135035911Y-68753000D01*
X135220089Y-68753000D01*
X135400729Y-68717068D01*
X135570889Y-68646586D01*
X135724028Y-68544262D01*
X135854262Y-68414028D01*
X135956586Y-68260889D01*
X136027068Y-68090729D01*
X136063000Y-67910089D01*
X136063000Y-67725911D01*
X136027068Y-67545271D01*
X135956586Y-67375111D01*
X135854262Y-67221972D01*
X135724028Y-67091738D01*
X135570889Y-66989414D01*
X135400729Y-66918932D01*
X135220089Y-66883000D01*
X135035911Y-66883000D01*
X134855271Y-66918932D01*
X134685111Y-66989414D01*
X134531972Y-67091738D01*
X134516910Y-67106800D01*
X134348072Y-67106800D01*
X134348072Y-66635000D01*
X134335812Y-66510518D01*
X134335655Y-66510000D01*
X134335812Y-66509482D01*
X134348072Y-66385000D01*
X134348072Y-65835000D01*
X134335812Y-65710518D01*
X134335655Y-65710000D01*
X134335812Y-65709482D01*
X134348072Y-65585000D01*
X134348072Y-65035000D01*
X134335812Y-64910518D01*
X134335655Y-64910000D01*
X134335812Y-64909482D01*
X134348072Y-64785000D01*
X134348072Y-64498072D01*
X134635000Y-64498072D01*
X134759482Y-64485812D01*
X134760000Y-64485655D01*
X134760518Y-64485812D01*
X134885000Y-64498072D01*
X135435000Y-64498072D01*
X135559482Y-64485812D01*
X135560000Y-64485655D01*
X135560518Y-64485812D01*
G37*
%TD.AperFunction*%
D22*
X113930000Y-61944250D02*
X114088750Y-62103000D01*
X115100500Y-62103000D01*
X115100500Y-62083000D01*
X115354500Y-62083000D01*
X115354500Y-62103000D01*
X116366250Y-62103000D01*
X116525000Y-61944250D01*
X116526366Y-61671200D01*
X117153634Y-61671200D01*
X117155000Y-61944250D01*
X117313750Y-62103000D01*
X118325500Y-62103000D01*
X118325500Y-62083000D01*
X118579500Y-62083000D01*
X118579500Y-62103000D01*
X118599500Y-62103000D01*
X118599500Y-62357000D01*
X118579500Y-62357000D01*
X118579500Y-63606250D01*
X118632410Y-63659160D01*
X118632410Y-63783684D01*
X118628970Y-63818610D01*
X118632410Y-63853536D01*
X118632410Y-63853545D01*
X118642701Y-63958029D01*
X118683368Y-64092090D01*
X118749408Y-64215642D01*
X118838283Y-64323936D01*
X118865421Y-64346208D01*
X119074069Y-64554856D01*
X119038254Y-64543992D01*
X118865000Y-64526928D01*
X118065000Y-64526928D01*
X117891746Y-64543992D01*
X117725150Y-64594528D01*
X117571614Y-64676595D01*
X117437038Y-64787038D01*
X117326595Y-64921614D01*
X117244528Y-65075150D01*
X117193992Y-65241746D01*
X117176928Y-65415000D01*
X117176928Y-66457410D01*
X116525658Y-66457410D01*
X116525000Y-66325750D01*
X116366250Y-66167000D01*
X115354500Y-66167000D01*
X115354500Y-66187000D01*
X115100500Y-66187000D01*
X115100500Y-66167000D01*
X114088750Y-66167000D01*
X113930000Y-66325750D01*
X113929342Y-66457410D01*
X113525699Y-66457410D01*
X113403072Y-66334784D01*
X113403072Y-65389999D01*
X113386008Y-65216745D01*
X113362728Y-65140000D01*
X113926928Y-65140000D01*
X113930000Y-65754250D01*
X114088750Y-65913000D01*
X115100500Y-65913000D01*
X115100500Y-64663750D01*
X115354500Y-64663750D01*
X115354500Y-65913000D01*
X116366250Y-65913000D01*
X116525000Y-65754250D01*
X116528072Y-65140000D01*
X116515812Y-65015518D01*
X116479502Y-64895820D01*
X116420537Y-64785506D01*
X116341185Y-64688815D01*
X116244494Y-64609463D01*
X116134180Y-64550498D01*
X116014482Y-64514188D01*
X115890000Y-64501928D01*
X115513250Y-64505000D01*
X115354500Y-64663750D01*
X115100500Y-64663750D01*
X114941750Y-64505000D01*
X114565000Y-64501928D01*
X114440518Y-64514188D01*
X114320820Y-64550498D01*
X114210506Y-64609463D01*
X114113815Y-64688815D01*
X114034463Y-64785506D01*
X113975498Y-64895820D01*
X113939188Y-65015518D01*
X113926928Y-65140000D01*
X113362728Y-65140000D01*
X113335472Y-65050149D01*
X113253405Y-64896613D01*
X113142962Y-64762038D01*
X113008387Y-64651595D01*
X112854851Y-64569528D01*
X112688255Y-64518992D01*
X112515001Y-64501928D01*
X111689999Y-64501928D01*
X111516745Y-64518992D01*
X111350149Y-64569528D01*
X111196613Y-64651595D01*
X111062038Y-64762038D01*
X110951595Y-64896613D01*
X110869528Y-65050149D01*
X110818992Y-65216745D01*
X110801928Y-65389999D01*
X110801928Y-66334784D01*
X110054312Y-67082401D01*
X109391012Y-67082401D01*
X109435000Y-66861260D01*
X109435000Y-66568740D01*
X109379759Y-66291028D01*
X111902716Y-63768072D01*
X112515001Y-63768072D01*
X112688255Y-63751008D01*
X112854851Y-63700472D01*
X113008387Y-63618405D01*
X113142962Y-63507962D01*
X113253405Y-63373387D01*
X113335472Y-63219851D01*
X113362727Y-63130000D01*
X113926928Y-63130000D01*
X113939188Y-63254482D01*
X113975498Y-63374180D01*
X114034463Y-63484494D01*
X114113815Y-63581185D01*
X114210506Y-63660537D01*
X114320820Y-63719502D01*
X114440518Y-63755812D01*
X114565000Y-63768072D01*
X114941750Y-63765000D01*
X115100500Y-63606250D01*
X115100500Y-62357000D01*
X115354500Y-62357000D01*
X115354500Y-63606250D01*
X115513250Y-63765000D01*
X115890000Y-63768072D01*
X116014482Y-63755812D01*
X116134180Y-63719502D01*
X116244494Y-63660537D01*
X116341185Y-63581185D01*
X116420537Y-63484494D01*
X116479502Y-63374180D01*
X116515812Y-63254482D01*
X116528072Y-63130000D01*
X117151928Y-63130000D01*
X117164188Y-63254482D01*
X117200498Y-63374180D01*
X117259463Y-63484494D01*
X117338815Y-63581185D01*
X117435506Y-63660537D01*
X117545820Y-63719502D01*
X117665518Y-63755812D01*
X117790000Y-63768072D01*
X118166750Y-63765000D01*
X118325500Y-63606250D01*
X118325500Y-62357000D01*
X117313750Y-62357000D01*
X117155000Y-62515750D01*
X117151928Y-63130000D01*
X116528072Y-63130000D01*
X116525000Y-62515750D01*
X116366250Y-62357000D01*
X115354500Y-62357000D01*
X115100500Y-62357000D01*
X114088750Y-62357000D01*
X113930000Y-62515750D01*
X113926928Y-63130000D01*
X113362727Y-63130000D01*
X113386008Y-63053255D01*
X113403072Y-62880001D01*
X113403072Y-61935216D01*
X113667089Y-61671200D01*
X113928634Y-61671200D01*
X113930000Y-61944250D01*
%TA.AperFunction,Conductor*%
D23*
G36*
X113930000Y-61944250D02*
G01*
X114088750Y-62103000D01*
X115100500Y-62103000D01*
X115100500Y-62083000D01*
X115354500Y-62083000D01*
X115354500Y-62103000D01*
X116366250Y-62103000D01*
X116525000Y-61944250D01*
X116526366Y-61671200D01*
X117153634Y-61671200D01*
X117155000Y-61944250D01*
X117313750Y-62103000D01*
X118325500Y-62103000D01*
X118325500Y-62083000D01*
X118579500Y-62083000D01*
X118579500Y-62103000D01*
X118599500Y-62103000D01*
X118599500Y-62357000D01*
X118579500Y-62357000D01*
X118579500Y-63606250D01*
X118632410Y-63659160D01*
X118632410Y-63783684D01*
X118628970Y-63818610D01*
X118632410Y-63853536D01*
X118632410Y-63853545D01*
X118642701Y-63958029D01*
X118683368Y-64092090D01*
X118749408Y-64215642D01*
X118838283Y-64323936D01*
X118865421Y-64346208D01*
X119074069Y-64554856D01*
X119038254Y-64543992D01*
X118865000Y-64526928D01*
X118065000Y-64526928D01*
X117891746Y-64543992D01*
X117725150Y-64594528D01*
X117571614Y-64676595D01*
X117437038Y-64787038D01*
X117326595Y-64921614D01*
X117244528Y-65075150D01*
X117193992Y-65241746D01*
X117176928Y-65415000D01*
X117176928Y-66457410D01*
X116525658Y-66457410D01*
X116525000Y-66325750D01*
X116366250Y-66167000D01*
X115354500Y-66167000D01*
X115354500Y-66187000D01*
X115100500Y-66187000D01*
X115100500Y-66167000D01*
X114088750Y-66167000D01*
X113930000Y-66325750D01*
X113929342Y-66457410D01*
X113525699Y-66457410D01*
X113403072Y-66334784D01*
X113403072Y-65389999D01*
X113386008Y-65216745D01*
X113362728Y-65140000D01*
X113926928Y-65140000D01*
X113930000Y-65754250D01*
X114088750Y-65913000D01*
X115100500Y-65913000D01*
X115100500Y-64663750D01*
X115354500Y-64663750D01*
X115354500Y-65913000D01*
X116366250Y-65913000D01*
X116525000Y-65754250D01*
X116528072Y-65140000D01*
X116515812Y-65015518D01*
X116479502Y-64895820D01*
X116420537Y-64785506D01*
X116341185Y-64688815D01*
X116244494Y-64609463D01*
X116134180Y-64550498D01*
X116014482Y-64514188D01*
X115890000Y-64501928D01*
X115513250Y-64505000D01*
X115354500Y-64663750D01*
X115100500Y-64663750D01*
X114941750Y-64505000D01*
X114565000Y-64501928D01*
X114440518Y-64514188D01*
X114320820Y-64550498D01*
X114210506Y-64609463D01*
X114113815Y-64688815D01*
X114034463Y-64785506D01*
X113975498Y-64895820D01*
X113939188Y-65015518D01*
X113926928Y-65140000D01*
X113362728Y-65140000D01*
X113335472Y-65050149D01*
X113253405Y-64896613D01*
X113142962Y-64762038D01*
X113008387Y-64651595D01*
X112854851Y-64569528D01*
X112688255Y-64518992D01*
X112515001Y-64501928D01*
X111689999Y-64501928D01*
X111516745Y-64518992D01*
X111350149Y-64569528D01*
X111196613Y-64651595D01*
X111062038Y-64762038D01*
X110951595Y-64896613D01*
X110869528Y-65050149D01*
X110818992Y-65216745D01*
X110801928Y-65389999D01*
X110801928Y-66334784D01*
X110054312Y-67082401D01*
X109391012Y-67082401D01*
X109435000Y-66861260D01*
X109435000Y-66568740D01*
X109379759Y-66291028D01*
X111902716Y-63768072D01*
X112515001Y-63768072D01*
X112688255Y-63751008D01*
X112854851Y-63700472D01*
X113008387Y-63618405D01*
X113142962Y-63507962D01*
X113253405Y-63373387D01*
X113335472Y-63219851D01*
X113362727Y-63130000D01*
X113926928Y-63130000D01*
X113939188Y-63254482D01*
X113975498Y-63374180D01*
X114034463Y-63484494D01*
X114113815Y-63581185D01*
X114210506Y-63660537D01*
X114320820Y-63719502D01*
X114440518Y-63755812D01*
X114565000Y-63768072D01*
X114941750Y-63765000D01*
X115100500Y-63606250D01*
X115100500Y-62357000D01*
X115354500Y-62357000D01*
X115354500Y-63606250D01*
X115513250Y-63765000D01*
X115890000Y-63768072D01*
X116014482Y-63755812D01*
X116134180Y-63719502D01*
X116244494Y-63660537D01*
X116341185Y-63581185D01*
X116420537Y-63484494D01*
X116479502Y-63374180D01*
X116515812Y-63254482D01*
X116528072Y-63130000D01*
X117151928Y-63130000D01*
X117164188Y-63254482D01*
X117200498Y-63374180D01*
X117259463Y-63484494D01*
X117338815Y-63581185D01*
X117435506Y-63660537D01*
X117545820Y-63719502D01*
X117665518Y-63755812D01*
X117790000Y-63768072D01*
X118166750Y-63765000D01*
X118325500Y-63606250D01*
X118325500Y-62357000D01*
X117313750Y-62357000D01*
X117155000Y-62515750D01*
X117151928Y-63130000D01*
X116528072Y-63130000D01*
X116525000Y-62515750D01*
X116366250Y-62357000D01*
X115354500Y-62357000D01*
X115100500Y-62357000D01*
X114088750Y-62357000D01*
X113930000Y-62515750D01*
X113926928Y-63130000D01*
X113362727Y-63130000D01*
X113386008Y-63053255D01*
X113403072Y-62880001D01*
X113403072Y-61935216D01*
X113667089Y-61671200D01*
X113928634Y-61671200D01*
X113930000Y-61944250D01*
G37*
%TD.AperFunction*%
D22*
X125917414Y-61910889D02*
X126019738Y-62064028D01*
X126149972Y-62194262D01*
X126303111Y-62296586D01*
X126473271Y-62367068D01*
X126653911Y-62403000D01*
X126838089Y-62403000D01*
X127018729Y-62367068D01*
X127188889Y-62296586D01*
X127342028Y-62194262D01*
X127357090Y-62179200D01*
X128661074Y-62179200D01*
X128696000Y-62182640D01*
X128730926Y-62179200D01*
X128730936Y-62179200D01*
X128835420Y-62168909D01*
X128969481Y-62128242D01*
X129093033Y-62062202D01*
X129155179Y-62011200D01*
X129396928Y-62011200D01*
X129396928Y-62150000D01*
X129409188Y-62274482D01*
X129409345Y-62275000D01*
X129409188Y-62275518D01*
X129396928Y-62400000D01*
X129396928Y-62732284D01*
X129086413Y-63042800D01*
X127796928Y-63042800D01*
X127762000Y-63039360D01*
X127727071Y-63042800D01*
X127727064Y-63042800D01*
X127622580Y-63053091D01*
X127488519Y-63093758D01*
X127364967Y-63159798D01*
X127256673Y-63248673D01*
X127234403Y-63275809D01*
X126267810Y-64242403D01*
X126240674Y-64264673D01*
X126218404Y-64291809D01*
X126218403Y-64291810D01*
X126151798Y-64372968D01*
X126108000Y-64454909D01*
X126085759Y-64496519D01*
X126045092Y-64630580D01*
X126041825Y-64663750D01*
X126031360Y-64770000D01*
X126034801Y-64804935D01*
X126034801Y-64858962D01*
X125995537Y-64785506D01*
X125916185Y-64688815D01*
X125819494Y-64609463D01*
X125709180Y-64550498D01*
X125589482Y-64514188D01*
X125465000Y-64501928D01*
X125088250Y-64505000D01*
X124929500Y-64663750D01*
X124929500Y-65913000D01*
X124949500Y-65913000D01*
X124949500Y-66167000D01*
X124929500Y-66167000D01*
X124929500Y-66187000D01*
X124675500Y-66187000D01*
X124675500Y-66167000D01*
X123663750Y-66167000D01*
X123505000Y-66325750D01*
X123504342Y-66457410D01*
X122853072Y-66457410D01*
X122853072Y-65415000D01*
X122836008Y-65241746D01*
X122805144Y-65140000D01*
X123501928Y-65140000D01*
X123505000Y-65754250D01*
X123663750Y-65913000D01*
X124675500Y-65913000D01*
X124675500Y-64663750D01*
X124516750Y-64505000D01*
X124140000Y-64501928D01*
X124015518Y-64514188D01*
X123895820Y-64550498D01*
X123785506Y-64609463D01*
X123688815Y-64688815D01*
X123609463Y-64785506D01*
X123550498Y-64895820D01*
X123514188Y-65015518D01*
X123501928Y-65140000D01*
X122805144Y-65140000D01*
X122785472Y-65075150D01*
X122703405Y-64921614D01*
X122592962Y-64787038D01*
X122458386Y-64676595D01*
X122304850Y-64594528D01*
X122138254Y-64543992D01*
X121965000Y-64526928D01*
X121165000Y-64526928D01*
X121067335Y-64536547D01*
X120054810Y-63524023D01*
X120054810Y-63165000D01*
X120234089Y-63165000D01*
X120322551Y-63147403D01*
X120344528Y-63219851D01*
X120426595Y-63373387D01*
X120537038Y-63507962D01*
X120671613Y-63618405D01*
X120825149Y-63700472D01*
X120991745Y-63751008D01*
X121164999Y-63768072D01*
X121990001Y-63768072D01*
X122163255Y-63751008D01*
X122329851Y-63700472D01*
X122483387Y-63618405D01*
X122510120Y-63596466D01*
X122542661Y-63609945D01*
X122723301Y-63645877D01*
X122907479Y-63645877D01*
X123088119Y-63609945D01*
X123258279Y-63539463D01*
X123411418Y-63437139D01*
X123426480Y-63422077D01*
X124098205Y-63422077D01*
X124110518Y-63425812D01*
X124235000Y-63438072D01*
X125235000Y-63438072D01*
X125359482Y-63425812D01*
X125479180Y-63389502D01*
X125589494Y-63330537D01*
X125686185Y-63251185D01*
X125765537Y-63154494D01*
X125824502Y-63044180D01*
X125860812Y-62924482D01*
X125873072Y-62800000D01*
X125873072Y-62400000D01*
X125860812Y-62275518D01*
X125860655Y-62275000D01*
X125860812Y-62274482D01*
X125873072Y-62150000D01*
X125873072Y-61803837D01*
X125917414Y-61910889D01*
%TA.AperFunction,Conductor*%
D23*
G36*
X125917414Y-61910889D02*
G01*
X126019738Y-62064028D01*
X126149972Y-62194262D01*
X126303111Y-62296586D01*
X126473271Y-62367068D01*
X126653911Y-62403000D01*
X126838089Y-62403000D01*
X127018729Y-62367068D01*
X127188889Y-62296586D01*
X127342028Y-62194262D01*
X127357090Y-62179200D01*
X128661074Y-62179200D01*
X128696000Y-62182640D01*
X128730926Y-62179200D01*
X128730936Y-62179200D01*
X128835420Y-62168909D01*
X128969481Y-62128242D01*
X129093033Y-62062202D01*
X129155179Y-62011200D01*
X129396928Y-62011200D01*
X129396928Y-62150000D01*
X129409188Y-62274482D01*
X129409345Y-62275000D01*
X129409188Y-62275518D01*
X129396928Y-62400000D01*
X129396928Y-62732284D01*
X129086413Y-63042800D01*
X127796928Y-63042800D01*
X127762000Y-63039360D01*
X127727071Y-63042800D01*
X127727064Y-63042800D01*
X127622580Y-63053091D01*
X127488519Y-63093758D01*
X127364967Y-63159798D01*
X127256673Y-63248673D01*
X127234403Y-63275809D01*
X126267810Y-64242403D01*
X126240674Y-64264673D01*
X126218404Y-64291809D01*
X126218403Y-64291810D01*
X126151798Y-64372968D01*
X126108000Y-64454909D01*
X126085759Y-64496519D01*
X126045092Y-64630580D01*
X126041825Y-64663750D01*
X126031360Y-64770000D01*
X126034801Y-64804935D01*
X126034801Y-64858962D01*
X125995537Y-64785506D01*
X125916185Y-64688815D01*
X125819494Y-64609463D01*
X125709180Y-64550498D01*
X125589482Y-64514188D01*
X125465000Y-64501928D01*
X125088250Y-64505000D01*
X124929500Y-64663750D01*
X124929500Y-65913000D01*
X124949500Y-65913000D01*
X124949500Y-66167000D01*
X124929500Y-66167000D01*
X124929500Y-66187000D01*
X124675500Y-66187000D01*
X124675500Y-66167000D01*
X123663750Y-66167000D01*
X123505000Y-66325750D01*
X123504342Y-66457410D01*
X122853072Y-66457410D01*
X122853072Y-65415000D01*
X122836008Y-65241746D01*
X122805144Y-65140000D01*
X123501928Y-65140000D01*
X123505000Y-65754250D01*
X123663750Y-65913000D01*
X124675500Y-65913000D01*
X124675500Y-64663750D01*
X124516750Y-64505000D01*
X124140000Y-64501928D01*
X124015518Y-64514188D01*
X123895820Y-64550498D01*
X123785506Y-64609463D01*
X123688815Y-64688815D01*
X123609463Y-64785506D01*
X123550498Y-64895820D01*
X123514188Y-65015518D01*
X123501928Y-65140000D01*
X122805144Y-65140000D01*
X122785472Y-65075150D01*
X122703405Y-64921614D01*
X122592962Y-64787038D01*
X122458386Y-64676595D01*
X122304850Y-64594528D01*
X122138254Y-64543992D01*
X121965000Y-64526928D01*
X121165000Y-64526928D01*
X121067335Y-64536547D01*
X120054810Y-63524023D01*
X120054810Y-63165000D01*
X120234089Y-63165000D01*
X120322551Y-63147403D01*
X120344528Y-63219851D01*
X120426595Y-63373387D01*
X120537038Y-63507962D01*
X120671613Y-63618405D01*
X120825149Y-63700472D01*
X120991745Y-63751008D01*
X121164999Y-63768072D01*
X121990001Y-63768072D01*
X122163255Y-63751008D01*
X122329851Y-63700472D01*
X122483387Y-63618405D01*
X122510120Y-63596466D01*
X122542661Y-63609945D01*
X122723301Y-63645877D01*
X122907479Y-63645877D01*
X123088119Y-63609945D01*
X123258279Y-63539463D01*
X123411418Y-63437139D01*
X123426480Y-63422077D01*
X124098205Y-63422077D01*
X124110518Y-63425812D01*
X124235000Y-63438072D01*
X125235000Y-63438072D01*
X125359482Y-63425812D01*
X125479180Y-63389502D01*
X125589494Y-63330537D01*
X125686185Y-63251185D01*
X125765537Y-63154494D01*
X125824502Y-63044180D01*
X125860812Y-62924482D01*
X125873072Y-62800000D01*
X125873072Y-62400000D01*
X125860812Y-62275518D01*
X125860655Y-62275000D01*
X125860812Y-62274482D01*
X125873072Y-62150000D01*
X125873072Y-61803837D01*
X125917414Y-61910889D01*
G37*
%TD.AperFunction*%
D22*
X138766928Y-58137715D02*
X138766928Y-58702285D01*
X138681810Y-58787403D01*
X138654674Y-58809673D01*
X138632404Y-58836809D01*
X138632403Y-58836810D01*
X138565798Y-58917968D01*
X138514360Y-59014202D01*
X138499759Y-59041519D01*
X138459092Y-59175580D01*
X138451088Y-59256842D01*
X138445360Y-59315000D01*
X138448801Y-59349936D01*
X138448800Y-61621928D01*
X138085000Y-61621928D01*
X137960518Y-61634188D01*
X137960000Y-61634345D01*
X137959482Y-61634188D01*
X137835000Y-61621928D01*
X137285000Y-61621928D01*
X137160518Y-61634188D01*
X137159380Y-61634533D01*
X137045750Y-61625000D01*
X136953667Y-61717083D01*
X136930506Y-61729463D01*
X136833815Y-61808815D01*
X136760000Y-61898759D01*
X136686185Y-61808815D01*
X136589494Y-61729463D01*
X136566333Y-61717083D01*
X136474250Y-61625000D01*
X136360620Y-61634533D01*
X136359482Y-61634188D01*
X136235000Y-61621928D01*
X135685000Y-61621928D01*
X135560518Y-61634188D01*
X135560000Y-61634345D01*
X135559482Y-61634188D01*
X135435000Y-61621928D01*
X134885000Y-61621928D01*
X134760518Y-61634188D01*
X134760000Y-61634345D01*
X134759482Y-61634188D01*
X134635000Y-61621928D01*
X134621359Y-61621928D01*
X136295955Y-59947332D01*
X136404999Y-59958072D01*
X137230001Y-59958072D01*
X137403255Y-59941008D01*
X137569851Y-59890472D01*
X137723387Y-59808405D01*
X137857962Y-59697962D01*
X137968405Y-59563387D01*
X138050472Y-59409851D01*
X138101008Y-59243255D01*
X138118072Y-59070001D01*
X138118072Y-57964490D01*
X138593703Y-57964490D01*
X138766928Y-58137715D01*
%TA.AperFunction,Conductor*%
D23*
G36*
X138766928Y-58137715D02*
G01*
X138766928Y-58702285D01*
X138681810Y-58787403D01*
X138654674Y-58809673D01*
X138632404Y-58836809D01*
X138632403Y-58836810D01*
X138565798Y-58917968D01*
X138514360Y-59014202D01*
X138499759Y-59041519D01*
X138459092Y-59175580D01*
X138451088Y-59256842D01*
X138445360Y-59315000D01*
X138448801Y-59349936D01*
X138448800Y-61621928D01*
X138085000Y-61621928D01*
X137960518Y-61634188D01*
X137960000Y-61634345D01*
X137959482Y-61634188D01*
X137835000Y-61621928D01*
X137285000Y-61621928D01*
X137160518Y-61634188D01*
X137159380Y-61634533D01*
X137045750Y-61625000D01*
X136953667Y-61717083D01*
X136930506Y-61729463D01*
X136833815Y-61808815D01*
X136760000Y-61898759D01*
X136686185Y-61808815D01*
X136589494Y-61729463D01*
X136566333Y-61717083D01*
X136474250Y-61625000D01*
X136360620Y-61634533D01*
X136359482Y-61634188D01*
X136235000Y-61621928D01*
X135685000Y-61621928D01*
X135560518Y-61634188D01*
X135560000Y-61634345D01*
X135559482Y-61634188D01*
X135435000Y-61621928D01*
X134885000Y-61621928D01*
X134760518Y-61634188D01*
X134760000Y-61634345D01*
X134759482Y-61634188D01*
X134635000Y-61621928D01*
X134621359Y-61621928D01*
X136295955Y-59947332D01*
X136404999Y-59958072D01*
X137230001Y-59958072D01*
X137403255Y-59941008D01*
X137569851Y-59890472D01*
X137723387Y-59808405D01*
X137857962Y-59697962D01*
X137968405Y-59563387D01*
X138050472Y-59409851D01*
X138101008Y-59243255D01*
X138118072Y-59070001D01*
X138118072Y-57964490D01*
X138593703Y-57964490D01*
X138766928Y-58137715D01*
G37*
%TD.AperFunction*%
D22*
X132395000Y-58134250D02*
X132553750Y-58293000D01*
X133565500Y-58293000D01*
X133565500Y-58273000D01*
X133819500Y-58273000D01*
X133819500Y-58293000D01*
X134831250Y-58293000D01*
X134990000Y-58134250D01*
X134990849Y-57964490D01*
X135516928Y-57964490D01*
X135516928Y-58714784D01*
X134992667Y-59239045D01*
X134990000Y-58705750D01*
X134831250Y-58547000D01*
X133819500Y-58547000D01*
X133819500Y-59796250D01*
X133978250Y-59955000D01*
X134274299Y-59957414D01*
X133642913Y-60588800D01*
X131673072Y-60588800D01*
X131673072Y-60450000D01*
X131660812Y-60325518D01*
X131659866Y-60322398D01*
X131670000Y-60231750D01*
X131602032Y-60163782D01*
X131565537Y-60095506D01*
X131487158Y-60000000D01*
X131565537Y-59904494D01*
X131602032Y-59836218D01*
X131670000Y-59768250D01*
X131659866Y-59677602D01*
X131660812Y-59674482D01*
X131673072Y-59550000D01*
X131673072Y-59320000D01*
X132391928Y-59320000D01*
X132404188Y-59444482D01*
X132440498Y-59564180D01*
X132499463Y-59674494D01*
X132578815Y-59771185D01*
X132675506Y-59850537D01*
X132785820Y-59909502D01*
X132905518Y-59945812D01*
X133030000Y-59958072D01*
X133406750Y-59955000D01*
X133565500Y-59796250D01*
X133565500Y-58547000D01*
X132553750Y-58547000D01*
X132395000Y-58705750D01*
X132391928Y-59320000D01*
X131673072Y-59320000D01*
X131673072Y-59150000D01*
X131660812Y-59025518D01*
X131660655Y-59025000D01*
X131660812Y-59024482D01*
X131673072Y-58900000D01*
X131673072Y-58500000D01*
X131660812Y-58375518D01*
X131660655Y-58375000D01*
X131660812Y-58374482D01*
X131673072Y-58250000D01*
X131673072Y-57964490D01*
X132394151Y-57964490D01*
X132395000Y-58134250D01*
%TA.AperFunction,Conductor*%
D23*
G36*
X132395000Y-58134250D02*
G01*
X132553750Y-58293000D01*
X133565500Y-58293000D01*
X133565500Y-58273000D01*
X133819500Y-58273000D01*
X133819500Y-58293000D01*
X134831250Y-58293000D01*
X134990000Y-58134250D01*
X134990849Y-57964490D01*
X135516928Y-57964490D01*
X135516928Y-58714784D01*
X134992667Y-59239045D01*
X134990000Y-58705750D01*
X134831250Y-58547000D01*
X133819500Y-58547000D01*
X133819500Y-59796250D01*
X133978250Y-59955000D01*
X134274299Y-59957414D01*
X133642913Y-60588800D01*
X131673072Y-60588800D01*
X131673072Y-60450000D01*
X131660812Y-60325518D01*
X131659866Y-60322398D01*
X131670000Y-60231750D01*
X131602032Y-60163782D01*
X131565537Y-60095506D01*
X131487158Y-60000000D01*
X131565537Y-59904494D01*
X131602032Y-59836218D01*
X131670000Y-59768250D01*
X131659866Y-59677602D01*
X131660812Y-59674482D01*
X131673072Y-59550000D01*
X131673072Y-59320000D01*
X132391928Y-59320000D01*
X132404188Y-59444482D01*
X132440498Y-59564180D01*
X132499463Y-59674494D01*
X132578815Y-59771185D01*
X132675506Y-59850537D01*
X132785820Y-59909502D01*
X132905518Y-59945812D01*
X133030000Y-59958072D01*
X133406750Y-59955000D01*
X133565500Y-59796250D01*
X133565500Y-58547000D01*
X132553750Y-58547000D01*
X132395000Y-58705750D01*
X132391928Y-59320000D01*
X131673072Y-59320000D01*
X131673072Y-59150000D01*
X131660812Y-59025518D01*
X131660655Y-59025000D01*
X131660812Y-59024482D01*
X131673072Y-58900000D01*
X131673072Y-58500000D01*
X131660812Y-58375518D01*
X131660655Y-58375000D01*
X131660812Y-58374482D01*
X131673072Y-58250000D01*
X131673072Y-57964490D01*
X132394151Y-57964490D01*
X132395000Y-58134250D01*
G37*
%TD.AperFunction*%
%TD*%
M02*
