%TF.GenerationSoftware,KiCad,Pcbnew,(5.1.10-0-10_14)*%
%TF.CreationDate,2021-11-02T10:24:53+01:00*%
%TF.ProjectId,UPDI_programmer,55504449-5f70-4726-9f67-72616d6d6572,rev?*%
%TF.SameCoordinates,Original*%
%TF.FileFunction,Legend,Top*%
%TF.FilePolarity,Positive*%
%FSLAX46Y46*%
G04 Gerber Fmt 4.6, Leading zero omitted, Abs format (unit mm)*
G04 Created by KiCad (PCBNEW (5.1.10-0-10_14)) date 2021-11-02 10:24:53*
%MOMM*%
%LPD*%
G01*
G04 APERTURE LIST*
%ADD10C,0.120000*%
%ADD11C,0.150000*%
%ADD12C,0.010000*%
G04 APERTURE END LIST*
D10*
X124841000Y-57150000D02*
G75*
G03*
X124841000Y-57150000I-127000J0D01*
G01*
X133350000Y-71628000D02*
G75*
G03*
X133350000Y-71628000I-127000J0D01*
G01*
D11*
X125603095Y-71207380D02*
X126174523Y-71207380D01*
X125888809Y-72207380D02*
X125888809Y-71207380D01*
X126412619Y-71207380D02*
X127079285Y-72207380D01*
X127079285Y-71207380D02*
X126412619Y-72207380D01*
X119848333Y-72207380D02*
X119515000Y-71731190D01*
X119276904Y-72207380D02*
X119276904Y-71207380D01*
X119657857Y-71207380D01*
X119753095Y-71255000D01*
X119800714Y-71302619D01*
X119848333Y-71397857D01*
X119848333Y-71540714D01*
X119800714Y-71635952D01*
X119753095Y-71683571D01*
X119657857Y-71731190D01*
X119276904Y-71731190D01*
X120181666Y-71207380D02*
X120848333Y-72207380D01*
X120848333Y-71207380D02*
X120181666Y-72207380D01*
X105981666Y-56967380D02*
X105981666Y-55967380D01*
X106362619Y-55967380D01*
X106457857Y-56015000D01*
X106505476Y-56062619D01*
X106553095Y-56157857D01*
X106553095Y-56300714D01*
X106505476Y-56395952D01*
X106457857Y-56443571D01*
X106362619Y-56491190D01*
X105981666Y-56491190D01*
X106886428Y-55967380D02*
X107124523Y-56967380D01*
X107315000Y-56253095D01*
X107505476Y-56967380D01*
X107743571Y-55967380D01*
X108695952Y-56967380D02*
X108362619Y-56491190D01*
X108124523Y-56967380D02*
X108124523Y-55967380D01*
X108505476Y-55967380D01*
X108600714Y-56015000D01*
X108648333Y-56062619D01*
X108695952Y-56157857D01*
X108695952Y-56300714D01*
X108648333Y-56395952D01*
X108600714Y-56443571D01*
X108505476Y-56491190D01*
X108124523Y-56491190D01*
X163330000Y-75691904D02*
X163282380Y-75787142D01*
X163282380Y-75930000D01*
X163330000Y-76072857D01*
X163425238Y-76168095D01*
X163520476Y-76215714D01*
X163710952Y-76263333D01*
X163853809Y-76263333D01*
X164044285Y-76215714D01*
X164139523Y-76168095D01*
X164234761Y-76072857D01*
X164282380Y-75930000D01*
X164282380Y-75834761D01*
X164234761Y-75691904D01*
X164187142Y-75644285D01*
X163853809Y-75644285D01*
X163853809Y-75834761D01*
X164282380Y-75215714D02*
X163282380Y-75215714D01*
X164282380Y-74644285D01*
X163282380Y-74644285D01*
X164282380Y-74168095D02*
X163282380Y-74168095D01*
X163282380Y-73930000D01*
X163330000Y-73787142D01*
X163425238Y-73691904D01*
X163520476Y-73644285D01*
X163710952Y-73596666D01*
X163853809Y-73596666D01*
X164044285Y-73644285D01*
X164139523Y-73691904D01*
X164234761Y-73787142D01*
X164282380Y-73930000D01*
X164282380Y-74168095D01*
X163282380Y-71183333D02*
X164282380Y-70850000D01*
X163282380Y-70516666D01*
X164187142Y-69611904D02*
X164234761Y-69659523D01*
X164282380Y-69802380D01*
X164282380Y-69897619D01*
X164234761Y-70040476D01*
X164139523Y-70135714D01*
X164044285Y-70183333D01*
X163853809Y-70230952D01*
X163710952Y-70230952D01*
X163520476Y-70183333D01*
X163425238Y-70135714D01*
X163330000Y-70040476D01*
X163282380Y-69897619D01*
X163282380Y-69802380D01*
X163330000Y-69659523D01*
X163377619Y-69611904D01*
X164187142Y-68611904D02*
X164234761Y-68659523D01*
X164282380Y-68802380D01*
X164282380Y-68897619D01*
X164234761Y-69040476D01*
X164139523Y-69135714D01*
X164044285Y-69183333D01*
X163853809Y-69230952D01*
X163710952Y-69230952D01*
X163520476Y-69183333D01*
X163425238Y-69135714D01*
X163330000Y-69040476D01*
X163282380Y-68897619D01*
X163282380Y-68802380D01*
X163330000Y-68659523D01*
X163377619Y-68611904D01*
X150582380Y-71373809D02*
X151391904Y-71373809D01*
X151487142Y-71326190D01*
X151534761Y-71278571D01*
X151582380Y-71183333D01*
X151582380Y-70992857D01*
X151534761Y-70897619D01*
X151487142Y-70850000D01*
X151391904Y-70802380D01*
X150582380Y-70802380D01*
X151582380Y-70326190D02*
X150582380Y-70326190D01*
X150582380Y-69945238D01*
X150630000Y-69850000D01*
X150677619Y-69802380D01*
X150772857Y-69754761D01*
X150915714Y-69754761D01*
X151010952Y-69802380D01*
X151058571Y-69850000D01*
X151106190Y-69945238D01*
X151106190Y-70326190D01*
X151582380Y-69326190D02*
X150582380Y-69326190D01*
X150582380Y-69088095D01*
X150630000Y-68945238D01*
X150725238Y-68850000D01*
X150820476Y-68802380D01*
X151010952Y-68754761D01*
X151153809Y-68754761D01*
X151344285Y-68802380D01*
X151439523Y-68850000D01*
X151534761Y-68945238D01*
X151582380Y-69088095D01*
X151582380Y-69326190D01*
X151582380Y-68326190D02*
X150582380Y-68326190D01*
X145000357Y-61315000D02*
X146000357Y-61315000D01*
X145809880Y-62682380D02*
X145476547Y-62206190D01*
X145238452Y-62682380D02*
X145238452Y-61682380D01*
X145619404Y-61682380D01*
X145714642Y-61730000D01*
X145762261Y-61777619D01*
X145809880Y-61872857D01*
X145809880Y-62015714D01*
X145762261Y-62110952D01*
X145714642Y-62158571D01*
X145619404Y-62206190D01*
X145238452Y-62206190D01*
X146000357Y-61315000D02*
X146905119Y-61315000D01*
X146238452Y-62158571D02*
X146571785Y-62158571D01*
X146714642Y-62682380D02*
X146238452Y-62682380D01*
X146238452Y-61682380D01*
X146714642Y-61682380D01*
X146905119Y-61315000D02*
X147857500Y-61315000D01*
X147095595Y-62634761D02*
X147238452Y-62682380D01*
X147476547Y-62682380D01*
X147571785Y-62634761D01*
X147619404Y-62587142D01*
X147667023Y-62491904D01*
X147667023Y-62396666D01*
X147619404Y-62301428D01*
X147571785Y-62253809D01*
X147476547Y-62206190D01*
X147286071Y-62158571D01*
X147190833Y-62110952D01*
X147143214Y-62063333D01*
X147095595Y-61968095D01*
X147095595Y-61872857D01*
X147143214Y-61777619D01*
X147190833Y-61730000D01*
X147286071Y-61682380D01*
X147524166Y-61682380D01*
X147667023Y-61730000D01*
X145095595Y-60094761D02*
X145238452Y-60142380D01*
X145476547Y-60142380D01*
X145571785Y-60094761D01*
X145619404Y-60047142D01*
X145667023Y-59951904D01*
X145667023Y-59856666D01*
X145619404Y-59761428D01*
X145571785Y-59713809D01*
X145476547Y-59666190D01*
X145286071Y-59618571D01*
X145190833Y-59570952D01*
X145143214Y-59523333D01*
X145095595Y-59428095D01*
X145095595Y-59332857D01*
X145143214Y-59237619D01*
X145190833Y-59190000D01*
X145286071Y-59142380D01*
X145524166Y-59142380D01*
X145667023Y-59190000D01*
X146667023Y-60047142D02*
X146619404Y-60094761D01*
X146476547Y-60142380D01*
X146381309Y-60142380D01*
X146238452Y-60094761D01*
X146143214Y-59999523D01*
X146095595Y-59904285D01*
X146047976Y-59713809D01*
X146047976Y-59570952D01*
X146095595Y-59380476D01*
X146143214Y-59285238D01*
X146238452Y-59190000D01*
X146381309Y-59142380D01*
X146476547Y-59142380D01*
X146619404Y-59190000D01*
X146667023Y-59237619D01*
X147095595Y-60142380D02*
X147095595Y-59142380D01*
X147667023Y-60142380D02*
X147238452Y-59570952D01*
X147667023Y-59142380D02*
X147095595Y-59713809D01*
X144476547Y-57602380D02*
X144476547Y-56602380D01*
X144809880Y-57316666D01*
X145143214Y-56602380D01*
X145143214Y-57602380D01*
X145619404Y-57602380D02*
X145619404Y-56602380D01*
X146047976Y-57554761D02*
X146190833Y-57602380D01*
X146428928Y-57602380D01*
X146524166Y-57554761D01*
X146571785Y-57507142D01*
X146619404Y-57411904D01*
X146619404Y-57316666D01*
X146571785Y-57221428D01*
X146524166Y-57173809D01*
X146428928Y-57126190D01*
X146238452Y-57078571D01*
X146143214Y-57030952D01*
X146095595Y-56983333D01*
X146047976Y-56888095D01*
X146047976Y-56792857D01*
X146095595Y-56697619D01*
X146143214Y-56650000D01*
X146238452Y-56602380D01*
X146476547Y-56602380D01*
X146619404Y-56650000D01*
X147238452Y-56602380D02*
X147428928Y-56602380D01*
X147524166Y-56650000D01*
X147619404Y-56745238D01*
X147667023Y-56935714D01*
X147667023Y-57269047D01*
X147619404Y-57459523D01*
X147524166Y-57554761D01*
X147428928Y-57602380D01*
X147238452Y-57602380D01*
X147143214Y-57554761D01*
X147047976Y-57459523D01*
X147000357Y-57269047D01*
X147000357Y-56935714D01*
X147047976Y-56745238D01*
X147143214Y-56650000D01*
X147238452Y-56602380D01*
X155164404Y-61730000D02*
X155069166Y-61682380D01*
X154926309Y-61682380D01*
X154783452Y-61730000D01*
X154688214Y-61825238D01*
X154640595Y-61920476D01*
X154592976Y-62110952D01*
X154592976Y-62253809D01*
X154640595Y-62444285D01*
X154688214Y-62539523D01*
X154783452Y-62634761D01*
X154926309Y-62682380D01*
X155021547Y-62682380D01*
X155164404Y-62634761D01*
X155212023Y-62587142D01*
X155212023Y-62253809D01*
X155021547Y-62253809D01*
X155640595Y-62682380D02*
X155640595Y-61682380D01*
X156212023Y-62682380D01*
X156212023Y-61682380D01*
X156688214Y-62682380D02*
X156688214Y-61682380D01*
X156926309Y-61682380D01*
X157069166Y-61730000D01*
X157164404Y-61825238D01*
X157212023Y-61920476D01*
X157259642Y-62110952D01*
X157259642Y-62253809D01*
X157212023Y-62444285D01*
X157164404Y-62539523D01*
X157069166Y-62634761D01*
X156926309Y-62682380D01*
X156688214Y-62682380D01*
X154640595Y-60142380D02*
X154640595Y-59142380D01*
X154973928Y-59856666D01*
X155307261Y-59142380D01*
X155307261Y-60142380D01*
X155973928Y-59142380D02*
X156164404Y-59142380D01*
X156259642Y-59190000D01*
X156354880Y-59285238D01*
X156402500Y-59475714D01*
X156402500Y-59809047D01*
X156354880Y-59999523D01*
X156259642Y-60094761D01*
X156164404Y-60142380D01*
X155973928Y-60142380D01*
X155878690Y-60094761D01*
X155783452Y-59999523D01*
X155735833Y-59809047D01*
X155735833Y-59475714D01*
X155783452Y-59285238D01*
X155878690Y-59190000D01*
X155973928Y-59142380D01*
X156783452Y-60094761D02*
X156926309Y-60142380D01*
X157164404Y-60142380D01*
X157259642Y-60094761D01*
X157307261Y-60047142D01*
X157354880Y-59951904D01*
X157354880Y-59856666D01*
X157307261Y-59761428D01*
X157259642Y-59713809D01*
X157164404Y-59666190D01*
X156973928Y-59618571D01*
X156878690Y-59570952D01*
X156831071Y-59523333D01*
X156783452Y-59428095D01*
X156783452Y-59332857D01*
X156831071Y-59237619D01*
X156878690Y-59190000D01*
X156973928Y-59142380D01*
X157212023Y-59142380D01*
X157354880Y-59190000D01*
X157783452Y-60142380D02*
X157783452Y-59142380D01*
X154497738Y-56602380D02*
X154831071Y-57602380D01*
X155164404Y-56602380D01*
X156069166Y-57507142D02*
X156021547Y-57554761D01*
X155878690Y-57602380D01*
X155783452Y-57602380D01*
X155640595Y-57554761D01*
X155545357Y-57459523D01*
X155497738Y-57364285D01*
X155450119Y-57173809D01*
X155450119Y-57030952D01*
X155497738Y-56840476D01*
X155545357Y-56745238D01*
X155640595Y-56650000D01*
X155783452Y-56602380D01*
X155878690Y-56602380D01*
X156021547Y-56650000D01*
X156069166Y-56697619D01*
X157069166Y-57507142D02*
X157021547Y-57554761D01*
X156878690Y-57602380D01*
X156783452Y-57602380D01*
X156640595Y-57554761D01*
X156545357Y-57459523D01*
X156497738Y-57364285D01*
X156450119Y-57173809D01*
X156450119Y-57030952D01*
X156497738Y-56840476D01*
X156545357Y-56745238D01*
X156640595Y-56650000D01*
X156783452Y-56602380D01*
X156878690Y-56602380D01*
X157021547Y-56650000D01*
X157069166Y-56697619D01*
D10*
%TO.C,J3*%
X110270000Y-68715000D02*
X109770000Y-69215000D01*
X110270000Y-69715000D02*
X110270000Y-68715000D01*
X109770000Y-69215000D02*
X110270000Y-69715000D01*
X92830000Y-61805000D02*
X101190000Y-61805000D01*
X92830000Y-74125000D02*
X92830000Y-61805000D01*
X101190000Y-74125000D02*
X92830000Y-74125000D01*
X109550000Y-61805000D02*
X105290000Y-61805000D01*
X109550000Y-74125000D02*
X109550000Y-61805000D01*
X105290000Y-74125000D02*
X109550000Y-74125000D01*
D12*
%TO.C,REF\u002A\u002A*%
G36*
X159524744Y-61609918D02*
G01*
X159580201Y-61637568D01*
X159629148Y-61688480D01*
X159642629Y-61707338D01*
X159657314Y-61732015D01*
X159666842Y-61758816D01*
X159672293Y-61794587D01*
X159674747Y-61846169D01*
X159675286Y-61914267D01*
X159672852Y-62007588D01*
X159664394Y-62077657D01*
X159648174Y-62129931D01*
X159622454Y-62169869D01*
X159585497Y-62202929D01*
X159582782Y-62204886D01*
X159546360Y-62224908D01*
X159502502Y-62234815D01*
X159446724Y-62237257D01*
X159356048Y-62237257D01*
X159356010Y-62325283D01*
X159355166Y-62374308D01*
X159350024Y-62403065D01*
X159336587Y-62420311D01*
X159310858Y-62434808D01*
X159304679Y-62437769D01*
X159275764Y-62451648D01*
X159253376Y-62460414D01*
X159236729Y-62461171D01*
X159225036Y-62451023D01*
X159217510Y-62427073D01*
X159213366Y-62386426D01*
X159211815Y-62326186D01*
X159212071Y-62243455D01*
X159213349Y-62135339D01*
X159213748Y-62103000D01*
X159215185Y-61991524D01*
X159216472Y-61918603D01*
X159355971Y-61918603D01*
X159356755Y-61980499D01*
X159360240Y-62020997D01*
X159368124Y-62047708D01*
X159382105Y-62068244D01*
X159391597Y-62078260D01*
X159430404Y-62107567D01*
X159464763Y-62109952D01*
X159500216Y-62085750D01*
X159501114Y-62084857D01*
X159515539Y-62066153D01*
X159524313Y-62040732D01*
X159528739Y-62001584D01*
X159530118Y-61941697D01*
X159530143Y-61928430D01*
X159526812Y-61845901D01*
X159515969Y-61788691D01*
X159496340Y-61753766D01*
X159466650Y-61738094D01*
X159449491Y-61736514D01*
X159408766Y-61743926D01*
X159380832Y-61768330D01*
X159364017Y-61812980D01*
X159356650Y-61881130D01*
X159355971Y-61918603D01*
X159216472Y-61918603D01*
X159216708Y-61905245D01*
X159218677Y-61840333D01*
X159221450Y-61792958D01*
X159225388Y-61759290D01*
X159230849Y-61735498D01*
X159238192Y-61717753D01*
X159247777Y-61702224D01*
X159251887Y-61696381D01*
X159306405Y-61641185D01*
X159375336Y-61609890D01*
X159455072Y-61601165D01*
X159524744Y-61609918D01*
G37*
X159524744Y-61609918D02*
X159580201Y-61637568D01*
X159629148Y-61688480D01*
X159642629Y-61707338D01*
X159657314Y-61732015D01*
X159666842Y-61758816D01*
X159672293Y-61794587D01*
X159674747Y-61846169D01*
X159675286Y-61914267D01*
X159672852Y-62007588D01*
X159664394Y-62077657D01*
X159648174Y-62129931D01*
X159622454Y-62169869D01*
X159585497Y-62202929D01*
X159582782Y-62204886D01*
X159546360Y-62224908D01*
X159502502Y-62234815D01*
X159446724Y-62237257D01*
X159356048Y-62237257D01*
X159356010Y-62325283D01*
X159355166Y-62374308D01*
X159350024Y-62403065D01*
X159336587Y-62420311D01*
X159310858Y-62434808D01*
X159304679Y-62437769D01*
X159275764Y-62451648D01*
X159253376Y-62460414D01*
X159236729Y-62461171D01*
X159225036Y-62451023D01*
X159217510Y-62427073D01*
X159213366Y-62386426D01*
X159211815Y-62326186D01*
X159212071Y-62243455D01*
X159213349Y-62135339D01*
X159213748Y-62103000D01*
X159215185Y-61991524D01*
X159216472Y-61918603D01*
X159355971Y-61918603D01*
X159356755Y-61980499D01*
X159360240Y-62020997D01*
X159368124Y-62047708D01*
X159382105Y-62068244D01*
X159391597Y-62078260D01*
X159430404Y-62107567D01*
X159464763Y-62109952D01*
X159500216Y-62085750D01*
X159501114Y-62084857D01*
X159515539Y-62066153D01*
X159524313Y-62040732D01*
X159528739Y-62001584D01*
X159530118Y-61941697D01*
X159530143Y-61928430D01*
X159526812Y-61845901D01*
X159515969Y-61788691D01*
X159496340Y-61753766D01*
X159466650Y-61738094D01*
X159449491Y-61736514D01*
X159408766Y-61743926D01*
X159380832Y-61768330D01*
X159364017Y-61812980D01*
X159356650Y-61881130D01*
X159355971Y-61918603D01*
X159216472Y-61918603D01*
X159216708Y-61905245D01*
X159218677Y-61840333D01*
X159221450Y-61792958D01*
X159225388Y-61759290D01*
X159230849Y-61735498D01*
X159238192Y-61717753D01*
X159247777Y-61702224D01*
X159251887Y-61696381D01*
X159306405Y-61641185D01*
X159375336Y-61609890D01*
X159455072Y-61601165D01*
X159524744Y-61609918D01*
G36*
X160641093Y-61617780D02*
G01*
X160687672Y-61644723D01*
X160720057Y-61671466D01*
X160743742Y-61699484D01*
X160760059Y-61733748D01*
X160770339Y-61779227D01*
X160775914Y-61840892D01*
X160778116Y-61923711D01*
X160778371Y-61983246D01*
X160778371Y-62202391D01*
X160716686Y-62230044D01*
X160655000Y-62257697D01*
X160647743Y-62017670D01*
X160644744Y-61928028D01*
X160641598Y-61862962D01*
X160637701Y-61818026D01*
X160632447Y-61788770D01*
X160625231Y-61770748D01*
X160615450Y-61759511D01*
X160612312Y-61757079D01*
X160564761Y-61738083D01*
X160516697Y-61745600D01*
X160488086Y-61765543D01*
X160476447Y-61779675D01*
X160468391Y-61798220D01*
X160463271Y-61826334D01*
X160460441Y-61869173D01*
X160459256Y-61931895D01*
X160459057Y-61997261D01*
X160459018Y-62079268D01*
X160457614Y-62137316D01*
X160452914Y-62176465D01*
X160442987Y-62201780D01*
X160425903Y-62218323D01*
X160399732Y-62231156D01*
X160364775Y-62244491D01*
X160326596Y-62259007D01*
X160331141Y-62001389D01*
X160332971Y-61908519D01*
X160335112Y-61839889D01*
X160338181Y-61790711D01*
X160342794Y-61756198D01*
X160349568Y-61731562D01*
X160359119Y-61712016D01*
X160370634Y-61694770D01*
X160426190Y-61639680D01*
X160493980Y-61607822D01*
X160567713Y-61600191D01*
X160641093Y-61617780D01*
G37*
X160641093Y-61617780D02*
X160687672Y-61644723D01*
X160720057Y-61671466D01*
X160743742Y-61699484D01*
X160760059Y-61733748D01*
X160770339Y-61779227D01*
X160775914Y-61840892D01*
X160778116Y-61923711D01*
X160778371Y-61983246D01*
X160778371Y-62202391D01*
X160716686Y-62230044D01*
X160655000Y-62257697D01*
X160647743Y-62017670D01*
X160644744Y-61928028D01*
X160641598Y-61862962D01*
X160637701Y-61818026D01*
X160632447Y-61788770D01*
X160625231Y-61770748D01*
X160615450Y-61759511D01*
X160612312Y-61757079D01*
X160564761Y-61738083D01*
X160516697Y-61745600D01*
X160488086Y-61765543D01*
X160476447Y-61779675D01*
X160468391Y-61798220D01*
X160463271Y-61826334D01*
X160460441Y-61869173D01*
X160459256Y-61931895D01*
X160459057Y-61997261D01*
X160459018Y-62079268D01*
X160457614Y-62137316D01*
X160452914Y-62176465D01*
X160442987Y-62201780D01*
X160425903Y-62218323D01*
X160399732Y-62231156D01*
X160364775Y-62244491D01*
X160326596Y-62259007D01*
X160331141Y-62001389D01*
X160332971Y-61908519D01*
X160335112Y-61839889D01*
X160338181Y-61790711D01*
X160342794Y-61756198D01*
X160349568Y-61731562D01*
X160359119Y-61712016D01*
X160370634Y-61694770D01*
X160426190Y-61639680D01*
X160493980Y-61607822D01*
X160567713Y-61600191D01*
X160641093Y-61617780D01*
G36*
X158966115Y-61611962D02*
G01*
X159034145Y-61647733D01*
X159084351Y-61705301D01*
X159102185Y-61742312D01*
X159116063Y-61797882D01*
X159123167Y-61868096D01*
X159123840Y-61944727D01*
X159118427Y-62019552D01*
X159107270Y-62084342D01*
X159090714Y-62130873D01*
X159085626Y-62138887D01*
X159025355Y-62198707D01*
X158953769Y-62234535D01*
X158876092Y-62245020D01*
X158797548Y-62228810D01*
X158775689Y-62219092D01*
X158733122Y-62189143D01*
X158695763Y-62149433D01*
X158692232Y-62144397D01*
X158677881Y-62120124D01*
X158668394Y-62094178D01*
X158662790Y-62060022D01*
X158660086Y-62011119D01*
X158659299Y-61940935D01*
X158659286Y-61925200D01*
X158659322Y-61920192D01*
X158804429Y-61920192D01*
X158805273Y-61986430D01*
X158808596Y-62030386D01*
X158815583Y-62058779D01*
X158827416Y-62078325D01*
X158833457Y-62084857D01*
X158868186Y-62109680D01*
X158901903Y-62108548D01*
X158935995Y-62087016D01*
X158956329Y-62064029D01*
X158968371Y-62030478D01*
X158975134Y-61977569D01*
X158975598Y-61971399D01*
X158976752Y-61875513D01*
X158964688Y-61804299D01*
X158939570Y-61758194D01*
X158901560Y-61737635D01*
X158887992Y-61736514D01*
X158852364Y-61742152D01*
X158827994Y-61761686D01*
X158813093Y-61799042D01*
X158805875Y-61858150D01*
X158804429Y-61920192D01*
X158659322Y-61920192D01*
X158659826Y-61850413D01*
X158662096Y-61798159D01*
X158667068Y-61761949D01*
X158675713Y-61735299D01*
X158689005Y-61711722D01*
X158691943Y-61707338D01*
X158741313Y-61648249D01*
X158795109Y-61613947D01*
X158860602Y-61600331D01*
X158882842Y-61599665D01*
X158966115Y-61611962D01*
G37*
X158966115Y-61611962D02*
X159034145Y-61647733D01*
X159084351Y-61705301D01*
X159102185Y-61742312D01*
X159116063Y-61797882D01*
X159123167Y-61868096D01*
X159123840Y-61944727D01*
X159118427Y-62019552D01*
X159107270Y-62084342D01*
X159090714Y-62130873D01*
X159085626Y-62138887D01*
X159025355Y-62198707D01*
X158953769Y-62234535D01*
X158876092Y-62245020D01*
X158797548Y-62228810D01*
X158775689Y-62219092D01*
X158733122Y-62189143D01*
X158695763Y-62149433D01*
X158692232Y-62144397D01*
X158677881Y-62120124D01*
X158668394Y-62094178D01*
X158662790Y-62060022D01*
X158660086Y-62011119D01*
X158659299Y-61940935D01*
X158659286Y-61925200D01*
X158659322Y-61920192D01*
X158804429Y-61920192D01*
X158805273Y-61986430D01*
X158808596Y-62030386D01*
X158815583Y-62058779D01*
X158827416Y-62078325D01*
X158833457Y-62084857D01*
X158868186Y-62109680D01*
X158901903Y-62108548D01*
X158935995Y-62087016D01*
X158956329Y-62064029D01*
X158968371Y-62030478D01*
X158975134Y-61977569D01*
X158975598Y-61971399D01*
X158976752Y-61875513D01*
X158964688Y-61804299D01*
X158939570Y-61758194D01*
X158901560Y-61737635D01*
X158887992Y-61736514D01*
X158852364Y-61742152D01*
X158827994Y-61761686D01*
X158813093Y-61799042D01*
X158805875Y-61858150D01*
X158804429Y-61920192D01*
X158659322Y-61920192D01*
X158659826Y-61850413D01*
X158662096Y-61798159D01*
X158667068Y-61761949D01*
X158675713Y-61735299D01*
X158689005Y-61711722D01*
X158691943Y-61707338D01*
X158741313Y-61648249D01*
X158795109Y-61613947D01*
X158860602Y-61600331D01*
X158882842Y-61599665D01*
X158966115Y-61611962D01*
G36*
X160093303Y-61621239D02*
G01*
X160150527Y-61659735D01*
X160194749Y-61715335D01*
X160221167Y-61786086D01*
X160226510Y-61838162D01*
X160225903Y-61859893D01*
X160220822Y-61876531D01*
X160206855Y-61891437D01*
X160179589Y-61907973D01*
X160134612Y-61929498D01*
X160067511Y-61959374D01*
X160067171Y-61959524D01*
X160005407Y-61987813D01*
X159954759Y-62012933D01*
X159920404Y-62032179D01*
X159907518Y-62042848D01*
X159907514Y-62042934D01*
X159918872Y-62066166D01*
X159945431Y-62091774D01*
X159975923Y-62110221D01*
X159991370Y-62113886D01*
X160033515Y-62101212D01*
X160069808Y-62069471D01*
X160087517Y-62034572D01*
X160104552Y-62008845D01*
X160137922Y-61979546D01*
X160177149Y-61954235D01*
X160211756Y-61940471D01*
X160218993Y-61939714D01*
X160227139Y-61952160D01*
X160227630Y-61983972D01*
X160221643Y-62026866D01*
X160210357Y-62072558D01*
X160194950Y-62112761D01*
X160194171Y-62114322D01*
X160147804Y-62179062D01*
X160087711Y-62223097D01*
X160019465Y-62244711D01*
X159948638Y-62242185D01*
X159880804Y-62213804D01*
X159877788Y-62211808D01*
X159824427Y-62163448D01*
X159789340Y-62100352D01*
X159769922Y-62017387D01*
X159767316Y-61994078D01*
X159762701Y-61884055D01*
X159768233Y-61832748D01*
X159907514Y-61832748D01*
X159909324Y-61864753D01*
X159919222Y-61874093D01*
X159943898Y-61867105D01*
X159982795Y-61850587D01*
X160026275Y-61829881D01*
X160027356Y-61829333D01*
X160064209Y-61809949D01*
X160079000Y-61797013D01*
X160075353Y-61783451D01*
X160059995Y-61765632D01*
X160020923Y-61739845D01*
X159978846Y-61737950D01*
X159941103Y-61756717D01*
X159915034Y-61792915D01*
X159907514Y-61832748D01*
X159768233Y-61832748D01*
X159772194Y-61796027D01*
X159796550Y-61726212D01*
X159830456Y-61677302D01*
X159891653Y-61627878D01*
X159959063Y-61603359D01*
X160027880Y-61601797D01*
X160093303Y-61621239D01*
G37*
X160093303Y-61621239D02*
X160150527Y-61659735D01*
X160194749Y-61715335D01*
X160221167Y-61786086D01*
X160226510Y-61838162D01*
X160225903Y-61859893D01*
X160220822Y-61876531D01*
X160206855Y-61891437D01*
X160179589Y-61907973D01*
X160134612Y-61929498D01*
X160067511Y-61959374D01*
X160067171Y-61959524D01*
X160005407Y-61987813D01*
X159954759Y-62012933D01*
X159920404Y-62032179D01*
X159907518Y-62042848D01*
X159907514Y-62042934D01*
X159918872Y-62066166D01*
X159945431Y-62091774D01*
X159975923Y-62110221D01*
X159991370Y-62113886D01*
X160033515Y-62101212D01*
X160069808Y-62069471D01*
X160087517Y-62034572D01*
X160104552Y-62008845D01*
X160137922Y-61979546D01*
X160177149Y-61954235D01*
X160211756Y-61940471D01*
X160218993Y-61939714D01*
X160227139Y-61952160D01*
X160227630Y-61983972D01*
X160221643Y-62026866D01*
X160210357Y-62072558D01*
X160194950Y-62112761D01*
X160194171Y-62114322D01*
X160147804Y-62179062D01*
X160087711Y-62223097D01*
X160019465Y-62244711D01*
X159948638Y-62242185D01*
X159880804Y-62213804D01*
X159877788Y-62211808D01*
X159824427Y-62163448D01*
X159789340Y-62100352D01*
X159769922Y-62017387D01*
X159767316Y-61994078D01*
X159762701Y-61884055D01*
X159768233Y-61832748D01*
X159907514Y-61832748D01*
X159909324Y-61864753D01*
X159919222Y-61874093D01*
X159943898Y-61867105D01*
X159982795Y-61850587D01*
X160026275Y-61829881D01*
X160027356Y-61829333D01*
X160064209Y-61809949D01*
X160079000Y-61797013D01*
X160075353Y-61783451D01*
X160059995Y-61765632D01*
X160020923Y-61739845D01*
X159978846Y-61737950D01*
X159941103Y-61756717D01*
X159915034Y-61792915D01*
X159907514Y-61832748D01*
X159768233Y-61832748D01*
X159772194Y-61796027D01*
X159796550Y-61726212D01*
X159830456Y-61677302D01*
X159891653Y-61627878D01*
X159959063Y-61603359D01*
X160027880Y-61601797D01*
X160093303Y-61621239D01*
G36*
X161300886Y-61541289D02*
G01*
X161305139Y-61600613D01*
X161310025Y-61635572D01*
X161316795Y-61650820D01*
X161326702Y-61651015D01*
X161329914Y-61649195D01*
X161372644Y-61636015D01*
X161428227Y-61636785D01*
X161484737Y-61650333D01*
X161520082Y-61667861D01*
X161556321Y-61695861D01*
X161582813Y-61727549D01*
X161600999Y-61767813D01*
X161612322Y-61821543D01*
X161618222Y-61893626D01*
X161620143Y-61988951D01*
X161620177Y-62007237D01*
X161620200Y-62212646D01*
X161574491Y-62228580D01*
X161542027Y-62239420D01*
X161524215Y-62244468D01*
X161523691Y-62244514D01*
X161521937Y-62230828D01*
X161520444Y-62193076D01*
X161519326Y-62136224D01*
X161518697Y-62065234D01*
X161518600Y-62022073D01*
X161518398Y-61936973D01*
X161517358Y-61875981D01*
X161514831Y-61834177D01*
X161510164Y-61806642D01*
X161502707Y-61788456D01*
X161491811Y-61774698D01*
X161485007Y-61768073D01*
X161438272Y-61741375D01*
X161387272Y-61739375D01*
X161341001Y-61761955D01*
X161332444Y-61770107D01*
X161319893Y-61785436D01*
X161311188Y-61803618D01*
X161305631Y-61829909D01*
X161302526Y-61869562D01*
X161301176Y-61927832D01*
X161300886Y-62008173D01*
X161300886Y-62212646D01*
X161255177Y-62228580D01*
X161222713Y-62239420D01*
X161204901Y-62244468D01*
X161204377Y-62244514D01*
X161203037Y-62230623D01*
X161201828Y-62191439D01*
X161200801Y-62130700D01*
X161200002Y-62052141D01*
X161199481Y-61959498D01*
X161199286Y-61856509D01*
X161199286Y-61459342D01*
X161246457Y-61439444D01*
X161293629Y-61419547D01*
X161300886Y-61541289D01*
G37*
X161300886Y-61541289D02*
X161305139Y-61600613D01*
X161310025Y-61635572D01*
X161316795Y-61650820D01*
X161326702Y-61651015D01*
X161329914Y-61649195D01*
X161372644Y-61636015D01*
X161428227Y-61636785D01*
X161484737Y-61650333D01*
X161520082Y-61667861D01*
X161556321Y-61695861D01*
X161582813Y-61727549D01*
X161600999Y-61767813D01*
X161612322Y-61821543D01*
X161618222Y-61893626D01*
X161620143Y-61988951D01*
X161620177Y-62007237D01*
X161620200Y-62212646D01*
X161574491Y-62228580D01*
X161542027Y-62239420D01*
X161524215Y-62244468D01*
X161523691Y-62244514D01*
X161521937Y-62230828D01*
X161520444Y-62193076D01*
X161519326Y-62136224D01*
X161518697Y-62065234D01*
X161518600Y-62022073D01*
X161518398Y-61936973D01*
X161517358Y-61875981D01*
X161514831Y-61834177D01*
X161510164Y-61806642D01*
X161502707Y-61788456D01*
X161491811Y-61774698D01*
X161485007Y-61768073D01*
X161438272Y-61741375D01*
X161387272Y-61739375D01*
X161341001Y-61761955D01*
X161332444Y-61770107D01*
X161319893Y-61785436D01*
X161311188Y-61803618D01*
X161305631Y-61829909D01*
X161302526Y-61869562D01*
X161301176Y-61927832D01*
X161300886Y-62008173D01*
X161300886Y-62212646D01*
X161255177Y-62228580D01*
X161222713Y-62239420D01*
X161204901Y-62244468D01*
X161204377Y-62244514D01*
X161203037Y-62230623D01*
X161201828Y-62191439D01*
X161200801Y-62130700D01*
X161200002Y-62052141D01*
X161199481Y-61959498D01*
X161199286Y-61856509D01*
X161199286Y-61459342D01*
X161246457Y-61439444D01*
X161293629Y-61419547D01*
X161300886Y-61541289D01*
G36*
X161964744Y-61640968D02*
G01*
X162021616Y-61662087D01*
X162022267Y-61662493D01*
X162057440Y-61688380D01*
X162083407Y-61718633D01*
X162101670Y-61758058D01*
X162113732Y-61811462D01*
X162121096Y-61883651D01*
X162125264Y-61979432D01*
X162125629Y-61993078D01*
X162130876Y-62198842D01*
X162086716Y-62221678D01*
X162054763Y-62237110D01*
X162035470Y-62244423D01*
X162034578Y-62244514D01*
X162031239Y-62231022D01*
X162028587Y-62194626D01*
X162026956Y-62141452D01*
X162026600Y-62098393D01*
X162026592Y-62028641D01*
X162023403Y-61984837D01*
X162012288Y-61963944D01*
X161988501Y-61962925D01*
X161947296Y-61978741D01*
X161885086Y-62007815D01*
X161839341Y-62031963D01*
X161815813Y-62052913D01*
X161808896Y-62075747D01*
X161808886Y-62076877D01*
X161820299Y-62116212D01*
X161854092Y-62137462D01*
X161905809Y-62140539D01*
X161943061Y-62140006D01*
X161962703Y-62150735D01*
X161974952Y-62176505D01*
X161982002Y-62209337D01*
X161971842Y-62227966D01*
X161968017Y-62230632D01*
X161932001Y-62241340D01*
X161881566Y-62242856D01*
X161829626Y-62235759D01*
X161792822Y-62222788D01*
X161741938Y-62179585D01*
X161713014Y-62119446D01*
X161707286Y-62072462D01*
X161711657Y-62030082D01*
X161727475Y-61995488D01*
X161758797Y-61964763D01*
X161809678Y-61933990D01*
X161884176Y-61899252D01*
X161888714Y-61897288D01*
X161955821Y-61866287D01*
X161997232Y-61840862D01*
X162014981Y-61818014D01*
X162011107Y-61794745D01*
X161987643Y-61768056D01*
X161980627Y-61761914D01*
X161933630Y-61738100D01*
X161884933Y-61739103D01*
X161842522Y-61762451D01*
X161814384Y-61805675D01*
X161811769Y-61814160D01*
X161786308Y-61855308D01*
X161754001Y-61875128D01*
X161707286Y-61894770D01*
X161707286Y-61843950D01*
X161721496Y-61770082D01*
X161763675Y-61702327D01*
X161785624Y-61679661D01*
X161835517Y-61650569D01*
X161898967Y-61637400D01*
X161964744Y-61640968D01*
G37*
X161964744Y-61640968D02*
X162021616Y-61662087D01*
X162022267Y-61662493D01*
X162057440Y-61688380D01*
X162083407Y-61718633D01*
X162101670Y-61758058D01*
X162113732Y-61811462D01*
X162121096Y-61883651D01*
X162125264Y-61979432D01*
X162125629Y-61993078D01*
X162130876Y-62198842D01*
X162086716Y-62221678D01*
X162054763Y-62237110D01*
X162035470Y-62244423D01*
X162034578Y-62244514D01*
X162031239Y-62231022D01*
X162028587Y-62194626D01*
X162026956Y-62141452D01*
X162026600Y-62098393D01*
X162026592Y-62028641D01*
X162023403Y-61984837D01*
X162012288Y-61963944D01*
X161988501Y-61962925D01*
X161947296Y-61978741D01*
X161885086Y-62007815D01*
X161839341Y-62031963D01*
X161815813Y-62052913D01*
X161808896Y-62075747D01*
X161808886Y-62076877D01*
X161820299Y-62116212D01*
X161854092Y-62137462D01*
X161905809Y-62140539D01*
X161943061Y-62140006D01*
X161962703Y-62150735D01*
X161974952Y-62176505D01*
X161982002Y-62209337D01*
X161971842Y-62227966D01*
X161968017Y-62230632D01*
X161932001Y-62241340D01*
X161881566Y-62242856D01*
X161829626Y-62235759D01*
X161792822Y-62222788D01*
X161741938Y-62179585D01*
X161713014Y-62119446D01*
X161707286Y-62072462D01*
X161711657Y-62030082D01*
X161727475Y-61995488D01*
X161758797Y-61964763D01*
X161809678Y-61933990D01*
X161884176Y-61899252D01*
X161888714Y-61897288D01*
X161955821Y-61866287D01*
X161997232Y-61840862D01*
X162014981Y-61818014D01*
X162011107Y-61794745D01*
X161987643Y-61768056D01*
X161980627Y-61761914D01*
X161933630Y-61738100D01*
X161884933Y-61739103D01*
X161842522Y-61762451D01*
X161814384Y-61805675D01*
X161811769Y-61814160D01*
X161786308Y-61855308D01*
X161754001Y-61875128D01*
X161707286Y-61894770D01*
X161707286Y-61843950D01*
X161721496Y-61770082D01*
X161763675Y-61702327D01*
X161785624Y-61679661D01*
X161835517Y-61650569D01*
X161898967Y-61637400D01*
X161964744Y-61640968D01*
G36*
X162454926Y-61639755D02*
G01*
X162520858Y-61664084D01*
X162574273Y-61707117D01*
X162595164Y-61737409D01*
X162617939Y-61792994D01*
X162617466Y-61833186D01*
X162593562Y-61860217D01*
X162584717Y-61864813D01*
X162546530Y-61879144D01*
X162527028Y-61875472D01*
X162520422Y-61851407D01*
X162520086Y-61838114D01*
X162507992Y-61789210D01*
X162476471Y-61754999D01*
X162432659Y-61738476D01*
X162383695Y-61742634D01*
X162343894Y-61764227D01*
X162330450Y-61776544D01*
X162320921Y-61791487D01*
X162314485Y-61814075D01*
X162310317Y-61849328D01*
X162307597Y-61902266D01*
X162305502Y-61977907D01*
X162304960Y-62001857D01*
X162302981Y-62083790D01*
X162300731Y-62141455D01*
X162297357Y-62179608D01*
X162292006Y-62203004D01*
X162283824Y-62216398D01*
X162271959Y-62224545D01*
X162264362Y-62228144D01*
X162232102Y-62240452D01*
X162213111Y-62244514D01*
X162206836Y-62230948D01*
X162203006Y-62189934D01*
X162201600Y-62120999D01*
X162202598Y-62023669D01*
X162202908Y-62008657D01*
X162205101Y-61919859D01*
X162207693Y-61855019D01*
X162211382Y-61809067D01*
X162216864Y-61776935D01*
X162224835Y-61753553D01*
X162235993Y-61733852D01*
X162241830Y-61725410D01*
X162275296Y-61688057D01*
X162312727Y-61659003D01*
X162317309Y-61656467D01*
X162384426Y-61636443D01*
X162454926Y-61639755D01*
G37*
X162454926Y-61639755D02*
X162520858Y-61664084D01*
X162574273Y-61707117D01*
X162595164Y-61737409D01*
X162617939Y-61792994D01*
X162617466Y-61833186D01*
X162593562Y-61860217D01*
X162584717Y-61864813D01*
X162546530Y-61879144D01*
X162527028Y-61875472D01*
X162520422Y-61851407D01*
X162520086Y-61838114D01*
X162507992Y-61789210D01*
X162476471Y-61754999D01*
X162432659Y-61738476D01*
X162383695Y-61742634D01*
X162343894Y-61764227D01*
X162330450Y-61776544D01*
X162320921Y-61791487D01*
X162314485Y-61814075D01*
X162310317Y-61849328D01*
X162307597Y-61902266D01*
X162305502Y-61977907D01*
X162304960Y-62001857D01*
X162302981Y-62083790D01*
X162300731Y-62141455D01*
X162297357Y-62179608D01*
X162292006Y-62203004D01*
X162283824Y-62216398D01*
X162271959Y-62224545D01*
X162264362Y-62228144D01*
X162232102Y-62240452D01*
X162213111Y-62244514D01*
X162206836Y-62230948D01*
X162203006Y-62189934D01*
X162201600Y-62120999D01*
X162202598Y-62023669D01*
X162202908Y-62008657D01*
X162205101Y-61919859D01*
X162207693Y-61855019D01*
X162211382Y-61809067D01*
X162216864Y-61776935D01*
X162224835Y-61753553D01*
X162235993Y-61733852D01*
X162241830Y-61725410D01*
X162275296Y-61688057D01*
X162312727Y-61659003D01*
X162317309Y-61656467D01*
X162384426Y-61636443D01*
X162454926Y-61639755D01*
G36*
X163115117Y-61755358D02*
G01*
X163114933Y-61863837D01*
X163114219Y-61947287D01*
X163112675Y-62009704D01*
X163110001Y-62055085D01*
X163105894Y-62087429D01*
X163100055Y-62110733D01*
X163092182Y-62128995D01*
X163086221Y-62139418D01*
X163036855Y-62195945D01*
X162974264Y-62231377D01*
X162905013Y-62244090D01*
X162835668Y-62232463D01*
X162794375Y-62211568D01*
X162751025Y-62175422D01*
X162721481Y-62131276D01*
X162703655Y-62073462D01*
X162695463Y-61996313D01*
X162694302Y-61939714D01*
X162694458Y-61935647D01*
X162795857Y-61935647D01*
X162796476Y-62000550D01*
X162799314Y-62043514D01*
X162805840Y-62071622D01*
X162817523Y-62091953D01*
X162831483Y-62107288D01*
X162878365Y-62136890D01*
X162928701Y-62139419D01*
X162976276Y-62114705D01*
X162979979Y-62111356D01*
X162995783Y-62093935D01*
X163005693Y-62073209D01*
X163011058Y-62042362D01*
X163013228Y-61994577D01*
X163013571Y-61941748D01*
X163012827Y-61875381D01*
X163009748Y-61831106D01*
X163003061Y-61802009D01*
X162991496Y-61781173D01*
X162982013Y-61770107D01*
X162937960Y-61742198D01*
X162887224Y-61738843D01*
X162838796Y-61760159D01*
X162829450Y-61768073D01*
X162813540Y-61785647D01*
X162803610Y-61806587D01*
X162798278Y-61837782D01*
X162796163Y-61886122D01*
X162795857Y-61935647D01*
X162694458Y-61935647D01*
X162697810Y-61848568D01*
X162709726Y-61780086D01*
X162732135Y-61728600D01*
X162767124Y-61688443D01*
X162794375Y-61667861D01*
X162843907Y-61645625D01*
X162901316Y-61635304D01*
X162954682Y-61638067D01*
X162984543Y-61649212D01*
X162996261Y-61652383D01*
X163004037Y-61640557D01*
X163009465Y-61608866D01*
X163013571Y-61560593D01*
X163018067Y-61506829D01*
X163024313Y-61474482D01*
X163035676Y-61455985D01*
X163055528Y-61443770D01*
X163068000Y-61438362D01*
X163115171Y-61418601D01*
X163115117Y-61755358D01*
G37*
X163115117Y-61755358D02*
X163114933Y-61863837D01*
X163114219Y-61947287D01*
X163112675Y-62009704D01*
X163110001Y-62055085D01*
X163105894Y-62087429D01*
X163100055Y-62110733D01*
X163092182Y-62128995D01*
X163086221Y-62139418D01*
X163036855Y-62195945D01*
X162974264Y-62231377D01*
X162905013Y-62244090D01*
X162835668Y-62232463D01*
X162794375Y-62211568D01*
X162751025Y-62175422D01*
X162721481Y-62131276D01*
X162703655Y-62073462D01*
X162695463Y-61996313D01*
X162694302Y-61939714D01*
X162694458Y-61935647D01*
X162795857Y-61935647D01*
X162796476Y-62000550D01*
X162799314Y-62043514D01*
X162805840Y-62071622D01*
X162817523Y-62091953D01*
X162831483Y-62107288D01*
X162878365Y-62136890D01*
X162928701Y-62139419D01*
X162976276Y-62114705D01*
X162979979Y-62111356D01*
X162995783Y-62093935D01*
X163005693Y-62073209D01*
X163011058Y-62042362D01*
X163013228Y-61994577D01*
X163013571Y-61941748D01*
X163012827Y-61875381D01*
X163009748Y-61831106D01*
X163003061Y-61802009D01*
X162991496Y-61781173D01*
X162982013Y-61770107D01*
X162937960Y-61742198D01*
X162887224Y-61738843D01*
X162838796Y-61760159D01*
X162829450Y-61768073D01*
X162813540Y-61785647D01*
X162803610Y-61806587D01*
X162798278Y-61837782D01*
X162796163Y-61886122D01*
X162795857Y-61935647D01*
X162694458Y-61935647D01*
X162697810Y-61848568D01*
X162709726Y-61780086D01*
X162732135Y-61728600D01*
X162767124Y-61688443D01*
X162794375Y-61667861D01*
X162843907Y-61645625D01*
X162901316Y-61635304D01*
X162954682Y-61638067D01*
X162984543Y-61649212D01*
X162996261Y-61652383D01*
X163004037Y-61640557D01*
X163009465Y-61608866D01*
X163013571Y-61560593D01*
X163018067Y-61506829D01*
X163024313Y-61474482D01*
X163035676Y-61455985D01*
X163055528Y-61443770D01*
X163068000Y-61438362D01*
X163115171Y-61418601D01*
X163115117Y-61755358D01*
G36*
X163704833Y-61648663D02*
G01*
X163707048Y-61686850D01*
X163708784Y-61744886D01*
X163709899Y-61818180D01*
X163710257Y-61895055D01*
X163710257Y-62155196D01*
X163664326Y-62201127D01*
X163632675Y-62229429D01*
X163604890Y-62240893D01*
X163566915Y-62240168D01*
X163551840Y-62238321D01*
X163504726Y-62232948D01*
X163465756Y-62229869D01*
X163456257Y-62229585D01*
X163424233Y-62231445D01*
X163378432Y-62236114D01*
X163360674Y-62238321D01*
X163317057Y-62241735D01*
X163287745Y-62234320D01*
X163258680Y-62211427D01*
X163248188Y-62201127D01*
X163202257Y-62155196D01*
X163202257Y-61668602D01*
X163239226Y-61651758D01*
X163271059Y-61639282D01*
X163289683Y-61634914D01*
X163294458Y-61648718D01*
X163298921Y-61687286D01*
X163302775Y-61746356D01*
X163305722Y-61821663D01*
X163307143Y-61885286D01*
X163311114Y-62135657D01*
X163345759Y-62140556D01*
X163377268Y-62137131D01*
X163392708Y-62126041D01*
X163397023Y-62105308D01*
X163400708Y-62061145D01*
X163403469Y-61999146D01*
X163405012Y-61924909D01*
X163405235Y-61886706D01*
X163405457Y-61666783D01*
X163451166Y-61650849D01*
X163483518Y-61640015D01*
X163501115Y-61634962D01*
X163501623Y-61634914D01*
X163503388Y-61648648D01*
X163505329Y-61686730D01*
X163507282Y-61744482D01*
X163509084Y-61817227D01*
X163510343Y-61885286D01*
X163514314Y-62135657D01*
X163601400Y-62135657D01*
X163605396Y-61907240D01*
X163609392Y-61678822D01*
X163651847Y-61656868D01*
X163683192Y-61641793D01*
X163701744Y-61634951D01*
X163702279Y-61634914D01*
X163704833Y-61648663D01*
G37*
X163704833Y-61648663D02*
X163707048Y-61686850D01*
X163708784Y-61744886D01*
X163709899Y-61818180D01*
X163710257Y-61895055D01*
X163710257Y-62155196D01*
X163664326Y-62201127D01*
X163632675Y-62229429D01*
X163604890Y-62240893D01*
X163566915Y-62240168D01*
X163551840Y-62238321D01*
X163504726Y-62232948D01*
X163465756Y-62229869D01*
X163456257Y-62229585D01*
X163424233Y-62231445D01*
X163378432Y-62236114D01*
X163360674Y-62238321D01*
X163317057Y-62241735D01*
X163287745Y-62234320D01*
X163258680Y-62211427D01*
X163248188Y-62201127D01*
X163202257Y-62155196D01*
X163202257Y-61668602D01*
X163239226Y-61651758D01*
X163271059Y-61639282D01*
X163289683Y-61634914D01*
X163294458Y-61648718D01*
X163298921Y-61687286D01*
X163302775Y-61746356D01*
X163305722Y-61821663D01*
X163307143Y-61885286D01*
X163311114Y-62135657D01*
X163345759Y-62140556D01*
X163377268Y-62137131D01*
X163392708Y-62126041D01*
X163397023Y-62105308D01*
X163400708Y-62061145D01*
X163403469Y-61999146D01*
X163405012Y-61924909D01*
X163405235Y-61886706D01*
X163405457Y-61666783D01*
X163451166Y-61650849D01*
X163483518Y-61640015D01*
X163501115Y-61634962D01*
X163501623Y-61634914D01*
X163503388Y-61648648D01*
X163505329Y-61686730D01*
X163507282Y-61744482D01*
X163509084Y-61817227D01*
X163510343Y-61885286D01*
X163514314Y-62135657D01*
X163601400Y-62135657D01*
X163605396Y-61907240D01*
X163609392Y-61678822D01*
X163651847Y-61656868D01*
X163683192Y-61641793D01*
X163701744Y-61634951D01*
X163702279Y-61634914D01*
X163704833Y-61648663D01*
G36*
X164069876Y-61646335D02*
G01*
X164111667Y-61665344D01*
X164144469Y-61688378D01*
X164168503Y-61714133D01*
X164185097Y-61747358D01*
X164195577Y-61792800D01*
X164201271Y-61855207D01*
X164203507Y-61939327D01*
X164203743Y-61994721D01*
X164203743Y-62210826D01*
X164166774Y-62227670D01*
X164137656Y-62239981D01*
X164123231Y-62244514D01*
X164120472Y-62231025D01*
X164118282Y-62194653D01*
X164116942Y-62141542D01*
X164116657Y-62099372D01*
X164115434Y-62038447D01*
X164112136Y-61990115D01*
X164107321Y-61960518D01*
X164103496Y-61954229D01*
X164077783Y-61960652D01*
X164037418Y-61977125D01*
X163990679Y-61999458D01*
X163945845Y-62023457D01*
X163911193Y-62044930D01*
X163895002Y-62059685D01*
X163894938Y-62059845D01*
X163896330Y-62087152D01*
X163908818Y-62113219D01*
X163930743Y-62134392D01*
X163962743Y-62141474D01*
X163990092Y-62140649D01*
X164028826Y-62140042D01*
X164049158Y-62149116D01*
X164061369Y-62173092D01*
X164062909Y-62177613D01*
X164068203Y-62211806D01*
X164054047Y-62232568D01*
X164017148Y-62242462D01*
X163977289Y-62244292D01*
X163905562Y-62230727D01*
X163868432Y-62211355D01*
X163822576Y-62165845D01*
X163798256Y-62109983D01*
X163796073Y-62050957D01*
X163816629Y-61995953D01*
X163847549Y-61961486D01*
X163878420Y-61942189D01*
X163926942Y-61917759D01*
X163983485Y-61892985D01*
X163992910Y-61889199D01*
X164055019Y-61861791D01*
X164090822Y-61837634D01*
X164102337Y-61813619D01*
X164091580Y-61786635D01*
X164073114Y-61765543D01*
X164029469Y-61739572D01*
X163981446Y-61737624D01*
X163937406Y-61757637D01*
X163905709Y-61797551D01*
X163901549Y-61807848D01*
X163877327Y-61845724D01*
X163841965Y-61873842D01*
X163797343Y-61896917D01*
X163797343Y-61831485D01*
X163799969Y-61791506D01*
X163811230Y-61759997D01*
X163836199Y-61726378D01*
X163860169Y-61700484D01*
X163897441Y-61663817D01*
X163926401Y-61644121D01*
X163957505Y-61636220D01*
X163992713Y-61634914D01*
X164069876Y-61646335D01*
G37*
X164069876Y-61646335D02*
X164111667Y-61665344D01*
X164144469Y-61688378D01*
X164168503Y-61714133D01*
X164185097Y-61747358D01*
X164195577Y-61792800D01*
X164201271Y-61855207D01*
X164203507Y-61939327D01*
X164203743Y-61994721D01*
X164203743Y-62210826D01*
X164166774Y-62227670D01*
X164137656Y-62239981D01*
X164123231Y-62244514D01*
X164120472Y-62231025D01*
X164118282Y-62194653D01*
X164116942Y-62141542D01*
X164116657Y-62099372D01*
X164115434Y-62038447D01*
X164112136Y-61990115D01*
X164107321Y-61960518D01*
X164103496Y-61954229D01*
X164077783Y-61960652D01*
X164037418Y-61977125D01*
X163990679Y-61999458D01*
X163945845Y-62023457D01*
X163911193Y-62044930D01*
X163895002Y-62059685D01*
X163894938Y-62059845D01*
X163896330Y-62087152D01*
X163908818Y-62113219D01*
X163930743Y-62134392D01*
X163962743Y-62141474D01*
X163990092Y-62140649D01*
X164028826Y-62140042D01*
X164049158Y-62149116D01*
X164061369Y-62173092D01*
X164062909Y-62177613D01*
X164068203Y-62211806D01*
X164054047Y-62232568D01*
X164017148Y-62242462D01*
X163977289Y-62244292D01*
X163905562Y-62230727D01*
X163868432Y-62211355D01*
X163822576Y-62165845D01*
X163798256Y-62109983D01*
X163796073Y-62050957D01*
X163816629Y-61995953D01*
X163847549Y-61961486D01*
X163878420Y-61942189D01*
X163926942Y-61917759D01*
X163983485Y-61892985D01*
X163992910Y-61889199D01*
X164055019Y-61861791D01*
X164090822Y-61837634D01*
X164102337Y-61813619D01*
X164091580Y-61786635D01*
X164073114Y-61765543D01*
X164029469Y-61739572D01*
X163981446Y-61737624D01*
X163937406Y-61757637D01*
X163905709Y-61797551D01*
X163901549Y-61807848D01*
X163877327Y-61845724D01*
X163841965Y-61873842D01*
X163797343Y-61896917D01*
X163797343Y-61831485D01*
X163799969Y-61791506D01*
X163811230Y-61759997D01*
X163836199Y-61726378D01*
X163860169Y-61700484D01*
X163897441Y-61663817D01*
X163926401Y-61644121D01*
X163957505Y-61636220D01*
X163992713Y-61634914D01*
X164069876Y-61646335D01*
G36*
X164577600Y-61648752D02*
G01*
X164594948Y-61656334D01*
X164636356Y-61689128D01*
X164671765Y-61736547D01*
X164693664Y-61787151D01*
X164697229Y-61812098D01*
X164685279Y-61846927D01*
X164659067Y-61865357D01*
X164630964Y-61876516D01*
X164618095Y-61878572D01*
X164611829Y-61863649D01*
X164599456Y-61831175D01*
X164594028Y-61816502D01*
X164563590Y-61765744D01*
X164519520Y-61740427D01*
X164463010Y-61741206D01*
X164458825Y-61742203D01*
X164428655Y-61756507D01*
X164406476Y-61784393D01*
X164391327Y-61829287D01*
X164382250Y-61894615D01*
X164378286Y-61983804D01*
X164377914Y-62031261D01*
X164377730Y-62106071D01*
X164376522Y-62157069D01*
X164373309Y-62189471D01*
X164367109Y-62208495D01*
X164356940Y-62219356D01*
X164341819Y-62227272D01*
X164340946Y-62227670D01*
X164311828Y-62239981D01*
X164297403Y-62244514D01*
X164295186Y-62230809D01*
X164293289Y-62192925D01*
X164291847Y-62135715D01*
X164290998Y-62064027D01*
X164290829Y-62011565D01*
X164291692Y-61910047D01*
X164295070Y-61833032D01*
X164302142Y-61776023D01*
X164314088Y-61734526D01*
X164332090Y-61704043D01*
X164357327Y-61680080D01*
X164382247Y-61663355D01*
X164442171Y-61641097D01*
X164511911Y-61636076D01*
X164577600Y-61648752D01*
G37*
X164577600Y-61648752D02*
X164594948Y-61656334D01*
X164636356Y-61689128D01*
X164671765Y-61736547D01*
X164693664Y-61787151D01*
X164697229Y-61812098D01*
X164685279Y-61846927D01*
X164659067Y-61865357D01*
X164630964Y-61876516D01*
X164618095Y-61878572D01*
X164611829Y-61863649D01*
X164599456Y-61831175D01*
X164594028Y-61816502D01*
X164563590Y-61765744D01*
X164519520Y-61740427D01*
X164463010Y-61741206D01*
X164458825Y-61742203D01*
X164428655Y-61756507D01*
X164406476Y-61784393D01*
X164391327Y-61829287D01*
X164382250Y-61894615D01*
X164378286Y-61983804D01*
X164377914Y-62031261D01*
X164377730Y-62106071D01*
X164376522Y-62157069D01*
X164373309Y-62189471D01*
X164367109Y-62208495D01*
X164356940Y-62219356D01*
X164341819Y-62227272D01*
X164340946Y-62227670D01*
X164311828Y-62239981D01*
X164297403Y-62244514D01*
X164295186Y-62230809D01*
X164293289Y-62192925D01*
X164291847Y-62135715D01*
X164290998Y-62064027D01*
X164290829Y-62011565D01*
X164291692Y-61910047D01*
X164295070Y-61833032D01*
X164302142Y-61776023D01*
X164314088Y-61734526D01*
X164332090Y-61704043D01*
X164357327Y-61680080D01*
X164382247Y-61663355D01*
X164442171Y-61641097D01*
X164511911Y-61636076D01*
X164577600Y-61648752D01*
G36*
X165078595Y-61656966D02*
G01*
X165136021Y-61694497D01*
X165163719Y-61728096D01*
X165185662Y-61789064D01*
X165187405Y-61837308D01*
X165183457Y-61901816D01*
X165034686Y-61966934D01*
X164962349Y-62000202D01*
X164915084Y-62026964D01*
X164890507Y-62050144D01*
X164886237Y-62072667D01*
X164899889Y-62097455D01*
X164914943Y-62113886D01*
X164958746Y-62140235D01*
X165006389Y-62142081D01*
X165050145Y-62121546D01*
X165082289Y-62080752D01*
X165088038Y-62066347D01*
X165115576Y-62021356D01*
X165147258Y-62002182D01*
X165190714Y-61985779D01*
X165190714Y-62047966D01*
X165186872Y-62090283D01*
X165171823Y-62125969D01*
X165140280Y-62166943D01*
X165135592Y-62172267D01*
X165100506Y-62208720D01*
X165070347Y-62228283D01*
X165032615Y-62237283D01*
X165001335Y-62240230D01*
X164945385Y-62240965D01*
X164905555Y-62231660D01*
X164880708Y-62217846D01*
X164841656Y-62187467D01*
X164814625Y-62154613D01*
X164797517Y-62113294D01*
X164788238Y-62057521D01*
X164784693Y-61981305D01*
X164784410Y-61942622D01*
X164785372Y-61896247D01*
X164873007Y-61896247D01*
X164874023Y-61921126D01*
X164876556Y-61925200D01*
X164893274Y-61919665D01*
X164929249Y-61905017D01*
X164977331Y-61884190D01*
X164987386Y-61879714D01*
X165048152Y-61848814D01*
X165081632Y-61821657D01*
X165088990Y-61796220D01*
X165071391Y-61770481D01*
X165056856Y-61759109D01*
X165004410Y-61736364D01*
X164955322Y-61740122D01*
X164914227Y-61767884D01*
X164885758Y-61817152D01*
X164876631Y-61856257D01*
X164873007Y-61896247D01*
X164785372Y-61896247D01*
X164786285Y-61852249D01*
X164793196Y-61785384D01*
X164806884Y-61736695D01*
X164829096Y-61700849D01*
X164861574Y-61672513D01*
X164875733Y-61663355D01*
X164940053Y-61639507D01*
X165010473Y-61638006D01*
X165078595Y-61656966D01*
G37*
X165078595Y-61656966D02*
X165136021Y-61694497D01*
X165163719Y-61728096D01*
X165185662Y-61789064D01*
X165187405Y-61837308D01*
X165183457Y-61901816D01*
X165034686Y-61966934D01*
X164962349Y-62000202D01*
X164915084Y-62026964D01*
X164890507Y-62050144D01*
X164886237Y-62072667D01*
X164899889Y-62097455D01*
X164914943Y-62113886D01*
X164958746Y-62140235D01*
X165006389Y-62142081D01*
X165050145Y-62121546D01*
X165082289Y-62080752D01*
X165088038Y-62066347D01*
X165115576Y-62021356D01*
X165147258Y-62002182D01*
X165190714Y-61985779D01*
X165190714Y-62047966D01*
X165186872Y-62090283D01*
X165171823Y-62125969D01*
X165140280Y-62166943D01*
X165135592Y-62172267D01*
X165100506Y-62208720D01*
X165070347Y-62228283D01*
X165032615Y-62237283D01*
X165001335Y-62240230D01*
X164945385Y-62240965D01*
X164905555Y-62231660D01*
X164880708Y-62217846D01*
X164841656Y-62187467D01*
X164814625Y-62154613D01*
X164797517Y-62113294D01*
X164788238Y-62057521D01*
X164784693Y-61981305D01*
X164784410Y-61942622D01*
X164785372Y-61896247D01*
X164873007Y-61896247D01*
X164874023Y-61921126D01*
X164876556Y-61925200D01*
X164893274Y-61919665D01*
X164929249Y-61905017D01*
X164977331Y-61884190D01*
X164987386Y-61879714D01*
X165048152Y-61848814D01*
X165081632Y-61821657D01*
X165088990Y-61796220D01*
X165071391Y-61770481D01*
X165056856Y-61759109D01*
X165004410Y-61736364D01*
X164955322Y-61740122D01*
X164914227Y-61767884D01*
X164885758Y-61817152D01*
X164876631Y-61856257D01*
X164873007Y-61896247D01*
X164785372Y-61896247D01*
X164786285Y-61852249D01*
X164793196Y-61785384D01*
X164806884Y-61736695D01*
X164829096Y-61700849D01*
X164861574Y-61672513D01*
X164875733Y-61663355D01*
X164940053Y-61639507D01*
X165010473Y-61638006D01*
X165078595Y-61656966D01*
G36*
X162028910Y-56932348D02*
G01*
X162107454Y-56932778D01*
X162164298Y-56933942D01*
X162203105Y-56936207D01*
X162227538Y-56939940D01*
X162241262Y-56945506D01*
X162247940Y-56953273D01*
X162251236Y-56963605D01*
X162251556Y-56964943D01*
X162256562Y-56989079D01*
X162265829Y-57036701D01*
X162278392Y-57102741D01*
X162293287Y-57182128D01*
X162309551Y-57269796D01*
X162310119Y-57272875D01*
X162326410Y-57358789D01*
X162341652Y-57434696D01*
X162354861Y-57496045D01*
X162365054Y-57538282D01*
X162371248Y-57556855D01*
X162371543Y-57557184D01*
X162389788Y-57566253D01*
X162427405Y-57581367D01*
X162476271Y-57599262D01*
X162476543Y-57599358D01*
X162538093Y-57622493D01*
X162610657Y-57651965D01*
X162679057Y-57681597D01*
X162682294Y-57683062D01*
X162793702Y-57733626D01*
X163040399Y-57565160D01*
X163116077Y-57513803D01*
X163184631Y-57467889D01*
X163242088Y-57430030D01*
X163284476Y-57402837D01*
X163307825Y-57388921D01*
X163310042Y-57387889D01*
X163327010Y-57392484D01*
X163358701Y-57414655D01*
X163406352Y-57455447D01*
X163471198Y-57515905D01*
X163537397Y-57580227D01*
X163601214Y-57643612D01*
X163658329Y-57701451D01*
X163705305Y-57750175D01*
X163738703Y-57786210D01*
X163755085Y-57805984D01*
X163755694Y-57807002D01*
X163757505Y-57820572D01*
X163750683Y-57842733D01*
X163733540Y-57876478D01*
X163704393Y-57924800D01*
X163661555Y-57990692D01*
X163604448Y-58075517D01*
X163553766Y-58150177D01*
X163508461Y-58217140D01*
X163471150Y-58272516D01*
X163444452Y-58312420D01*
X163430985Y-58332962D01*
X163430137Y-58334356D01*
X163431781Y-58354038D01*
X163444245Y-58392293D01*
X163465048Y-58441889D01*
X163472462Y-58457728D01*
X163504814Y-58528290D01*
X163539328Y-58608353D01*
X163567365Y-58677629D01*
X163587568Y-58729045D01*
X163603615Y-58768119D01*
X163612888Y-58788541D01*
X163614041Y-58790114D01*
X163631096Y-58792721D01*
X163671298Y-58799863D01*
X163729302Y-58810523D01*
X163799763Y-58823685D01*
X163877335Y-58838333D01*
X163956672Y-58853449D01*
X164032431Y-58868018D01*
X164099264Y-58881022D01*
X164151828Y-58891445D01*
X164184776Y-58898270D01*
X164192857Y-58900199D01*
X164201205Y-58904962D01*
X164207506Y-58915718D01*
X164212045Y-58936098D01*
X164215104Y-58969734D01*
X164216967Y-59020255D01*
X164217918Y-59091292D01*
X164218240Y-59186476D01*
X164218257Y-59225492D01*
X164218257Y-59542799D01*
X164142057Y-59557839D01*
X164099663Y-59565995D01*
X164036400Y-59577899D01*
X163959962Y-59592116D01*
X163878043Y-59607210D01*
X163855400Y-59611355D01*
X163779806Y-59626053D01*
X163713953Y-59640505D01*
X163663366Y-59653375D01*
X163633574Y-59663322D01*
X163628612Y-59666287D01*
X163616426Y-59687283D01*
X163598953Y-59727967D01*
X163579577Y-59780322D01*
X163575734Y-59791600D01*
X163550339Y-59861523D01*
X163518817Y-59940418D01*
X163487969Y-60011266D01*
X163487817Y-60011595D01*
X163436447Y-60122733D01*
X163605399Y-60371253D01*
X163774352Y-60619772D01*
X163557429Y-60837058D01*
X163491819Y-60901726D01*
X163431979Y-60958733D01*
X163381267Y-61005033D01*
X163343046Y-61037584D01*
X163320675Y-61053343D01*
X163317466Y-61054343D01*
X163298626Y-61046469D01*
X163260180Y-61024578D01*
X163206330Y-60991267D01*
X163141276Y-60949131D01*
X163070940Y-60901943D01*
X162999555Y-60853810D01*
X162935908Y-60811928D01*
X162884041Y-60778871D01*
X162847995Y-60757218D01*
X162831867Y-60749543D01*
X162812189Y-60756037D01*
X162774875Y-60773150D01*
X162727621Y-60797326D01*
X162722612Y-60800013D01*
X162658977Y-60831927D01*
X162615341Y-60847579D01*
X162588202Y-60847745D01*
X162574057Y-60833204D01*
X162573975Y-60833000D01*
X162566905Y-60815779D01*
X162550042Y-60774899D01*
X162524695Y-60713525D01*
X162492171Y-60634819D01*
X162453778Y-60541947D01*
X162410822Y-60438072D01*
X162369222Y-60337502D01*
X162323504Y-60226516D01*
X162281526Y-60123703D01*
X162244548Y-60032215D01*
X162213827Y-59955201D01*
X162190622Y-59895815D01*
X162176190Y-59857209D01*
X162171743Y-59842800D01*
X162182896Y-59826272D01*
X162212069Y-59799930D01*
X162250971Y-59770887D01*
X162361757Y-59679039D01*
X162448351Y-59573759D01*
X162509716Y-59457266D01*
X162544815Y-59331776D01*
X162552608Y-59199507D01*
X162546943Y-59138457D01*
X162516078Y-59011795D01*
X162462920Y-58899941D01*
X162390767Y-58804001D01*
X162302917Y-58725076D01*
X162202665Y-58664270D01*
X162093310Y-58622687D01*
X161978147Y-58601428D01*
X161860475Y-58601599D01*
X161743590Y-58624301D01*
X161630789Y-58670638D01*
X161525369Y-58741713D01*
X161481368Y-58781911D01*
X161396979Y-58885129D01*
X161338222Y-58997925D01*
X161304704Y-59117010D01*
X161296035Y-59239095D01*
X161311823Y-59360893D01*
X161351678Y-59479116D01*
X161415207Y-59590475D01*
X161502021Y-59691684D01*
X161599029Y-59770887D01*
X161639437Y-59801162D01*
X161667982Y-59827219D01*
X161678257Y-59842825D01*
X161672877Y-59859843D01*
X161657575Y-59900500D01*
X161633612Y-59961642D01*
X161602244Y-60040119D01*
X161564732Y-60132780D01*
X161522333Y-60236472D01*
X161480663Y-60337526D01*
X161434690Y-60448607D01*
X161392107Y-60551541D01*
X161354221Y-60643165D01*
X161322340Y-60720316D01*
X161297771Y-60779831D01*
X161281820Y-60818544D01*
X161275910Y-60833000D01*
X161261948Y-60847685D01*
X161234940Y-60847642D01*
X161191413Y-60832099D01*
X161127890Y-60800284D01*
X161127388Y-60800013D01*
X161079560Y-60775323D01*
X161040897Y-60757338D01*
X161019095Y-60749614D01*
X161018133Y-60749543D01*
X161001721Y-60757378D01*
X160965487Y-60779165D01*
X160913474Y-60812328D01*
X160849725Y-60854291D01*
X160779060Y-60901943D01*
X160707116Y-60950191D01*
X160642274Y-60992151D01*
X160588735Y-61025227D01*
X160550697Y-61046821D01*
X160532533Y-61054343D01*
X160515808Y-61044457D01*
X160482180Y-61016826D01*
X160435010Y-60974495D01*
X160377658Y-60920505D01*
X160313484Y-60857899D01*
X160292497Y-60836983D01*
X160075499Y-60619623D01*
X160240668Y-60377220D01*
X160290864Y-60302781D01*
X160334919Y-60235972D01*
X160370362Y-60180665D01*
X160394719Y-60140729D01*
X160405522Y-60120036D01*
X160405838Y-60118563D01*
X160400143Y-60099058D01*
X160384826Y-60059822D01*
X160362537Y-60007430D01*
X160346893Y-59972355D01*
X160317641Y-59905201D01*
X160290094Y-59837358D01*
X160268737Y-59780034D01*
X160262935Y-59762572D01*
X160246452Y-59715938D01*
X160230340Y-59679905D01*
X160221490Y-59666287D01*
X160201960Y-59657952D01*
X160159334Y-59646137D01*
X160099145Y-59632181D01*
X160026922Y-59617422D01*
X159994600Y-59611355D01*
X159912522Y-59596273D01*
X159833795Y-59581669D01*
X159766109Y-59568980D01*
X159717160Y-59559642D01*
X159707943Y-59557839D01*
X159631743Y-59542799D01*
X159631743Y-59225492D01*
X159631914Y-59121154D01*
X159632616Y-59042213D01*
X159634134Y-58985038D01*
X159636749Y-58945999D01*
X159640746Y-58921465D01*
X159646409Y-58907805D01*
X159654020Y-58901389D01*
X159657143Y-58900199D01*
X159675978Y-58895980D01*
X159717588Y-58887562D01*
X159776630Y-58875961D01*
X159847757Y-58862195D01*
X159925625Y-58847280D01*
X160004887Y-58832232D01*
X160080198Y-58818069D01*
X160146213Y-58805806D01*
X160197587Y-58796461D01*
X160228975Y-58791050D01*
X160235959Y-58790114D01*
X160242285Y-58777596D01*
X160256290Y-58744246D01*
X160275355Y-58696377D01*
X160282634Y-58677629D01*
X160311996Y-58605195D01*
X160346571Y-58525170D01*
X160377537Y-58457728D01*
X160400323Y-58406159D01*
X160415482Y-58363785D01*
X160420542Y-58337834D01*
X160419736Y-58334356D01*
X160409041Y-58317936D01*
X160384620Y-58281417D01*
X160349095Y-58228687D01*
X160305087Y-58163635D01*
X160255217Y-58090151D01*
X160245356Y-58075645D01*
X160187492Y-57989704D01*
X160144956Y-57924261D01*
X160116054Y-57876304D01*
X160099090Y-57842820D01*
X160092367Y-57820795D01*
X160094190Y-57807217D01*
X160094236Y-57807131D01*
X160108586Y-57789297D01*
X160140323Y-57754817D01*
X160186010Y-57707268D01*
X160242204Y-57650222D01*
X160305468Y-57587255D01*
X160312602Y-57580227D01*
X160392330Y-57503020D01*
X160453857Y-57446330D01*
X160498421Y-57409110D01*
X160527257Y-57390315D01*
X160539958Y-57387889D01*
X160558494Y-57398471D01*
X160596961Y-57422916D01*
X160651386Y-57458612D01*
X160717798Y-57502947D01*
X160792225Y-57553311D01*
X160809601Y-57565160D01*
X161056297Y-57733626D01*
X161167706Y-57683062D01*
X161235457Y-57653595D01*
X161308183Y-57623959D01*
X161370703Y-57600330D01*
X161373457Y-57599358D01*
X161422360Y-57581457D01*
X161460057Y-57566320D01*
X161478425Y-57557210D01*
X161478456Y-57557184D01*
X161484285Y-57540717D01*
X161494192Y-57500219D01*
X161507195Y-57440242D01*
X161522309Y-57365340D01*
X161538552Y-57280064D01*
X161539881Y-57272875D01*
X161556175Y-57185014D01*
X161571133Y-57105260D01*
X161583791Y-57038681D01*
X161593186Y-56990347D01*
X161598354Y-56965325D01*
X161598444Y-56964943D01*
X161601589Y-56954299D01*
X161607704Y-56946262D01*
X161620453Y-56940467D01*
X161643500Y-56936547D01*
X161680509Y-56934135D01*
X161735144Y-56932865D01*
X161811067Y-56932371D01*
X161911944Y-56932286D01*
X161925000Y-56932286D01*
X162028910Y-56932348D01*
G37*
X162028910Y-56932348D02*
X162107454Y-56932778D01*
X162164298Y-56933942D01*
X162203105Y-56936207D01*
X162227538Y-56939940D01*
X162241262Y-56945506D01*
X162247940Y-56953273D01*
X162251236Y-56963605D01*
X162251556Y-56964943D01*
X162256562Y-56989079D01*
X162265829Y-57036701D01*
X162278392Y-57102741D01*
X162293287Y-57182128D01*
X162309551Y-57269796D01*
X162310119Y-57272875D01*
X162326410Y-57358789D01*
X162341652Y-57434696D01*
X162354861Y-57496045D01*
X162365054Y-57538282D01*
X162371248Y-57556855D01*
X162371543Y-57557184D01*
X162389788Y-57566253D01*
X162427405Y-57581367D01*
X162476271Y-57599262D01*
X162476543Y-57599358D01*
X162538093Y-57622493D01*
X162610657Y-57651965D01*
X162679057Y-57681597D01*
X162682294Y-57683062D01*
X162793702Y-57733626D01*
X163040399Y-57565160D01*
X163116077Y-57513803D01*
X163184631Y-57467889D01*
X163242088Y-57430030D01*
X163284476Y-57402837D01*
X163307825Y-57388921D01*
X163310042Y-57387889D01*
X163327010Y-57392484D01*
X163358701Y-57414655D01*
X163406352Y-57455447D01*
X163471198Y-57515905D01*
X163537397Y-57580227D01*
X163601214Y-57643612D01*
X163658329Y-57701451D01*
X163705305Y-57750175D01*
X163738703Y-57786210D01*
X163755085Y-57805984D01*
X163755694Y-57807002D01*
X163757505Y-57820572D01*
X163750683Y-57842733D01*
X163733540Y-57876478D01*
X163704393Y-57924800D01*
X163661555Y-57990692D01*
X163604448Y-58075517D01*
X163553766Y-58150177D01*
X163508461Y-58217140D01*
X163471150Y-58272516D01*
X163444452Y-58312420D01*
X163430985Y-58332962D01*
X163430137Y-58334356D01*
X163431781Y-58354038D01*
X163444245Y-58392293D01*
X163465048Y-58441889D01*
X163472462Y-58457728D01*
X163504814Y-58528290D01*
X163539328Y-58608353D01*
X163567365Y-58677629D01*
X163587568Y-58729045D01*
X163603615Y-58768119D01*
X163612888Y-58788541D01*
X163614041Y-58790114D01*
X163631096Y-58792721D01*
X163671298Y-58799863D01*
X163729302Y-58810523D01*
X163799763Y-58823685D01*
X163877335Y-58838333D01*
X163956672Y-58853449D01*
X164032431Y-58868018D01*
X164099264Y-58881022D01*
X164151828Y-58891445D01*
X164184776Y-58898270D01*
X164192857Y-58900199D01*
X164201205Y-58904962D01*
X164207506Y-58915718D01*
X164212045Y-58936098D01*
X164215104Y-58969734D01*
X164216967Y-59020255D01*
X164217918Y-59091292D01*
X164218240Y-59186476D01*
X164218257Y-59225492D01*
X164218257Y-59542799D01*
X164142057Y-59557839D01*
X164099663Y-59565995D01*
X164036400Y-59577899D01*
X163959962Y-59592116D01*
X163878043Y-59607210D01*
X163855400Y-59611355D01*
X163779806Y-59626053D01*
X163713953Y-59640505D01*
X163663366Y-59653375D01*
X163633574Y-59663322D01*
X163628612Y-59666287D01*
X163616426Y-59687283D01*
X163598953Y-59727967D01*
X163579577Y-59780322D01*
X163575734Y-59791600D01*
X163550339Y-59861523D01*
X163518817Y-59940418D01*
X163487969Y-60011266D01*
X163487817Y-60011595D01*
X163436447Y-60122733D01*
X163605399Y-60371253D01*
X163774352Y-60619772D01*
X163557429Y-60837058D01*
X163491819Y-60901726D01*
X163431979Y-60958733D01*
X163381267Y-61005033D01*
X163343046Y-61037584D01*
X163320675Y-61053343D01*
X163317466Y-61054343D01*
X163298626Y-61046469D01*
X163260180Y-61024578D01*
X163206330Y-60991267D01*
X163141276Y-60949131D01*
X163070940Y-60901943D01*
X162999555Y-60853810D01*
X162935908Y-60811928D01*
X162884041Y-60778871D01*
X162847995Y-60757218D01*
X162831867Y-60749543D01*
X162812189Y-60756037D01*
X162774875Y-60773150D01*
X162727621Y-60797326D01*
X162722612Y-60800013D01*
X162658977Y-60831927D01*
X162615341Y-60847579D01*
X162588202Y-60847745D01*
X162574057Y-60833204D01*
X162573975Y-60833000D01*
X162566905Y-60815779D01*
X162550042Y-60774899D01*
X162524695Y-60713525D01*
X162492171Y-60634819D01*
X162453778Y-60541947D01*
X162410822Y-60438072D01*
X162369222Y-60337502D01*
X162323504Y-60226516D01*
X162281526Y-60123703D01*
X162244548Y-60032215D01*
X162213827Y-59955201D01*
X162190622Y-59895815D01*
X162176190Y-59857209D01*
X162171743Y-59842800D01*
X162182896Y-59826272D01*
X162212069Y-59799930D01*
X162250971Y-59770887D01*
X162361757Y-59679039D01*
X162448351Y-59573759D01*
X162509716Y-59457266D01*
X162544815Y-59331776D01*
X162552608Y-59199507D01*
X162546943Y-59138457D01*
X162516078Y-59011795D01*
X162462920Y-58899941D01*
X162390767Y-58804001D01*
X162302917Y-58725076D01*
X162202665Y-58664270D01*
X162093310Y-58622687D01*
X161978147Y-58601428D01*
X161860475Y-58601599D01*
X161743590Y-58624301D01*
X161630789Y-58670638D01*
X161525369Y-58741713D01*
X161481368Y-58781911D01*
X161396979Y-58885129D01*
X161338222Y-58997925D01*
X161304704Y-59117010D01*
X161296035Y-59239095D01*
X161311823Y-59360893D01*
X161351678Y-59479116D01*
X161415207Y-59590475D01*
X161502021Y-59691684D01*
X161599029Y-59770887D01*
X161639437Y-59801162D01*
X161667982Y-59827219D01*
X161678257Y-59842825D01*
X161672877Y-59859843D01*
X161657575Y-59900500D01*
X161633612Y-59961642D01*
X161602244Y-60040119D01*
X161564732Y-60132780D01*
X161522333Y-60236472D01*
X161480663Y-60337526D01*
X161434690Y-60448607D01*
X161392107Y-60551541D01*
X161354221Y-60643165D01*
X161322340Y-60720316D01*
X161297771Y-60779831D01*
X161281820Y-60818544D01*
X161275910Y-60833000D01*
X161261948Y-60847685D01*
X161234940Y-60847642D01*
X161191413Y-60832099D01*
X161127890Y-60800284D01*
X161127388Y-60800013D01*
X161079560Y-60775323D01*
X161040897Y-60757338D01*
X161019095Y-60749614D01*
X161018133Y-60749543D01*
X161001721Y-60757378D01*
X160965487Y-60779165D01*
X160913474Y-60812328D01*
X160849725Y-60854291D01*
X160779060Y-60901943D01*
X160707116Y-60950191D01*
X160642274Y-60992151D01*
X160588735Y-61025227D01*
X160550697Y-61046821D01*
X160532533Y-61054343D01*
X160515808Y-61044457D01*
X160482180Y-61016826D01*
X160435010Y-60974495D01*
X160377658Y-60920505D01*
X160313484Y-60857899D01*
X160292497Y-60836983D01*
X160075499Y-60619623D01*
X160240668Y-60377220D01*
X160290864Y-60302781D01*
X160334919Y-60235972D01*
X160370362Y-60180665D01*
X160394719Y-60140729D01*
X160405522Y-60120036D01*
X160405838Y-60118563D01*
X160400143Y-60099058D01*
X160384826Y-60059822D01*
X160362537Y-60007430D01*
X160346893Y-59972355D01*
X160317641Y-59905201D01*
X160290094Y-59837358D01*
X160268737Y-59780034D01*
X160262935Y-59762572D01*
X160246452Y-59715938D01*
X160230340Y-59679905D01*
X160221490Y-59666287D01*
X160201960Y-59657952D01*
X160159334Y-59646137D01*
X160099145Y-59632181D01*
X160026922Y-59617422D01*
X159994600Y-59611355D01*
X159912522Y-59596273D01*
X159833795Y-59581669D01*
X159766109Y-59568980D01*
X159717160Y-59559642D01*
X159707943Y-59557839D01*
X159631743Y-59542799D01*
X159631743Y-59225492D01*
X159631914Y-59121154D01*
X159632616Y-59042213D01*
X159634134Y-58985038D01*
X159636749Y-58945999D01*
X159640746Y-58921465D01*
X159646409Y-58907805D01*
X159654020Y-58901389D01*
X159657143Y-58900199D01*
X159675978Y-58895980D01*
X159717588Y-58887562D01*
X159776630Y-58875961D01*
X159847757Y-58862195D01*
X159925625Y-58847280D01*
X160004887Y-58832232D01*
X160080198Y-58818069D01*
X160146213Y-58805806D01*
X160197587Y-58796461D01*
X160228975Y-58791050D01*
X160235959Y-58790114D01*
X160242285Y-58777596D01*
X160256290Y-58744246D01*
X160275355Y-58696377D01*
X160282634Y-58677629D01*
X160311996Y-58605195D01*
X160346571Y-58525170D01*
X160377537Y-58457728D01*
X160400323Y-58406159D01*
X160415482Y-58363785D01*
X160420542Y-58337834D01*
X160419736Y-58334356D01*
X160409041Y-58317936D01*
X160384620Y-58281417D01*
X160349095Y-58228687D01*
X160305087Y-58163635D01*
X160255217Y-58090151D01*
X160245356Y-58075645D01*
X160187492Y-57989704D01*
X160144956Y-57924261D01*
X160116054Y-57876304D01*
X160099090Y-57842820D01*
X160092367Y-57820795D01*
X160094190Y-57807217D01*
X160094236Y-57807131D01*
X160108586Y-57789297D01*
X160140323Y-57754817D01*
X160186010Y-57707268D01*
X160242204Y-57650222D01*
X160305468Y-57587255D01*
X160312602Y-57580227D01*
X160392330Y-57503020D01*
X160453857Y-57446330D01*
X160498421Y-57409110D01*
X160527257Y-57390315D01*
X160539958Y-57387889D01*
X160558494Y-57398471D01*
X160596961Y-57422916D01*
X160651386Y-57458612D01*
X160717798Y-57502947D01*
X160792225Y-57553311D01*
X160809601Y-57565160D01*
X161056297Y-57733626D01*
X161167706Y-57683062D01*
X161235457Y-57653595D01*
X161308183Y-57623959D01*
X161370703Y-57600330D01*
X161373457Y-57599358D01*
X161422360Y-57581457D01*
X161460057Y-57566320D01*
X161478425Y-57557210D01*
X161478456Y-57557184D01*
X161484285Y-57540717D01*
X161494192Y-57500219D01*
X161507195Y-57440242D01*
X161522309Y-57365340D01*
X161538552Y-57280064D01*
X161539881Y-57272875D01*
X161556175Y-57185014D01*
X161571133Y-57105260D01*
X161583791Y-57038681D01*
X161593186Y-56990347D01*
X161598354Y-56965325D01*
X161598444Y-56964943D01*
X161601589Y-56954299D01*
X161607704Y-56946262D01*
X161620453Y-56940467D01*
X161643500Y-56936547D01*
X161680509Y-56934135D01*
X161735144Y-56932865D01*
X161811067Y-56932371D01*
X161911944Y-56932286D01*
X161925000Y-56932286D01*
X162028910Y-56932348D01*
D10*
%TO.C,J2*%
X148530000Y-63560000D02*
X153730000Y-63560000D01*
X148530000Y-58420000D02*
X148530000Y-63560000D01*
X153730000Y-55820000D02*
X153730000Y-63560000D01*
X148530000Y-58420000D02*
X151130000Y-58420000D01*
X151130000Y-58420000D02*
X151130000Y-55820000D01*
X151130000Y-55820000D02*
X153730000Y-55820000D01*
X148530000Y-57150000D02*
X148530000Y-55820000D01*
X148530000Y-55820000D02*
X149860000Y-55820000D01*
%TO.C,Y1*%
X135840000Y-74310000D02*
X142090000Y-74310000D01*
X135840000Y-79360000D02*
X142090000Y-79360000D01*
X142090000Y-79360000D02*
G75*
G03*
X142090000Y-74310000I0J2525000D01*
G01*
X135840000Y-79360000D02*
G75*
G02*
X135840000Y-74310000I0J2525000D01*
G01*
D11*
%TO.C,U1*%
X129935000Y-57525000D02*
X129935000Y-57625000D01*
X129960000Y-63050000D02*
X129960000Y-63025000D01*
X125310000Y-63050000D02*
X125310000Y-63025000D01*
X124235000Y-57525000D02*
X129935000Y-57525000D01*
X125310000Y-63050000D02*
X129960000Y-63050000D01*
%TO.C,U2*%
X133535000Y-70935000D02*
X133760000Y-70935000D01*
X133535000Y-63685000D02*
X133860000Y-63685000D01*
X140785000Y-63685000D02*
X140460000Y-63685000D01*
X140785000Y-70935000D02*
X140460000Y-70935000D01*
X133535000Y-70935000D02*
X133535000Y-70610000D01*
X140785000Y-70935000D02*
X140785000Y-70610000D01*
X140785000Y-63685000D02*
X140785000Y-64010000D01*
X133535000Y-63685000D02*
X133535000Y-64010000D01*
X133760000Y-70935000D02*
X133760000Y-72360000D01*
D10*
%TO.C,R5*%
X125637936Y-76560000D02*
X127092064Y-76560000D01*
X125637936Y-78380000D02*
X127092064Y-78380000D01*
%TO.C,R1*%
X112937936Y-57510000D02*
X114392064Y-57510000D01*
X112937936Y-59330000D02*
X114392064Y-59330000D01*
%TO.C,R4*%
X119287936Y-76560000D02*
X120742064Y-76560000D01*
X119287936Y-78380000D02*
X120742064Y-78380000D01*
%TO.C,R6*%
X140877936Y-57510000D02*
X142332064Y-57510000D01*
X140877936Y-59330000D02*
X142332064Y-59330000D01*
%TO.C,R2*%
X119287936Y-65130000D02*
X120742064Y-65130000D01*
X119287936Y-66950000D02*
X120742064Y-66950000D01*
%TO.C,R3*%
X119287936Y-68940000D02*
X120742064Y-68940000D01*
X119287936Y-70760000D02*
X120742064Y-70760000D01*
%TO.C,R7*%
X145957936Y-68940000D02*
X147412064Y-68940000D01*
X145957936Y-70760000D02*
X147412064Y-70760000D01*
%TO.C,JP1*%
X149165000Y-79435000D02*
X151825000Y-79435000D01*
X149165000Y-76835000D02*
X149165000Y-79435000D01*
X151825000Y-76835000D02*
X151825000Y-79435000D01*
X149165000Y-76835000D02*
X151825000Y-76835000D01*
X149165000Y-75565000D02*
X149165000Y-74235000D01*
X149165000Y-74235000D02*
X150495000Y-74235000D01*
%TO.C,J1*%
X153555000Y-64640000D02*
X162675000Y-64640000D01*
X162675000Y-64640000D02*
X162675000Y-80140000D01*
X162675000Y-80140000D02*
X153555000Y-80140000D01*
X153555000Y-80140000D02*
X153555000Y-64640000D01*
X153555000Y-70340000D02*
X154865000Y-70340000D01*
X154865000Y-70340000D02*
X154865000Y-65940000D01*
X154865000Y-65940000D02*
X161365000Y-65940000D01*
X161365000Y-65940000D02*
X161365000Y-78840000D01*
X161365000Y-78840000D02*
X154865000Y-78840000D01*
X154865000Y-78840000D02*
X154865000Y-74440000D01*
X154865000Y-74440000D02*
X154865000Y-74440000D01*
X154865000Y-74440000D02*
X153555000Y-74440000D01*
X153165000Y-69850000D02*
X152165000Y-69350000D01*
X152165000Y-69350000D02*
X152165000Y-70350000D01*
X152165000Y-70350000D02*
X153165000Y-69850000D01*
%TO.C,FB1*%
X108042064Y-78380000D02*
X106587936Y-78380000D01*
X108042064Y-76560000D02*
X106587936Y-76560000D01*
%TO.C,D3*%
X108915000Y-57285000D02*
X104855000Y-57285000D01*
X104855000Y-57285000D02*
X104855000Y-59555000D01*
X104855000Y-59555000D02*
X108915000Y-59555000D01*
%TO.C,D2*%
X127965000Y-72525000D02*
X123905000Y-72525000D01*
X123905000Y-72525000D02*
X123905000Y-74795000D01*
X123905000Y-74795000D02*
X127965000Y-74795000D01*
%TO.C,D1*%
X121615000Y-72525000D02*
X117555000Y-72525000D01*
X117555000Y-72525000D02*
X117555000Y-74795000D01*
X117555000Y-74795000D02*
X121615000Y-74795000D01*
%TO.C,C9*%
X134543748Y-57510000D02*
X135966252Y-57510000D01*
X134543748Y-59330000D02*
X135966252Y-59330000D01*
%TO.C,C4*%
X115515000Y-77470000D02*
G75*
G03*
X115515000Y-77470000I-2120000J0D01*
G01*
X113395000Y-75390000D02*
X113395000Y-79550000D01*
X113435000Y-75390000D02*
X113435000Y-79550000D01*
X113475000Y-75391000D02*
X113475000Y-79549000D01*
X113515000Y-75393000D02*
X113515000Y-79547000D01*
X113555000Y-75396000D02*
X113555000Y-79544000D01*
X113595000Y-75399000D02*
X113595000Y-76630000D01*
X113595000Y-78310000D02*
X113595000Y-79541000D01*
X113635000Y-75403000D02*
X113635000Y-76630000D01*
X113635000Y-78310000D02*
X113635000Y-79537000D01*
X113675000Y-75408000D02*
X113675000Y-76630000D01*
X113675000Y-78310000D02*
X113675000Y-79532000D01*
X113715000Y-75414000D02*
X113715000Y-76630000D01*
X113715000Y-78310000D02*
X113715000Y-79526000D01*
X113755000Y-75420000D02*
X113755000Y-76630000D01*
X113755000Y-78310000D02*
X113755000Y-79520000D01*
X113795000Y-75428000D02*
X113795000Y-76630000D01*
X113795000Y-78310000D02*
X113795000Y-79512000D01*
X113835000Y-75436000D02*
X113835000Y-76630000D01*
X113835000Y-78310000D02*
X113835000Y-79504000D01*
X113875000Y-75445000D02*
X113875000Y-76630000D01*
X113875000Y-78310000D02*
X113875000Y-79495000D01*
X113915000Y-75454000D02*
X113915000Y-76630000D01*
X113915000Y-78310000D02*
X113915000Y-79486000D01*
X113955000Y-75465000D02*
X113955000Y-76630000D01*
X113955000Y-78310000D02*
X113955000Y-79475000D01*
X113995000Y-75476000D02*
X113995000Y-76630000D01*
X113995000Y-78310000D02*
X113995000Y-79464000D01*
X114035000Y-75488000D02*
X114035000Y-76630000D01*
X114035000Y-78310000D02*
X114035000Y-79452000D01*
X114075000Y-75502000D02*
X114075000Y-76630000D01*
X114075000Y-78310000D02*
X114075000Y-79438000D01*
X114116000Y-75516000D02*
X114116000Y-76630000D01*
X114116000Y-78310000D02*
X114116000Y-79424000D01*
X114156000Y-75530000D02*
X114156000Y-76630000D01*
X114156000Y-78310000D02*
X114156000Y-79410000D01*
X114196000Y-75546000D02*
X114196000Y-76630000D01*
X114196000Y-78310000D02*
X114196000Y-79394000D01*
X114236000Y-75563000D02*
X114236000Y-76630000D01*
X114236000Y-78310000D02*
X114236000Y-79377000D01*
X114276000Y-75581000D02*
X114276000Y-76630000D01*
X114276000Y-78310000D02*
X114276000Y-79359000D01*
X114316000Y-75600000D02*
X114316000Y-76630000D01*
X114316000Y-78310000D02*
X114316000Y-79340000D01*
X114356000Y-75619000D02*
X114356000Y-76630000D01*
X114356000Y-78310000D02*
X114356000Y-79321000D01*
X114396000Y-75640000D02*
X114396000Y-76630000D01*
X114396000Y-78310000D02*
X114396000Y-79300000D01*
X114436000Y-75662000D02*
X114436000Y-76630000D01*
X114436000Y-78310000D02*
X114436000Y-79278000D01*
X114476000Y-75685000D02*
X114476000Y-76630000D01*
X114476000Y-78310000D02*
X114476000Y-79255000D01*
X114516000Y-75710000D02*
X114516000Y-76630000D01*
X114516000Y-78310000D02*
X114516000Y-79230000D01*
X114556000Y-75735000D02*
X114556000Y-76630000D01*
X114556000Y-78310000D02*
X114556000Y-79205000D01*
X114596000Y-75762000D02*
X114596000Y-76630000D01*
X114596000Y-78310000D02*
X114596000Y-79178000D01*
X114636000Y-75790000D02*
X114636000Y-76630000D01*
X114636000Y-78310000D02*
X114636000Y-79150000D01*
X114676000Y-75820000D02*
X114676000Y-76630000D01*
X114676000Y-78310000D02*
X114676000Y-79120000D01*
X114716000Y-75851000D02*
X114716000Y-76630000D01*
X114716000Y-78310000D02*
X114716000Y-79089000D01*
X114756000Y-75883000D02*
X114756000Y-76630000D01*
X114756000Y-78310000D02*
X114756000Y-79057000D01*
X114796000Y-75918000D02*
X114796000Y-76630000D01*
X114796000Y-78310000D02*
X114796000Y-79022000D01*
X114836000Y-75954000D02*
X114836000Y-76630000D01*
X114836000Y-78310000D02*
X114836000Y-78986000D01*
X114876000Y-75992000D02*
X114876000Y-76630000D01*
X114876000Y-78310000D02*
X114876000Y-78948000D01*
X114916000Y-76032000D02*
X114916000Y-76630000D01*
X114916000Y-78310000D02*
X114916000Y-78908000D01*
X114956000Y-76074000D02*
X114956000Y-76630000D01*
X114956000Y-78310000D02*
X114956000Y-78866000D01*
X114996000Y-76119000D02*
X114996000Y-76630000D01*
X114996000Y-78310000D02*
X114996000Y-78821000D01*
X115036000Y-76166000D02*
X115036000Y-76630000D01*
X115036000Y-78310000D02*
X115036000Y-78774000D01*
X115076000Y-76216000D02*
X115076000Y-76630000D01*
X115076000Y-78310000D02*
X115076000Y-78724000D01*
X115116000Y-76270000D02*
X115116000Y-76630000D01*
X115116000Y-78310000D02*
X115116000Y-78670000D01*
X115156000Y-76328000D02*
X115156000Y-76630000D01*
X115156000Y-78310000D02*
X115156000Y-78612000D01*
X115196000Y-76390000D02*
X115196000Y-76630000D01*
X115196000Y-78310000D02*
X115196000Y-78550000D01*
X115236000Y-76457000D02*
X115236000Y-78483000D01*
X115276000Y-76530000D02*
X115276000Y-78410000D01*
X115316000Y-76611000D02*
X115316000Y-78329000D01*
X115356000Y-76702000D02*
X115356000Y-78238000D01*
X115396000Y-76806000D02*
X115396000Y-78134000D01*
X115436000Y-76933000D02*
X115436000Y-78007000D01*
X115476000Y-77100000D02*
X115476000Y-77840000D01*
X111125199Y-76275000D02*
X111525199Y-76275000D01*
X111325199Y-76075000D02*
X111325199Y-76475000D01*
%TO.C,C6*%
X119303748Y-61320000D02*
X120726252Y-61320000D01*
X119303748Y-63140000D02*
X120726252Y-63140000D01*
%TO.C,C1*%
X112953748Y-61320000D02*
X114376252Y-61320000D01*
X112953748Y-63140000D02*
X114376252Y-63140000D01*
%TO.C,C2*%
X112953748Y-65130000D02*
X114376252Y-65130000D01*
X112953748Y-66950000D02*
X114376252Y-66950000D01*
%TO.C,C3*%
X112953748Y-68940000D02*
X114376252Y-68940000D01*
X112953748Y-70760000D02*
X114376252Y-70760000D01*
%TO.C,C11*%
X147595000Y-76123748D02*
X147595000Y-77546252D01*
X145775000Y-76123748D02*
X145775000Y-77546252D01*
%TO.C,C10*%
X130535000Y-77546252D02*
X130535000Y-76123748D01*
X132355000Y-77546252D02*
X132355000Y-76123748D01*
%TO.C,C8*%
X125653748Y-68940000D02*
X127076252Y-68940000D01*
X125653748Y-70760000D02*
X127076252Y-70760000D01*
%TO.C,C7*%
X125653748Y-65130000D02*
X127076252Y-65130000D01*
X125653748Y-66950000D02*
X127076252Y-66950000D01*
%TO.C,C5*%
X119303748Y-57510000D02*
X120726252Y-57510000D01*
X119303748Y-59330000D02*
X120726252Y-59330000D01*
%TO.C,Y1*%
D11*
X138488809Y-73286190D02*
X138488809Y-73762380D01*
X138155476Y-72762380D02*
X138488809Y-73286190D01*
X138822142Y-72762380D01*
X139679285Y-73762380D02*
X139107857Y-73762380D01*
X139393571Y-73762380D02*
X139393571Y-72762380D01*
X139298333Y-72905238D01*
X139203095Y-73000476D01*
X139107857Y-73048095D01*
%TO.C,U1*%
X126873095Y-56127380D02*
X126873095Y-56936904D01*
X126920714Y-57032142D01*
X126968333Y-57079761D01*
X127063571Y-57127380D01*
X127254047Y-57127380D01*
X127349285Y-57079761D01*
X127396904Y-57032142D01*
X127444523Y-56936904D01*
X127444523Y-56127380D01*
X128444523Y-57127380D02*
X127873095Y-57127380D01*
X128158809Y-57127380D02*
X128158809Y-56127380D01*
X128063571Y-56270238D01*
X127968333Y-56365476D01*
X127873095Y-56413095D01*
%TO.C,U2*%
X130562380Y-68071904D02*
X131371904Y-68071904D01*
X131467142Y-68024285D01*
X131514761Y-67976666D01*
X131562380Y-67881428D01*
X131562380Y-67690952D01*
X131514761Y-67595714D01*
X131467142Y-67548095D01*
X131371904Y-67500476D01*
X130562380Y-67500476D01*
X130657619Y-67071904D02*
X130610000Y-67024285D01*
X130562380Y-66929047D01*
X130562380Y-66690952D01*
X130610000Y-66595714D01*
X130657619Y-66548095D01*
X130752857Y-66500476D01*
X130848095Y-66500476D01*
X130990952Y-66548095D01*
X131562380Y-67119523D01*
X131562380Y-66500476D01*
%TO.C,R5*%
X126198333Y-76102380D02*
X125865000Y-75626190D01*
X125626904Y-76102380D02*
X125626904Y-75102380D01*
X126007857Y-75102380D01*
X126103095Y-75150000D01*
X126150714Y-75197619D01*
X126198333Y-75292857D01*
X126198333Y-75435714D01*
X126150714Y-75530952D01*
X126103095Y-75578571D01*
X126007857Y-75626190D01*
X125626904Y-75626190D01*
X127103095Y-75102380D02*
X126626904Y-75102380D01*
X126579285Y-75578571D01*
X126626904Y-75530952D01*
X126722142Y-75483333D01*
X126960238Y-75483333D01*
X127055476Y-75530952D01*
X127103095Y-75578571D01*
X127150714Y-75673809D01*
X127150714Y-75911904D01*
X127103095Y-76007142D01*
X127055476Y-76054761D01*
X126960238Y-76102380D01*
X126722142Y-76102380D01*
X126626904Y-76054761D01*
X126579285Y-76007142D01*
%TO.C,R1*%
X113498333Y-57052380D02*
X113165000Y-56576190D01*
X112926904Y-57052380D02*
X112926904Y-56052380D01*
X113307857Y-56052380D01*
X113403095Y-56100000D01*
X113450714Y-56147619D01*
X113498333Y-56242857D01*
X113498333Y-56385714D01*
X113450714Y-56480952D01*
X113403095Y-56528571D01*
X113307857Y-56576190D01*
X112926904Y-56576190D01*
X114450714Y-57052380D02*
X113879285Y-57052380D01*
X114165000Y-57052380D02*
X114165000Y-56052380D01*
X114069761Y-56195238D01*
X113974523Y-56290476D01*
X113879285Y-56338095D01*
%TO.C,R4*%
X119848333Y-76102380D02*
X119515000Y-75626190D01*
X119276904Y-76102380D02*
X119276904Y-75102380D01*
X119657857Y-75102380D01*
X119753095Y-75150000D01*
X119800714Y-75197619D01*
X119848333Y-75292857D01*
X119848333Y-75435714D01*
X119800714Y-75530952D01*
X119753095Y-75578571D01*
X119657857Y-75626190D01*
X119276904Y-75626190D01*
X120705476Y-75435714D02*
X120705476Y-76102380D01*
X120467380Y-75054761D02*
X120229285Y-75769047D01*
X120848333Y-75769047D01*
%TO.C,R6*%
X141438333Y-57052380D02*
X141105000Y-56576190D01*
X140866904Y-57052380D02*
X140866904Y-56052380D01*
X141247857Y-56052380D01*
X141343095Y-56100000D01*
X141390714Y-56147619D01*
X141438333Y-56242857D01*
X141438333Y-56385714D01*
X141390714Y-56480952D01*
X141343095Y-56528571D01*
X141247857Y-56576190D01*
X140866904Y-56576190D01*
X142295476Y-56052380D02*
X142105000Y-56052380D01*
X142009761Y-56100000D01*
X141962142Y-56147619D01*
X141866904Y-56290476D01*
X141819285Y-56480952D01*
X141819285Y-56861904D01*
X141866904Y-56957142D01*
X141914523Y-57004761D01*
X142009761Y-57052380D01*
X142200238Y-57052380D01*
X142295476Y-57004761D01*
X142343095Y-56957142D01*
X142390714Y-56861904D01*
X142390714Y-56623809D01*
X142343095Y-56528571D01*
X142295476Y-56480952D01*
X142200238Y-56433333D01*
X142009761Y-56433333D01*
X141914523Y-56480952D01*
X141866904Y-56528571D01*
X141819285Y-56623809D01*
%TO.C,R2*%
X119848333Y-64672380D02*
X119515000Y-64196190D01*
X119276904Y-64672380D02*
X119276904Y-63672380D01*
X119657857Y-63672380D01*
X119753095Y-63720000D01*
X119800714Y-63767619D01*
X119848333Y-63862857D01*
X119848333Y-64005714D01*
X119800714Y-64100952D01*
X119753095Y-64148571D01*
X119657857Y-64196190D01*
X119276904Y-64196190D01*
X120229285Y-63767619D02*
X120276904Y-63720000D01*
X120372142Y-63672380D01*
X120610238Y-63672380D01*
X120705476Y-63720000D01*
X120753095Y-63767619D01*
X120800714Y-63862857D01*
X120800714Y-63958095D01*
X120753095Y-64100952D01*
X120181666Y-64672380D01*
X120800714Y-64672380D01*
%TO.C,R3*%
X119848333Y-68482380D02*
X119515000Y-68006190D01*
X119276904Y-68482380D02*
X119276904Y-67482380D01*
X119657857Y-67482380D01*
X119753095Y-67530000D01*
X119800714Y-67577619D01*
X119848333Y-67672857D01*
X119848333Y-67815714D01*
X119800714Y-67910952D01*
X119753095Y-67958571D01*
X119657857Y-68006190D01*
X119276904Y-68006190D01*
X120181666Y-67482380D02*
X120800714Y-67482380D01*
X120467380Y-67863333D01*
X120610238Y-67863333D01*
X120705476Y-67910952D01*
X120753095Y-67958571D01*
X120800714Y-68053809D01*
X120800714Y-68291904D01*
X120753095Y-68387142D01*
X120705476Y-68434761D01*
X120610238Y-68482380D01*
X120324523Y-68482380D01*
X120229285Y-68434761D01*
X120181666Y-68387142D01*
%TO.C,R7*%
X146518333Y-68397380D02*
X146185000Y-67921190D01*
X145946904Y-68397380D02*
X145946904Y-67397380D01*
X146327857Y-67397380D01*
X146423095Y-67445000D01*
X146470714Y-67492619D01*
X146518333Y-67587857D01*
X146518333Y-67730714D01*
X146470714Y-67825952D01*
X146423095Y-67873571D01*
X146327857Y-67921190D01*
X145946904Y-67921190D01*
X146851666Y-67397380D02*
X147518333Y-67397380D01*
X147089761Y-68397380D01*
%TO.C,JP1*%
X149661666Y-72687380D02*
X149661666Y-73401666D01*
X149614047Y-73544523D01*
X149518809Y-73639761D01*
X149375952Y-73687380D01*
X149280714Y-73687380D01*
X150137857Y-73687380D02*
X150137857Y-72687380D01*
X150518809Y-72687380D01*
X150614047Y-72735000D01*
X150661666Y-72782619D01*
X150709285Y-72877857D01*
X150709285Y-73020714D01*
X150661666Y-73115952D01*
X150614047Y-73163571D01*
X150518809Y-73211190D01*
X150137857Y-73211190D01*
X151661666Y-73687380D02*
X151090238Y-73687380D01*
X151375952Y-73687380D02*
X151375952Y-72687380D01*
X151280714Y-72830238D01*
X151185476Y-72925476D01*
X151090238Y-72973095D01*
%TO.C,FB1*%
X106481666Y-75493571D02*
X106148333Y-75493571D01*
X106148333Y-76017380D02*
X106148333Y-75017380D01*
X106624523Y-75017380D01*
X107338809Y-75493571D02*
X107481666Y-75541190D01*
X107529285Y-75588809D01*
X107576904Y-75684047D01*
X107576904Y-75826904D01*
X107529285Y-75922142D01*
X107481666Y-75969761D01*
X107386428Y-76017380D01*
X107005476Y-76017380D01*
X107005476Y-75017380D01*
X107338809Y-75017380D01*
X107434047Y-75065000D01*
X107481666Y-75112619D01*
X107529285Y-75207857D01*
X107529285Y-75303095D01*
X107481666Y-75398333D01*
X107434047Y-75445952D01*
X107338809Y-75493571D01*
X107005476Y-75493571D01*
X108529285Y-76017380D02*
X107957857Y-76017380D01*
X108243571Y-76017380D02*
X108243571Y-75017380D01*
X108148333Y-75160238D01*
X108053095Y-75255476D01*
X107957857Y-75303095D01*
%TO.C,C9*%
X135088333Y-56927142D02*
X135040714Y-56974761D01*
X134897857Y-57022380D01*
X134802619Y-57022380D01*
X134659761Y-56974761D01*
X134564523Y-56879523D01*
X134516904Y-56784285D01*
X134469285Y-56593809D01*
X134469285Y-56450952D01*
X134516904Y-56260476D01*
X134564523Y-56165238D01*
X134659761Y-56070000D01*
X134802619Y-56022380D01*
X134897857Y-56022380D01*
X135040714Y-56070000D01*
X135088333Y-56117619D01*
X135564523Y-57022380D02*
X135755000Y-57022380D01*
X135850238Y-56974761D01*
X135897857Y-56927142D01*
X135993095Y-56784285D01*
X136040714Y-56593809D01*
X136040714Y-56212857D01*
X135993095Y-56117619D01*
X135945476Y-56070000D01*
X135850238Y-56022380D01*
X135659761Y-56022380D01*
X135564523Y-56070000D01*
X135516904Y-56117619D01*
X135469285Y-56212857D01*
X135469285Y-56450952D01*
X135516904Y-56546190D01*
X135564523Y-56593809D01*
X135659761Y-56641428D01*
X135850238Y-56641428D01*
X135945476Y-56593809D01*
X135993095Y-56546190D01*
X136040714Y-56450952D01*
%TO.C,C4*%
X113228333Y-74577142D02*
X113180714Y-74624761D01*
X113037857Y-74672380D01*
X112942619Y-74672380D01*
X112799761Y-74624761D01*
X112704523Y-74529523D01*
X112656904Y-74434285D01*
X112609285Y-74243809D01*
X112609285Y-74100952D01*
X112656904Y-73910476D01*
X112704523Y-73815238D01*
X112799761Y-73720000D01*
X112942619Y-73672380D01*
X113037857Y-73672380D01*
X113180714Y-73720000D01*
X113228333Y-73767619D01*
X114085476Y-74005714D02*
X114085476Y-74672380D01*
X113847380Y-73624761D02*
X113609285Y-74339047D01*
X114228333Y-74339047D01*
%TO.C,C6*%
X119848333Y-60737142D02*
X119800714Y-60784761D01*
X119657857Y-60832380D01*
X119562619Y-60832380D01*
X119419761Y-60784761D01*
X119324523Y-60689523D01*
X119276904Y-60594285D01*
X119229285Y-60403809D01*
X119229285Y-60260952D01*
X119276904Y-60070476D01*
X119324523Y-59975238D01*
X119419761Y-59880000D01*
X119562619Y-59832380D01*
X119657857Y-59832380D01*
X119800714Y-59880000D01*
X119848333Y-59927619D01*
X120705476Y-59832380D02*
X120515000Y-59832380D01*
X120419761Y-59880000D01*
X120372142Y-59927619D01*
X120276904Y-60070476D01*
X120229285Y-60260952D01*
X120229285Y-60641904D01*
X120276904Y-60737142D01*
X120324523Y-60784761D01*
X120419761Y-60832380D01*
X120610238Y-60832380D01*
X120705476Y-60784761D01*
X120753095Y-60737142D01*
X120800714Y-60641904D01*
X120800714Y-60403809D01*
X120753095Y-60308571D01*
X120705476Y-60260952D01*
X120610238Y-60213333D01*
X120419761Y-60213333D01*
X120324523Y-60260952D01*
X120276904Y-60308571D01*
X120229285Y-60403809D01*
%TO.C,C1*%
X113498333Y-60737142D02*
X113450714Y-60784761D01*
X113307857Y-60832380D01*
X113212619Y-60832380D01*
X113069761Y-60784761D01*
X112974523Y-60689523D01*
X112926904Y-60594285D01*
X112879285Y-60403809D01*
X112879285Y-60260952D01*
X112926904Y-60070476D01*
X112974523Y-59975238D01*
X113069761Y-59880000D01*
X113212619Y-59832380D01*
X113307857Y-59832380D01*
X113450714Y-59880000D01*
X113498333Y-59927619D01*
X114450714Y-60832380D02*
X113879285Y-60832380D01*
X114165000Y-60832380D02*
X114165000Y-59832380D01*
X114069761Y-59975238D01*
X113974523Y-60070476D01*
X113879285Y-60118095D01*
%TO.C,C2*%
X113498333Y-64547142D02*
X113450714Y-64594761D01*
X113307857Y-64642380D01*
X113212619Y-64642380D01*
X113069761Y-64594761D01*
X112974523Y-64499523D01*
X112926904Y-64404285D01*
X112879285Y-64213809D01*
X112879285Y-64070952D01*
X112926904Y-63880476D01*
X112974523Y-63785238D01*
X113069761Y-63690000D01*
X113212619Y-63642380D01*
X113307857Y-63642380D01*
X113450714Y-63690000D01*
X113498333Y-63737619D01*
X113879285Y-63737619D02*
X113926904Y-63690000D01*
X114022142Y-63642380D01*
X114260238Y-63642380D01*
X114355476Y-63690000D01*
X114403095Y-63737619D01*
X114450714Y-63832857D01*
X114450714Y-63928095D01*
X114403095Y-64070952D01*
X113831666Y-64642380D01*
X114450714Y-64642380D01*
%TO.C,C3*%
X113498333Y-68357142D02*
X113450714Y-68404761D01*
X113307857Y-68452380D01*
X113212619Y-68452380D01*
X113069761Y-68404761D01*
X112974523Y-68309523D01*
X112926904Y-68214285D01*
X112879285Y-68023809D01*
X112879285Y-67880952D01*
X112926904Y-67690476D01*
X112974523Y-67595238D01*
X113069761Y-67500000D01*
X113212619Y-67452380D01*
X113307857Y-67452380D01*
X113450714Y-67500000D01*
X113498333Y-67547619D01*
X113831666Y-67452380D02*
X114450714Y-67452380D01*
X114117380Y-67833333D01*
X114260238Y-67833333D01*
X114355476Y-67880952D01*
X114403095Y-67928571D01*
X114450714Y-68023809D01*
X114450714Y-68261904D01*
X114403095Y-68357142D01*
X114355476Y-68404761D01*
X114260238Y-68452380D01*
X113974523Y-68452380D01*
X113879285Y-68404761D01*
X113831666Y-68357142D01*
%TO.C,C11*%
X146042142Y-74017142D02*
X145994523Y-74064761D01*
X145851666Y-74112380D01*
X145756428Y-74112380D01*
X145613571Y-74064761D01*
X145518333Y-73969523D01*
X145470714Y-73874285D01*
X145423095Y-73683809D01*
X145423095Y-73540952D01*
X145470714Y-73350476D01*
X145518333Y-73255238D01*
X145613571Y-73160000D01*
X145756428Y-73112380D01*
X145851666Y-73112380D01*
X145994523Y-73160000D01*
X146042142Y-73207619D01*
X146994523Y-74112380D02*
X146423095Y-74112380D01*
X146708809Y-74112380D02*
X146708809Y-73112380D01*
X146613571Y-73255238D01*
X146518333Y-73350476D01*
X146423095Y-73398095D01*
X147946904Y-74112380D02*
X147375476Y-74112380D01*
X147661190Y-74112380D02*
X147661190Y-73112380D01*
X147565952Y-73255238D01*
X147470714Y-73350476D01*
X147375476Y-73398095D01*
%TO.C,C10*%
X130802142Y-74017142D02*
X130754523Y-74064761D01*
X130611666Y-74112380D01*
X130516428Y-74112380D01*
X130373571Y-74064761D01*
X130278333Y-73969523D01*
X130230714Y-73874285D01*
X130183095Y-73683809D01*
X130183095Y-73540952D01*
X130230714Y-73350476D01*
X130278333Y-73255238D01*
X130373571Y-73160000D01*
X130516428Y-73112380D01*
X130611666Y-73112380D01*
X130754523Y-73160000D01*
X130802142Y-73207619D01*
X131754523Y-74112380D02*
X131183095Y-74112380D01*
X131468809Y-74112380D02*
X131468809Y-73112380D01*
X131373571Y-73255238D01*
X131278333Y-73350476D01*
X131183095Y-73398095D01*
X132373571Y-73112380D02*
X132468809Y-73112380D01*
X132564047Y-73160000D01*
X132611666Y-73207619D01*
X132659285Y-73302857D01*
X132706904Y-73493333D01*
X132706904Y-73731428D01*
X132659285Y-73921904D01*
X132611666Y-74017142D01*
X132564047Y-74064761D01*
X132468809Y-74112380D01*
X132373571Y-74112380D01*
X132278333Y-74064761D01*
X132230714Y-74017142D01*
X132183095Y-73921904D01*
X132135476Y-73731428D01*
X132135476Y-73493333D01*
X132183095Y-73302857D01*
X132230714Y-73207619D01*
X132278333Y-73160000D01*
X132373571Y-73112380D01*
%TO.C,C8*%
X126198333Y-68357142D02*
X126150714Y-68404761D01*
X126007857Y-68452380D01*
X125912619Y-68452380D01*
X125769761Y-68404761D01*
X125674523Y-68309523D01*
X125626904Y-68214285D01*
X125579285Y-68023809D01*
X125579285Y-67880952D01*
X125626904Y-67690476D01*
X125674523Y-67595238D01*
X125769761Y-67500000D01*
X125912619Y-67452380D01*
X126007857Y-67452380D01*
X126150714Y-67500000D01*
X126198333Y-67547619D01*
X126769761Y-67880952D02*
X126674523Y-67833333D01*
X126626904Y-67785714D01*
X126579285Y-67690476D01*
X126579285Y-67642857D01*
X126626904Y-67547619D01*
X126674523Y-67500000D01*
X126769761Y-67452380D01*
X126960238Y-67452380D01*
X127055476Y-67500000D01*
X127103095Y-67547619D01*
X127150714Y-67642857D01*
X127150714Y-67690476D01*
X127103095Y-67785714D01*
X127055476Y-67833333D01*
X126960238Y-67880952D01*
X126769761Y-67880952D01*
X126674523Y-67928571D01*
X126626904Y-67976190D01*
X126579285Y-68071428D01*
X126579285Y-68261904D01*
X126626904Y-68357142D01*
X126674523Y-68404761D01*
X126769761Y-68452380D01*
X126960238Y-68452380D01*
X127055476Y-68404761D01*
X127103095Y-68357142D01*
X127150714Y-68261904D01*
X127150714Y-68071428D01*
X127103095Y-67976190D01*
X127055476Y-67928571D01*
X126960238Y-67880952D01*
%TO.C,C7*%
X126198333Y-64547142D02*
X126150714Y-64594761D01*
X126007857Y-64642380D01*
X125912619Y-64642380D01*
X125769761Y-64594761D01*
X125674523Y-64499523D01*
X125626904Y-64404285D01*
X125579285Y-64213809D01*
X125579285Y-64070952D01*
X125626904Y-63880476D01*
X125674523Y-63785238D01*
X125769761Y-63690000D01*
X125912619Y-63642380D01*
X126007857Y-63642380D01*
X126150714Y-63690000D01*
X126198333Y-63737619D01*
X126531666Y-63642380D02*
X127198333Y-63642380D01*
X126769761Y-64642380D01*
%TO.C,C5*%
X119848333Y-56927142D02*
X119800714Y-56974761D01*
X119657857Y-57022380D01*
X119562619Y-57022380D01*
X119419761Y-56974761D01*
X119324523Y-56879523D01*
X119276904Y-56784285D01*
X119229285Y-56593809D01*
X119229285Y-56450952D01*
X119276904Y-56260476D01*
X119324523Y-56165238D01*
X119419761Y-56070000D01*
X119562619Y-56022380D01*
X119657857Y-56022380D01*
X119800714Y-56070000D01*
X119848333Y-56117619D01*
X120753095Y-56022380D02*
X120276904Y-56022380D01*
X120229285Y-56498571D01*
X120276904Y-56450952D01*
X120372142Y-56403333D01*
X120610238Y-56403333D01*
X120705476Y-56450952D01*
X120753095Y-56498571D01*
X120800714Y-56593809D01*
X120800714Y-56831904D01*
X120753095Y-56927142D01*
X120705476Y-56974761D01*
X120610238Y-57022380D01*
X120372142Y-57022380D01*
X120276904Y-56974761D01*
X120229285Y-56927142D01*
%TD*%
M02*
