%TF.GenerationSoftware,KiCad,Pcbnew,(5.1.10-0-10_14)*%
%TF.CreationDate,2021-11-02T10:24:53+01:00*%
%TF.ProjectId,UPDI_programmer,55504449-5f70-4726-9f67-72616d6d6572,rev?*%
%TF.SameCoordinates,Original*%
%TF.FileFunction,Soldermask,Top*%
%TF.FilePolarity,Negative*%
%FSLAX46Y46*%
G04 Gerber Fmt 4.6, Leading zero omitted, Abs format (unit mm)*
G04 Created by KiCad (PCBNEW (5.1.10-0-10_14)) date 2021-11-02 10:24:53*
%MOMM*%
%LPD*%
G01*
G04 APERTURE LIST*
%ADD10C,3.500000*%
%ADD11C,1.700000*%
%ADD12R,1.700000X1.700000*%
%ADD13O,1.700000X1.700000*%
%ADD14C,1.500000*%
%ADD15R,1.000000X0.400000*%
%ADD16R,1.600000X0.550000*%
%ADD17R,0.550000X1.600000*%
%ADD18C,1.200000*%
%ADD19R,1.200000X1.200000*%
G04 APERTURE END LIST*
D10*
%TO.C,J3*%
X103240000Y-61945000D03*
X103240000Y-73985000D03*
D11*
X105950000Y-69215000D03*
X105950000Y-66715000D03*
X107950000Y-66715000D03*
D12*
X107950000Y-69215000D03*
%TD*%
D13*
%TO.C,J2*%
X152400000Y-62230000D03*
X149860000Y-62230000D03*
X152400000Y-59690000D03*
X149860000Y-59690000D03*
X152400000Y-57150000D03*
D12*
X149860000Y-57150000D03*
%TD*%
D14*
%TO.C,Y1*%
X141405000Y-76835000D03*
X136525000Y-76835000D03*
%TD*%
D15*
%TO.C,U1*%
X130535000Y-58050000D03*
X130535000Y-58700000D03*
X130535000Y-59350000D03*
X130535000Y-60000000D03*
X130535000Y-60650000D03*
X130535000Y-61300000D03*
X130535000Y-61950000D03*
X130535000Y-62600000D03*
X124735000Y-62600000D03*
X124735000Y-61950000D03*
X124735000Y-61300000D03*
X124735000Y-60650000D03*
X124735000Y-60000000D03*
X124735000Y-59350000D03*
X124735000Y-58700000D03*
X124735000Y-58050000D03*
%TD*%
D16*
%TO.C,U2*%
X132910000Y-70110000D03*
X132910000Y-69310000D03*
X132910000Y-68510000D03*
X132910000Y-67710000D03*
X132910000Y-66910000D03*
X132910000Y-66110000D03*
X132910000Y-65310000D03*
X132910000Y-64510000D03*
D17*
X134360000Y-63060000D03*
X135160000Y-63060000D03*
X135960000Y-63060000D03*
X136760000Y-63060000D03*
X137560000Y-63060000D03*
X138360000Y-63060000D03*
X139160000Y-63060000D03*
X139960000Y-63060000D03*
D16*
X141410000Y-64510000D03*
X141410000Y-65310000D03*
X141410000Y-66110000D03*
X141410000Y-66910000D03*
X141410000Y-67710000D03*
X141410000Y-68510000D03*
X141410000Y-69310000D03*
X141410000Y-70110000D03*
D17*
X139960000Y-71560000D03*
X139160000Y-71560000D03*
X138360000Y-71560000D03*
X137560000Y-71560000D03*
X136760000Y-71560000D03*
X135960000Y-71560000D03*
X135160000Y-71560000D03*
X134360000Y-71560000D03*
%TD*%
%TO.C,R5*%
G36*
G01*
X127265000Y-78095000D02*
X127265000Y-76845000D01*
G75*
G02*
X127515000Y-76595000I250000J0D01*
G01*
X128315000Y-76595000D01*
G75*
G02*
X128565000Y-76845000I0J-250000D01*
G01*
X128565000Y-78095000D01*
G75*
G02*
X128315000Y-78345000I-250000J0D01*
G01*
X127515000Y-78345000D01*
G75*
G02*
X127265000Y-78095000I0J250000D01*
G01*
G37*
G36*
G01*
X124165000Y-78095000D02*
X124165000Y-76845000D01*
G75*
G02*
X124415000Y-76595000I250000J0D01*
G01*
X125215000Y-76595000D01*
G75*
G02*
X125465000Y-76845000I0J-250000D01*
G01*
X125465000Y-78095000D01*
G75*
G02*
X125215000Y-78345000I-250000J0D01*
G01*
X124415000Y-78345000D01*
G75*
G02*
X124165000Y-78095000I0J250000D01*
G01*
G37*
%TD*%
%TO.C,R1*%
G36*
G01*
X114565000Y-59045000D02*
X114565000Y-57795000D01*
G75*
G02*
X114815000Y-57545000I250000J0D01*
G01*
X115615000Y-57545000D01*
G75*
G02*
X115865000Y-57795000I0J-250000D01*
G01*
X115865000Y-59045000D01*
G75*
G02*
X115615000Y-59295000I-250000J0D01*
G01*
X114815000Y-59295000D01*
G75*
G02*
X114565000Y-59045000I0J250000D01*
G01*
G37*
G36*
G01*
X111465000Y-59045000D02*
X111465000Y-57795000D01*
G75*
G02*
X111715000Y-57545000I250000J0D01*
G01*
X112515000Y-57545000D01*
G75*
G02*
X112765000Y-57795000I0J-250000D01*
G01*
X112765000Y-59045000D01*
G75*
G02*
X112515000Y-59295000I-250000J0D01*
G01*
X111715000Y-59295000D01*
G75*
G02*
X111465000Y-59045000I0J250000D01*
G01*
G37*
%TD*%
%TO.C,R4*%
G36*
G01*
X120915000Y-78095000D02*
X120915000Y-76845000D01*
G75*
G02*
X121165000Y-76595000I250000J0D01*
G01*
X121965000Y-76595000D01*
G75*
G02*
X122215000Y-76845000I0J-250000D01*
G01*
X122215000Y-78095000D01*
G75*
G02*
X121965000Y-78345000I-250000J0D01*
G01*
X121165000Y-78345000D01*
G75*
G02*
X120915000Y-78095000I0J250000D01*
G01*
G37*
G36*
G01*
X117815000Y-78095000D02*
X117815000Y-76845000D01*
G75*
G02*
X118065000Y-76595000I250000J0D01*
G01*
X118865000Y-76595000D01*
G75*
G02*
X119115000Y-76845000I0J-250000D01*
G01*
X119115000Y-78095000D01*
G75*
G02*
X118865000Y-78345000I-250000J0D01*
G01*
X118065000Y-78345000D01*
G75*
G02*
X117815000Y-78095000I0J250000D01*
G01*
G37*
%TD*%
%TO.C,R6*%
G36*
G01*
X142505000Y-59045000D02*
X142505000Y-57795000D01*
G75*
G02*
X142755000Y-57545000I250000J0D01*
G01*
X143555000Y-57545000D01*
G75*
G02*
X143805000Y-57795000I0J-250000D01*
G01*
X143805000Y-59045000D01*
G75*
G02*
X143555000Y-59295000I-250000J0D01*
G01*
X142755000Y-59295000D01*
G75*
G02*
X142505000Y-59045000I0J250000D01*
G01*
G37*
G36*
G01*
X139405000Y-59045000D02*
X139405000Y-57795000D01*
G75*
G02*
X139655000Y-57545000I250000J0D01*
G01*
X140455000Y-57545000D01*
G75*
G02*
X140705000Y-57795000I0J-250000D01*
G01*
X140705000Y-59045000D01*
G75*
G02*
X140455000Y-59295000I-250000J0D01*
G01*
X139655000Y-59295000D01*
G75*
G02*
X139405000Y-59045000I0J250000D01*
G01*
G37*
%TD*%
%TO.C,R2*%
G36*
G01*
X120915000Y-66665000D02*
X120915000Y-65415000D01*
G75*
G02*
X121165000Y-65165000I250000J0D01*
G01*
X121965000Y-65165000D01*
G75*
G02*
X122215000Y-65415000I0J-250000D01*
G01*
X122215000Y-66665000D01*
G75*
G02*
X121965000Y-66915000I-250000J0D01*
G01*
X121165000Y-66915000D01*
G75*
G02*
X120915000Y-66665000I0J250000D01*
G01*
G37*
G36*
G01*
X117815000Y-66665000D02*
X117815000Y-65415000D01*
G75*
G02*
X118065000Y-65165000I250000J0D01*
G01*
X118865000Y-65165000D01*
G75*
G02*
X119115000Y-65415000I0J-250000D01*
G01*
X119115000Y-66665000D01*
G75*
G02*
X118865000Y-66915000I-250000J0D01*
G01*
X118065000Y-66915000D01*
G75*
G02*
X117815000Y-66665000I0J250000D01*
G01*
G37*
%TD*%
%TO.C,R3*%
G36*
G01*
X120915000Y-70475000D02*
X120915000Y-69225000D01*
G75*
G02*
X121165000Y-68975000I250000J0D01*
G01*
X121965000Y-68975000D01*
G75*
G02*
X122215000Y-69225000I0J-250000D01*
G01*
X122215000Y-70475000D01*
G75*
G02*
X121965000Y-70725000I-250000J0D01*
G01*
X121165000Y-70725000D01*
G75*
G02*
X120915000Y-70475000I0J250000D01*
G01*
G37*
G36*
G01*
X117815000Y-70475000D02*
X117815000Y-69225000D01*
G75*
G02*
X118065000Y-68975000I250000J0D01*
G01*
X118865000Y-68975000D01*
G75*
G02*
X119115000Y-69225000I0J-250000D01*
G01*
X119115000Y-70475000D01*
G75*
G02*
X118865000Y-70725000I-250000J0D01*
G01*
X118065000Y-70725000D01*
G75*
G02*
X117815000Y-70475000I0J250000D01*
G01*
G37*
%TD*%
%TO.C,R7*%
G36*
G01*
X147585000Y-70475000D02*
X147585000Y-69225000D01*
G75*
G02*
X147835000Y-68975000I250000J0D01*
G01*
X148635000Y-68975000D01*
G75*
G02*
X148885000Y-69225000I0J-250000D01*
G01*
X148885000Y-70475000D01*
G75*
G02*
X148635000Y-70725000I-250000J0D01*
G01*
X147835000Y-70725000D01*
G75*
G02*
X147585000Y-70475000I0J250000D01*
G01*
G37*
G36*
G01*
X144485000Y-70475000D02*
X144485000Y-69225000D01*
G75*
G02*
X144735000Y-68975000I250000J0D01*
G01*
X145535000Y-68975000D01*
G75*
G02*
X145785000Y-69225000I0J-250000D01*
G01*
X145785000Y-70475000D01*
G75*
G02*
X145535000Y-70725000I-250000J0D01*
G01*
X144735000Y-70725000D01*
G75*
G02*
X144485000Y-70475000I0J250000D01*
G01*
G37*
%TD*%
D13*
%TO.C,JP1*%
X150495000Y-78105000D03*
D12*
X150495000Y-75565000D03*
%TD*%
D11*
%TO.C,J1*%
X159385000Y-74930000D03*
X159385000Y-72390000D03*
X159385000Y-69850000D03*
X156845000Y-74930000D03*
X156845000Y-72390000D03*
G36*
G01*
X155995000Y-70450000D02*
X155995000Y-69250000D01*
G75*
G02*
X156245000Y-69000000I250000J0D01*
G01*
X157445000Y-69000000D01*
G75*
G02*
X157695000Y-69250000I0J-250000D01*
G01*
X157695000Y-70450000D01*
G75*
G02*
X157445000Y-70700000I-250000J0D01*
G01*
X156245000Y-70700000D01*
G75*
G02*
X155995000Y-70450000I0J250000D01*
G01*
G37*
%TD*%
%TO.C,FB1*%
G36*
G01*
X106415000Y-76845000D02*
X106415000Y-78095000D01*
G75*
G02*
X106165000Y-78345000I-250000J0D01*
G01*
X105365000Y-78345000D01*
G75*
G02*
X105115000Y-78095000I0J250000D01*
G01*
X105115000Y-76845000D01*
G75*
G02*
X105365000Y-76595000I250000J0D01*
G01*
X106165000Y-76595000D01*
G75*
G02*
X106415000Y-76845000I0J-250000D01*
G01*
G37*
G36*
G01*
X109515000Y-76845000D02*
X109515000Y-78095000D01*
G75*
G02*
X109265000Y-78345000I-250000J0D01*
G01*
X108465000Y-78345000D01*
G75*
G02*
X108215000Y-78095000I0J250000D01*
G01*
X108215000Y-76845000D01*
G75*
G02*
X108465000Y-76595000I250000J0D01*
G01*
X109265000Y-76595000D01*
G75*
G02*
X109515000Y-76845000I0J-250000D01*
G01*
G37*
%TD*%
%TO.C,D3*%
G36*
G01*
X108090000Y-59045000D02*
X108090000Y-57795000D01*
G75*
G02*
X108340000Y-57545000I250000J0D01*
G01*
X109265000Y-57545000D01*
G75*
G02*
X109515000Y-57795000I0J-250000D01*
G01*
X109515000Y-59045000D01*
G75*
G02*
X109265000Y-59295000I-250000J0D01*
G01*
X108340000Y-59295000D01*
G75*
G02*
X108090000Y-59045000I0J250000D01*
G01*
G37*
G36*
G01*
X105115000Y-59045000D02*
X105115000Y-57795000D01*
G75*
G02*
X105365000Y-57545000I250000J0D01*
G01*
X106290000Y-57545000D01*
G75*
G02*
X106540000Y-57795000I0J-250000D01*
G01*
X106540000Y-59045000D01*
G75*
G02*
X106290000Y-59295000I-250000J0D01*
G01*
X105365000Y-59295000D01*
G75*
G02*
X105115000Y-59045000I0J250000D01*
G01*
G37*
%TD*%
%TO.C,D2*%
G36*
G01*
X127140000Y-74285000D02*
X127140000Y-73035000D01*
G75*
G02*
X127390000Y-72785000I250000J0D01*
G01*
X128315000Y-72785000D01*
G75*
G02*
X128565000Y-73035000I0J-250000D01*
G01*
X128565000Y-74285000D01*
G75*
G02*
X128315000Y-74535000I-250000J0D01*
G01*
X127390000Y-74535000D01*
G75*
G02*
X127140000Y-74285000I0J250000D01*
G01*
G37*
G36*
G01*
X124165000Y-74285000D02*
X124165000Y-73035000D01*
G75*
G02*
X124415000Y-72785000I250000J0D01*
G01*
X125340000Y-72785000D01*
G75*
G02*
X125590000Y-73035000I0J-250000D01*
G01*
X125590000Y-74285000D01*
G75*
G02*
X125340000Y-74535000I-250000J0D01*
G01*
X124415000Y-74535000D01*
G75*
G02*
X124165000Y-74285000I0J250000D01*
G01*
G37*
%TD*%
%TO.C,D1*%
G36*
G01*
X120790000Y-74285000D02*
X120790000Y-73035000D01*
G75*
G02*
X121040000Y-72785000I250000J0D01*
G01*
X121965000Y-72785000D01*
G75*
G02*
X122215000Y-73035000I0J-250000D01*
G01*
X122215000Y-74285000D01*
G75*
G02*
X121965000Y-74535000I-250000J0D01*
G01*
X121040000Y-74535000D01*
G75*
G02*
X120790000Y-74285000I0J250000D01*
G01*
G37*
G36*
G01*
X117815000Y-74285000D02*
X117815000Y-73035000D01*
G75*
G02*
X118065000Y-72785000I250000J0D01*
G01*
X118990000Y-72785000D01*
G75*
G02*
X119240000Y-73035000I0J-250000D01*
G01*
X119240000Y-74285000D01*
G75*
G02*
X118990000Y-74535000I-250000J0D01*
G01*
X118065000Y-74535000D01*
G75*
G02*
X117815000Y-74285000I0J250000D01*
G01*
G37*
%TD*%
%TO.C,C9*%
G36*
G01*
X136155000Y-59070001D02*
X136155000Y-57769999D01*
G75*
G02*
X136404999Y-57520000I249999J0D01*
G01*
X137230001Y-57520000D01*
G75*
G02*
X137480000Y-57769999I0J-249999D01*
G01*
X137480000Y-59070001D01*
G75*
G02*
X137230001Y-59320000I-249999J0D01*
G01*
X136404999Y-59320000D01*
G75*
G02*
X136155000Y-59070001I0J249999D01*
G01*
G37*
G36*
G01*
X133030000Y-59070001D02*
X133030000Y-57769999D01*
G75*
G02*
X133279999Y-57520000I249999J0D01*
G01*
X134105001Y-57520000D01*
G75*
G02*
X134355000Y-57769999I0J-249999D01*
G01*
X134355000Y-59070001D01*
G75*
G02*
X134105001Y-59320000I-249999J0D01*
G01*
X133279999Y-59320000D01*
G75*
G02*
X133030000Y-59070001I0J249999D01*
G01*
G37*
%TD*%
D18*
%TO.C,C4*%
X114395000Y-77470000D03*
D19*
X112395000Y-77470000D03*
%TD*%
%TO.C,C6*%
G36*
G01*
X120915000Y-62880001D02*
X120915000Y-61579999D01*
G75*
G02*
X121164999Y-61330000I249999J0D01*
G01*
X121990001Y-61330000D01*
G75*
G02*
X122240000Y-61579999I0J-249999D01*
G01*
X122240000Y-62880001D01*
G75*
G02*
X121990001Y-63130000I-249999J0D01*
G01*
X121164999Y-63130000D01*
G75*
G02*
X120915000Y-62880001I0J249999D01*
G01*
G37*
G36*
G01*
X117790000Y-62880001D02*
X117790000Y-61579999D01*
G75*
G02*
X118039999Y-61330000I249999J0D01*
G01*
X118865001Y-61330000D01*
G75*
G02*
X119115000Y-61579999I0J-249999D01*
G01*
X119115000Y-62880001D01*
G75*
G02*
X118865001Y-63130000I-249999J0D01*
G01*
X118039999Y-63130000D01*
G75*
G02*
X117790000Y-62880001I0J249999D01*
G01*
G37*
%TD*%
%TO.C,C1*%
G36*
G01*
X114565000Y-62880001D02*
X114565000Y-61579999D01*
G75*
G02*
X114814999Y-61330000I249999J0D01*
G01*
X115640001Y-61330000D01*
G75*
G02*
X115890000Y-61579999I0J-249999D01*
G01*
X115890000Y-62880001D01*
G75*
G02*
X115640001Y-63130000I-249999J0D01*
G01*
X114814999Y-63130000D01*
G75*
G02*
X114565000Y-62880001I0J249999D01*
G01*
G37*
G36*
G01*
X111440000Y-62880001D02*
X111440000Y-61579999D01*
G75*
G02*
X111689999Y-61330000I249999J0D01*
G01*
X112515001Y-61330000D01*
G75*
G02*
X112765000Y-61579999I0J-249999D01*
G01*
X112765000Y-62880001D01*
G75*
G02*
X112515001Y-63130000I-249999J0D01*
G01*
X111689999Y-63130000D01*
G75*
G02*
X111440000Y-62880001I0J249999D01*
G01*
G37*
%TD*%
%TO.C,C2*%
G36*
G01*
X114565000Y-66690001D02*
X114565000Y-65389999D01*
G75*
G02*
X114814999Y-65140000I249999J0D01*
G01*
X115640001Y-65140000D01*
G75*
G02*
X115890000Y-65389999I0J-249999D01*
G01*
X115890000Y-66690001D01*
G75*
G02*
X115640001Y-66940000I-249999J0D01*
G01*
X114814999Y-66940000D01*
G75*
G02*
X114565000Y-66690001I0J249999D01*
G01*
G37*
G36*
G01*
X111440000Y-66690001D02*
X111440000Y-65389999D01*
G75*
G02*
X111689999Y-65140000I249999J0D01*
G01*
X112515001Y-65140000D01*
G75*
G02*
X112765000Y-65389999I0J-249999D01*
G01*
X112765000Y-66690001D01*
G75*
G02*
X112515001Y-66940000I-249999J0D01*
G01*
X111689999Y-66940000D01*
G75*
G02*
X111440000Y-66690001I0J249999D01*
G01*
G37*
%TD*%
%TO.C,C3*%
G36*
G01*
X114565000Y-70500001D02*
X114565000Y-69199999D01*
G75*
G02*
X114814999Y-68950000I249999J0D01*
G01*
X115640001Y-68950000D01*
G75*
G02*
X115890000Y-69199999I0J-249999D01*
G01*
X115890000Y-70500001D01*
G75*
G02*
X115640001Y-70750000I-249999J0D01*
G01*
X114814999Y-70750000D01*
G75*
G02*
X114565000Y-70500001I0J249999D01*
G01*
G37*
G36*
G01*
X111440000Y-70500001D02*
X111440000Y-69199999D01*
G75*
G02*
X111689999Y-68950000I249999J0D01*
G01*
X112515001Y-68950000D01*
G75*
G02*
X112765000Y-69199999I0J-249999D01*
G01*
X112765000Y-70500001D01*
G75*
G02*
X112515001Y-70750000I-249999J0D01*
G01*
X111689999Y-70750000D01*
G75*
G02*
X111440000Y-70500001I0J249999D01*
G01*
G37*
%TD*%
%TO.C,C11*%
G36*
G01*
X146034999Y-77735000D02*
X147335001Y-77735000D01*
G75*
G02*
X147585000Y-77984999I0J-249999D01*
G01*
X147585000Y-78810001D01*
G75*
G02*
X147335001Y-79060000I-249999J0D01*
G01*
X146034999Y-79060000D01*
G75*
G02*
X145785000Y-78810001I0J249999D01*
G01*
X145785000Y-77984999D01*
G75*
G02*
X146034999Y-77735000I249999J0D01*
G01*
G37*
G36*
G01*
X146034999Y-74610000D02*
X147335001Y-74610000D01*
G75*
G02*
X147585000Y-74859999I0J-249999D01*
G01*
X147585000Y-75685001D01*
G75*
G02*
X147335001Y-75935000I-249999J0D01*
G01*
X146034999Y-75935000D01*
G75*
G02*
X145785000Y-75685001I0J249999D01*
G01*
X145785000Y-74859999D01*
G75*
G02*
X146034999Y-74610000I249999J0D01*
G01*
G37*
%TD*%
%TO.C,C10*%
G36*
G01*
X132095001Y-75935000D02*
X130794999Y-75935000D01*
G75*
G02*
X130545000Y-75685001I0J249999D01*
G01*
X130545000Y-74859999D01*
G75*
G02*
X130794999Y-74610000I249999J0D01*
G01*
X132095001Y-74610000D01*
G75*
G02*
X132345000Y-74859999I0J-249999D01*
G01*
X132345000Y-75685001D01*
G75*
G02*
X132095001Y-75935000I-249999J0D01*
G01*
G37*
G36*
G01*
X132095001Y-79060000D02*
X130794999Y-79060000D01*
G75*
G02*
X130545000Y-78810001I0J249999D01*
G01*
X130545000Y-77984999D01*
G75*
G02*
X130794999Y-77735000I249999J0D01*
G01*
X132095001Y-77735000D01*
G75*
G02*
X132345000Y-77984999I0J-249999D01*
G01*
X132345000Y-78810001D01*
G75*
G02*
X132095001Y-79060000I-249999J0D01*
G01*
G37*
%TD*%
%TO.C,C8*%
G36*
G01*
X127265000Y-70500001D02*
X127265000Y-69199999D01*
G75*
G02*
X127514999Y-68950000I249999J0D01*
G01*
X128340001Y-68950000D01*
G75*
G02*
X128590000Y-69199999I0J-249999D01*
G01*
X128590000Y-70500001D01*
G75*
G02*
X128340001Y-70750000I-249999J0D01*
G01*
X127514999Y-70750000D01*
G75*
G02*
X127265000Y-70500001I0J249999D01*
G01*
G37*
G36*
G01*
X124140000Y-70500001D02*
X124140000Y-69199999D01*
G75*
G02*
X124389999Y-68950000I249999J0D01*
G01*
X125215001Y-68950000D01*
G75*
G02*
X125465000Y-69199999I0J-249999D01*
G01*
X125465000Y-70500001D01*
G75*
G02*
X125215001Y-70750000I-249999J0D01*
G01*
X124389999Y-70750000D01*
G75*
G02*
X124140000Y-70500001I0J249999D01*
G01*
G37*
%TD*%
%TO.C,C7*%
G36*
G01*
X127265000Y-66690001D02*
X127265000Y-65389999D01*
G75*
G02*
X127514999Y-65140000I249999J0D01*
G01*
X128340001Y-65140000D01*
G75*
G02*
X128590000Y-65389999I0J-249999D01*
G01*
X128590000Y-66690001D01*
G75*
G02*
X128340001Y-66940000I-249999J0D01*
G01*
X127514999Y-66940000D01*
G75*
G02*
X127265000Y-66690001I0J249999D01*
G01*
G37*
G36*
G01*
X124140000Y-66690001D02*
X124140000Y-65389999D01*
G75*
G02*
X124389999Y-65140000I249999J0D01*
G01*
X125215001Y-65140000D01*
G75*
G02*
X125465000Y-65389999I0J-249999D01*
G01*
X125465000Y-66690001D01*
G75*
G02*
X125215001Y-66940000I-249999J0D01*
G01*
X124389999Y-66940000D01*
G75*
G02*
X124140000Y-66690001I0J249999D01*
G01*
G37*
%TD*%
%TO.C,C5*%
G36*
G01*
X120915000Y-59070001D02*
X120915000Y-57769999D01*
G75*
G02*
X121164999Y-57520000I249999J0D01*
G01*
X121990001Y-57520000D01*
G75*
G02*
X122240000Y-57769999I0J-249999D01*
G01*
X122240000Y-59070001D01*
G75*
G02*
X121990001Y-59320000I-249999J0D01*
G01*
X121164999Y-59320000D01*
G75*
G02*
X120915000Y-59070001I0J249999D01*
G01*
G37*
G36*
G01*
X117790000Y-59070001D02*
X117790000Y-57769999D01*
G75*
G02*
X118039999Y-57520000I249999J0D01*
G01*
X118865001Y-57520000D01*
G75*
G02*
X119115000Y-57769999I0J-249999D01*
G01*
X119115000Y-59070001D01*
G75*
G02*
X118865001Y-59320000I-249999J0D01*
G01*
X118039999Y-59320000D01*
G75*
G02*
X117790000Y-59070001I0J249999D01*
G01*
G37*
%TD*%
M02*
