%TF.GenerationSoftware,KiCad,Pcbnew,(5.1.10-0-10_14)*%
%TF.CreationDate,2021-11-02T10:24:53+01:00*%
%TF.ProjectId,UPDI_programmer,55504449-5f70-4726-9f67-72616d6d6572,rev?*%
%TF.SameCoordinates,Original*%
%TF.FileFunction,Copper,L2,Bot*%
%TF.FilePolarity,Positive*%
%FSLAX46Y46*%
G04 Gerber Fmt 4.6, Leading zero omitted, Abs format (unit mm)*
G04 Created by KiCad (PCBNEW (5.1.10-0-10_14)) date 2021-11-02 10:24:53*
%MOMM*%
%LPD*%
G01*
G04 APERTURE LIST*
%TA.AperFunction,ComponentPad*%
%ADD10C,3.500000*%
%TD*%
%TA.AperFunction,ComponentPad*%
%ADD11C,1.700000*%
%TD*%
%TA.AperFunction,ComponentPad*%
%ADD12R,1.700000X1.700000*%
%TD*%
%TA.AperFunction,ComponentPad*%
%ADD13O,1.700000X1.700000*%
%TD*%
%TA.AperFunction,ComponentPad*%
%ADD14C,1.500000*%
%TD*%
%TA.AperFunction,ComponentPad*%
%ADD15C,1.200000*%
%TD*%
%TA.AperFunction,ComponentPad*%
%ADD16R,1.200000X1.200000*%
%TD*%
%TA.AperFunction,ViaPad*%
%ADD17C,0.600000*%
%TD*%
%TA.AperFunction,Conductor*%
%ADD18C,0.152400*%
%TD*%
%TA.AperFunction,Conductor*%
%ADD19C,0.254000*%
%TD*%
%TA.AperFunction,Conductor*%
%ADD20C,0.100000*%
%TD*%
G04 APERTURE END LIST*
D10*
%TO.P,J3,5*%
%TO.N,Net-(J3-Pad5)*%
X103240000Y-61945000D03*
X103240000Y-73985000D03*
D11*
%TO.P,J3,4*%
%TO.N,GND*%
X105950000Y-69215000D03*
%TO.P,J3,3*%
%TO.N,Net-(C2-Pad1)*%
X105950000Y-66715000D03*
%TO.P,J3,2*%
%TO.N,Net-(C1-Pad1)*%
X107950000Y-66715000D03*
D12*
%TO.P,J3,1*%
%TO.N,Net-(C3-Pad1)*%
X107950000Y-69215000D03*
%TD*%
D13*
%TO.P,J2,6*%
%TO.N,GND*%
X152400000Y-62230000D03*
%TO.P,J2,5*%
%TO.N,~RESET*%
X149860000Y-62230000D03*
%TO.P,J2,4*%
%TO.N,MOSI*%
X152400000Y-59690000D03*
%TO.P,J2,3*%
%TO.N,SCK*%
X149860000Y-59690000D03*
%TO.P,J2,2*%
%TO.N,VCC*%
X152400000Y-57150000D03*
D12*
%TO.P,J2,1*%
%TO.N,MISO*%
X149860000Y-57150000D03*
%TD*%
D14*
%TO.P,Y1,2*%
%TO.N,Net-(C11-Pad1)*%
X141405000Y-76835000D03*
%TO.P,Y1,1*%
%TO.N,Net-(C10-Pad2)*%
X136525000Y-76835000D03*
%TD*%
D13*
%TO.P,JP1,2*%
%TO.N,UPDI*%
X150495000Y-78105000D03*
D12*
%TO.P,JP1,1*%
%TO.N,Net-(J1-Pad1)*%
X150495000Y-75565000D03*
%TD*%
D11*
%TO.P,J1,6*%
%TO.N,GND*%
X159385000Y-74930000D03*
%TO.P,J1,4*%
%TO.N,Net-(J1-Pad4)*%
X159385000Y-72390000D03*
%TO.P,J1,2*%
%TO.N,VCC*%
X159385000Y-69850000D03*
%TO.P,J1,5*%
%TO.N,Net-(J1-Pad5)*%
X156845000Y-74930000D03*
%TO.P,J1,3*%
%TO.N,Net-(J1-Pad3)*%
X156845000Y-72390000D03*
%TO.P,J1,1*%
%TO.N,Net-(J1-Pad1)*%
%TA.AperFunction,ComponentPad*%
G36*
G01*
X155995000Y-70450000D02*
X155995000Y-69250000D01*
G75*
G02*
X156245000Y-69000000I250000J0D01*
G01*
X157445000Y-69000000D01*
G75*
G02*
X157695000Y-69250000I0J-250000D01*
G01*
X157695000Y-70450000D01*
G75*
G02*
X157445000Y-70700000I-250000J0D01*
G01*
X156245000Y-70700000D01*
G75*
G02*
X155995000Y-70450000I0J250000D01*
G01*
G37*
%TD.AperFunction*%
%TD*%
D15*
%TO.P,C4,2*%
%TO.N,GND*%
X114395000Y-77470000D03*
D16*
%TO.P,C4,1*%
%TO.N,VCC*%
X112395000Y-77470000D03*
%TD*%
D17*
%TO.N,GND*%
X134874000Y-77470000D03*
X135890000Y-73406000D03*
X135128000Y-58674000D03*
X136652000Y-61214000D03*
X116586000Y-66294000D03*
X124714000Y-64262000D03*
%TO.N,VCC*%
X114300000Y-75946000D03*
X128270000Y-64516000D03*
X128619299Y-58261299D03*
X120142000Y-62230000D03*
X121920000Y-68072000D03*
%TO.N,Net-(C8-Pad1)*%
X130556000Y-70104000D03*
X136626710Y-65284287D03*
%TO.N,~RXLED*%
X129286000Y-59436000D03*
X126663526Y-69894536D03*
%TO.N,~TXLED*%
X123444000Y-73406000D03*
X123444000Y-61976000D03*
%TO.N,~RESET*%
X150876000Y-58674000D03*
X141478000Y-58420000D03*
X135128000Y-67818000D03*
%TO.N,MISO*%
X148844000Y-63500000D03*
%TO.N,USBD+*%
X122815390Y-62710877D03*
X122815390Y-71343711D03*
%TO.N,TxD*%
X125987078Y-59978610D03*
X124072610Y-68425520D03*
%TO.N,RxD*%
X127508000Y-58420000D03*
X127508000Y-67564000D03*
%TO.N,Net-(C9-Pad2)*%
X126238000Y-77470000D03*
X126746000Y-61468000D03*
%TD*%
D18*
%TO.N,GND*%
X134874000Y-74422000D02*
X135890000Y-73406000D01*
X134874000Y-77470000D02*
X134874000Y-74422000D01*
X135128000Y-58674000D02*
X136652000Y-60198000D01*
X136652000Y-60198000D02*
X136652000Y-61214000D01*
%TO.N,VCC*%
X128270000Y-58610598D02*
X128619299Y-58261299D01*
X128270000Y-64516000D02*
X128270000Y-58610598D01*
X120142000Y-70104000D02*
X114300000Y-75946000D01*
X120142000Y-62230000D02*
X120142000Y-70104000D01*
X120142000Y-69850000D02*
X120142000Y-70104000D01*
X121920000Y-68072000D02*
X120142000Y-69850000D01*
%TO.N,Net-(C8-Pad1)*%
X130556000Y-70104000D02*
X131806997Y-70104000D01*
X131806997Y-70104000D02*
X136626710Y-65284287D01*
%TO.N,~RXLED*%
X129286000Y-59436000D02*
X129286000Y-67272062D01*
X129286000Y-67272062D02*
X126663526Y-69894536D01*
%TO.N,~TXLED*%
X123444000Y-73406000D02*
X123444000Y-61976000D01*
%TO.N,~RESET*%
X151243541Y-60846459D02*
X151243541Y-59041541D01*
X151243541Y-59041541D02*
X150876000Y-58674000D01*
X149860000Y-62230000D02*
X151243541Y-60846459D01*
X141478000Y-58420000D02*
X141478000Y-61468000D01*
X141478000Y-61468000D02*
X135128000Y-67818000D01*
%TO.N,MISO*%
X148444001Y-58565999D02*
X149860000Y-57150000D01*
X148444001Y-63100001D02*
X148444001Y-58565999D01*
X148844000Y-63500000D02*
X148444001Y-63100001D01*
%TO.N,USBD+*%
X122815390Y-71343711D02*
X122815390Y-62710877D01*
%TO.N,TxD*%
X125987078Y-59978610D02*
X124072610Y-61893078D01*
X124072610Y-61893078D02*
X124072610Y-68425520D01*
%TO.N,RxD*%
X127508000Y-58420000D02*
X127508000Y-67564000D01*
%TO.N,Net-(C9-Pad2)*%
X126238000Y-70399340D02*
X126034925Y-70196265D01*
X126238000Y-77470000D02*
X126238000Y-70399340D01*
X126034925Y-70196265D02*
X126034925Y-62179075D01*
X126034925Y-62179075D02*
X126746000Y-61468000D01*
%TD*%
D19*
%TO.N,GND*%
X148479463Y-55945506D02*
X148420498Y-56055820D01*
X148384188Y-56175518D01*
X148371928Y-56300000D01*
X148371928Y-57632285D01*
X147965811Y-58038402D01*
X147938675Y-58060672D01*
X147916405Y-58087808D01*
X147916404Y-58087809D01*
X147849799Y-58168967D01*
X147816583Y-58231111D01*
X147783760Y-58292518D01*
X147743093Y-58426579D01*
X147739211Y-58465990D01*
X147729361Y-58565999D01*
X147732802Y-58600935D01*
X147732801Y-63065075D01*
X147729361Y-63100001D01*
X147732801Y-63134927D01*
X147732801Y-63134936D01*
X147743092Y-63239420D01*
X147783759Y-63373481D01*
X147849799Y-63497033D01*
X147909000Y-63569169D01*
X147909000Y-63592089D01*
X147944932Y-63772729D01*
X148015414Y-63942889D01*
X148117738Y-64096028D01*
X148247972Y-64226262D01*
X148401111Y-64328586D01*
X148571271Y-64399068D01*
X148751911Y-64435000D01*
X148936089Y-64435000D01*
X149116729Y-64399068D01*
X149286889Y-64328586D01*
X149440028Y-64226262D01*
X149570262Y-64096028D01*
X149672586Y-63942889D01*
X149743068Y-63772729D01*
X149754551Y-63715000D01*
X150006260Y-63715000D01*
X150293158Y-63657932D01*
X150563411Y-63545990D01*
X150806632Y-63383475D01*
X151013475Y-63176632D01*
X151131100Y-63000594D01*
X151302412Y-63230269D01*
X151518645Y-63425178D01*
X151768748Y-63574157D01*
X152043109Y-63671481D01*
X152273000Y-63550814D01*
X152273000Y-62357000D01*
X152527000Y-62357000D01*
X152527000Y-63550814D01*
X152756891Y-63671481D01*
X153031252Y-63574157D01*
X153281355Y-63425178D01*
X153497588Y-63230269D01*
X153671641Y-62996920D01*
X153796825Y-62734099D01*
X153841476Y-62586890D01*
X153720155Y-62357000D01*
X152527000Y-62357000D01*
X152273000Y-62357000D01*
X152253000Y-62357000D01*
X152253000Y-62103000D01*
X152273000Y-62103000D01*
X152273000Y-62083000D01*
X152527000Y-62083000D01*
X152527000Y-62103000D01*
X153720155Y-62103000D01*
X153841476Y-61873110D01*
X153796825Y-61725901D01*
X153671641Y-61463080D01*
X153497588Y-61229731D01*
X153281355Y-61034822D01*
X153164466Y-60965195D01*
X153346632Y-60843475D01*
X153553475Y-60636632D01*
X153715990Y-60393411D01*
X153827932Y-60123158D01*
X153885000Y-59836260D01*
X153885000Y-59543740D01*
X153827932Y-59256842D01*
X153715990Y-58986589D01*
X153553475Y-58743368D01*
X153346632Y-58536525D01*
X153172240Y-58420000D01*
X153346632Y-58303475D01*
X153553475Y-58096632D01*
X153715990Y-57853411D01*
X153827932Y-57583158D01*
X153885000Y-57296260D01*
X153885000Y-57003740D01*
X153827932Y-56716842D01*
X153715990Y-56446589D01*
X153553475Y-56203368D01*
X153346632Y-55996525D01*
X153209655Y-55905000D01*
X165067721Y-55905000D01*
X165217869Y-55919722D01*
X165331246Y-55953953D01*
X165435819Y-56009555D01*
X165527596Y-56084407D01*
X165603091Y-56175664D01*
X165659419Y-56279844D01*
X165694440Y-56392976D01*
X165710001Y-56541031D01*
X165710000Y-79342721D01*
X165695278Y-79492869D01*
X165661047Y-79606246D01*
X165605446Y-79710817D01*
X165530594Y-79802595D01*
X165439335Y-79878091D01*
X165335160Y-79934419D01*
X165222024Y-79969440D01*
X165073979Y-79985000D01*
X100362279Y-79985000D01*
X100212131Y-79970278D01*
X100098754Y-79936047D01*
X99994183Y-79880446D01*
X99902405Y-79805594D01*
X99826909Y-79714335D01*
X99770581Y-79610160D01*
X99735560Y-79497024D01*
X99720000Y-79348979D01*
X99720000Y-76870000D01*
X111156928Y-76870000D01*
X111156928Y-78070000D01*
X111169188Y-78194482D01*
X111205498Y-78314180D01*
X111264463Y-78424494D01*
X111343815Y-78521185D01*
X111440506Y-78600537D01*
X111550820Y-78659502D01*
X111670518Y-78695812D01*
X111795000Y-78708072D01*
X112995000Y-78708072D01*
X113119482Y-78695812D01*
X113239180Y-78659502D01*
X113349494Y-78600537D01*
X113446185Y-78521185D01*
X113525537Y-78424494D01*
X113549858Y-78378994D01*
X113607736Y-78436872D01*
X113724842Y-78319766D01*
X113772148Y-78543348D01*
X113993516Y-78644237D01*
X114230313Y-78700000D01*
X114473438Y-78708495D01*
X114713549Y-78669395D01*
X114941418Y-78584202D01*
X115017852Y-78543348D01*
X115065159Y-78319764D01*
X114395000Y-77649605D01*
X114380858Y-77663748D01*
X114201253Y-77484143D01*
X114215395Y-77470000D01*
X114574605Y-77470000D01*
X115244764Y-78140159D01*
X115468348Y-78092852D01*
X115569237Y-77871484D01*
X115625000Y-77634687D01*
X115633495Y-77391562D01*
X115594395Y-77151451D01*
X115509202Y-76923582D01*
X115468348Y-76847148D01*
X115244764Y-76799841D01*
X114574605Y-77470000D01*
X114215395Y-77470000D01*
X114201253Y-77455858D01*
X114380858Y-77276253D01*
X114395000Y-77290395D01*
X115065159Y-76620236D01*
X115043236Y-76516624D01*
X115128586Y-76388889D01*
X115199068Y-76218729D01*
X115235000Y-76038089D01*
X115235000Y-76016787D01*
X120620196Y-70631593D01*
X120647327Y-70609327D01*
X120669593Y-70582196D01*
X120669598Y-70582191D01*
X120736202Y-70501033D01*
X120802242Y-70377482D01*
X120842909Y-70243420D01*
X120847553Y-70196265D01*
X120852583Y-70145205D01*
X121990789Y-69007000D01*
X122012089Y-69007000D01*
X122104190Y-68988680D01*
X122104190Y-70732621D01*
X122089128Y-70747683D01*
X121986804Y-70900822D01*
X121916322Y-71070982D01*
X121880390Y-71251622D01*
X121880390Y-71435800D01*
X121916322Y-71616440D01*
X121986804Y-71786600D01*
X122089128Y-71939739D01*
X122219362Y-72069973D01*
X122372501Y-72172297D01*
X122542661Y-72242779D01*
X122723301Y-72278711D01*
X122732800Y-72278711D01*
X122732800Y-72794910D01*
X122717738Y-72809972D01*
X122615414Y-72963111D01*
X122544932Y-73133271D01*
X122509000Y-73313911D01*
X122509000Y-73498089D01*
X122544932Y-73678729D01*
X122615414Y-73848889D01*
X122717738Y-74002028D01*
X122847972Y-74132262D01*
X123001111Y-74234586D01*
X123171271Y-74305068D01*
X123351911Y-74341000D01*
X123536089Y-74341000D01*
X123716729Y-74305068D01*
X123886889Y-74234586D01*
X124040028Y-74132262D01*
X124170262Y-74002028D01*
X124272586Y-73848889D01*
X124343068Y-73678729D01*
X124379000Y-73498089D01*
X124379000Y-73313911D01*
X124343068Y-73133271D01*
X124272586Y-72963111D01*
X124170262Y-72809972D01*
X124155200Y-72794910D01*
X124155200Y-69360520D01*
X124164699Y-69360520D01*
X124345339Y-69324588D01*
X124515499Y-69254106D01*
X124668638Y-69151782D01*
X124798872Y-69021548D01*
X124901196Y-68868409D01*
X124971678Y-68698249D01*
X125007610Y-68517609D01*
X125007610Y-68333431D01*
X124971678Y-68152791D01*
X124901196Y-67982631D01*
X124798872Y-67829492D01*
X124783810Y-67814430D01*
X124783810Y-62187665D01*
X125896943Y-61074534D01*
X125846932Y-61195271D01*
X125811000Y-61375911D01*
X125811000Y-61397213D01*
X125556735Y-61651478D01*
X125529599Y-61673748D01*
X125507329Y-61700884D01*
X125507328Y-61700885D01*
X125440723Y-61782043D01*
X125400047Y-61858143D01*
X125374684Y-61905594D01*
X125334017Y-62039655D01*
X125329675Y-62083740D01*
X125320285Y-62179075D01*
X125323726Y-62214011D01*
X125323725Y-70161339D01*
X125320285Y-70196265D01*
X125323725Y-70231191D01*
X125323725Y-70231200D01*
X125334016Y-70335684D01*
X125374683Y-70469745D01*
X125440723Y-70593297D01*
X125526801Y-70698183D01*
X125526800Y-76858910D01*
X125511738Y-76873972D01*
X125409414Y-77027111D01*
X125338932Y-77197271D01*
X125303000Y-77377911D01*
X125303000Y-77562089D01*
X125338932Y-77742729D01*
X125409414Y-77912889D01*
X125511738Y-78066028D01*
X125641972Y-78196262D01*
X125795111Y-78298586D01*
X125965271Y-78369068D01*
X126145911Y-78405000D01*
X126330089Y-78405000D01*
X126510729Y-78369068D01*
X126680889Y-78298586D01*
X126834028Y-78196262D01*
X126964262Y-78066028D01*
X127066586Y-77912889D01*
X127137068Y-77742729D01*
X127173000Y-77562089D01*
X127173000Y-77377911D01*
X127137068Y-77197271D01*
X127066586Y-77027111D01*
X126964262Y-76873972D01*
X126949200Y-76858910D01*
X126949200Y-76698589D01*
X135140000Y-76698589D01*
X135140000Y-76971411D01*
X135193225Y-77238989D01*
X135297629Y-77491043D01*
X135449201Y-77717886D01*
X135642114Y-77910799D01*
X135868957Y-78062371D01*
X136121011Y-78166775D01*
X136388589Y-78220000D01*
X136661411Y-78220000D01*
X136928989Y-78166775D01*
X137181043Y-78062371D01*
X137407886Y-77910799D01*
X137600799Y-77717886D01*
X137752371Y-77491043D01*
X137856775Y-77238989D01*
X137910000Y-76971411D01*
X137910000Y-76698589D01*
X140020000Y-76698589D01*
X140020000Y-76971411D01*
X140073225Y-77238989D01*
X140177629Y-77491043D01*
X140329201Y-77717886D01*
X140522114Y-77910799D01*
X140748957Y-78062371D01*
X141001011Y-78166775D01*
X141268589Y-78220000D01*
X141541411Y-78220000D01*
X141808989Y-78166775D01*
X142061043Y-78062371D01*
X142287886Y-77910799D01*
X142480799Y-77717886D01*
X142632371Y-77491043D01*
X142736775Y-77238989D01*
X142790000Y-76971411D01*
X142790000Y-76698589D01*
X142736775Y-76431011D01*
X142632371Y-76178957D01*
X142480799Y-75952114D01*
X142287886Y-75759201D01*
X142061043Y-75607629D01*
X141808989Y-75503225D01*
X141541411Y-75450000D01*
X141268589Y-75450000D01*
X141001011Y-75503225D01*
X140748957Y-75607629D01*
X140522114Y-75759201D01*
X140329201Y-75952114D01*
X140177629Y-76178957D01*
X140073225Y-76431011D01*
X140020000Y-76698589D01*
X137910000Y-76698589D01*
X137856775Y-76431011D01*
X137752371Y-76178957D01*
X137600799Y-75952114D01*
X137407886Y-75759201D01*
X137181043Y-75607629D01*
X136928989Y-75503225D01*
X136661411Y-75450000D01*
X136388589Y-75450000D01*
X136121011Y-75503225D01*
X135868957Y-75607629D01*
X135642114Y-75759201D01*
X135449201Y-75952114D01*
X135297629Y-76178957D01*
X135193225Y-76431011D01*
X135140000Y-76698589D01*
X126949200Y-76698589D01*
X126949200Y-74715000D01*
X149006928Y-74715000D01*
X149006928Y-76415000D01*
X149019188Y-76539482D01*
X149055498Y-76659180D01*
X149114463Y-76769494D01*
X149193815Y-76866185D01*
X149290506Y-76945537D01*
X149400820Y-77004502D01*
X149473380Y-77026513D01*
X149341525Y-77158368D01*
X149179010Y-77401589D01*
X149067068Y-77671842D01*
X149010000Y-77958740D01*
X149010000Y-78251260D01*
X149067068Y-78538158D01*
X149179010Y-78808411D01*
X149341525Y-79051632D01*
X149548368Y-79258475D01*
X149791589Y-79420990D01*
X150061842Y-79532932D01*
X150348740Y-79590000D01*
X150641260Y-79590000D01*
X150928158Y-79532932D01*
X151198411Y-79420990D01*
X151441632Y-79258475D01*
X151648475Y-79051632D01*
X151810990Y-78808411D01*
X151922932Y-78538158D01*
X151980000Y-78251260D01*
X151980000Y-77958740D01*
X151922932Y-77671842D01*
X151810990Y-77401589D01*
X151648475Y-77158368D01*
X151516620Y-77026513D01*
X151589180Y-77004502D01*
X151699494Y-76945537D01*
X151796185Y-76866185D01*
X151875537Y-76769494D01*
X151934502Y-76659180D01*
X151970812Y-76539482D01*
X151983072Y-76415000D01*
X151983072Y-74715000D01*
X151970812Y-74590518D01*
X151934502Y-74470820D01*
X151875537Y-74360506D01*
X151796185Y-74263815D01*
X151699494Y-74184463D01*
X151589180Y-74125498D01*
X151469482Y-74089188D01*
X151345000Y-74076928D01*
X149645000Y-74076928D01*
X149520518Y-74089188D01*
X149400820Y-74125498D01*
X149290506Y-74184463D01*
X149193815Y-74263815D01*
X149114463Y-74360506D01*
X149055498Y-74470820D01*
X149019188Y-74590518D01*
X149006928Y-74715000D01*
X126949200Y-74715000D01*
X126949200Y-70788242D01*
X127106415Y-70723122D01*
X127259554Y-70620798D01*
X127389788Y-70490564D01*
X127492112Y-70337425D01*
X127562594Y-70167265D01*
X127593496Y-70011911D01*
X129621000Y-70011911D01*
X129621000Y-70196089D01*
X129656932Y-70376729D01*
X129727414Y-70546889D01*
X129829738Y-70700028D01*
X129959972Y-70830262D01*
X130113111Y-70932586D01*
X130283271Y-71003068D01*
X130463911Y-71039000D01*
X130648089Y-71039000D01*
X130828729Y-71003068D01*
X130998889Y-70932586D01*
X131152028Y-70830262D01*
X131167090Y-70815200D01*
X131772071Y-70815200D01*
X131806997Y-70818640D01*
X131841923Y-70815200D01*
X131841933Y-70815200D01*
X131946417Y-70804909D01*
X132080478Y-70764242D01*
X132204030Y-70698202D01*
X132312324Y-70609327D01*
X132334599Y-70582185D01*
X133666784Y-69250000D01*
X155356928Y-69250000D01*
X155356928Y-70450000D01*
X155373992Y-70623254D01*
X155424528Y-70789850D01*
X155506595Y-70943386D01*
X155617038Y-71077962D01*
X155751614Y-71188405D01*
X155878608Y-71256285D01*
X155691525Y-71443368D01*
X155529010Y-71686589D01*
X155417068Y-71956842D01*
X155360000Y-72243740D01*
X155360000Y-72536260D01*
X155417068Y-72823158D01*
X155529010Y-73093411D01*
X155691525Y-73336632D01*
X155898368Y-73543475D01*
X156072760Y-73660000D01*
X155898368Y-73776525D01*
X155691525Y-73983368D01*
X155529010Y-74226589D01*
X155417068Y-74496842D01*
X155360000Y-74783740D01*
X155360000Y-75076260D01*
X155417068Y-75363158D01*
X155529010Y-75633411D01*
X155691525Y-75876632D01*
X155898368Y-76083475D01*
X156141589Y-76245990D01*
X156411842Y-76357932D01*
X156698740Y-76415000D01*
X156991260Y-76415000D01*
X157278158Y-76357932D01*
X157548411Y-76245990D01*
X157791632Y-76083475D01*
X157916710Y-75958397D01*
X158536208Y-75958397D01*
X158613843Y-76207472D01*
X158877883Y-76333371D01*
X159161411Y-76405339D01*
X159453531Y-76420611D01*
X159743019Y-76378599D01*
X160018747Y-76280919D01*
X160156157Y-76207472D01*
X160233792Y-75958397D01*
X159385000Y-75109605D01*
X158536208Y-75958397D01*
X157916710Y-75958397D01*
X157998475Y-75876632D01*
X158114311Y-75703271D01*
X158356603Y-75778792D01*
X159205395Y-74930000D01*
X159564605Y-74930000D01*
X160413397Y-75778792D01*
X160662472Y-75701157D01*
X160788371Y-75437117D01*
X160860339Y-75153589D01*
X160875611Y-74861469D01*
X160833599Y-74571981D01*
X160735919Y-74296253D01*
X160662472Y-74158843D01*
X160413397Y-74081208D01*
X159564605Y-74930000D01*
X159205395Y-74930000D01*
X158356603Y-74081208D01*
X158114311Y-74156729D01*
X157998475Y-73983368D01*
X157791632Y-73776525D01*
X157617240Y-73660000D01*
X157791632Y-73543475D01*
X157998475Y-73336632D01*
X158115000Y-73162240D01*
X158231525Y-73336632D01*
X158438368Y-73543475D01*
X158611729Y-73659311D01*
X158536208Y-73901603D01*
X159385000Y-74750395D01*
X160233792Y-73901603D01*
X160158271Y-73659311D01*
X160331632Y-73543475D01*
X160538475Y-73336632D01*
X160700990Y-73093411D01*
X160812932Y-72823158D01*
X160870000Y-72536260D01*
X160870000Y-72243740D01*
X160812932Y-71956842D01*
X160700990Y-71686589D01*
X160538475Y-71443368D01*
X160331632Y-71236525D01*
X160157240Y-71120000D01*
X160331632Y-71003475D01*
X160538475Y-70796632D01*
X160700990Y-70553411D01*
X160812932Y-70283158D01*
X160870000Y-69996260D01*
X160870000Y-69703740D01*
X160812932Y-69416842D01*
X160700990Y-69146589D01*
X160538475Y-68903368D01*
X160331632Y-68696525D01*
X160088411Y-68534010D01*
X159818158Y-68422068D01*
X159531260Y-68365000D01*
X159238740Y-68365000D01*
X158951842Y-68422068D01*
X158681589Y-68534010D01*
X158438368Y-68696525D01*
X158251285Y-68883608D01*
X158183405Y-68756614D01*
X158072962Y-68622038D01*
X157938386Y-68511595D01*
X157784850Y-68429528D01*
X157618254Y-68378992D01*
X157445000Y-68361928D01*
X156245000Y-68361928D01*
X156071746Y-68378992D01*
X155905150Y-68429528D01*
X155751614Y-68511595D01*
X155617038Y-68622038D01*
X155506595Y-68756614D01*
X155424528Y-68910150D01*
X155373992Y-69076746D01*
X155356928Y-69250000D01*
X133666784Y-69250000D01*
X134452247Y-68464537D01*
X134531972Y-68544262D01*
X134685111Y-68646586D01*
X134855271Y-68717068D01*
X135035911Y-68753000D01*
X135220089Y-68753000D01*
X135400729Y-68717068D01*
X135570889Y-68646586D01*
X135724028Y-68544262D01*
X135854262Y-68414028D01*
X135956586Y-68260889D01*
X136027068Y-68090729D01*
X136063000Y-67910089D01*
X136063000Y-67888787D01*
X141956191Y-61995597D01*
X141983327Y-61973327D01*
X142072202Y-61865033D01*
X142138242Y-61741481D01*
X142178909Y-61607420D01*
X142189200Y-61502936D01*
X142189200Y-61502927D01*
X142192640Y-61468001D01*
X142189200Y-61433075D01*
X142189200Y-59031090D01*
X142204262Y-59016028D01*
X142306586Y-58862889D01*
X142377068Y-58692729D01*
X142413000Y-58512089D01*
X142413000Y-58327911D01*
X142377068Y-58147271D01*
X142306586Y-57977111D01*
X142204262Y-57823972D01*
X142074028Y-57693738D01*
X141920889Y-57591414D01*
X141750729Y-57520932D01*
X141570089Y-57485000D01*
X141385911Y-57485000D01*
X141205271Y-57520932D01*
X141035111Y-57591414D01*
X140881972Y-57693738D01*
X140751738Y-57823972D01*
X140649414Y-57977111D01*
X140578932Y-58147271D01*
X140543000Y-58327911D01*
X140543000Y-58512089D01*
X140578932Y-58692729D01*
X140649414Y-58862889D01*
X140751738Y-59016028D01*
X140766800Y-59031090D01*
X140766801Y-61173411D01*
X137302463Y-64637750D01*
X137222738Y-64558025D01*
X137069599Y-64455701D01*
X136899439Y-64385219D01*
X136718799Y-64349287D01*
X136534621Y-64349287D01*
X136353981Y-64385219D01*
X136183821Y-64455701D01*
X136030682Y-64558025D01*
X135900448Y-64688259D01*
X135798124Y-64841398D01*
X135727642Y-65011558D01*
X135691710Y-65192198D01*
X135691710Y-65213498D01*
X131512410Y-69392800D01*
X131167090Y-69392800D01*
X131152028Y-69377738D01*
X130998889Y-69275414D01*
X130828729Y-69204932D01*
X130648089Y-69169000D01*
X130463911Y-69169000D01*
X130283271Y-69204932D01*
X130113111Y-69275414D01*
X129959972Y-69377738D01*
X129829738Y-69507972D01*
X129727414Y-69661111D01*
X129656932Y-69831271D01*
X129621000Y-70011911D01*
X127593496Y-70011911D01*
X127598526Y-69986625D01*
X127598526Y-69965323D01*
X129764196Y-67799655D01*
X129791327Y-67777389D01*
X129813593Y-67750258D01*
X129813597Y-67750254D01*
X129880202Y-67669095D01*
X129918773Y-67596934D01*
X129946242Y-67545543D01*
X129986909Y-67411482D01*
X129997200Y-67306998D01*
X129997200Y-67306989D01*
X130000640Y-67272063D01*
X129997200Y-67237137D01*
X129997200Y-60047090D01*
X130012262Y-60032028D01*
X130114586Y-59878889D01*
X130185068Y-59708729D01*
X130221000Y-59528089D01*
X130221000Y-59343911D01*
X130185068Y-59163271D01*
X130114586Y-58993111D01*
X130012262Y-58839972D01*
X129882028Y-58709738D01*
X129728889Y-58607414D01*
X129558729Y-58536932D01*
X129519348Y-58529098D01*
X129554299Y-58353388D01*
X129554299Y-58169210D01*
X129518367Y-57988570D01*
X129447885Y-57818410D01*
X129345561Y-57665271D01*
X129215327Y-57535037D01*
X129062188Y-57432713D01*
X128892028Y-57362231D01*
X128711388Y-57326299D01*
X128527210Y-57326299D01*
X128346570Y-57362231D01*
X128176410Y-57432713D01*
X128023271Y-57535037D01*
X127960483Y-57597825D01*
X127950889Y-57591414D01*
X127780729Y-57520932D01*
X127600089Y-57485000D01*
X127415911Y-57485000D01*
X127235271Y-57520932D01*
X127065111Y-57591414D01*
X126911972Y-57693738D01*
X126781738Y-57823972D01*
X126679414Y-57977111D01*
X126608932Y-58147271D01*
X126573000Y-58327911D01*
X126573000Y-58512089D01*
X126608932Y-58692729D01*
X126679414Y-58862889D01*
X126781738Y-59016028D01*
X126796800Y-59031090D01*
X126796800Y-59507489D01*
X126713340Y-59382582D01*
X126583106Y-59252348D01*
X126429967Y-59150024D01*
X126259807Y-59079542D01*
X126079167Y-59043610D01*
X125894989Y-59043610D01*
X125714349Y-59079542D01*
X125544189Y-59150024D01*
X125391050Y-59252348D01*
X125260816Y-59382582D01*
X125158492Y-59535721D01*
X125088010Y-59705881D01*
X125052078Y-59886521D01*
X125052078Y-59907821D01*
X123834279Y-61125622D01*
X123716729Y-61076932D01*
X123536089Y-61041000D01*
X123351911Y-61041000D01*
X123171271Y-61076932D01*
X123001111Y-61147414D01*
X122847972Y-61249738D01*
X122717738Y-61379972D01*
X122615414Y-61533111D01*
X122544932Y-61703271D01*
X122521608Y-61820530D01*
X122372501Y-61882291D01*
X122219362Y-61984615D01*
X122089128Y-62114849D01*
X121986804Y-62267988D01*
X121916322Y-62438148D01*
X121880390Y-62618788D01*
X121880390Y-62802966D01*
X121916322Y-62983606D01*
X121986804Y-63153766D01*
X122089128Y-63306905D01*
X122104191Y-63321968D01*
X122104190Y-67155320D01*
X122012089Y-67137000D01*
X121827911Y-67137000D01*
X121647271Y-67172932D01*
X121477111Y-67243414D01*
X121323972Y-67345738D01*
X121193738Y-67475972D01*
X121091414Y-67629111D01*
X121020932Y-67799271D01*
X120985000Y-67979911D01*
X120985000Y-68001211D01*
X120853200Y-68133012D01*
X120853200Y-62841090D01*
X120868262Y-62826028D01*
X120970586Y-62672889D01*
X121041068Y-62502729D01*
X121077000Y-62322089D01*
X121077000Y-62137911D01*
X121041068Y-61957271D01*
X120970586Y-61787111D01*
X120868262Y-61633972D01*
X120738028Y-61503738D01*
X120584889Y-61401414D01*
X120414729Y-61330932D01*
X120234089Y-61295000D01*
X120049911Y-61295000D01*
X119869271Y-61330932D01*
X119699111Y-61401414D01*
X119545972Y-61503738D01*
X119415738Y-61633972D01*
X119313414Y-61787111D01*
X119242932Y-61957271D01*
X119207000Y-62137911D01*
X119207000Y-62322089D01*
X119242932Y-62502729D01*
X119313414Y-62672889D01*
X119415738Y-62826028D01*
X119430800Y-62841090D01*
X119430801Y-69809410D01*
X114229213Y-75011000D01*
X114207911Y-75011000D01*
X114027271Y-75046932D01*
X113857111Y-75117414D01*
X113703972Y-75219738D01*
X113573738Y-75349972D01*
X113471414Y-75503111D01*
X113400932Y-75673271D01*
X113365000Y-75853911D01*
X113365000Y-76038089D01*
X113400932Y-76218729D01*
X113471414Y-76388889D01*
X113571775Y-76539089D01*
X113549858Y-76561006D01*
X113525537Y-76515506D01*
X113446185Y-76418815D01*
X113349494Y-76339463D01*
X113239180Y-76280498D01*
X113119482Y-76244188D01*
X112995000Y-76231928D01*
X111795000Y-76231928D01*
X111670518Y-76244188D01*
X111550820Y-76280498D01*
X111440506Y-76339463D01*
X111343815Y-76418815D01*
X111264463Y-76515506D01*
X111205498Y-76625820D01*
X111169188Y-76745518D01*
X111156928Y-76870000D01*
X99720000Y-76870000D01*
X99720000Y-73750098D01*
X100855000Y-73750098D01*
X100855000Y-74219902D01*
X100946654Y-74680679D01*
X101126440Y-75114721D01*
X101387450Y-75505349D01*
X101719651Y-75837550D01*
X102110279Y-76098560D01*
X102544321Y-76278346D01*
X103005098Y-76370000D01*
X103474902Y-76370000D01*
X103935679Y-76278346D01*
X104369721Y-76098560D01*
X104760349Y-75837550D01*
X105092550Y-75505349D01*
X105353560Y-75114721D01*
X105533346Y-74680679D01*
X105625000Y-74219902D01*
X105625000Y-73750098D01*
X105533346Y-73289321D01*
X105353560Y-72855279D01*
X105092550Y-72464651D01*
X104760349Y-72132450D01*
X104369721Y-71871440D01*
X103935679Y-71691654D01*
X103474902Y-71600000D01*
X103005098Y-71600000D01*
X102544321Y-71691654D01*
X102110279Y-71871440D01*
X101719651Y-72132450D01*
X101387450Y-72464651D01*
X101126440Y-72855279D01*
X100946654Y-73289321D01*
X100855000Y-73750098D01*
X99720000Y-73750098D01*
X99720000Y-69283531D01*
X104459389Y-69283531D01*
X104501401Y-69573019D01*
X104599081Y-69848747D01*
X104672528Y-69986157D01*
X104921603Y-70063792D01*
X105770395Y-69215000D01*
X104921603Y-68366208D01*
X104672528Y-68443843D01*
X104546629Y-68707883D01*
X104474661Y-68991411D01*
X104459389Y-69283531D01*
X99720000Y-69283531D01*
X99720000Y-66568740D01*
X104465000Y-66568740D01*
X104465000Y-66861260D01*
X104522068Y-67148158D01*
X104634010Y-67418411D01*
X104796525Y-67661632D01*
X105003368Y-67868475D01*
X105166410Y-67977416D01*
X105101208Y-68186603D01*
X105950000Y-69035395D01*
X105964143Y-69021253D01*
X106143748Y-69200858D01*
X106129605Y-69215000D01*
X106143748Y-69229143D01*
X105964143Y-69408748D01*
X105950000Y-69394605D01*
X105101208Y-70243397D01*
X105178843Y-70492472D01*
X105442883Y-70618371D01*
X105726411Y-70690339D01*
X106018531Y-70705611D01*
X106308019Y-70663599D01*
X106583747Y-70565919D01*
X106659850Y-70525241D01*
X106745506Y-70595537D01*
X106855820Y-70654502D01*
X106975518Y-70690812D01*
X107100000Y-70703072D01*
X108800000Y-70703072D01*
X108924482Y-70690812D01*
X109044180Y-70654502D01*
X109154494Y-70595537D01*
X109251185Y-70516185D01*
X109330537Y-70419494D01*
X109389502Y-70309180D01*
X109425812Y-70189482D01*
X109438072Y-70065000D01*
X109438072Y-68365000D01*
X109425812Y-68240518D01*
X109389502Y-68120820D01*
X109330537Y-68010506D01*
X109251185Y-67913815D01*
X109154494Y-67834463D01*
X109044180Y-67775498D01*
X109002310Y-67762797D01*
X109103475Y-67661632D01*
X109265990Y-67418411D01*
X109377932Y-67148158D01*
X109435000Y-66861260D01*
X109435000Y-66568740D01*
X109377932Y-66281842D01*
X109265990Y-66011589D01*
X109103475Y-65768368D01*
X108896632Y-65561525D01*
X108653411Y-65399010D01*
X108383158Y-65287068D01*
X108096260Y-65230000D01*
X107803740Y-65230000D01*
X107516842Y-65287068D01*
X107246589Y-65399010D01*
X107003368Y-65561525D01*
X106950000Y-65614893D01*
X106896632Y-65561525D01*
X106653411Y-65399010D01*
X106383158Y-65287068D01*
X106096260Y-65230000D01*
X105803740Y-65230000D01*
X105516842Y-65287068D01*
X105246589Y-65399010D01*
X105003368Y-65561525D01*
X104796525Y-65768368D01*
X104634010Y-66011589D01*
X104522068Y-66281842D01*
X104465000Y-66568740D01*
X99720000Y-66568740D01*
X99720000Y-61710098D01*
X100855000Y-61710098D01*
X100855000Y-62179902D01*
X100946654Y-62640679D01*
X101126440Y-63074721D01*
X101387450Y-63465349D01*
X101719651Y-63797550D01*
X102110279Y-64058560D01*
X102544321Y-64238346D01*
X103005098Y-64330000D01*
X103474902Y-64330000D01*
X103935679Y-64238346D01*
X104369721Y-64058560D01*
X104760349Y-63797550D01*
X105092550Y-63465349D01*
X105353560Y-63074721D01*
X105533346Y-62640679D01*
X105625000Y-62179902D01*
X105625000Y-61710098D01*
X105533346Y-61249321D01*
X105353560Y-60815279D01*
X105092550Y-60424651D01*
X104760349Y-60092450D01*
X104369721Y-59831440D01*
X103935679Y-59651654D01*
X103474902Y-59560000D01*
X103005098Y-59560000D01*
X102544321Y-59651654D01*
X102110279Y-59831440D01*
X101719651Y-60092450D01*
X101387450Y-60424651D01*
X101126440Y-60815279D01*
X100946654Y-61249321D01*
X100855000Y-61710098D01*
X99720000Y-61710098D01*
X99720000Y-56547279D01*
X99734722Y-56397131D01*
X99768953Y-56283754D01*
X99824555Y-56179181D01*
X99899407Y-56087404D01*
X99990664Y-56011909D01*
X100094844Y-55955581D01*
X100207976Y-55920560D01*
X100356022Y-55905000D01*
X148512705Y-55905000D01*
X148479463Y-55945506D01*
%TA.AperFunction,Conductor*%
D20*
G36*
X148479463Y-55945506D02*
G01*
X148420498Y-56055820D01*
X148384188Y-56175518D01*
X148371928Y-56300000D01*
X148371928Y-57632285D01*
X147965811Y-58038402D01*
X147938675Y-58060672D01*
X147916405Y-58087808D01*
X147916404Y-58087809D01*
X147849799Y-58168967D01*
X147816583Y-58231111D01*
X147783760Y-58292518D01*
X147743093Y-58426579D01*
X147739211Y-58465990D01*
X147729361Y-58565999D01*
X147732802Y-58600935D01*
X147732801Y-63065075D01*
X147729361Y-63100001D01*
X147732801Y-63134927D01*
X147732801Y-63134936D01*
X147743092Y-63239420D01*
X147783759Y-63373481D01*
X147849799Y-63497033D01*
X147909000Y-63569169D01*
X147909000Y-63592089D01*
X147944932Y-63772729D01*
X148015414Y-63942889D01*
X148117738Y-64096028D01*
X148247972Y-64226262D01*
X148401111Y-64328586D01*
X148571271Y-64399068D01*
X148751911Y-64435000D01*
X148936089Y-64435000D01*
X149116729Y-64399068D01*
X149286889Y-64328586D01*
X149440028Y-64226262D01*
X149570262Y-64096028D01*
X149672586Y-63942889D01*
X149743068Y-63772729D01*
X149754551Y-63715000D01*
X150006260Y-63715000D01*
X150293158Y-63657932D01*
X150563411Y-63545990D01*
X150806632Y-63383475D01*
X151013475Y-63176632D01*
X151131100Y-63000594D01*
X151302412Y-63230269D01*
X151518645Y-63425178D01*
X151768748Y-63574157D01*
X152043109Y-63671481D01*
X152273000Y-63550814D01*
X152273000Y-62357000D01*
X152527000Y-62357000D01*
X152527000Y-63550814D01*
X152756891Y-63671481D01*
X153031252Y-63574157D01*
X153281355Y-63425178D01*
X153497588Y-63230269D01*
X153671641Y-62996920D01*
X153796825Y-62734099D01*
X153841476Y-62586890D01*
X153720155Y-62357000D01*
X152527000Y-62357000D01*
X152273000Y-62357000D01*
X152253000Y-62357000D01*
X152253000Y-62103000D01*
X152273000Y-62103000D01*
X152273000Y-62083000D01*
X152527000Y-62083000D01*
X152527000Y-62103000D01*
X153720155Y-62103000D01*
X153841476Y-61873110D01*
X153796825Y-61725901D01*
X153671641Y-61463080D01*
X153497588Y-61229731D01*
X153281355Y-61034822D01*
X153164466Y-60965195D01*
X153346632Y-60843475D01*
X153553475Y-60636632D01*
X153715990Y-60393411D01*
X153827932Y-60123158D01*
X153885000Y-59836260D01*
X153885000Y-59543740D01*
X153827932Y-59256842D01*
X153715990Y-58986589D01*
X153553475Y-58743368D01*
X153346632Y-58536525D01*
X153172240Y-58420000D01*
X153346632Y-58303475D01*
X153553475Y-58096632D01*
X153715990Y-57853411D01*
X153827932Y-57583158D01*
X153885000Y-57296260D01*
X153885000Y-57003740D01*
X153827932Y-56716842D01*
X153715990Y-56446589D01*
X153553475Y-56203368D01*
X153346632Y-55996525D01*
X153209655Y-55905000D01*
X165067721Y-55905000D01*
X165217869Y-55919722D01*
X165331246Y-55953953D01*
X165435819Y-56009555D01*
X165527596Y-56084407D01*
X165603091Y-56175664D01*
X165659419Y-56279844D01*
X165694440Y-56392976D01*
X165710001Y-56541031D01*
X165710000Y-79342721D01*
X165695278Y-79492869D01*
X165661047Y-79606246D01*
X165605446Y-79710817D01*
X165530594Y-79802595D01*
X165439335Y-79878091D01*
X165335160Y-79934419D01*
X165222024Y-79969440D01*
X165073979Y-79985000D01*
X100362279Y-79985000D01*
X100212131Y-79970278D01*
X100098754Y-79936047D01*
X99994183Y-79880446D01*
X99902405Y-79805594D01*
X99826909Y-79714335D01*
X99770581Y-79610160D01*
X99735560Y-79497024D01*
X99720000Y-79348979D01*
X99720000Y-76870000D01*
X111156928Y-76870000D01*
X111156928Y-78070000D01*
X111169188Y-78194482D01*
X111205498Y-78314180D01*
X111264463Y-78424494D01*
X111343815Y-78521185D01*
X111440506Y-78600537D01*
X111550820Y-78659502D01*
X111670518Y-78695812D01*
X111795000Y-78708072D01*
X112995000Y-78708072D01*
X113119482Y-78695812D01*
X113239180Y-78659502D01*
X113349494Y-78600537D01*
X113446185Y-78521185D01*
X113525537Y-78424494D01*
X113549858Y-78378994D01*
X113607736Y-78436872D01*
X113724842Y-78319766D01*
X113772148Y-78543348D01*
X113993516Y-78644237D01*
X114230313Y-78700000D01*
X114473438Y-78708495D01*
X114713549Y-78669395D01*
X114941418Y-78584202D01*
X115017852Y-78543348D01*
X115065159Y-78319764D01*
X114395000Y-77649605D01*
X114380858Y-77663748D01*
X114201253Y-77484143D01*
X114215395Y-77470000D01*
X114574605Y-77470000D01*
X115244764Y-78140159D01*
X115468348Y-78092852D01*
X115569237Y-77871484D01*
X115625000Y-77634687D01*
X115633495Y-77391562D01*
X115594395Y-77151451D01*
X115509202Y-76923582D01*
X115468348Y-76847148D01*
X115244764Y-76799841D01*
X114574605Y-77470000D01*
X114215395Y-77470000D01*
X114201253Y-77455858D01*
X114380858Y-77276253D01*
X114395000Y-77290395D01*
X115065159Y-76620236D01*
X115043236Y-76516624D01*
X115128586Y-76388889D01*
X115199068Y-76218729D01*
X115235000Y-76038089D01*
X115235000Y-76016787D01*
X120620196Y-70631593D01*
X120647327Y-70609327D01*
X120669593Y-70582196D01*
X120669598Y-70582191D01*
X120736202Y-70501033D01*
X120802242Y-70377482D01*
X120842909Y-70243420D01*
X120847553Y-70196265D01*
X120852583Y-70145205D01*
X121990789Y-69007000D01*
X122012089Y-69007000D01*
X122104190Y-68988680D01*
X122104190Y-70732621D01*
X122089128Y-70747683D01*
X121986804Y-70900822D01*
X121916322Y-71070982D01*
X121880390Y-71251622D01*
X121880390Y-71435800D01*
X121916322Y-71616440D01*
X121986804Y-71786600D01*
X122089128Y-71939739D01*
X122219362Y-72069973D01*
X122372501Y-72172297D01*
X122542661Y-72242779D01*
X122723301Y-72278711D01*
X122732800Y-72278711D01*
X122732800Y-72794910D01*
X122717738Y-72809972D01*
X122615414Y-72963111D01*
X122544932Y-73133271D01*
X122509000Y-73313911D01*
X122509000Y-73498089D01*
X122544932Y-73678729D01*
X122615414Y-73848889D01*
X122717738Y-74002028D01*
X122847972Y-74132262D01*
X123001111Y-74234586D01*
X123171271Y-74305068D01*
X123351911Y-74341000D01*
X123536089Y-74341000D01*
X123716729Y-74305068D01*
X123886889Y-74234586D01*
X124040028Y-74132262D01*
X124170262Y-74002028D01*
X124272586Y-73848889D01*
X124343068Y-73678729D01*
X124379000Y-73498089D01*
X124379000Y-73313911D01*
X124343068Y-73133271D01*
X124272586Y-72963111D01*
X124170262Y-72809972D01*
X124155200Y-72794910D01*
X124155200Y-69360520D01*
X124164699Y-69360520D01*
X124345339Y-69324588D01*
X124515499Y-69254106D01*
X124668638Y-69151782D01*
X124798872Y-69021548D01*
X124901196Y-68868409D01*
X124971678Y-68698249D01*
X125007610Y-68517609D01*
X125007610Y-68333431D01*
X124971678Y-68152791D01*
X124901196Y-67982631D01*
X124798872Y-67829492D01*
X124783810Y-67814430D01*
X124783810Y-62187665D01*
X125896943Y-61074534D01*
X125846932Y-61195271D01*
X125811000Y-61375911D01*
X125811000Y-61397213D01*
X125556735Y-61651478D01*
X125529599Y-61673748D01*
X125507329Y-61700884D01*
X125507328Y-61700885D01*
X125440723Y-61782043D01*
X125400047Y-61858143D01*
X125374684Y-61905594D01*
X125334017Y-62039655D01*
X125329675Y-62083740D01*
X125320285Y-62179075D01*
X125323726Y-62214011D01*
X125323725Y-70161339D01*
X125320285Y-70196265D01*
X125323725Y-70231191D01*
X125323725Y-70231200D01*
X125334016Y-70335684D01*
X125374683Y-70469745D01*
X125440723Y-70593297D01*
X125526801Y-70698183D01*
X125526800Y-76858910D01*
X125511738Y-76873972D01*
X125409414Y-77027111D01*
X125338932Y-77197271D01*
X125303000Y-77377911D01*
X125303000Y-77562089D01*
X125338932Y-77742729D01*
X125409414Y-77912889D01*
X125511738Y-78066028D01*
X125641972Y-78196262D01*
X125795111Y-78298586D01*
X125965271Y-78369068D01*
X126145911Y-78405000D01*
X126330089Y-78405000D01*
X126510729Y-78369068D01*
X126680889Y-78298586D01*
X126834028Y-78196262D01*
X126964262Y-78066028D01*
X127066586Y-77912889D01*
X127137068Y-77742729D01*
X127173000Y-77562089D01*
X127173000Y-77377911D01*
X127137068Y-77197271D01*
X127066586Y-77027111D01*
X126964262Y-76873972D01*
X126949200Y-76858910D01*
X126949200Y-76698589D01*
X135140000Y-76698589D01*
X135140000Y-76971411D01*
X135193225Y-77238989D01*
X135297629Y-77491043D01*
X135449201Y-77717886D01*
X135642114Y-77910799D01*
X135868957Y-78062371D01*
X136121011Y-78166775D01*
X136388589Y-78220000D01*
X136661411Y-78220000D01*
X136928989Y-78166775D01*
X137181043Y-78062371D01*
X137407886Y-77910799D01*
X137600799Y-77717886D01*
X137752371Y-77491043D01*
X137856775Y-77238989D01*
X137910000Y-76971411D01*
X137910000Y-76698589D01*
X140020000Y-76698589D01*
X140020000Y-76971411D01*
X140073225Y-77238989D01*
X140177629Y-77491043D01*
X140329201Y-77717886D01*
X140522114Y-77910799D01*
X140748957Y-78062371D01*
X141001011Y-78166775D01*
X141268589Y-78220000D01*
X141541411Y-78220000D01*
X141808989Y-78166775D01*
X142061043Y-78062371D01*
X142287886Y-77910799D01*
X142480799Y-77717886D01*
X142632371Y-77491043D01*
X142736775Y-77238989D01*
X142790000Y-76971411D01*
X142790000Y-76698589D01*
X142736775Y-76431011D01*
X142632371Y-76178957D01*
X142480799Y-75952114D01*
X142287886Y-75759201D01*
X142061043Y-75607629D01*
X141808989Y-75503225D01*
X141541411Y-75450000D01*
X141268589Y-75450000D01*
X141001011Y-75503225D01*
X140748957Y-75607629D01*
X140522114Y-75759201D01*
X140329201Y-75952114D01*
X140177629Y-76178957D01*
X140073225Y-76431011D01*
X140020000Y-76698589D01*
X137910000Y-76698589D01*
X137856775Y-76431011D01*
X137752371Y-76178957D01*
X137600799Y-75952114D01*
X137407886Y-75759201D01*
X137181043Y-75607629D01*
X136928989Y-75503225D01*
X136661411Y-75450000D01*
X136388589Y-75450000D01*
X136121011Y-75503225D01*
X135868957Y-75607629D01*
X135642114Y-75759201D01*
X135449201Y-75952114D01*
X135297629Y-76178957D01*
X135193225Y-76431011D01*
X135140000Y-76698589D01*
X126949200Y-76698589D01*
X126949200Y-74715000D01*
X149006928Y-74715000D01*
X149006928Y-76415000D01*
X149019188Y-76539482D01*
X149055498Y-76659180D01*
X149114463Y-76769494D01*
X149193815Y-76866185D01*
X149290506Y-76945537D01*
X149400820Y-77004502D01*
X149473380Y-77026513D01*
X149341525Y-77158368D01*
X149179010Y-77401589D01*
X149067068Y-77671842D01*
X149010000Y-77958740D01*
X149010000Y-78251260D01*
X149067068Y-78538158D01*
X149179010Y-78808411D01*
X149341525Y-79051632D01*
X149548368Y-79258475D01*
X149791589Y-79420990D01*
X150061842Y-79532932D01*
X150348740Y-79590000D01*
X150641260Y-79590000D01*
X150928158Y-79532932D01*
X151198411Y-79420990D01*
X151441632Y-79258475D01*
X151648475Y-79051632D01*
X151810990Y-78808411D01*
X151922932Y-78538158D01*
X151980000Y-78251260D01*
X151980000Y-77958740D01*
X151922932Y-77671842D01*
X151810990Y-77401589D01*
X151648475Y-77158368D01*
X151516620Y-77026513D01*
X151589180Y-77004502D01*
X151699494Y-76945537D01*
X151796185Y-76866185D01*
X151875537Y-76769494D01*
X151934502Y-76659180D01*
X151970812Y-76539482D01*
X151983072Y-76415000D01*
X151983072Y-74715000D01*
X151970812Y-74590518D01*
X151934502Y-74470820D01*
X151875537Y-74360506D01*
X151796185Y-74263815D01*
X151699494Y-74184463D01*
X151589180Y-74125498D01*
X151469482Y-74089188D01*
X151345000Y-74076928D01*
X149645000Y-74076928D01*
X149520518Y-74089188D01*
X149400820Y-74125498D01*
X149290506Y-74184463D01*
X149193815Y-74263815D01*
X149114463Y-74360506D01*
X149055498Y-74470820D01*
X149019188Y-74590518D01*
X149006928Y-74715000D01*
X126949200Y-74715000D01*
X126949200Y-70788242D01*
X127106415Y-70723122D01*
X127259554Y-70620798D01*
X127389788Y-70490564D01*
X127492112Y-70337425D01*
X127562594Y-70167265D01*
X127593496Y-70011911D01*
X129621000Y-70011911D01*
X129621000Y-70196089D01*
X129656932Y-70376729D01*
X129727414Y-70546889D01*
X129829738Y-70700028D01*
X129959972Y-70830262D01*
X130113111Y-70932586D01*
X130283271Y-71003068D01*
X130463911Y-71039000D01*
X130648089Y-71039000D01*
X130828729Y-71003068D01*
X130998889Y-70932586D01*
X131152028Y-70830262D01*
X131167090Y-70815200D01*
X131772071Y-70815200D01*
X131806997Y-70818640D01*
X131841923Y-70815200D01*
X131841933Y-70815200D01*
X131946417Y-70804909D01*
X132080478Y-70764242D01*
X132204030Y-70698202D01*
X132312324Y-70609327D01*
X132334599Y-70582185D01*
X133666784Y-69250000D01*
X155356928Y-69250000D01*
X155356928Y-70450000D01*
X155373992Y-70623254D01*
X155424528Y-70789850D01*
X155506595Y-70943386D01*
X155617038Y-71077962D01*
X155751614Y-71188405D01*
X155878608Y-71256285D01*
X155691525Y-71443368D01*
X155529010Y-71686589D01*
X155417068Y-71956842D01*
X155360000Y-72243740D01*
X155360000Y-72536260D01*
X155417068Y-72823158D01*
X155529010Y-73093411D01*
X155691525Y-73336632D01*
X155898368Y-73543475D01*
X156072760Y-73660000D01*
X155898368Y-73776525D01*
X155691525Y-73983368D01*
X155529010Y-74226589D01*
X155417068Y-74496842D01*
X155360000Y-74783740D01*
X155360000Y-75076260D01*
X155417068Y-75363158D01*
X155529010Y-75633411D01*
X155691525Y-75876632D01*
X155898368Y-76083475D01*
X156141589Y-76245990D01*
X156411842Y-76357932D01*
X156698740Y-76415000D01*
X156991260Y-76415000D01*
X157278158Y-76357932D01*
X157548411Y-76245990D01*
X157791632Y-76083475D01*
X157916710Y-75958397D01*
X158536208Y-75958397D01*
X158613843Y-76207472D01*
X158877883Y-76333371D01*
X159161411Y-76405339D01*
X159453531Y-76420611D01*
X159743019Y-76378599D01*
X160018747Y-76280919D01*
X160156157Y-76207472D01*
X160233792Y-75958397D01*
X159385000Y-75109605D01*
X158536208Y-75958397D01*
X157916710Y-75958397D01*
X157998475Y-75876632D01*
X158114311Y-75703271D01*
X158356603Y-75778792D01*
X159205395Y-74930000D01*
X159564605Y-74930000D01*
X160413397Y-75778792D01*
X160662472Y-75701157D01*
X160788371Y-75437117D01*
X160860339Y-75153589D01*
X160875611Y-74861469D01*
X160833599Y-74571981D01*
X160735919Y-74296253D01*
X160662472Y-74158843D01*
X160413397Y-74081208D01*
X159564605Y-74930000D01*
X159205395Y-74930000D01*
X158356603Y-74081208D01*
X158114311Y-74156729D01*
X157998475Y-73983368D01*
X157791632Y-73776525D01*
X157617240Y-73660000D01*
X157791632Y-73543475D01*
X157998475Y-73336632D01*
X158115000Y-73162240D01*
X158231525Y-73336632D01*
X158438368Y-73543475D01*
X158611729Y-73659311D01*
X158536208Y-73901603D01*
X159385000Y-74750395D01*
X160233792Y-73901603D01*
X160158271Y-73659311D01*
X160331632Y-73543475D01*
X160538475Y-73336632D01*
X160700990Y-73093411D01*
X160812932Y-72823158D01*
X160870000Y-72536260D01*
X160870000Y-72243740D01*
X160812932Y-71956842D01*
X160700990Y-71686589D01*
X160538475Y-71443368D01*
X160331632Y-71236525D01*
X160157240Y-71120000D01*
X160331632Y-71003475D01*
X160538475Y-70796632D01*
X160700990Y-70553411D01*
X160812932Y-70283158D01*
X160870000Y-69996260D01*
X160870000Y-69703740D01*
X160812932Y-69416842D01*
X160700990Y-69146589D01*
X160538475Y-68903368D01*
X160331632Y-68696525D01*
X160088411Y-68534010D01*
X159818158Y-68422068D01*
X159531260Y-68365000D01*
X159238740Y-68365000D01*
X158951842Y-68422068D01*
X158681589Y-68534010D01*
X158438368Y-68696525D01*
X158251285Y-68883608D01*
X158183405Y-68756614D01*
X158072962Y-68622038D01*
X157938386Y-68511595D01*
X157784850Y-68429528D01*
X157618254Y-68378992D01*
X157445000Y-68361928D01*
X156245000Y-68361928D01*
X156071746Y-68378992D01*
X155905150Y-68429528D01*
X155751614Y-68511595D01*
X155617038Y-68622038D01*
X155506595Y-68756614D01*
X155424528Y-68910150D01*
X155373992Y-69076746D01*
X155356928Y-69250000D01*
X133666784Y-69250000D01*
X134452247Y-68464537D01*
X134531972Y-68544262D01*
X134685111Y-68646586D01*
X134855271Y-68717068D01*
X135035911Y-68753000D01*
X135220089Y-68753000D01*
X135400729Y-68717068D01*
X135570889Y-68646586D01*
X135724028Y-68544262D01*
X135854262Y-68414028D01*
X135956586Y-68260889D01*
X136027068Y-68090729D01*
X136063000Y-67910089D01*
X136063000Y-67888787D01*
X141956191Y-61995597D01*
X141983327Y-61973327D01*
X142072202Y-61865033D01*
X142138242Y-61741481D01*
X142178909Y-61607420D01*
X142189200Y-61502936D01*
X142189200Y-61502927D01*
X142192640Y-61468001D01*
X142189200Y-61433075D01*
X142189200Y-59031090D01*
X142204262Y-59016028D01*
X142306586Y-58862889D01*
X142377068Y-58692729D01*
X142413000Y-58512089D01*
X142413000Y-58327911D01*
X142377068Y-58147271D01*
X142306586Y-57977111D01*
X142204262Y-57823972D01*
X142074028Y-57693738D01*
X141920889Y-57591414D01*
X141750729Y-57520932D01*
X141570089Y-57485000D01*
X141385911Y-57485000D01*
X141205271Y-57520932D01*
X141035111Y-57591414D01*
X140881972Y-57693738D01*
X140751738Y-57823972D01*
X140649414Y-57977111D01*
X140578932Y-58147271D01*
X140543000Y-58327911D01*
X140543000Y-58512089D01*
X140578932Y-58692729D01*
X140649414Y-58862889D01*
X140751738Y-59016028D01*
X140766800Y-59031090D01*
X140766801Y-61173411D01*
X137302463Y-64637750D01*
X137222738Y-64558025D01*
X137069599Y-64455701D01*
X136899439Y-64385219D01*
X136718799Y-64349287D01*
X136534621Y-64349287D01*
X136353981Y-64385219D01*
X136183821Y-64455701D01*
X136030682Y-64558025D01*
X135900448Y-64688259D01*
X135798124Y-64841398D01*
X135727642Y-65011558D01*
X135691710Y-65192198D01*
X135691710Y-65213498D01*
X131512410Y-69392800D01*
X131167090Y-69392800D01*
X131152028Y-69377738D01*
X130998889Y-69275414D01*
X130828729Y-69204932D01*
X130648089Y-69169000D01*
X130463911Y-69169000D01*
X130283271Y-69204932D01*
X130113111Y-69275414D01*
X129959972Y-69377738D01*
X129829738Y-69507972D01*
X129727414Y-69661111D01*
X129656932Y-69831271D01*
X129621000Y-70011911D01*
X127593496Y-70011911D01*
X127598526Y-69986625D01*
X127598526Y-69965323D01*
X129764196Y-67799655D01*
X129791327Y-67777389D01*
X129813593Y-67750258D01*
X129813597Y-67750254D01*
X129880202Y-67669095D01*
X129918773Y-67596934D01*
X129946242Y-67545543D01*
X129986909Y-67411482D01*
X129997200Y-67306998D01*
X129997200Y-67306989D01*
X130000640Y-67272063D01*
X129997200Y-67237137D01*
X129997200Y-60047090D01*
X130012262Y-60032028D01*
X130114586Y-59878889D01*
X130185068Y-59708729D01*
X130221000Y-59528089D01*
X130221000Y-59343911D01*
X130185068Y-59163271D01*
X130114586Y-58993111D01*
X130012262Y-58839972D01*
X129882028Y-58709738D01*
X129728889Y-58607414D01*
X129558729Y-58536932D01*
X129519348Y-58529098D01*
X129554299Y-58353388D01*
X129554299Y-58169210D01*
X129518367Y-57988570D01*
X129447885Y-57818410D01*
X129345561Y-57665271D01*
X129215327Y-57535037D01*
X129062188Y-57432713D01*
X128892028Y-57362231D01*
X128711388Y-57326299D01*
X128527210Y-57326299D01*
X128346570Y-57362231D01*
X128176410Y-57432713D01*
X128023271Y-57535037D01*
X127960483Y-57597825D01*
X127950889Y-57591414D01*
X127780729Y-57520932D01*
X127600089Y-57485000D01*
X127415911Y-57485000D01*
X127235271Y-57520932D01*
X127065111Y-57591414D01*
X126911972Y-57693738D01*
X126781738Y-57823972D01*
X126679414Y-57977111D01*
X126608932Y-58147271D01*
X126573000Y-58327911D01*
X126573000Y-58512089D01*
X126608932Y-58692729D01*
X126679414Y-58862889D01*
X126781738Y-59016028D01*
X126796800Y-59031090D01*
X126796800Y-59507489D01*
X126713340Y-59382582D01*
X126583106Y-59252348D01*
X126429967Y-59150024D01*
X126259807Y-59079542D01*
X126079167Y-59043610D01*
X125894989Y-59043610D01*
X125714349Y-59079542D01*
X125544189Y-59150024D01*
X125391050Y-59252348D01*
X125260816Y-59382582D01*
X125158492Y-59535721D01*
X125088010Y-59705881D01*
X125052078Y-59886521D01*
X125052078Y-59907821D01*
X123834279Y-61125622D01*
X123716729Y-61076932D01*
X123536089Y-61041000D01*
X123351911Y-61041000D01*
X123171271Y-61076932D01*
X123001111Y-61147414D01*
X122847972Y-61249738D01*
X122717738Y-61379972D01*
X122615414Y-61533111D01*
X122544932Y-61703271D01*
X122521608Y-61820530D01*
X122372501Y-61882291D01*
X122219362Y-61984615D01*
X122089128Y-62114849D01*
X121986804Y-62267988D01*
X121916322Y-62438148D01*
X121880390Y-62618788D01*
X121880390Y-62802966D01*
X121916322Y-62983606D01*
X121986804Y-63153766D01*
X122089128Y-63306905D01*
X122104191Y-63321968D01*
X122104190Y-67155320D01*
X122012089Y-67137000D01*
X121827911Y-67137000D01*
X121647271Y-67172932D01*
X121477111Y-67243414D01*
X121323972Y-67345738D01*
X121193738Y-67475972D01*
X121091414Y-67629111D01*
X121020932Y-67799271D01*
X120985000Y-67979911D01*
X120985000Y-68001211D01*
X120853200Y-68133012D01*
X120853200Y-62841090D01*
X120868262Y-62826028D01*
X120970586Y-62672889D01*
X121041068Y-62502729D01*
X121077000Y-62322089D01*
X121077000Y-62137911D01*
X121041068Y-61957271D01*
X120970586Y-61787111D01*
X120868262Y-61633972D01*
X120738028Y-61503738D01*
X120584889Y-61401414D01*
X120414729Y-61330932D01*
X120234089Y-61295000D01*
X120049911Y-61295000D01*
X119869271Y-61330932D01*
X119699111Y-61401414D01*
X119545972Y-61503738D01*
X119415738Y-61633972D01*
X119313414Y-61787111D01*
X119242932Y-61957271D01*
X119207000Y-62137911D01*
X119207000Y-62322089D01*
X119242932Y-62502729D01*
X119313414Y-62672889D01*
X119415738Y-62826028D01*
X119430800Y-62841090D01*
X119430801Y-69809410D01*
X114229213Y-75011000D01*
X114207911Y-75011000D01*
X114027271Y-75046932D01*
X113857111Y-75117414D01*
X113703972Y-75219738D01*
X113573738Y-75349972D01*
X113471414Y-75503111D01*
X113400932Y-75673271D01*
X113365000Y-75853911D01*
X113365000Y-76038089D01*
X113400932Y-76218729D01*
X113471414Y-76388889D01*
X113571775Y-76539089D01*
X113549858Y-76561006D01*
X113525537Y-76515506D01*
X113446185Y-76418815D01*
X113349494Y-76339463D01*
X113239180Y-76280498D01*
X113119482Y-76244188D01*
X112995000Y-76231928D01*
X111795000Y-76231928D01*
X111670518Y-76244188D01*
X111550820Y-76280498D01*
X111440506Y-76339463D01*
X111343815Y-76418815D01*
X111264463Y-76515506D01*
X111205498Y-76625820D01*
X111169188Y-76745518D01*
X111156928Y-76870000D01*
X99720000Y-76870000D01*
X99720000Y-73750098D01*
X100855000Y-73750098D01*
X100855000Y-74219902D01*
X100946654Y-74680679D01*
X101126440Y-75114721D01*
X101387450Y-75505349D01*
X101719651Y-75837550D01*
X102110279Y-76098560D01*
X102544321Y-76278346D01*
X103005098Y-76370000D01*
X103474902Y-76370000D01*
X103935679Y-76278346D01*
X104369721Y-76098560D01*
X104760349Y-75837550D01*
X105092550Y-75505349D01*
X105353560Y-75114721D01*
X105533346Y-74680679D01*
X105625000Y-74219902D01*
X105625000Y-73750098D01*
X105533346Y-73289321D01*
X105353560Y-72855279D01*
X105092550Y-72464651D01*
X104760349Y-72132450D01*
X104369721Y-71871440D01*
X103935679Y-71691654D01*
X103474902Y-71600000D01*
X103005098Y-71600000D01*
X102544321Y-71691654D01*
X102110279Y-71871440D01*
X101719651Y-72132450D01*
X101387450Y-72464651D01*
X101126440Y-72855279D01*
X100946654Y-73289321D01*
X100855000Y-73750098D01*
X99720000Y-73750098D01*
X99720000Y-69283531D01*
X104459389Y-69283531D01*
X104501401Y-69573019D01*
X104599081Y-69848747D01*
X104672528Y-69986157D01*
X104921603Y-70063792D01*
X105770395Y-69215000D01*
X104921603Y-68366208D01*
X104672528Y-68443843D01*
X104546629Y-68707883D01*
X104474661Y-68991411D01*
X104459389Y-69283531D01*
X99720000Y-69283531D01*
X99720000Y-66568740D01*
X104465000Y-66568740D01*
X104465000Y-66861260D01*
X104522068Y-67148158D01*
X104634010Y-67418411D01*
X104796525Y-67661632D01*
X105003368Y-67868475D01*
X105166410Y-67977416D01*
X105101208Y-68186603D01*
X105950000Y-69035395D01*
X105964143Y-69021253D01*
X106143748Y-69200858D01*
X106129605Y-69215000D01*
X106143748Y-69229143D01*
X105964143Y-69408748D01*
X105950000Y-69394605D01*
X105101208Y-70243397D01*
X105178843Y-70492472D01*
X105442883Y-70618371D01*
X105726411Y-70690339D01*
X106018531Y-70705611D01*
X106308019Y-70663599D01*
X106583747Y-70565919D01*
X106659850Y-70525241D01*
X106745506Y-70595537D01*
X106855820Y-70654502D01*
X106975518Y-70690812D01*
X107100000Y-70703072D01*
X108800000Y-70703072D01*
X108924482Y-70690812D01*
X109044180Y-70654502D01*
X109154494Y-70595537D01*
X109251185Y-70516185D01*
X109330537Y-70419494D01*
X109389502Y-70309180D01*
X109425812Y-70189482D01*
X109438072Y-70065000D01*
X109438072Y-68365000D01*
X109425812Y-68240518D01*
X109389502Y-68120820D01*
X109330537Y-68010506D01*
X109251185Y-67913815D01*
X109154494Y-67834463D01*
X109044180Y-67775498D01*
X109002310Y-67762797D01*
X109103475Y-67661632D01*
X109265990Y-67418411D01*
X109377932Y-67148158D01*
X109435000Y-66861260D01*
X109435000Y-66568740D01*
X109377932Y-66281842D01*
X109265990Y-66011589D01*
X109103475Y-65768368D01*
X108896632Y-65561525D01*
X108653411Y-65399010D01*
X108383158Y-65287068D01*
X108096260Y-65230000D01*
X107803740Y-65230000D01*
X107516842Y-65287068D01*
X107246589Y-65399010D01*
X107003368Y-65561525D01*
X106950000Y-65614893D01*
X106896632Y-65561525D01*
X106653411Y-65399010D01*
X106383158Y-65287068D01*
X106096260Y-65230000D01*
X105803740Y-65230000D01*
X105516842Y-65287068D01*
X105246589Y-65399010D01*
X105003368Y-65561525D01*
X104796525Y-65768368D01*
X104634010Y-66011589D01*
X104522068Y-66281842D01*
X104465000Y-66568740D01*
X99720000Y-66568740D01*
X99720000Y-61710098D01*
X100855000Y-61710098D01*
X100855000Y-62179902D01*
X100946654Y-62640679D01*
X101126440Y-63074721D01*
X101387450Y-63465349D01*
X101719651Y-63797550D01*
X102110279Y-64058560D01*
X102544321Y-64238346D01*
X103005098Y-64330000D01*
X103474902Y-64330000D01*
X103935679Y-64238346D01*
X104369721Y-64058560D01*
X104760349Y-63797550D01*
X105092550Y-63465349D01*
X105353560Y-63074721D01*
X105533346Y-62640679D01*
X105625000Y-62179902D01*
X105625000Y-61710098D01*
X105533346Y-61249321D01*
X105353560Y-60815279D01*
X105092550Y-60424651D01*
X104760349Y-60092450D01*
X104369721Y-59831440D01*
X103935679Y-59651654D01*
X103474902Y-59560000D01*
X103005098Y-59560000D01*
X102544321Y-59651654D01*
X102110279Y-59831440D01*
X101719651Y-60092450D01*
X101387450Y-60424651D01*
X101126440Y-60815279D01*
X100946654Y-61249321D01*
X100855000Y-61710098D01*
X99720000Y-61710098D01*
X99720000Y-56547279D01*
X99734722Y-56397131D01*
X99768953Y-56283754D01*
X99824555Y-56179181D01*
X99899407Y-56087404D01*
X99990664Y-56011909D01*
X100094844Y-55955581D01*
X100207976Y-55920560D01*
X100356022Y-55905000D01*
X148512705Y-55905000D01*
X148479463Y-55945506D01*
G37*
%TD.AperFunction*%
%TD*%
M02*
