%TF.GenerationSoftware,KiCad,Pcbnew,(5.1.10-0-10_14)*%
%TF.CreationDate,2021-05-10T23:18:38+02:00*%
%TF.ProjectId,USB_power_serial_breakout,5553425f-706f-4776-9572-5f7365726961,rev?*%
%TF.SameCoordinates,Original*%
%TF.FileFunction,Legend,Bot*%
%TF.FilePolarity,Positive*%
%FSLAX46Y46*%
G04 Gerber Fmt 4.6, Leading zero omitted, Abs format (unit mm)*
G04 Created by KiCad (PCBNEW (5.1.10-0-10_14)) date 2021-05-10 23:18:38*
%MOMM*%
%LPD*%
G01*
G04 APERTURE LIST*
%ADD10C,0.150000*%
%ADD11C,0.010000*%
%ADD12C,0.100000*%
%ADD13C,0.120000*%
G04 APERTURE END LIST*
D10*
X220646190Y-66127380D02*
X220312857Y-67127380D01*
X219979523Y-66127380D01*
X219265238Y-67079761D02*
X219360476Y-67127380D01*
X219550952Y-67127380D01*
X219646190Y-67079761D01*
X219693809Y-66984523D01*
X219693809Y-66603571D01*
X219646190Y-66508333D01*
X219550952Y-66460714D01*
X219360476Y-66460714D01*
X219265238Y-66508333D01*
X219217619Y-66603571D01*
X219217619Y-66698809D01*
X219693809Y-66794047D01*
X218789047Y-67127380D02*
X218789047Y-66460714D01*
X218789047Y-66651190D02*
X218741428Y-66555952D01*
X218693809Y-66508333D01*
X218598571Y-66460714D01*
X218503333Y-66460714D01*
X218217619Y-67079761D02*
X218122380Y-67127380D01*
X217931904Y-67127380D01*
X217836666Y-67079761D01*
X217789047Y-66984523D01*
X217789047Y-66936904D01*
X217836666Y-66841666D01*
X217931904Y-66794047D01*
X218074761Y-66794047D01*
X218170000Y-66746428D01*
X218217619Y-66651190D01*
X218217619Y-66603571D01*
X218170000Y-66508333D01*
X218074761Y-66460714D01*
X217931904Y-66460714D01*
X217836666Y-66508333D01*
X217360476Y-67127380D02*
X217360476Y-66460714D01*
X217360476Y-66127380D02*
X217408095Y-66175000D01*
X217360476Y-66222619D01*
X217312857Y-66175000D01*
X217360476Y-66127380D01*
X217360476Y-66222619D01*
X216741428Y-67127380D02*
X216836666Y-67079761D01*
X216884285Y-67032142D01*
X216931904Y-66936904D01*
X216931904Y-66651190D01*
X216884285Y-66555952D01*
X216836666Y-66508333D01*
X216741428Y-66460714D01*
X216598571Y-66460714D01*
X216503333Y-66508333D01*
X216455714Y-66555952D01*
X216408095Y-66651190D01*
X216408095Y-66936904D01*
X216455714Y-67032142D01*
X216503333Y-67079761D01*
X216598571Y-67127380D01*
X216741428Y-67127380D01*
X215979523Y-66460714D02*
X215979523Y-67127380D01*
X215979523Y-66555952D02*
X215931904Y-66508333D01*
X215836666Y-66460714D01*
X215693809Y-66460714D01*
X215598571Y-66508333D01*
X215550952Y-66603571D01*
X215550952Y-67127380D01*
X213789047Y-67127380D02*
X214360476Y-67127380D01*
X214074761Y-67127380D02*
X214074761Y-66127380D01*
X214170000Y-66270238D01*
X214265238Y-66365476D01*
X214360476Y-66413095D01*
X230112857Y-64677857D02*
X230112857Y-63477857D01*
X229827142Y-63477857D01*
X229655714Y-63535000D01*
X229541428Y-63649285D01*
X229484285Y-63763571D01*
X229427142Y-63992142D01*
X229427142Y-64163571D01*
X229484285Y-64392142D01*
X229541428Y-64506428D01*
X229655714Y-64620714D01*
X229827142Y-64677857D01*
X230112857Y-64677857D01*
X228455714Y-64620714D02*
X228570000Y-64677857D01*
X228798571Y-64677857D01*
X228912857Y-64620714D01*
X228970000Y-64506428D01*
X228970000Y-64049285D01*
X228912857Y-63935000D01*
X228798571Y-63877857D01*
X228570000Y-63877857D01*
X228455714Y-63935000D01*
X228398571Y-64049285D01*
X228398571Y-64163571D01*
X228970000Y-64277857D01*
X227941428Y-64620714D02*
X227827142Y-64677857D01*
X227598571Y-64677857D01*
X227484285Y-64620714D01*
X227427142Y-64506428D01*
X227427142Y-64449285D01*
X227484285Y-64335000D01*
X227598571Y-64277857D01*
X227770000Y-64277857D01*
X227884285Y-64220714D01*
X227941428Y-64106428D01*
X227941428Y-64049285D01*
X227884285Y-63935000D01*
X227770000Y-63877857D01*
X227598571Y-63877857D01*
X227484285Y-63935000D01*
X226912857Y-64677857D02*
X226912857Y-63877857D01*
X226912857Y-63477857D02*
X226970000Y-63535000D01*
X226912857Y-63592142D01*
X226855714Y-63535000D01*
X226912857Y-63477857D01*
X226912857Y-63592142D01*
X225827142Y-63877857D02*
X225827142Y-64849285D01*
X225884285Y-64963571D01*
X225941428Y-65020714D01*
X226055714Y-65077857D01*
X226227142Y-65077857D01*
X226341428Y-65020714D01*
X225827142Y-64620714D02*
X225941428Y-64677857D01*
X226170000Y-64677857D01*
X226284285Y-64620714D01*
X226341428Y-64563571D01*
X226398571Y-64449285D01*
X226398571Y-64106428D01*
X226341428Y-63992142D01*
X226284285Y-63935000D01*
X226170000Y-63877857D01*
X225941428Y-63877857D01*
X225827142Y-63935000D01*
X225255714Y-63877857D02*
X225255714Y-64677857D01*
X225255714Y-63992142D02*
X225198571Y-63935000D01*
X225084285Y-63877857D01*
X224912857Y-63877857D01*
X224798571Y-63935000D01*
X224741428Y-64049285D01*
X224741428Y-64677857D01*
X223712857Y-64620714D02*
X223827142Y-64677857D01*
X224055714Y-64677857D01*
X224170000Y-64620714D01*
X224227142Y-64506428D01*
X224227142Y-64049285D01*
X224170000Y-63935000D01*
X224055714Y-63877857D01*
X223827142Y-63877857D01*
X223712857Y-63935000D01*
X223655714Y-64049285D01*
X223655714Y-64163571D01*
X224227142Y-64277857D01*
X222627142Y-64677857D02*
X222627142Y-63477857D01*
X222627142Y-64620714D02*
X222741428Y-64677857D01*
X222970000Y-64677857D01*
X223084285Y-64620714D01*
X223141428Y-64563571D01*
X223198571Y-64449285D01*
X223198571Y-64106428D01*
X223141428Y-63992142D01*
X223084285Y-63935000D01*
X222970000Y-63877857D01*
X222741428Y-63877857D01*
X222627142Y-63935000D01*
X221141428Y-64677857D02*
X221141428Y-63477857D01*
X221141428Y-63935000D02*
X221027142Y-63877857D01*
X220798571Y-63877857D01*
X220684285Y-63935000D01*
X220627142Y-63992142D01*
X220570000Y-64106428D01*
X220570000Y-64449285D01*
X220627142Y-64563571D01*
X220684285Y-64620714D01*
X220798571Y-64677857D01*
X221027142Y-64677857D01*
X221141428Y-64620714D01*
X220170000Y-63877857D02*
X219884285Y-64677857D01*
X219598571Y-63877857D02*
X219884285Y-64677857D01*
X219998571Y-64963571D01*
X220055714Y-65020714D01*
X220170000Y-65077857D01*
X218227142Y-64677857D02*
X218227142Y-63477857D01*
X217941428Y-63477857D01*
X217770000Y-63535000D01*
X217655714Y-63649285D01*
X217598571Y-63763571D01*
X217541428Y-63992142D01*
X217541428Y-64163571D01*
X217598571Y-64392142D01*
X217655714Y-64506428D01*
X217770000Y-64620714D01*
X217941428Y-64677857D01*
X218227142Y-64677857D01*
X216512857Y-64677857D02*
X216512857Y-64049285D01*
X216570000Y-63935000D01*
X216684285Y-63877857D01*
X216912857Y-63877857D01*
X217027142Y-63935000D01*
X216512857Y-64620714D02*
X216627142Y-64677857D01*
X216912857Y-64677857D01*
X217027142Y-64620714D01*
X217084285Y-64506428D01*
X217084285Y-64392142D01*
X217027142Y-64277857D01*
X216912857Y-64220714D01*
X216627142Y-64220714D01*
X216512857Y-64163571D01*
X216055714Y-63877857D02*
X215827142Y-64677857D01*
X215598571Y-64106428D01*
X215370000Y-64677857D01*
X215141428Y-63877857D01*
X214684285Y-64677857D02*
X214684285Y-63877857D01*
X214684285Y-63477857D02*
X214741428Y-63535000D01*
X214684285Y-63592142D01*
X214627142Y-63535000D01*
X214684285Y-63477857D01*
X214684285Y-63592142D01*
X213598571Y-64677857D02*
X213598571Y-63477857D01*
X213598571Y-64620714D02*
X213712857Y-64677857D01*
X213941428Y-64677857D01*
X214055714Y-64620714D01*
X214112857Y-64563571D01*
X214170000Y-64449285D01*
X214170000Y-64106428D01*
X214112857Y-63992142D01*
X214055714Y-63935000D01*
X213941428Y-63877857D01*
X213712857Y-63877857D01*
X213598571Y-63935000D01*
X211712857Y-64049285D02*
X211541428Y-64106428D01*
X211484285Y-64163571D01*
X211427142Y-64277857D01*
X211427142Y-64449285D01*
X211484285Y-64563571D01*
X211541428Y-64620714D01*
X211655714Y-64677857D01*
X212112857Y-64677857D01*
X212112857Y-63477857D01*
X211712857Y-63477857D01*
X211598571Y-63535000D01*
X211541428Y-63592142D01*
X211484285Y-63706428D01*
X211484285Y-63820714D01*
X211541428Y-63935000D01*
X211598571Y-63992142D01*
X211712857Y-64049285D01*
X212112857Y-64049285D01*
X210398571Y-63877857D02*
X210398571Y-64677857D01*
X210912857Y-63877857D02*
X210912857Y-64506428D01*
X210855714Y-64620714D01*
X210741428Y-64677857D01*
X210570000Y-64677857D01*
X210455714Y-64620714D01*
X210398571Y-64563571D01*
X209312857Y-64620714D02*
X209427142Y-64677857D01*
X209655714Y-64677857D01*
X209770000Y-64620714D01*
X209827142Y-64563571D01*
X209884285Y-64449285D01*
X209884285Y-64106428D01*
X209827142Y-63992142D01*
X209770000Y-63935000D01*
X209655714Y-63877857D01*
X209427142Y-63877857D01*
X209312857Y-63935000D01*
X208798571Y-64677857D02*
X208798571Y-63477857D01*
X208284285Y-64677857D02*
X208284285Y-64049285D01*
X208341428Y-63935000D01*
X208455714Y-63877857D01*
X208627142Y-63877857D01*
X208741428Y-63935000D01*
X208798571Y-63992142D01*
X207827142Y-63877857D02*
X207598571Y-64677857D01*
X207370000Y-64106428D01*
X207141428Y-64677857D01*
X206912857Y-63877857D01*
X205941428Y-64677857D02*
X205941428Y-64049285D01*
X205998571Y-63935000D01*
X206112857Y-63877857D01*
X206341428Y-63877857D01*
X206455714Y-63935000D01*
X205941428Y-64620714D02*
X206055714Y-64677857D01*
X206341428Y-64677857D01*
X206455714Y-64620714D01*
X206512857Y-64506428D01*
X206512857Y-64392142D01*
X206455714Y-64277857D01*
X206341428Y-64220714D01*
X206055714Y-64220714D01*
X205941428Y-64163571D01*
X205198571Y-64677857D02*
X205312857Y-64620714D01*
X205370000Y-64506428D01*
X205370000Y-63477857D01*
X204227142Y-64677857D02*
X204227142Y-63477857D01*
X204227142Y-64620714D02*
X204341428Y-64677857D01*
X204570000Y-64677857D01*
X204684285Y-64620714D01*
X204741428Y-64563571D01*
X204798571Y-64449285D01*
X204798571Y-64106428D01*
X204741428Y-63992142D01*
X204684285Y-63935000D01*
X204570000Y-63877857D01*
X204341428Y-63877857D01*
X204227142Y-63935000D01*
D11*
%TO.C,REF\u002A\u002A*%
G36*
X237261400Y-71149054D02*
G01*
X237250535Y-71262993D01*
X237218918Y-71370616D01*
X237168015Y-71469615D01*
X237099293Y-71557684D01*
X237014219Y-71632516D01*
X236917232Y-71690384D01*
X236810964Y-71730005D01*
X236703950Y-71748573D01*
X236598300Y-71747434D01*
X236496125Y-71727930D01*
X236399534Y-71691406D01*
X236310638Y-71639205D01*
X236231546Y-71572673D01*
X236164369Y-71493152D01*
X236111217Y-71401987D01*
X236074199Y-71300523D01*
X236055427Y-71190102D01*
X236053489Y-71140206D01*
X236053489Y-71052267D01*
X236001560Y-71052267D01*
X235965253Y-71055111D01*
X235938355Y-71066911D01*
X235911249Y-71090649D01*
X235872867Y-71129031D01*
X235872867Y-73320602D01*
X235872876Y-73582739D01*
X235872908Y-73823241D01*
X235872972Y-74043048D01*
X235873076Y-74243101D01*
X235873227Y-74424344D01*
X235873434Y-74587716D01*
X235873706Y-74734160D01*
X235874050Y-74864617D01*
X235874474Y-74980029D01*
X235874987Y-75081338D01*
X235875597Y-75169484D01*
X235876312Y-75245410D01*
X235877140Y-75310057D01*
X235878089Y-75364367D01*
X235879167Y-75409280D01*
X235880383Y-75445740D01*
X235881745Y-75474687D01*
X235883261Y-75497063D01*
X235884938Y-75513809D01*
X235886786Y-75525868D01*
X235888813Y-75534180D01*
X235891025Y-75539687D01*
X235892108Y-75541537D01*
X235896271Y-75548549D01*
X235899805Y-75554996D01*
X235903635Y-75560900D01*
X235908682Y-75566286D01*
X235915871Y-75571178D01*
X235926123Y-75575598D01*
X235940364Y-75579572D01*
X235959514Y-75583121D01*
X235984499Y-75586270D01*
X236016240Y-75589042D01*
X236055662Y-75591461D01*
X236103686Y-75593551D01*
X236161237Y-75595335D01*
X236229237Y-75596837D01*
X236308610Y-75598080D01*
X236400279Y-75599089D01*
X236505166Y-75599885D01*
X236624196Y-75600494D01*
X236758290Y-75600939D01*
X236908373Y-75601243D01*
X237075367Y-75601430D01*
X237260196Y-75601524D01*
X237463783Y-75601548D01*
X237687050Y-75601525D01*
X237930922Y-75601480D01*
X238196321Y-75601437D01*
X238234704Y-75601432D01*
X238501682Y-75601389D01*
X238747002Y-75601318D01*
X238971583Y-75601213D01*
X239176345Y-75601066D01*
X239362206Y-75600869D01*
X239530088Y-75600616D01*
X239680908Y-75600300D01*
X239815587Y-75599913D01*
X239935044Y-75599447D01*
X240040199Y-75598897D01*
X240131971Y-75598253D01*
X240211279Y-75597511D01*
X240279043Y-75596661D01*
X240336182Y-75595697D01*
X240383617Y-75594611D01*
X240422266Y-75593397D01*
X240453049Y-75592047D01*
X240476885Y-75590555D01*
X240494694Y-75588911D01*
X240507395Y-75587111D01*
X240515908Y-75585145D01*
X240520266Y-75583477D01*
X240528728Y-75579906D01*
X240536497Y-75577270D01*
X240543602Y-75574634D01*
X240550073Y-75571062D01*
X240555939Y-75565621D01*
X240561229Y-75557375D01*
X240565974Y-75545390D01*
X240570202Y-75528731D01*
X240573943Y-75506463D01*
X240577227Y-75477652D01*
X240580083Y-75441363D01*
X240582540Y-75396661D01*
X240584629Y-75342611D01*
X240586378Y-75278279D01*
X240587817Y-75202730D01*
X240588976Y-75115030D01*
X240589883Y-75014243D01*
X240590569Y-74899434D01*
X240591063Y-74769670D01*
X240591395Y-74624015D01*
X240591593Y-74461535D01*
X240591687Y-74281295D01*
X240591708Y-74082360D01*
X240591685Y-73863796D01*
X240591646Y-73624668D01*
X240591622Y-73364040D01*
X240591622Y-73321889D01*
X240591636Y-73058992D01*
X240591661Y-72817732D01*
X240591671Y-72597165D01*
X240591642Y-72396352D01*
X240591548Y-72214349D01*
X240591362Y-72050216D01*
X240591059Y-71903011D01*
X240590614Y-71771792D01*
X240590034Y-71661867D01*
X240287197Y-71661867D01*
X240247407Y-71719711D01*
X240236236Y-71735479D01*
X240226166Y-71749441D01*
X240217138Y-71762784D01*
X240209097Y-71776693D01*
X240201986Y-71792356D01*
X240195747Y-71810958D01*
X240190325Y-71833686D01*
X240185662Y-71861727D01*
X240181701Y-71896267D01*
X240178385Y-71938492D01*
X240175659Y-71989589D01*
X240173464Y-72050744D01*
X240171745Y-72123144D01*
X240170444Y-72207975D01*
X240169505Y-72306422D01*
X240168870Y-72419674D01*
X240168484Y-72548916D01*
X240168288Y-72695334D01*
X240168227Y-72860116D01*
X240168243Y-73044447D01*
X240168280Y-73249513D01*
X240168289Y-73372133D01*
X240168265Y-73589082D01*
X240168231Y-73784642D01*
X240168243Y-73959999D01*
X240168358Y-74116341D01*
X240168630Y-74254857D01*
X240169118Y-74376734D01*
X240169876Y-74483160D01*
X240170962Y-74575322D01*
X240172431Y-74654409D01*
X240174340Y-74721608D01*
X240176744Y-74778107D01*
X240179701Y-74825093D01*
X240183266Y-74863755D01*
X240187495Y-74895280D01*
X240192446Y-74920855D01*
X240198173Y-74941670D01*
X240204733Y-74958911D01*
X240212183Y-74973765D01*
X240220579Y-74987422D01*
X240229976Y-75001069D01*
X240240432Y-75015893D01*
X240246523Y-75024783D01*
X240285296Y-75082400D01*
X239753732Y-75082400D01*
X239630483Y-75082365D01*
X239527987Y-75082215D01*
X239444420Y-75081878D01*
X239377956Y-75081286D01*
X239326771Y-75080367D01*
X239289041Y-75079051D01*
X239262940Y-75077269D01*
X239246644Y-75074951D01*
X239238328Y-75072026D01*
X239236168Y-75068424D01*
X239238339Y-75064075D01*
X239239535Y-75062645D01*
X239264685Y-75025573D01*
X239290583Y-74972772D01*
X239314192Y-74910770D01*
X239322461Y-74884357D01*
X239327078Y-74866416D01*
X239330979Y-74845355D01*
X239334248Y-74819089D01*
X239336966Y-74785532D01*
X239339215Y-74742599D01*
X239341077Y-74688204D01*
X239342636Y-74620262D01*
X239343972Y-74536688D01*
X239345169Y-74435395D01*
X239346308Y-74314300D01*
X239346685Y-74269600D01*
X239347702Y-74144449D01*
X239348460Y-74040082D01*
X239348903Y-73954707D01*
X239348970Y-73886533D01*
X239348605Y-73833765D01*
X239347748Y-73794614D01*
X239346341Y-73767285D01*
X239344325Y-73749986D01*
X239341643Y-73740926D01*
X239338236Y-73738312D01*
X239334044Y-73740351D01*
X239329571Y-73744667D01*
X239319216Y-73757602D01*
X239297158Y-73786676D01*
X239264957Y-73829759D01*
X239224174Y-73884718D01*
X239176370Y-73949423D01*
X239123105Y-74021742D01*
X239065940Y-74099544D01*
X239006437Y-74180698D01*
X238946155Y-74263072D01*
X238886655Y-74344536D01*
X238829498Y-74422957D01*
X238776245Y-74496204D01*
X238728457Y-74562147D01*
X238687693Y-74618654D01*
X238655516Y-74663593D01*
X238633485Y-74694834D01*
X238628917Y-74701466D01*
X238605996Y-74738369D01*
X238579188Y-74786359D01*
X238553789Y-74835897D01*
X238550568Y-74842577D01*
X238528890Y-74890772D01*
X238516304Y-74928334D01*
X238510574Y-74964160D01*
X238509456Y-75006200D01*
X238510090Y-75082400D01*
X237355651Y-75082400D01*
X237446815Y-74988669D01*
X237493612Y-74938775D01*
X237543899Y-74882295D01*
X237589944Y-74828026D01*
X237610369Y-74802673D01*
X237640807Y-74763128D01*
X237680862Y-74709916D01*
X237729361Y-74644667D01*
X237785135Y-74569011D01*
X237847011Y-74484577D01*
X237913819Y-74392994D01*
X237984387Y-74295892D01*
X238057545Y-74194901D01*
X238132121Y-74091650D01*
X238206944Y-73987768D01*
X238280843Y-73884885D01*
X238352646Y-73784631D01*
X238421184Y-73688636D01*
X238485284Y-73598527D01*
X238543775Y-73515936D01*
X238595486Y-73442492D01*
X238639247Y-73379824D01*
X238673885Y-73329561D01*
X238698230Y-73293334D01*
X238711111Y-73272771D01*
X238712869Y-73268668D01*
X238704910Y-73257342D01*
X238684115Y-73230162D01*
X238651847Y-73188829D01*
X238609470Y-73135044D01*
X238558347Y-73070506D01*
X238499841Y-72996918D01*
X238435314Y-72915978D01*
X238366131Y-72829388D01*
X238293653Y-72738848D01*
X238219246Y-72646060D01*
X238159517Y-72571702D01*
X237148511Y-72571702D01*
X237142602Y-72584659D01*
X237128272Y-72606908D01*
X237127225Y-72608391D01*
X237108438Y-72638544D01*
X237088791Y-72675375D01*
X237084892Y-72683511D01*
X237081356Y-72691940D01*
X237078230Y-72702059D01*
X237075486Y-72715260D01*
X237073092Y-72732938D01*
X237071019Y-72756484D01*
X237069235Y-72787293D01*
X237067712Y-72826757D01*
X237066419Y-72876269D01*
X237065326Y-72937223D01*
X237064403Y-73011011D01*
X237063619Y-73099028D01*
X237062945Y-73202665D01*
X237062350Y-73323316D01*
X237061805Y-73462374D01*
X237061279Y-73621232D01*
X237060745Y-73800089D01*
X237060206Y-73985207D01*
X237059772Y-74149145D01*
X237059509Y-74293303D01*
X237059484Y-74419079D01*
X237059765Y-74527871D01*
X237060419Y-74621077D01*
X237061514Y-74700097D01*
X237063118Y-74766328D01*
X237065297Y-74821170D01*
X237068119Y-74866021D01*
X237071651Y-74902278D01*
X237075961Y-74931341D01*
X237081117Y-74954609D01*
X237087185Y-74973479D01*
X237094233Y-74989351D01*
X237102329Y-75003622D01*
X237111540Y-75017691D01*
X237120040Y-75030158D01*
X237137176Y-75056452D01*
X237147322Y-75074037D01*
X237148511Y-75077257D01*
X237137604Y-75078334D01*
X237106411Y-75079335D01*
X237057223Y-75080235D01*
X236992333Y-75081010D01*
X236914030Y-75081637D01*
X236824607Y-75082091D01*
X236726356Y-75082349D01*
X236657445Y-75082400D01*
X236552452Y-75082180D01*
X236455610Y-75081548D01*
X236369107Y-75080549D01*
X236295132Y-75079227D01*
X236235874Y-75077626D01*
X236193520Y-75075791D01*
X236170260Y-75073765D01*
X236166378Y-75072493D01*
X236174076Y-75057591D01*
X236182074Y-75049560D01*
X236195246Y-75032434D01*
X236212485Y-75002183D01*
X236224407Y-74977622D01*
X236251045Y-74918711D01*
X236254120Y-73741845D01*
X236257195Y-72564978D01*
X236702853Y-72564978D01*
X236800670Y-72565142D01*
X236891064Y-72565611D01*
X236971630Y-72566347D01*
X237039962Y-72567316D01*
X237093656Y-72568480D01*
X237130305Y-72569803D01*
X237147504Y-72571249D01*
X237148511Y-72571702D01*
X238159517Y-72571702D01*
X238144270Y-72552722D01*
X238070090Y-72460537D01*
X237998069Y-72371204D01*
X237929569Y-72286424D01*
X237865955Y-72207898D01*
X237808588Y-72137326D01*
X237758833Y-72076409D01*
X237718052Y-72026847D01*
X237700888Y-72006178D01*
X237614596Y-71905516D01*
X237537997Y-71822259D01*
X237469183Y-71754438D01*
X237406248Y-71700089D01*
X237396867Y-71692722D01*
X237357356Y-71662117D01*
X238489116Y-71661867D01*
X238483827Y-71709844D01*
X238487130Y-71767188D01*
X238508661Y-71835463D01*
X238548635Y-71915212D01*
X238593943Y-71987495D01*
X238610161Y-72010140D01*
X238638214Y-72047696D01*
X238676430Y-72098021D01*
X238723137Y-72158973D01*
X238776661Y-72228411D01*
X238835331Y-72304194D01*
X238897475Y-72384180D01*
X238961421Y-72466228D01*
X239025495Y-72548196D01*
X239088027Y-72627943D01*
X239147343Y-72703327D01*
X239201771Y-72772207D01*
X239249639Y-72832442D01*
X239289275Y-72881889D01*
X239319006Y-72918408D01*
X239337161Y-72939858D01*
X239340220Y-72943156D01*
X239343079Y-72935149D01*
X239345293Y-72904855D01*
X239346857Y-72852556D01*
X239347767Y-72778531D01*
X239348020Y-72683063D01*
X239347613Y-72566434D01*
X239346704Y-72446445D01*
X239345382Y-72314333D01*
X239343857Y-72202594D01*
X239341881Y-72109025D01*
X239339206Y-72031419D01*
X239335582Y-71967574D01*
X239330761Y-71915283D01*
X239324494Y-71872344D01*
X239316532Y-71836551D01*
X239306627Y-71805700D01*
X239294531Y-71777586D01*
X239279993Y-71750005D01*
X239265311Y-71724966D01*
X239227314Y-71661867D01*
X240287197Y-71661867D01*
X240590034Y-71661867D01*
X240590001Y-71655617D01*
X240589195Y-71553544D01*
X240588170Y-71464633D01*
X240586900Y-71387941D01*
X240585360Y-71322527D01*
X240583524Y-71267449D01*
X240581367Y-71221765D01*
X240578863Y-71184534D01*
X240575987Y-71154813D01*
X240572713Y-71131662D01*
X240569015Y-71114139D01*
X240564869Y-71101301D01*
X240560247Y-71092208D01*
X240555126Y-71085918D01*
X240549478Y-71081488D01*
X240543279Y-71077978D01*
X240536504Y-71074445D01*
X240530508Y-71070876D01*
X240525275Y-71068300D01*
X240517099Y-71065972D01*
X240504886Y-71063878D01*
X240487541Y-71062007D01*
X240463969Y-71060347D01*
X240433077Y-71058884D01*
X240393768Y-71057608D01*
X240344950Y-71056504D01*
X240285527Y-71055561D01*
X240214404Y-71054767D01*
X240130488Y-71054109D01*
X240032683Y-71053575D01*
X239919894Y-71053153D01*
X239791029Y-71052829D01*
X239644991Y-71052592D01*
X239480686Y-71052430D01*
X239297020Y-71052330D01*
X239092897Y-71052280D01*
X238881753Y-71052267D01*
X237261400Y-71052267D01*
X237261400Y-71149054D01*
G37*
X237261400Y-71149054D02*
X237250535Y-71262993D01*
X237218918Y-71370616D01*
X237168015Y-71469615D01*
X237099293Y-71557684D01*
X237014219Y-71632516D01*
X236917232Y-71690384D01*
X236810964Y-71730005D01*
X236703950Y-71748573D01*
X236598300Y-71747434D01*
X236496125Y-71727930D01*
X236399534Y-71691406D01*
X236310638Y-71639205D01*
X236231546Y-71572673D01*
X236164369Y-71493152D01*
X236111217Y-71401987D01*
X236074199Y-71300523D01*
X236055427Y-71190102D01*
X236053489Y-71140206D01*
X236053489Y-71052267D01*
X236001560Y-71052267D01*
X235965253Y-71055111D01*
X235938355Y-71066911D01*
X235911249Y-71090649D01*
X235872867Y-71129031D01*
X235872867Y-73320602D01*
X235872876Y-73582739D01*
X235872908Y-73823241D01*
X235872972Y-74043048D01*
X235873076Y-74243101D01*
X235873227Y-74424344D01*
X235873434Y-74587716D01*
X235873706Y-74734160D01*
X235874050Y-74864617D01*
X235874474Y-74980029D01*
X235874987Y-75081338D01*
X235875597Y-75169484D01*
X235876312Y-75245410D01*
X235877140Y-75310057D01*
X235878089Y-75364367D01*
X235879167Y-75409280D01*
X235880383Y-75445740D01*
X235881745Y-75474687D01*
X235883261Y-75497063D01*
X235884938Y-75513809D01*
X235886786Y-75525868D01*
X235888813Y-75534180D01*
X235891025Y-75539687D01*
X235892108Y-75541537D01*
X235896271Y-75548549D01*
X235899805Y-75554996D01*
X235903635Y-75560900D01*
X235908682Y-75566286D01*
X235915871Y-75571178D01*
X235926123Y-75575598D01*
X235940364Y-75579572D01*
X235959514Y-75583121D01*
X235984499Y-75586270D01*
X236016240Y-75589042D01*
X236055662Y-75591461D01*
X236103686Y-75593551D01*
X236161237Y-75595335D01*
X236229237Y-75596837D01*
X236308610Y-75598080D01*
X236400279Y-75599089D01*
X236505166Y-75599885D01*
X236624196Y-75600494D01*
X236758290Y-75600939D01*
X236908373Y-75601243D01*
X237075367Y-75601430D01*
X237260196Y-75601524D01*
X237463783Y-75601548D01*
X237687050Y-75601525D01*
X237930922Y-75601480D01*
X238196321Y-75601437D01*
X238234704Y-75601432D01*
X238501682Y-75601389D01*
X238747002Y-75601318D01*
X238971583Y-75601213D01*
X239176345Y-75601066D01*
X239362206Y-75600869D01*
X239530088Y-75600616D01*
X239680908Y-75600300D01*
X239815587Y-75599913D01*
X239935044Y-75599447D01*
X240040199Y-75598897D01*
X240131971Y-75598253D01*
X240211279Y-75597511D01*
X240279043Y-75596661D01*
X240336182Y-75595697D01*
X240383617Y-75594611D01*
X240422266Y-75593397D01*
X240453049Y-75592047D01*
X240476885Y-75590555D01*
X240494694Y-75588911D01*
X240507395Y-75587111D01*
X240515908Y-75585145D01*
X240520266Y-75583477D01*
X240528728Y-75579906D01*
X240536497Y-75577270D01*
X240543602Y-75574634D01*
X240550073Y-75571062D01*
X240555939Y-75565621D01*
X240561229Y-75557375D01*
X240565974Y-75545390D01*
X240570202Y-75528731D01*
X240573943Y-75506463D01*
X240577227Y-75477652D01*
X240580083Y-75441363D01*
X240582540Y-75396661D01*
X240584629Y-75342611D01*
X240586378Y-75278279D01*
X240587817Y-75202730D01*
X240588976Y-75115030D01*
X240589883Y-75014243D01*
X240590569Y-74899434D01*
X240591063Y-74769670D01*
X240591395Y-74624015D01*
X240591593Y-74461535D01*
X240591687Y-74281295D01*
X240591708Y-74082360D01*
X240591685Y-73863796D01*
X240591646Y-73624668D01*
X240591622Y-73364040D01*
X240591622Y-73321889D01*
X240591636Y-73058992D01*
X240591661Y-72817732D01*
X240591671Y-72597165D01*
X240591642Y-72396352D01*
X240591548Y-72214349D01*
X240591362Y-72050216D01*
X240591059Y-71903011D01*
X240590614Y-71771792D01*
X240590034Y-71661867D01*
X240287197Y-71661867D01*
X240247407Y-71719711D01*
X240236236Y-71735479D01*
X240226166Y-71749441D01*
X240217138Y-71762784D01*
X240209097Y-71776693D01*
X240201986Y-71792356D01*
X240195747Y-71810958D01*
X240190325Y-71833686D01*
X240185662Y-71861727D01*
X240181701Y-71896267D01*
X240178385Y-71938492D01*
X240175659Y-71989589D01*
X240173464Y-72050744D01*
X240171745Y-72123144D01*
X240170444Y-72207975D01*
X240169505Y-72306422D01*
X240168870Y-72419674D01*
X240168484Y-72548916D01*
X240168288Y-72695334D01*
X240168227Y-72860116D01*
X240168243Y-73044447D01*
X240168280Y-73249513D01*
X240168289Y-73372133D01*
X240168265Y-73589082D01*
X240168231Y-73784642D01*
X240168243Y-73959999D01*
X240168358Y-74116341D01*
X240168630Y-74254857D01*
X240169118Y-74376734D01*
X240169876Y-74483160D01*
X240170962Y-74575322D01*
X240172431Y-74654409D01*
X240174340Y-74721608D01*
X240176744Y-74778107D01*
X240179701Y-74825093D01*
X240183266Y-74863755D01*
X240187495Y-74895280D01*
X240192446Y-74920855D01*
X240198173Y-74941670D01*
X240204733Y-74958911D01*
X240212183Y-74973765D01*
X240220579Y-74987422D01*
X240229976Y-75001069D01*
X240240432Y-75015893D01*
X240246523Y-75024783D01*
X240285296Y-75082400D01*
X239753732Y-75082400D01*
X239630483Y-75082365D01*
X239527987Y-75082215D01*
X239444420Y-75081878D01*
X239377956Y-75081286D01*
X239326771Y-75080367D01*
X239289041Y-75079051D01*
X239262940Y-75077269D01*
X239246644Y-75074951D01*
X239238328Y-75072026D01*
X239236168Y-75068424D01*
X239238339Y-75064075D01*
X239239535Y-75062645D01*
X239264685Y-75025573D01*
X239290583Y-74972772D01*
X239314192Y-74910770D01*
X239322461Y-74884357D01*
X239327078Y-74866416D01*
X239330979Y-74845355D01*
X239334248Y-74819089D01*
X239336966Y-74785532D01*
X239339215Y-74742599D01*
X239341077Y-74688204D01*
X239342636Y-74620262D01*
X239343972Y-74536688D01*
X239345169Y-74435395D01*
X239346308Y-74314300D01*
X239346685Y-74269600D01*
X239347702Y-74144449D01*
X239348460Y-74040082D01*
X239348903Y-73954707D01*
X239348970Y-73886533D01*
X239348605Y-73833765D01*
X239347748Y-73794614D01*
X239346341Y-73767285D01*
X239344325Y-73749986D01*
X239341643Y-73740926D01*
X239338236Y-73738312D01*
X239334044Y-73740351D01*
X239329571Y-73744667D01*
X239319216Y-73757602D01*
X239297158Y-73786676D01*
X239264957Y-73829759D01*
X239224174Y-73884718D01*
X239176370Y-73949423D01*
X239123105Y-74021742D01*
X239065940Y-74099544D01*
X239006437Y-74180698D01*
X238946155Y-74263072D01*
X238886655Y-74344536D01*
X238829498Y-74422957D01*
X238776245Y-74496204D01*
X238728457Y-74562147D01*
X238687693Y-74618654D01*
X238655516Y-74663593D01*
X238633485Y-74694834D01*
X238628917Y-74701466D01*
X238605996Y-74738369D01*
X238579188Y-74786359D01*
X238553789Y-74835897D01*
X238550568Y-74842577D01*
X238528890Y-74890772D01*
X238516304Y-74928334D01*
X238510574Y-74964160D01*
X238509456Y-75006200D01*
X238510090Y-75082400D01*
X237355651Y-75082400D01*
X237446815Y-74988669D01*
X237493612Y-74938775D01*
X237543899Y-74882295D01*
X237589944Y-74828026D01*
X237610369Y-74802673D01*
X237640807Y-74763128D01*
X237680862Y-74709916D01*
X237729361Y-74644667D01*
X237785135Y-74569011D01*
X237847011Y-74484577D01*
X237913819Y-74392994D01*
X237984387Y-74295892D01*
X238057545Y-74194901D01*
X238132121Y-74091650D01*
X238206944Y-73987768D01*
X238280843Y-73884885D01*
X238352646Y-73784631D01*
X238421184Y-73688636D01*
X238485284Y-73598527D01*
X238543775Y-73515936D01*
X238595486Y-73442492D01*
X238639247Y-73379824D01*
X238673885Y-73329561D01*
X238698230Y-73293334D01*
X238711111Y-73272771D01*
X238712869Y-73268668D01*
X238704910Y-73257342D01*
X238684115Y-73230162D01*
X238651847Y-73188829D01*
X238609470Y-73135044D01*
X238558347Y-73070506D01*
X238499841Y-72996918D01*
X238435314Y-72915978D01*
X238366131Y-72829388D01*
X238293653Y-72738848D01*
X238219246Y-72646060D01*
X238159517Y-72571702D01*
X237148511Y-72571702D01*
X237142602Y-72584659D01*
X237128272Y-72606908D01*
X237127225Y-72608391D01*
X237108438Y-72638544D01*
X237088791Y-72675375D01*
X237084892Y-72683511D01*
X237081356Y-72691940D01*
X237078230Y-72702059D01*
X237075486Y-72715260D01*
X237073092Y-72732938D01*
X237071019Y-72756484D01*
X237069235Y-72787293D01*
X237067712Y-72826757D01*
X237066419Y-72876269D01*
X237065326Y-72937223D01*
X237064403Y-73011011D01*
X237063619Y-73099028D01*
X237062945Y-73202665D01*
X237062350Y-73323316D01*
X237061805Y-73462374D01*
X237061279Y-73621232D01*
X237060745Y-73800089D01*
X237060206Y-73985207D01*
X237059772Y-74149145D01*
X237059509Y-74293303D01*
X237059484Y-74419079D01*
X237059765Y-74527871D01*
X237060419Y-74621077D01*
X237061514Y-74700097D01*
X237063118Y-74766328D01*
X237065297Y-74821170D01*
X237068119Y-74866021D01*
X237071651Y-74902278D01*
X237075961Y-74931341D01*
X237081117Y-74954609D01*
X237087185Y-74973479D01*
X237094233Y-74989351D01*
X237102329Y-75003622D01*
X237111540Y-75017691D01*
X237120040Y-75030158D01*
X237137176Y-75056452D01*
X237147322Y-75074037D01*
X237148511Y-75077257D01*
X237137604Y-75078334D01*
X237106411Y-75079335D01*
X237057223Y-75080235D01*
X236992333Y-75081010D01*
X236914030Y-75081637D01*
X236824607Y-75082091D01*
X236726356Y-75082349D01*
X236657445Y-75082400D01*
X236552452Y-75082180D01*
X236455610Y-75081548D01*
X236369107Y-75080549D01*
X236295132Y-75079227D01*
X236235874Y-75077626D01*
X236193520Y-75075791D01*
X236170260Y-75073765D01*
X236166378Y-75072493D01*
X236174076Y-75057591D01*
X236182074Y-75049560D01*
X236195246Y-75032434D01*
X236212485Y-75002183D01*
X236224407Y-74977622D01*
X236251045Y-74918711D01*
X236254120Y-73741845D01*
X236257195Y-72564978D01*
X236702853Y-72564978D01*
X236800670Y-72565142D01*
X236891064Y-72565611D01*
X236971630Y-72566347D01*
X237039962Y-72567316D01*
X237093656Y-72568480D01*
X237130305Y-72569803D01*
X237147504Y-72571249D01*
X237148511Y-72571702D01*
X238159517Y-72571702D01*
X238144270Y-72552722D01*
X238070090Y-72460537D01*
X237998069Y-72371204D01*
X237929569Y-72286424D01*
X237865955Y-72207898D01*
X237808588Y-72137326D01*
X237758833Y-72076409D01*
X237718052Y-72026847D01*
X237700888Y-72006178D01*
X237614596Y-71905516D01*
X237537997Y-71822259D01*
X237469183Y-71754438D01*
X237406248Y-71700089D01*
X237396867Y-71692722D01*
X237357356Y-71662117D01*
X238489116Y-71661867D01*
X238483827Y-71709844D01*
X238487130Y-71767188D01*
X238508661Y-71835463D01*
X238548635Y-71915212D01*
X238593943Y-71987495D01*
X238610161Y-72010140D01*
X238638214Y-72047696D01*
X238676430Y-72098021D01*
X238723137Y-72158973D01*
X238776661Y-72228411D01*
X238835331Y-72304194D01*
X238897475Y-72384180D01*
X238961421Y-72466228D01*
X239025495Y-72548196D01*
X239088027Y-72627943D01*
X239147343Y-72703327D01*
X239201771Y-72772207D01*
X239249639Y-72832442D01*
X239289275Y-72881889D01*
X239319006Y-72918408D01*
X239337161Y-72939858D01*
X239340220Y-72943156D01*
X239343079Y-72935149D01*
X239345293Y-72904855D01*
X239346857Y-72852556D01*
X239347767Y-72778531D01*
X239348020Y-72683063D01*
X239347613Y-72566434D01*
X239346704Y-72446445D01*
X239345382Y-72314333D01*
X239343857Y-72202594D01*
X239341881Y-72109025D01*
X239339206Y-72031419D01*
X239335582Y-71967574D01*
X239330761Y-71915283D01*
X239324494Y-71872344D01*
X239316532Y-71836551D01*
X239306627Y-71805700D01*
X239294531Y-71777586D01*
X239279993Y-71750005D01*
X239265311Y-71724966D01*
X239227314Y-71661867D01*
X240287197Y-71661867D01*
X240590034Y-71661867D01*
X240590001Y-71655617D01*
X240589195Y-71553544D01*
X240588170Y-71464633D01*
X240586900Y-71387941D01*
X240585360Y-71322527D01*
X240583524Y-71267449D01*
X240581367Y-71221765D01*
X240578863Y-71184534D01*
X240575987Y-71154813D01*
X240572713Y-71131662D01*
X240569015Y-71114139D01*
X240564869Y-71101301D01*
X240560247Y-71092208D01*
X240555126Y-71085918D01*
X240549478Y-71081488D01*
X240543279Y-71077978D01*
X240536504Y-71074445D01*
X240530508Y-71070876D01*
X240525275Y-71068300D01*
X240517099Y-71065972D01*
X240504886Y-71063878D01*
X240487541Y-71062007D01*
X240463969Y-71060347D01*
X240433077Y-71058884D01*
X240393768Y-71057608D01*
X240344950Y-71056504D01*
X240285527Y-71055561D01*
X240214404Y-71054767D01*
X240130488Y-71054109D01*
X240032683Y-71053575D01*
X239919894Y-71053153D01*
X239791029Y-71052829D01*
X239644991Y-71052592D01*
X239480686Y-71052430D01*
X239297020Y-71052330D01*
X239092897Y-71052280D01*
X238881753Y-71052267D01*
X237261400Y-71052267D01*
X237261400Y-71149054D01*
G36*
X233986571Y-71609071D02*
G01*
X233826430Y-71630245D01*
X233662490Y-71670385D01*
X233492687Y-71729889D01*
X233314957Y-71809154D01*
X233303690Y-71814699D01*
X233245995Y-71842725D01*
X233194448Y-71866802D01*
X233152809Y-71885249D01*
X233124838Y-71896386D01*
X233115267Y-71898933D01*
X233096050Y-71903941D01*
X233091439Y-71908147D01*
X233096542Y-71918580D01*
X233112582Y-71944868D01*
X233137712Y-71984257D01*
X233170086Y-72033991D01*
X233207857Y-72091315D01*
X233249178Y-72153476D01*
X233292202Y-72217718D01*
X233335083Y-72281285D01*
X233375974Y-72341425D01*
X233413029Y-72395380D01*
X233444400Y-72440397D01*
X233468241Y-72473721D01*
X233482706Y-72492597D01*
X233484691Y-72494787D01*
X233494809Y-72490138D01*
X233517150Y-72472962D01*
X233547720Y-72446440D01*
X233563464Y-72431964D01*
X233659953Y-72356682D01*
X233766664Y-72301241D01*
X233882168Y-72266141D01*
X234005038Y-72251880D01*
X234074439Y-72253051D01*
X234195577Y-72270212D01*
X234304795Y-72306094D01*
X234402418Y-72360959D01*
X234488772Y-72435070D01*
X234564185Y-72528688D01*
X234628982Y-72642076D01*
X234666399Y-72728667D01*
X234710252Y-72864366D01*
X234742572Y-73011850D01*
X234763443Y-73167314D01*
X234772949Y-73326956D01*
X234771173Y-73486973D01*
X234758197Y-73643561D01*
X234734106Y-73792918D01*
X234698982Y-73931240D01*
X234652908Y-74054724D01*
X234636627Y-74088978D01*
X234568380Y-74203064D01*
X234487921Y-74299557D01*
X234396430Y-74377670D01*
X234295089Y-74436617D01*
X234185080Y-74475612D01*
X234067585Y-74493868D01*
X234026117Y-74495211D01*
X233904559Y-74484290D01*
X233784122Y-74451474D01*
X233666334Y-74397439D01*
X233552723Y-74322865D01*
X233461315Y-74244539D01*
X233414785Y-74200008D01*
X233233517Y-74497271D01*
X233188420Y-74571433D01*
X233147181Y-74639646D01*
X233111265Y-74699459D01*
X233082134Y-74748420D01*
X233061250Y-74784079D01*
X233050076Y-74803984D01*
X233048625Y-74807079D01*
X233056854Y-74816718D01*
X233082433Y-74833999D01*
X233122127Y-74857283D01*
X233172703Y-74884934D01*
X233230926Y-74915315D01*
X233293563Y-74946790D01*
X233357379Y-74977722D01*
X233419140Y-75006473D01*
X233475612Y-75031408D01*
X233523562Y-75050889D01*
X233547014Y-75059318D01*
X233680779Y-75097133D01*
X233818673Y-75122136D01*
X233966378Y-75135140D01*
X234093167Y-75137468D01*
X234161122Y-75136373D01*
X234226723Y-75134275D01*
X234284153Y-75131434D01*
X234327597Y-75128106D01*
X234341702Y-75126422D01*
X234480716Y-75097587D01*
X234622243Y-75052468D01*
X234759725Y-74993750D01*
X234886606Y-74924120D01*
X234964111Y-74871441D01*
X235091519Y-74763239D01*
X235209822Y-74636671D01*
X235316828Y-74494866D01*
X235410348Y-74340951D01*
X235488190Y-74178053D01*
X235532044Y-74060756D01*
X235582292Y-73877128D01*
X235615791Y-73682581D01*
X235632551Y-73481325D01*
X235632584Y-73277568D01*
X235615899Y-73075521D01*
X235582507Y-72879392D01*
X235532420Y-72693391D01*
X235528603Y-72681803D01*
X235465719Y-72519750D01*
X235388972Y-72371832D01*
X235295758Y-72233865D01*
X235183473Y-72101661D01*
X235139608Y-72056399D01*
X235003466Y-71932457D01*
X234863509Y-71829915D01*
X234717589Y-71747656D01*
X234563558Y-71684564D01*
X234399268Y-71639523D01*
X234303711Y-71622033D01*
X234144977Y-71606466D01*
X233986571Y-71609071D01*
G37*
X233986571Y-71609071D02*
X233826430Y-71630245D01*
X233662490Y-71670385D01*
X233492687Y-71729889D01*
X233314957Y-71809154D01*
X233303690Y-71814699D01*
X233245995Y-71842725D01*
X233194448Y-71866802D01*
X233152809Y-71885249D01*
X233124838Y-71896386D01*
X233115267Y-71898933D01*
X233096050Y-71903941D01*
X233091439Y-71908147D01*
X233096542Y-71918580D01*
X233112582Y-71944868D01*
X233137712Y-71984257D01*
X233170086Y-72033991D01*
X233207857Y-72091315D01*
X233249178Y-72153476D01*
X233292202Y-72217718D01*
X233335083Y-72281285D01*
X233375974Y-72341425D01*
X233413029Y-72395380D01*
X233444400Y-72440397D01*
X233468241Y-72473721D01*
X233482706Y-72492597D01*
X233484691Y-72494787D01*
X233494809Y-72490138D01*
X233517150Y-72472962D01*
X233547720Y-72446440D01*
X233563464Y-72431964D01*
X233659953Y-72356682D01*
X233766664Y-72301241D01*
X233882168Y-72266141D01*
X234005038Y-72251880D01*
X234074439Y-72253051D01*
X234195577Y-72270212D01*
X234304795Y-72306094D01*
X234402418Y-72360959D01*
X234488772Y-72435070D01*
X234564185Y-72528688D01*
X234628982Y-72642076D01*
X234666399Y-72728667D01*
X234710252Y-72864366D01*
X234742572Y-73011850D01*
X234763443Y-73167314D01*
X234772949Y-73326956D01*
X234771173Y-73486973D01*
X234758197Y-73643561D01*
X234734106Y-73792918D01*
X234698982Y-73931240D01*
X234652908Y-74054724D01*
X234636627Y-74088978D01*
X234568380Y-74203064D01*
X234487921Y-74299557D01*
X234396430Y-74377670D01*
X234295089Y-74436617D01*
X234185080Y-74475612D01*
X234067585Y-74493868D01*
X234026117Y-74495211D01*
X233904559Y-74484290D01*
X233784122Y-74451474D01*
X233666334Y-74397439D01*
X233552723Y-74322865D01*
X233461315Y-74244539D01*
X233414785Y-74200008D01*
X233233517Y-74497271D01*
X233188420Y-74571433D01*
X233147181Y-74639646D01*
X233111265Y-74699459D01*
X233082134Y-74748420D01*
X233061250Y-74784079D01*
X233050076Y-74803984D01*
X233048625Y-74807079D01*
X233056854Y-74816718D01*
X233082433Y-74833999D01*
X233122127Y-74857283D01*
X233172703Y-74884934D01*
X233230926Y-74915315D01*
X233293563Y-74946790D01*
X233357379Y-74977722D01*
X233419140Y-75006473D01*
X233475612Y-75031408D01*
X233523562Y-75050889D01*
X233547014Y-75059318D01*
X233680779Y-75097133D01*
X233818673Y-75122136D01*
X233966378Y-75135140D01*
X234093167Y-75137468D01*
X234161122Y-75136373D01*
X234226723Y-75134275D01*
X234284153Y-75131434D01*
X234327597Y-75128106D01*
X234341702Y-75126422D01*
X234480716Y-75097587D01*
X234622243Y-75052468D01*
X234759725Y-74993750D01*
X234886606Y-74924120D01*
X234964111Y-74871441D01*
X235091519Y-74763239D01*
X235209822Y-74636671D01*
X235316828Y-74494866D01*
X235410348Y-74340951D01*
X235488190Y-74178053D01*
X235532044Y-74060756D01*
X235582292Y-73877128D01*
X235615791Y-73682581D01*
X235632551Y-73481325D01*
X235632584Y-73277568D01*
X235615899Y-73075521D01*
X235582507Y-72879392D01*
X235532420Y-72693391D01*
X235528603Y-72681803D01*
X235465719Y-72519750D01*
X235388972Y-72371832D01*
X235295758Y-72233865D01*
X235183473Y-72101661D01*
X235139608Y-72056399D01*
X235003466Y-71932457D01*
X234863509Y-71829915D01*
X234717589Y-71747656D01*
X234563558Y-71684564D01*
X234399268Y-71639523D01*
X234303711Y-71622033D01*
X234144977Y-71606466D01*
X233986571Y-71609071D01*
G36*
X231641426Y-72526552D02*
G01*
X231489508Y-72546567D01*
X231354244Y-72580202D01*
X231234761Y-72627725D01*
X231130185Y-72689405D01*
X231052576Y-72752965D01*
X230983735Y-72827099D01*
X230929994Y-72906871D01*
X230887090Y-72999091D01*
X230871616Y-73042161D01*
X230858756Y-73081142D01*
X230847554Y-73117289D01*
X230837880Y-73152434D01*
X230829604Y-73188410D01*
X230822597Y-73227050D01*
X230816728Y-73270185D01*
X230811869Y-73319649D01*
X230807890Y-73377273D01*
X230804660Y-73444891D01*
X230802051Y-73524334D01*
X230799933Y-73617436D01*
X230798176Y-73726027D01*
X230796651Y-73851942D01*
X230795228Y-73997012D01*
X230793975Y-74139778D01*
X230792649Y-74295968D01*
X230791444Y-74431239D01*
X230790234Y-74547246D01*
X230788894Y-74645645D01*
X230787300Y-74728093D01*
X230785325Y-74796246D01*
X230782844Y-74851760D01*
X230779731Y-74896292D01*
X230775862Y-74931498D01*
X230771111Y-74959034D01*
X230765352Y-74980556D01*
X230758461Y-74997722D01*
X230750311Y-75012186D01*
X230740777Y-75025606D01*
X230729734Y-75039638D01*
X230725434Y-75045071D01*
X230709614Y-75067910D01*
X230702578Y-75083463D01*
X230702556Y-75083922D01*
X230713433Y-75086121D01*
X230744418Y-75088147D01*
X230793043Y-75089942D01*
X230856837Y-75091451D01*
X230933331Y-75092616D01*
X231020056Y-75093380D01*
X231114543Y-75093686D01*
X231125450Y-75093689D01*
X231548343Y-75093689D01*
X231551605Y-74997622D01*
X231554867Y-74901556D01*
X231616956Y-74952543D01*
X231714286Y-75020057D01*
X231824187Y-75074749D01*
X231910651Y-75104978D01*
X231979722Y-75119666D01*
X232063075Y-75129659D01*
X232152841Y-75134646D01*
X232241155Y-75134313D01*
X232320149Y-75128351D01*
X232356378Y-75122638D01*
X232496397Y-75084776D01*
X232622822Y-75029932D01*
X232734740Y-74958924D01*
X232831238Y-74872568D01*
X232911400Y-74771679D01*
X232974313Y-74657076D01*
X233018688Y-74530984D01*
X233031022Y-74474401D01*
X233038632Y-74412202D01*
X233042261Y-74337363D01*
X233042755Y-74303467D01*
X233042690Y-74300282D01*
X232282752Y-74300282D01*
X232273459Y-74375333D01*
X232245272Y-74439160D01*
X232196803Y-74494798D01*
X232191746Y-74499211D01*
X232143452Y-74534037D01*
X232091743Y-74556620D01*
X232031011Y-74568540D01*
X231955648Y-74571383D01*
X231937541Y-74570978D01*
X231883722Y-74568325D01*
X231843692Y-74562909D01*
X231808676Y-74552745D01*
X231769897Y-74535850D01*
X231759255Y-74530672D01*
X231698604Y-74494844D01*
X231651785Y-74452212D01*
X231639048Y-74436973D01*
X231594378Y-74380462D01*
X231594378Y-74184586D01*
X231594914Y-74105939D01*
X231596604Y-74047988D01*
X231599572Y-74008875D01*
X231603943Y-73986741D01*
X231608028Y-73980274D01*
X231623953Y-73977111D01*
X231657736Y-73974488D01*
X231704660Y-73972655D01*
X231760007Y-73971857D01*
X231768894Y-73971842D01*
X231889670Y-73977096D01*
X231992340Y-73993263D01*
X232078894Y-74020961D01*
X232151319Y-74060808D01*
X232206249Y-74107758D01*
X232250796Y-74165645D01*
X232275520Y-74228693D01*
X232282752Y-74300282D01*
X233042690Y-74300282D01*
X233040822Y-74209712D01*
X233032478Y-74130812D01*
X233016232Y-74059590D01*
X232990595Y-73988864D01*
X232966599Y-73936493D01*
X232907980Y-73841196D01*
X232829883Y-73753170D01*
X232734685Y-73674017D01*
X232624762Y-73605340D01*
X232502490Y-73548741D01*
X232370245Y-73505821D01*
X232305578Y-73490882D01*
X232169396Y-73468777D01*
X232020951Y-73454194D01*
X231869495Y-73447813D01*
X231742936Y-73449445D01*
X231581050Y-73456224D01*
X231588470Y-73397245D01*
X231607762Y-73298092D01*
X231638896Y-73217372D01*
X231682731Y-73154466D01*
X231740129Y-73108756D01*
X231811952Y-73079622D01*
X231899059Y-73066447D01*
X232002314Y-73068611D01*
X232040289Y-73072612D01*
X232181480Y-73097780D01*
X232318293Y-73138814D01*
X232412822Y-73176815D01*
X232457982Y-73196190D01*
X232496415Y-73211760D01*
X232522766Y-73221405D01*
X232530454Y-73223452D01*
X232540198Y-73214374D01*
X232556917Y-73185405D01*
X232580768Y-73136217D01*
X232611907Y-73066484D01*
X232650493Y-72975879D01*
X232657090Y-72960089D01*
X232687147Y-72887772D01*
X232714126Y-72822425D01*
X232736864Y-72766906D01*
X232754194Y-72724072D01*
X232764952Y-72696781D01*
X232768059Y-72687942D01*
X232758060Y-72683187D01*
X232731783Y-72677910D01*
X232703511Y-72674231D01*
X232673354Y-72669474D01*
X232625567Y-72660028D01*
X232564388Y-72646820D01*
X232494054Y-72630776D01*
X232418806Y-72612820D01*
X232390245Y-72605797D01*
X232285184Y-72580209D01*
X232197520Y-72560147D01*
X232122932Y-72544969D01*
X232057097Y-72534035D01*
X231995693Y-72526704D01*
X231934398Y-72522335D01*
X231868890Y-72520287D01*
X231810872Y-72519889D01*
X231641426Y-72526552D01*
G37*
X231641426Y-72526552D02*
X231489508Y-72546567D01*
X231354244Y-72580202D01*
X231234761Y-72627725D01*
X231130185Y-72689405D01*
X231052576Y-72752965D01*
X230983735Y-72827099D01*
X230929994Y-72906871D01*
X230887090Y-72999091D01*
X230871616Y-73042161D01*
X230858756Y-73081142D01*
X230847554Y-73117289D01*
X230837880Y-73152434D01*
X230829604Y-73188410D01*
X230822597Y-73227050D01*
X230816728Y-73270185D01*
X230811869Y-73319649D01*
X230807890Y-73377273D01*
X230804660Y-73444891D01*
X230802051Y-73524334D01*
X230799933Y-73617436D01*
X230798176Y-73726027D01*
X230796651Y-73851942D01*
X230795228Y-73997012D01*
X230793975Y-74139778D01*
X230792649Y-74295968D01*
X230791444Y-74431239D01*
X230790234Y-74547246D01*
X230788894Y-74645645D01*
X230787300Y-74728093D01*
X230785325Y-74796246D01*
X230782844Y-74851760D01*
X230779731Y-74896292D01*
X230775862Y-74931498D01*
X230771111Y-74959034D01*
X230765352Y-74980556D01*
X230758461Y-74997722D01*
X230750311Y-75012186D01*
X230740777Y-75025606D01*
X230729734Y-75039638D01*
X230725434Y-75045071D01*
X230709614Y-75067910D01*
X230702578Y-75083463D01*
X230702556Y-75083922D01*
X230713433Y-75086121D01*
X230744418Y-75088147D01*
X230793043Y-75089942D01*
X230856837Y-75091451D01*
X230933331Y-75092616D01*
X231020056Y-75093380D01*
X231114543Y-75093686D01*
X231125450Y-75093689D01*
X231548343Y-75093689D01*
X231551605Y-74997622D01*
X231554867Y-74901556D01*
X231616956Y-74952543D01*
X231714286Y-75020057D01*
X231824187Y-75074749D01*
X231910651Y-75104978D01*
X231979722Y-75119666D01*
X232063075Y-75129659D01*
X232152841Y-75134646D01*
X232241155Y-75134313D01*
X232320149Y-75128351D01*
X232356378Y-75122638D01*
X232496397Y-75084776D01*
X232622822Y-75029932D01*
X232734740Y-74958924D01*
X232831238Y-74872568D01*
X232911400Y-74771679D01*
X232974313Y-74657076D01*
X233018688Y-74530984D01*
X233031022Y-74474401D01*
X233038632Y-74412202D01*
X233042261Y-74337363D01*
X233042755Y-74303467D01*
X233042690Y-74300282D01*
X232282752Y-74300282D01*
X232273459Y-74375333D01*
X232245272Y-74439160D01*
X232196803Y-74494798D01*
X232191746Y-74499211D01*
X232143452Y-74534037D01*
X232091743Y-74556620D01*
X232031011Y-74568540D01*
X231955648Y-74571383D01*
X231937541Y-74570978D01*
X231883722Y-74568325D01*
X231843692Y-74562909D01*
X231808676Y-74552745D01*
X231769897Y-74535850D01*
X231759255Y-74530672D01*
X231698604Y-74494844D01*
X231651785Y-74452212D01*
X231639048Y-74436973D01*
X231594378Y-74380462D01*
X231594378Y-74184586D01*
X231594914Y-74105939D01*
X231596604Y-74047988D01*
X231599572Y-74008875D01*
X231603943Y-73986741D01*
X231608028Y-73980274D01*
X231623953Y-73977111D01*
X231657736Y-73974488D01*
X231704660Y-73972655D01*
X231760007Y-73971857D01*
X231768894Y-73971842D01*
X231889670Y-73977096D01*
X231992340Y-73993263D01*
X232078894Y-74020961D01*
X232151319Y-74060808D01*
X232206249Y-74107758D01*
X232250796Y-74165645D01*
X232275520Y-74228693D01*
X232282752Y-74300282D01*
X233042690Y-74300282D01*
X233040822Y-74209712D01*
X233032478Y-74130812D01*
X233016232Y-74059590D01*
X232990595Y-73988864D01*
X232966599Y-73936493D01*
X232907980Y-73841196D01*
X232829883Y-73753170D01*
X232734685Y-73674017D01*
X232624762Y-73605340D01*
X232502490Y-73548741D01*
X232370245Y-73505821D01*
X232305578Y-73490882D01*
X232169396Y-73468777D01*
X232020951Y-73454194D01*
X231869495Y-73447813D01*
X231742936Y-73449445D01*
X231581050Y-73456224D01*
X231588470Y-73397245D01*
X231607762Y-73298092D01*
X231638896Y-73217372D01*
X231682731Y-73154466D01*
X231740129Y-73108756D01*
X231811952Y-73079622D01*
X231899059Y-73066447D01*
X232002314Y-73068611D01*
X232040289Y-73072612D01*
X232181480Y-73097780D01*
X232318293Y-73138814D01*
X232412822Y-73176815D01*
X232457982Y-73196190D01*
X232496415Y-73211760D01*
X232522766Y-73221405D01*
X232530454Y-73223452D01*
X232540198Y-73214374D01*
X232556917Y-73185405D01*
X232580768Y-73136217D01*
X232611907Y-73066484D01*
X232650493Y-72975879D01*
X232657090Y-72960089D01*
X232687147Y-72887772D01*
X232714126Y-72822425D01*
X232736864Y-72766906D01*
X232754194Y-72724072D01*
X232764952Y-72696781D01*
X232768059Y-72687942D01*
X232758060Y-72683187D01*
X232731783Y-72677910D01*
X232703511Y-72674231D01*
X232673354Y-72669474D01*
X232625567Y-72660028D01*
X232564388Y-72646820D01*
X232494054Y-72630776D01*
X232418806Y-72612820D01*
X232390245Y-72605797D01*
X232285184Y-72580209D01*
X232197520Y-72560147D01*
X232122932Y-72544969D01*
X232057097Y-72534035D01*
X231995693Y-72526704D01*
X231934398Y-72522335D01*
X231868890Y-72520287D01*
X231810872Y-72519889D01*
X231641426Y-72526552D01*
G36*
X228128493Y-73132245D02*
G01*
X228128474Y-73366662D01*
X228128448Y-73579603D01*
X228128375Y-73772168D01*
X228128218Y-73945459D01*
X228127936Y-74100576D01*
X228127491Y-74238620D01*
X228126844Y-74360692D01*
X228125955Y-74467894D01*
X228124787Y-74561326D01*
X228123299Y-74642090D01*
X228121454Y-74711286D01*
X228119211Y-74770015D01*
X228116531Y-74819379D01*
X228113377Y-74860478D01*
X228109708Y-74894413D01*
X228105487Y-74922286D01*
X228100673Y-74945198D01*
X228095227Y-74964249D01*
X228089112Y-74980540D01*
X228082288Y-74995173D01*
X228074715Y-75009249D01*
X228066355Y-75023868D01*
X228061161Y-75032974D01*
X228026896Y-75093689D01*
X228885045Y-75093689D01*
X228885045Y-74997733D01*
X228885776Y-74954370D01*
X228887728Y-74921205D01*
X228890537Y-74903424D01*
X228891779Y-74901778D01*
X228903201Y-74908662D01*
X228925916Y-74926505D01*
X228948615Y-74945879D01*
X229003200Y-74986614D01*
X229072679Y-75027617D01*
X229149730Y-75065123D01*
X229227035Y-75095364D01*
X229257887Y-75105012D01*
X229326384Y-75119578D01*
X229409236Y-75129539D01*
X229498629Y-75134583D01*
X229586752Y-75134396D01*
X229665793Y-75128666D01*
X229703489Y-75122858D01*
X229841586Y-75084797D01*
X229968887Y-75027073D01*
X230084708Y-74950211D01*
X230188363Y-74854739D01*
X230279167Y-74741179D01*
X230345969Y-74630381D01*
X230400836Y-74513625D01*
X230442837Y-74394276D01*
X230472833Y-74268283D01*
X230491689Y-74131594D01*
X230500268Y-73980158D01*
X230500994Y-73902711D01*
X230498900Y-73845934D01*
X229669783Y-73845934D01*
X229669576Y-73939002D01*
X229666663Y-74026692D01*
X229661000Y-74103772D01*
X229652545Y-74165009D01*
X229649962Y-74177350D01*
X229618160Y-74284633D01*
X229576502Y-74371658D01*
X229524637Y-74438642D01*
X229462219Y-74485805D01*
X229388900Y-74513365D01*
X229304331Y-74521541D01*
X229208165Y-74510551D01*
X229144689Y-74494829D01*
X229095546Y-74476639D01*
X229041417Y-74450791D01*
X229000756Y-74427089D01*
X228930200Y-74380721D01*
X228930200Y-73230530D01*
X228997608Y-73186962D01*
X229076133Y-73146040D01*
X229160319Y-73119389D01*
X229245443Y-73107465D01*
X229326784Y-73110722D01*
X229399620Y-73129615D01*
X229431574Y-73145184D01*
X229489499Y-73188181D01*
X229538456Y-73244953D01*
X229579610Y-73317575D01*
X229614126Y-73408121D01*
X229643167Y-73518666D01*
X229644448Y-73524533D01*
X229654619Y-73586788D01*
X229662261Y-73664594D01*
X229667330Y-73752720D01*
X229669783Y-73845934D01*
X230498900Y-73845934D01*
X230493143Y-73689895D01*
X230471198Y-73494059D01*
X230435214Y-73315332D01*
X230385241Y-73153845D01*
X230321332Y-73009726D01*
X230243538Y-72883106D01*
X230151911Y-72774115D01*
X230046503Y-72682883D01*
X230001338Y-72651932D01*
X229900389Y-72595785D01*
X229797099Y-72556174D01*
X229687011Y-72532014D01*
X229565670Y-72522219D01*
X229473164Y-72523265D01*
X229343510Y-72534231D01*
X229230916Y-72556046D01*
X229132125Y-72589714D01*
X229043879Y-72636236D01*
X228995014Y-72670448D01*
X228965647Y-72692362D01*
X228943957Y-72707333D01*
X228935747Y-72711733D01*
X228934132Y-72700904D01*
X228932841Y-72670251D01*
X228931862Y-72622526D01*
X228931183Y-72560479D01*
X228930790Y-72486862D01*
X228930670Y-72404427D01*
X228930812Y-72315925D01*
X228931203Y-72224107D01*
X228931829Y-72131724D01*
X228932680Y-72041528D01*
X228933740Y-71956271D01*
X228934999Y-71878703D01*
X228936444Y-71811576D01*
X228938062Y-71757641D01*
X228939839Y-71719650D01*
X228940331Y-71712667D01*
X228947908Y-71642251D01*
X228959469Y-71587102D01*
X228977208Y-71539981D01*
X229003318Y-71493647D01*
X229009585Y-71484067D01*
X229034017Y-71447378D01*
X228128689Y-71447378D01*
X228128493Y-73132245D01*
G37*
X228128493Y-73132245D02*
X228128474Y-73366662D01*
X228128448Y-73579603D01*
X228128375Y-73772168D01*
X228128218Y-73945459D01*
X228127936Y-74100576D01*
X228127491Y-74238620D01*
X228126844Y-74360692D01*
X228125955Y-74467894D01*
X228124787Y-74561326D01*
X228123299Y-74642090D01*
X228121454Y-74711286D01*
X228119211Y-74770015D01*
X228116531Y-74819379D01*
X228113377Y-74860478D01*
X228109708Y-74894413D01*
X228105487Y-74922286D01*
X228100673Y-74945198D01*
X228095227Y-74964249D01*
X228089112Y-74980540D01*
X228082288Y-74995173D01*
X228074715Y-75009249D01*
X228066355Y-75023868D01*
X228061161Y-75032974D01*
X228026896Y-75093689D01*
X228885045Y-75093689D01*
X228885045Y-74997733D01*
X228885776Y-74954370D01*
X228887728Y-74921205D01*
X228890537Y-74903424D01*
X228891779Y-74901778D01*
X228903201Y-74908662D01*
X228925916Y-74926505D01*
X228948615Y-74945879D01*
X229003200Y-74986614D01*
X229072679Y-75027617D01*
X229149730Y-75065123D01*
X229227035Y-75095364D01*
X229257887Y-75105012D01*
X229326384Y-75119578D01*
X229409236Y-75129539D01*
X229498629Y-75134583D01*
X229586752Y-75134396D01*
X229665793Y-75128666D01*
X229703489Y-75122858D01*
X229841586Y-75084797D01*
X229968887Y-75027073D01*
X230084708Y-74950211D01*
X230188363Y-74854739D01*
X230279167Y-74741179D01*
X230345969Y-74630381D01*
X230400836Y-74513625D01*
X230442837Y-74394276D01*
X230472833Y-74268283D01*
X230491689Y-74131594D01*
X230500268Y-73980158D01*
X230500994Y-73902711D01*
X230498900Y-73845934D01*
X229669783Y-73845934D01*
X229669576Y-73939002D01*
X229666663Y-74026692D01*
X229661000Y-74103772D01*
X229652545Y-74165009D01*
X229649962Y-74177350D01*
X229618160Y-74284633D01*
X229576502Y-74371658D01*
X229524637Y-74438642D01*
X229462219Y-74485805D01*
X229388900Y-74513365D01*
X229304331Y-74521541D01*
X229208165Y-74510551D01*
X229144689Y-74494829D01*
X229095546Y-74476639D01*
X229041417Y-74450791D01*
X229000756Y-74427089D01*
X228930200Y-74380721D01*
X228930200Y-73230530D01*
X228997608Y-73186962D01*
X229076133Y-73146040D01*
X229160319Y-73119389D01*
X229245443Y-73107465D01*
X229326784Y-73110722D01*
X229399620Y-73129615D01*
X229431574Y-73145184D01*
X229489499Y-73188181D01*
X229538456Y-73244953D01*
X229579610Y-73317575D01*
X229614126Y-73408121D01*
X229643167Y-73518666D01*
X229644448Y-73524533D01*
X229654619Y-73586788D01*
X229662261Y-73664594D01*
X229667330Y-73752720D01*
X229669783Y-73845934D01*
X230498900Y-73845934D01*
X230493143Y-73689895D01*
X230471198Y-73494059D01*
X230435214Y-73315332D01*
X230385241Y-73153845D01*
X230321332Y-73009726D01*
X230243538Y-72883106D01*
X230151911Y-72774115D01*
X230046503Y-72682883D01*
X230001338Y-72651932D01*
X229900389Y-72595785D01*
X229797099Y-72556174D01*
X229687011Y-72532014D01*
X229565670Y-72522219D01*
X229473164Y-72523265D01*
X229343510Y-72534231D01*
X229230916Y-72556046D01*
X229132125Y-72589714D01*
X229043879Y-72636236D01*
X228995014Y-72670448D01*
X228965647Y-72692362D01*
X228943957Y-72707333D01*
X228935747Y-72711733D01*
X228934132Y-72700904D01*
X228932841Y-72670251D01*
X228931862Y-72622526D01*
X228931183Y-72560479D01*
X228930790Y-72486862D01*
X228930670Y-72404427D01*
X228930812Y-72315925D01*
X228931203Y-72224107D01*
X228931829Y-72131724D01*
X228932680Y-72041528D01*
X228933740Y-71956271D01*
X228934999Y-71878703D01*
X228936444Y-71811576D01*
X228938062Y-71757641D01*
X228939839Y-71719650D01*
X228940331Y-71712667D01*
X228947908Y-71642251D01*
X228959469Y-71587102D01*
X228977208Y-71539981D01*
X229003318Y-71493647D01*
X229009585Y-71484067D01*
X229034017Y-71447378D01*
X228128689Y-71447378D01*
X228128493Y-73132245D01*
G36*
X236588043Y-70686571D02*
G01*
X236491768Y-70710809D01*
X236405184Y-70753641D01*
X236330373Y-70813419D01*
X236269418Y-70888494D01*
X236224399Y-70977220D01*
X236198136Y-71073530D01*
X236192286Y-71170795D01*
X236207140Y-71264654D01*
X236240840Y-71352511D01*
X236291528Y-71431770D01*
X236357345Y-71499836D01*
X236436434Y-71554112D01*
X236526934Y-71592002D01*
X236578200Y-71604426D01*
X236622698Y-71611947D01*
X236656999Y-71614919D01*
X236689960Y-71613094D01*
X236730434Y-71606225D01*
X236763531Y-71599250D01*
X236856947Y-71567741D01*
X236940619Y-71516617D01*
X237012665Y-71447429D01*
X237071200Y-71361728D01*
X237085148Y-71334489D01*
X237101586Y-71298122D01*
X237111894Y-71267582D01*
X237117460Y-71235450D01*
X237119669Y-71194307D01*
X237119948Y-71148222D01*
X237115861Y-71063865D01*
X237102446Y-70994586D01*
X237077256Y-70933961D01*
X237037846Y-70875567D01*
X236999298Y-70831302D01*
X236927406Y-70765484D01*
X236852313Y-70720053D01*
X236769562Y-70692850D01*
X236691928Y-70682576D01*
X236588043Y-70686571D01*
G37*
X236588043Y-70686571D02*
X236491768Y-70710809D01*
X236405184Y-70753641D01*
X236330373Y-70813419D01*
X236269418Y-70888494D01*
X236224399Y-70977220D01*
X236198136Y-71073530D01*
X236192286Y-71170795D01*
X236207140Y-71264654D01*
X236240840Y-71352511D01*
X236291528Y-71431770D01*
X236357345Y-71499836D01*
X236436434Y-71554112D01*
X236526934Y-71592002D01*
X236578200Y-71604426D01*
X236622698Y-71611947D01*
X236656999Y-71614919D01*
X236689960Y-71613094D01*
X236730434Y-71606225D01*
X236763531Y-71599250D01*
X236856947Y-71567741D01*
X236940619Y-71516617D01*
X237012665Y-71447429D01*
X237071200Y-71361728D01*
X237085148Y-71334489D01*
X237101586Y-71298122D01*
X237111894Y-71267582D01*
X237117460Y-71235450D01*
X237119669Y-71194307D01*
X237119948Y-71148222D01*
X237115861Y-71063865D01*
X237102446Y-70994586D01*
X237077256Y-70933961D01*
X237037846Y-70875567D01*
X236999298Y-70831302D01*
X236927406Y-70765484D01*
X236852313Y-70720053D01*
X236769562Y-70692850D01*
X236691928Y-70682576D01*
X236588043Y-70686571D01*
G36*
X240436371Y-75929066D02*
G01*
X240396889Y-75929467D01*
X240281200Y-75932259D01*
X240184311Y-75940550D01*
X240102919Y-75955232D01*
X240033723Y-75977193D01*
X239973420Y-76007322D01*
X239918708Y-76046510D01*
X239899167Y-76063532D01*
X239866750Y-76103363D01*
X239837520Y-76157413D01*
X239814991Y-76217323D01*
X239802679Y-76274739D01*
X239801400Y-76295956D01*
X239809417Y-76354769D01*
X239830899Y-76419013D01*
X239861999Y-76479821D01*
X239898866Y-76528330D01*
X239904854Y-76534182D01*
X239955579Y-76575321D01*
X240011125Y-76607435D01*
X240074696Y-76631365D01*
X240149494Y-76647953D01*
X240238722Y-76658041D01*
X240345582Y-76662469D01*
X240394528Y-76662845D01*
X240456762Y-76662545D01*
X240500528Y-76661292D01*
X240529931Y-76658554D01*
X240549079Y-76653801D01*
X240562077Y-76646501D01*
X240569045Y-76640267D01*
X240575626Y-76632694D01*
X240580788Y-76622924D01*
X240584703Y-76608340D01*
X240587543Y-76586326D01*
X240589480Y-76554264D01*
X240590684Y-76509536D01*
X240591328Y-76449526D01*
X240591583Y-76371617D01*
X240591622Y-76295956D01*
X240591870Y-76195041D01*
X240591817Y-76114427D01*
X240590857Y-76075822D01*
X240444867Y-76075822D01*
X240444867Y-76516089D01*
X240351734Y-76516004D01*
X240295693Y-76514396D01*
X240236999Y-76510256D01*
X240188028Y-76504464D01*
X240186538Y-76504226D01*
X240107392Y-76485090D01*
X240046002Y-76455287D01*
X239999305Y-76412878D01*
X239969635Y-76366961D01*
X239951353Y-76316026D01*
X239952771Y-76268200D01*
X239973988Y-76216933D01*
X240015489Y-76163899D01*
X240072998Y-76124600D01*
X240147750Y-76098331D01*
X240197708Y-76089035D01*
X240254416Y-76082507D01*
X240314519Y-76077782D01*
X240365639Y-76075817D01*
X240368667Y-76075808D01*
X240444867Y-76075822D01*
X240590857Y-76075822D01*
X240590260Y-76051851D01*
X240585998Y-76005055D01*
X240577830Y-75971778D01*
X240564556Y-75949759D01*
X240544974Y-75936739D01*
X240517883Y-75930457D01*
X240482082Y-75928653D01*
X240436371Y-75929066D01*
G37*
X240436371Y-75929066D02*
X240396889Y-75929467D01*
X240281200Y-75932259D01*
X240184311Y-75940550D01*
X240102919Y-75955232D01*
X240033723Y-75977193D01*
X239973420Y-76007322D01*
X239918708Y-76046510D01*
X239899167Y-76063532D01*
X239866750Y-76103363D01*
X239837520Y-76157413D01*
X239814991Y-76217323D01*
X239802679Y-76274739D01*
X239801400Y-76295956D01*
X239809417Y-76354769D01*
X239830899Y-76419013D01*
X239861999Y-76479821D01*
X239898866Y-76528330D01*
X239904854Y-76534182D01*
X239955579Y-76575321D01*
X240011125Y-76607435D01*
X240074696Y-76631365D01*
X240149494Y-76647953D01*
X240238722Y-76658041D01*
X240345582Y-76662469D01*
X240394528Y-76662845D01*
X240456762Y-76662545D01*
X240500528Y-76661292D01*
X240529931Y-76658554D01*
X240549079Y-76653801D01*
X240562077Y-76646501D01*
X240569045Y-76640267D01*
X240575626Y-76632694D01*
X240580788Y-76622924D01*
X240584703Y-76608340D01*
X240587543Y-76586326D01*
X240589480Y-76554264D01*
X240590684Y-76509536D01*
X240591328Y-76449526D01*
X240591583Y-76371617D01*
X240591622Y-76295956D01*
X240591870Y-76195041D01*
X240591817Y-76114427D01*
X240590857Y-76075822D01*
X240444867Y-76075822D01*
X240444867Y-76516089D01*
X240351734Y-76516004D01*
X240295693Y-76514396D01*
X240236999Y-76510256D01*
X240188028Y-76504464D01*
X240186538Y-76504226D01*
X240107392Y-76485090D01*
X240046002Y-76455287D01*
X239999305Y-76412878D01*
X239969635Y-76366961D01*
X239951353Y-76316026D01*
X239952771Y-76268200D01*
X239973988Y-76216933D01*
X240015489Y-76163899D01*
X240072998Y-76124600D01*
X240147750Y-76098331D01*
X240197708Y-76089035D01*
X240254416Y-76082507D01*
X240314519Y-76077782D01*
X240365639Y-76075817D01*
X240368667Y-76075808D01*
X240444867Y-76075822D01*
X240590857Y-76075822D01*
X240590260Y-76051851D01*
X240585998Y-76005055D01*
X240577830Y-75971778D01*
X240564556Y-75949759D01*
X240544974Y-75936739D01*
X240517883Y-75930457D01*
X240482082Y-75928653D01*
X240436371Y-75929066D01*
G36*
X239027794Y-75929146D02*
G01*
X238958386Y-75929518D01*
X238905997Y-75930385D01*
X238867847Y-75931946D01*
X238841159Y-75934403D01*
X238823153Y-75937957D01*
X238811049Y-75942810D01*
X238802069Y-75949161D01*
X238798818Y-75952084D01*
X238779043Y-75983142D01*
X238775482Y-76018828D01*
X238788491Y-76050510D01*
X238794506Y-76056913D01*
X238804235Y-76063121D01*
X238819901Y-76067910D01*
X238844408Y-76071514D01*
X238880661Y-76074164D01*
X238931565Y-76076095D01*
X239000026Y-76077539D01*
X239062617Y-76078418D01*
X239310334Y-76081467D01*
X239313719Y-76146378D01*
X239317105Y-76211289D01*
X239148958Y-76211289D01*
X239075959Y-76211919D01*
X239022517Y-76214553D01*
X238985628Y-76220309D01*
X238962288Y-76230304D01*
X238949494Y-76245656D01*
X238944242Y-76267482D01*
X238943445Y-76287738D01*
X238945923Y-76312592D01*
X238955277Y-76330906D01*
X238974383Y-76343637D01*
X239006118Y-76351741D01*
X239053359Y-76356176D01*
X239118983Y-76357899D01*
X239154801Y-76358045D01*
X239315978Y-76358045D01*
X239315978Y-76516089D01*
X239067622Y-76516089D01*
X238986213Y-76516202D01*
X238924342Y-76516712D01*
X238878968Y-76517870D01*
X238847054Y-76519930D01*
X238825559Y-76523146D01*
X238811443Y-76527772D01*
X238801668Y-76534059D01*
X238796689Y-76538667D01*
X238779610Y-76565560D01*
X238774111Y-76589467D01*
X238781963Y-76618667D01*
X238796689Y-76640267D01*
X238804546Y-76647066D01*
X238814688Y-76652346D01*
X238829844Y-76656298D01*
X238852741Y-76659113D01*
X238886109Y-76660982D01*
X238932675Y-76662098D01*
X238995167Y-76662651D01*
X239076314Y-76662833D01*
X239118422Y-76662845D01*
X239208598Y-76662765D01*
X239278924Y-76662398D01*
X239332129Y-76661552D01*
X239370940Y-76660036D01*
X239398087Y-76657659D01*
X239416298Y-76654229D01*
X239428300Y-76649554D01*
X239436822Y-76643444D01*
X239440156Y-76640267D01*
X239446755Y-76632670D01*
X239451927Y-76622870D01*
X239455846Y-76608239D01*
X239458684Y-76586152D01*
X239460615Y-76553982D01*
X239461812Y-76509103D01*
X239462448Y-76448889D01*
X239462697Y-76370713D01*
X239462734Y-76297923D01*
X239462700Y-76204707D01*
X239462465Y-76131431D01*
X239461830Y-76075458D01*
X239460594Y-76034151D01*
X239458556Y-76004872D01*
X239455517Y-75984984D01*
X239451277Y-75971850D01*
X239445635Y-75962832D01*
X239438391Y-75955293D01*
X239436606Y-75953612D01*
X239427945Y-75946172D01*
X239417882Y-75940409D01*
X239403625Y-75936112D01*
X239382383Y-75933064D01*
X239351364Y-75931051D01*
X239307777Y-75929860D01*
X239248831Y-75929275D01*
X239171734Y-75929083D01*
X239117001Y-75929067D01*
X239027794Y-75929146D01*
G37*
X239027794Y-75929146D02*
X238958386Y-75929518D01*
X238905997Y-75930385D01*
X238867847Y-75931946D01*
X238841159Y-75934403D01*
X238823153Y-75937957D01*
X238811049Y-75942810D01*
X238802069Y-75949161D01*
X238798818Y-75952084D01*
X238779043Y-75983142D01*
X238775482Y-76018828D01*
X238788491Y-76050510D01*
X238794506Y-76056913D01*
X238804235Y-76063121D01*
X238819901Y-76067910D01*
X238844408Y-76071514D01*
X238880661Y-76074164D01*
X238931565Y-76076095D01*
X239000026Y-76077539D01*
X239062617Y-76078418D01*
X239310334Y-76081467D01*
X239313719Y-76146378D01*
X239317105Y-76211289D01*
X239148958Y-76211289D01*
X239075959Y-76211919D01*
X239022517Y-76214553D01*
X238985628Y-76220309D01*
X238962288Y-76230304D01*
X238949494Y-76245656D01*
X238944242Y-76267482D01*
X238943445Y-76287738D01*
X238945923Y-76312592D01*
X238955277Y-76330906D01*
X238974383Y-76343637D01*
X239006118Y-76351741D01*
X239053359Y-76356176D01*
X239118983Y-76357899D01*
X239154801Y-76358045D01*
X239315978Y-76358045D01*
X239315978Y-76516089D01*
X239067622Y-76516089D01*
X238986213Y-76516202D01*
X238924342Y-76516712D01*
X238878968Y-76517870D01*
X238847054Y-76519930D01*
X238825559Y-76523146D01*
X238811443Y-76527772D01*
X238801668Y-76534059D01*
X238796689Y-76538667D01*
X238779610Y-76565560D01*
X238774111Y-76589467D01*
X238781963Y-76618667D01*
X238796689Y-76640267D01*
X238804546Y-76647066D01*
X238814688Y-76652346D01*
X238829844Y-76656298D01*
X238852741Y-76659113D01*
X238886109Y-76660982D01*
X238932675Y-76662098D01*
X238995167Y-76662651D01*
X239076314Y-76662833D01*
X239118422Y-76662845D01*
X239208598Y-76662765D01*
X239278924Y-76662398D01*
X239332129Y-76661552D01*
X239370940Y-76660036D01*
X239398087Y-76657659D01*
X239416298Y-76654229D01*
X239428300Y-76649554D01*
X239436822Y-76643444D01*
X239440156Y-76640267D01*
X239446755Y-76632670D01*
X239451927Y-76622870D01*
X239455846Y-76608239D01*
X239458684Y-76586152D01*
X239460615Y-76553982D01*
X239461812Y-76509103D01*
X239462448Y-76448889D01*
X239462697Y-76370713D01*
X239462734Y-76297923D01*
X239462700Y-76204707D01*
X239462465Y-76131431D01*
X239461830Y-76075458D01*
X239460594Y-76034151D01*
X239458556Y-76004872D01*
X239455517Y-75984984D01*
X239451277Y-75971850D01*
X239445635Y-75962832D01*
X239438391Y-75955293D01*
X239436606Y-75953612D01*
X239427945Y-75946172D01*
X239417882Y-75940409D01*
X239403625Y-75936112D01*
X239382383Y-75933064D01*
X239351364Y-75931051D01*
X239307777Y-75929860D01*
X239248831Y-75929275D01*
X239171734Y-75929083D01*
X239117001Y-75929067D01*
X239027794Y-75929146D01*
G36*
X238006703Y-75930351D02*
G01*
X237931888Y-75935581D01*
X237862306Y-75943750D01*
X237802002Y-75954550D01*
X237755020Y-75967673D01*
X237725406Y-75982813D01*
X237720860Y-75987269D01*
X237705054Y-76021850D01*
X237709847Y-76057351D01*
X237734364Y-76087725D01*
X237735534Y-76088596D01*
X237749954Y-76097954D01*
X237765008Y-76102876D01*
X237786005Y-76103473D01*
X237818257Y-76099861D01*
X237867073Y-76092154D01*
X237871000Y-76091505D01*
X237943739Y-76082569D01*
X238022217Y-76078161D01*
X238100927Y-76078119D01*
X238174361Y-76082279D01*
X238237011Y-76090479D01*
X238283370Y-76102557D01*
X238286416Y-76103771D01*
X238320048Y-76122615D01*
X238331864Y-76141685D01*
X238322614Y-76160439D01*
X238293047Y-76178337D01*
X238243911Y-76194837D01*
X238175957Y-76209396D01*
X238130645Y-76216406D01*
X238036456Y-76229889D01*
X237961544Y-76242214D01*
X237902717Y-76254449D01*
X237856785Y-76267661D01*
X237820555Y-76282917D01*
X237790838Y-76301285D01*
X237764442Y-76323831D01*
X237743230Y-76345971D01*
X237718065Y-76376819D01*
X237705681Y-76403345D01*
X237701808Y-76436026D01*
X237701667Y-76447995D01*
X237704576Y-76487712D01*
X237716202Y-76517259D01*
X237736323Y-76543486D01*
X237777216Y-76583576D01*
X237822817Y-76614149D01*
X237876513Y-76636203D01*
X237941692Y-76650735D01*
X238021744Y-76658741D01*
X238120057Y-76661218D01*
X238136289Y-76661177D01*
X238201849Y-76659818D01*
X238266866Y-76656730D01*
X238324252Y-76652356D01*
X238366922Y-76647140D01*
X238370372Y-76646541D01*
X238412796Y-76636491D01*
X238448780Y-76623796D01*
X238469150Y-76612190D01*
X238488107Y-76581572D01*
X238489427Y-76545918D01*
X238473085Y-76514144D01*
X238469429Y-76510551D01*
X238454315Y-76499876D01*
X238435415Y-76495276D01*
X238406162Y-76496059D01*
X238370651Y-76500127D01*
X238330970Y-76503762D01*
X238275345Y-76506828D01*
X238210406Y-76509053D01*
X238142785Y-76510164D01*
X238125000Y-76510237D01*
X238057128Y-76509964D01*
X238007454Y-76508646D01*
X237971610Y-76505827D01*
X237945224Y-76501050D01*
X237923926Y-76493857D01*
X237911126Y-76487867D01*
X237883000Y-76471233D01*
X237865068Y-76456168D01*
X237862447Y-76451897D01*
X237867976Y-76434263D01*
X237894260Y-76417192D01*
X237939478Y-76401458D01*
X238001808Y-76387838D01*
X238020171Y-76384804D01*
X238116090Y-76369738D01*
X238192641Y-76357146D01*
X238252780Y-76346111D01*
X238299460Y-76335720D01*
X238335637Y-76325056D01*
X238364265Y-76313205D01*
X238388298Y-76299251D01*
X238410692Y-76282281D01*
X238434402Y-76261378D01*
X238442380Y-76254049D01*
X238470353Y-76226699D01*
X238485160Y-76205029D01*
X238490952Y-76180232D01*
X238491889Y-76148983D01*
X238481575Y-76087705D01*
X238450752Y-76035640D01*
X238399595Y-75992958D01*
X238328283Y-75959825D01*
X238277400Y-75944964D01*
X238222100Y-75935366D01*
X238155853Y-75929936D01*
X238082706Y-75928367D01*
X238006703Y-75930351D01*
G37*
X238006703Y-75930351D02*
X237931888Y-75935581D01*
X237862306Y-75943750D01*
X237802002Y-75954550D01*
X237755020Y-75967673D01*
X237725406Y-75982813D01*
X237720860Y-75987269D01*
X237705054Y-76021850D01*
X237709847Y-76057351D01*
X237734364Y-76087725D01*
X237735534Y-76088596D01*
X237749954Y-76097954D01*
X237765008Y-76102876D01*
X237786005Y-76103473D01*
X237818257Y-76099861D01*
X237867073Y-76092154D01*
X237871000Y-76091505D01*
X237943739Y-76082569D01*
X238022217Y-76078161D01*
X238100927Y-76078119D01*
X238174361Y-76082279D01*
X238237011Y-76090479D01*
X238283370Y-76102557D01*
X238286416Y-76103771D01*
X238320048Y-76122615D01*
X238331864Y-76141685D01*
X238322614Y-76160439D01*
X238293047Y-76178337D01*
X238243911Y-76194837D01*
X238175957Y-76209396D01*
X238130645Y-76216406D01*
X238036456Y-76229889D01*
X237961544Y-76242214D01*
X237902717Y-76254449D01*
X237856785Y-76267661D01*
X237820555Y-76282917D01*
X237790838Y-76301285D01*
X237764442Y-76323831D01*
X237743230Y-76345971D01*
X237718065Y-76376819D01*
X237705681Y-76403345D01*
X237701808Y-76436026D01*
X237701667Y-76447995D01*
X237704576Y-76487712D01*
X237716202Y-76517259D01*
X237736323Y-76543486D01*
X237777216Y-76583576D01*
X237822817Y-76614149D01*
X237876513Y-76636203D01*
X237941692Y-76650735D01*
X238021744Y-76658741D01*
X238120057Y-76661218D01*
X238136289Y-76661177D01*
X238201849Y-76659818D01*
X238266866Y-76656730D01*
X238324252Y-76652356D01*
X238366922Y-76647140D01*
X238370372Y-76646541D01*
X238412796Y-76636491D01*
X238448780Y-76623796D01*
X238469150Y-76612190D01*
X238488107Y-76581572D01*
X238489427Y-76545918D01*
X238473085Y-76514144D01*
X238469429Y-76510551D01*
X238454315Y-76499876D01*
X238435415Y-76495276D01*
X238406162Y-76496059D01*
X238370651Y-76500127D01*
X238330970Y-76503762D01*
X238275345Y-76506828D01*
X238210406Y-76509053D01*
X238142785Y-76510164D01*
X238125000Y-76510237D01*
X238057128Y-76509964D01*
X238007454Y-76508646D01*
X237971610Y-76505827D01*
X237945224Y-76501050D01*
X237923926Y-76493857D01*
X237911126Y-76487867D01*
X237883000Y-76471233D01*
X237865068Y-76456168D01*
X237862447Y-76451897D01*
X237867976Y-76434263D01*
X237894260Y-76417192D01*
X237939478Y-76401458D01*
X238001808Y-76387838D01*
X238020171Y-76384804D01*
X238116090Y-76369738D01*
X238192641Y-76357146D01*
X238252780Y-76346111D01*
X238299460Y-76335720D01*
X238335637Y-76325056D01*
X238364265Y-76313205D01*
X238388298Y-76299251D01*
X238410692Y-76282281D01*
X238434402Y-76261378D01*
X238442380Y-76254049D01*
X238470353Y-76226699D01*
X238485160Y-76205029D01*
X238490952Y-76180232D01*
X238491889Y-76148983D01*
X238481575Y-76087705D01*
X238450752Y-76035640D01*
X238399595Y-75992958D01*
X238328283Y-75959825D01*
X238277400Y-75944964D01*
X238222100Y-75935366D01*
X238155853Y-75929936D01*
X238082706Y-75928367D01*
X238006703Y-75930351D01*
G36*
X237238822Y-75951645D02*
G01*
X237232242Y-75959218D01*
X237227079Y-75968987D01*
X237223164Y-75983571D01*
X237220324Y-76005585D01*
X237218387Y-76037648D01*
X237217183Y-76082375D01*
X237216539Y-76142385D01*
X237216284Y-76220294D01*
X237216245Y-76295956D01*
X237216314Y-76389802D01*
X237216638Y-76463689D01*
X237217386Y-76520232D01*
X237218732Y-76562049D01*
X237220846Y-76591757D01*
X237223900Y-76611973D01*
X237228066Y-76625314D01*
X237233516Y-76634398D01*
X237238822Y-76640267D01*
X237271826Y-76659947D01*
X237306991Y-76658181D01*
X237338455Y-76636717D01*
X237345684Y-76628337D01*
X237351334Y-76618614D01*
X237355599Y-76604861D01*
X237358673Y-76584389D01*
X237360752Y-76554512D01*
X237362030Y-76512541D01*
X237362701Y-76455789D01*
X237362959Y-76381567D01*
X237363000Y-76297537D01*
X237363000Y-75984485D01*
X237335291Y-75956776D01*
X237301137Y-75933463D01*
X237268006Y-75932623D01*
X237238822Y-75951645D01*
G37*
X237238822Y-75951645D02*
X237232242Y-75959218D01*
X237227079Y-75968987D01*
X237223164Y-75983571D01*
X237220324Y-76005585D01*
X237218387Y-76037648D01*
X237217183Y-76082375D01*
X237216539Y-76142385D01*
X237216284Y-76220294D01*
X237216245Y-76295956D01*
X237216314Y-76389802D01*
X237216638Y-76463689D01*
X237217386Y-76520232D01*
X237218732Y-76562049D01*
X237220846Y-76591757D01*
X237223900Y-76611973D01*
X237228066Y-76625314D01*
X237233516Y-76634398D01*
X237238822Y-76640267D01*
X237271826Y-76659947D01*
X237306991Y-76658181D01*
X237338455Y-76636717D01*
X237345684Y-76628337D01*
X237351334Y-76618614D01*
X237355599Y-76604861D01*
X237358673Y-76584389D01*
X237360752Y-76554512D01*
X237362030Y-76512541D01*
X237362701Y-76455789D01*
X237362959Y-76381567D01*
X237363000Y-76297537D01*
X237363000Y-75984485D01*
X237335291Y-75956776D01*
X237301137Y-75933463D01*
X237268006Y-75932623D01*
X237238822Y-75951645D01*
G36*
X236265081Y-75934599D02*
G01*
X236196565Y-75946095D01*
X236143943Y-75963967D01*
X236109708Y-75987499D01*
X236100379Y-76000924D01*
X236090893Y-76032148D01*
X236097277Y-76060395D01*
X236117430Y-76087182D01*
X236148745Y-76099713D01*
X236194183Y-76098696D01*
X236229326Y-76091906D01*
X236307419Y-76078971D01*
X236387226Y-76077742D01*
X236476555Y-76088241D01*
X236501229Y-76092690D01*
X236584291Y-76116108D01*
X236649273Y-76150945D01*
X236695461Y-76196604D01*
X236722145Y-76252494D01*
X236727663Y-76281388D01*
X236724051Y-76340012D01*
X236700729Y-76391879D01*
X236659824Y-76435978D01*
X236603459Y-76471299D01*
X236533760Y-76496829D01*
X236452852Y-76511559D01*
X236362860Y-76514478D01*
X236265910Y-76504575D01*
X236260436Y-76503641D01*
X236221875Y-76496459D01*
X236200494Y-76489521D01*
X236191227Y-76479227D01*
X236189006Y-76461976D01*
X236188956Y-76452841D01*
X236188956Y-76414489D01*
X236257431Y-76414489D01*
X236317900Y-76410347D01*
X236359165Y-76397147D01*
X236383175Y-76373730D01*
X236391877Y-76338936D01*
X236391983Y-76334394D01*
X236386892Y-76304654D01*
X236369433Y-76283419D01*
X236336939Y-76269366D01*
X236286743Y-76261173D01*
X236238123Y-76258161D01*
X236167456Y-76256433D01*
X236116198Y-76259070D01*
X236081239Y-76268800D01*
X236059470Y-76288353D01*
X236047780Y-76320456D01*
X236043060Y-76367838D01*
X236042200Y-76430071D01*
X236043609Y-76499535D01*
X236047848Y-76546786D01*
X236054936Y-76572012D01*
X236056311Y-76573988D01*
X236095228Y-76605508D01*
X236152286Y-76630470D01*
X236223869Y-76648340D01*
X236306358Y-76658586D01*
X236396139Y-76660673D01*
X236489592Y-76654068D01*
X236544556Y-76645956D01*
X236630766Y-76621554D01*
X236710892Y-76581662D01*
X236777977Y-76529887D01*
X236788173Y-76519539D01*
X236821302Y-76476035D01*
X236851194Y-76422118D01*
X236874357Y-76365592D01*
X236887298Y-76314259D01*
X236888858Y-76294544D01*
X236882218Y-76253419D01*
X236864568Y-76202252D01*
X236839297Y-76148394D01*
X236809789Y-76099195D01*
X236783719Y-76066334D01*
X236722765Y-76017452D01*
X236643969Y-75978545D01*
X236550157Y-75950494D01*
X236444150Y-75934179D01*
X236347000Y-75930192D01*
X236265081Y-75934599D01*
G37*
X236265081Y-75934599D02*
X236196565Y-75946095D01*
X236143943Y-75963967D01*
X236109708Y-75987499D01*
X236100379Y-76000924D01*
X236090893Y-76032148D01*
X236097277Y-76060395D01*
X236117430Y-76087182D01*
X236148745Y-76099713D01*
X236194183Y-76098696D01*
X236229326Y-76091906D01*
X236307419Y-76078971D01*
X236387226Y-76077742D01*
X236476555Y-76088241D01*
X236501229Y-76092690D01*
X236584291Y-76116108D01*
X236649273Y-76150945D01*
X236695461Y-76196604D01*
X236722145Y-76252494D01*
X236727663Y-76281388D01*
X236724051Y-76340012D01*
X236700729Y-76391879D01*
X236659824Y-76435978D01*
X236603459Y-76471299D01*
X236533760Y-76496829D01*
X236452852Y-76511559D01*
X236362860Y-76514478D01*
X236265910Y-76504575D01*
X236260436Y-76503641D01*
X236221875Y-76496459D01*
X236200494Y-76489521D01*
X236191227Y-76479227D01*
X236189006Y-76461976D01*
X236188956Y-76452841D01*
X236188956Y-76414489D01*
X236257431Y-76414489D01*
X236317900Y-76410347D01*
X236359165Y-76397147D01*
X236383175Y-76373730D01*
X236391877Y-76338936D01*
X236391983Y-76334394D01*
X236386892Y-76304654D01*
X236369433Y-76283419D01*
X236336939Y-76269366D01*
X236286743Y-76261173D01*
X236238123Y-76258161D01*
X236167456Y-76256433D01*
X236116198Y-76259070D01*
X236081239Y-76268800D01*
X236059470Y-76288353D01*
X236047780Y-76320456D01*
X236043060Y-76367838D01*
X236042200Y-76430071D01*
X236043609Y-76499535D01*
X236047848Y-76546786D01*
X236054936Y-76572012D01*
X236056311Y-76573988D01*
X236095228Y-76605508D01*
X236152286Y-76630470D01*
X236223869Y-76648340D01*
X236306358Y-76658586D01*
X236396139Y-76660673D01*
X236489592Y-76654068D01*
X236544556Y-76645956D01*
X236630766Y-76621554D01*
X236710892Y-76581662D01*
X236777977Y-76529887D01*
X236788173Y-76519539D01*
X236821302Y-76476035D01*
X236851194Y-76422118D01*
X236874357Y-76365592D01*
X236887298Y-76314259D01*
X236888858Y-76294544D01*
X236882218Y-76253419D01*
X236864568Y-76202252D01*
X236839297Y-76148394D01*
X236809789Y-76099195D01*
X236783719Y-76066334D01*
X236722765Y-76017452D01*
X236643969Y-75978545D01*
X236550157Y-75950494D01*
X236444150Y-75934179D01*
X236347000Y-75930192D01*
X236265081Y-75934599D01*
G36*
X235615114Y-75933448D02*
G01*
X235591548Y-75947273D01*
X235560735Y-75969881D01*
X235521078Y-76002338D01*
X235470980Y-76045708D01*
X235408843Y-76101058D01*
X235333072Y-76169451D01*
X235246334Y-76248084D01*
X235065711Y-76411878D01*
X235060067Y-76192029D01*
X235058029Y-76116351D01*
X235056063Y-76059994D01*
X235053734Y-76019706D01*
X235050606Y-75992235D01*
X235046245Y-75974329D01*
X235040216Y-75962737D01*
X235032084Y-75954208D01*
X235027772Y-75950623D01*
X234993241Y-75931670D01*
X234960383Y-75934441D01*
X234934318Y-75950633D01*
X234907667Y-75972199D01*
X234904352Y-76287151D01*
X234903435Y-76379779D01*
X234902968Y-76452544D01*
X234903113Y-76508161D01*
X234904032Y-76549342D01*
X234905887Y-76578803D01*
X234908839Y-76599255D01*
X234913050Y-76613413D01*
X234918682Y-76623991D01*
X234924927Y-76632474D01*
X234938439Y-76648207D01*
X234951883Y-76658636D01*
X234967124Y-76662639D01*
X234986026Y-76659094D01*
X235010455Y-76646879D01*
X235042273Y-76624871D01*
X235083348Y-76591949D01*
X235135542Y-76546991D01*
X235200722Y-76488875D01*
X235274556Y-76422099D01*
X235539845Y-76181458D01*
X235545489Y-76400589D01*
X235547531Y-76476128D01*
X235549502Y-76532354D01*
X235551839Y-76572524D01*
X235554981Y-76599896D01*
X235559364Y-76617728D01*
X235565424Y-76629279D01*
X235573600Y-76637807D01*
X235577784Y-76641282D01*
X235614765Y-76660372D01*
X235649708Y-76657493D01*
X235680136Y-76633100D01*
X235687097Y-76623286D01*
X235692523Y-76611826D01*
X235696603Y-76595968D01*
X235699529Y-76572963D01*
X235701492Y-76540062D01*
X235702683Y-76494516D01*
X235703292Y-76433573D01*
X235703511Y-76354486D01*
X235703534Y-76295956D01*
X235703460Y-76204407D01*
X235703113Y-76132687D01*
X235702301Y-76078045D01*
X235700833Y-76037732D01*
X235698519Y-76008998D01*
X235695167Y-75989093D01*
X235690588Y-75975268D01*
X235684589Y-75964772D01*
X235680136Y-75958811D01*
X235668850Y-75944691D01*
X235658301Y-75934029D01*
X235646893Y-75927892D01*
X235633030Y-75927343D01*
X235615114Y-75933448D01*
G37*
X235615114Y-75933448D02*
X235591548Y-75947273D01*
X235560735Y-75969881D01*
X235521078Y-76002338D01*
X235470980Y-76045708D01*
X235408843Y-76101058D01*
X235333072Y-76169451D01*
X235246334Y-76248084D01*
X235065711Y-76411878D01*
X235060067Y-76192029D01*
X235058029Y-76116351D01*
X235056063Y-76059994D01*
X235053734Y-76019706D01*
X235050606Y-75992235D01*
X235046245Y-75974329D01*
X235040216Y-75962737D01*
X235032084Y-75954208D01*
X235027772Y-75950623D01*
X234993241Y-75931670D01*
X234960383Y-75934441D01*
X234934318Y-75950633D01*
X234907667Y-75972199D01*
X234904352Y-76287151D01*
X234903435Y-76379779D01*
X234902968Y-76452544D01*
X234903113Y-76508161D01*
X234904032Y-76549342D01*
X234905887Y-76578803D01*
X234908839Y-76599255D01*
X234913050Y-76613413D01*
X234918682Y-76623991D01*
X234924927Y-76632474D01*
X234938439Y-76648207D01*
X234951883Y-76658636D01*
X234967124Y-76662639D01*
X234986026Y-76659094D01*
X235010455Y-76646879D01*
X235042273Y-76624871D01*
X235083348Y-76591949D01*
X235135542Y-76546991D01*
X235200722Y-76488875D01*
X235274556Y-76422099D01*
X235539845Y-76181458D01*
X235545489Y-76400589D01*
X235547531Y-76476128D01*
X235549502Y-76532354D01*
X235551839Y-76572524D01*
X235554981Y-76599896D01*
X235559364Y-76617728D01*
X235565424Y-76629279D01*
X235573600Y-76637807D01*
X235577784Y-76641282D01*
X235614765Y-76660372D01*
X235649708Y-76657493D01*
X235680136Y-76633100D01*
X235687097Y-76623286D01*
X235692523Y-76611826D01*
X235696603Y-76595968D01*
X235699529Y-76572963D01*
X235701492Y-76540062D01*
X235702683Y-76494516D01*
X235703292Y-76433573D01*
X235703511Y-76354486D01*
X235703534Y-76295956D01*
X235703460Y-76204407D01*
X235703113Y-76132687D01*
X235702301Y-76078045D01*
X235700833Y-76037732D01*
X235698519Y-76008998D01*
X235695167Y-75989093D01*
X235690588Y-75975268D01*
X235684589Y-75964772D01*
X235680136Y-75958811D01*
X235668850Y-75944691D01*
X235658301Y-75934029D01*
X235646893Y-75927892D01*
X235633030Y-75927343D01*
X235615114Y-75933448D01*
G36*
X234084657Y-75929260D02*
G01*
X234008299Y-75930174D01*
X233949783Y-75932311D01*
X233906745Y-75936175D01*
X233876817Y-75942267D01*
X233857632Y-75951090D01*
X233846824Y-75963146D01*
X233842027Y-75978939D01*
X233840873Y-75998970D01*
X233840867Y-76001335D01*
X233841869Y-76023992D01*
X233846604Y-76041503D01*
X233857667Y-76054574D01*
X233877652Y-76063913D01*
X233909154Y-76070227D01*
X233954768Y-76074222D01*
X234017087Y-76076606D01*
X234098707Y-76078086D01*
X234123723Y-76078414D01*
X234365800Y-76081467D01*
X234369186Y-76146378D01*
X234372571Y-76211289D01*
X234204424Y-76211289D01*
X234138734Y-76211531D01*
X234091828Y-76212556D01*
X234059917Y-76214811D01*
X234039209Y-76218742D01*
X234025916Y-76224798D01*
X234016245Y-76233424D01*
X234016183Y-76233493D01*
X233998644Y-76267112D01*
X233999278Y-76303448D01*
X234017686Y-76334423D01*
X234021329Y-76337607D01*
X234034259Y-76345812D01*
X234051976Y-76351521D01*
X234078430Y-76355162D01*
X234117568Y-76357167D01*
X234173338Y-76357964D01*
X234209006Y-76358045D01*
X234371445Y-76358045D01*
X234371445Y-76516089D01*
X234124839Y-76516089D01*
X234043420Y-76516231D01*
X233981590Y-76516814D01*
X233936363Y-76518068D01*
X233904752Y-76520227D01*
X233883769Y-76523523D01*
X233870427Y-76528189D01*
X233861739Y-76534457D01*
X233859550Y-76536733D01*
X233843386Y-76568280D01*
X233842203Y-76604168D01*
X233855464Y-76635285D01*
X233865957Y-76645271D01*
X233876871Y-76650769D01*
X233893783Y-76655022D01*
X233919367Y-76658180D01*
X233956299Y-76660392D01*
X234007254Y-76661806D01*
X234074906Y-76662572D01*
X234161931Y-76662838D01*
X234181606Y-76662845D01*
X234270089Y-76662787D01*
X234338773Y-76662467D01*
X234390436Y-76661667D01*
X234427855Y-76660167D01*
X234453810Y-76657749D01*
X234471078Y-76654194D01*
X234482438Y-76649282D01*
X234490668Y-76642795D01*
X234495183Y-76638138D01*
X234501979Y-76629889D01*
X234507288Y-76619669D01*
X234511294Y-76604800D01*
X234514179Y-76582602D01*
X234516126Y-76550393D01*
X234517319Y-76505496D01*
X234517939Y-76445228D01*
X234518171Y-76366911D01*
X234518200Y-76300994D01*
X234518129Y-76208628D01*
X234517792Y-76136117D01*
X234517002Y-76080737D01*
X234515574Y-76039765D01*
X234513321Y-76010478D01*
X234510057Y-75990153D01*
X234505596Y-75976066D01*
X234499752Y-75965495D01*
X234494803Y-75958811D01*
X234471406Y-75929067D01*
X234181226Y-75929067D01*
X234084657Y-75929260D01*
G37*
X234084657Y-75929260D02*
X234008299Y-75930174D01*
X233949783Y-75932311D01*
X233906745Y-75936175D01*
X233876817Y-75942267D01*
X233857632Y-75951090D01*
X233846824Y-75963146D01*
X233842027Y-75978939D01*
X233840873Y-75998970D01*
X233840867Y-76001335D01*
X233841869Y-76023992D01*
X233846604Y-76041503D01*
X233857667Y-76054574D01*
X233877652Y-76063913D01*
X233909154Y-76070227D01*
X233954768Y-76074222D01*
X234017087Y-76076606D01*
X234098707Y-76078086D01*
X234123723Y-76078414D01*
X234365800Y-76081467D01*
X234369186Y-76146378D01*
X234372571Y-76211289D01*
X234204424Y-76211289D01*
X234138734Y-76211531D01*
X234091828Y-76212556D01*
X234059917Y-76214811D01*
X234039209Y-76218742D01*
X234025916Y-76224798D01*
X234016245Y-76233424D01*
X234016183Y-76233493D01*
X233998644Y-76267112D01*
X233999278Y-76303448D01*
X234017686Y-76334423D01*
X234021329Y-76337607D01*
X234034259Y-76345812D01*
X234051976Y-76351521D01*
X234078430Y-76355162D01*
X234117568Y-76357167D01*
X234173338Y-76357964D01*
X234209006Y-76358045D01*
X234371445Y-76358045D01*
X234371445Y-76516089D01*
X234124839Y-76516089D01*
X234043420Y-76516231D01*
X233981590Y-76516814D01*
X233936363Y-76518068D01*
X233904752Y-76520227D01*
X233883769Y-76523523D01*
X233870427Y-76528189D01*
X233861739Y-76534457D01*
X233859550Y-76536733D01*
X233843386Y-76568280D01*
X233842203Y-76604168D01*
X233855464Y-76635285D01*
X233865957Y-76645271D01*
X233876871Y-76650769D01*
X233893783Y-76655022D01*
X233919367Y-76658180D01*
X233956299Y-76660392D01*
X234007254Y-76661806D01*
X234074906Y-76662572D01*
X234161931Y-76662838D01*
X234181606Y-76662845D01*
X234270089Y-76662787D01*
X234338773Y-76662467D01*
X234390436Y-76661667D01*
X234427855Y-76660167D01*
X234453810Y-76657749D01*
X234471078Y-76654194D01*
X234482438Y-76649282D01*
X234490668Y-76642795D01*
X234495183Y-76638138D01*
X234501979Y-76629889D01*
X234507288Y-76619669D01*
X234511294Y-76604800D01*
X234514179Y-76582602D01*
X234516126Y-76550393D01*
X234517319Y-76505496D01*
X234517939Y-76445228D01*
X234518171Y-76366911D01*
X234518200Y-76300994D01*
X234518129Y-76208628D01*
X234517792Y-76136117D01*
X234517002Y-76080737D01*
X234515574Y-76039765D01*
X234513321Y-76010478D01*
X234510057Y-75990153D01*
X234505596Y-75976066D01*
X234499752Y-75965495D01*
X234494803Y-75958811D01*
X234471406Y-75929067D01*
X234181226Y-75929067D01*
X234084657Y-75929260D01*
G36*
X233296691Y-75929275D02*
G01*
X233167712Y-75933636D01*
X233058009Y-75946861D01*
X232965774Y-75969741D01*
X232889198Y-76003070D01*
X232826473Y-76047638D01*
X232775788Y-76104236D01*
X232735337Y-76173658D01*
X232734541Y-76175351D01*
X232710399Y-76237483D01*
X232701797Y-76292509D01*
X232708769Y-76347887D01*
X232731346Y-76411073D01*
X232735628Y-76420689D01*
X232764828Y-76476966D01*
X232797644Y-76520451D01*
X232839998Y-76557417D01*
X232897810Y-76594135D01*
X232901169Y-76596052D01*
X232951496Y-76620227D01*
X233008379Y-76638282D01*
X233075473Y-76650839D01*
X233156435Y-76658522D01*
X233254918Y-76661953D01*
X233289714Y-76662251D01*
X233455406Y-76662845D01*
X233478803Y-76633100D01*
X233485743Y-76623319D01*
X233491158Y-76611897D01*
X233495235Y-76596095D01*
X233498163Y-76573175D01*
X233500133Y-76540396D01*
X233500775Y-76516089D01*
X233344156Y-76516089D01*
X233250274Y-76516089D01*
X233195336Y-76514483D01*
X233138940Y-76510255D01*
X233092655Y-76504292D01*
X233089861Y-76503790D01*
X233007652Y-76481736D01*
X232943886Y-76448600D01*
X232896548Y-76402847D01*
X232863618Y-76342939D01*
X232857892Y-76327061D01*
X232852279Y-76302333D01*
X232854709Y-76277902D01*
X232866533Y-76245400D01*
X232873660Y-76229434D01*
X232897000Y-76187006D01*
X232925120Y-76157240D01*
X232956060Y-76136511D01*
X233018034Y-76109537D01*
X233097349Y-76089998D01*
X233189747Y-76078746D01*
X233256667Y-76076270D01*
X233344156Y-76075822D01*
X233344156Y-76516089D01*
X233500775Y-76516089D01*
X233501332Y-76495021D01*
X233501950Y-76434311D01*
X233502175Y-76355526D01*
X233502200Y-76293920D01*
X233502200Y-75984485D01*
X233474491Y-75956776D01*
X233462194Y-75945544D01*
X233448897Y-75937853D01*
X233430328Y-75933040D01*
X233402214Y-75930446D01*
X233360283Y-75929410D01*
X233300263Y-75929270D01*
X233296691Y-75929275D01*
G37*
X233296691Y-75929275D02*
X233167712Y-75933636D01*
X233058009Y-75946861D01*
X232965774Y-75969741D01*
X232889198Y-76003070D01*
X232826473Y-76047638D01*
X232775788Y-76104236D01*
X232735337Y-76173658D01*
X232734541Y-76175351D01*
X232710399Y-76237483D01*
X232701797Y-76292509D01*
X232708769Y-76347887D01*
X232731346Y-76411073D01*
X232735628Y-76420689D01*
X232764828Y-76476966D01*
X232797644Y-76520451D01*
X232839998Y-76557417D01*
X232897810Y-76594135D01*
X232901169Y-76596052D01*
X232951496Y-76620227D01*
X233008379Y-76638282D01*
X233075473Y-76650839D01*
X233156435Y-76658522D01*
X233254918Y-76661953D01*
X233289714Y-76662251D01*
X233455406Y-76662845D01*
X233478803Y-76633100D01*
X233485743Y-76623319D01*
X233491158Y-76611897D01*
X233495235Y-76596095D01*
X233498163Y-76573175D01*
X233500133Y-76540396D01*
X233500775Y-76516089D01*
X233344156Y-76516089D01*
X233250274Y-76516089D01*
X233195336Y-76514483D01*
X233138940Y-76510255D01*
X233092655Y-76504292D01*
X233089861Y-76503790D01*
X233007652Y-76481736D01*
X232943886Y-76448600D01*
X232896548Y-76402847D01*
X232863618Y-76342939D01*
X232857892Y-76327061D01*
X232852279Y-76302333D01*
X232854709Y-76277902D01*
X232866533Y-76245400D01*
X232873660Y-76229434D01*
X232897000Y-76187006D01*
X232925120Y-76157240D01*
X232956060Y-76136511D01*
X233018034Y-76109537D01*
X233097349Y-76089998D01*
X233189747Y-76078746D01*
X233256667Y-76076270D01*
X233344156Y-76075822D01*
X233344156Y-76516089D01*
X233500775Y-76516089D01*
X233501332Y-76495021D01*
X233501950Y-76434311D01*
X233502175Y-76355526D01*
X233502200Y-76293920D01*
X233502200Y-75984485D01*
X233474491Y-75956776D01*
X233462194Y-75945544D01*
X233448897Y-75937853D01*
X233430328Y-75933040D01*
X233402214Y-75930446D01*
X233360283Y-75929410D01*
X233300263Y-75929270D01*
X233296691Y-75929275D01*
G36*
X230570335Y-75931034D02*
G01*
X230550745Y-75938035D01*
X230549990Y-75938377D01*
X230523387Y-75958678D01*
X230508730Y-75979561D01*
X230505862Y-75989352D01*
X230506004Y-76002361D01*
X230510039Y-76020895D01*
X230518854Y-76047257D01*
X230533331Y-76083752D01*
X230554355Y-76132687D01*
X230582812Y-76196365D01*
X230619585Y-76277093D01*
X230639825Y-76321216D01*
X230676375Y-76399985D01*
X230710685Y-76472423D01*
X230741448Y-76535880D01*
X230767352Y-76587708D01*
X230787090Y-76625259D01*
X230799350Y-76645884D01*
X230801776Y-76648733D01*
X230832817Y-76661302D01*
X230867879Y-76659619D01*
X230896000Y-76644332D01*
X230897146Y-76643089D01*
X230908332Y-76626154D01*
X230927096Y-76593170D01*
X230951125Y-76548380D01*
X230978103Y-76496032D01*
X230987799Y-76476742D01*
X231060986Y-76330150D01*
X231140760Y-76489393D01*
X231169233Y-76544415D01*
X231195650Y-76592132D01*
X231217852Y-76628893D01*
X231233681Y-76651044D01*
X231239046Y-76655741D01*
X231280743Y-76662102D01*
X231315151Y-76648733D01*
X231325272Y-76634446D01*
X231342786Y-76602692D01*
X231366265Y-76556597D01*
X231394280Y-76499285D01*
X231425401Y-76433880D01*
X231458201Y-76363507D01*
X231491250Y-76291291D01*
X231523119Y-76220355D01*
X231552381Y-76153825D01*
X231577605Y-76094826D01*
X231597364Y-76046481D01*
X231610228Y-76011915D01*
X231614769Y-75994253D01*
X231614723Y-75993613D01*
X231603674Y-75971388D01*
X231581590Y-75948753D01*
X231580290Y-75947768D01*
X231553147Y-75932425D01*
X231528042Y-75932574D01*
X231518632Y-75935466D01*
X231507166Y-75941718D01*
X231494990Y-75954014D01*
X231480643Y-75974908D01*
X231462664Y-76006949D01*
X231439593Y-76052688D01*
X231409970Y-76114677D01*
X231383255Y-76171898D01*
X231352520Y-76238226D01*
X231324979Y-76297874D01*
X231302062Y-76347725D01*
X231285202Y-76384664D01*
X231275827Y-76405573D01*
X231274460Y-76408845D01*
X231268311Y-76403497D01*
X231254178Y-76381109D01*
X231233943Y-76344946D01*
X231209485Y-76298277D01*
X231199752Y-76279022D01*
X231166783Y-76214004D01*
X231141357Y-76166654D01*
X231121388Y-76134219D01*
X231104790Y-76113946D01*
X231089476Y-76103082D01*
X231073360Y-76098875D01*
X231062857Y-76098400D01*
X231044330Y-76100042D01*
X231028096Y-76106831D01*
X231011965Y-76121566D01*
X230993749Y-76147044D01*
X230971261Y-76186061D01*
X230942311Y-76241414D01*
X230926338Y-76272903D01*
X230900430Y-76323087D01*
X230877833Y-76364704D01*
X230860542Y-76394242D01*
X230850550Y-76408189D01*
X230849191Y-76408770D01*
X230842739Y-76397793D01*
X230828292Y-76369290D01*
X230807297Y-76326244D01*
X230781203Y-76271638D01*
X230751454Y-76208454D01*
X230736820Y-76177071D01*
X230698750Y-76096078D01*
X230668095Y-76033756D01*
X230643263Y-75988071D01*
X230622663Y-75956989D01*
X230604702Y-75938478D01*
X230587790Y-75930504D01*
X230570335Y-75931034D01*
G37*
X230570335Y-75931034D02*
X230550745Y-75938035D01*
X230549990Y-75938377D01*
X230523387Y-75958678D01*
X230508730Y-75979561D01*
X230505862Y-75989352D01*
X230506004Y-76002361D01*
X230510039Y-76020895D01*
X230518854Y-76047257D01*
X230533331Y-76083752D01*
X230554355Y-76132687D01*
X230582812Y-76196365D01*
X230619585Y-76277093D01*
X230639825Y-76321216D01*
X230676375Y-76399985D01*
X230710685Y-76472423D01*
X230741448Y-76535880D01*
X230767352Y-76587708D01*
X230787090Y-76625259D01*
X230799350Y-76645884D01*
X230801776Y-76648733D01*
X230832817Y-76661302D01*
X230867879Y-76659619D01*
X230896000Y-76644332D01*
X230897146Y-76643089D01*
X230908332Y-76626154D01*
X230927096Y-76593170D01*
X230951125Y-76548380D01*
X230978103Y-76496032D01*
X230987799Y-76476742D01*
X231060986Y-76330150D01*
X231140760Y-76489393D01*
X231169233Y-76544415D01*
X231195650Y-76592132D01*
X231217852Y-76628893D01*
X231233681Y-76651044D01*
X231239046Y-76655741D01*
X231280743Y-76662102D01*
X231315151Y-76648733D01*
X231325272Y-76634446D01*
X231342786Y-76602692D01*
X231366265Y-76556597D01*
X231394280Y-76499285D01*
X231425401Y-76433880D01*
X231458201Y-76363507D01*
X231491250Y-76291291D01*
X231523119Y-76220355D01*
X231552381Y-76153825D01*
X231577605Y-76094826D01*
X231597364Y-76046481D01*
X231610228Y-76011915D01*
X231614769Y-75994253D01*
X231614723Y-75993613D01*
X231603674Y-75971388D01*
X231581590Y-75948753D01*
X231580290Y-75947768D01*
X231553147Y-75932425D01*
X231528042Y-75932574D01*
X231518632Y-75935466D01*
X231507166Y-75941718D01*
X231494990Y-75954014D01*
X231480643Y-75974908D01*
X231462664Y-76006949D01*
X231439593Y-76052688D01*
X231409970Y-76114677D01*
X231383255Y-76171898D01*
X231352520Y-76238226D01*
X231324979Y-76297874D01*
X231302062Y-76347725D01*
X231285202Y-76384664D01*
X231275827Y-76405573D01*
X231274460Y-76408845D01*
X231268311Y-76403497D01*
X231254178Y-76381109D01*
X231233943Y-76344946D01*
X231209485Y-76298277D01*
X231199752Y-76279022D01*
X231166783Y-76214004D01*
X231141357Y-76166654D01*
X231121388Y-76134219D01*
X231104790Y-76113946D01*
X231089476Y-76103082D01*
X231073360Y-76098875D01*
X231062857Y-76098400D01*
X231044330Y-76100042D01*
X231028096Y-76106831D01*
X231011965Y-76121566D01*
X230993749Y-76147044D01*
X230971261Y-76186061D01*
X230942311Y-76241414D01*
X230926338Y-76272903D01*
X230900430Y-76323087D01*
X230877833Y-76364704D01*
X230860542Y-76394242D01*
X230850550Y-76408189D01*
X230849191Y-76408770D01*
X230842739Y-76397793D01*
X230828292Y-76369290D01*
X230807297Y-76326244D01*
X230781203Y-76271638D01*
X230751454Y-76208454D01*
X230736820Y-76177071D01*
X230698750Y-76096078D01*
X230668095Y-76033756D01*
X230643263Y-75988071D01*
X230622663Y-75956989D01*
X230604702Y-75938478D01*
X230587790Y-75930504D01*
X230570335Y-75931034D01*
G36*
X230126386Y-75935877D02*
G01*
X230102673Y-75950647D01*
X230076022Y-75972227D01*
X230076022Y-76293773D01*
X230076107Y-76387830D01*
X230076471Y-76461932D01*
X230077276Y-76518704D01*
X230078687Y-76560768D01*
X230080867Y-76590748D01*
X230083979Y-76611267D01*
X230088186Y-76624949D01*
X230093652Y-76634416D01*
X230097528Y-76639082D01*
X230128966Y-76659575D01*
X230164767Y-76658739D01*
X230196127Y-76641264D01*
X230222778Y-76619684D01*
X230222778Y-75972227D01*
X230196127Y-75950647D01*
X230170406Y-75934949D01*
X230149400Y-75929067D01*
X230126386Y-75935877D01*
G37*
X230126386Y-75935877D02*
X230102673Y-75950647D01*
X230076022Y-75972227D01*
X230076022Y-76293773D01*
X230076107Y-76387830D01*
X230076471Y-76461932D01*
X230077276Y-76518704D01*
X230078687Y-76560768D01*
X230080867Y-76590748D01*
X230083979Y-76611267D01*
X230088186Y-76624949D01*
X230093652Y-76634416D01*
X230097528Y-76639082D01*
X230128966Y-76659575D01*
X230164767Y-76658739D01*
X230196127Y-76641264D01*
X230222778Y-76619684D01*
X230222778Y-75972227D01*
X230196127Y-75950647D01*
X230170406Y-75934949D01*
X230149400Y-75929067D01*
X230126386Y-75935877D01*
G36*
X229351935Y-75929163D02*
G01*
X229273228Y-75929542D01*
X229212137Y-75930333D01*
X229166183Y-75931670D01*
X229132886Y-75933683D01*
X229109764Y-75936506D01*
X229094338Y-75940269D01*
X229084129Y-75945105D01*
X229079187Y-75948822D01*
X229053543Y-75981358D01*
X229050441Y-76015138D01*
X229066289Y-76045826D01*
X229076652Y-76058089D01*
X229087804Y-76066450D01*
X229103965Y-76071657D01*
X229129358Y-76074457D01*
X229168202Y-76075596D01*
X229224720Y-76075821D01*
X229235820Y-76075822D01*
X229381756Y-76075822D01*
X229381756Y-76346756D01*
X229381852Y-76432154D01*
X229382289Y-76497864D01*
X229383288Y-76546774D01*
X229385072Y-76581773D01*
X229387863Y-76605749D01*
X229391883Y-76621593D01*
X229397355Y-76632191D01*
X229404334Y-76640267D01*
X229437266Y-76660112D01*
X229471646Y-76658548D01*
X229502824Y-76635906D01*
X229505114Y-76633100D01*
X229512571Y-76622492D01*
X229518253Y-76610081D01*
X229522399Y-76592850D01*
X229525250Y-76567784D01*
X229527046Y-76531867D01*
X229528028Y-76482083D01*
X229528436Y-76415417D01*
X229528511Y-76339589D01*
X229528511Y-76075822D01*
X229667873Y-76075822D01*
X229727678Y-76075418D01*
X229769082Y-76073840D01*
X229796252Y-76070547D01*
X229813354Y-76064992D01*
X229824557Y-76056631D01*
X229825917Y-76055178D01*
X229842275Y-76021939D01*
X229840828Y-75984362D01*
X229822022Y-75951645D01*
X229814750Y-75945298D01*
X229805373Y-75940266D01*
X229791391Y-75936396D01*
X229770304Y-75933537D01*
X229739611Y-75931535D01*
X229696811Y-75930239D01*
X229639405Y-75929498D01*
X229564890Y-75929158D01*
X229470767Y-75929068D01*
X229450740Y-75929067D01*
X229351935Y-75929163D01*
G37*
X229351935Y-75929163D02*
X229273228Y-75929542D01*
X229212137Y-75930333D01*
X229166183Y-75931670D01*
X229132886Y-75933683D01*
X229109764Y-75936506D01*
X229094338Y-75940269D01*
X229084129Y-75945105D01*
X229079187Y-75948822D01*
X229053543Y-75981358D01*
X229050441Y-76015138D01*
X229066289Y-76045826D01*
X229076652Y-76058089D01*
X229087804Y-76066450D01*
X229103965Y-76071657D01*
X229129358Y-76074457D01*
X229168202Y-76075596D01*
X229224720Y-76075821D01*
X229235820Y-76075822D01*
X229381756Y-76075822D01*
X229381756Y-76346756D01*
X229381852Y-76432154D01*
X229382289Y-76497864D01*
X229383288Y-76546774D01*
X229385072Y-76581773D01*
X229387863Y-76605749D01*
X229391883Y-76621593D01*
X229397355Y-76632191D01*
X229404334Y-76640267D01*
X229437266Y-76660112D01*
X229471646Y-76658548D01*
X229502824Y-76635906D01*
X229505114Y-76633100D01*
X229512571Y-76622492D01*
X229518253Y-76610081D01*
X229522399Y-76592850D01*
X229525250Y-76567784D01*
X229527046Y-76531867D01*
X229528028Y-76482083D01*
X229528436Y-76415417D01*
X229528511Y-76339589D01*
X229528511Y-76075822D01*
X229667873Y-76075822D01*
X229727678Y-76075418D01*
X229769082Y-76073840D01*
X229796252Y-76070547D01*
X229813354Y-76064992D01*
X229824557Y-76056631D01*
X229825917Y-76055178D01*
X229842275Y-76021939D01*
X229840828Y-75984362D01*
X229822022Y-75951645D01*
X229814750Y-75945298D01*
X229805373Y-75940266D01*
X229791391Y-75936396D01*
X229770304Y-75933537D01*
X229739611Y-75931535D01*
X229696811Y-75930239D01*
X229639405Y-75929498D01*
X229564890Y-75929158D01*
X229470767Y-75929068D01*
X229450740Y-75929067D01*
X229351935Y-75929163D01*
G36*
X228086177Y-75934533D02*
G01*
X228054798Y-75956776D01*
X228027089Y-75984485D01*
X228027089Y-76293920D01*
X228027162Y-76385799D01*
X228027505Y-76457840D01*
X228028308Y-76512780D01*
X228029759Y-76553360D01*
X228032048Y-76582317D01*
X228035364Y-76602391D01*
X228039895Y-76616321D01*
X228045831Y-76626845D01*
X228050486Y-76633100D01*
X228081217Y-76657673D01*
X228116504Y-76660341D01*
X228148755Y-76645271D01*
X228159412Y-76636374D01*
X228166536Y-76624557D01*
X228170833Y-76605526D01*
X228173009Y-76574992D01*
X228173772Y-76528662D01*
X228173845Y-76492871D01*
X228173845Y-76358045D01*
X228670556Y-76358045D01*
X228670556Y-76480700D01*
X228671069Y-76536787D01*
X228673124Y-76575333D01*
X228677492Y-76601361D01*
X228684944Y-76619897D01*
X228693953Y-76633100D01*
X228724856Y-76657604D01*
X228759804Y-76660506D01*
X228793262Y-76643089D01*
X228802396Y-76633959D01*
X228808848Y-76621855D01*
X228813103Y-76603001D01*
X228815648Y-76573620D01*
X228816971Y-76529937D01*
X228817557Y-76468175D01*
X228817625Y-76454000D01*
X228818109Y-76337631D01*
X228818359Y-76241727D01*
X228818277Y-76164177D01*
X228817769Y-76102869D01*
X228816738Y-76055690D01*
X228815087Y-76020530D01*
X228812721Y-75995276D01*
X228809543Y-75977817D01*
X228805456Y-75966041D01*
X228800366Y-75957835D01*
X228794734Y-75951645D01*
X228762872Y-75931844D01*
X228729643Y-75934533D01*
X228698265Y-75956776D01*
X228685567Y-75971126D01*
X228677474Y-75986978D01*
X228672958Y-76009554D01*
X228670994Y-76044078D01*
X228670556Y-76095776D01*
X228670556Y-76211289D01*
X228173845Y-76211289D01*
X228173845Y-76092756D01*
X228173338Y-76038148D01*
X228171302Y-76001275D01*
X228166965Y-75977307D01*
X228159553Y-75961415D01*
X228151267Y-75951645D01*
X228119406Y-75931844D01*
X228086177Y-75934533D01*
G37*
X228086177Y-75934533D02*
X228054798Y-75956776D01*
X228027089Y-75984485D01*
X228027089Y-76293920D01*
X228027162Y-76385799D01*
X228027505Y-76457840D01*
X228028308Y-76512780D01*
X228029759Y-76553360D01*
X228032048Y-76582317D01*
X228035364Y-76602391D01*
X228039895Y-76616321D01*
X228045831Y-76626845D01*
X228050486Y-76633100D01*
X228081217Y-76657673D01*
X228116504Y-76660341D01*
X228148755Y-76645271D01*
X228159412Y-76636374D01*
X228166536Y-76624557D01*
X228170833Y-76605526D01*
X228173009Y-76574992D01*
X228173772Y-76528662D01*
X228173845Y-76492871D01*
X228173845Y-76358045D01*
X228670556Y-76358045D01*
X228670556Y-76480700D01*
X228671069Y-76536787D01*
X228673124Y-76575333D01*
X228677492Y-76601361D01*
X228684944Y-76619897D01*
X228693953Y-76633100D01*
X228724856Y-76657604D01*
X228759804Y-76660506D01*
X228793262Y-76643089D01*
X228802396Y-76633959D01*
X228808848Y-76621855D01*
X228813103Y-76603001D01*
X228815648Y-76573620D01*
X228816971Y-76529937D01*
X228817557Y-76468175D01*
X228817625Y-76454000D01*
X228818109Y-76337631D01*
X228818359Y-76241727D01*
X228818277Y-76164177D01*
X228817769Y-76102869D01*
X228816738Y-76055690D01*
X228815087Y-76020530D01*
X228812721Y-75995276D01*
X228809543Y-75977817D01*
X228805456Y-75966041D01*
X228800366Y-75957835D01*
X228794734Y-75951645D01*
X228762872Y-75931844D01*
X228729643Y-75934533D01*
X228698265Y-75956776D01*
X228685567Y-75971126D01*
X228677474Y-75986978D01*
X228672958Y-76009554D01*
X228670994Y-76044078D01*
X228670556Y-76095776D01*
X228670556Y-76211289D01*
X228173845Y-76211289D01*
X228173845Y-76092756D01*
X228173338Y-76038148D01*
X228171302Y-76001275D01*
X228166965Y-75977307D01*
X228159553Y-75961415D01*
X228151267Y-75951645D01*
X228119406Y-75931844D01*
X228086177Y-75934533D01*
D12*
%TO.C,QR\u002A\u002A\u002A\u002A\u002A*%
G36*
X195375000Y-78310000D02*
G01*
X195375000Y-78610000D01*
X195075000Y-78610000D01*
X195075000Y-78310000D01*
X195375000Y-78310000D01*
G37*
G36*
X195675000Y-78310000D02*
G01*
X195675000Y-78610000D01*
X195375000Y-78610000D01*
X195375000Y-78310000D01*
X195675000Y-78310000D01*
G37*
G36*
X195975000Y-78310000D02*
G01*
X195975000Y-78610000D01*
X195675000Y-78610000D01*
X195675000Y-78310000D01*
X195975000Y-78310000D01*
G37*
G36*
X196275000Y-78310000D02*
G01*
X196275000Y-78610000D01*
X195975000Y-78610000D01*
X195975000Y-78310000D01*
X196275000Y-78310000D01*
G37*
G36*
X196575000Y-78310000D02*
G01*
X196575000Y-78610000D01*
X196275000Y-78610000D01*
X196275000Y-78310000D01*
X196575000Y-78310000D01*
G37*
G36*
X196875000Y-78310000D02*
G01*
X196875000Y-78610000D01*
X196575000Y-78610000D01*
X196575000Y-78310000D01*
X196875000Y-78310000D01*
G37*
G36*
X197175000Y-78310000D02*
G01*
X197175000Y-78610000D01*
X196875000Y-78610000D01*
X196875000Y-78310000D01*
X197175000Y-78310000D01*
G37*
G36*
X198975000Y-78310000D02*
G01*
X198975000Y-78610000D01*
X198675000Y-78610000D01*
X198675000Y-78310000D01*
X198975000Y-78310000D01*
G37*
G36*
X199275000Y-78310000D02*
G01*
X199275000Y-78610000D01*
X198975000Y-78610000D01*
X198975000Y-78310000D01*
X199275000Y-78310000D01*
G37*
G36*
X199875000Y-78310000D02*
G01*
X199875000Y-78610000D01*
X199575000Y-78610000D01*
X199575000Y-78310000D01*
X199875000Y-78310000D01*
G37*
G36*
X200175000Y-78310000D02*
G01*
X200175000Y-78610000D01*
X199875000Y-78610000D01*
X199875000Y-78310000D01*
X200175000Y-78310000D01*
G37*
G36*
X200475000Y-78310000D02*
G01*
X200475000Y-78610000D01*
X200175000Y-78610000D01*
X200175000Y-78310000D01*
X200475000Y-78310000D01*
G37*
G36*
X200775000Y-78310000D02*
G01*
X200775000Y-78610000D01*
X200475000Y-78610000D01*
X200475000Y-78310000D01*
X200775000Y-78310000D01*
G37*
G36*
X201075000Y-78310000D02*
G01*
X201075000Y-78610000D01*
X200775000Y-78610000D01*
X200775000Y-78310000D01*
X201075000Y-78310000D01*
G37*
G36*
X201375000Y-78310000D02*
G01*
X201375000Y-78610000D01*
X201075000Y-78610000D01*
X201075000Y-78310000D01*
X201375000Y-78310000D01*
G37*
G36*
X201975000Y-78310000D02*
G01*
X201975000Y-78610000D01*
X201675000Y-78610000D01*
X201675000Y-78310000D01*
X201975000Y-78310000D01*
G37*
G36*
X202275000Y-78310000D02*
G01*
X202275000Y-78610000D01*
X201975000Y-78610000D01*
X201975000Y-78310000D01*
X202275000Y-78310000D01*
G37*
G36*
X203175000Y-78310000D02*
G01*
X203175000Y-78610000D01*
X202875000Y-78610000D01*
X202875000Y-78310000D01*
X203175000Y-78310000D01*
G37*
G36*
X203475000Y-78310000D02*
G01*
X203475000Y-78610000D01*
X203175000Y-78610000D01*
X203175000Y-78310000D01*
X203475000Y-78310000D01*
G37*
G36*
X203775000Y-78310000D02*
G01*
X203775000Y-78610000D01*
X203475000Y-78610000D01*
X203475000Y-78310000D01*
X203775000Y-78310000D01*
G37*
G36*
X204075000Y-78310000D02*
G01*
X204075000Y-78610000D01*
X203775000Y-78610000D01*
X203775000Y-78310000D01*
X204075000Y-78310000D01*
G37*
G36*
X204375000Y-78310000D02*
G01*
X204375000Y-78610000D01*
X204075000Y-78610000D01*
X204075000Y-78310000D01*
X204375000Y-78310000D01*
G37*
G36*
X204675000Y-78310000D02*
G01*
X204675000Y-78610000D01*
X204375000Y-78610000D01*
X204375000Y-78310000D01*
X204675000Y-78310000D01*
G37*
G36*
X204975000Y-78310000D02*
G01*
X204975000Y-78610000D01*
X204675000Y-78610000D01*
X204675000Y-78310000D01*
X204975000Y-78310000D01*
G37*
G36*
X195375000Y-78010000D02*
G01*
X195375000Y-78310000D01*
X195075000Y-78310000D01*
X195075000Y-78010000D01*
X195375000Y-78010000D01*
G37*
G36*
X197175000Y-78010000D02*
G01*
X197175000Y-78310000D01*
X196875000Y-78310000D01*
X196875000Y-78010000D01*
X197175000Y-78010000D01*
G37*
G36*
X198075000Y-78010000D02*
G01*
X198075000Y-78310000D01*
X197775000Y-78310000D01*
X197775000Y-78010000D01*
X198075000Y-78010000D01*
G37*
G36*
X199275000Y-78010000D02*
G01*
X199275000Y-78310000D01*
X198975000Y-78310000D01*
X198975000Y-78010000D01*
X199275000Y-78010000D01*
G37*
G36*
X199575000Y-78010000D02*
G01*
X199575000Y-78310000D01*
X199275000Y-78310000D01*
X199275000Y-78010000D01*
X199575000Y-78010000D01*
G37*
G36*
X200475000Y-78010000D02*
G01*
X200475000Y-78310000D01*
X200175000Y-78310000D01*
X200175000Y-78010000D01*
X200475000Y-78010000D01*
G37*
G36*
X201375000Y-78010000D02*
G01*
X201375000Y-78310000D01*
X201075000Y-78310000D01*
X201075000Y-78010000D01*
X201375000Y-78010000D01*
G37*
G36*
X201975000Y-78010000D02*
G01*
X201975000Y-78310000D01*
X201675000Y-78310000D01*
X201675000Y-78010000D01*
X201975000Y-78010000D01*
G37*
G36*
X203175000Y-78010000D02*
G01*
X203175000Y-78310000D01*
X202875000Y-78310000D01*
X202875000Y-78010000D01*
X203175000Y-78010000D01*
G37*
G36*
X204975000Y-78010000D02*
G01*
X204975000Y-78310000D01*
X204675000Y-78310000D01*
X204675000Y-78010000D01*
X204975000Y-78010000D01*
G37*
G36*
X195375000Y-77710000D02*
G01*
X195375000Y-78010000D01*
X195075000Y-78010000D01*
X195075000Y-77710000D01*
X195375000Y-77710000D01*
G37*
G36*
X195975000Y-77710000D02*
G01*
X195975000Y-78010000D01*
X195675000Y-78010000D01*
X195675000Y-77710000D01*
X195975000Y-77710000D01*
G37*
G36*
X196275000Y-77710000D02*
G01*
X196275000Y-78010000D01*
X195975000Y-78010000D01*
X195975000Y-77710000D01*
X196275000Y-77710000D01*
G37*
G36*
X196575000Y-77710000D02*
G01*
X196575000Y-78010000D01*
X196275000Y-78010000D01*
X196275000Y-77710000D01*
X196575000Y-77710000D01*
G37*
G36*
X197175000Y-77710000D02*
G01*
X197175000Y-78010000D01*
X196875000Y-78010000D01*
X196875000Y-77710000D01*
X197175000Y-77710000D01*
G37*
G36*
X197775000Y-77710000D02*
G01*
X197775000Y-78010000D01*
X197475000Y-78010000D01*
X197475000Y-77710000D01*
X197775000Y-77710000D01*
G37*
G36*
X198075000Y-77710000D02*
G01*
X198075000Y-78010000D01*
X197775000Y-78010000D01*
X197775000Y-77710000D01*
X198075000Y-77710000D01*
G37*
G36*
X199275000Y-77710000D02*
G01*
X199275000Y-78010000D01*
X198975000Y-78010000D01*
X198975000Y-77710000D01*
X199275000Y-77710000D01*
G37*
G36*
X200175000Y-77710000D02*
G01*
X200175000Y-78010000D01*
X199875000Y-78010000D01*
X199875000Y-77710000D01*
X200175000Y-77710000D01*
G37*
G36*
X200475000Y-77710000D02*
G01*
X200475000Y-78010000D01*
X200175000Y-78010000D01*
X200175000Y-77710000D01*
X200475000Y-77710000D01*
G37*
G36*
X200775000Y-77710000D02*
G01*
X200775000Y-78010000D01*
X200475000Y-78010000D01*
X200475000Y-77710000D01*
X200775000Y-77710000D01*
G37*
G36*
X201075000Y-77710000D02*
G01*
X201075000Y-78010000D01*
X200775000Y-78010000D01*
X200775000Y-77710000D01*
X201075000Y-77710000D01*
G37*
G36*
X201375000Y-77710000D02*
G01*
X201375000Y-78010000D01*
X201075000Y-78010000D01*
X201075000Y-77710000D01*
X201375000Y-77710000D01*
G37*
G36*
X203175000Y-77710000D02*
G01*
X203175000Y-78010000D01*
X202875000Y-78010000D01*
X202875000Y-77710000D01*
X203175000Y-77710000D01*
G37*
G36*
X203775000Y-77710000D02*
G01*
X203775000Y-78010000D01*
X203475000Y-78010000D01*
X203475000Y-77710000D01*
X203775000Y-77710000D01*
G37*
G36*
X204075000Y-77710000D02*
G01*
X204075000Y-78010000D01*
X203775000Y-78010000D01*
X203775000Y-77710000D01*
X204075000Y-77710000D01*
G37*
G36*
X204375000Y-77710000D02*
G01*
X204375000Y-78010000D01*
X204075000Y-78010000D01*
X204075000Y-77710000D01*
X204375000Y-77710000D01*
G37*
G36*
X204975000Y-77710000D02*
G01*
X204975000Y-78010000D01*
X204675000Y-78010000D01*
X204675000Y-77710000D01*
X204975000Y-77710000D01*
G37*
G36*
X195375000Y-77410000D02*
G01*
X195375000Y-77710000D01*
X195075000Y-77710000D01*
X195075000Y-77410000D01*
X195375000Y-77410000D01*
G37*
G36*
X195975000Y-77410000D02*
G01*
X195975000Y-77710000D01*
X195675000Y-77710000D01*
X195675000Y-77410000D01*
X195975000Y-77410000D01*
G37*
G36*
X196275000Y-77410000D02*
G01*
X196275000Y-77710000D01*
X195975000Y-77710000D01*
X195975000Y-77410000D01*
X196275000Y-77410000D01*
G37*
G36*
X196575000Y-77410000D02*
G01*
X196575000Y-77710000D01*
X196275000Y-77710000D01*
X196275000Y-77410000D01*
X196575000Y-77410000D01*
G37*
G36*
X197175000Y-77410000D02*
G01*
X197175000Y-77710000D01*
X196875000Y-77710000D01*
X196875000Y-77410000D01*
X197175000Y-77410000D01*
G37*
G36*
X197775000Y-77410000D02*
G01*
X197775000Y-77710000D01*
X197475000Y-77710000D01*
X197475000Y-77410000D01*
X197775000Y-77410000D01*
G37*
G36*
X198075000Y-77410000D02*
G01*
X198075000Y-77710000D01*
X197775000Y-77710000D01*
X197775000Y-77410000D01*
X198075000Y-77410000D01*
G37*
G36*
X198375000Y-77410000D02*
G01*
X198375000Y-77710000D01*
X198075000Y-77710000D01*
X198075000Y-77410000D01*
X198375000Y-77410000D01*
G37*
G36*
X199575000Y-77410000D02*
G01*
X199575000Y-77710000D01*
X199275000Y-77710000D01*
X199275000Y-77410000D01*
X199575000Y-77410000D01*
G37*
G36*
X200175000Y-77410000D02*
G01*
X200175000Y-77710000D01*
X199875000Y-77710000D01*
X199875000Y-77410000D01*
X200175000Y-77410000D01*
G37*
G36*
X201375000Y-77410000D02*
G01*
X201375000Y-77710000D01*
X201075000Y-77710000D01*
X201075000Y-77410000D01*
X201375000Y-77410000D01*
G37*
G36*
X201675000Y-77410000D02*
G01*
X201675000Y-77710000D01*
X201375000Y-77710000D01*
X201375000Y-77410000D01*
X201675000Y-77410000D01*
G37*
G36*
X201975000Y-77410000D02*
G01*
X201975000Y-77710000D01*
X201675000Y-77710000D01*
X201675000Y-77410000D01*
X201975000Y-77410000D01*
G37*
G36*
X203175000Y-77410000D02*
G01*
X203175000Y-77710000D01*
X202875000Y-77710000D01*
X202875000Y-77410000D01*
X203175000Y-77410000D01*
G37*
G36*
X203775000Y-77410000D02*
G01*
X203775000Y-77710000D01*
X203475000Y-77710000D01*
X203475000Y-77410000D01*
X203775000Y-77410000D01*
G37*
G36*
X204075000Y-77410000D02*
G01*
X204075000Y-77710000D01*
X203775000Y-77710000D01*
X203775000Y-77410000D01*
X204075000Y-77410000D01*
G37*
G36*
X204375000Y-77410000D02*
G01*
X204375000Y-77710000D01*
X204075000Y-77710000D01*
X204075000Y-77410000D01*
X204375000Y-77410000D01*
G37*
G36*
X204975000Y-77410000D02*
G01*
X204975000Y-77710000D01*
X204675000Y-77710000D01*
X204675000Y-77410000D01*
X204975000Y-77410000D01*
G37*
G36*
X195375000Y-77110000D02*
G01*
X195375000Y-77410000D01*
X195075000Y-77410000D01*
X195075000Y-77110000D01*
X195375000Y-77110000D01*
G37*
G36*
X195975000Y-77110000D02*
G01*
X195975000Y-77410000D01*
X195675000Y-77410000D01*
X195675000Y-77110000D01*
X195975000Y-77110000D01*
G37*
G36*
X196275000Y-77110000D02*
G01*
X196275000Y-77410000D01*
X195975000Y-77410000D01*
X195975000Y-77110000D01*
X196275000Y-77110000D01*
G37*
G36*
X196575000Y-77110000D02*
G01*
X196575000Y-77410000D01*
X196275000Y-77410000D01*
X196275000Y-77110000D01*
X196575000Y-77110000D01*
G37*
G36*
X197175000Y-77110000D02*
G01*
X197175000Y-77410000D01*
X196875000Y-77410000D01*
X196875000Y-77110000D01*
X197175000Y-77110000D01*
G37*
G36*
X197775000Y-77110000D02*
G01*
X197775000Y-77410000D01*
X197475000Y-77410000D01*
X197475000Y-77110000D01*
X197775000Y-77110000D01*
G37*
G36*
X198075000Y-77110000D02*
G01*
X198075000Y-77410000D01*
X197775000Y-77410000D01*
X197775000Y-77110000D01*
X198075000Y-77110000D01*
G37*
G36*
X198675000Y-77110000D02*
G01*
X198675000Y-77410000D01*
X198375000Y-77410000D01*
X198375000Y-77110000D01*
X198675000Y-77110000D01*
G37*
G36*
X199875000Y-77110000D02*
G01*
X199875000Y-77410000D01*
X199575000Y-77410000D01*
X199575000Y-77110000D01*
X199875000Y-77110000D01*
G37*
G36*
X200475000Y-77110000D02*
G01*
X200475000Y-77410000D01*
X200175000Y-77410000D01*
X200175000Y-77110000D01*
X200475000Y-77110000D01*
G37*
G36*
X200775000Y-77110000D02*
G01*
X200775000Y-77410000D01*
X200475000Y-77410000D01*
X200475000Y-77110000D01*
X200775000Y-77110000D01*
G37*
G36*
X201675000Y-77110000D02*
G01*
X201675000Y-77410000D01*
X201375000Y-77410000D01*
X201375000Y-77110000D01*
X201675000Y-77110000D01*
G37*
G36*
X202575000Y-77110000D02*
G01*
X202575000Y-77410000D01*
X202275000Y-77410000D01*
X202275000Y-77110000D01*
X202575000Y-77110000D01*
G37*
G36*
X203175000Y-77110000D02*
G01*
X203175000Y-77410000D01*
X202875000Y-77410000D01*
X202875000Y-77110000D01*
X203175000Y-77110000D01*
G37*
G36*
X203775000Y-77110000D02*
G01*
X203775000Y-77410000D01*
X203475000Y-77410000D01*
X203475000Y-77110000D01*
X203775000Y-77110000D01*
G37*
G36*
X204075000Y-77110000D02*
G01*
X204075000Y-77410000D01*
X203775000Y-77410000D01*
X203775000Y-77110000D01*
X204075000Y-77110000D01*
G37*
G36*
X204375000Y-77110000D02*
G01*
X204375000Y-77410000D01*
X204075000Y-77410000D01*
X204075000Y-77110000D01*
X204375000Y-77110000D01*
G37*
G36*
X204975000Y-77110000D02*
G01*
X204975000Y-77410000D01*
X204675000Y-77410000D01*
X204675000Y-77110000D01*
X204975000Y-77110000D01*
G37*
G36*
X195375000Y-76810000D02*
G01*
X195375000Y-77110000D01*
X195075000Y-77110000D01*
X195075000Y-76810000D01*
X195375000Y-76810000D01*
G37*
G36*
X197175000Y-76810000D02*
G01*
X197175000Y-77110000D01*
X196875000Y-77110000D01*
X196875000Y-76810000D01*
X197175000Y-76810000D01*
G37*
G36*
X197775000Y-76810000D02*
G01*
X197775000Y-77110000D01*
X197475000Y-77110000D01*
X197475000Y-76810000D01*
X197775000Y-76810000D01*
G37*
G36*
X198675000Y-76810000D02*
G01*
X198675000Y-77110000D01*
X198375000Y-77110000D01*
X198375000Y-76810000D01*
X198675000Y-76810000D01*
G37*
G36*
X199875000Y-76810000D02*
G01*
X199875000Y-77110000D01*
X199575000Y-77110000D01*
X199575000Y-76810000D01*
X199875000Y-76810000D01*
G37*
G36*
X200175000Y-76810000D02*
G01*
X200175000Y-77110000D01*
X199875000Y-77110000D01*
X199875000Y-76810000D01*
X200175000Y-76810000D01*
G37*
G36*
X200775000Y-76810000D02*
G01*
X200775000Y-77110000D01*
X200475000Y-77110000D01*
X200475000Y-76810000D01*
X200775000Y-76810000D01*
G37*
G36*
X201375000Y-76810000D02*
G01*
X201375000Y-77110000D01*
X201075000Y-77110000D01*
X201075000Y-76810000D01*
X201375000Y-76810000D01*
G37*
G36*
X203175000Y-76810000D02*
G01*
X203175000Y-77110000D01*
X202875000Y-77110000D01*
X202875000Y-76810000D01*
X203175000Y-76810000D01*
G37*
G36*
X204975000Y-76810000D02*
G01*
X204975000Y-77110000D01*
X204675000Y-77110000D01*
X204675000Y-76810000D01*
X204975000Y-76810000D01*
G37*
G36*
X195375000Y-76510000D02*
G01*
X195375000Y-76810000D01*
X195075000Y-76810000D01*
X195075000Y-76510000D01*
X195375000Y-76510000D01*
G37*
G36*
X195675000Y-76510000D02*
G01*
X195675000Y-76810000D01*
X195375000Y-76810000D01*
X195375000Y-76510000D01*
X195675000Y-76510000D01*
G37*
G36*
X195975000Y-76510000D02*
G01*
X195975000Y-76810000D01*
X195675000Y-76810000D01*
X195675000Y-76510000D01*
X195975000Y-76510000D01*
G37*
G36*
X196275000Y-76510000D02*
G01*
X196275000Y-76810000D01*
X195975000Y-76810000D01*
X195975000Y-76510000D01*
X196275000Y-76510000D01*
G37*
G36*
X196575000Y-76510000D02*
G01*
X196575000Y-76810000D01*
X196275000Y-76810000D01*
X196275000Y-76510000D01*
X196575000Y-76510000D01*
G37*
G36*
X196875000Y-76510000D02*
G01*
X196875000Y-76810000D01*
X196575000Y-76810000D01*
X196575000Y-76510000D01*
X196875000Y-76510000D01*
G37*
G36*
X197175000Y-76510000D02*
G01*
X197175000Y-76810000D01*
X196875000Y-76810000D01*
X196875000Y-76510000D01*
X197175000Y-76510000D01*
G37*
G36*
X197775000Y-76510000D02*
G01*
X197775000Y-76810000D01*
X197475000Y-76810000D01*
X197475000Y-76510000D01*
X197775000Y-76510000D01*
G37*
G36*
X198375000Y-76510000D02*
G01*
X198375000Y-76810000D01*
X198075000Y-76810000D01*
X198075000Y-76510000D01*
X198375000Y-76510000D01*
G37*
G36*
X198975000Y-76510000D02*
G01*
X198975000Y-76810000D01*
X198675000Y-76810000D01*
X198675000Y-76510000D01*
X198975000Y-76510000D01*
G37*
G36*
X199575000Y-76510000D02*
G01*
X199575000Y-76810000D01*
X199275000Y-76810000D01*
X199275000Y-76510000D01*
X199575000Y-76510000D01*
G37*
G36*
X200175000Y-76510000D02*
G01*
X200175000Y-76810000D01*
X199875000Y-76810000D01*
X199875000Y-76510000D01*
X200175000Y-76510000D01*
G37*
G36*
X200775000Y-76510000D02*
G01*
X200775000Y-76810000D01*
X200475000Y-76810000D01*
X200475000Y-76510000D01*
X200775000Y-76510000D01*
G37*
G36*
X201375000Y-76510000D02*
G01*
X201375000Y-76810000D01*
X201075000Y-76810000D01*
X201075000Y-76510000D01*
X201375000Y-76510000D01*
G37*
G36*
X201975000Y-76510000D02*
G01*
X201975000Y-76810000D01*
X201675000Y-76810000D01*
X201675000Y-76510000D01*
X201975000Y-76510000D01*
G37*
G36*
X202575000Y-76510000D02*
G01*
X202575000Y-76810000D01*
X202275000Y-76810000D01*
X202275000Y-76510000D01*
X202575000Y-76510000D01*
G37*
G36*
X203175000Y-76510000D02*
G01*
X203175000Y-76810000D01*
X202875000Y-76810000D01*
X202875000Y-76510000D01*
X203175000Y-76510000D01*
G37*
G36*
X203475000Y-76510000D02*
G01*
X203475000Y-76810000D01*
X203175000Y-76810000D01*
X203175000Y-76510000D01*
X203475000Y-76510000D01*
G37*
G36*
X203775000Y-76510000D02*
G01*
X203775000Y-76810000D01*
X203475000Y-76810000D01*
X203475000Y-76510000D01*
X203775000Y-76510000D01*
G37*
G36*
X204075000Y-76510000D02*
G01*
X204075000Y-76810000D01*
X203775000Y-76810000D01*
X203775000Y-76510000D01*
X204075000Y-76510000D01*
G37*
G36*
X204375000Y-76510000D02*
G01*
X204375000Y-76810000D01*
X204075000Y-76810000D01*
X204075000Y-76510000D01*
X204375000Y-76510000D01*
G37*
G36*
X204675000Y-76510000D02*
G01*
X204675000Y-76810000D01*
X204375000Y-76810000D01*
X204375000Y-76510000D01*
X204675000Y-76510000D01*
G37*
G36*
X204975000Y-76510000D02*
G01*
X204975000Y-76810000D01*
X204675000Y-76810000D01*
X204675000Y-76510000D01*
X204975000Y-76510000D01*
G37*
G36*
X197775000Y-76210000D02*
G01*
X197775000Y-76510000D01*
X197475000Y-76510000D01*
X197475000Y-76210000D01*
X197775000Y-76210000D01*
G37*
G36*
X198375000Y-76210000D02*
G01*
X198375000Y-76510000D01*
X198075000Y-76510000D01*
X198075000Y-76210000D01*
X198375000Y-76210000D01*
G37*
G36*
X198675000Y-76210000D02*
G01*
X198675000Y-76510000D01*
X198375000Y-76510000D01*
X198375000Y-76210000D01*
X198675000Y-76210000D01*
G37*
G36*
X198975000Y-76210000D02*
G01*
X198975000Y-76510000D01*
X198675000Y-76510000D01*
X198675000Y-76210000D01*
X198975000Y-76210000D01*
G37*
G36*
X199575000Y-76210000D02*
G01*
X199575000Y-76510000D01*
X199275000Y-76510000D01*
X199275000Y-76210000D01*
X199575000Y-76210000D01*
G37*
G36*
X199875000Y-76210000D02*
G01*
X199875000Y-76510000D01*
X199575000Y-76510000D01*
X199575000Y-76210000D01*
X199875000Y-76210000D01*
G37*
G36*
X200775000Y-76210000D02*
G01*
X200775000Y-76510000D01*
X200475000Y-76510000D01*
X200475000Y-76210000D01*
X200775000Y-76210000D01*
G37*
G36*
X201675000Y-76210000D02*
G01*
X201675000Y-76510000D01*
X201375000Y-76510000D01*
X201375000Y-76210000D01*
X201675000Y-76210000D01*
G37*
G36*
X202575000Y-76210000D02*
G01*
X202575000Y-76510000D01*
X202275000Y-76510000D01*
X202275000Y-76210000D01*
X202575000Y-76210000D01*
G37*
G36*
X195375000Y-75910000D02*
G01*
X195375000Y-76210000D01*
X195075000Y-76210000D01*
X195075000Y-75910000D01*
X195375000Y-75910000D01*
G37*
G36*
X195975000Y-75910000D02*
G01*
X195975000Y-76210000D01*
X195675000Y-76210000D01*
X195675000Y-75910000D01*
X195975000Y-75910000D01*
G37*
G36*
X196275000Y-75910000D02*
G01*
X196275000Y-76210000D01*
X195975000Y-76210000D01*
X195975000Y-75910000D01*
X196275000Y-75910000D01*
G37*
G36*
X196575000Y-75910000D02*
G01*
X196575000Y-76210000D01*
X196275000Y-76210000D01*
X196275000Y-75910000D01*
X196575000Y-75910000D01*
G37*
G36*
X196875000Y-75910000D02*
G01*
X196875000Y-76210000D01*
X196575000Y-76210000D01*
X196575000Y-75910000D01*
X196875000Y-75910000D01*
G37*
G36*
X197175000Y-75910000D02*
G01*
X197175000Y-76210000D01*
X196875000Y-76210000D01*
X196875000Y-75910000D01*
X197175000Y-75910000D01*
G37*
G36*
X198075000Y-75910000D02*
G01*
X198075000Y-76210000D01*
X197775000Y-76210000D01*
X197775000Y-75910000D01*
X198075000Y-75910000D01*
G37*
G36*
X198675000Y-75910000D02*
G01*
X198675000Y-76210000D01*
X198375000Y-76210000D01*
X198375000Y-75910000D01*
X198675000Y-75910000D01*
G37*
G36*
X198975000Y-75910000D02*
G01*
X198975000Y-76210000D01*
X198675000Y-76210000D01*
X198675000Y-75910000D01*
X198975000Y-75910000D01*
G37*
G36*
X199875000Y-75910000D02*
G01*
X199875000Y-76210000D01*
X199575000Y-76210000D01*
X199575000Y-75910000D01*
X199875000Y-75910000D01*
G37*
G36*
X200175000Y-75910000D02*
G01*
X200175000Y-76210000D01*
X199875000Y-76210000D01*
X199875000Y-75910000D01*
X200175000Y-75910000D01*
G37*
G36*
X200475000Y-75910000D02*
G01*
X200475000Y-76210000D01*
X200175000Y-76210000D01*
X200175000Y-75910000D01*
X200475000Y-75910000D01*
G37*
G36*
X201975000Y-75910000D02*
G01*
X201975000Y-76210000D01*
X201675000Y-76210000D01*
X201675000Y-75910000D01*
X201975000Y-75910000D01*
G37*
G36*
X203175000Y-75910000D02*
G01*
X203175000Y-76210000D01*
X202875000Y-76210000D01*
X202875000Y-75910000D01*
X203175000Y-75910000D01*
G37*
G36*
X203475000Y-75910000D02*
G01*
X203475000Y-76210000D01*
X203175000Y-76210000D01*
X203175000Y-75910000D01*
X203475000Y-75910000D01*
G37*
G36*
X203775000Y-75910000D02*
G01*
X203775000Y-76210000D01*
X203475000Y-76210000D01*
X203475000Y-75910000D01*
X203775000Y-75910000D01*
G37*
G36*
X204075000Y-75910000D02*
G01*
X204075000Y-76210000D01*
X203775000Y-76210000D01*
X203775000Y-75910000D01*
X204075000Y-75910000D01*
G37*
G36*
X204375000Y-75910000D02*
G01*
X204375000Y-76210000D01*
X204075000Y-76210000D01*
X204075000Y-75910000D01*
X204375000Y-75910000D01*
G37*
G36*
X195375000Y-75610000D02*
G01*
X195375000Y-75910000D01*
X195075000Y-75910000D01*
X195075000Y-75610000D01*
X195375000Y-75610000D01*
G37*
G36*
X195675000Y-75610000D02*
G01*
X195675000Y-75910000D01*
X195375000Y-75910000D01*
X195375000Y-75610000D01*
X195675000Y-75610000D01*
G37*
G36*
X196275000Y-75610000D02*
G01*
X196275000Y-75910000D01*
X195975000Y-75910000D01*
X195975000Y-75610000D01*
X196275000Y-75610000D01*
G37*
G36*
X196875000Y-75610000D02*
G01*
X196875000Y-75910000D01*
X196575000Y-75910000D01*
X196575000Y-75610000D01*
X196875000Y-75610000D01*
G37*
G36*
X197475000Y-75610000D02*
G01*
X197475000Y-75910000D01*
X197175000Y-75910000D01*
X197175000Y-75610000D01*
X197475000Y-75610000D01*
G37*
G36*
X197775000Y-75610000D02*
G01*
X197775000Y-75910000D01*
X197475000Y-75910000D01*
X197475000Y-75610000D01*
X197775000Y-75610000D01*
G37*
G36*
X198075000Y-75610000D02*
G01*
X198075000Y-75910000D01*
X197775000Y-75910000D01*
X197775000Y-75610000D01*
X198075000Y-75610000D01*
G37*
G36*
X198675000Y-75610000D02*
G01*
X198675000Y-75910000D01*
X198375000Y-75910000D01*
X198375000Y-75610000D01*
X198675000Y-75610000D01*
G37*
G36*
X198975000Y-75610000D02*
G01*
X198975000Y-75910000D01*
X198675000Y-75910000D01*
X198675000Y-75610000D01*
X198975000Y-75610000D01*
G37*
G36*
X199575000Y-75610000D02*
G01*
X199575000Y-75910000D01*
X199275000Y-75910000D01*
X199275000Y-75610000D01*
X199575000Y-75610000D01*
G37*
G36*
X199875000Y-75610000D02*
G01*
X199875000Y-75910000D01*
X199575000Y-75910000D01*
X199575000Y-75610000D01*
X199875000Y-75610000D01*
G37*
G36*
X200775000Y-75610000D02*
G01*
X200775000Y-75910000D01*
X200475000Y-75910000D01*
X200475000Y-75610000D01*
X200775000Y-75610000D01*
G37*
G36*
X201075000Y-75610000D02*
G01*
X201075000Y-75910000D01*
X200775000Y-75910000D01*
X200775000Y-75610000D01*
X201075000Y-75610000D01*
G37*
G36*
X201375000Y-75610000D02*
G01*
X201375000Y-75910000D01*
X201075000Y-75910000D01*
X201075000Y-75610000D01*
X201375000Y-75610000D01*
G37*
G36*
X201675000Y-75610000D02*
G01*
X201675000Y-75910000D01*
X201375000Y-75910000D01*
X201375000Y-75610000D01*
X201675000Y-75610000D01*
G37*
G36*
X202275000Y-75610000D02*
G01*
X202275000Y-75910000D01*
X201975000Y-75910000D01*
X201975000Y-75610000D01*
X202275000Y-75610000D01*
G37*
G36*
X203175000Y-75610000D02*
G01*
X203175000Y-75910000D01*
X202875000Y-75910000D01*
X202875000Y-75610000D01*
X203175000Y-75610000D01*
G37*
G36*
X203475000Y-75610000D02*
G01*
X203475000Y-75910000D01*
X203175000Y-75910000D01*
X203175000Y-75610000D01*
X203475000Y-75610000D01*
G37*
G36*
X204075000Y-75610000D02*
G01*
X204075000Y-75910000D01*
X203775000Y-75910000D01*
X203775000Y-75610000D01*
X204075000Y-75610000D01*
G37*
G36*
X204375000Y-75610000D02*
G01*
X204375000Y-75910000D01*
X204075000Y-75910000D01*
X204075000Y-75610000D01*
X204375000Y-75610000D01*
G37*
G36*
X195375000Y-75310000D02*
G01*
X195375000Y-75610000D01*
X195075000Y-75610000D01*
X195075000Y-75310000D01*
X195375000Y-75310000D01*
G37*
G36*
X196875000Y-75310000D02*
G01*
X196875000Y-75610000D01*
X196575000Y-75610000D01*
X196575000Y-75310000D01*
X196875000Y-75310000D01*
G37*
G36*
X197175000Y-75310000D02*
G01*
X197175000Y-75610000D01*
X196875000Y-75610000D01*
X196875000Y-75310000D01*
X197175000Y-75310000D01*
G37*
G36*
X198075000Y-75310000D02*
G01*
X198075000Y-75610000D01*
X197775000Y-75610000D01*
X197775000Y-75310000D01*
X198075000Y-75310000D01*
G37*
G36*
X198675000Y-75310000D02*
G01*
X198675000Y-75610000D01*
X198375000Y-75610000D01*
X198375000Y-75310000D01*
X198675000Y-75310000D01*
G37*
G36*
X199875000Y-75310000D02*
G01*
X199875000Y-75610000D01*
X199575000Y-75610000D01*
X199575000Y-75310000D01*
X199875000Y-75310000D01*
G37*
G36*
X200175000Y-75310000D02*
G01*
X200175000Y-75610000D01*
X199875000Y-75610000D01*
X199875000Y-75310000D01*
X200175000Y-75310000D01*
G37*
G36*
X200775000Y-75310000D02*
G01*
X200775000Y-75610000D01*
X200475000Y-75610000D01*
X200475000Y-75310000D01*
X200775000Y-75310000D01*
G37*
G36*
X201375000Y-75310000D02*
G01*
X201375000Y-75610000D01*
X201075000Y-75610000D01*
X201075000Y-75310000D01*
X201375000Y-75310000D01*
G37*
G36*
X201675000Y-75310000D02*
G01*
X201675000Y-75610000D01*
X201375000Y-75610000D01*
X201375000Y-75310000D01*
X201675000Y-75310000D01*
G37*
G36*
X202875000Y-75310000D02*
G01*
X202875000Y-75610000D01*
X202575000Y-75610000D01*
X202575000Y-75310000D01*
X202875000Y-75310000D01*
G37*
G36*
X203175000Y-75310000D02*
G01*
X203175000Y-75610000D01*
X202875000Y-75610000D01*
X202875000Y-75310000D01*
X203175000Y-75310000D01*
G37*
G36*
X203775000Y-75310000D02*
G01*
X203775000Y-75610000D01*
X203475000Y-75610000D01*
X203475000Y-75310000D01*
X203775000Y-75310000D01*
G37*
G36*
X204375000Y-75310000D02*
G01*
X204375000Y-75610000D01*
X204075000Y-75610000D01*
X204075000Y-75310000D01*
X204375000Y-75310000D01*
G37*
G36*
X204675000Y-75310000D02*
G01*
X204675000Y-75610000D01*
X204375000Y-75610000D01*
X204375000Y-75310000D01*
X204675000Y-75310000D01*
G37*
G36*
X204975000Y-75310000D02*
G01*
X204975000Y-75610000D01*
X204675000Y-75610000D01*
X204675000Y-75310000D01*
X204975000Y-75310000D01*
G37*
G36*
X195375000Y-75010000D02*
G01*
X195375000Y-75310000D01*
X195075000Y-75310000D01*
X195075000Y-75010000D01*
X195375000Y-75010000D01*
G37*
G36*
X195975000Y-75010000D02*
G01*
X195975000Y-75310000D01*
X195675000Y-75310000D01*
X195675000Y-75010000D01*
X195975000Y-75010000D01*
G37*
G36*
X196275000Y-75010000D02*
G01*
X196275000Y-75310000D01*
X195975000Y-75310000D01*
X195975000Y-75010000D01*
X196275000Y-75010000D01*
G37*
G36*
X196575000Y-75010000D02*
G01*
X196575000Y-75310000D01*
X196275000Y-75310000D01*
X196275000Y-75010000D01*
X196575000Y-75010000D01*
G37*
G36*
X196875000Y-75010000D02*
G01*
X196875000Y-75310000D01*
X196575000Y-75310000D01*
X196575000Y-75010000D01*
X196875000Y-75010000D01*
G37*
G36*
X197475000Y-75010000D02*
G01*
X197475000Y-75310000D01*
X197175000Y-75310000D01*
X197175000Y-75010000D01*
X197475000Y-75010000D01*
G37*
G36*
X197775000Y-75010000D02*
G01*
X197775000Y-75310000D01*
X197475000Y-75310000D01*
X197475000Y-75010000D01*
X197775000Y-75010000D01*
G37*
G36*
X198375000Y-75010000D02*
G01*
X198375000Y-75310000D01*
X198075000Y-75310000D01*
X198075000Y-75010000D01*
X198375000Y-75010000D01*
G37*
G36*
X199575000Y-75010000D02*
G01*
X199575000Y-75310000D01*
X199275000Y-75310000D01*
X199275000Y-75010000D01*
X199575000Y-75010000D01*
G37*
G36*
X199875000Y-75010000D02*
G01*
X199875000Y-75310000D01*
X199575000Y-75310000D01*
X199575000Y-75010000D01*
X199875000Y-75010000D01*
G37*
G36*
X201075000Y-75010000D02*
G01*
X201075000Y-75310000D01*
X200775000Y-75310000D01*
X200775000Y-75010000D01*
X201075000Y-75010000D01*
G37*
G36*
X201375000Y-75010000D02*
G01*
X201375000Y-75310000D01*
X201075000Y-75310000D01*
X201075000Y-75010000D01*
X201375000Y-75010000D01*
G37*
G36*
X201675000Y-75010000D02*
G01*
X201675000Y-75310000D01*
X201375000Y-75310000D01*
X201375000Y-75010000D01*
X201675000Y-75010000D01*
G37*
G36*
X201975000Y-75010000D02*
G01*
X201975000Y-75310000D01*
X201675000Y-75310000D01*
X201675000Y-75010000D01*
X201975000Y-75010000D01*
G37*
G36*
X202575000Y-75010000D02*
G01*
X202575000Y-75310000D01*
X202275000Y-75310000D01*
X202275000Y-75010000D01*
X202575000Y-75010000D01*
G37*
G36*
X203175000Y-75010000D02*
G01*
X203175000Y-75310000D01*
X202875000Y-75310000D01*
X202875000Y-75010000D01*
X203175000Y-75010000D01*
G37*
G36*
X203775000Y-75010000D02*
G01*
X203775000Y-75310000D01*
X203475000Y-75310000D01*
X203475000Y-75010000D01*
X203775000Y-75010000D01*
G37*
G36*
X204075000Y-75010000D02*
G01*
X204075000Y-75310000D01*
X203775000Y-75310000D01*
X203775000Y-75010000D01*
X204075000Y-75010000D01*
G37*
G36*
X204375000Y-75010000D02*
G01*
X204375000Y-75310000D01*
X204075000Y-75310000D01*
X204075000Y-75010000D01*
X204375000Y-75010000D01*
G37*
G36*
X204975000Y-75010000D02*
G01*
X204975000Y-75310000D01*
X204675000Y-75310000D01*
X204675000Y-75010000D01*
X204975000Y-75010000D01*
G37*
G36*
X195375000Y-74710000D02*
G01*
X195375000Y-75010000D01*
X195075000Y-75010000D01*
X195075000Y-74710000D01*
X195375000Y-74710000D01*
G37*
G36*
X195975000Y-74710000D02*
G01*
X195975000Y-75010000D01*
X195675000Y-75010000D01*
X195675000Y-74710000D01*
X195975000Y-74710000D01*
G37*
G36*
X196875000Y-74710000D02*
G01*
X196875000Y-75010000D01*
X196575000Y-75010000D01*
X196575000Y-74710000D01*
X196875000Y-74710000D01*
G37*
G36*
X197175000Y-74710000D02*
G01*
X197175000Y-75010000D01*
X196875000Y-75010000D01*
X196875000Y-74710000D01*
X197175000Y-74710000D01*
G37*
G36*
X198075000Y-74710000D02*
G01*
X198075000Y-75010000D01*
X197775000Y-75010000D01*
X197775000Y-74710000D01*
X198075000Y-74710000D01*
G37*
G36*
X198675000Y-74710000D02*
G01*
X198675000Y-75010000D01*
X198375000Y-75010000D01*
X198375000Y-74710000D01*
X198675000Y-74710000D01*
G37*
G36*
X199875000Y-74710000D02*
G01*
X199875000Y-75010000D01*
X199575000Y-75010000D01*
X199575000Y-74710000D01*
X199875000Y-74710000D01*
G37*
G36*
X200775000Y-74710000D02*
G01*
X200775000Y-75010000D01*
X200475000Y-75010000D01*
X200475000Y-74710000D01*
X200775000Y-74710000D01*
G37*
G36*
X201075000Y-74710000D02*
G01*
X201075000Y-75010000D01*
X200775000Y-75010000D01*
X200775000Y-74710000D01*
X201075000Y-74710000D01*
G37*
G36*
X201675000Y-74710000D02*
G01*
X201675000Y-75010000D01*
X201375000Y-75010000D01*
X201375000Y-74710000D01*
X201675000Y-74710000D01*
G37*
G36*
X202275000Y-74710000D02*
G01*
X202275000Y-75010000D01*
X201975000Y-75010000D01*
X201975000Y-74710000D01*
X202275000Y-74710000D01*
G37*
G36*
X202575000Y-74710000D02*
G01*
X202575000Y-75010000D01*
X202275000Y-75010000D01*
X202275000Y-74710000D01*
X202575000Y-74710000D01*
G37*
G36*
X202875000Y-74710000D02*
G01*
X202875000Y-75010000D01*
X202575000Y-75010000D01*
X202575000Y-74710000D01*
X202875000Y-74710000D01*
G37*
G36*
X203175000Y-74710000D02*
G01*
X203175000Y-75010000D01*
X202875000Y-75010000D01*
X202875000Y-74710000D01*
X203175000Y-74710000D01*
G37*
G36*
X204075000Y-74710000D02*
G01*
X204075000Y-75010000D01*
X203775000Y-75010000D01*
X203775000Y-74710000D01*
X204075000Y-74710000D01*
G37*
G36*
X204675000Y-74710000D02*
G01*
X204675000Y-75010000D01*
X204375000Y-75010000D01*
X204375000Y-74710000D01*
X204675000Y-74710000D01*
G37*
G36*
X204975000Y-74710000D02*
G01*
X204975000Y-75010000D01*
X204675000Y-75010000D01*
X204675000Y-74710000D01*
X204975000Y-74710000D01*
G37*
G36*
X195675000Y-74410000D02*
G01*
X195675000Y-74710000D01*
X195375000Y-74710000D01*
X195375000Y-74410000D01*
X195675000Y-74410000D01*
G37*
G36*
X196275000Y-74410000D02*
G01*
X196275000Y-74710000D01*
X195975000Y-74710000D01*
X195975000Y-74410000D01*
X196275000Y-74410000D01*
G37*
G36*
X196575000Y-74410000D02*
G01*
X196575000Y-74710000D01*
X196275000Y-74710000D01*
X196275000Y-74410000D01*
X196575000Y-74410000D01*
G37*
G36*
X197475000Y-74410000D02*
G01*
X197475000Y-74710000D01*
X197175000Y-74710000D01*
X197175000Y-74410000D01*
X197475000Y-74410000D01*
G37*
G36*
X198375000Y-74410000D02*
G01*
X198375000Y-74710000D01*
X198075000Y-74710000D01*
X198075000Y-74410000D01*
X198375000Y-74410000D01*
G37*
G36*
X198675000Y-74410000D02*
G01*
X198675000Y-74710000D01*
X198375000Y-74710000D01*
X198375000Y-74410000D01*
X198675000Y-74410000D01*
G37*
G36*
X198975000Y-74410000D02*
G01*
X198975000Y-74710000D01*
X198675000Y-74710000D01*
X198675000Y-74410000D01*
X198975000Y-74410000D01*
G37*
G36*
X199575000Y-74410000D02*
G01*
X199575000Y-74710000D01*
X199275000Y-74710000D01*
X199275000Y-74410000D01*
X199575000Y-74410000D01*
G37*
G36*
X199875000Y-74410000D02*
G01*
X199875000Y-74710000D01*
X199575000Y-74710000D01*
X199575000Y-74410000D01*
X199875000Y-74410000D01*
G37*
G36*
X200175000Y-74410000D02*
G01*
X200175000Y-74710000D01*
X199875000Y-74710000D01*
X199875000Y-74410000D01*
X200175000Y-74410000D01*
G37*
G36*
X201375000Y-74410000D02*
G01*
X201375000Y-74710000D01*
X201075000Y-74710000D01*
X201075000Y-74410000D01*
X201375000Y-74410000D01*
G37*
G36*
X201975000Y-74410000D02*
G01*
X201975000Y-74710000D01*
X201675000Y-74710000D01*
X201675000Y-74410000D01*
X201975000Y-74410000D01*
G37*
G36*
X203475000Y-74410000D02*
G01*
X203475000Y-74710000D01*
X203175000Y-74710000D01*
X203175000Y-74410000D01*
X203475000Y-74410000D01*
G37*
G36*
X204375000Y-74410000D02*
G01*
X204375000Y-74710000D01*
X204075000Y-74710000D01*
X204075000Y-74410000D01*
X204375000Y-74410000D01*
G37*
G36*
X204675000Y-74410000D02*
G01*
X204675000Y-74710000D01*
X204375000Y-74710000D01*
X204375000Y-74410000D01*
X204675000Y-74410000D01*
G37*
G36*
X204975000Y-74410000D02*
G01*
X204975000Y-74710000D01*
X204675000Y-74710000D01*
X204675000Y-74410000D01*
X204975000Y-74410000D01*
G37*
G36*
X195675000Y-74110000D02*
G01*
X195675000Y-74410000D01*
X195375000Y-74410000D01*
X195375000Y-74110000D01*
X195675000Y-74110000D01*
G37*
G36*
X195975000Y-74110000D02*
G01*
X195975000Y-74410000D01*
X195675000Y-74410000D01*
X195675000Y-74110000D01*
X195975000Y-74110000D01*
G37*
G36*
X196275000Y-74110000D02*
G01*
X196275000Y-74410000D01*
X195975000Y-74410000D01*
X195975000Y-74110000D01*
X196275000Y-74110000D01*
G37*
G36*
X197175000Y-74110000D02*
G01*
X197175000Y-74410000D01*
X196875000Y-74410000D01*
X196875000Y-74110000D01*
X197175000Y-74110000D01*
G37*
G36*
X197475000Y-74110000D02*
G01*
X197475000Y-74410000D01*
X197175000Y-74410000D01*
X197175000Y-74110000D01*
X197475000Y-74110000D01*
G37*
G36*
X197775000Y-74110000D02*
G01*
X197775000Y-74410000D01*
X197475000Y-74410000D01*
X197475000Y-74110000D01*
X197775000Y-74110000D01*
G37*
G36*
X198375000Y-74110000D02*
G01*
X198375000Y-74410000D01*
X198075000Y-74410000D01*
X198075000Y-74110000D01*
X198375000Y-74110000D01*
G37*
G36*
X198975000Y-74110000D02*
G01*
X198975000Y-74410000D01*
X198675000Y-74410000D01*
X198675000Y-74110000D01*
X198975000Y-74110000D01*
G37*
G36*
X199275000Y-74110000D02*
G01*
X199275000Y-74410000D01*
X198975000Y-74410000D01*
X198975000Y-74110000D01*
X199275000Y-74110000D01*
G37*
G36*
X199575000Y-74110000D02*
G01*
X199575000Y-74410000D01*
X199275000Y-74410000D01*
X199275000Y-74110000D01*
X199575000Y-74110000D01*
G37*
G36*
X201075000Y-74110000D02*
G01*
X201075000Y-74410000D01*
X200775000Y-74410000D01*
X200775000Y-74110000D01*
X201075000Y-74110000D01*
G37*
G36*
X201675000Y-74110000D02*
G01*
X201675000Y-74410000D01*
X201375000Y-74410000D01*
X201375000Y-74110000D01*
X201675000Y-74110000D01*
G37*
G36*
X201975000Y-74110000D02*
G01*
X201975000Y-74410000D01*
X201675000Y-74410000D01*
X201675000Y-74110000D01*
X201975000Y-74110000D01*
G37*
G36*
X202275000Y-74110000D02*
G01*
X202275000Y-74410000D01*
X201975000Y-74410000D01*
X201975000Y-74110000D01*
X202275000Y-74110000D01*
G37*
G36*
X202575000Y-74110000D02*
G01*
X202575000Y-74410000D01*
X202275000Y-74410000D01*
X202275000Y-74110000D01*
X202575000Y-74110000D01*
G37*
G36*
X202875000Y-74110000D02*
G01*
X202875000Y-74410000D01*
X202575000Y-74410000D01*
X202575000Y-74110000D01*
X202875000Y-74110000D01*
G37*
G36*
X203175000Y-74110000D02*
G01*
X203175000Y-74410000D01*
X202875000Y-74410000D01*
X202875000Y-74110000D01*
X203175000Y-74110000D01*
G37*
G36*
X204075000Y-74110000D02*
G01*
X204075000Y-74410000D01*
X203775000Y-74410000D01*
X203775000Y-74110000D01*
X204075000Y-74110000D01*
G37*
G36*
X204375000Y-74110000D02*
G01*
X204375000Y-74410000D01*
X204075000Y-74410000D01*
X204075000Y-74110000D01*
X204375000Y-74110000D01*
G37*
G36*
X204675000Y-74110000D02*
G01*
X204675000Y-74410000D01*
X204375000Y-74410000D01*
X204375000Y-74110000D01*
X204675000Y-74110000D01*
G37*
G36*
X195375000Y-73810000D02*
G01*
X195375000Y-74110000D01*
X195075000Y-74110000D01*
X195075000Y-73810000D01*
X195375000Y-73810000D01*
G37*
G36*
X195675000Y-73810000D02*
G01*
X195675000Y-74110000D01*
X195375000Y-74110000D01*
X195375000Y-73810000D01*
X195675000Y-73810000D01*
G37*
G36*
X195975000Y-73810000D02*
G01*
X195975000Y-74110000D01*
X195675000Y-74110000D01*
X195675000Y-73810000D01*
X195975000Y-73810000D01*
G37*
G36*
X196275000Y-73810000D02*
G01*
X196275000Y-74110000D01*
X195975000Y-74110000D01*
X195975000Y-73810000D01*
X196275000Y-73810000D01*
G37*
G36*
X197775000Y-73810000D02*
G01*
X197775000Y-74110000D01*
X197475000Y-74110000D01*
X197475000Y-73810000D01*
X197775000Y-73810000D01*
G37*
G36*
X198075000Y-73810000D02*
G01*
X198075000Y-74110000D01*
X197775000Y-74110000D01*
X197775000Y-73810000D01*
X198075000Y-73810000D01*
G37*
G36*
X198675000Y-73810000D02*
G01*
X198675000Y-74110000D01*
X198375000Y-74110000D01*
X198375000Y-73810000D01*
X198675000Y-73810000D01*
G37*
G36*
X199275000Y-73810000D02*
G01*
X199275000Y-74110000D01*
X198975000Y-74110000D01*
X198975000Y-73810000D01*
X199275000Y-73810000D01*
G37*
G36*
X199575000Y-73810000D02*
G01*
X199575000Y-74110000D01*
X199275000Y-74110000D01*
X199275000Y-73810000D01*
X199575000Y-73810000D01*
G37*
G36*
X200175000Y-73810000D02*
G01*
X200175000Y-74110000D01*
X199875000Y-74110000D01*
X199875000Y-73810000D01*
X200175000Y-73810000D01*
G37*
G36*
X200775000Y-73810000D02*
G01*
X200775000Y-74110000D01*
X200475000Y-74110000D01*
X200475000Y-73810000D01*
X200775000Y-73810000D01*
G37*
G36*
X201075000Y-73810000D02*
G01*
X201075000Y-74110000D01*
X200775000Y-74110000D01*
X200775000Y-73810000D01*
X201075000Y-73810000D01*
G37*
G36*
X201375000Y-73810000D02*
G01*
X201375000Y-74110000D01*
X201075000Y-74110000D01*
X201075000Y-73810000D01*
X201375000Y-73810000D01*
G37*
G36*
X201675000Y-73810000D02*
G01*
X201675000Y-74110000D01*
X201375000Y-74110000D01*
X201375000Y-73810000D01*
X201675000Y-73810000D01*
G37*
G36*
X202275000Y-73810000D02*
G01*
X202275000Y-74110000D01*
X201975000Y-74110000D01*
X201975000Y-73810000D01*
X202275000Y-73810000D01*
G37*
G36*
X202875000Y-73810000D02*
G01*
X202875000Y-74110000D01*
X202575000Y-74110000D01*
X202575000Y-73810000D01*
X202875000Y-73810000D01*
G37*
G36*
X203175000Y-73810000D02*
G01*
X203175000Y-74110000D01*
X202875000Y-74110000D01*
X202875000Y-73810000D01*
X203175000Y-73810000D01*
G37*
G36*
X203475000Y-73810000D02*
G01*
X203475000Y-74110000D01*
X203175000Y-74110000D01*
X203175000Y-73810000D01*
X203475000Y-73810000D01*
G37*
G36*
X204375000Y-73810000D02*
G01*
X204375000Y-74110000D01*
X204075000Y-74110000D01*
X204075000Y-73810000D01*
X204375000Y-73810000D01*
G37*
G36*
X197175000Y-73510000D02*
G01*
X197175000Y-73810000D01*
X196875000Y-73810000D01*
X196875000Y-73510000D01*
X197175000Y-73510000D01*
G37*
G36*
X197475000Y-73510000D02*
G01*
X197475000Y-73810000D01*
X197175000Y-73810000D01*
X197175000Y-73510000D01*
X197475000Y-73510000D01*
G37*
G36*
X198075000Y-73510000D02*
G01*
X198075000Y-73810000D01*
X197775000Y-73810000D01*
X197775000Y-73510000D01*
X198075000Y-73510000D01*
G37*
G36*
X198375000Y-73510000D02*
G01*
X198375000Y-73810000D01*
X198075000Y-73810000D01*
X198075000Y-73510000D01*
X198375000Y-73510000D01*
G37*
G36*
X200475000Y-73510000D02*
G01*
X200475000Y-73810000D01*
X200175000Y-73810000D01*
X200175000Y-73510000D01*
X200475000Y-73510000D01*
G37*
G36*
X201075000Y-73510000D02*
G01*
X201075000Y-73810000D01*
X200775000Y-73810000D01*
X200775000Y-73510000D01*
X201075000Y-73510000D01*
G37*
G36*
X202275000Y-73510000D02*
G01*
X202275000Y-73810000D01*
X201975000Y-73810000D01*
X201975000Y-73510000D01*
X202275000Y-73510000D01*
G37*
G36*
X202875000Y-73510000D02*
G01*
X202875000Y-73810000D01*
X202575000Y-73810000D01*
X202575000Y-73510000D01*
X202875000Y-73510000D01*
G37*
G36*
X203475000Y-73510000D02*
G01*
X203475000Y-73810000D01*
X203175000Y-73810000D01*
X203175000Y-73510000D01*
X203475000Y-73510000D01*
G37*
G36*
X203775000Y-73510000D02*
G01*
X203775000Y-73810000D01*
X203475000Y-73810000D01*
X203475000Y-73510000D01*
X203775000Y-73510000D01*
G37*
G36*
X204075000Y-73510000D02*
G01*
X204075000Y-73810000D01*
X203775000Y-73810000D01*
X203775000Y-73510000D01*
X204075000Y-73510000D01*
G37*
G36*
X204375000Y-73510000D02*
G01*
X204375000Y-73810000D01*
X204075000Y-73810000D01*
X204075000Y-73510000D01*
X204375000Y-73510000D01*
G37*
G36*
X204975000Y-73510000D02*
G01*
X204975000Y-73810000D01*
X204675000Y-73810000D01*
X204675000Y-73510000D01*
X204975000Y-73510000D01*
G37*
G36*
X195375000Y-73210000D02*
G01*
X195375000Y-73510000D01*
X195075000Y-73510000D01*
X195075000Y-73210000D01*
X195375000Y-73210000D01*
G37*
G36*
X195675000Y-73210000D02*
G01*
X195675000Y-73510000D01*
X195375000Y-73510000D01*
X195375000Y-73210000D01*
X195675000Y-73210000D01*
G37*
G36*
X195975000Y-73210000D02*
G01*
X195975000Y-73510000D01*
X195675000Y-73510000D01*
X195675000Y-73210000D01*
X195975000Y-73210000D01*
G37*
G36*
X196275000Y-73210000D02*
G01*
X196275000Y-73510000D01*
X195975000Y-73510000D01*
X195975000Y-73210000D01*
X196275000Y-73210000D01*
G37*
G36*
X196575000Y-73210000D02*
G01*
X196575000Y-73510000D01*
X196275000Y-73510000D01*
X196275000Y-73210000D01*
X196575000Y-73210000D01*
G37*
G36*
X197775000Y-73210000D02*
G01*
X197775000Y-73510000D01*
X197475000Y-73510000D01*
X197475000Y-73210000D01*
X197775000Y-73210000D01*
G37*
G36*
X198075000Y-73210000D02*
G01*
X198075000Y-73510000D01*
X197775000Y-73510000D01*
X197775000Y-73210000D01*
X198075000Y-73210000D01*
G37*
G36*
X198975000Y-73210000D02*
G01*
X198975000Y-73510000D01*
X198675000Y-73510000D01*
X198675000Y-73210000D01*
X198975000Y-73210000D01*
G37*
G36*
X199275000Y-73210000D02*
G01*
X199275000Y-73510000D01*
X198975000Y-73510000D01*
X198975000Y-73210000D01*
X199275000Y-73210000D01*
G37*
G36*
X199875000Y-73210000D02*
G01*
X199875000Y-73510000D01*
X199575000Y-73510000D01*
X199575000Y-73210000D01*
X199875000Y-73210000D01*
G37*
G36*
X200175000Y-73210000D02*
G01*
X200175000Y-73510000D01*
X199875000Y-73510000D01*
X199875000Y-73210000D01*
X200175000Y-73210000D01*
G37*
G36*
X200475000Y-73210000D02*
G01*
X200475000Y-73510000D01*
X200175000Y-73510000D01*
X200175000Y-73210000D01*
X200475000Y-73210000D01*
G37*
G36*
X200775000Y-73210000D02*
G01*
X200775000Y-73510000D01*
X200475000Y-73510000D01*
X200475000Y-73210000D01*
X200775000Y-73210000D01*
G37*
G36*
X201075000Y-73210000D02*
G01*
X201075000Y-73510000D01*
X200775000Y-73510000D01*
X200775000Y-73210000D01*
X201075000Y-73210000D01*
G37*
G36*
X202275000Y-73210000D02*
G01*
X202275000Y-73510000D01*
X201975000Y-73510000D01*
X201975000Y-73210000D01*
X202275000Y-73210000D01*
G37*
G36*
X202875000Y-73210000D02*
G01*
X202875000Y-73510000D01*
X202575000Y-73510000D01*
X202575000Y-73210000D01*
X202875000Y-73210000D01*
G37*
G36*
X203175000Y-73210000D02*
G01*
X203175000Y-73510000D01*
X202875000Y-73510000D01*
X202875000Y-73210000D01*
X203175000Y-73210000D01*
G37*
G36*
X203475000Y-73210000D02*
G01*
X203475000Y-73510000D01*
X203175000Y-73510000D01*
X203175000Y-73210000D01*
X203475000Y-73210000D01*
G37*
G36*
X204075000Y-73210000D02*
G01*
X204075000Y-73510000D01*
X203775000Y-73510000D01*
X203775000Y-73210000D01*
X204075000Y-73210000D01*
G37*
G36*
X204375000Y-73210000D02*
G01*
X204375000Y-73510000D01*
X204075000Y-73510000D01*
X204075000Y-73210000D01*
X204375000Y-73210000D01*
G37*
G36*
X204675000Y-73210000D02*
G01*
X204675000Y-73510000D01*
X204375000Y-73510000D01*
X204375000Y-73210000D01*
X204675000Y-73210000D01*
G37*
G36*
X195375000Y-72910000D02*
G01*
X195375000Y-73210000D01*
X195075000Y-73210000D01*
X195075000Y-72910000D01*
X195375000Y-72910000D01*
G37*
G36*
X195975000Y-72910000D02*
G01*
X195975000Y-73210000D01*
X195675000Y-73210000D01*
X195675000Y-72910000D01*
X195975000Y-72910000D01*
G37*
G36*
X196575000Y-72910000D02*
G01*
X196575000Y-73210000D01*
X196275000Y-73210000D01*
X196275000Y-72910000D01*
X196575000Y-72910000D01*
G37*
G36*
X196875000Y-72910000D02*
G01*
X196875000Y-73210000D01*
X196575000Y-73210000D01*
X196575000Y-72910000D01*
X196875000Y-72910000D01*
G37*
G36*
X197175000Y-72910000D02*
G01*
X197175000Y-73210000D01*
X196875000Y-73210000D01*
X196875000Y-72910000D01*
X197175000Y-72910000D01*
G37*
G36*
X197775000Y-72910000D02*
G01*
X197775000Y-73210000D01*
X197475000Y-73210000D01*
X197475000Y-72910000D01*
X197775000Y-72910000D01*
G37*
G36*
X198075000Y-72910000D02*
G01*
X198075000Y-73210000D01*
X197775000Y-73210000D01*
X197775000Y-72910000D01*
X198075000Y-72910000D01*
G37*
G36*
X198375000Y-72910000D02*
G01*
X198375000Y-73210000D01*
X198075000Y-73210000D01*
X198075000Y-72910000D01*
X198375000Y-72910000D01*
G37*
G36*
X198675000Y-72910000D02*
G01*
X198675000Y-73210000D01*
X198375000Y-73210000D01*
X198375000Y-72910000D01*
X198675000Y-72910000D01*
G37*
G36*
X198975000Y-72910000D02*
G01*
X198975000Y-73210000D01*
X198675000Y-73210000D01*
X198675000Y-72910000D01*
X198975000Y-72910000D01*
G37*
G36*
X199275000Y-72910000D02*
G01*
X199275000Y-73210000D01*
X198975000Y-73210000D01*
X198975000Y-72910000D01*
X199275000Y-72910000D01*
G37*
G36*
X200475000Y-72910000D02*
G01*
X200475000Y-73210000D01*
X200175000Y-73210000D01*
X200175000Y-72910000D01*
X200475000Y-72910000D01*
G37*
G36*
X201375000Y-72910000D02*
G01*
X201375000Y-73210000D01*
X201075000Y-73210000D01*
X201075000Y-72910000D01*
X201375000Y-72910000D01*
G37*
G36*
X201975000Y-72910000D02*
G01*
X201975000Y-73210000D01*
X201675000Y-73210000D01*
X201675000Y-72910000D01*
X201975000Y-72910000D01*
G37*
G36*
X202575000Y-72910000D02*
G01*
X202575000Y-73210000D01*
X202275000Y-73210000D01*
X202275000Y-72910000D01*
X202575000Y-72910000D01*
G37*
G36*
X203475000Y-72910000D02*
G01*
X203475000Y-73210000D01*
X203175000Y-73210000D01*
X203175000Y-72910000D01*
X203475000Y-72910000D01*
G37*
G36*
X203775000Y-72910000D02*
G01*
X203775000Y-73210000D01*
X203475000Y-73210000D01*
X203475000Y-72910000D01*
X203775000Y-72910000D01*
G37*
G36*
X204375000Y-72910000D02*
G01*
X204375000Y-73210000D01*
X204075000Y-73210000D01*
X204075000Y-72910000D01*
X204375000Y-72910000D01*
G37*
G36*
X195975000Y-72610000D02*
G01*
X195975000Y-72910000D01*
X195675000Y-72910000D01*
X195675000Y-72610000D01*
X195975000Y-72610000D01*
G37*
G36*
X197475000Y-72610000D02*
G01*
X197475000Y-72910000D01*
X197175000Y-72910000D01*
X197175000Y-72610000D01*
X197475000Y-72610000D01*
G37*
G36*
X198075000Y-72610000D02*
G01*
X198075000Y-72910000D01*
X197775000Y-72910000D01*
X197775000Y-72610000D01*
X198075000Y-72610000D01*
G37*
G36*
X198375000Y-72610000D02*
G01*
X198375000Y-72910000D01*
X198075000Y-72910000D01*
X198075000Y-72610000D01*
X198375000Y-72610000D01*
G37*
G36*
X199275000Y-72610000D02*
G01*
X199275000Y-72910000D01*
X198975000Y-72910000D01*
X198975000Y-72610000D01*
X199275000Y-72610000D01*
G37*
G36*
X200175000Y-72610000D02*
G01*
X200175000Y-72910000D01*
X199875000Y-72910000D01*
X199875000Y-72610000D01*
X200175000Y-72610000D01*
G37*
G36*
X200475000Y-72610000D02*
G01*
X200475000Y-72910000D01*
X200175000Y-72910000D01*
X200175000Y-72610000D01*
X200475000Y-72610000D01*
G37*
G36*
X200775000Y-72610000D02*
G01*
X200775000Y-72910000D01*
X200475000Y-72910000D01*
X200475000Y-72610000D01*
X200775000Y-72610000D01*
G37*
G36*
X201375000Y-72610000D02*
G01*
X201375000Y-72910000D01*
X201075000Y-72910000D01*
X201075000Y-72610000D01*
X201375000Y-72610000D01*
G37*
G36*
X202275000Y-72610000D02*
G01*
X202275000Y-72910000D01*
X201975000Y-72910000D01*
X201975000Y-72610000D01*
X202275000Y-72610000D01*
G37*
G36*
X202875000Y-72610000D02*
G01*
X202875000Y-72910000D01*
X202575000Y-72910000D01*
X202575000Y-72610000D01*
X202875000Y-72610000D01*
G37*
G36*
X203475000Y-72610000D02*
G01*
X203475000Y-72910000D01*
X203175000Y-72910000D01*
X203175000Y-72610000D01*
X203475000Y-72610000D01*
G37*
G36*
X203775000Y-72610000D02*
G01*
X203775000Y-72910000D01*
X203475000Y-72910000D01*
X203475000Y-72610000D01*
X203775000Y-72610000D01*
G37*
G36*
X204075000Y-72610000D02*
G01*
X204075000Y-72910000D01*
X203775000Y-72910000D01*
X203775000Y-72610000D01*
X204075000Y-72610000D01*
G37*
G36*
X204375000Y-72610000D02*
G01*
X204375000Y-72910000D01*
X204075000Y-72910000D01*
X204075000Y-72610000D01*
X204375000Y-72610000D01*
G37*
G36*
X204675000Y-72610000D02*
G01*
X204675000Y-72910000D01*
X204375000Y-72910000D01*
X204375000Y-72610000D01*
X204675000Y-72610000D01*
G37*
G36*
X195375000Y-72310000D02*
G01*
X195375000Y-72610000D01*
X195075000Y-72610000D01*
X195075000Y-72310000D01*
X195375000Y-72310000D01*
G37*
G36*
X195975000Y-72310000D02*
G01*
X195975000Y-72610000D01*
X195675000Y-72610000D01*
X195675000Y-72310000D01*
X195975000Y-72310000D01*
G37*
G36*
X196575000Y-72310000D02*
G01*
X196575000Y-72610000D01*
X196275000Y-72610000D01*
X196275000Y-72310000D01*
X196575000Y-72310000D01*
G37*
G36*
X196875000Y-72310000D02*
G01*
X196875000Y-72610000D01*
X196575000Y-72610000D01*
X196575000Y-72310000D01*
X196875000Y-72310000D01*
G37*
G36*
X197175000Y-72310000D02*
G01*
X197175000Y-72610000D01*
X196875000Y-72610000D01*
X196875000Y-72310000D01*
X197175000Y-72310000D01*
G37*
G36*
X197475000Y-72310000D02*
G01*
X197475000Y-72610000D01*
X197175000Y-72610000D01*
X197175000Y-72310000D01*
X197475000Y-72310000D01*
G37*
G36*
X198075000Y-72310000D02*
G01*
X198075000Y-72610000D01*
X197775000Y-72610000D01*
X197775000Y-72310000D01*
X198075000Y-72310000D01*
G37*
G36*
X198675000Y-72310000D02*
G01*
X198675000Y-72610000D01*
X198375000Y-72610000D01*
X198375000Y-72310000D01*
X198675000Y-72310000D01*
G37*
G36*
X198975000Y-72310000D02*
G01*
X198975000Y-72610000D01*
X198675000Y-72610000D01*
X198675000Y-72310000D01*
X198975000Y-72310000D01*
G37*
G36*
X200175000Y-72310000D02*
G01*
X200175000Y-72610000D01*
X199875000Y-72610000D01*
X199875000Y-72310000D01*
X200175000Y-72310000D01*
G37*
G36*
X201075000Y-72310000D02*
G01*
X201075000Y-72610000D01*
X200775000Y-72610000D01*
X200775000Y-72310000D01*
X201075000Y-72310000D01*
G37*
G36*
X201375000Y-72310000D02*
G01*
X201375000Y-72610000D01*
X201075000Y-72610000D01*
X201075000Y-72310000D01*
X201375000Y-72310000D01*
G37*
G36*
X201675000Y-72310000D02*
G01*
X201675000Y-72610000D01*
X201375000Y-72610000D01*
X201375000Y-72310000D01*
X201675000Y-72310000D01*
G37*
G36*
X201975000Y-72310000D02*
G01*
X201975000Y-72610000D01*
X201675000Y-72610000D01*
X201675000Y-72310000D01*
X201975000Y-72310000D01*
G37*
G36*
X202275000Y-72310000D02*
G01*
X202275000Y-72610000D01*
X201975000Y-72610000D01*
X201975000Y-72310000D01*
X202275000Y-72310000D01*
G37*
G36*
X203475000Y-72310000D02*
G01*
X203475000Y-72610000D01*
X203175000Y-72610000D01*
X203175000Y-72310000D01*
X203475000Y-72310000D01*
G37*
G36*
X204075000Y-72310000D02*
G01*
X204075000Y-72610000D01*
X203775000Y-72610000D01*
X203775000Y-72310000D01*
X204075000Y-72310000D01*
G37*
G36*
X195375000Y-72010000D02*
G01*
X195375000Y-72310000D01*
X195075000Y-72310000D01*
X195075000Y-72010000D01*
X195375000Y-72010000D01*
G37*
G36*
X195975000Y-72010000D02*
G01*
X195975000Y-72310000D01*
X195675000Y-72310000D01*
X195675000Y-72010000D01*
X195975000Y-72010000D01*
G37*
G36*
X196575000Y-72010000D02*
G01*
X196575000Y-72310000D01*
X196275000Y-72310000D01*
X196275000Y-72010000D01*
X196575000Y-72010000D01*
G37*
G36*
X197475000Y-72010000D02*
G01*
X197475000Y-72310000D01*
X197175000Y-72310000D01*
X197175000Y-72010000D01*
X197475000Y-72010000D01*
G37*
G36*
X197775000Y-72010000D02*
G01*
X197775000Y-72310000D01*
X197475000Y-72310000D01*
X197475000Y-72010000D01*
X197775000Y-72010000D01*
G37*
G36*
X198075000Y-72010000D02*
G01*
X198075000Y-72310000D01*
X197775000Y-72310000D01*
X197775000Y-72010000D01*
X198075000Y-72010000D01*
G37*
G36*
X198975000Y-72010000D02*
G01*
X198975000Y-72310000D01*
X198675000Y-72310000D01*
X198675000Y-72010000D01*
X198975000Y-72010000D01*
G37*
G36*
X199275000Y-72010000D02*
G01*
X199275000Y-72310000D01*
X198975000Y-72310000D01*
X198975000Y-72010000D01*
X199275000Y-72010000D01*
G37*
G36*
X199875000Y-72010000D02*
G01*
X199875000Y-72310000D01*
X199575000Y-72310000D01*
X199575000Y-72010000D01*
X199875000Y-72010000D01*
G37*
G36*
X200775000Y-72010000D02*
G01*
X200775000Y-72310000D01*
X200475000Y-72310000D01*
X200475000Y-72010000D01*
X200775000Y-72010000D01*
G37*
G36*
X202575000Y-72010000D02*
G01*
X202575000Y-72310000D01*
X202275000Y-72310000D01*
X202275000Y-72010000D01*
X202575000Y-72010000D01*
G37*
G36*
X202875000Y-72010000D02*
G01*
X202875000Y-72310000D01*
X202575000Y-72310000D01*
X202575000Y-72010000D01*
X202875000Y-72010000D01*
G37*
G36*
X203775000Y-72010000D02*
G01*
X203775000Y-72310000D01*
X203475000Y-72310000D01*
X203475000Y-72010000D01*
X203775000Y-72010000D01*
G37*
G36*
X204075000Y-72010000D02*
G01*
X204075000Y-72310000D01*
X203775000Y-72310000D01*
X203775000Y-72010000D01*
X204075000Y-72010000D01*
G37*
G36*
X204975000Y-72010000D02*
G01*
X204975000Y-72310000D01*
X204675000Y-72310000D01*
X204675000Y-72010000D01*
X204975000Y-72010000D01*
G37*
G36*
X195375000Y-71710000D02*
G01*
X195375000Y-72010000D01*
X195075000Y-72010000D01*
X195075000Y-71710000D01*
X195375000Y-71710000D01*
G37*
G36*
X195975000Y-71710000D02*
G01*
X195975000Y-72010000D01*
X195675000Y-72010000D01*
X195675000Y-71710000D01*
X195975000Y-71710000D01*
G37*
G36*
X196575000Y-71710000D02*
G01*
X196575000Y-72010000D01*
X196275000Y-72010000D01*
X196275000Y-71710000D01*
X196575000Y-71710000D01*
G37*
G36*
X197175000Y-71710000D02*
G01*
X197175000Y-72010000D01*
X196875000Y-72010000D01*
X196875000Y-71710000D01*
X197175000Y-71710000D01*
G37*
G36*
X197475000Y-71710000D02*
G01*
X197475000Y-72010000D01*
X197175000Y-72010000D01*
X197175000Y-71710000D01*
X197475000Y-71710000D01*
G37*
G36*
X198075000Y-71710000D02*
G01*
X198075000Y-72010000D01*
X197775000Y-72010000D01*
X197775000Y-71710000D01*
X198075000Y-71710000D01*
G37*
G36*
X198375000Y-71710000D02*
G01*
X198375000Y-72010000D01*
X198075000Y-72010000D01*
X198075000Y-71710000D01*
X198375000Y-71710000D01*
G37*
G36*
X198675000Y-71710000D02*
G01*
X198675000Y-72010000D01*
X198375000Y-72010000D01*
X198375000Y-71710000D01*
X198675000Y-71710000D01*
G37*
G36*
X198975000Y-71710000D02*
G01*
X198975000Y-72010000D01*
X198675000Y-72010000D01*
X198675000Y-71710000D01*
X198975000Y-71710000D01*
G37*
G36*
X199275000Y-71710000D02*
G01*
X199275000Y-72010000D01*
X198975000Y-72010000D01*
X198975000Y-71710000D01*
X199275000Y-71710000D01*
G37*
G36*
X199575000Y-71710000D02*
G01*
X199575000Y-72010000D01*
X199275000Y-72010000D01*
X199275000Y-71710000D01*
X199575000Y-71710000D01*
G37*
G36*
X199875000Y-71710000D02*
G01*
X199875000Y-72010000D01*
X199575000Y-72010000D01*
X199575000Y-71710000D01*
X199875000Y-71710000D01*
G37*
G36*
X200175000Y-71710000D02*
G01*
X200175000Y-72010000D01*
X199875000Y-72010000D01*
X199875000Y-71710000D01*
X200175000Y-71710000D01*
G37*
G36*
X200475000Y-71710000D02*
G01*
X200475000Y-72010000D01*
X200175000Y-72010000D01*
X200175000Y-71710000D01*
X200475000Y-71710000D01*
G37*
G36*
X200775000Y-71710000D02*
G01*
X200775000Y-72010000D01*
X200475000Y-72010000D01*
X200475000Y-71710000D01*
X200775000Y-71710000D01*
G37*
G36*
X201375000Y-71710000D02*
G01*
X201375000Y-72010000D01*
X201075000Y-72010000D01*
X201075000Y-71710000D01*
X201375000Y-71710000D01*
G37*
G36*
X201975000Y-71710000D02*
G01*
X201975000Y-72010000D01*
X201675000Y-72010000D01*
X201675000Y-71710000D01*
X201975000Y-71710000D01*
G37*
G36*
X202875000Y-71710000D02*
G01*
X202875000Y-72010000D01*
X202575000Y-72010000D01*
X202575000Y-71710000D01*
X202875000Y-71710000D01*
G37*
G36*
X203475000Y-71710000D02*
G01*
X203475000Y-72010000D01*
X203175000Y-72010000D01*
X203175000Y-71710000D01*
X203475000Y-71710000D01*
G37*
G36*
X203775000Y-71710000D02*
G01*
X203775000Y-72010000D01*
X203475000Y-72010000D01*
X203475000Y-71710000D01*
X203775000Y-71710000D01*
G37*
G36*
X204675000Y-71710000D02*
G01*
X204675000Y-72010000D01*
X204375000Y-72010000D01*
X204375000Y-71710000D01*
X204675000Y-71710000D01*
G37*
G36*
X195375000Y-71410000D02*
G01*
X195375000Y-71710000D01*
X195075000Y-71710000D01*
X195075000Y-71410000D01*
X195375000Y-71410000D01*
G37*
G36*
X195975000Y-71410000D02*
G01*
X195975000Y-71710000D01*
X195675000Y-71710000D01*
X195675000Y-71410000D01*
X195975000Y-71410000D01*
G37*
G36*
X198075000Y-71410000D02*
G01*
X198075000Y-71710000D01*
X197775000Y-71710000D01*
X197775000Y-71410000D01*
X198075000Y-71410000D01*
G37*
G36*
X198675000Y-71410000D02*
G01*
X198675000Y-71710000D01*
X198375000Y-71710000D01*
X198375000Y-71410000D01*
X198675000Y-71410000D01*
G37*
G36*
X198975000Y-71410000D02*
G01*
X198975000Y-71710000D01*
X198675000Y-71710000D01*
X198675000Y-71410000D01*
X198975000Y-71410000D01*
G37*
G36*
X199575000Y-71410000D02*
G01*
X199575000Y-71710000D01*
X199275000Y-71710000D01*
X199275000Y-71410000D01*
X199575000Y-71410000D01*
G37*
G36*
X199875000Y-71410000D02*
G01*
X199875000Y-71710000D01*
X199575000Y-71710000D01*
X199575000Y-71410000D01*
X199875000Y-71410000D01*
G37*
G36*
X200775000Y-71410000D02*
G01*
X200775000Y-71710000D01*
X200475000Y-71710000D01*
X200475000Y-71410000D01*
X200775000Y-71410000D01*
G37*
G36*
X201675000Y-71410000D02*
G01*
X201675000Y-71710000D01*
X201375000Y-71710000D01*
X201375000Y-71410000D01*
X201675000Y-71410000D01*
G37*
G36*
X202575000Y-71410000D02*
G01*
X202575000Y-71710000D01*
X202275000Y-71710000D01*
X202275000Y-71410000D01*
X202575000Y-71410000D01*
G37*
G36*
X203775000Y-71410000D02*
G01*
X203775000Y-71710000D01*
X203475000Y-71710000D01*
X203475000Y-71410000D01*
X203775000Y-71410000D01*
G37*
G36*
X204075000Y-71410000D02*
G01*
X204075000Y-71710000D01*
X203775000Y-71710000D01*
X203775000Y-71410000D01*
X204075000Y-71410000D01*
G37*
G36*
X204975000Y-71410000D02*
G01*
X204975000Y-71710000D01*
X204675000Y-71710000D01*
X204675000Y-71410000D01*
X204975000Y-71410000D01*
G37*
G36*
X195375000Y-71110000D02*
G01*
X195375000Y-71410000D01*
X195075000Y-71410000D01*
X195075000Y-71110000D01*
X195375000Y-71110000D01*
G37*
G36*
X195975000Y-71110000D02*
G01*
X195975000Y-71410000D01*
X195675000Y-71410000D01*
X195675000Y-71110000D01*
X195975000Y-71110000D01*
G37*
G36*
X196275000Y-71110000D02*
G01*
X196275000Y-71410000D01*
X195975000Y-71410000D01*
X195975000Y-71110000D01*
X196275000Y-71110000D01*
G37*
G36*
X196575000Y-71110000D02*
G01*
X196575000Y-71410000D01*
X196275000Y-71410000D01*
X196275000Y-71110000D01*
X196575000Y-71110000D01*
G37*
G36*
X196875000Y-71110000D02*
G01*
X196875000Y-71410000D01*
X196575000Y-71410000D01*
X196575000Y-71110000D01*
X196875000Y-71110000D01*
G37*
G36*
X197175000Y-71110000D02*
G01*
X197175000Y-71410000D01*
X196875000Y-71410000D01*
X196875000Y-71110000D01*
X197175000Y-71110000D01*
G37*
G36*
X198075000Y-71110000D02*
G01*
X198075000Y-71410000D01*
X197775000Y-71410000D01*
X197775000Y-71110000D01*
X198075000Y-71110000D01*
G37*
G36*
X198375000Y-71110000D02*
G01*
X198375000Y-71410000D01*
X198075000Y-71410000D01*
X198075000Y-71110000D01*
X198375000Y-71110000D01*
G37*
G36*
X198675000Y-71110000D02*
G01*
X198675000Y-71410000D01*
X198375000Y-71410000D01*
X198375000Y-71110000D01*
X198675000Y-71110000D01*
G37*
G36*
X199275000Y-71110000D02*
G01*
X199275000Y-71410000D01*
X198975000Y-71410000D01*
X198975000Y-71110000D01*
X199275000Y-71110000D01*
G37*
G36*
X199575000Y-71110000D02*
G01*
X199575000Y-71410000D01*
X199275000Y-71410000D01*
X199275000Y-71110000D01*
X199575000Y-71110000D01*
G37*
G36*
X199875000Y-71110000D02*
G01*
X199875000Y-71410000D01*
X199575000Y-71410000D01*
X199575000Y-71110000D01*
X199875000Y-71110000D01*
G37*
G36*
X200475000Y-71110000D02*
G01*
X200475000Y-71410000D01*
X200175000Y-71410000D01*
X200175000Y-71110000D01*
X200475000Y-71110000D01*
G37*
G36*
X201975000Y-71110000D02*
G01*
X201975000Y-71410000D01*
X201675000Y-71410000D01*
X201675000Y-71110000D01*
X201975000Y-71110000D01*
G37*
G36*
X202575000Y-71110000D02*
G01*
X202575000Y-71410000D01*
X202275000Y-71410000D01*
X202275000Y-71110000D01*
X202575000Y-71110000D01*
G37*
G36*
X202875000Y-71110000D02*
G01*
X202875000Y-71410000D01*
X202575000Y-71410000D01*
X202575000Y-71110000D01*
X202875000Y-71110000D01*
G37*
G36*
X203175000Y-71110000D02*
G01*
X203175000Y-71410000D01*
X202875000Y-71410000D01*
X202875000Y-71110000D01*
X203175000Y-71110000D01*
G37*
G36*
X203475000Y-71110000D02*
G01*
X203475000Y-71410000D01*
X203175000Y-71410000D01*
X203175000Y-71110000D01*
X203475000Y-71110000D01*
G37*
G36*
X203775000Y-71110000D02*
G01*
X203775000Y-71410000D01*
X203475000Y-71410000D01*
X203475000Y-71110000D01*
X203775000Y-71110000D01*
G37*
G36*
X204375000Y-71110000D02*
G01*
X204375000Y-71410000D01*
X204075000Y-71410000D01*
X204075000Y-71110000D01*
X204375000Y-71110000D01*
G37*
G36*
X204975000Y-71110000D02*
G01*
X204975000Y-71410000D01*
X204675000Y-71410000D01*
X204675000Y-71110000D01*
X204975000Y-71110000D01*
G37*
G36*
X197775000Y-70810000D02*
G01*
X197775000Y-71110000D01*
X197475000Y-71110000D01*
X197475000Y-70810000D01*
X197775000Y-70810000D01*
G37*
G36*
X198075000Y-70810000D02*
G01*
X198075000Y-71110000D01*
X197775000Y-71110000D01*
X197775000Y-70810000D01*
X198075000Y-70810000D01*
G37*
G36*
X198375000Y-70810000D02*
G01*
X198375000Y-71110000D01*
X198075000Y-71110000D01*
X198075000Y-70810000D01*
X198375000Y-70810000D01*
G37*
G36*
X198675000Y-70810000D02*
G01*
X198675000Y-71110000D01*
X198375000Y-71110000D01*
X198375000Y-70810000D01*
X198675000Y-70810000D01*
G37*
G36*
X198975000Y-70810000D02*
G01*
X198975000Y-71110000D01*
X198675000Y-71110000D01*
X198675000Y-70810000D01*
X198975000Y-70810000D01*
G37*
G36*
X199275000Y-70810000D02*
G01*
X199275000Y-71110000D01*
X198975000Y-71110000D01*
X198975000Y-70810000D01*
X199275000Y-70810000D01*
G37*
G36*
X199575000Y-70810000D02*
G01*
X199575000Y-71110000D01*
X199275000Y-71110000D01*
X199275000Y-70810000D01*
X199575000Y-70810000D01*
G37*
G36*
X199875000Y-70810000D02*
G01*
X199875000Y-71110000D01*
X199575000Y-71110000D01*
X199575000Y-70810000D01*
X199875000Y-70810000D01*
G37*
G36*
X200775000Y-70810000D02*
G01*
X200775000Y-71110000D01*
X200475000Y-71110000D01*
X200475000Y-70810000D01*
X200775000Y-70810000D01*
G37*
G36*
X201075000Y-70810000D02*
G01*
X201075000Y-71110000D01*
X200775000Y-71110000D01*
X200775000Y-70810000D01*
X201075000Y-70810000D01*
G37*
G36*
X201375000Y-70810000D02*
G01*
X201375000Y-71110000D01*
X201075000Y-71110000D01*
X201075000Y-70810000D01*
X201375000Y-70810000D01*
G37*
G36*
X201675000Y-70810000D02*
G01*
X201675000Y-71110000D01*
X201375000Y-71110000D01*
X201375000Y-70810000D01*
X201675000Y-70810000D01*
G37*
G36*
X202575000Y-70810000D02*
G01*
X202575000Y-71110000D01*
X202275000Y-71110000D01*
X202275000Y-70810000D01*
X202575000Y-70810000D01*
G37*
G36*
X203775000Y-70810000D02*
G01*
X203775000Y-71110000D01*
X203475000Y-71110000D01*
X203475000Y-70810000D01*
X203775000Y-70810000D01*
G37*
G36*
X204375000Y-70810000D02*
G01*
X204375000Y-71110000D01*
X204075000Y-71110000D01*
X204075000Y-70810000D01*
X204375000Y-70810000D01*
G37*
G36*
X195375000Y-70510000D02*
G01*
X195375000Y-70810000D01*
X195075000Y-70810000D01*
X195075000Y-70510000D01*
X195375000Y-70510000D01*
G37*
G36*
X195675000Y-70510000D02*
G01*
X195675000Y-70810000D01*
X195375000Y-70810000D01*
X195375000Y-70510000D01*
X195675000Y-70510000D01*
G37*
G36*
X195975000Y-70510000D02*
G01*
X195975000Y-70810000D01*
X195675000Y-70810000D01*
X195675000Y-70510000D01*
X195975000Y-70510000D01*
G37*
G36*
X196275000Y-70510000D02*
G01*
X196275000Y-70810000D01*
X195975000Y-70810000D01*
X195975000Y-70510000D01*
X196275000Y-70510000D01*
G37*
G36*
X196575000Y-70510000D02*
G01*
X196575000Y-70810000D01*
X196275000Y-70810000D01*
X196275000Y-70510000D01*
X196575000Y-70510000D01*
G37*
G36*
X196875000Y-70510000D02*
G01*
X196875000Y-70810000D01*
X196575000Y-70810000D01*
X196575000Y-70510000D01*
X196875000Y-70510000D01*
G37*
G36*
X197175000Y-70510000D02*
G01*
X197175000Y-70810000D01*
X196875000Y-70810000D01*
X196875000Y-70510000D01*
X197175000Y-70510000D01*
G37*
G36*
X198075000Y-70510000D02*
G01*
X198075000Y-70810000D01*
X197775000Y-70810000D01*
X197775000Y-70510000D01*
X198075000Y-70510000D01*
G37*
G36*
X198975000Y-70510000D02*
G01*
X198975000Y-70810000D01*
X198675000Y-70810000D01*
X198675000Y-70510000D01*
X198975000Y-70510000D01*
G37*
G36*
X199875000Y-70510000D02*
G01*
X199875000Y-70810000D01*
X199575000Y-70810000D01*
X199575000Y-70510000D01*
X199875000Y-70510000D01*
G37*
G36*
X200175000Y-70510000D02*
G01*
X200175000Y-70810000D01*
X199875000Y-70810000D01*
X199875000Y-70510000D01*
X200175000Y-70510000D01*
G37*
G36*
X200775000Y-70510000D02*
G01*
X200775000Y-70810000D01*
X200475000Y-70810000D01*
X200475000Y-70510000D01*
X200775000Y-70510000D01*
G37*
G36*
X201375000Y-70510000D02*
G01*
X201375000Y-70810000D01*
X201075000Y-70810000D01*
X201075000Y-70510000D01*
X201375000Y-70510000D01*
G37*
G36*
X201675000Y-70510000D02*
G01*
X201675000Y-70810000D01*
X201375000Y-70810000D01*
X201375000Y-70510000D01*
X201675000Y-70510000D01*
G37*
G36*
X202275000Y-70510000D02*
G01*
X202275000Y-70810000D01*
X201975000Y-70810000D01*
X201975000Y-70510000D01*
X202275000Y-70510000D01*
G37*
G36*
X202575000Y-70510000D02*
G01*
X202575000Y-70810000D01*
X202275000Y-70810000D01*
X202275000Y-70510000D01*
X202575000Y-70510000D01*
G37*
G36*
X203175000Y-70510000D02*
G01*
X203175000Y-70810000D01*
X202875000Y-70810000D01*
X202875000Y-70510000D01*
X203175000Y-70510000D01*
G37*
G36*
X203775000Y-70510000D02*
G01*
X203775000Y-70810000D01*
X203475000Y-70810000D01*
X203475000Y-70510000D01*
X203775000Y-70510000D01*
G37*
G36*
X204375000Y-70510000D02*
G01*
X204375000Y-70810000D01*
X204075000Y-70810000D01*
X204075000Y-70510000D01*
X204375000Y-70510000D01*
G37*
G36*
X204675000Y-70510000D02*
G01*
X204675000Y-70810000D01*
X204375000Y-70810000D01*
X204375000Y-70510000D01*
X204675000Y-70510000D01*
G37*
G36*
X204975000Y-70510000D02*
G01*
X204975000Y-70810000D01*
X204675000Y-70810000D01*
X204675000Y-70510000D01*
X204975000Y-70510000D01*
G37*
G36*
X195375000Y-70210000D02*
G01*
X195375000Y-70510000D01*
X195075000Y-70510000D01*
X195075000Y-70210000D01*
X195375000Y-70210000D01*
G37*
G36*
X197175000Y-70210000D02*
G01*
X197175000Y-70510000D01*
X196875000Y-70510000D01*
X196875000Y-70210000D01*
X197175000Y-70210000D01*
G37*
G36*
X197775000Y-70210000D02*
G01*
X197775000Y-70510000D01*
X197475000Y-70510000D01*
X197475000Y-70210000D01*
X197775000Y-70210000D01*
G37*
G36*
X198975000Y-70210000D02*
G01*
X198975000Y-70510000D01*
X198675000Y-70510000D01*
X198675000Y-70210000D01*
X198975000Y-70210000D01*
G37*
G36*
X199275000Y-70210000D02*
G01*
X199275000Y-70510000D01*
X198975000Y-70510000D01*
X198975000Y-70210000D01*
X199275000Y-70210000D01*
G37*
G36*
X199575000Y-70210000D02*
G01*
X199575000Y-70510000D01*
X199275000Y-70510000D01*
X199275000Y-70210000D01*
X199575000Y-70210000D01*
G37*
G36*
X201075000Y-70210000D02*
G01*
X201075000Y-70510000D01*
X200775000Y-70510000D01*
X200775000Y-70210000D01*
X201075000Y-70210000D01*
G37*
G36*
X201375000Y-70210000D02*
G01*
X201375000Y-70510000D01*
X201075000Y-70510000D01*
X201075000Y-70210000D01*
X201375000Y-70210000D01*
G37*
G36*
X201675000Y-70210000D02*
G01*
X201675000Y-70510000D01*
X201375000Y-70510000D01*
X201375000Y-70210000D01*
X201675000Y-70210000D01*
G37*
G36*
X201975000Y-70210000D02*
G01*
X201975000Y-70510000D01*
X201675000Y-70510000D01*
X201675000Y-70210000D01*
X201975000Y-70210000D01*
G37*
G36*
X202275000Y-70210000D02*
G01*
X202275000Y-70510000D01*
X201975000Y-70510000D01*
X201975000Y-70210000D01*
X202275000Y-70210000D01*
G37*
G36*
X202575000Y-70210000D02*
G01*
X202575000Y-70510000D01*
X202275000Y-70510000D01*
X202275000Y-70210000D01*
X202575000Y-70210000D01*
G37*
G36*
X203775000Y-70210000D02*
G01*
X203775000Y-70510000D01*
X203475000Y-70510000D01*
X203475000Y-70210000D01*
X203775000Y-70210000D01*
G37*
G36*
X204075000Y-70210000D02*
G01*
X204075000Y-70510000D01*
X203775000Y-70510000D01*
X203775000Y-70210000D01*
X204075000Y-70210000D01*
G37*
G36*
X204375000Y-70210000D02*
G01*
X204375000Y-70510000D01*
X204075000Y-70510000D01*
X204075000Y-70210000D01*
X204375000Y-70210000D01*
G37*
G36*
X204975000Y-70210000D02*
G01*
X204975000Y-70510000D01*
X204675000Y-70510000D01*
X204675000Y-70210000D01*
X204975000Y-70210000D01*
G37*
G36*
X195375000Y-69910000D02*
G01*
X195375000Y-70210000D01*
X195075000Y-70210000D01*
X195075000Y-69910000D01*
X195375000Y-69910000D01*
G37*
G36*
X195975000Y-69910000D02*
G01*
X195975000Y-70210000D01*
X195675000Y-70210000D01*
X195675000Y-69910000D01*
X195975000Y-69910000D01*
G37*
G36*
X196275000Y-69910000D02*
G01*
X196275000Y-70210000D01*
X195975000Y-70210000D01*
X195975000Y-69910000D01*
X196275000Y-69910000D01*
G37*
G36*
X196575000Y-69910000D02*
G01*
X196575000Y-70210000D01*
X196275000Y-70210000D01*
X196275000Y-69910000D01*
X196575000Y-69910000D01*
G37*
G36*
X197175000Y-69910000D02*
G01*
X197175000Y-70210000D01*
X196875000Y-70210000D01*
X196875000Y-69910000D01*
X197175000Y-69910000D01*
G37*
G36*
X197775000Y-69910000D02*
G01*
X197775000Y-70210000D01*
X197475000Y-70210000D01*
X197475000Y-69910000D01*
X197775000Y-69910000D01*
G37*
G36*
X198075000Y-69910000D02*
G01*
X198075000Y-70210000D01*
X197775000Y-70210000D01*
X197775000Y-69910000D01*
X198075000Y-69910000D01*
G37*
G36*
X198675000Y-69910000D02*
G01*
X198675000Y-70210000D01*
X198375000Y-70210000D01*
X198375000Y-69910000D01*
X198675000Y-69910000D01*
G37*
G36*
X199275000Y-69910000D02*
G01*
X199275000Y-70210000D01*
X198975000Y-70210000D01*
X198975000Y-69910000D01*
X199275000Y-69910000D01*
G37*
G36*
X199575000Y-69910000D02*
G01*
X199575000Y-70210000D01*
X199275000Y-70210000D01*
X199275000Y-69910000D01*
X199575000Y-69910000D01*
G37*
G36*
X199875000Y-69910000D02*
G01*
X199875000Y-70210000D01*
X199575000Y-70210000D01*
X199575000Y-69910000D01*
X199875000Y-69910000D01*
G37*
G36*
X200775000Y-69910000D02*
G01*
X200775000Y-70210000D01*
X200475000Y-70210000D01*
X200475000Y-69910000D01*
X200775000Y-69910000D01*
G37*
G36*
X201075000Y-69910000D02*
G01*
X201075000Y-70210000D01*
X200775000Y-70210000D01*
X200775000Y-69910000D01*
X201075000Y-69910000D01*
G37*
G36*
X201675000Y-69910000D02*
G01*
X201675000Y-70210000D01*
X201375000Y-70210000D01*
X201375000Y-69910000D01*
X201675000Y-69910000D01*
G37*
G36*
X202575000Y-69910000D02*
G01*
X202575000Y-70210000D01*
X202275000Y-70210000D01*
X202275000Y-69910000D01*
X202575000Y-69910000D01*
G37*
G36*
X202875000Y-69910000D02*
G01*
X202875000Y-70210000D01*
X202575000Y-70210000D01*
X202575000Y-69910000D01*
X202875000Y-69910000D01*
G37*
G36*
X203175000Y-69910000D02*
G01*
X203175000Y-70210000D01*
X202875000Y-70210000D01*
X202875000Y-69910000D01*
X203175000Y-69910000D01*
G37*
G36*
X203475000Y-69910000D02*
G01*
X203475000Y-70210000D01*
X203175000Y-70210000D01*
X203175000Y-69910000D01*
X203475000Y-69910000D01*
G37*
G36*
X203775000Y-69910000D02*
G01*
X203775000Y-70210000D01*
X203475000Y-70210000D01*
X203475000Y-69910000D01*
X203775000Y-69910000D01*
G37*
G36*
X204075000Y-69910000D02*
G01*
X204075000Y-70210000D01*
X203775000Y-70210000D01*
X203775000Y-69910000D01*
X204075000Y-69910000D01*
G37*
G36*
X204675000Y-69910000D02*
G01*
X204675000Y-70210000D01*
X204375000Y-70210000D01*
X204375000Y-69910000D01*
X204675000Y-69910000D01*
G37*
G36*
X204975000Y-69910000D02*
G01*
X204975000Y-70210000D01*
X204675000Y-70210000D01*
X204675000Y-69910000D01*
X204975000Y-69910000D01*
G37*
G36*
X195375000Y-69610000D02*
G01*
X195375000Y-69910000D01*
X195075000Y-69910000D01*
X195075000Y-69610000D01*
X195375000Y-69610000D01*
G37*
G36*
X195975000Y-69610000D02*
G01*
X195975000Y-69910000D01*
X195675000Y-69910000D01*
X195675000Y-69610000D01*
X195975000Y-69610000D01*
G37*
G36*
X196275000Y-69610000D02*
G01*
X196275000Y-69910000D01*
X195975000Y-69910000D01*
X195975000Y-69610000D01*
X196275000Y-69610000D01*
G37*
G36*
X196575000Y-69610000D02*
G01*
X196575000Y-69910000D01*
X196275000Y-69910000D01*
X196275000Y-69610000D01*
X196575000Y-69610000D01*
G37*
G36*
X197175000Y-69610000D02*
G01*
X197175000Y-69910000D01*
X196875000Y-69910000D01*
X196875000Y-69610000D01*
X197175000Y-69610000D01*
G37*
G36*
X197775000Y-69610000D02*
G01*
X197775000Y-69910000D01*
X197475000Y-69910000D01*
X197475000Y-69610000D01*
X197775000Y-69610000D01*
G37*
G36*
X198675000Y-69610000D02*
G01*
X198675000Y-69910000D01*
X198375000Y-69910000D01*
X198375000Y-69610000D01*
X198675000Y-69610000D01*
G37*
G36*
X199275000Y-69610000D02*
G01*
X199275000Y-69910000D01*
X198975000Y-69910000D01*
X198975000Y-69610000D01*
X199275000Y-69610000D01*
G37*
G36*
X199575000Y-69610000D02*
G01*
X199575000Y-69910000D01*
X199275000Y-69910000D01*
X199275000Y-69610000D01*
X199575000Y-69610000D01*
G37*
G36*
X199875000Y-69610000D02*
G01*
X199875000Y-69910000D01*
X199575000Y-69910000D01*
X199575000Y-69610000D01*
X199875000Y-69610000D01*
G37*
G36*
X200175000Y-69610000D02*
G01*
X200175000Y-69910000D01*
X199875000Y-69910000D01*
X199875000Y-69610000D01*
X200175000Y-69610000D01*
G37*
G36*
X200475000Y-69610000D02*
G01*
X200475000Y-69910000D01*
X200175000Y-69910000D01*
X200175000Y-69610000D01*
X200475000Y-69610000D01*
G37*
G36*
X201375000Y-69610000D02*
G01*
X201375000Y-69910000D01*
X201075000Y-69910000D01*
X201075000Y-69610000D01*
X201375000Y-69610000D01*
G37*
G36*
X201675000Y-69610000D02*
G01*
X201675000Y-69910000D01*
X201375000Y-69910000D01*
X201375000Y-69610000D01*
X201675000Y-69610000D01*
G37*
G36*
X201975000Y-69610000D02*
G01*
X201975000Y-69910000D01*
X201675000Y-69910000D01*
X201675000Y-69610000D01*
X201975000Y-69610000D01*
G37*
G36*
X202275000Y-69610000D02*
G01*
X202275000Y-69910000D01*
X201975000Y-69910000D01*
X201975000Y-69610000D01*
X202275000Y-69610000D01*
G37*
G36*
X202575000Y-69610000D02*
G01*
X202575000Y-69910000D01*
X202275000Y-69910000D01*
X202275000Y-69610000D01*
X202575000Y-69610000D01*
G37*
G36*
X202875000Y-69610000D02*
G01*
X202875000Y-69910000D01*
X202575000Y-69910000D01*
X202575000Y-69610000D01*
X202875000Y-69610000D01*
G37*
G36*
X203775000Y-69610000D02*
G01*
X203775000Y-69910000D01*
X203475000Y-69910000D01*
X203475000Y-69610000D01*
X203775000Y-69610000D01*
G37*
G36*
X204375000Y-69610000D02*
G01*
X204375000Y-69910000D01*
X204075000Y-69910000D01*
X204075000Y-69610000D01*
X204375000Y-69610000D01*
G37*
G36*
X204675000Y-69610000D02*
G01*
X204675000Y-69910000D01*
X204375000Y-69910000D01*
X204375000Y-69610000D01*
X204675000Y-69610000D01*
G37*
G36*
X195375000Y-69310000D02*
G01*
X195375000Y-69610000D01*
X195075000Y-69610000D01*
X195075000Y-69310000D01*
X195375000Y-69310000D01*
G37*
G36*
X195975000Y-69310000D02*
G01*
X195975000Y-69610000D01*
X195675000Y-69610000D01*
X195675000Y-69310000D01*
X195975000Y-69310000D01*
G37*
G36*
X196275000Y-69310000D02*
G01*
X196275000Y-69610000D01*
X195975000Y-69610000D01*
X195975000Y-69310000D01*
X196275000Y-69310000D01*
G37*
G36*
X196575000Y-69310000D02*
G01*
X196575000Y-69610000D01*
X196275000Y-69610000D01*
X196275000Y-69310000D01*
X196575000Y-69310000D01*
G37*
G36*
X197175000Y-69310000D02*
G01*
X197175000Y-69610000D01*
X196875000Y-69610000D01*
X196875000Y-69310000D01*
X197175000Y-69310000D01*
G37*
G36*
X197775000Y-69310000D02*
G01*
X197775000Y-69610000D01*
X197475000Y-69610000D01*
X197475000Y-69310000D01*
X197775000Y-69310000D01*
G37*
G36*
X198075000Y-69310000D02*
G01*
X198075000Y-69610000D01*
X197775000Y-69610000D01*
X197775000Y-69310000D01*
X198075000Y-69310000D01*
G37*
G36*
X198375000Y-69310000D02*
G01*
X198375000Y-69610000D01*
X198075000Y-69610000D01*
X198075000Y-69310000D01*
X198375000Y-69310000D01*
G37*
G36*
X199275000Y-69310000D02*
G01*
X199275000Y-69610000D01*
X198975000Y-69610000D01*
X198975000Y-69310000D01*
X199275000Y-69310000D01*
G37*
G36*
X200475000Y-69310000D02*
G01*
X200475000Y-69610000D01*
X200175000Y-69610000D01*
X200175000Y-69310000D01*
X200475000Y-69310000D01*
G37*
G36*
X200775000Y-69310000D02*
G01*
X200775000Y-69610000D01*
X200475000Y-69610000D01*
X200475000Y-69310000D01*
X200775000Y-69310000D01*
G37*
G36*
X201075000Y-69310000D02*
G01*
X201075000Y-69610000D01*
X200775000Y-69610000D01*
X200775000Y-69310000D01*
X201075000Y-69310000D01*
G37*
G36*
X203175000Y-69310000D02*
G01*
X203175000Y-69610000D01*
X202875000Y-69610000D01*
X202875000Y-69310000D01*
X203175000Y-69310000D01*
G37*
G36*
X203475000Y-69310000D02*
G01*
X203475000Y-69610000D01*
X203175000Y-69610000D01*
X203175000Y-69310000D01*
X203475000Y-69310000D01*
G37*
G36*
X204075000Y-69310000D02*
G01*
X204075000Y-69610000D01*
X203775000Y-69610000D01*
X203775000Y-69310000D01*
X204075000Y-69310000D01*
G37*
G36*
X204375000Y-69310000D02*
G01*
X204375000Y-69610000D01*
X204075000Y-69610000D01*
X204075000Y-69310000D01*
X204375000Y-69310000D01*
G37*
G36*
X195375000Y-69010000D02*
G01*
X195375000Y-69310000D01*
X195075000Y-69310000D01*
X195075000Y-69010000D01*
X195375000Y-69010000D01*
G37*
G36*
X197175000Y-69010000D02*
G01*
X197175000Y-69310000D01*
X196875000Y-69310000D01*
X196875000Y-69010000D01*
X197175000Y-69010000D01*
G37*
G36*
X198075000Y-69010000D02*
G01*
X198075000Y-69310000D01*
X197775000Y-69310000D01*
X197775000Y-69010000D01*
X198075000Y-69010000D01*
G37*
G36*
X198375000Y-69010000D02*
G01*
X198375000Y-69310000D01*
X198075000Y-69310000D01*
X198075000Y-69010000D01*
X198375000Y-69010000D01*
G37*
G36*
X198675000Y-69010000D02*
G01*
X198675000Y-69310000D01*
X198375000Y-69310000D01*
X198375000Y-69010000D01*
X198675000Y-69010000D01*
G37*
G36*
X198975000Y-69010000D02*
G01*
X198975000Y-69310000D01*
X198675000Y-69310000D01*
X198675000Y-69010000D01*
X198975000Y-69010000D01*
G37*
G36*
X199275000Y-69010000D02*
G01*
X199275000Y-69310000D01*
X198975000Y-69310000D01*
X198975000Y-69010000D01*
X199275000Y-69010000D01*
G37*
G36*
X199575000Y-69010000D02*
G01*
X199575000Y-69310000D01*
X199275000Y-69310000D01*
X199275000Y-69010000D01*
X199575000Y-69010000D01*
G37*
G36*
X200175000Y-69010000D02*
G01*
X200175000Y-69310000D01*
X199875000Y-69310000D01*
X199875000Y-69010000D01*
X200175000Y-69010000D01*
G37*
G36*
X201075000Y-69010000D02*
G01*
X201075000Y-69310000D01*
X200775000Y-69310000D01*
X200775000Y-69010000D01*
X201075000Y-69010000D01*
G37*
G36*
X201375000Y-69010000D02*
G01*
X201375000Y-69310000D01*
X201075000Y-69310000D01*
X201075000Y-69010000D01*
X201375000Y-69010000D01*
G37*
G36*
X201675000Y-69010000D02*
G01*
X201675000Y-69310000D01*
X201375000Y-69310000D01*
X201375000Y-69010000D01*
X201675000Y-69010000D01*
G37*
G36*
X201975000Y-69010000D02*
G01*
X201975000Y-69310000D01*
X201675000Y-69310000D01*
X201675000Y-69010000D01*
X201975000Y-69010000D01*
G37*
G36*
X202575000Y-69010000D02*
G01*
X202575000Y-69310000D01*
X202275000Y-69310000D01*
X202275000Y-69010000D01*
X202575000Y-69010000D01*
G37*
G36*
X202875000Y-69010000D02*
G01*
X202875000Y-69310000D01*
X202575000Y-69310000D01*
X202575000Y-69010000D01*
X202875000Y-69010000D01*
G37*
G36*
X203175000Y-69010000D02*
G01*
X203175000Y-69310000D01*
X202875000Y-69310000D01*
X202875000Y-69010000D01*
X203175000Y-69010000D01*
G37*
G36*
X203775000Y-69010000D02*
G01*
X203775000Y-69310000D01*
X203475000Y-69310000D01*
X203475000Y-69010000D01*
X203775000Y-69010000D01*
G37*
G36*
X204375000Y-69010000D02*
G01*
X204375000Y-69310000D01*
X204075000Y-69310000D01*
X204075000Y-69010000D01*
X204375000Y-69010000D01*
G37*
G36*
X195375000Y-68710000D02*
G01*
X195375000Y-69010000D01*
X195075000Y-69010000D01*
X195075000Y-68710000D01*
X195375000Y-68710000D01*
G37*
G36*
X195675000Y-68710000D02*
G01*
X195675000Y-69010000D01*
X195375000Y-69010000D01*
X195375000Y-68710000D01*
X195675000Y-68710000D01*
G37*
G36*
X195975000Y-68710000D02*
G01*
X195975000Y-69010000D01*
X195675000Y-69010000D01*
X195675000Y-68710000D01*
X195975000Y-68710000D01*
G37*
G36*
X196275000Y-68710000D02*
G01*
X196275000Y-69010000D01*
X195975000Y-69010000D01*
X195975000Y-68710000D01*
X196275000Y-68710000D01*
G37*
G36*
X196575000Y-68710000D02*
G01*
X196575000Y-69010000D01*
X196275000Y-69010000D01*
X196275000Y-68710000D01*
X196575000Y-68710000D01*
G37*
G36*
X196875000Y-68710000D02*
G01*
X196875000Y-69010000D01*
X196575000Y-69010000D01*
X196575000Y-68710000D01*
X196875000Y-68710000D01*
G37*
G36*
X197175000Y-68710000D02*
G01*
X197175000Y-69010000D01*
X196875000Y-69010000D01*
X196875000Y-68710000D01*
X197175000Y-68710000D01*
G37*
G36*
X197775000Y-68710000D02*
G01*
X197775000Y-69010000D01*
X197475000Y-69010000D01*
X197475000Y-68710000D01*
X197775000Y-68710000D01*
G37*
G36*
X198075000Y-68710000D02*
G01*
X198075000Y-69010000D01*
X197775000Y-69010000D01*
X197775000Y-68710000D01*
X198075000Y-68710000D01*
G37*
G36*
X199275000Y-68710000D02*
G01*
X199275000Y-69010000D01*
X198975000Y-69010000D01*
X198975000Y-68710000D01*
X199275000Y-68710000D01*
G37*
G36*
X199575000Y-68710000D02*
G01*
X199575000Y-69010000D01*
X199275000Y-69010000D01*
X199275000Y-68710000D01*
X199575000Y-68710000D01*
G37*
G36*
X200175000Y-68710000D02*
G01*
X200175000Y-69010000D01*
X199875000Y-69010000D01*
X199875000Y-68710000D01*
X200175000Y-68710000D01*
G37*
G36*
X200475000Y-68710000D02*
G01*
X200475000Y-69010000D01*
X200175000Y-69010000D01*
X200175000Y-68710000D01*
X200475000Y-68710000D01*
G37*
G36*
X201075000Y-68710000D02*
G01*
X201075000Y-69010000D01*
X200775000Y-69010000D01*
X200775000Y-68710000D01*
X201075000Y-68710000D01*
G37*
G36*
X201975000Y-68710000D02*
G01*
X201975000Y-69010000D01*
X201675000Y-69010000D01*
X201675000Y-68710000D01*
X201975000Y-68710000D01*
G37*
G36*
X202275000Y-68710000D02*
G01*
X202275000Y-69010000D01*
X201975000Y-69010000D01*
X201975000Y-68710000D01*
X202275000Y-68710000D01*
G37*
G36*
X203175000Y-68710000D02*
G01*
X203175000Y-69010000D01*
X202875000Y-69010000D01*
X202875000Y-68710000D01*
X203175000Y-68710000D01*
G37*
G36*
X203475000Y-68710000D02*
G01*
X203475000Y-69010000D01*
X203175000Y-69010000D01*
X203175000Y-68710000D01*
X203475000Y-68710000D01*
G37*
G36*
X204075000Y-68710000D02*
G01*
X204075000Y-69010000D01*
X203775000Y-69010000D01*
X203775000Y-68710000D01*
X204075000Y-68710000D01*
G37*
G36*
X204375000Y-68710000D02*
G01*
X204375000Y-69010000D01*
X204075000Y-69010000D01*
X204075000Y-68710000D01*
X204375000Y-68710000D01*
G37*
G36*
X204675000Y-68710000D02*
G01*
X204675000Y-69010000D01*
X204375000Y-69010000D01*
X204375000Y-68710000D01*
X204675000Y-68710000D01*
G37*
D13*
%TO.C,J2*%
X237430000Y-87690000D02*
X238760000Y-87690000D01*
X237430000Y-86360000D02*
X237430000Y-87690000D01*
X240030000Y-87690000D02*
X242630000Y-87690000D01*
X240030000Y-85090000D02*
X240030000Y-87690000D01*
X237430000Y-85090000D02*
X240030000Y-85090000D01*
X242630000Y-87690000D02*
X242630000Y-79950000D01*
X237430000Y-85090000D02*
X237430000Y-79950000D01*
X237430000Y-79950000D02*
X242630000Y-79950000D01*
%TO.C,J1*%
X191710000Y-87690000D02*
X193040000Y-87690000D01*
X191710000Y-86360000D02*
X191710000Y-87690000D01*
X194310000Y-87690000D02*
X196910000Y-87690000D01*
X194310000Y-85090000D02*
X194310000Y-87690000D01*
X191710000Y-85090000D02*
X194310000Y-85090000D01*
X196910000Y-87690000D02*
X196910000Y-79950000D01*
X191710000Y-85090000D02*
X191710000Y-79950000D01*
X191710000Y-79950000D02*
X196910000Y-79950000D01*
%TD*%
M02*
