%TF.GenerationSoftware,KiCad,Pcbnew,(5.1.10-0-10_14)*%
%TF.CreationDate,2021-05-10T23:18:38+02:00*%
%TF.ProjectId,USB_power_serial_breakout,5553425f-706f-4776-9572-5f7365726961,rev?*%
%TF.SameCoordinates,Original*%
%TF.FileFunction,Soldermask,Top*%
%TF.FilePolarity,Negative*%
%FSLAX46Y46*%
G04 Gerber Fmt 4.6, Leading zero omitted, Abs format (unit mm)*
G04 Created by KiCad (PCBNEW (5.1.10-0-10_14)) date 2021-05-10 23:18:38*
%MOMM*%
%LPD*%
G01*
G04 APERTURE LIST*
%ADD10C,1.800000*%
%ADD11R,1.800000X1.800000*%
%ADD12R,1.200000X0.400000*%
%ADD13O,1.700000X1.700000*%
%ADD14R,1.700000X1.700000*%
%ADD15C,3.500000*%
%ADD16C,1.700000*%
G04 APERTURE END LIST*
%TO.C,R3*%
G36*
G01*
X203570000Y-66049999D02*
X203570000Y-67300001D01*
G75*
G02*
X203320001Y-67550000I-249999J0D01*
G01*
X202519999Y-67550000D01*
G75*
G02*
X202270000Y-67300001I0J249999D01*
G01*
X202270000Y-66049999D01*
G75*
G02*
X202519999Y-65800000I249999J0D01*
G01*
X203320001Y-65800000D01*
G75*
G02*
X203570000Y-66049999I0J-249999D01*
G01*
G37*
G36*
G01*
X206670000Y-66049999D02*
X206670000Y-67300001D01*
G75*
G02*
X206420001Y-67550000I-249999J0D01*
G01*
X205619999Y-67550000D01*
G75*
G02*
X205370000Y-67300001I0J249999D01*
G01*
X205370000Y-66049999D01*
G75*
G02*
X205619999Y-65800000I249999J0D01*
G01*
X206420001Y-65800000D01*
G75*
G02*
X206670000Y-66049999I0J-249999D01*
G01*
G37*
%TD*%
D10*
%TO.C,D3*%
X198755000Y-66675000D03*
D11*
X196215000Y-66675000D03*
%TD*%
D12*
%TO.C,U1*%
X235225000Y-73671000D03*
X235225000Y-74321000D03*
X235225000Y-74971000D03*
X235225000Y-75621000D03*
X235225000Y-76271000D03*
X235225000Y-76921000D03*
X235225000Y-77571000D03*
X235225000Y-78221000D03*
X228325000Y-78221000D03*
X228325000Y-77571000D03*
X228325000Y-76921000D03*
X228325000Y-76271000D03*
X228325000Y-75621000D03*
X228325000Y-74971000D03*
X228325000Y-74321000D03*
X228325000Y-73671000D03*
%TD*%
%TO.C,R5*%
G36*
G01*
X241309999Y-67575000D02*
X242560001Y-67575000D01*
G75*
G02*
X242810000Y-67824999I0J-249999D01*
G01*
X242810000Y-68625001D01*
G75*
G02*
X242560001Y-68875000I-249999J0D01*
G01*
X241309999Y-68875000D01*
G75*
G02*
X241060000Y-68625001I0J249999D01*
G01*
X241060000Y-67824999D01*
G75*
G02*
X241309999Y-67575000I249999J0D01*
G01*
G37*
G36*
G01*
X241309999Y-64475000D02*
X242560001Y-64475000D01*
G75*
G02*
X242810000Y-64724999I0J-249999D01*
G01*
X242810000Y-65525001D01*
G75*
G02*
X242560001Y-65775000I-249999J0D01*
G01*
X241309999Y-65775000D01*
G75*
G02*
X241060000Y-65525001I0J249999D01*
G01*
X241060000Y-64724999D01*
G75*
G02*
X241309999Y-64475000I249999J0D01*
G01*
G37*
%TD*%
%TO.C,R4*%
G36*
G01*
X232419999Y-67575000D02*
X233670001Y-67575000D01*
G75*
G02*
X233920000Y-67824999I0J-249999D01*
G01*
X233920000Y-68625001D01*
G75*
G02*
X233670001Y-68875000I-249999J0D01*
G01*
X232419999Y-68875000D01*
G75*
G02*
X232170000Y-68625001I0J249999D01*
G01*
X232170000Y-67824999D01*
G75*
G02*
X232419999Y-67575000I249999J0D01*
G01*
G37*
G36*
G01*
X232419999Y-64475000D02*
X233670001Y-64475000D01*
G75*
G02*
X233920000Y-64724999I0J-249999D01*
G01*
X233920000Y-65525001D01*
G75*
G02*
X233670001Y-65775000I-249999J0D01*
G01*
X232419999Y-65775000D01*
G75*
G02*
X232170000Y-65525001I0J249999D01*
G01*
X232170000Y-64724999D01*
G75*
G02*
X232419999Y-64475000I249999J0D01*
G01*
G37*
%TD*%
%TO.C,R2*%
G36*
G01*
X206745000Y-85734999D02*
X206745000Y-86985001D01*
G75*
G02*
X206495001Y-87235000I-249999J0D01*
G01*
X205694999Y-87235000D01*
G75*
G02*
X205445000Y-86985001I0J249999D01*
G01*
X205445000Y-85734999D01*
G75*
G02*
X205694999Y-85485000I249999J0D01*
G01*
X206495001Y-85485000D01*
G75*
G02*
X206745000Y-85734999I0J-249999D01*
G01*
G37*
G36*
G01*
X209845000Y-85734999D02*
X209845000Y-86985001D01*
G75*
G02*
X209595001Y-87235000I-249999J0D01*
G01*
X208794999Y-87235000D01*
G75*
G02*
X208545000Y-86985001I0J249999D01*
G01*
X208545000Y-85734999D01*
G75*
G02*
X208794999Y-85485000I249999J0D01*
G01*
X209595001Y-85485000D01*
G75*
G02*
X209845000Y-85734999I0J-249999D01*
G01*
G37*
%TD*%
%TO.C,R1*%
G36*
G01*
X200395000Y-85734999D02*
X200395000Y-86985001D01*
G75*
G02*
X200145001Y-87235000I-249999J0D01*
G01*
X199344999Y-87235000D01*
G75*
G02*
X199095000Y-86985001I0J249999D01*
G01*
X199095000Y-85734999D01*
G75*
G02*
X199344999Y-85485000I249999J0D01*
G01*
X200145001Y-85485000D01*
G75*
G02*
X200395000Y-85734999I0J-249999D01*
G01*
G37*
G36*
G01*
X203495000Y-85734999D02*
X203495000Y-86985001D01*
G75*
G02*
X203245001Y-87235000I-249999J0D01*
G01*
X202444999Y-87235000D01*
G75*
G02*
X202195000Y-86985001I0J249999D01*
G01*
X202195000Y-85734999D01*
G75*
G02*
X202444999Y-85485000I249999J0D01*
G01*
X203245001Y-85485000D01*
G75*
G02*
X203495000Y-85734999I0J-249999D01*
G01*
G37*
%TD*%
D13*
%TO.C,J4*%
X234950000Y-86360000D03*
X232410000Y-86360000D03*
X229870000Y-86360000D03*
X227330000Y-86360000D03*
X224790000Y-86360000D03*
D14*
X222250000Y-86360000D03*
%TD*%
D15*
%TO.C,J3*%
X223210000Y-72760000D03*
X211170000Y-72760000D03*
D16*
X215940000Y-75470000D03*
X218440000Y-75470000D03*
X218440000Y-77470000D03*
D14*
X215940000Y-77470000D03*
%TD*%
D13*
%TO.C,J2*%
X241300000Y-81280000D03*
X238760000Y-81280000D03*
X241300000Y-83820000D03*
X238760000Y-83820000D03*
X241300000Y-86360000D03*
D14*
X238760000Y-86360000D03*
%TD*%
D13*
%TO.C,J1*%
X195580000Y-81280000D03*
X193040000Y-81280000D03*
X195580000Y-83820000D03*
X193040000Y-83820000D03*
X195580000Y-86360000D03*
D14*
X193040000Y-86360000D03*
%TD*%
%TO.C,FB1*%
G36*
G01*
X205497000Y-76825001D02*
X205497000Y-75574999D01*
G75*
G02*
X205746999Y-75325000I249999J0D01*
G01*
X206547001Y-75325000D01*
G75*
G02*
X206797000Y-75574999I0J-249999D01*
G01*
X206797000Y-76825001D01*
G75*
G02*
X206547001Y-77075000I-249999J0D01*
G01*
X205746999Y-77075000D01*
G75*
G02*
X205497000Y-76825001I0J249999D01*
G01*
G37*
G36*
G01*
X202397000Y-76825001D02*
X202397000Y-75574999D01*
G75*
G02*
X202646999Y-75325000I249999J0D01*
G01*
X203447001Y-75325000D01*
G75*
G02*
X203697000Y-75574999I0J-249999D01*
G01*
X203697000Y-76825001D01*
G75*
G02*
X203447001Y-77075000I-249999J0D01*
G01*
X202646999Y-77075000D01*
G75*
G02*
X202397000Y-76825001I0J249999D01*
G01*
G37*
%TD*%
D10*
%TO.C,D2*%
X238887000Y-66675000D03*
D11*
X236347000Y-66675000D03*
%TD*%
D10*
%TO.C,D1*%
X229870000Y-66675000D03*
D11*
X227330000Y-66675000D03*
%TD*%
%TO.C,C6*%
G36*
G01*
X196604000Y-73745000D02*
X196604000Y-74845000D01*
G75*
G02*
X196354000Y-75095000I-250000J0D01*
G01*
X194254000Y-75095000D01*
G75*
G02*
X194004000Y-74845000I0J250000D01*
G01*
X194004000Y-73745000D01*
G75*
G02*
X194254000Y-73495000I250000J0D01*
G01*
X196354000Y-73495000D01*
G75*
G02*
X196604000Y-73745000I0J-250000D01*
G01*
G37*
G36*
G01*
X200204000Y-73745000D02*
X200204000Y-74845000D01*
G75*
G02*
X199954000Y-75095000I-250000J0D01*
G01*
X197854000Y-75095000D01*
G75*
G02*
X197604000Y-74845000I0J250000D01*
G01*
X197604000Y-73745000D01*
G75*
G02*
X197854000Y-73495000I250000J0D01*
G01*
X199954000Y-73495000D01*
G75*
G02*
X200204000Y-73745000I0J-250000D01*
G01*
G37*
%TD*%
%TO.C,C5*%
G36*
G01*
X240930000Y-76850002D02*
X240930000Y-75549998D01*
G75*
G02*
X241179998Y-75300000I249998J0D01*
G01*
X242005002Y-75300000D01*
G75*
G02*
X242255000Y-75549998I0J-249998D01*
G01*
X242255000Y-76850002D01*
G75*
G02*
X242005002Y-77100000I-249998J0D01*
G01*
X241179998Y-77100000D01*
G75*
G02*
X240930000Y-76850002I0J249998D01*
G01*
G37*
G36*
G01*
X237805000Y-76850002D02*
X237805000Y-75549998D01*
G75*
G02*
X238054998Y-75300000I249998J0D01*
G01*
X238880002Y-75300000D01*
G75*
G02*
X239130000Y-75549998I0J-249998D01*
G01*
X239130000Y-76850002D01*
G75*
G02*
X238880002Y-77100000I-249998J0D01*
G01*
X238054998Y-77100000D01*
G75*
G02*
X237805000Y-76850002I0J249998D01*
G01*
G37*
%TD*%
%TO.C,C4*%
G36*
G01*
X240930000Y-73040002D02*
X240930000Y-71739998D01*
G75*
G02*
X241179998Y-71490000I249998J0D01*
G01*
X242005002Y-71490000D01*
G75*
G02*
X242255000Y-71739998I0J-249998D01*
G01*
X242255000Y-73040002D01*
G75*
G02*
X242005002Y-73290000I-249998J0D01*
G01*
X241179998Y-73290000D01*
G75*
G02*
X240930000Y-73040002I0J249998D01*
G01*
G37*
G36*
G01*
X237805000Y-73040002D02*
X237805000Y-71739998D01*
G75*
G02*
X238054998Y-71490000I249998J0D01*
G01*
X238880002Y-71490000D01*
G75*
G02*
X239130000Y-71739998I0J-249998D01*
G01*
X239130000Y-73040002D01*
G75*
G02*
X238880002Y-73290000I-249998J0D01*
G01*
X238054998Y-73290000D01*
G75*
G02*
X237805000Y-73040002I0J249998D01*
G01*
G37*
%TD*%
%TO.C,C3*%
G36*
G01*
X208545000Y-82819002D02*
X208545000Y-81518998D01*
G75*
G02*
X208794998Y-81269000I249998J0D01*
G01*
X209620002Y-81269000D01*
G75*
G02*
X209870000Y-81518998I0J-249998D01*
G01*
X209870000Y-82819002D01*
G75*
G02*
X209620002Y-83069000I-249998J0D01*
G01*
X208794998Y-83069000D01*
G75*
G02*
X208545000Y-82819002I0J249998D01*
G01*
G37*
G36*
G01*
X205420000Y-82819002D02*
X205420000Y-81518998D01*
G75*
G02*
X205669998Y-81269000I249998J0D01*
G01*
X206495002Y-81269000D01*
G75*
G02*
X206745000Y-81518998I0J-249998D01*
G01*
X206745000Y-82819002D01*
G75*
G02*
X206495002Y-83069000I-249998J0D01*
G01*
X205669998Y-83069000D01*
G75*
G02*
X205420000Y-82819002I0J249998D01*
G01*
G37*
%TD*%
%TO.C,C2*%
G36*
G01*
X202195000Y-82819002D02*
X202195000Y-81518998D01*
G75*
G02*
X202444998Y-81269000I249998J0D01*
G01*
X203270002Y-81269000D01*
G75*
G02*
X203520000Y-81518998I0J-249998D01*
G01*
X203520000Y-82819002D01*
G75*
G02*
X203270002Y-83069000I-249998J0D01*
G01*
X202444998Y-83069000D01*
G75*
G02*
X202195000Y-82819002I0J249998D01*
G01*
G37*
G36*
G01*
X199070000Y-82819002D02*
X199070000Y-81518998D01*
G75*
G02*
X199319998Y-81269000I249998J0D01*
G01*
X200145002Y-81269000D01*
G75*
G02*
X200395000Y-81518998I0J-249998D01*
G01*
X200395000Y-82819002D01*
G75*
G02*
X200145002Y-83069000I-249998J0D01*
G01*
X199319998Y-83069000D01*
G75*
G02*
X199070000Y-82819002I0J249998D01*
G01*
G37*
%TD*%
%TO.C,C1*%
G36*
G01*
X203824000Y-71485998D02*
X203824000Y-72786002D01*
G75*
G02*
X203574002Y-73036000I-249998J0D01*
G01*
X202748998Y-73036000D01*
G75*
G02*
X202499000Y-72786002I0J249998D01*
G01*
X202499000Y-71485998D01*
G75*
G02*
X202748998Y-71236000I249998J0D01*
G01*
X203574002Y-71236000D01*
G75*
G02*
X203824000Y-71485998I0J-249998D01*
G01*
G37*
G36*
G01*
X206949000Y-71485998D02*
X206949000Y-72786002D01*
G75*
G02*
X206699002Y-73036000I-249998J0D01*
G01*
X205873998Y-73036000D01*
G75*
G02*
X205624000Y-72786002I0J249998D01*
G01*
X205624000Y-71485998D01*
G75*
G02*
X205873998Y-71236000I249998J0D01*
G01*
X206699002Y-71236000D01*
G75*
G02*
X206949000Y-71485998I0J-249998D01*
G01*
G37*
%TD*%
M02*
