%TF.GenerationSoftware,KiCad,Pcbnew,(5.1.10-0-10_14)*%
%TF.CreationDate,2021-11-02T11:36:45+01:00*%
%TF.ProjectId,USB_power_serial_breakout,5553425f-706f-4776-9572-5f7365726961,rev?*%
%TF.SameCoordinates,Original*%
%TF.FileFunction,Copper,L2,Bot*%
%TF.FilePolarity,Positive*%
%FSLAX46Y46*%
G04 Gerber Fmt 4.6, Leading zero omitted, Abs format (unit mm)*
G04 Created by KiCad (PCBNEW (5.1.10-0-10_14)) date 2021-11-02 11:36:45*
%MOMM*%
%LPD*%
G01*
G04 APERTURE LIST*
%TA.AperFunction,ComponentPad*%
%ADD10O,1.700000X1.700000*%
%TD*%
%TA.AperFunction,ComponentPad*%
%ADD11R,1.700000X1.700000*%
%TD*%
%TA.AperFunction,ComponentPad*%
%ADD12C,1.200000*%
%TD*%
%TA.AperFunction,ComponentPad*%
%ADD13R,1.200000X1.200000*%
%TD*%
%TA.AperFunction,ComponentPad*%
%ADD14C,3.500000*%
%TD*%
%TA.AperFunction,ComponentPad*%
%ADD15C,1.700000*%
%TD*%
%TA.AperFunction,ViaPad*%
%ADD16C,0.600000*%
%TD*%
%TA.AperFunction,Conductor*%
%ADD17C,0.228600*%
%TD*%
%TA.AperFunction,Conductor*%
%ADD18C,0.152400*%
%TD*%
%TA.AperFunction,Conductor*%
%ADD19C,0.254000*%
%TD*%
%TA.AperFunction,Conductor*%
%ADD20C,0.100000*%
%TD*%
G04 APERTURE END LIST*
D10*
%TO.P,J4,8*%
%TO.N,CBUS0*%
X233045000Y-86360000D03*
%TO.P,J4,7*%
%TO.N,CBUS3*%
X230505000Y-86360000D03*
%TO.P,J4,6*%
%TO.N,TxD*%
X227965000Y-86360000D03*
%TO.P,J4,5*%
%TO.N,RxD*%
X225425000Y-86360000D03*
%TO.P,J4,4*%
%TO.N,~CTS*%
X222885000Y-86360000D03*
%TO.P,J4,3*%
%TO.N,~RTS*%
X220345000Y-86360000D03*
%TO.P,J4,2*%
%TO.N,GND*%
X217805000Y-86360000D03*
D11*
%TO.P,J4,1*%
%TO.N,VCC*%
X215265000Y-86360000D03*
%TD*%
D12*
%TO.P,C6,2*%
%TO.N,GND*%
X197390000Y-76200000D03*
D13*
%TO.P,C6,1*%
%TO.N,VCC*%
X199390000Y-76200000D03*
%TD*%
D14*
%TO.P,J3,5*%
%TO.N,Net-(J3-Pad5)*%
X223210000Y-72760000D03*
X211170000Y-72760000D03*
D15*
%TO.P,J3,4*%
%TO.N,GND*%
X215940000Y-75470000D03*
%TO.P,J3,3*%
%TO.N,Net-(C2-Pad1)*%
X218440000Y-75470000D03*
%TO.P,J3,2*%
%TO.N,Net-(C3-Pad1)*%
X218440000Y-77470000D03*
D11*
%TO.P,J3,1*%
%TO.N,/vbus*%
X215940000Y-77470000D03*
%TD*%
D10*
%TO.P,J2,6*%
%TO.N,GND*%
X241300000Y-81280000D03*
%TO.P,J2,5*%
%TO.N,VCC*%
X238760000Y-81280000D03*
%TO.P,J2,4*%
%TO.N,GND*%
X241300000Y-83820000D03*
%TO.P,J2,3*%
%TO.N,VCC*%
X238760000Y-83820000D03*
%TO.P,J2,2*%
%TO.N,GND*%
X241300000Y-86360000D03*
D11*
%TO.P,J2,1*%
%TO.N,VCC*%
X238760000Y-86360000D03*
%TD*%
D10*
%TO.P,J1,6*%
%TO.N,GND*%
X195580000Y-81280000D03*
%TO.P,J1,5*%
%TO.N,VCC*%
X193040000Y-81280000D03*
%TO.P,J1,4*%
%TO.N,GND*%
X195580000Y-83820000D03*
%TO.P,J1,3*%
%TO.N,VCC*%
X193040000Y-83820000D03*
%TO.P,J1,2*%
%TO.N,GND*%
X195580000Y-86360000D03*
D11*
%TO.P,J1,1*%
%TO.N,VCC*%
X193040000Y-86360000D03*
%TD*%
D16*
%TO.N,GND*%
X231394000Y-76962000D03*
X231648000Y-75692000D03*
%TO.N,CBUS0*%
X233172000Y-74422000D03*
%TO.N,CBUS3*%
X232918000Y-73660000D03*
%TO.N,TxD*%
X229362000Y-73914000D03*
%TO.N,RxD*%
X226568000Y-75692000D03*
%TO.N,~CTS*%
X223012000Y-77216000D03*
%TO.N,~RTS*%
X221488000Y-75692000D03*
%TO.N,USBD+*%
X204470000Y-84328000D03*
X220218000Y-81534000D03*
%TO.N,~TXLED*%
X230632000Y-77470000D03*
X231140000Y-70358000D03*
%TD*%
D17*
%TO.N,GND*%
X231394000Y-76962000D02*
X231394000Y-75946000D01*
X231394000Y-75946000D02*
X231648000Y-75692000D01*
%TO.N,VCC*%
X193040000Y-81280000D02*
X193040000Y-86360000D01*
X237643299Y-87476701D02*
X238760000Y-86360000D01*
X193040000Y-86360000D02*
X194156701Y-87476701D01*
X238760000Y-86360000D02*
X238760000Y-81280000D01*
X214783299Y-87476701D02*
X237643299Y-87476701D01*
X215265000Y-86995000D02*
X214783299Y-87476701D01*
X215265000Y-86360000D02*
X215265000Y-86995000D01*
X194156701Y-87476701D02*
X214783299Y-87476701D01*
D18*
%TO.N,Net-(J3-Pad5)*%
X211170000Y-72760000D02*
X223210000Y-72760000D01*
%TO.N,CBUS0*%
X233045000Y-74549000D02*
X233172000Y-74422000D01*
X233045000Y-86360000D02*
X233045000Y-74549000D01*
%TO.N,CBUS3*%
X232410000Y-75077330D02*
X232389399Y-75056729D01*
X232389399Y-75056729D02*
X232389399Y-74188601D01*
X232389399Y-74188601D02*
X232918000Y-73660000D01*
X232389399Y-84475601D02*
X230505000Y-86360000D01*
X232389399Y-75056729D02*
X232389399Y-84475601D01*
%TO.N,TxD*%
X227965000Y-86360000D02*
X229362000Y-84963000D01*
X229362000Y-84963000D02*
X229362000Y-73914000D01*
%TO.N,RxD*%
X225425000Y-76835000D02*
X226568000Y-75692000D01*
X225425000Y-86360000D02*
X225425000Y-76835000D01*
%TO.N,~CTS*%
X222885000Y-77343000D02*
X223012000Y-77216000D01*
X222885000Y-86360000D02*
X222885000Y-77343000D01*
%TO.N,~RTS*%
X221488000Y-85217000D02*
X220345000Y-86360000D01*
X221488000Y-75692000D02*
X221488000Y-85217000D01*
%TO.N,USBD+*%
X207264000Y-81534000D02*
X220218000Y-81534000D01*
X204470000Y-84328000D02*
X207264000Y-81534000D01*
%TO.N,~TXLED*%
X230632000Y-70866000D02*
X231140000Y-70358000D01*
X230632000Y-77470000D02*
X230632000Y-70866000D01*
%TD*%
D19*
%TO.N,GND*%
X242687869Y-62904722D02*
X242801246Y-62938953D01*
X242905819Y-62994555D01*
X242997596Y-63069407D01*
X243073091Y-63160664D01*
X243129419Y-63264844D01*
X243164440Y-63377976D01*
X243180000Y-63526022D01*
X243180001Y-87597711D01*
X243165278Y-87747869D01*
X243131047Y-87861246D01*
X243075446Y-87965817D01*
X243000594Y-88057595D01*
X242909335Y-88133091D01*
X242805160Y-88189419D01*
X242692024Y-88224440D01*
X242543979Y-88240000D01*
X191802279Y-88240000D01*
X191652131Y-88225278D01*
X191538754Y-88191047D01*
X191434183Y-88135446D01*
X191342405Y-88060594D01*
X191266909Y-87969335D01*
X191210581Y-87865160D01*
X191175560Y-87752024D01*
X191160000Y-87603979D01*
X191160000Y-85510000D01*
X191551928Y-85510000D01*
X191551928Y-87210000D01*
X191564188Y-87334482D01*
X191600498Y-87454180D01*
X191659463Y-87564494D01*
X191738815Y-87661185D01*
X191835506Y-87740537D01*
X191945820Y-87799502D01*
X192065518Y-87835812D01*
X192190000Y-87848072D01*
X193468401Y-87848072D01*
X193600847Y-87980518D01*
X193624303Y-88009099D01*
X193652884Y-88032555D01*
X193652891Y-88032562D01*
X193737880Y-88102310D01*
X193738398Y-88102735D01*
X193868569Y-88172313D01*
X194009813Y-88215159D01*
X194119895Y-88226001D01*
X194119905Y-88226001D01*
X194156701Y-88229625D01*
X194193497Y-88226001D01*
X214746504Y-88226001D01*
X214783299Y-88229625D01*
X214820094Y-88226001D01*
X237606504Y-88226001D01*
X237643299Y-88229625D01*
X237680094Y-88226001D01*
X237680105Y-88226001D01*
X237790187Y-88215159D01*
X237931431Y-88172313D01*
X238061602Y-88102735D01*
X238175697Y-88009099D01*
X238199162Y-87980507D01*
X238331597Y-87848072D01*
X239610000Y-87848072D01*
X239734482Y-87835812D01*
X239854180Y-87799502D01*
X239964494Y-87740537D01*
X240061185Y-87661185D01*
X240140537Y-87564494D01*
X240199502Y-87454180D01*
X240222498Y-87378374D01*
X240418645Y-87555178D01*
X240668748Y-87704157D01*
X240943109Y-87801481D01*
X241173000Y-87680814D01*
X241173000Y-86487000D01*
X241427000Y-86487000D01*
X241427000Y-87680814D01*
X241656891Y-87801481D01*
X241931252Y-87704157D01*
X242181355Y-87555178D01*
X242397588Y-87360269D01*
X242571641Y-87126920D01*
X242696825Y-86864099D01*
X242741476Y-86716890D01*
X242620155Y-86487000D01*
X241427000Y-86487000D01*
X241173000Y-86487000D01*
X241153000Y-86487000D01*
X241153000Y-86233000D01*
X241173000Y-86233000D01*
X241173000Y-83947000D01*
X241427000Y-83947000D01*
X241427000Y-86233000D01*
X242620155Y-86233000D01*
X242741476Y-86003110D01*
X242696825Y-85855901D01*
X242571641Y-85593080D01*
X242397588Y-85359731D01*
X242181355Y-85164822D01*
X242055745Y-85090000D01*
X242181355Y-85015178D01*
X242397588Y-84820269D01*
X242571641Y-84586920D01*
X242696825Y-84324099D01*
X242741476Y-84176890D01*
X242620155Y-83947000D01*
X241427000Y-83947000D01*
X241173000Y-83947000D01*
X241153000Y-83947000D01*
X241153000Y-83693000D01*
X241173000Y-83693000D01*
X241173000Y-81407000D01*
X241427000Y-81407000D01*
X241427000Y-83693000D01*
X242620155Y-83693000D01*
X242741476Y-83463110D01*
X242696825Y-83315901D01*
X242571641Y-83053080D01*
X242397588Y-82819731D01*
X242181355Y-82624822D01*
X242055745Y-82550000D01*
X242181355Y-82475178D01*
X242397588Y-82280269D01*
X242571641Y-82046920D01*
X242696825Y-81784099D01*
X242741476Y-81636890D01*
X242620155Y-81407000D01*
X241427000Y-81407000D01*
X241173000Y-81407000D01*
X241153000Y-81407000D01*
X241153000Y-81153000D01*
X241173000Y-81153000D01*
X241173000Y-79959186D01*
X241427000Y-79959186D01*
X241427000Y-81153000D01*
X242620155Y-81153000D01*
X242741476Y-80923110D01*
X242696825Y-80775901D01*
X242571641Y-80513080D01*
X242397588Y-80279731D01*
X242181355Y-80084822D01*
X241931252Y-79935843D01*
X241656891Y-79838519D01*
X241427000Y-79959186D01*
X241173000Y-79959186D01*
X240943109Y-79838519D01*
X240668748Y-79935843D01*
X240418645Y-80084822D01*
X240202412Y-80279731D01*
X240031100Y-80509406D01*
X239913475Y-80333368D01*
X239706632Y-80126525D01*
X239463411Y-79964010D01*
X239193158Y-79852068D01*
X238906260Y-79795000D01*
X238613740Y-79795000D01*
X238326842Y-79852068D01*
X238056589Y-79964010D01*
X237813368Y-80126525D01*
X237606525Y-80333368D01*
X237444010Y-80576589D01*
X237332068Y-80846842D01*
X237275000Y-81133740D01*
X237275000Y-81426260D01*
X237332068Y-81713158D01*
X237444010Y-81983411D01*
X237606525Y-82226632D01*
X237813368Y-82433475D01*
X237987760Y-82550000D01*
X237813368Y-82666525D01*
X237606525Y-82873368D01*
X237444010Y-83116589D01*
X237332068Y-83386842D01*
X237275000Y-83673740D01*
X237275000Y-83966260D01*
X237332068Y-84253158D01*
X237444010Y-84523411D01*
X237606525Y-84766632D01*
X237738380Y-84898487D01*
X237665820Y-84920498D01*
X237555506Y-84979463D01*
X237458815Y-85058815D01*
X237379463Y-85155506D01*
X237320498Y-85265820D01*
X237284188Y-85385518D01*
X237271928Y-85510000D01*
X237271928Y-86727401D01*
X234486012Y-86727401D01*
X234530000Y-86506260D01*
X234530000Y-86213740D01*
X234472932Y-85926842D01*
X234360990Y-85656589D01*
X234198475Y-85413368D01*
X233991632Y-85206525D01*
X233756200Y-85049214D01*
X233756200Y-75156165D01*
X233768028Y-75148262D01*
X233898262Y-75018028D01*
X234000586Y-74864889D01*
X234071068Y-74694729D01*
X234107000Y-74514089D01*
X234107000Y-74329911D01*
X234071068Y-74149271D01*
X234000586Y-73979111D01*
X233898262Y-73825972D01*
X233848251Y-73775961D01*
X233853000Y-73752089D01*
X233853000Y-73567911D01*
X233817068Y-73387271D01*
X233746586Y-73217111D01*
X233644262Y-73063972D01*
X233514028Y-72933738D01*
X233360889Y-72831414D01*
X233190729Y-72760932D01*
X233010089Y-72725000D01*
X232825911Y-72725000D01*
X232645271Y-72760932D01*
X232475111Y-72831414D01*
X232321972Y-72933738D01*
X232191738Y-73063972D01*
X232089414Y-73217111D01*
X232018932Y-73387271D01*
X231983000Y-73567911D01*
X231983000Y-73589213D01*
X231911208Y-73661005D01*
X231884073Y-73683274D01*
X231861803Y-73710410D01*
X231861802Y-73710411D01*
X231795197Y-73791569D01*
X231764986Y-73848091D01*
X231729158Y-73915120D01*
X231688491Y-74049181D01*
X231678199Y-74153665D01*
X231678199Y-74153675D01*
X231674759Y-74188601D01*
X231678199Y-74223527D01*
X231678199Y-75021803D01*
X231674759Y-75056729D01*
X231678199Y-75091655D01*
X231678200Y-84181011D01*
X230928971Y-84930241D01*
X230651260Y-84875000D01*
X230358740Y-84875000D01*
X230073560Y-84931726D01*
X230073200Y-84928075D01*
X230073200Y-78221137D01*
X230189111Y-78298586D01*
X230359271Y-78369068D01*
X230539911Y-78405000D01*
X230724089Y-78405000D01*
X230904729Y-78369068D01*
X231074889Y-78298586D01*
X231228028Y-78196262D01*
X231358262Y-78066028D01*
X231460586Y-77912889D01*
X231531068Y-77742729D01*
X231567000Y-77562089D01*
X231567000Y-77377911D01*
X231531068Y-77197271D01*
X231460586Y-77027111D01*
X231358262Y-76873972D01*
X231343200Y-76858910D01*
X231343200Y-71270898D01*
X231412729Y-71257068D01*
X231582889Y-71186586D01*
X231736028Y-71084262D01*
X231866262Y-70954028D01*
X231968586Y-70800889D01*
X232039068Y-70630729D01*
X232075000Y-70450089D01*
X232075000Y-70265911D01*
X232039068Y-70085271D01*
X231968586Y-69915111D01*
X231866262Y-69761972D01*
X231736028Y-69631738D01*
X231582889Y-69529414D01*
X231412729Y-69458932D01*
X231232089Y-69423000D01*
X231047911Y-69423000D01*
X230867271Y-69458932D01*
X230697111Y-69529414D01*
X230543972Y-69631738D01*
X230413738Y-69761972D01*
X230311414Y-69915111D01*
X230240932Y-70085271D01*
X230205000Y-70265911D01*
X230205000Y-70287213D01*
X230153809Y-70338404D01*
X230126674Y-70360673D01*
X230104404Y-70387809D01*
X230104403Y-70387810D01*
X230037798Y-70468968D01*
X229971759Y-70592519D01*
X229931092Y-70726580D01*
X229923773Y-70800889D01*
X229917360Y-70866000D01*
X229920801Y-70900936D01*
X229920801Y-73162864D01*
X229804889Y-73085414D01*
X229634729Y-73014932D01*
X229454089Y-72979000D01*
X229269911Y-72979000D01*
X229089271Y-73014932D01*
X228919111Y-73085414D01*
X228765972Y-73187738D01*
X228635738Y-73317972D01*
X228533414Y-73471111D01*
X228462932Y-73641271D01*
X228427000Y-73821911D01*
X228427000Y-74006089D01*
X228462932Y-74186729D01*
X228533414Y-74356889D01*
X228635738Y-74510028D01*
X228650801Y-74525091D01*
X228650800Y-84668411D01*
X228388971Y-84930241D01*
X228111260Y-84875000D01*
X227818740Y-84875000D01*
X227531842Y-84932068D01*
X227261589Y-85044010D01*
X227018368Y-85206525D01*
X226811525Y-85413368D01*
X226695000Y-85587760D01*
X226578475Y-85413368D01*
X226371632Y-85206525D01*
X226136200Y-85049214D01*
X226136200Y-77129587D01*
X226638788Y-76627000D01*
X226660089Y-76627000D01*
X226840729Y-76591068D01*
X227010889Y-76520586D01*
X227164028Y-76418262D01*
X227294262Y-76288028D01*
X227396586Y-76134889D01*
X227467068Y-75964729D01*
X227503000Y-75784089D01*
X227503000Y-75599911D01*
X227467068Y-75419271D01*
X227396586Y-75249111D01*
X227294262Y-75095972D01*
X227164028Y-74965738D01*
X227010889Y-74863414D01*
X226840729Y-74792932D01*
X226660089Y-74757000D01*
X226475911Y-74757000D01*
X226295271Y-74792932D01*
X226125111Y-74863414D01*
X225971972Y-74965738D01*
X225841738Y-75095972D01*
X225739414Y-75249111D01*
X225668932Y-75419271D01*
X225633000Y-75599911D01*
X225633000Y-75621212D01*
X224946810Y-76307403D01*
X224919674Y-76329673D01*
X224897404Y-76356809D01*
X224897403Y-76356810D01*
X224830798Y-76437968D01*
X224789575Y-76515092D01*
X224764759Y-76561519D01*
X224724092Y-76695580D01*
X224719349Y-76743738D01*
X224710360Y-76835000D01*
X224713801Y-76869936D01*
X224713800Y-85049214D01*
X224478368Y-85206525D01*
X224271525Y-85413368D01*
X224155000Y-85587760D01*
X224038475Y-85413368D01*
X223831632Y-85206525D01*
X223596200Y-85049214D01*
X223596200Y-77950165D01*
X223608028Y-77942262D01*
X223738262Y-77812028D01*
X223840586Y-77658889D01*
X223911068Y-77488729D01*
X223947000Y-77308089D01*
X223947000Y-77123911D01*
X223911068Y-76943271D01*
X223840586Y-76773111D01*
X223738262Y-76619972D01*
X223608028Y-76489738D01*
X223454889Y-76387414D01*
X223284729Y-76316932D01*
X223104089Y-76281000D01*
X222919911Y-76281000D01*
X222739271Y-76316932D01*
X222569111Y-76387414D01*
X222415972Y-76489738D01*
X222285738Y-76619972D01*
X222199200Y-76749486D01*
X222199200Y-76303090D01*
X222214262Y-76288028D01*
X222316586Y-76134889D01*
X222387068Y-75964729D01*
X222423000Y-75784089D01*
X222423000Y-75599911D01*
X222387068Y-75419271D01*
X222316586Y-75249111D01*
X222214262Y-75095972D01*
X222084028Y-74965738D01*
X221930889Y-74863414D01*
X221760729Y-74792932D01*
X221580089Y-74757000D01*
X221395911Y-74757000D01*
X221215271Y-74792932D01*
X221045111Y-74863414D01*
X220891972Y-74965738D01*
X220761738Y-75095972D01*
X220659414Y-75249111D01*
X220588932Y-75419271D01*
X220553000Y-75599911D01*
X220553000Y-75784089D01*
X220588932Y-75964729D01*
X220659414Y-76134889D01*
X220761738Y-76288028D01*
X220776800Y-76303090D01*
X220776801Y-80782863D01*
X220660889Y-80705414D01*
X220490729Y-80634932D01*
X220310089Y-80599000D01*
X220125911Y-80599000D01*
X219945271Y-80634932D01*
X219775111Y-80705414D01*
X219621972Y-80807738D01*
X219606910Y-80822800D01*
X207298928Y-80822800D01*
X207264000Y-80819360D01*
X207229071Y-80822800D01*
X207229064Y-80822800D01*
X207124580Y-80833091D01*
X206990518Y-80873758D01*
X206866967Y-80939798D01*
X206785809Y-81006402D01*
X206785804Y-81006407D01*
X206758673Y-81028673D01*
X206736407Y-81055804D01*
X204399213Y-83393000D01*
X204377911Y-83393000D01*
X204197271Y-83428932D01*
X204027111Y-83499414D01*
X203873972Y-83601738D01*
X203743738Y-83731972D01*
X203641414Y-83885111D01*
X203570932Y-84055271D01*
X203535000Y-84235911D01*
X203535000Y-84420089D01*
X203570932Y-84600729D01*
X203641414Y-84770889D01*
X203743738Y-84924028D01*
X203873972Y-85054262D01*
X204027111Y-85156586D01*
X204197271Y-85227068D01*
X204377911Y-85263000D01*
X204562089Y-85263000D01*
X204742729Y-85227068D01*
X204912889Y-85156586D01*
X205066028Y-85054262D01*
X205196262Y-84924028D01*
X205298586Y-84770889D01*
X205369068Y-84600729D01*
X205405000Y-84420089D01*
X205405000Y-84398787D01*
X207558589Y-82245200D01*
X219606910Y-82245200D01*
X219621972Y-82260262D01*
X219775111Y-82362586D01*
X219945271Y-82433068D01*
X220125911Y-82469000D01*
X220310089Y-82469000D01*
X220490729Y-82433068D01*
X220660889Y-82362586D01*
X220776801Y-82285136D01*
X220776801Y-84922411D01*
X220768972Y-84930241D01*
X220491260Y-84875000D01*
X220198740Y-84875000D01*
X219911842Y-84932068D01*
X219641589Y-85044010D01*
X219398368Y-85206525D01*
X219191525Y-85413368D01*
X219069805Y-85595534D01*
X219000178Y-85478645D01*
X218805269Y-85262412D01*
X218571920Y-85088359D01*
X218309099Y-84963175D01*
X218161890Y-84918524D01*
X217932000Y-85039845D01*
X217932000Y-86233000D01*
X217952000Y-86233000D01*
X217952000Y-86487000D01*
X217932000Y-86487000D01*
X217932000Y-86507000D01*
X217678000Y-86507000D01*
X217678000Y-86487000D01*
X217658000Y-86487000D01*
X217658000Y-86233000D01*
X217678000Y-86233000D01*
X217678000Y-85039845D01*
X217448110Y-84918524D01*
X217300901Y-84963175D01*
X217038080Y-85088359D01*
X216804731Y-85262412D01*
X216728966Y-85346466D01*
X216704502Y-85265820D01*
X216645537Y-85155506D01*
X216566185Y-85058815D01*
X216469494Y-84979463D01*
X216359180Y-84920498D01*
X216239482Y-84884188D01*
X216115000Y-84871928D01*
X214415000Y-84871928D01*
X214290518Y-84884188D01*
X214170820Y-84920498D01*
X214060506Y-84979463D01*
X213963815Y-85058815D01*
X213884463Y-85155506D01*
X213825498Y-85265820D01*
X213789188Y-85385518D01*
X213776928Y-85510000D01*
X213776928Y-86727401D01*
X197018288Y-86727401D01*
X197021476Y-86716890D01*
X196900155Y-86487000D01*
X195707000Y-86487000D01*
X195707000Y-86507000D01*
X195453000Y-86507000D01*
X195453000Y-86487000D01*
X195433000Y-86487000D01*
X195433000Y-86233000D01*
X195453000Y-86233000D01*
X195453000Y-83947000D01*
X195707000Y-83947000D01*
X195707000Y-86233000D01*
X196900155Y-86233000D01*
X197021476Y-86003110D01*
X196976825Y-85855901D01*
X196851641Y-85593080D01*
X196677588Y-85359731D01*
X196461355Y-85164822D01*
X196335745Y-85090000D01*
X196461355Y-85015178D01*
X196677588Y-84820269D01*
X196851641Y-84586920D01*
X196976825Y-84324099D01*
X197021476Y-84176890D01*
X196900155Y-83947000D01*
X195707000Y-83947000D01*
X195453000Y-83947000D01*
X195433000Y-83947000D01*
X195433000Y-83693000D01*
X195453000Y-83693000D01*
X195453000Y-81407000D01*
X195707000Y-81407000D01*
X195707000Y-83693000D01*
X196900155Y-83693000D01*
X197021476Y-83463110D01*
X196976825Y-83315901D01*
X196851641Y-83053080D01*
X196677588Y-82819731D01*
X196461355Y-82624822D01*
X196335745Y-82550000D01*
X196461355Y-82475178D01*
X196677588Y-82280269D01*
X196851641Y-82046920D01*
X196976825Y-81784099D01*
X197021476Y-81636890D01*
X196900155Y-81407000D01*
X195707000Y-81407000D01*
X195453000Y-81407000D01*
X195433000Y-81407000D01*
X195433000Y-81153000D01*
X195453000Y-81153000D01*
X195453000Y-79959186D01*
X195707000Y-79959186D01*
X195707000Y-81153000D01*
X196900155Y-81153000D01*
X197021476Y-80923110D01*
X196976825Y-80775901D01*
X196851641Y-80513080D01*
X196677588Y-80279731D01*
X196461355Y-80084822D01*
X196211252Y-79935843D01*
X195936891Y-79838519D01*
X195707000Y-79959186D01*
X195453000Y-79959186D01*
X195223109Y-79838519D01*
X194948748Y-79935843D01*
X194698645Y-80084822D01*
X194482412Y-80279731D01*
X194311100Y-80509406D01*
X194193475Y-80333368D01*
X193986632Y-80126525D01*
X193743411Y-79964010D01*
X193473158Y-79852068D01*
X193186260Y-79795000D01*
X192893740Y-79795000D01*
X192606842Y-79852068D01*
X192336589Y-79964010D01*
X192093368Y-80126525D01*
X191886525Y-80333368D01*
X191724010Y-80576589D01*
X191612068Y-80846842D01*
X191555000Y-81133740D01*
X191555000Y-81426260D01*
X191612068Y-81713158D01*
X191724010Y-81983411D01*
X191886525Y-82226632D01*
X192093368Y-82433475D01*
X192267760Y-82550000D01*
X192093368Y-82666525D01*
X191886525Y-82873368D01*
X191724010Y-83116589D01*
X191612068Y-83386842D01*
X191555000Y-83673740D01*
X191555000Y-83966260D01*
X191612068Y-84253158D01*
X191724010Y-84523411D01*
X191886525Y-84766632D01*
X192018380Y-84898487D01*
X191945820Y-84920498D01*
X191835506Y-84979463D01*
X191738815Y-85058815D01*
X191659463Y-85155506D01*
X191600498Y-85265820D01*
X191564188Y-85385518D01*
X191551928Y-85510000D01*
X191160000Y-85510000D01*
X191160000Y-76278438D01*
X196151505Y-76278438D01*
X196190605Y-76518549D01*
X196275798Y-76746418D01*
X196316652Y-76822852D01*
X196540236Y-76870159D01*
X197210395Y-76200000D01*
X196540236Y-75529841D01*
X196316652Y-75577148D01*
X196215763Y-75798516D01*
X196160000Y-76035313D01*
X196151505Y-76278438D01*
X191160000Y-76278438D01*
X191160000Y-75350236D01*
X196719841Y-75350236D01*
X197390000Y-76020395D01*
X197404143Y-76006253D01*
X197583748Y-76185858D01*
X197569605Y-76200000D01*
X197583748Y-76214143D01*
X197404143Y-76393748D01*
X197390000Y-76379605D01*
X196719841Y-77049764D01*
X196767148Y-77273348D01*
X196988516Y-77374237D01*
X197225313Y-77430000D01*
X197468438Y-77438495D01*
X197708549Y-77399395D01*
X197936418Y-77314202D01*
X198012852Y-77273348D01*
X198060158Y-77049766D01*
X198177264Y-77166872D01*
X198235142Y-77108994D01*
X198259463Y-77154494D01*
X198338815Y-77251185D01*
X198435506Y-77330537D01*
X198545820Y-77389502D01*
X198665518Y-77425812D01*
X198790000Y-77438072D01*
X199990000Y-77438072D01*
X200114482Y-77425812D01*
X200234180Y-77389502D01*
X200344494Y-77330537D01*
X200441185Y-77251185D01*
X200520537Y-77154494D01*
X200579502Y-77044180D01*
X200615812Y-76924482D01*
X200628072Y-76800000D01*
X200628072Y-75600000D01*
X200622019Y-75538531D01*
X214449389Y-75538531D01*
X214491401Y-75828019D01*
X214589081Y-76103747D01*
X214629759Y-76179850D01*
X214559463Y-76265506D01*
X214500498Y-76375820D01*
X214464188Y-76495518D01*
X214451928Y-76620000D01*
X214451928Y-78320000D01*
X214464188Y-78444482D01*
X214500498Y-78564180D01*
X214559463Y-78674494D01*
X214638815Y-78771185D01*
X214735506Y-78850537D01*
X214845820Y-78909502D01*
X214965518Y-78945812D01*
X215090000Y-78958072D01*
X216790000Y-78958072D01*
X216914482Y-78945812D01*
X217034180Y-78909502D01*
X217144494Y-78850537D01*
X217241185Y-78771185D01*
X217320537Y-78674494D01*
X217379502Y-78564180D01*
X217392203Y-78522310D01*
X217493368Y-78623475D01*
X217736589Y-78785990D01*
X218006842Y-78897932D01*
X218293740Y-78955000D01*
X218586260Y-78955000D01*
X218873158Y-78897932D01*
X219143411Y-78785990D01*
X219386632Y-78623475D01*
X219593475Y-78416632D01*
X219755990Y-78173411D01*
X219867932Y-77903158D01*
X219925000Y-77616260D01*
X219925000Y-77323740D01*
X219867932Y-77036842D01*
X219755990Y-76766589D01*
X219593475Y-76523368D01*
X219540107Y-76470000D01*
X219593475Y-76416632D01*
X219755990Y-76173411D01*
X219867932Y-75903158D01*
X219925000Y-75616260D01*
X219925000Y-75323740D01*
X219867932Y-75036842D01*
X219755990Y-74766589D01*
X219593475Y-74523368D01*
X219386632Y-74316525D01*
X219143411Y-74154010D01*
X218873158Y-74042068D01*
X218586260Y-73985000D01*
X218293740Y-73985000D01*
X218006842Y-74042068D01*
X217736589Y-74154010D01*
X217493368Y-74316525D01*
X217286525Y-74523368D01*
X217177584Y-74686410D01*
X216968397Y-74621208D01*
X216119605Y-75470000D01*
X216133748Y-75484143D01*
X215954143Y-75663748D01*
X215940000Y-75649605D01*
X215925858Y-75663748D01*
X215746253Y-75484143D01*
X215760395Y-75470000D01*
X214911603Y-74621208D01*
X214662528Y-74698843D01*
X214536629Y-74962883D01*
X214464661Y-75246411D01*
X214449389Y-75538531D01*
X200622019Y-75538531D01*
X200615812Y-75475518D01*
X200579502Y-75355820D01*
X200520537Y-75245506D01*
X200441185Y-75148815D01*
X200344494Y-75069463D01*
X200234180Y-75010498D01*
X200114482Y-74974188D01*
X199990000Y-74961928D01*
X198790000Y-74961928D01*
X198665518Y-74974188D01*
X198545820Y-75010498D01*
X198435506Y-75069463D01*
X198338815Y-75148815D01*
X198259463Y-75245506D01*
X198235142Y-75291006D01*
X198177264Y-75233128D01*
X198060158Y-75350234D01*
X198012852Y-75126652D01*
X197791484Y-75025763D01*
X197554687Y-74970000D01*
X197311562Y-74961505D01*
X197071451Y-75000605D01*
X196843582Y-75085798D01*
X196767148Y-75126652D01*
X196719841Y-75350236D01*
X191160000Y-75350236D01*
X191160000Y-72525098D01*
X208785000Y-72525098D01*
X208785000Y-72994902D01*
X208876654Y-73455679D01*
X209056440Y-73889721D01*
X209317450Y-74280349D01*
X209649651Y-74612550D01*
X210040279Y-74873560D01*
X210474321Y-75053346D01*
X210935098Y-75145000D01*
X211404902Y-75145000D01*
X211865679Y-75053346D01*
X212299721Y-74873560D01*
X212690349Y-74612550D01*
X212861296Y-74441603D01*
X215091208Y-74441603D01*
X215940000Y-75290395D01*
X216788792Y-74441603D01*
X216711157Y-74192528D01*
X216447117Y-74066629D01*
X216163589Y-73994661D01*
X215871469Y-73979389D01*
X215581981Y-74021401D01*
X215306253Y-74119081D01*
X215168843Y-74192528D01*
X215091208Y-74441603D01*
X212861296Y-74441603D01*
X213022550Y-74280349D01*
X213283560Y-73889721D01*
X213456917Y-73471200D01*
X220923083Y-73471200D01*
X221096440Y-73889721D01*
X221357450Y-74280349D01*
X221689651Y-74612550D01*
X222080279Y-74873560D01*
X222514321Y-75053346D01*
X222975098Y-75145000D01*
X223444902Y-75145000D01*
X223905679Y-75053346D01*
X224339721Y-74873560D01*
X224730349Y-74612550D01*
X225062550Y-74280349D01*
X225323560Y-73889721D01*
X225503346Y-73455679D01*
X225595000Y-72994902D01*
X225595000Y-72525098D01*
X225503346Y-72064321D01*
X225323560Y-71630279D01*
X225062550Y-71239651D01*
X224730349Y-70907450D01*
X224339721Y-70646440D01*
X223905679Y-70466654D01*
X223444902Y-70375000D01*
X222975098Y-70375000D01*
X222514321Y-70466654D01*
X222080279Y-70646440D01*
X221689651Y-70907450D01*
X221357450Y-71239651D01*
X221096440Y-71630279D01*
X220923083Y-72048800D01*
X213456917Y-72048800D01*
X213283560Y-71630279D01*
X213022550Y-71239651D01*
X212690349Y-70907450D01*
X212299721Y-70646440D01*
X211865679Y-70466654D01*
X211404902Y-70375000D01*
X210935098Y-70375000D01*
X210474321Y-70466654D01*
X210040279Y-70646440D01*
X209649651Y-70907450D01*
X209317450Y-71239651D01*
X209056440Y-71630279D01*
X208876654Y-72064321D01*
X208785000Y-72525098D01*
X191160000Y-72525098D01*
X191160000Y-63532279D01*
X191174722Y-63382131D01*
X191208953Y-63268754D01*
X191264555Y-63164181D01*
X191339407Y-63072404D01*
X191430664Y-62996909D01*
X191534844Y-62940581D01*
X191647976Y-62905560D01*
X191796022Y-62890000D01*
X242537721Y-62890000D01*
X242687869Y-62904722D01*
%TA.AperFunction,Conductor*%
D20*
G36*
X242687869Y-62904722D02*
G01*
X242801246Y-62938953D01*
X242905819Y-62994555D01*
X242997596Y-63069407D01*
X243073091Y-63160664D01*
X243129419Y-63264844D01*
X243164440Y-63377976D01*
X243180000Y-63526022D01*
X243180001Y-87597711D01*
X243165278Y-87747869D01*
X243131047Y-87861246D01*
X243075446Y-87965817D01*
X243000594Y-88057595D01*
X242909335Y-88133091D01*
X242805160Y-88189419D01*
X242692024Y-88224440D01*
X242543979Y-88240000D01*
X191802279Y-88240000D01*
X191652131Y-88225278D01*
X191538754Y-88191047D01*
X191434183Y-88135446D01*
X191342405Y-88060594D01*
X191266909Y-87969335D01*
X191210581Y-87865160D01*
X191175560Y-87752024D01*
X191160000Y-87603979D01*
X191160000Y-85510000D01*
X191551928Y-85510000D01*
X191551928Y-87210000D01*
X191564188Y-87334482D01*
X191600498Y-87454180D01*
X191659463Y-87564494D01*
X191738815Y-87661185D01*
X191835506Y-87740537D01*
X191945820Y-87799502D01*
X192065518Y-87835812D01*
X192190000Y-87848072D01*
X193468401Y-87848072D01*
X193600847Y-87980518D01*
X193624303Y-88009099D01*
X193652884Y-88032555D01*
X193652891Y-88032562D01*
X193737880Y-88102310D01*
X193738398Y-88102735D01*
X193868569Y-88172313D01*
X194009813Y-88215159D01*
X194119895Y-88226001D01*
X194119905Y-88226001D01*
X194156701Y-88229625D01*
X194193497Y-88226001D01*
X214746504Y-88226001D01*
X214783299Y-88229625D01*
X214820094Y-88226001D01*
X237606504Y-88226001D01*
X237643299Y-88229625D01*
X237680094Y-88226001D01*
X237680105Y-88226001D01*
X237790187Y-88215159D01*
X237931431Y-88172313D01*
X238061602Y-88102735D01*
X238175697Y-88009099D01*
X238199162Y-87980507D01*
X238331597Y-87848072D01*
X239610000Y-87848072D01*
X239734482Y-87835812D01*
X239854180Y-87799502D01*
X239964494Y-87740537D01*
X240061185Y-87661185D01*
X240140537Y-87564494D01*
X240199502Y-87454180D01*
X240222498Y-87378374D01*
X240418645Y-87555178D01*
X240668748Y-87704157D01*
X240943109Y-87801481D01*
X241173000Y-87680814D01*
X241173000Y-86487000D01*
X241427000Y-86487000D01*
X241427000Y-87680814D01*
X241656891Y-87801481D01*
X241931252Y-87704157D01*
X242181355Y-87555178D01*
X242397588Y-87360269D01*
X242571641Y-87126920D01*
X242696825Y-86864099D01*
X242741476Y-86716890D01*
X242620155Y-86487000D01*
X241427000Y-86487000D01*
X241173000Y-86487000D01*
X241153000Y-86487000D01*
X241153000Y-86233000D01*
X241173000Y-86233000D01*
X241173000Y-83947000D01*
X241427000Y-83947000D01*
X241427000Y-86233000D01*
X242620155Y-86233000D01*
X242741476Y-86003110D01*
X242696825Y-85855901D01*
X242571641Y-85593080D01*
X242397588Y-85359731D01*
X242181355Y-85164822D01*
X242055745Y-85090000D01*
X242181355Y-85015178D01*
X242397588Y-84820269D01*
X242571641Y-84586920D01*
X242696825Y-84324099D01*
X242741476Y-84176890D01*
X242620155Y-83947000D01*
X241427000Y-83947000D01*
X241173000Y-83947000D01*
X241153000Y-83947000D01*
X241153000Y-83693000D01*
X241173000Y-83693000D01*
X241173000Y-81407000D01*
X241427000Y-81407000D01*
X241427000Y-83693000D01*
X242620155Y-83693000D01*
X242741476Y-83463110D01*
X242696825Y-83315901D01*
X242571641Y-83053080D01*
X242397588Y-82819731D01*
X242181355Y-82624822D01*
X242055745Y-82550000D01*
X242181355Y-82475178D01*
X242397588Y-82280269D01*
X242571641Y-82046920D01*
X242696825Y-81784099D01*
X242741476Y-81636890D01*
X242620155Y-81407000D01*
X241427000Y-81407000D01*
X241173000Y-81407000D01*
X241153000Y-81407000D01*
X241153000Y-81153000D01*
X241173000Y-81153000D01*
X241173000Y-79959186D01*
X241427000Y-79959186D01*
X241427000Y-81153000D01*
X242620155Y-81153000D01*
X242741476Y-80923110D01*
X242696825Y-80775901D01*
X242571641Y-80513080D01*
X242397588Y-80279731D01*
X242181355Y-80084822D01*
X241931252Y-79935843D01*
X241656891Y-79838519D01*
X241427000Y-79959186D01*
X241173000Y-79959186D01*
X240943109Y-79838519D01*
X240668748Y-79935843D01*
X240418645Y-80084822D01*
X240202412Y-80279731D01*
X240031100Y-80509406D01*
X239913475Y-80333368D01*
X239706632Y-80126525D01*
X239463411Y-79964010D01*
X239193158Y-79852068D01*
X238906260Y-79795000D01*
X238613740Y-79795000D01*
X238326842Y-79852068D01*
X238056589Y-79964010D01*
X237813368Y-80126525D01*
X237606525Y-80333368D01*
X237444010Y-80576589D01*
X237332068Y-80846842D01*
X237275000Y-81133740D01*
X237275000Y-81426260D01*
X237332068Y-81713158D01*
X237444010Y-81983411D01*
X237606525Y-82226632D01*
X237813368Y-82433475D01*
X237987760Y-82550000D01*
X237813368Y-82666525D01*
X237606525Y-82873368D01*
X237444010Y-83116589D01*
X237332068Y-83386842D01*
X237275000Y-83673740D01*
X237275000Y-83966260D01*
X237332068Y-84253158D01*
X237444010Y-84523411D01*
X237606525Y-84766632D01*
X237738380Y-84898487D01*
X237665820Y-84920498D01*
X237555506Y-84979463D01*
X237458815Y-85058815D01*
X237379463Y-85155506D01*
X237320498Y-85265820D01*
X237284188Y-85385518D01*
X237271928Y-85510000D01*
X237271928Y-86727401D01*
X234486012Y-86727401D01*
X234530000Y-86506260D01*
X234530000Y-86213740D01*
X234472932Y-85926842D01*
X234360990Y-85656589D01*
X234198475Y-85413368D01*
X233991632Y-85206525D01*
X233756200Y-85049214D01*
X233756200Y-75156165D01*
X233768028Y-75148262D01*
X233898262Y-75018028D01*
X234000586Y-74864889D01*
X234071068Y-74694729D01*
X234107000Y-74514089D01*
X234107000Y-74329911D01*
X234071068Y-74149271D01*
X234000586Y-73979111D01*
X233898262Y-73825972D01*
X233848251Y-73775961D01*
X233853000Y-73752089D01*
X233853000Y-73567911D01*
X233817068Y-73387271D01*
X233746586Y-73217111D01*
X233644262Y-73063972D01*
X233514028Y-72933738D01*
X233360889Y-72831414D01*
X233190729Y-72760932D01*
X233010089Y-72725000D01*
X232825911Y-72725000D01*
X232645271Y-72760932D01*
X232475111Y-72831414D01*
X232321972Y-72933738D01*
X232191738Y-73063972D01*
X232089414Y-73217111D01*
X232018932Y-73387271D01*
X231983000Y-73567911D01*
X231983000Y-73589213D01*
X231911208Y-73661005D01*
X231884073Y-73683274D01*
X231861803Y-73710410D01*
X231861802Y-73710411D01*
X231795197Y-73791569D01*
X231764986Y-73848091D01*
X231729158Y-73915120D01*
X231688491Y-74049181D01*
X231678199Y-74153665D01*
X231678199Y-74153675D01*
X231674759Y-74188601D01*
X231678199Y-74223527D01*
X231678199Y-75021803D01*
X231674759Y-75056729D01*
X231678199Y-75091655D01*
X231678200Y-84181011D01*
X230928971Y-84930241D01*
X230651260Y-84875000D01*
X230358740Y-84875000D01*
X230073560Y-84931726D01*
X230073200Y-84928075D01*
X230073200Y-78221137D01*
X230189111Y-78298586D01*
X230359271Y-78369068D01*
X230539911Y-78405000D01*
X230724089Y-78405000D01*
X230904729Y-78369068D01*
X231074889Y-78298586D01*
X231228028Y-78196262D01*
X231358262Y-78066028D01*
X231460586Y-77912889D01*
X231531068Y-77742729D01*
X231567000Y-77562089D01*
X231567000Y-77377911D01*
X231531068Y-77197271D01*
X231460586Y-77027111D01*
X231358262Y-76873972D01*
X231343200Y-76858910D01*
X231343200Y-71270898D01*
X231412729Y-71257068D01*
X231582889Y-71186586D01*
X231736028Y-71084262D01*
X231866262Y-70954028D01*
X231968586Y-70800889D01*
X232039068Y-70630729D01*
X232075000Y-70450089D01*
X232075000Y-70265911D01*
X232039068Y-70085271D01*
X231968586Y-69915111D01*
X231866262Y-69761972D01*
X231736028Y-69631738D01*
X231582889Y-69529414D01*
X231412729Y-69458932D01*
X231232089Y-69423000D01*
X231047911Y-69423000D01*
X230867271Y-69458932D01*
X230697111Y-69529414D01*
X230543972Y-69631738D01*
X230413738Y-69761972D01*
X230311414Y-69915111D01*
X230240932Y-70085271D01*
X230205000Y-70265911D01*
X230205000Y-70287213D01*
X230153809Y-70338404D01*
X230126674Y-70360673D01*
X230104404Y-70387809D01*
X230104403Y-70387810D01*
X230037798Y-70468968D01*
X229971759Y-70592519D01*
X229931092Y-70726580D01*
X229923773Y-70800889D01*
X229917360Y-70866000D01*
X229920801Y-70900936D01*
X229920801Y-73162864D01*
X229804889Y-73085414D01*
X229634729Y-73014932D01*
X229454089Y-72979000D01*
X229269911Y-72979000D01*
X229089271Y-73014932D01*
X228919111Y-73085414D01*
X228765972Y-73187738D01*
X228635738Y-73317972D01*
X228533414Y-73471111D01*
X228462932Y-73641271D01*
X228427000Y-73821911D01*
X228427000Y-74006089D01*
X228462932Y-74186729D01*
X228533414Y-74356889D01*
X228635738Y-74510028D01*
X228650801Y-74525091D01*
X228650800Y-84668411D01*
X228388971Y-84930241D01*
X228111260Y-84875000D01*
X227818740Y-84875000D01*
X227531842Y-84932068D01*
X227261589Y-85044010D01*
X227018368Y-85206525D01*
X226811525Y-85413368D01*
X226695000Y-85587760D01*
X226578475Y-85413368D01*
X226371632Y-85206525D01*
X226136200Y-85049214D01*
X226136200Y-77129587D01*
X226638788Y-76627000D01*
X226660089Y-76627000D01*
X226840729Y-76591068D01*
X227010889Y-76520586D01*
X227164028Y-76418262D01*
X227294262Y-76288028D01*
X227396586Y-76134889D01*
X227467068Y-75964729D01*
X227503000Y-75784089D01*
X227503000Y-75599911D01*
X227467068Y-75419271D01*
X227396586Y-75249111D01*
X227294262Y-75095972D01*
X227164028Y-74965738D01*
X227010889Y-74863414D01*
X226840729Y-74792932D01*
X226660089Y-74757000D01*
X226475911Y-74757000D01*
X226295271Y-74792932D01*
X226125111Y-74863414D01*
X225971972Y-74965738D01*
X225841738Y-75095972D01*
X225739414Y-75249111D01*
X225668932Y-75419271D01*
X225633000Y-75599911D01*
X225633000Y-75621212D01*
X224946810Y-76307403D01*
X224919674Y-76329673D01*
X224897404Y-76356809D01*
X224897403Y-76356810D01*
X224830798Y-76437968D01*
X224789575Y-76515092D01*
X224764759Y-76561519D01*
X224724092Y-76695580D01*
X224719349Y-76743738D01*
X224710360Y-76835000D01*
X224713801Y-76869936D01*
X224713800Y-85049214D01*
X224478368Y-85206525D01*
X224271525Y-85413368D01*
X224155000Y-85587760D01*
X224038475Y-85413368D01*
X223831632Y-85206525D01*
X223596200Y-85049214D01*
X223596200Y-77950165D01*
X223608028Y-77942262D01*
X223738262Y-77812028D01*
X223840586Y-77658889D01*
X223911068Y-77488729D01*
X223947000Y-77308089D01*
X223947000Y-77123911D01*
X223911068Y-76943271D01*
X223840586Y-76773111D01*
X223738262Y-76619972D01*
X223608028Y-76489738D01*
X223454889Y-76387414D01*
X223284729Y-76316932D01*
X223104089Y-76281000D01*
X222919911Y-76281000D01*
X222739271Y-76316932D01*
X222569111Y-76387414D01*
X222415972Y-76489738D01*
X222285738Y-76619972D01*
X222199200Y-76749486D01*
X222199200Y-76303090D01*
X222214262Y-76288028D01*
X222316586Y-76134889D01*
X222387068Y-75964729D01*
X222423000Y-75784089D01*
X222423000Y-75599911D01*
X222387068Y-75419271D01*
X222316586Y-75249111D01*
X222214262Y-75095972D01*
X222084028Y-74965738D01*
X221930889Y-74863414D01*
X221760729Y-74792932D01*
X221580089Y-74757000D01*
X221395911Y-74757000D01*
X221215271Y-74792932D01*
X221045111Y-74863414D01*
X220891972Y-74965738D01*
X220761738Y-75095972D01*
X220659414Y-75249111D01*
X220588932Y-75419271D01*
X220553000Y-75599911D01*
X220553000Y-75784089D01*
X220588932Y-75964729D01*
X220659414Y-76134889D01*
X220761738Y-76288028D01*
X220776800Y-76303090D01*
X220776801Y-80782863D01*
X220660889Y-80705414D01*
X220490729Y-80634932D01*
X220310089Y-80599000D01*
X220125911Y-80599000D01*
X219945271Y-80634932D01*
X219775111Y-80705414D01*
X219621972Y-80807738D01*
X219606910Y-80822800D01*
X207298928Y-80822800D01*
X207264000Y-80819360D01*
X207229071Y-80822800D01*
X207229064Y-80822800D01*
X207124580Y-80833091D01*
X206990518Y-80873758D01*
X206866967Y-80939798D01*
X206785809Y-81006402D01*
X206785804Y-81006407D01*
X206758673Y-81028673D01*
X206736407Y-81055804D01*
X204399213Y-83393000D01*
X204377911Y-83393000D01*
X204197271Y-83428932D01*
X204027111Y-83499414D01*
X203873972Y-83601738D01*
X203743738Y-83731972D01*
X203641414Y-83885111D01*
X203570932Y-84055271D01*
X203535000Y-84235911D01*
X203535000Y-84420089D01*
X203570932Y-84600729D01*
X203641414Y-84770889D01*
X203743738Y-84924028D01*
X203873972Y-85054262D01*
X204027111Y-85156586D01*
X204197271Y-85227068D01*
X204377911Y-85263000D01*
X204562089Y-85263000D01*
X204742729Y-85227068D01*
X204912889Y-85156586D01*
X205066028Y-85054262D01*
X205196262Y-84924028D01*
X205298586Y-84770889D01*
X205369068Y-84600729D01*
X205405000Y-84420089D01*
X205405000Y-84398787D01*
X207558589Y-82245200D01*
X219606910Y-82245200D01*
X219621972Y-82260262D01*
X219775111Y-82362586D01*
X219945271Y-82433068D01*
X220125911Y-82469000D01*
X220310089Y-82469000D01*
X220490729Y-82433068D01*
X220660889Y-82362586D01*
X220776801Y-82285136D01*
X220776801Y-84922411D01*
X220768972Y-84930241D01*
X220491260Y-84875000D01*
X220198740Y-84875000D01*
X219911842Y-84932068D01*
X219641589Y-85044010D01*
X219398368Y-85206525D01*
X219191525Y-85413368D01*
X219069805Y-85595534D01*
X219000178Y-85478645D01*
X218805269Y-85262412D01*
X218571920Y-85088359D01*
X218309099Y-84963175D01*
X218161890Y-84918524D01*
X217932000Y-85039845D01*
X217932000Y-86233000D01*
X217952000Y-86233000D01*
X217952000Y-86487000D01*
X217932000Y-86487000D01*
X217932000Y-86507000D01*
X217678000Y-86507000D01*
X217678000Y-86487000D01*
X217658000Y-86487000D01*
X217658000Y-86233000D01*
X217678000Y-86233000D01*
X217678000Y-85039845D01*
X217448110Y-84918524D01*
X217300901Y-84963175D01*
X217038080Y-85088359D01*
X216804731Y-85262412D01*
X216728966Y-85346466D01*
X216704502Y-85265820D01*
X216645537Y-85155506D01*
X216566185Y-85058815D01*
X216469494Y-84979463D01*
X216359180Y-84920498D01*
X216239482Y-84884188D01*
X216115000Y-84871928D01*
X214415000Y-84871928D01*
X214290518Y-84884188D01*
X214170820Y-84920498D01*
X214060506Y-84979463D01*
X213963815Y-85058815D01*
X213884463Y-85155506D01*
X213825498Y-85265820D01*
X213789188Y-85385518D01*
X213776928Y-85510000D01*
X213776928Y-86727401D01*
X197018288Y-86727401D01*
X197021476Y-86716890D01*
X196900155Y-86487000D01*
X195707000Y-86487000D01*
X195707000Y-86507000D01*
X195453000Y-86507000D01*
X195453000Y-86487000D01*
X195433000Y-86487000D01*
X195433000Y-86233000D01*
X195453000Y-86233000D01*
X195453000Y-83947000D01*
X195707000Y-83947000D01*
X195707000Y-86233000D01*
X196900155Y-86233000D01*
X197021476Y-86003110D01*
X196976825Y-85855901D01*
X196851641Y-85593080D01*
X196677588Y-85359731D01*
X196461355Y-85164822D01*
X196335745Y-85090000D01*
X196461355Y-85015178D01*
X196677588Y-84820269D01*
X196851641Y-84586920D01*
X196976825Y-84324099D01*
X197021476Y-84176890D01*
X196900155Y-83947000D01*
X195707000Y-83947000D01*
X195453000Y-83947000D01*
X195433000Y-83947000D01*
X195433000Y-83693000D01*
X195453000Y-83693000D01*
X195453000Y-81407000D01*
X195707000Y-81407000D01*
X195707000Y-83693000D01*
X196900155Y-83693000D01*
X197021476Y-83463110D01*
X196976825Y-83315901D01*
X196851641Y-83053080D01*
X196677588Y-82819731D01*
X196461355Y-82624822D01*
X196335745Y-82550000D01*
X196461355Y-82475178D01*
X196677588Y-82280269D01*
X196851641Y-82046920D01*
X196976825Y-81784099D01*
X197021476Y-81636890D01*
X196900155Y-81407000D01*
X195707000Y-81407000D01*
X195453000Y-81407000D01*
X195433000Y-81407000D01*
X195433000Y-81153000D01*
X195453000Y-81153000D01*
X195453000Y-79959186D01*
X195707000Y-79959186D01*
X195707000Y-81153000D01*
X196900155Y-81153000D01*
X197021476Y-80923110D01*
X196976825Y-80775901D01*
X196851641Y-80513080D01*
X196677588Y-80279731D01*
X196461355Y-80084822D01*
X196211252Y-79935843D01*
X195936891Y-79838519D01*
X195707000Y-79959186D01*
X195453000Y-79959186D01*
X195223109Y-79838519D01*
X194948748Y-79935843D01*
X194698645Y-80084822D01*
X194482412Y-80279731D01*
X194311100Y-80509406D01*
X194193475Y-80333368D01*
X193986632Y-80126525D01*
X193743411Y-79964010D01*
X193473158Y-79852068D01*
X193186260Y-79795000D01*
X192893740Y-79795000D01*
X192606842Y-79852068D01*
X192336589Y-79964010D01*
X192093368Y-80126525D01*
X191886525Y-80333368D01*
X191724010Y-80576589D01*
X191612068Y-80846842D01*
X191555000Y-81133740D01*
X191555000Y-81426260D01*
X191612068Y-81713158D01*
X191724010Y-81983411D01*
X191886525Y-82226632D01*
X192093368Y-82433475D01*
X192267760Y-82550000D01*
X192093368Y-82666525D01*
X191886525Y-82873368D01*
X191724010Y-83116589D01*
X191612068Y-83386842D01*
X191555000Y-83673740D01*
X191555000Y-83966260D01*
X191612068Y-84253158D01*
X191724010Y-84523411D01*
X191886525Y-84766632D01*
X192018380Y-84898487D01*
X191945820Y-84920498D01*
X191835506Y-84979463D01*
X191738815Y-85058815D01*
X191659463Y-85155506D01*
X191600498Y-85265820D01*
X191564188Y-85385518D01*
X191551928Y-85510000D01*
X191160000Y-85510000D01*
X191160000Y-76278438D01*
X196151505Y-76278438D01*
X196190605Y-76518549D01*
X196275798Y-76746418D01*
X196316652Y-76822852D01*
X196540236Y-76870159D01*
X197210395Y-76200000D01*
X196540236Y-75529841D01*
X196316652Y-75577148D01*
X196215763Y-75798516D01*
X196160000Y-76035313D01*
X196151505Y-76278438D01*
X191160000Y-76278438D01*
X191160000Y-75350236D01*
X196719841Y-75350236D01*
X197390000Y-76020395D01*
X197404143Y-76006253D01*
X197583748Y-76185858D01*
X197569605Y-76200000D01*
X197583748Y-76214143D01*
X197404143Y-76393748D01*
X197390000Y-76379605D01*
X196719841Y-77049764D01*
X196767148Y-77273348D01*
X196988516Y-77374237D01*
X197225313Y-77430000D01*
X197468438Y-77438495D01*
X197708549Y-77399395D01*
X197936418Y-77314202D01*
X198012852Y-77273348D01*
X198060158Y-77049766D01*
X198177264Y-77166872D01*
X198235142Y-77108994D01*
X198259463Y-77154494D01*
X198338815Y-77251185D01*
X198435506Y-77330537D01*
X198545820Y-77389502D01*
X198665518Y-77425812D01*
X198790000Y-77438072D01*
X199990000Y-77438072D01*
X200114482Y-77425812D01*
X200234180Y-77389502D01*
X200344494Y-77330537D01*
X200441185Y-77251185D01*
X200520537Y-77154494D01*
X200579502Y-77044180D01*
X200615812Y-76924482D01*
X200628072Y-76800000D01*
X200628072Y-75600000D01*
X200622019Y-75538531D01*
X214449389Y-75538531D01*
X214491401Y-75828019D01*
X214589081Y-76103747D01*
X214629759Y-76179850D01*
X214559463Y-76265506D01*
X214500498Y-76375820D01*
X214464188Y-76495518D01*
X214451928Y-76620000D01*
X214451928Y-78320000D01*
X214464188Y-78444482D01*
X214500498Y-78564180D01*
X214559463Y-78674494D01*
X214638815Y-78771185D01*
X214735506Y-78850537D01*
X214845820Y-78909502D01*
X214965518Y-78945812D01*
X215090000Y-78958072D01*
X216790000Y-78958072D01*
X216914482Y-78945812D01*
X217034180Y-78909502D01*
X217144494Y-78850537D01*
X217241185Y-78771185D01*
X217320537Y-78674494D01*
X217379502Y-78564180D01*
X217392203Y-78522310D01*
X217493368Y-78623475D01*
X217736589Y-78785990D01*
X218006842Y-78897932D01*
X218293740Y-78955000D01*
X218586260Y-78955000D01*
X218873158Y-78897932D01*
X219143411Y-78785990D01*
X219386632Y-78623475D01*
X219593475Y-78416632D01*
X219755990Y-78173411D01*
X219867932Y-77903158D01*
X219925000Y-77616260D01*
X219925000Y-77323740D01*
X219867932Y-77036842D01*
X219755990Y-76766589D01*
X219593475Y-76523368D01*
X219540107Y-76470000D01*
X219593475Y-76416632D01*
X219755990Y-76173411D01*
X219867932Y-75903158D01*
X219925000Y-75616260D01*
X219925000Y-75323740D01*
X219867932Y-75036842D01*
X219755990Y-74766589D01*
X219593475Y-74523368D01*
X219386632Y-74316525D01*
X219143411Y-74154010D01*
X218873158Y-74042068D01*
X218586260Y-73985000D01*
X218293740Y-73985000D01*
X218006842Y-74042068D01*
X217736589Y-74154010D01*
X217493368Y-74316525D01*
X217286525Y-74523368D01*
X217177584Y-74686410D01*
X216968397Y-74621208D01*
X216119605Y-75470000D01*
X216133748Y-75484143D01*
X215954143Y-75663748D01*
X215940000Y-75649605D01*
X215925858Y-75663748D01*
X215746253Y-75484143D01*
X215760395Y-75470000D01*
X214911603Y-74621208D01*
X214662528Y-74698843D01*
X214536629Y-74962883D01*
X214464661Y-75246411D01*
X214449389Y-75538531D01*
X200622019Y-75538531D01*
X200615812Y-75475518D01*
X200579502Y-75355820D01*
X200520537Y-75245506D01*
X200441185Y-75148815D01*
X200344494Y-75069463D01*
X200234180Y-75010498D01*
X200114482Y-74974188D01*
X199990000Y-74961928D01*
X198790000Y-74961928D01*
X198665518Y-74974188D01*
X198545820Y-75010498D01*
X198435506Y-75069463D01*
X198338815Y-75148815D01*
X198259463Y-75245506D01*
X198235142Y-75291006D01*
X198177264Y-75233128D01*
X198060158Y-75350234D01*
X198012852Y-75126652D01*
X197791484Y-75025763D01*
X197554687Y-74970000D01*
X197311562Y-74961505D01*
X197071451Y-75000605D01*
X196843582Y-75085798D01*
X196767148Y-75126652D01*
X196719841Y-75350236D01*
X191160000Y-75350236D01*
X191160000Y-72525098D01*
X208785000Y-72525098D01*
X208785000Y-72994902D01*
X208876654Y-73455679D01*
X209056440Y-73889721D01*
X209317450Y-74280349D01*
X209649651Y-74612550D01*
X210040279Y-74873560D01*
X210474321Y-75053346D01*
X210935098Y-75145000D01*
X211404902Y-75145000D01*
X211865679Y-75053346D01*
X212299721Y-74873560D01*
X212690349Y-74612550D01*
X212861296Y-74441603D01*
X215091208Y-74441603D01*
X215940000Y-75290395D01*
X216788792Y-74441603D01*
X216711157Y-74192528D01*
X216447117Y-74066629D01*
X216163589Y-73994661D01*
X215871469Y-73979389D01*
X215581981Y-74021401D01*
X215306253Y-74119081D01*
X215168843Y-74192528D01*
X215091208Y-74441603D01*
X212861296Y-74441603D01*
X213022550Y-74280349D01*
X213283560Y-73889721D01*
X213456917Y-73471200D01*
X220923083Y-73471200D01*
X221096440Y-73889721D01*
X221357450Y-74280349D01*
X221689651Y-74612550D01*
X222080279Y-74873560D01*
X222514321Y-75053346D01*
X222975098Y-75145000D01*
X223444902Y-75145000D01*
X223905679Y-75053346D01*
X224339721Y-74873560D01*
X224730349Y-74612550D01*
X225062550Y-74280349D01*
X225323560Y-73889721D01*
X225503346Y-73455679D01*
X225595000Y-72994902D01*
X225595000Y-72525098D01*
X225503346Y-72064321D01*
X225323560Y-71630279D01*
X225062550Y-71239651D01*
X224730349Y-70907450D01*
X224339721Y-70646440D01*
X223905679Y-70466654D01*
X223444902Y-70375000D01*
X222975098Y-70375000D01*
X222514321Y-70466654D01*
X222080279Y-70646440D01*
X221689651Y-70907450D01*
X221357450Y-71239651D01*
X221096440Y-71630279D01*
X220923083Y-72048800D01*
X213456917Y-72048800D01*
X213283560Y-71630279D01*
X213022550Y-71239651D01*
X212690349Y-70907450D01*
X212299721Y-70646440D01*
X211865679Y-70466654D01*
X211404902Y-70375000D01*
X210935098Y-70375000D01*
X210474321Y-70466654D01*
X210040279Y-70646440D01*
X209649651Y-70907450D01*
X209317450Y-71239651D01*
X209056440Y-71630279D01*
X208876654Y-72064321D01*
X208785000Y-72525098D01*
X191160000Y-72525098D01*
X191160000Y-63532279D01*
X191174722Y-63382131D01*
X191208953Y-63268754D01*
X191264555Y-63164181D01*
X191339407Y-63072404D01*
X191430664Y-62996909D01*
X191534844Y-62940581D01*
X191647976Y-62905560D01*
X191796022Y-62890000D01*
X242537721Y-62890000D01*
X242687869Y-62904722D01*
G37*
%TD.AperFunction*%
%TD*%
M02*
