M48
; DRILL file {KiCad (5.1.10-0-10_14)} date Monday, May 10, 2021 at 11:18:40 PM
; FORMAT={2:4/ absolute / inch / suppress leading zeros}
; #@! TF.CreationDate,2021-05-10T23:18:40+02:00
; #@! TF.GenerationSoftware,Kicad,Pcbnew,(5.1.10-0-10_14)
FMAT,2
INCH,TZ
T1C0.0157
T2C0.0354
T3C0.0362
T4C0.0394
T5C0.0917
%
G90
G05
T1
X80500Y-33200
X86700Y-32100
X88500Y-29500
X88700Y-30400
X89100Y-30000
X90400Y-29000
X90800Y-30500
X91100Y-30300
X91200Y-29800
X91500Y-27900
X91700Y-29000
X91900Y-29300
T2
X77250Y-26250
X78250Y-26250
X89500Y-26250
X90500Y-26250
X93050Y-26250
X94050Y-26250
T3
X85016Y-29713
X85016Y-30500
X86000Y-29713
X86000Y-30500
T4
X76000Y-32000
X76000Y-33000
X76000Y-34000
X77000Y-32000
X77000Y-33000
X77000Y-34000
X87500Y-34000
X88500Y-34000
X89500Y-34000
X90500Y-34000
X91500Y-34000
X92500Y-34000
X94000Y-32000
X94000Y-33000
X94000Y-34000
X95000Y-32000
X95000Y-33000
X95000Y-34000
T5
X83138Y-28646
X87878Y-28646
T0
M30
