M48
; DRILL file {KiCad (5.1.10-0-10_14)} date Tuesday, November 02, 2021 at 11:36:42 AM
; FORMAT={2:4/ absolute / inch / suppress leading zeros}
; #@! TF.CreationDate,2021-11-02T11:36:42+01:00
; #@! TF.GenerationSoftware,Kicad,Pcbnew,(5.1.10-0-10_14)
FMAT,2
INCH,TZ
T1C0.0157
T2C0.0236
T3C0.0362
T4C0.0394
T5C0.0917
%
G90
G05
T1
X80500Y-33200
X86700Y-32100
X87200Y-29800
X87800Y-30400
X89200Y-29800
X90300Y-29100
X90800Y-30500
X91000Y-27700
X91100Y-30300
X91200Y-29800
X91700Y-29000
X91800Y-29300
T2
X77713Y-30000
X78500Y-30000
T3
X85016Y-29713
X85016Y-30500
X86000Y-29713
X86000Y-30500
T4
X76000Y-32000
X76000Y-33000
X76000Y-34000
X77000Y-32000
X77000Y-33000
X77000Y-34000
X84750Y-34000
X85750Y-34000
X86750Y-34000
X87750Y-34000
X88750Y-34000
X89750Y-34000
X90750Y-34000
X91750Y-34000
X94000Y-32000
X94000Y-33000
X94000Y-34000
X95000Y-32000
X95000Y-33000
X95000Y-34000
T5
X83138Y-28646
X87878Y-28646
T0
M30
