%TF.GenerationSoftware,KiCad,Pcbnew,(5.1.10-0-10_14)*%
%TF.CreationDate,2021-05-08T11:54:01+02:00*%
%TF.ProjectId,USB_power_serial_breakout,5553425f-706f-4776-9572-5f7365726961,rev?*%
%TF.SameCoordinates,Original*%
%TF.FileFunction,Legend,Top*%
%TF.FilePolarity,Positive*%
%FSLAX46Y46*%
G04 Gerber Fmt 4.6, Leading zero omitted, Abs format (unit mm)*
G04 Created by KiCad (PCBNEW (5.1.10-0-10_14)) date 2021-05-08 11:54:01*
%MOMM*%
%LPD*%
G01*
G04 APERTURE LIST*
%ADD10C,0.150000*%
%ADD11C,0.120000*%
%ADD12C,0.010000*%
G04 APERTURE END LIST*
D10*
X191857380Y-76699285D02*
X192666904Y-76699285D01*
X192762142Y-76651666D01*
X192809761Y-76604047D01*
X192857380Y-76508809D01*
X192857380Y-76318333D01*
X192809761Y-76223095D01*
X192762142Y-76175476D01*
X192666904Y-76127857D01*
X191857380Y-76127857D01*
X192809761Y-75699285D02*
X192857380Y-75556428D01*
X192857380Y-75318333D01*
X192809761Y-75223095D01*
X192762142Y-75175476D01*
X192666904Y-75127857D01*
X192571666Y-75127857D01*
X192476428Y-75175476D01*
X192428809Y-75223095D01*
X192381190Y-75318333D01*
X192333571Y-75508809D01*
X192285952Y-75604047D01*
X192238333Y-75651666D01*
X192143095Y-75699285D01*
X192047857Y-75699285D01*
X191952619Y-75651666D01*
X191905000Y-75604047D01*
X191857380Y-75508809D01*
X191857380Y-75270714D01*
X191905000Y-75127857D01*
X192333571Y-74365952D02*
X192381190Y-74223095D01*
X192428809Y-74175476D01*
X192524047Y-74127857D01*
X192666904Y-74127857D01*
X192762142Y-74175476D01*
X192809761Y-74223095D01*
X192857380Y-74318333D01*
X192857380Y-74699285D01*
X191857380Y-74699285D01*
X191857380Y-74365952D01*
X191905000Y-74270714D01*
X191952619Y-74223095D01*
X192047857Y-74175476D01*
X192143095Y-74175476D01*
X192238333Y-74223095D01*
X192285952Y-74270714D01*
X192333571Y-74365952D01*
X192333571Y-74699285D01*
X192857380Y-72937380D02*
X191857380Y-72937380D01*
X191857380Y-72556428D01*
X191905000Y-72461190D01*
X191952619Y-72413571D01*
X192047857Y-72365952D01*
X192190714Y-72365952D01*
X192285952Y-72413571D01*
X192333571Y-72461190D01*
X192381190Y-72556428D01*
X192381190Y-72937380D01*
X192857380Y-71794523D02*
X192809761Y-71889761D01*
X192762142Y-71937380D01*
X192666904Y-71985000D01*
X192381190Y-71985000D01*
X192285952Y-71937380D01*
X192238333Y-71889761D01*
X192190714Y-71794523D01*
X192190714Y-71651666D01*
X192238333Y-71556428D01*
X192285952Y-71508809D01*
X192381190Y-71461190D01*
X192666904Y-71461190D01*
X192762142Y-71508809D01*
X192809761Y-71556428D01*
X192857380Y-71651666D01*
X192857380Y-71794523D01*
X192190714Y-71127857D02*
X192857380Y-70937380D01*
X192381190Y-70746904D01*
X192857380Y-70556428D01*
X192190714Y-70365952D01*
X192809761Y-69604047D02*
X192857380Y-69699285D01*
X192857380Y-69889761D01*
X192809761Y-69985000D01*
X192714523Y-70032619D01*
X192333571Y-70032619D01*
X192238333Y-69985000D01*
X192190714Y-69889761D01*
X192190714Y-69699285D01*
X192238333Y-69604047D01*
X192333571Y-69556428D01*
X192428809Y-69556428D01*
X192524047Y-70032619D01*
X192857380Y-69127857D02*
X192190714Y-69127857D01*
X192381190Y-69127857D02*
X192285952Y-69080238D01*
X192238333Y-69032619D01*
X192190714Y-68937380D01*
X192190714Y-68842142D01*
X191809761Y-67794523D02*
X193095476Y-68651666D01*
X191857380Y-67461190D02*
X192666904Y-67461190D01*
X192762142Y-67413571D01*
X192809761Y-67365952D01*
X192857380Y-67270714D01*
X192857380Y-67080238D01*
X192809761Y-66985000D01*
X192762142Y-66937380D01*
X192666904Y-66889761D01*
X191857380Y-66889761D01*
X192571666Y-66461190D02*
X192571666Y-65985000D01*
X192857380Y-66556428D02*
X191857380Y-66223095D01*
X192857380Y-65889761D01*
X192857380Y-64985000D02*
X192381190Y-65318333D01*
X192857380Y-65556428D02*
X191857380Y-65556428D01*
X191857380Y-65175476D01*
X191905000Y-65080238D01*
X191952619Y-65032619D01*
X192047857Y-64985000D01*
X192190714Y-64985000D01*
X192285952Y-65032619D01*
X192333571Y-65080238D01*
X192381190Y-65175476D01*
X192381190Y-65556428D01*
X191857380Y-64699285D02*
X191857380Y-64127857D01*
X192857380Y-64413571D02*
X191857380Y-64413571D01*
X196151666Y-70302380D02*
X196151666Y-69302380D01*
X196532619Y-69302380D01*
X196627857Y-69350000D01*
X196675476Y-69397619D01*
X196723095Y-69492857D01*
X196723095Y-69635714D01*
X196675476Y-69730952D01*
X196627857Y-69778571D01*
X196532619Y-69826190D01*
X196151666Y-69826190D01*
X197056428Y-69302380D02*
X197294523Y-70302380D01*
X197485000Y-69588095D01*
X197675476Y-70302380D01*
X197913571Y-69302380D01*
X198865952Y-70302380D02*
X198532619Y-69826190D01*
X198294523Y-70302380D02*
X198294523Y-69302380D01*
X198675476Y-69302380D01*
X198770714Y-69350000D01*
X198818333Y-69397619D01*
X198865952Y-69492857D01*
X198865952Y-69635714D01*
X198818333Y-69730952D01*
X198770714Y-69778571D01*
X198675476Y-69826190D01*
X198294523Y-69826190D01*
X195199047Y-88336428D02*
X195960952Y-88336428D01*
X192659047Y-88336428D02*
X193420952Y-88336428D01*
X193040000Y-88717380D02*
X193040000Y-87955476D01*
X240919047Y-88336428D02*
X241680952Y-88336428D01*
X238379047Y-88336428D02*
X239140952Y-88336428D01*
X238760000Y-88717380D02*
X238760000Y-87955476D01*
X240919047Y-78811428D02*
X241680952Y-78811428D01*
X238379047Y-78811428D02*
X239140952Y-78811428D01*
X238760000Y-79192380D02*
X238760000Y-78430476D01*
X195199047Y-78811428D02*
X195960952Y-78811428D01*
X192659047Y-78811428D02*
X193420952Y-78811428D01*
X193040000Y-79192380D02*
X193040000Y-78430476D01*
D11*
X228346000Y-72517000D02*
G75*
G03*
X228346000Y-72517000I-127000J0D01*
G01*
D10*
X232767142Y-83851666D02*
X232814761Y-83899285D01*
X232862380Y-84042142D01*
X232862380Y-84137380D01*
X232814761Y-84280238D01*
X232719523Y-84375476D01*
X232624285Y-84423095D01*
X232433809Y-84470714D01*
X232290952Y-84470714D01*
X232100476Y-84423095D01*
X232005238Y-84375476D01*
X231910000Y-84280238D01*
X231862380Y-84137380D01*
X231862380Y-84042142D01*
X231910000Y-83899285D01*
X231957619Y-83851666D01*
X232338571Y-83089761D02*
X232386190Y-82946904D01*
X232433809Y-82899285D01*
X232529047Y-82851666D01*
X232671904Y-82851666D01*
X232767142Y-82899285D01*
X232814761Y-82946904D01*
X232862380Y-83042142D01*
X232862380Y-83423095D01*
X231862380Y-83423095D01*
X231862380Y-83089761D01*
X231910000Y-82994523D01*
X231957619Y-82946904D01*
X232052857Y-82899285D01*
X232148095Y-82899285D01*
X232243333Y-82946904D01*
X232290952Y-82994523D01*
X232338571Y-83089761D01*
X232338571Y-83423095D01*
X231862380Y-82518333D02*
X231862380Y-81899285D01*
X232243333Y-82232619D01*
X232243333Y-82089761D01*
X232290952Y-81994523D01*
X232338571Y-81946904D01*
X232433809Y-81899285D01*
X232671904Y-81899285D01*
X232767142Y-81946904D01*
X232814761Y-81994523D01*
X232862380Y-82089761D01*
X232862380Y-82375476D01*
X232814761Y-82470714D01*
X232767142Y-82518333D01*
X235307142Y-83851666D02*
X235354761Y-83899285D01*
X235402380Y-84042142D01*
X235402380Y-84137380D01*
X235354761Y-84280238D01*
X235259523Y-84375476D01*
X235164285Y-84423095D01*
X234973809Y-84470714D01*
X234830952Y-84470714D01*
X234640476Y-84423095D01*
X234545238Y-84375476D01*
X234450000Y-84280238D01*
X234402380Y-84137380D01*
X234402380Y-84042142D01*
X234450000Y-83899285D01*
X234497619Y-83851666D01*
X234878571Y-83089761D02*
X234926190Y-82946904D01*
X234973809Y-82899285D01*
X235069047Y-82851666D01*
X235211904Y-82851666D01*
X235307142Y-82899285D01*
X235354761Y-82946904D01*
X235402380Y-83042142D01*
X235402380Y-83423095D01*
X234402380Y-83423095D01*
X234402380Y-83089761D01*
X234450000Y-82994523D01*
X234497619Y-82946904D01*
X234592857Y-82899285D01*
X234688095Y-82899285D01*
X234783333Y-82946904D01*
X234830952Y-82994523D01*
X234878571Y-83089761D01*
X234878571Y-83423095D01*
X234402380Y-82232619D02*
X234402380Y-82137380D01*
X234450000Y-82042142D01*
X234497619Y-81994523D01*
X234592857Y-81946904D01*
X234783333Y-81899285D01*
X235021428Y-81899285D01*
X235211904Y-81946904D01*
X235307142Y-81994523D01*
X235354761Y-82042142D01*
X235402380Y-82137380D01*
X235402380Y-82232619D01*
X235354761Y-82327857D01*
X235307142Y-82375476D01*
X235211904Y-82423095D01*
X235021428Y-82470714D01*
X234783333Y-82470714D01*
X234592857Y-82423095D01*
X234497619Y-82375476D01*
X234450000Y-82327857D01*
X234402380Y-82232619D01*
X229322380Y-84375476D02*
X229322380Y-83804047D01*
X230322380Y-84089761D02*
X229322380Y-84089761D01*
X230322380Y-83565952D02*
X229655714Y-83042142D01*
X229655714Y-83565952D02*
X230322380Y-83042142D01*
X230322380Y-82661190D02*
X229322380Y-82661190D01*
X229322380Y-82423095D01*
X229370000Y-82280238D01*
X229465238Y-82185000D01*
X229560476Y-82137380D01*
X229750952Y-82089761D01*
X229893809Y-82089761D01*
X230084285Y-82137380D01*
X230179523Y-82185000D01*
X230274761Y-82280238D01*
X230322380Y-82423095D01*
X230322380Y-82661190D01*
X227782380Y-83780238D02*
X227306190Y-84113571D01*
X227782380Y-84351666D02*
X226782380Y-84351666D01*
X226782380Y-83970714D01*
X226830000Y-83875476D01*
X226877619Y-83827857D01*
X226972857Y-83780238D01*
X227115714Y-83780238D01*
X227210952Y-83827857D01*
X227258571Y-83875476D01*
X227306190Y-83970714D01*
X227306190Y-84351666D01*
X227782380Y-83446904D02*
X227115714Y-82923095D01*
X227115714Y-83446904D02*
X227782380Y-82923095D01*
X227782380Y-82542142D02*
X226782380Y-82542142D01*
X226782380Y-82304047D01*
X226830000Y-82161190D01*
X226925238Y-82065952D01*
X227020476Y-82018333D01*
X227210952Y-81970714D01*
X227353809Y-81970714D01*
X227544285Y-82018333D01*
X227639523Y-82065952D01*
X227734761Y-82161190D01*
X227782380Y-82304047D01*
X227782380Y-82542142D01*
X223875000Y-84542142D02*
X223875000Y-83542142D01*
X225147142Y-83732619D02*
X225194761Y-83780238D01*
X225242380Y-83923095D01*
X225242380Y-84018333D01*
X225194761Y-84161190D01*
X225099523Y-84256428D01*
X225004285Y-84304047D01*
X224813809Y-84351666D01*
X224670952Y-84351666D01*
X224480476Y-84304047D01*
X224385238Y-84256428D01*
X224290000Y-84161190D01*
X224242380Y-84018333D01*
X224242380Y-83923095D01*
X224290000Y-83780238D01*
X224337619Y-83732619D01*
X223875000Y-83542142D02*
X223875000Y-82780238D01*
X224242380Y-83446904D02*
X224242380Y-82875476D01*
X225242380Y-83161190D02*
X224242380Y-83161190D01*
X223875000Y-82780238D02*
X223875000Y-81827857D01*
X225194761Y-82589761D02*
X225242380Y-82446904D01*
X225242380Y-82208809D01*
X225194761Y-82113571D01*
X225147142Y-82065952D01*
X225051904Y-82018333D01*
X224956666Y-82018333D01*
X224861428Y-82065952D01*
X224813809Y-82113571D01*
X224766190Y-82208809D01*
X224718571Y-82399285D01*
X224670952Y-82494523D01*
X224623333Y-82542142D01*
X224528095Y-82589761D01*
X224432857Y-82589761D01*
X224337619Y-82542142D01*
X224290000Y-82494523D01*
X224242380Y-82399285D01*
X224242380Y-82161190D01*
X224290000Y-82018333D01*
X221335000Y-84542142D02*
X221335000Y-83542142D01*
X222702380Y-83732619D02*
X222226190Y-84065952D01*
X222702380Y-84304047D02*
X221702380Y-84304047D01*
X221702380Y-83923095D01*
X221750000Y-83827857D01*
X221797619Y-83780238D01*
X221892857Y-83732619D01*
X222035714Y-83732619D01*
X222130952Y-83780238D01*
X222178571Y-83827857D01*
X222226190Y-83923095D01*
X222226190Y-84304047D01*
X221335000Y-83542142D02*
X221335000Y-82780238D01*
X221702380Y-83446904D02*
X221702380Y-82875476D01*
X222702380Y-83161190D02*
X221702380Y-83161190D01*
X221335000Y-82780238D02*
X221335000Y-81827857D01*
X222654761Y-82589761D02*
X222702380Y-82446904D01*
X222702380Y-82208809D01*
X222654761Y-82113571D01*
X222607142Y-82065952D01*
X222511904Y-82018333D01*
X222416666Y-82018333D01*
X222321428Y-82065952D01*
X222273809Y-82113571D01*
X222226190Y-82208809D01*
X222178571Y-82399285D01*
X222130952Y-82494523D01*
X222083333Y-82542142D01*
X221988095Y-82589761D01*
X221892857Y-82589761D01*
X221797619Y-82542142D01*
X221750000Y-82494523D01*
X221702380Y-82399285D01*
X221702380Y-82161190D01*
X221750000Y-82018333D01*
X237450333Y-70302380D02*
X237117000Y-69826190D01*
X236878904Y-70302380D02*
X236878904Y-69302380D01*
X237259857Y-69302380D01*
X237355095Y-69350000D01*
X237402714Y-69397619D01*
X237450333Y-69492857D01*
X237450333Y-69635714D01*
X237402714Y-69730952D01*
X237355095Y-69778571D01*
X237259857Y-69826190D01*
X236878904Y-69826190D01*
X237783666Y-69302380D02*
X238450333Y-70302380D01*
X238450333Y-69302380D02*
X237783666Y-70302380D01*
X227838095Y-69302380D02*
X228409523Y-69302380D01*
X228123809Y-70302380D02*
X228123809Y-69302380D01*
X228647619Y-69302380D02*
X229314285Y-70302380D01*
X229314285Y-69302380D02*
X228647619Y-70302380D01*
D12*
%TO.C,REF\u002A\u002A*%
G36*
X215641964Y-81745018D02*
G01*
X215698812Y-82046570D01*
X216118338Y-82219512D01*
X216369984Y-82048395D01*
X216440458Y-82000750D01*
X216504163Y-81958210D01*
X216558126Y-81922715D01*
X216599373Y-81896210D01*
X216624934Y-81880636D01*
X216631895Y-81877278D01*
X216644435Y-81885914D01*
X216671231Y-81909792D01*
X216709280Y-81945859D01*
X216755579Y-81991067D01*
X216807123Y-82042364D01*
X216860909Y-82096701D01*
X216913935Y-82151028D01*
X216963195Y-82202295D01*
X217005687Y-82247451D01*
X217038407Y-82283446D01*
X217058351Y-82307230D01*
X217063119Y-82315190D01*
X217056257Y-82329865D01*
X217037020Y-82362014D01*
X217007430Y-82408492D01*
X216969510Y-82466156D01*
X216925282Y-82531860D01*
X216899654Y-82569336D01*
X216852941Y-82637768D01*
X216811432Y-82699520D01*
X216777140Y-82751519D01*
X216752080Y-82790692D01*
X216738264Y-82813965D01*
X216736188Y-82818855D01*
X216740895Y-82832755D01*
X216753723Y-82865150D01*
X216772738Y-82911485D01*
X216796003Y-82967206D01*
X216821584Y-83027758D01*
X216847545Y-83088586D01*
X216871950Y-83145136D01*
X216892863Y-83192852D01*
X216908349Y-83227181D01*
X216916472Y-83243568D01*
X216916952Y-83244212D01*
X216929707Y-83247341D01*
X216963677Y-83254321D01*
X217015340Y-83264467D01*
X217081176Y-83277092D01*
X217157664Y-83291509D01*
X217202290Y-83299823D01*
X217284021Y-83315384D01*
X217357843Y-83330192D01*
X217420021Y-83343436D01*
X217466822Y-83354305D01*
X217494509Y-83361989D01*
X217500074Y-83364427D01*
X217505526Y-83380930D01*
X217509924Y-83418200D01*
X217513272Y-83471880D01*
X217515574Y-83537612D01*
X217516832Y-83611037D01*
X217517048Y-83687796D01*
X217516227Y-83763532D01*
X217514371Y-83833886D01*
X217511482Y-83894500D01*
X217507565Y-83941016D01*
X217502622Y-83969075D01*
X217499657Y-83974916D01*
X217481934Y-83981917D01*
X217444381Y-83991927D01*
X217391964Y-84003769D01*
X217329652Y-84016267D01*
X217307900Y-84020310D01*
X217203024Y-84039520D01*
X217120180Y-84054991D01*
X217056630Y-84067337D01*
X217009637Y-84077173D01*
X216976463Y-84085114D01*
X216954371Y-84091776D01*
X216940624Y-84097773D01*
X216932484Y-84103719D01*
X216931345Y-84104894D01*
X216919977Y-84123826D01*
X216902635Y-84160669D01*
X216881050Y-84210913D01*
X216856954Y-84270046D01*
X216832079Y-84333556D01*
X216808157Y-84396932D01*
X216786919Y-84455662D01*
X216770097Y-84505235D01*
X216759422Y-84541139D01*
X216756627Y-84558862D01*
X216756860Y-84559483D01*
X216766331Y-84573970D01*
X216787818Y-84605844D01*
X216819063Y-84651789D01*
X216857807Y-84708485D01*
X216901793Y-84772617D01*
X216914319Y-84790842D01*
X216958984Y-84856914D01*
X216998288Y-84917200D01*
X217030088Y-84968235D01*
X217052245Y-85006560D01*
X217062617Y-85028711D01*
X217063119Y-85031432D01*
X217054405Y-85045736D01*
X217030325Y-85074072D01*
X216993976Y-85113396D01*
X216948453Y-85160661D01*
X216896852Y-85212823D01*
X216842267Y-85266835D01*
X216787794Y-85319653D01*
X216736529Y-85368231D01*
X216691567Y-85409523D01*
X216656004Y-85440485D01*
X216632935Y-85458070D01*
X216626554Y-85460941D01*
X216611699Y-85454178D01*
X216581286Y-85435939D01*
X216540268Y-85409297D01*
X216508709Y-85387852D01*
X216451525Y-85348503D01*
X216383806Y-85302171D01*
X216315880Y-85255913D01*
X216279361Y-85231155D01*
X216155752Y-85147547D01*
X216051991Y-85203650D01*
X216004720Y-85228228D01*
X215964523Y-85247331D01*
X215937326Y-85258227D01*
X215930402Y-85259743D01*
X215922077Y-85248549D01*
X215905654Y-85216917D01*
X215882357Y-85167765D01*
X215853414Y-85104010D01*
X215820050Y-85028571D01*
X215783491Y-84944364D01*
X215744964Y-84854308D01*
X215705694Y-84761321D01*
X215666908Y-84668320D01*
X215629830Y-84578223D01*
X215595689Y-84493948D01*
X215565708Y-84418413D01*
X215541116Y-84354534D01*
X215523136Y-84305231D01*
X215512997Y-84273421D01*
X215511366Y-84262496D01*
X215524291Y-84248561D01*
X215552589Y-84225940D01*
X215590346Y-84199333D01*
X215593515Y-84197228D01*
X215691100Y-84119114D01*
X215769786Y-84027982D01*
X215828891Y-83926745D01*
X215867732Y-83818318D01*
X215885628Y-83705614D01*
X215881897Y-83591548D01*
X215855857Y-83479034D01*
X215806825Y-83370985D01*
X215792400Y-83347345D01*
X215717369Y-83251887D01*
X215628730Y-83175232D01*
X215529549Y-83117780D01*
X215422895Y-83079929D01*
X215311836Y-83062078D01*
X215199439Y-83064625D01*
X215088773Y-83087970D01*
X214982906Y-83132510D01*
X214884905Y-83198645D01*
X214854590Y-83225487D01*
X214777438Y-83309512D01*
X214721218Y-83397966D01*
X214682653Y-83497115D01*
X214661174Y-83595303D01*
X214655872Y-83705697D01*
X214673552Y-83816640D01*
X214712419Y-83924381D01*
X214770677Y-84025169D01*
X214846531Y-84115256D01*
X214938183Y-84190892D01*
X214950228Y-84198864D01*
X214988389Y-84224974D01*
X215017399Y-84247595D01*
X215031268Y-84262039D01*
X215031469Y-84262496D01*
X215028492Y-84278121D01*
X215016689Y-84313582D01*
X214997286Y-84365962D01*
X214971512Y-84432345D01*
X214940591Y-84509814D01*
X214905751Y-84595450D01*
X214868217Y-84686337D01*
X214829217Y-84779559D01*
X214789977Y-84872197D01*
X214751724Y-84961335D01*
X214715683Y-85044055D01*
X214683083Y-85117441D01*
X214655148Y-85178575D01*
X214633105Y-85224541D01*
X214618182Y-85252421D01*
X214612172Y-85259743D01*
X214593809Y-85254041D01*
X214559448Y-85238749D01*
X214515016Y-85216599D01*
X214490583Y-85203650D01*
X214386822Y-85147547D01*
X214263213Y-85231155D01*
X214200114Y-85273987D01*
X214131030Y-85321122D01*
X214066293Y-85365503D01*
X214033866Y-85387852D01*
X213988259Y-85418477D01*
X213949640Y-85442747D01*
X213923048Y-85457587D01*
X213914410Y-85460724D01*
X213901839Y-85452261D01*
X213874016Y-85428636D01*
X213833639Y-85392302D01*
X213783405Y-85345711D01*
X213726012Y-85291317D01*
X213689714Y-85256392D01*
X213626210Y-85193996D01*
X213571327Y-85138188D01*
X213527286Y-85091354D01*
X213496305Y-85055882D01*
X213480602Y-85034161D01*
X213479095Y-85029752D01*
X213486086Y-85012985D01*
X213505406Y-84979082D01*
X213534909Y-84931476D01*
X213572455Y-84873599D01*
X213615900Y-84808884D01*
X213628255Y-84790842D01*
X213673273Y-84725267D01*
X213713660Y-84666228D01*
X213747160Y-84617042D01*
X213771514Y-84581028D01*
X213784464Y-84561502D01*
X213785715Y-84559483D01*
X213783844Y-84543922D01*
X213773913Y-84509709D01*
X213757653Y-84461355D01*
X213736795Y-84403371D01*
X213713073Y-84340270D01*
X213688216Y-84276563D01*
X213663958Y-84216761D01*
X213642029Y-84165376D01*
X213624162Y-84126919D01*
X213612087Y-84105902D01*
X213611229Y-84104894D01*
X213603846Y-84098888D01*
X213591375Y-84092948D01*
X213571080Y-84086460D01*
X213540222Y-84078809D01*
X213496066Y-84069380D01*
X213435874Y-84057559D01*
X213356907Y-84042729D01*
X213256430Y-84024277D01*
X213234675Y-84020310D01*
X213170198Y-84007853D01*
X213113989Y-83995666D01*
X213071013Y-83984926D01*
X213046240Y-83976809D01*
X213042918Y-83974916D01*
X213037444Y-83958138D01*
X213032994Y-83920645D01*
X213029572Y-83866794D01*
X213027181Y-83800944D01*
X213025823Y-83727453D01*
X213025501Y-83650680D01*
X213026219Y-83574983D01*
X213027979Y-83504720D01*
X213030784Y-83444250D01*
X213034638Y-83397930D01*
X213039543Y-83370119D01*
X213042500Y-83364427D01*
X213058963Y-83358686D01*
X213096449Y-83349345D01*
X213151225Y-83337215D01*
X213219555Y-83323107D01*
X213297706Y-83307830D01*
X213340284Y-83299823D01*
X213421071Y-83284721D01*
X213493113Y-83271040D01*
X213552889Y-83259467D01*
X213596879Y-83250687D01*
X213621561Y-83245387D01*
X213625623Y-83244212D01*
X213632489Y-83230965D01*
X213647002Y-83199057D01*
X213667229Y-83153047D01*
X213691234Y-83097492D01*
X213717082Y-83036953D01*
X213742840Y-82975986D01*
X213766573Y-82919151D01*
X213786346Y-82871006D01*
X213800224Y-82836110D01*
X213806274Y-82819021D01*
X213806386Y-82818274D01*
X213799528Y-82804793D01*
X213780302Y-82773770D01*
X213750728Y-82728289D01*
X213712827Y-82671432D01*
X213668620Y-82606283D01*
X213642921Y-82568862D01*
X213596093Y-82500247D01*
X213554501Y-82437952D01*
X213520175Y-82385129D01*
X213495143Y-82344927D01*
X213481435Y-82320500D01*
X213479456Y-82315024D01*
X213487966Y-82302278D01*
X213511493Y-82275063D01*
X213547032Y-82236428D01*
X213591577Y-82189423D01*
X213642123Y-82137095D01*
X213695664Y-82082495D01*
X213749195Y-82028670D01*
X213799711Y-81978670D01*
X213844206Y-81935543D01*
X213879675Y-81902339D01*
X213903113Y-81882106D01*
X213910954Y-81877278D01*
X213923720Y-81884067D01*
X213954256Y-81903142D01*
X213999590Y-81932561D01*
X214056756Y-81970381D01*
X214122784Y-82014661D01*
X214172590Y-82048395D01*
X214424236Y-82219512D01*
X214633999Y-82133041D01*
X214843763Y-82046570D01*
X214900611Y-81745018D01*
X214957460Y-81443466D01*
X215585115Y-81443466D01*
X215641964Y-81745018D01*
G37*
X215641964Y-81745018D02*
X215698812Y-82046570D01*
X216118338Y-82219512D01*
X216369984Y-82048395D01*
X216440458Y-82000750D01*
X216504163Y-81958210D01*
X216558126Y-81922715D01*
X216599373Y-81896210D01*
X216624934Y-81880636D01*
X216631895Y-81877278D01*
X216644435Y-81885914D01*
X216671231Y-81909792D01*
X216709280Y-81945859D01*
X216755579Y-81991067D01*
X216807123Y-82042364D01*
X216860909Y-82096701D01*
X216913935Y-82151028D01*
X216963195Y-82202295D01*
X217005687Y-82247451D01*
X217038407Y-82283446D01*
X217058351Y-82307230D01*
X217063119Y-82315190D01*
X217056257Y-82329865D01*
X217037020Y-82362014D01*
X217007430Y-82408492D01*
X216969510Y-82466156D01*
X216925282Y-82531860D01*
X216899654Y-82569336D01*
X216852941Y-82637768D01*
X216811432Y-82699520D01*
X216777140Y-82751519D01*
X216752080Y-82790692D01*
X216738264Y-82813965D01*
X216736188Y-82818855D01*
X216740895Y-82832755D01*
X216753723Y-82865150D01*
X216772738Y-82911485D01*
X216796003Y-82967206D01*
X216821584Y-83027758D01*
X216847545Y-83088586D01*
X216871950Y-83145136D01*
X216892863Y-83192852D01*
X216908349Y-83227181D01*
X216916472Y-83243568D01*
X216916952Y-83244212D01*
X216929707Y-83247341D01*
X216963677Y-83254321D01*
X217015340Y-83264467D01*
X217081176Y-83277092D01*
X217157664Y-83291509D01*
X217202290Y-83299823D01*
X217284021Y-83315384D01*
X217357843Y-83330192D01*
X217420021Y-83343436D01*
X217466822Y-83354305D01*
X217494509Y-83361989D01*
X217500074Y-83364427D01*
X217505526Y-83380930D01*
X217509924Y-83418200D01*
X217513272Y-83471880D01*
X217515574Y-83537612D01*
X217516832Y-83611037D01*
X217517048Y-83687796D01*
X217516227Y-83763532D01*
X217514371Y-83833886D01*
X217511482Y-83894500D01*
X217507565Y-83941016D01*
X217502622Y-83969075D01*
X217499657Y-83974916D01*
X217481934Y-83981917D01*
X217444381Y-83991927D01*
X217391964Y-84003769D01*
X217329652Y-84016267D01*
X217307900Y-84020310D01*
X217203024Y-84039520D01*
X217120180Y-84054991D01*
X217056630Y-84067337D01*
X217009637Y-84077173D01*
X216976463Y-84085114D01*
X216954371Y-84091776D01*
X216940624Y-84097773D01*
X216932484Y-84103719D01*
X216931345Y-84104894D01*
X216919977Y-84123826D01*
X216902635Y-84160669D01*
X216881050Y-84210913D01*
X216856954Y-84270046D01*
X216832079Y-84333556D01*
X216808157Y-84396932D01*
X216786919Y-84455662D01*
X216770097Y-84505235D01*
X216759422Y-84541139D01*
X216756627Y-84558862D01*
X216756860Y-84559483D01*
X216766331Y-84573970D01*
X216787818Y-84605844D01*
X216819063Y-84651789D01*
X216857807Y-84708485D01*
X216901793Y-84772617D01*
X216914319Y-84790842D01*
X216958984Y-84856914D01*
X216998288Y-84917200D01*
X217030088Y-84968235D01*
X217052245Y-85006560D01*
X217062617Y-85028711D01*
X217063119Y-85031432D01*
X217054405Y-85045736D01*
X217030325Y-85074072D01*
X216993976Y-85113396D01*
X216948453Y-85160661D01*
X216896852Y-85212823D01*
X216842267Y-85266835D01*
X216787794Y-85319653D01*
X216736529Y-85368231D01*
X216691567Y-85409523D01*
X216656004Y-85440485D01*
X216632935Y-85458070D01*
X216626554Y-85460941D01*
X216611699Y-85454178D01*
X216581286Y-85435939D01*
X216540268Y-85409297D01*
X216508709Y-85387852D01*
X216451525Y-85348503D01*
X216383806Y-85302171D01*
X216315880Y-85255913D01*
X216279361Y-85231155D01*
X216155752Y-85147547D01*
X216051991Y-85203650D01*
X216004720Y-85228228D01*
X215964523Y-85247331D01*
X215937326Y-85258227D01*
X215930402Y-85259743D01*
X215922077Y-85248549D01*
X215905654Y-85216917D01*
X215882357Y-85167765D01*
X215853414Y-85104010D01*
X215820050Y-85028571D01*
X215783491Y-84944364D01*
X215744964Y-84854308D01*
X215705694Y-84761321D01*
X215666908Y-84668320D01*
X215629830Y-84578223D01*
X215595689Y-84493948D01*
X215565708Y-84418413D01*
X215541116Y-84354534D01*
X215523136Y-84305231D01*
X215512997Y-84273421D01*
X215511366Y-84262496D01*
X215524291Y-84248561D01*
X215552589Y-84225940D01*
X215590346Y-84199333D01*
X215593515Y-84197228D01*
X215691100Y-84119114D01*
X215769786Y-84027982D01*
X215828891Y-83926745D01*
X215867732Y-83818318D01*
X215885628Y-83705614D01*
X215881897Y-83591548D01*
X215855857Y-83479034D01*
X215806825Y-83370985D01*
X215792400Y-83347345D01*
X215717369Y-83251887D01*
X215628730Y-83175232D01*
X215529549Y-83117780D01*
X215422895Y-83079929D01*
X215311836Y-83062078D01*
X215199439Y-83064625D01*
X215088773Y-83087970D01*
X214982906Y-83132510D01*
X214884905Y-83198645D01*
X214854590Y-83225487D01*
X214777438Y-83309512D01*
X214721218Y-83397966D01*
X214682653Y-83497115D01*
X214661174Y-83595303D01*
X214655872Y-83705697D01*
X214673552Y-83816640D01*
X214712419Y-83924381D01*
X214770677Y-84025169D01*
X214846531Y-84115256D01*
X214938183Y-84190892D01*
X214950228Y-84198864D01*
X214988389Y-84224974D01*
X215017399Y-84247595D01*
X215031268Y-84262039D01*
X215031469Y-84262496D01*
X215028492Y-84278121D01*
X215016689Y-84313582D01*
X214997286Y-84365962D01*
X214971512Y-84432345D01*
X214940591Y-84509814D01*
X214905751Y-84595450D01*
X214868217Y-84686337D01*
X214829217Y-84779559D01*
X214789977Y-84872197D01*
X214751724Y-84961335D01*
X214715683Y-85044055D01*
X214683083Y-85117441D01*
X214655148Y-85178575D01*
X214633105Y-85224541D01*
X214618182Y-85252421D01*
X214612172Y-85259743D01*
X214593809Y-85254041D01*
X214559448Y-85238749D01*
X214515016Y-85216599D01*
X214490583Y-85203650D01*
X214386822Y-85147547D01*
X214263213Y-85231155D01*
X214200114Y-85273987D01*
X214131030Y-85321122D01*
X214066293Y-85365503D01*
X214033866Y-85387852D01*
X213988259Y-85418477D01*
X213949640Y-85442747D01*
X213923048Y-85457587D01*
X213914410Y-85460724D01*
X213901839Y-85452261D01*
X213874016Y-85428636D01*
X213833639Y-85392302D01*
X213783405Y-85345711D01*
X213726012Y-85291317D01*
X213689714Y-85256392D01*
X213626210Y-85193996D01*
X213571327Y-85138188D01*
X213527286Y-85091354D01*
X213496305Y-85055882D01*
X213480602Y-85034161D01*
X213479095Y-85029752D01*
X213486086Y-85012985D01*
X213505406Y-84979082D01*
X213534909Y-84931476D01*
X213572455Y-84873599D01*
X213615900Y-84808884D01*
X213628255Y-84790842D01*
X213673273Y-84725267D01*
X213713660Y-84666228D01*
X213747160Y-84617042D01*
X213771514Y-84581028D01*
X213784464Y-84561502D01*
X213785715Y-84559483D01*
X213783844Y-84543922D01*
X213773913Y-84509709D01*
X213757653Y-84461355D01*
X213736795Y-84403371D01*
X213713073Y-84340270D01*
X213688216Y-84276563D01*
X213663958Y-84216761D01*
X213642029Y-84165376D01*
X213624162Y-84126919D01*
X213612087Y-84105902D01*
X213611229Y-84104894D01*
X213603846Y-84098888D01*
X213591375Y-84092948D01*
X213571080Y-84086460D01*
X213540222Y-84078809D01*
X213496066Y-84069380D01*
X213435874Y-84057559D01*
X213356907Y-84042729D01*
X213256430Y-84024277D01*
X213234675Y-84020310D01*
X213170198Y-84007853D01*
X213113989Y-83995666D01*
X213071013Y-83984926D01*
X213046240Y-83976809D01*
X213042918Y-83974916D01*
X213037444Y-83958138D01*
X213032994Y-83920645D01*
X213029572Y-83866794D01*
X213027181Y-83800944D01*
X213025823Y-83727453D01*
X213025501Y-83650680D01*
X213026219Y-83574983D01*
X213027979Y-83504720D01*
X213030784Y-83444250D01*
X213034638Y-83397930D01*
X213039543Y-83370119D01*
X213042500Y-83364427D01*
X213058963Y-83358686D01*
X213096449Y-83349345D01*
X213151225Y-83337215D01*
X213219555Y-83323107D01*
X213297706Y-83307830D01*
X213340284Y-83299823D01*
X213421071Y-83284721D01*
X213493113Y-83271040D01*
X213552889Y-83259467D01*
X213596879Y-83250687D01*
X213621561Y-83245387D01*
X213625623Y-83244212D01*
X213632489Y-83230965D01*
X213647002Y-83199057D01*
X213667229Y-83153047D01*
X213691234Y-83097492D01*
X213717082Y-83036953D01*
X213742840Y-82975986D01*
X213766573Y-82919151D01*
X213786346Y-82871006D01*
X213800224Y-82836110D01*
X213806274Y-82819021D01*
X213806386Y-82818274D01*
X213799528Y-82804793D01*
X213780302Y-82773770D01*
X213750728Y-82728289D01*
X213712827Y-82671432D01*
X213668620Y-82606283D01*
X213642921Y-82568862D01*
X213596093Y-82500247D01*
X213554501Y-82437952D01*
X213520175Y-82385129D01*
X213495143Y-82344927D01*
X213481435Y-82320500D01*
X213479456Y-82315024D01*
X213487966Y-82302278D01*
X213511493Y-82275063D01*
X213547032Y-82236428D01*
X213591577Y-82189423D01*
X213642123Y-82137095D01*
X213695664Y-82082495D01*
X213749195Y-82028670D01*
X213799711Y-81978670D01*
X213844206Y-81935543D01*
X213879675Y-81902339D01*
X213903113Y-81882106D01*
X213910954Y-81877278D01*
X213923720Y-81884067D01*
X213954256Y-81903142D01*
X213999590Y-81932561D01*
X214056756Y-81970381D01*
X214122784Y-82014661D01*
X214172590Y-82048395D01*
X214424236Y-82219512D01*
X214633999Y-82133041D01*
X214843763Y-82046570D01*
X214900611Y-81745018D01*
X214957460Y-81443466D01*
X215585115Y-81443466D01*
X215641964Y-81745018D01*
G36*
X217064460Y-85913030D02*
G01*
X217107711Y-85926245D01*
X217135558Y-85942941D01*
X217144629Y-85956145D01*
X217142132Y-85971797D01*
X217125931Y-85996385D01*
X217112232Y-86013800D01*
X217083992Y-86045283D01*
X217062775Y-86058529D01*
X217044688Y-86057664D01*
X216991035Y-86044010D01*
X216951630Y-86044630D01*
X216919632Y-86060104D01*
X216908890Y-86069161D01*
X216874505Y-86101027D01*
X216874505Y-86517179D01*
X216736188Y-86517179D01*
X216736188Y-85913614D01*
X216805347Y-85913614D01*
X216846869Y-85915256D01*
X216868291Y-85921087D01*
X216874502Y-85932461D01*
X216874505Y-85932798D01*
X216877439Y-85944713D01*
X216890704Y-85943159D01*
X216909084Y-85934563D01*
X216947046Y-85918568D01*
X216977872Y-85908945D01*
X217017536Y-85906478D01*
X217064460Y-85913030D01*
G37*
X217064460Y-85913030D02*
X217107711Y-85926245D01*
X217135558Y-85942941D01*
X217144629Y-85956145D01*
X217142132Y-85971797D01*
X217125931Y-85996385D01*
X217112232Y-86013800D01*
X217083992Y-86045283D01*
X217062775Y-86058529D01*
X217044688Y-86057664D01*
X216991035Y-86044010D01*
X216951630Y-86044630D01*
X216919632Y-86060104D01*
X216908890Y-86069161D01*
X216874505Y-86101027D01*
X216874505Y-86517179D01*
X216736188Y-86517179D01*
X216736188Y-85913614D01*
X216805347Y-85913614D01*
X216846869Y-85915256D01*
X216868291Y-85921087D01*
X216874502Y-85932461D01*
X216874505Y-85932798D01*
X216877439Y-85944713D01*
X216890704Y-85943159D01*
X216909084Y-85934563D01*
X216947046Y-85918568D01*
X216977872Y-85908945D01*
X217017536Y-85906478D01*
X217064460Y-85913030D01*
G36*
X214510988Y-85924002D02*
G01*
X214542283Y-85938950D01*
X214572591Y-85960541D01*
X214595682Y-85985391D01*
X214612500Y-86017087D01*
X214623994Y-86059214D01*
X214631109Y-86115358D01*
X214634793Y-86189106D01*
X214635992Y-86284044D01*
X214636011Y-86293985D01*
X214636287Y-86517179D01*
X214497970Y-86517179D01*
X214497970Y-86311418D01*
X214497872Y-86235189D01*
X214497191Y-86179939D01*
X214495349Y-86141501D01*
X214491767Y-86115706D01*
X214485868Y-86098384D01*
X214477073Y-86085368D01*
X214464820Y-86072507D01*
X214421953Y-86044873D01*
X214375157Y-86039745D01*
X214330576Y-86057217D01*
X214315072Y-86070221D01*
X214303690Y-86082447D01*
X214295519Y-86095540D01*
X214290026Y-86113615D01*
X214286680Y-86140787D01*
X214284949Y-86181170D01*
X214284303Y-86238879D01*
X214284208Y-86309132D01*
X214284208Y-86517179D01*
X214145891Y-86517179D01*
X214145891Y-85913614D01*
X214215050Y-85913614D01*
X214256572Y-85915256D01*
X214277994Y-85921087D01*
X214284205Y-85932461D01*
X214284208Y-85932798D01*
X214287090Y-85943938D01*
X214299801Y-85942674D01*
X214325074Y-85930434D01*
X214382395Y-85912424D01*
X214447963Y-85910421D01*
X214510988Y-85924002D01*
G37*
X214510988Y-85924002D02*
X214542283Y-85938950D01*
X214572591Y-85960541D01*
X214595682Y-85985391D01*
X214612500Y-86017087D01*
X214623994Y-86059214D01*
X214631109Y-86115358D01*
X214634793Y-86189106D01*
X214635992Y-86284044D01*
X214636011Y-86293985D01*
X214636287Y-86517179D01*
X214497970Y-86517179D01*
X214497970Y-86311418D01*
X214497872Y-86235189D01*
X214497191Y-86179939D01*
X214495349Y-86141501D01*
X214491767Y-86115706D01*
X214485868Y-86098384D01*
X214477073Y-86085368D01*
X214464820Y-86072507D01*
X214421953Y-86044873D01*
X214375157Y-86039745D01*
X214330576Y-86057217D01*
X214315072Y-86070221D01*
X214303690Y-86082447D01*
X214295519Y-86095540D01*
X214290026Y-86113615D01*
X214286680Y-86140787D01*
X214284949Y-86181170D01*
X214284303Y-86238879D01*
X214284208Y-86309132D01*
X214284208Y-86517179D01*
X214145891Y-86517179D01*
X214145891Y-85913614D01*
X214215050Y-85913614D01*
X214256572Y-85915256D01*
X214277994Y-85921087D01*
X214284205Y-85932461D01*
X214284208Y-85932798D01*
X214287090Y-85943938D01*
X214299801Y-85942674D01*
X214325074Y-85930434D01*
X214382395Y-85912424D01*
X214447963Y-85910421D01*
X214510988Y-85924002D01*
G36*
X217942898Y-85911457D02*
G01*
X217975096Y-85919279D01*
X218036825Y-85947921D01*
X218089610Y-85991667D01*
X218126141Y-86044117D01*
X218131160Y-86055893D01*
X218138045Y-86086740D01*
X218142864Y-86132371D01*
X218144505Y-86178492D01*
X218144505Y-86265693D01*
X217962178Y-86265693D01*
X217886979Y-86265978D01*
X217834003Y-86267704D01*
X217800325Y-86272181D01*
X217783020Y-86280720D01*
X217779163Y-86294630D01*
X217785829Y-86315222D01*
X217797770Y-86339315D01*
X217831080Y-86379525D01*
X217877368Y-86399558D01*
X217933944Y-86398905D01*
X217998031Y-86377101D01*
X218053417Y-86350193D01*
X218099375Y-86386532D01*
X218145333Y-86422872D01*
X218102096Y-86462819D01*
X218044374Y-86500563D01*
X217973386Y-86523320D01*
X217897029Y-86529688D01*
X217823199Y-86518268D01*
X217811287Y-86514393D01*
X217746399Y-86480506D01*
X217698130Y-86429986D01*
X217665465Y-86361325D01*
X217647385Y-86273014D01*
X217647175Y-86271121D01*
X217645556Y-86174878D01*
X217652100Y-86140542D01*
X217779852Y-86140542D01*
X217791584Y-86145822D01*
X217823438Y-86149867D01*
X217870397Y-86152176D01*
X217900154Y-86152525D01*
X217955648Y-86152306D01*
X217990346Y-86150916D01*
X218008601Y-86147251D01*
X218014766Y-86140210D01*
X218013195Y-86128690D01*
X218011878Y-86124233D01*
X217989382Y-86082355D01*
X217954003Y-86048604D01*
X217922780Y-86033773D01*
X217881301Y-86034668D01*
X217839269Y-86053164D01*
X217804012Y-86083786D01*
X217782854Y-86121062D01*
X217779852Y-86140542D01*
X217652100Y-86140542D01*
X217661690Y-86090229D01*
X217693698Y-86019191D01*
X217739701Y-85963779D01*
X217797821Y-85926009D01*
X217866180Y-85907896D01*
X217942898Y-85911457D01*
G37*
X217942898Y-85911457D02*
X217975096Y-85919279D01*
X218036825Y-85947921D01*
X218089610Y-85991667D01*
X218126141Y-86044117D01*
X218131160Y-86055893D01*
X218138045Y-86086740D01*
X218142864Y-86132371D01*
X218144505Y-86178492D01*
X218144505Y-86265693D01*
X217962178Y-86265693D01*
X217886979Y-86265978D01*
X217834003Y-86267704D01*
X217800325Y-86272181D01*
X217783020Y-86280720D01*
X217779163Y-86294630D01*
X217785829Y-86315222D01*
X217797770Y-86339315D01*
X217831080Y-86379525D01*
X217877368Y-86399558D01*
X217933944Y-86398905D01*
X217998031Y-86377101D01*
X218053417Y-86350193D01*
X218099375Y-86386532D01*
X218145333Y-86422872D01*
X218102096Y-86462819D01*
X218044374Y-86500563D01*
X217973386Y-86523320D01*
X217897029Y-86529688D01*
X217823199Y-86518268D01*
X217811287Y-86514393D01*
X217746399Y-86480506D01*
X217698130Y-86429986D01*
X217665465Y-86361325D01*
X217647385Y-86273014D01*
X217647175Y-86271121D01*
X217645556Y-86174878D01*
X217652100Y-86140542D01*
X217779852Y-86140542D01*
X217791584Y-86145822D01*
X217823438Y-86149867D01*
X217870397Y-86152176D01*
X217900154Y-86152525D01*
X217955648Y-86152306D01*
X217990346Y-86150916D01*
X218008601Y-86147251D01*
X218014766Y-86140210D01*
X218013195Y-86128690D01*
X218011878Y-86124233D01*
X217989382Y-86082355D01*
X217954003Y-86048604D01*
X217922780Y-86033773D01*
X217881301Y-86034668D01*
X217839269Y-86053164D01*
X217804012Y-86083786D01*
X217782854Y-86121062D01*
X217779852Y-86140542D01*
X217652100Y-86140542D01*
X217661690Y-86090229D01*
X217693698Y-86019191D01*
X217739701Y-85963779D01*
X217797821Y-85926009D01*
X217866180Y-85907896D01*
X217942898Y-85911457D01*
G36*
X217482226Y-85918880D02*
G01*
X217555080Y-85949830D01*
X217578027Y-85964895D01*
X217607354Y-85988048D01*
X217625764Y-86006253D01*
X217628961Y-86012183D01*
X217619935Y-86025340D01*
X217596837Y-86047667D01*
X217578344Y-86063250D01*
X217527728Y-86103926D01*
X217487760Y-86070295D01*
X217456874Y-86048584D01*
X217426759Y-86041090D01*
X217392292Y-86042920D01*
X217337561Y-86056528D01*
X217299886Y-86084772D01*
X217276991Y-86130433D01*
X217266597Y-86196289D01*
X217266595Y-86196331D01*
X217267494Y-86269939D01*
X217281463Y-86323946D01*
X217309328Y-86360716D01*
X217328325Y-86373168D01*
X217378776Y-86388673D01*
X217432663Y-86388683D01*
X217479546Y-86373638D01*
X217490644Y-86366287D01*
X217518476Y-86347511D01*
X217540236Y-86344434D01*
X217563704Y-86358409D01*
X217589649Y-86383510D01*
X217630716Y-86425880D01*
X217585121Y-86463464D01*
X217514674Y-86505882D01*
X217435233Y-86526785D01*
X217352215Y-86525272D01*
X217297694Y-86511411D01*
X217233970Y-86477135D01*
X217183005Y-86423212D01*
X217159851Y-86385149D01*
X217141099Y-86330536D01*
X217131715Y-86261369D01*
X217131643Y-86186407D01*
X217140824Y-86114409D01*
X217159199Y-86054137D01*
X217162093Y-86047958D01*
X217204952Y-85987351D01*
X217262979Y-85943224D01*
X217331591Y-85916493D01*
X217406201Y-85908073D01*
X217482226Y-85918880D01*
G37*
X217482226Y-85918880D02*
X217555080Y-85949830D01*
X217578027Y-85964895D01*
X217607354Y-85988048D01*
X217625764Y-86006253D01*
X217628961Y-86012183D01*
X217619935Y-86025340D01*
X217596837Y-86047667D01*
X217578344Y-86063250D01*
X217527728Y-86103926D01*
X217487760Y-86070295D01*
X217456874Y-86048584D01*
X217426759Y-86041090D01*
X217392292Y-86042920D01*
X217337561Y-86056528D01*
X217299886Y-86084772D01*
X217276991Y-86130433D01*
X217266597Y-86196289D01*
X217266595Y-86196331D01*
X217267494Y-86269939D01*
X217281463Y-86323946D01*
X217309328Y-86360716D01*
X217328325Y-86373168D01*
X217378776Y-86388673D01*
X217432663Y-86388683D01*
X217479546Y-86373638D01*
X217490644Y-86366287D01*
X217518476Y-86347511D01*
X217540236Y-86344434D01*
X217563704Y-86358409D01*
X217589649Y-86383510D01*
X217630716Y-86425880D01*
X217585121Y-86463464D01*
X217514674Y-86505882D01*
X217435233Y-86526785D01*
X217352215Y-86525272D01*
X217297694Y-86511411D01*
X217233970Y-86477135D01*
X217183005Y-86423212D01*
X217159851Y-86385149D01*
X217141099Y-86330536D01*
X217131715Y-86261369D01*
X217131643Y-86186407D01*
X217140824Y-86114409D01*
X217159199Y-86054137D01*
X217162093Y-86047958D01*
X217204952Y-85987351D01*
X217262979Y-85943224D01*
X217331591Y-85916493D01*
X217406201Y-85908073D01*
X217482226Y-85918880D01*
G36*
X216258367Y-86109342D02*
G01*
X216259555Y-86201563D01*
X216263897Y-86271610D01*
X216272558Y-86322381D01*
X216286704Y-86356772D01*
X216307500Y-86377679D01*
X216336110Y-86388000D01*
X216371535Y-86390636D01*
X216408636Y-86387682D01*
X216436818Y-86376889D01*
X216457243Y-86355360D01*
X216471079Y-86320199D01*
X216479491Y-86268510D01*
X216483643Y-86197394D01*
X216484703Y-86109342D01*
X216484703Y-85913614D01*
X216623020Y-85913614D01*
X216623020Y-86517179D01*
X216553862Y-86517179D01*
X216512170Y-86515489D01*
X216490701Y-86509556D01*
X216484703Y-86498293D01*
X216481091Y-86488261D01*
X216466714Y-86490383D01*
X216437736Y-86504580D01*
X216371319Y-86526480D01*
X216300875Y-86524928D01*
X216233377Y-86501147D01*
X216201233Y-86482362D01*
X216176715Y-86462022D01*
X216158804Y-86436573D01*
X216146479Y-86402458D01*
X216138723Y-86356121D01*
X216134516Y-86294007D01*
X216132840Y-86212561D01*
X216132624Y-86149578D01*
X216132624Y-85913614D01*
X216258367Y-85913614D01*
X216258367Y-86109342D01*
G37*
X216258367Y-86109342D02*
X216259555Y-86201563D01*
X216263897Y-86271610D01*
X216272558Y-86322381D01*
X216286704Y-86356772D01*
X216307500Y-86377679D01*
X216336110Y-86388000D01*
X216371535Y-86390636D01*
X216408636Y-86387682D01*
X216436818Y-86376889D01*
X216457243Y-86355360D01*
X216471079Y-86320199D01*
X216479491Y-86268510D01*
X216483643Y-86197394D01*
X216484703Y-86109342D01*
X216484703Y-85913614D01*
X216623020Y-85913614D01*
X216623020Y-86517179D01*
X216553862Y-86517179D01*
X216512170Y-86515489D01*
X216490701Y-86509556D01*
X216484703Y-86498293D01*
X216481091Y-86488261D01*
X216466714Y-86490383D01*
X216437736Y-86504580D01*
X216371319Y-86526480D01*
X216300875Y-86524928D01*
X216233377Y-86501147D01*
X216201233Y-86482362D01*
X216176715Y-86462022D01*
X216158804Y-86436573D01*
X216146479Y-86402458D01*
X216138723Y-86356121D01*
X216134516Y-86294007D01*
X216132840Y-86212561D01*
X216132624Y-86149578D01*
X216132624Y-85913614D01*
X216258367Y-85913614D01*
X216258367Y-86109342D01*
G36*
X215875762Y-85921055D02*
G01*
X215939363Y-85955692D01*
X215989123Y-86010372D01*
X216012568Y-86054842D01*
X216022634Y-86094121D01*
X216029156Y-86150116D01*
X216031951Y-86214621D01*
X216030836Y-86279429D01*
X216025626Y-86336334D01*
X216019541Y-86366727D01*
X215999014Y-86408306D01*
X215963463Y-86452468D01*
X215920619Y-86491087D01*
X215878211Y-86516034D01*
X215877177Y-86516430D01*
X215824553Y-86527331D01*
X215762188Y-86527601D01*
X215702924Y-86517676D01*
X215680040Y-86509722D01*
X215621102Y-86476300D01*
X215578890Y-86432511D01*
X215551156Y-86374538D01*
X215535651Y-86298565D01*
X215532143Y-86258771D01*
X215532590Y-86208766D01*
X215667376Y-86208766D01*
X215671917Y-86281732D01*
X215684986Y-86337334D01*
X215705756Y-86372861D01*
X215720552Y-86383020D01*
X215758464Y-86390104D01*
X215803527Y-86388007D01*
X215842487Y-86377812D01*
X215852704Y-86372204D01*
X215879659Y-86339538D01*
X215897451Y-86289545D01*
X215905024Y-86228705D01*
X215901325Y-86163497D01*
X215893057Y-86124253D01*
X215869320Y-86078805D01*
X215831849Y-86050396D01*
X215786720Y-86040573D01*
X215740011Y-86050887D01*
X215704132Y-86076112D01*
X215685277Y-86096925D01*
X215674272Y-86117439D01*
X215669026Y-86145203D01*
X215667449Y-86187762D01*
X215667376Y-86208766D01*
X215532590Y-86208766D01*
X215533094Y-86152580D01*
X215550388Y-86065501D01*
X215584029Y-85997530D01*
X215634018Y-85948664D01*
X215700356Y-85918899D01*
X215714601Y-85915448D01*
X215800210Y-85907345D01*
X215875762Y-85921055D01*
G37*
X215875762Y-85921055D02*
X215939363Y-85955692D01*
X215989123Y-86010372D01*
X216012568Y-86054842D01*
X216022634Y-86094121D01*
X216029156Y-86150116D01*
X216031951Y-86214621D01*
X216030836Y-86279429D01*
X216025626Y-86336334D01*
X216019541Y-86366727D01*
X215999014Y-86408306D01*
X215963463Y-86452468D01*
X215920619Y-86491087D01*
X215878211Y-86516034D01*
X215877177Y-86516430D01*
X215824553Y-86527331D01*
X215762188Y-86527601D01*
X215702924Y-86517676D01*
X215680040Y-86509722D01*
X215621102Y-86476300D01*
X215578890Y-86432511D01*
X215551156Y-86374538D01*
X215535651Y-86298565D01*
X215532143Y-86258771D01*
X215532590Y-86208766D01*
X215667376Y-86208766D01*
X215671917Y-86281732D01*
X215684986Y-86337334D01*
X215705756Y-86372861D01*
X215720552Y-86383020D01*
X215758464Y-86390104D01*
X215803527Y-86388007D01*
X215842487Y-86377812D01*
X215852704Y-86372204D01*
X215879659Y-86339538D01*
X215897451Y-86289545D01*
X215905024Y-86228705D01*
X215901325Y-86163497D01*
X215893057Y-86124253D01*
X215869320Y-86078805D01*
X215831849Y-86050396D01*
X215786720Y-86040573D01*
X215740011Y-86050887D01*
X215704132Y-86076112D01*
X215685277Y-86096925D01*
X215674272Y-86117439D01*
X215669026Y-86145203D01*
X215667449Y-86187762D01*
X215667376Y-86208766D01*
X215532590Y-86208766D01*
X215533094Y-86152580D01*
X215550388Y-86065501D01*
X215584029Y-85997530D01*
X215634018Y-85948664D01*
X215700356Y-85918899D01*
X215714601Y-85915448D01*
X215800210Y-85907345D01*
X215875762Y-85921055D01*
G36*
X215279017Y-85911452D02*
G01*
X215326634Y-85920482D01*
X215376034Y-85939370D01*
X215381312Y-85941777D01*
X215418774Y-85961476D01*
X215444717Y-85979781D01*
X215453103Y-85991508D01*
X215445117Y-86010632D01*
X215425720Y-86038850D01*
X215417110Y-86049384D01*
X215381628Y-86090847D01*
X215335885Y-86063858D01*
X215292350Y-86045878D01*
X215242050Y-86036267D01*
X215193812Y-86035660D01*
X215156467Y-86044691D01*
X215147505Y-86050327D01*
X215130437Y-86076171D01*
X215128363Y-86105941D01*
X215141134Y-86129197D01*
X215148688Y-86133708D01*
X215171325Y-86139309D01*
X215211115Y-86145892D01*
X215260166Y-86152183D01*
X215269215Y-86153170D01*
X215347996Y-86166798D01*
X215405136Y-86189946D01*
X215443030Y-86224752D01*
X215464079Y-86273354D01*
X215470635Y-86332718D01*
X215461577Y-86400198D01*
X215432164Y-86453188D01*
X215382278Y-86491783D01*
X215311800Y-86516081D01*
X215233565Y-86525667D01*
X215169766Y-86525552D01*
X215118016Y-86516845D01*
X215082673Y-86504825D01*
X215038017Y-86483880D01*
X214996747Y-86459574D01*
X214982079Y-86448876D01*
X214944357Y-86418084D01*
X214989852Y-86372049D01*
X215035347Y-86326013D01*
X215087072Y-86360243D01*
X215138952Y-86385952D01*
X215194351Y-86399399D01*
X215247605Y-86400818D01*
X215293049Y-86390443D01*
X215325016Y-86368507D01*
X215335338Y-86349998D01*
X215333789Y-86320314D01*
X215308140Y-86297615D01*
X215258460Y-86281940D01*
X215204031Y-86274695D01*
X215120264Y-86260873D01*
X215058033Y-86234796D01*
X215016507Y-86195699D01*
X214994853Y-86142820D01*
X214991853Y-86080126D01*
X215006671Y-86014642D01*
X215040454Y-85965144D01*
X215093505Y-85931408D01*
X215166126Y-85913207D01*
X215219928Y-85909639D01*
X215279017Y-85911452D01*
G37*
X215279017Y-85911452D02*
X215326634Y-85920482D01*
X215376034Y-85939370D01*
X215381312Y-85941777D01*
X215418774Y-85961476D01*
X215444717Y-85979781D01*
X215453103Y-85991508D01*
X215445117Y-86010632D01*
X215425720Y-86038850D01*
X215417110Y-86049384D01*
X215381628Y-86090847D01*
X215335885Y-86063858D01*
X215292350Y-86045878D01*
X215242050Y-86036267D01*
X215193812Y-86035660D01*
X215156467Y-86044691D01*
X215147505Y-86050327D01*
X215130437Y-86076171D01*
X215128363Y-86105941D01*
X215141134Y-86129197D01*
X215148688Y-86133708D01*
X215171325Y-86139309D01*
X215211115Y-86145892D01*
X215260166Y-86152183D01*
X215269215Y-86153170D01*
X215347996Y-86166798D01*
X215405136Y-86189946D01*
X215443030Y-86224752D01*
X215464079Y-86273354D01*
X215470635Y-86332718D01*
X215461577Y-86400198D01*
X215432164Y-86453188D01*
X215382278Y-86491783D01*
X215311800Y-86516081D01*
X215233565Y-86525667D01*
X215169766Y-86525552D01*
X215118016Y-86516845D01*
X215082673Y-86504825D01*
X215038017Y-86483880D01*
X214996747Y-86459574D01*
X214982079Y-86448876D01*
X214944357Y-86418084D01*
X214989852Y-86372049D01*
X215035347Y-86326013D01*
X215087072Y-86360243D01*
X215138952Y-86385952D01*
X215194351Y-86399399D01*
X215247605Y-86400818D01*
X215293049Y-86390443D01*
X215325016Y-86368507D01*
X215335338Y-86349998D01*
X215333789Y-86320314D01*
X215308140Y-86297615D01*
X215258460Y-86281940D01*
X215204031Y-86274695D01*
X215120264Y-86260873D01*
X215058033Y-86234796D01*
X215016507Y-86195699D01*
X214994853Y-86142820D01*
X214991853Y-86080126D01*
X215006671Y-86014642D01*
X215040454Y-85965144D01*
X215093505Y-85931408D01*
X215166126Y-85913207D01*
X215219928Y-85909639D01*
X215279017Y-85911452D01*
G36*
X213908301Y-85927614D02*
G01*
X213920832Y-85933514D01*
X213964201Y-85965283D01*
X214005210Y-86011646D01*
X214035832Y-86062696D01*
X214044541Y-86086166D01*
X214052488Y-86128091D01*
X214057226Y-86178757D01*
X214057801Y-86199679D01*
X214057871Y-86265693D01*
X213677917Y-86265693D01*
X213686017Y-86300273D01*
X213705896Y-86341170D01*
X213740653Y-86376514D01*
X213782002Y-86399282D01*
X213808351Y-86404010D01*
X213844084Y-86398273D01*
X213886718Y-86383882D01*
X213901201Y-86377262D01*
X213954760Y-86350513D01*
X214000467Y-86385376D01*
X214026842Y-86408955D01*
X214040876Y-86428417D01*
X214041586Y-86434129D01*
X214029049Y-86447973D01*
X214001572Y-86469012D01*
X213976634Y-86485425D01*
X213909336Y-86514930D01*
X213833890Y-86528284D01*
X213759112Y-86524812D01*
X213699505Y-86506663D01*
X213638059Y-86467784D01*
X213594392Y-86416595D01*
X213567074Y-86350367D01*
X213554678Y-86266371D01*
X213553579Y-86227936D01*
X213557978Y-86139861D01*
X213558518Y-86137299D01*
X213684418Y-86137299D01*
X213687885Y-86145558D01*
X213702137Y-86150113D01*
X213731530Y-86152065D01*
X213780425Y-86152517D01*
X213799252Y-86152525D01*
X213856533Y-86151843D01*
X213892859Y-86149364D01*
X213912396Y-86144443D01*
X213919310Y-86136434D01*
X213919555Y-86133862D01*
X213911664Y-86113423D01*
X213891915Y-86084789D01*
X213883425Y-86074763D01*
X213851906Y-86046408D01*
X213819051Y-86035259D01*
X213801349Y-86034327D01*
X213753461Y-86045981D01*
X213713301Y-86077285D01*
X213687827Y-86122752D01*
X213687375Y-86124233D01*
X213684418Y-86137299D01*
X213558518Y-86137299D01*
X213572608Y-86070510D01*
X213598962Y-86015025D01*
X213631193Y-85975639D01*
X213690783Y-85932931D01*
X213760832Y-85910109D01*
X213835339Y-85908046D01*
X213908301Y-85927614D01*
G37*
X213908301Y-85927614D02*
X213920832Y-85933514D01*
X213964201Y-85965283D01*
X214005210Y-86011646D01*
X214035832Y-86062696D01*
X214044541Y-86086166D01*
X214052488Y-86128091D01*
X214057226Y-86178757D01*
X214057801Y-86199679D01*
X214057871Y-86265693D01*
X213677917Y-86265693D01*
X213686017Y-86300273D01*
X213705896Y-86341170D01*
X213740653Y-86376514D01*
X213782002Y-86399282D01*
X213808351Y-86404010D01*
X213844084Y-86398273D01*
X213886718Y-86383882D01*
X213901201Y-86377262D01*
X213954760Y-86350513D01*
X214000467Y-86385376D01*
X214026842Y-86408955D01*
X214040876Y-86428417D01*
X214041586Y-86434129D01*
X214029049Y-86447973D01*
X214001572Y-86469012D01*
X213976634Y-86485425D01*
X213909336Y-86514930D01*
X213833890Y-86528284D01*
X213759112Y-86524812D01*
X213699505Y-86506663D01*
X213638059Y-86467784D01*
X213594392Y-86416595D01*
X213567074Y-86350367D01*
X213554678Y-86266371D01*
X213553579Y-86227936D01*
X213557978Y-86139861D01*
X213558518Y-86137299D01*
X213684418Y-86137299D01*
X213687885Y-86145558D01*
X213702137Y-86150113D01*
X213731530Y-86152065D01*
X213780425Y-86152517D01*
X213799252Y-86152525D01*
X213856533Y-86151843D01*
X213892859Y-86149364D01*
X213912396Y-86144443D01*
X213919310Y-86136434D01*
X213919555Y-86133862D01*
X213911664Y-86113423D01*
X213891915Y-86084789D01*
X213883425Y-86074763D01*
X213851906Y-86046408D01*
X213819051Y-86035259D01*
X213801349Y-86034327D01*
X213753461Y-86045981D01*
X213713301Y-86077285D01*
X213687827Y-86122752D01*
X213687375Y-86124233D01*
X213684418Y-86137299D01*
X213558518Y-86137299D01*
X213572608Y-86070510D01*
X213598962Y-86015025D01*
X213631193Y-85975639D01*
X213690783Y-85932931D01*
X213760832Y-85910109D01*
X213835339Y-85908046D01*
X213908301Y-85927614D01*
G36*
X212726739Y-85920148D02*
G01*
X212792521Y-85949231D01*
X212842460Y-85997793D01*
X212876626Y-86065908D01*
X212895093Y-86153651D01*
X212896417Y-86167351D01*
X212897454Y-86263939D01*
X212884007Y-86348602D01*
X212856892Y-86417221D01*
X212842373Y-86439294D01*
X212791799Y-86486011D01*
X212727391Y-86516268D01*
X212655334Y-86528824D01*
X212581815Y-86522439D01*
X212525928Y-86502772D01*
X212477868Y-86469629D01*
X212438588Y-86426175D01*
X212437908Y-86425158D01*
X212421956Y-86398338D01*
X212411590Y-86371368D01*
X212405312Y-86337332D01*
X212401627Y-86289310D01*
X212400003Y-86249931D01*
X212399328Y-86214219D01*
X212525045Y-86214219D01*
X212526274Y-86249770D01*
X212530734Y-86297094D01*
X212538603Y-86327465D01*
X212552793Y-86349072D01*
X212566083Y-86361694D01*
X212613198Y-86388122D01*
X212662495Y-86391653D01*
X212708407Y-86372639D01*
X212731362Y-86351331D01*
X212747904Y-86329859D01*
X212757579Y-86309313D01*
X212761826Y-86282574D01*
X212762080Y-86242523D01*
X212760772Y-86205638D01*
X212757957Y-86152947D01*
X212753495Y-86118772D01*
X212745452Y-86096480D01*
X212731897Y-86079442D01*
X212721155Y-86069703D01*
X212676223Y-86044123D01*
X212627751Y-86042847D01*
X212587106Y-86057999D01*
X212552433Y-86089642D01*
X212531776Y-86141620D01*
X212525045Y-86214219D01*
X212399328Y-86214219D01*
X212398521Y-86171621D01*
X212401052Y-86113056D01*
X212408638Y-86069007D01*
X212422319Y-86034248D01*
X212443135Y-86003551D01*
X212450853Y-85994436D01*
X212499111Y-85949021D01*
X212550872Y-85922493D01*
X212614172Y-85911379D01*
X212645039Y-85910471D01*
X212726739Y-85920148D01*
G37*
X212726739Y-85920148D02*
X212792521Y-85949231D01*
X212842460Y-85997793D01*
X212876626Y-86065908D01*
X212895093Y-86153651D01*
X212896417Y-86167351D01*
X212897454Y-86263939D01*
X212884007Y-86348602D01*
X212856892Y-86417221D01*
X212842373Y-86439294D01*
X212791799Y-86486011D01*
X212727391Y-86516268D01*
X212655334Y-86528824D01*
X212581815Y-86522439D01*
X212525928Y-86502772D01*
X212477868Y-86469629D01*
X212438588Y-86426175D01*
X212437908Y-86425158D01*
X212421956Y-86398338D01*
X212411590Y-86371368D01*
X212405312Y-86337332D01*
X212401627Y-86289310D01*
X212400003Y-86249931D01*
X212399328Y-86214219D01*
X212525045Y-86214219D01*
X212526274Y-86249770D01*
X212530734Y-86297094D01*
X212538603Y-86327465D01*
X212552793Y-86349072D01*
X212566083Y-86361694D01*
X212613198Y-86388122D01*
X212662495Y-86391653D01*
X212708407Y-86372639D01*
X212731362Y-86351331D01*
X212747904Y-86329859D01*
X212757579Y-86309313D01*
X212761826Y-86282574D01*
X212762080Y-86242523D01*
X212760772Y-86205638D01*
X212757957Y-86152947D01*
X212753495Y-86118772D01*
X212745452Y-86096480D01*
X212731897Y-86079442D01*
X212721155Y-86069703D01*
X212676223Y-86044123D01*
X212627751Y-86042847D01*
X212587106Y-86057999D01*
X212552433Y-86089642D01*
X212531776Y-86141620D01*
X212525045Y-86214219D01*
X212399328Y-86214219D01*
X212398521Y-86171621D01*
X212401052Y-86113056D01*
X212408638Y-86069007D01*
X212422319Y-86034248D01*
X212443135Y-86003551D01*
X212450853Y-85994436D01*
X212499111Y-85949021D01*
X212550872Y-85922493D01*
X212614172Y-85911379D01*
X212645039Y-85910471D01*
X212726739Y-85920148D01*
G36*
X217297581Y-86859970D02*
G01*
X217357685Y-86875597D01*
X217408021Y-86907848D01*
X217432393Y-86931940D01*
X217472345Y-86988895D01*
X217495242Y-87054965D01*
X217503108Y-87136182D01*
X217503148Y-87142748D01*
X217503218Y-87208763D01*
X217123264Y-87208763D01*
X217131363Y-87243342D01*
X217145987Y-87274659D01*
X217171581Y-87307291D01*
X217176935Y-87312500D01*
X217222943Y-87340694D01*
X217275410Y-87345475D01*
X217335803Y-87326926D01*
X217346040Y-87321931D01*
X217377439Y-87306745D01*
X217398470Y-87298094D01*
X217402139Y-87297293D01*
X217414948Y-87305063D01*
X217439378Y-87324072D01*
X217451779Y-87334460D01*
X217477476Y-87358321D01*
X217485915Y-87374077D01*
X217480058Y-87388571D01*
X217476928Y-87392534D01*
X217455725Y-87409879D01*
X217420738Y-87430959D01*
X217396337Y-87443265D01*
X217327072Y-87464946D01*
X217250388Y-87471971D01*
X217177765Y-87463647D01*
X217157426Y-87457686D01*
X217094476Y-87423952D01*
X217047815Y-87372045D01*
X217017173Y-87301459D01*
X217002282Y-87211692D01*
X217000647Y-87164753D01*
X217005421Y-87096413D01*
X217125990Y-87096413D01*
X217137652Y-87101465D01*
X217168998Y-87105429D01*
X217214571Y-87107768D01*
X217245446Y-87108169D01*
X217300981Y-87107783D01*
X217336033Y-87105975D01*
X217355262Y-87101773D01*
X217363330Y-87094203D01*
X217364901Y-87083218D01*
X217354121Y-87049381D01*
X217326980Y-87015940D01*
X217291277Y-86990272D01*
X217255560Y-86979772D01*
X217207048Y-86989086D01*
X217165053Y-87016013D01*
X217135936Y-87054827D01*
X217125990Y-87096413D01*
X217005421Y-87096413D01*
X217007599Y-87065236D01*
X217029055Y-86985949D01*
X217065470Y-86926263D01*
X217117297Y-86885549D01*
X217184990Y-86863179D01*
X217221662Y-86858871D01*
X217297581Y-86859970D01*
G37*
X217297581Y-86859970D02*
X217357685Y-86875597D01*
X217408021Y-86907848D01*
X217432393Y-86931940D01*
X217472345Y-86988895D01*
X217495242Y-87054965D01*
X217503108Y-87136182D01*
X217503148Y-87142748D01*
X217503218Y-87208763D01*
X217123264Y-87208763D01*
X217131363Y-87243342D01*
X217145987Y-87274659D01*
X217171581Y-87307291D01*
X217176935Y-87312500D01*
X217222943Y-87340694D01*
X217275410Y-87345475D01*
X217335803Y-87326926D01*
X217346040Y-87321931D01*
X217377439Y-87306745D01*
X217398470Y-87298094D01*
X217402139Y-87297293D01*
X217414948Y-87305063D01*
X217439378Y-87324072D01*
X217451779Y-87334460D01*
X217477476Y-87358321D01*
X217485915Y-87374077D01*
X217480058Y-87388571D01*
X217476928Y-87392534D01*
X217455725Y-87409879D01*
X217420738Y-87430959D01*
X217396337Y-87443265D01*
X217327072Y-87464946D01*
X217250388Y-87471971D01*
X217177765Y-87463647D01*
X217157426Y-87457686D01*
X217094476Y-87423952D01*
X217047815Y-87372045D01*
X217017173Y-87301459D01*
X217002282Y-87211692D01*
X217000647Y-87164753D01*
X217005421Y-87096413D01*
X217125990Y-87096413D01*
X217137652Y-87101465D01*
X217168998Y-87105429D01*
X217214571Y-87107768D01*
X217245446Y-87108169D01*
X217300981Y-87107783D01*
X217336033Y-87105975D01*
X217355262Y-87101773D01*
X217363330Y-87094203D01*
X217364901Y-87083218D01*
X217354121Y-87049381D01*
X217326980Y-87015940D01*
X217291277Y-86990272D01*
X217255560Y-86979772D01*
X217207048Y-86989086D01*
X217165053Y-87016013D01*
X217135936Y-87054827D01*
X217125990Y-87096413D01*
X217005421Y-87096413D01*
X217007599Y-87065236D01*
X217029055Y-86985949D01*
X217065470Y-86926263D01*
X217117297Y-86885549D01*
X217184990Y-86863179D01*
X217221662Y-86858871D01*
X217297581Y-86859970D01*
G36*
X216900255Y-86856486D02*
G01*
X216948595Y-86866015D01*
X216976114Y-86880125D01*
X217005064Y-86903568D01*
X216963876Y-86955571D01*
X216938482Y-86987064D01*
X216921238Y-87002428D01*
X216904102Y-87004776D01*
X216879027Y-86997217D01*
X216867257Y-86992941D01*
X216819270Y-86986631D01*
X216775324Y-87000156D01*
X216743060Y-87030710D01*
X216737819Y-87040452D01*
X216732112Y-87066258D01*
X216727706Y-87113817D01*
X216724811Y-87179758D01*
X216723631Y-87260710D01*
X216723614Y-87272226D01*
X216723614Y-87472822D01*
X216585297Y-87472822D01*
X216585297Y-86856683D01*
X216654456Y-86856683D01*
X216694333Y-86857725D01*
X216715107Y-86862358D01*
X216722789Y-86872849D01*
X216723614Y-86882745D01*
X216723614Y-86908806D01*
X216756745Y-86882745D01*
X216794735Y-86864965D01*
X216845770Y-86856174D01*
X216900255Y-86856486D01*
G37*
X216900255Y-86856486D02*
X216948595Y-86866015D01*
X216976114Y-86880125D01*
X217005064Y-86903568D01*
X216963876Y-86955571D01*
X216938482Y-86987064D01*
X216921238Y-87002428D01*
X216904102Y-87004776D01*
X216879027Y-86997217D01*
X216867257Y-86992941D01*
X216819270Y-86986631D01*
X216775324Y-87000156D01*
X216743060Y-87030710D01*
X216737819Y-87040452D01*
X216732112Y-87066258D01*
X216727706Y-87113817D01*
X216724811Y-87179758D01*
X216723631Y-87260710D01*
X216723614Y-87272226D01*
X216723614Y-87472822D01*
X216585297Y-87472822D01*
X216585297Y-86856683D01*
X216654456Y-86856683D01*
X216694333Y-86857725D01*
X216715107Y-86862358D01*
X216722789Y-86872849D01*
X216723614Y-86882745D01*
X216723614Y-86908806D01*
X216756745Y-86882745D01*
X216794735Y-86864965D01*
X216845770Y-86856174D01*
X216900255Y-86856486D01*
G36*
X216303411Y-86860417D02*
G01*
X216356411Y-86873290D01*
X216371731Y-86880110D01*
X216401428Y-86897974D01*
X216424220Y-86918093D01*
X216441083Y-86943962D01*
X216452998Y-86979073D01*
X216460942Y-87026920D01*
X216465894Y-87090996D01*
X216468831Y-87174794D01*
X216469947Y-87230768D01*
X216474052Y-87472822D01*
X216403932Y-87472822D01*
X216361393Y-87471038D01*
X216339476Y-87464942D01*
X216333812Y-87454706D01*
X216330821Y-87443637D01*
X216317451Y-87445754D01*
X216299233Y-87454629D01*
X216253624Y-87468233D01*
X216195007Y-87471899D01*
X216133354Y-87465903D01*
X216078638Y-87450521D01*
X216073730Y-87448386D01*
X216023723Y-87413255D01*
X215990756Y-87364419D01*
X215975587Y-87307333D01*
X215976746Y-87286824D01*
X216100508Y-87286824D01*
X216111413Y-87314425D01*
X216143745Y-87334204D01*
X216195910Y-87344819D01*
X216223787Y-87346228D01*
X216270247Y-87342620D01*
X216301129Y-87328597D01*
X216308664Y-87321931D01*
X216329076Y-87285666D01*
X216333812Y-87252773D01*
X216333812Y-87208763D01*
X216272513Y-87208763D01*
X216201256Y-87212395D01*
X216151276Y-87223818D01*
X216119696Y-87243824D01*
X216112626Y-87252743D01*
X216100508Y-87286824D01*
X215976746Y-87286824D01*
X215978971Y-87247456D01*
X216001663Y-87190244D01*
X216032624Y-87151580D01*
X216051376Y-87134864D01*
X216069733Y-87123878D01*
X216093619Y-87117180D01*
X216128957Y-87113326D01*
X216181669Y-87110873D01*
X216202577Y-87110168D01*
X216333812Y-87105879D01*
X216333620Y-87066158D01*
X216328537Y-87024405D01*
X216310162Y-86999158D01*
X216273039Y-86983030D01*
X216272043Y-86982742D01*
X216219410Y-86976400D01*
X216167906Y-86984684D01*
X216129630Y-87004827D01*
X216114272Y-87014773D01*
X216097730Y-87013397D01*
X216072275Y-86998987D01*
X216057328Y-86988817D01*
X216028091Y-86967088D01*
X216009980Y-86950800D01*
X216007074Y-86946137D01*
X216019040Y-86922005D01*
X216054396Y-86893185D01*
X216069753Y-86883461D01*
X216113901Y-86866714D01*
X216173398Y-86857227D01*
X216239487Y-86855095D01*
X216303411Y-86860417D01*
G37*
X216303411Y-86860417D02*
X216356411Y-86873290D01*
X216371731Y-86880110D01*
X216401428Y-86897974D01*
X216424220Y-86918093D01*
X216441083Y-86943962D01*
X216452998Y-86979073D01*
X216460942Y-87026920D01*
X216465894Y-87090996D01*
X216468831Y-87174794D01*
X216469947Y-87230768D01*
X216474052Y-87472822D01*
X216403932Y-87472822D01*
X216361393Y-87471038D01*
X216339476Y-87464942D01*
X216333812Y-87454706D01*
X216330821Y-87443637D01*
X216317451Y-87445754D01*
X216299233Y-87454629D01*
X216253624Y-87468233D01*
X216195007Y-87471899D01*
X216133354Y-87465903D01*
X216078638Y-87450521D01*
X216073730Y-87448386D01*
X216023723Y-87413255D01*
X215990756Y-87364419D01*
X215975587Y-87307333D01*
X215976746Y-87286824D01*
X216100508Y-87286824D01*
X216111413Y-87314425D01*
X216143745Y-87334204D01*
X216195910Y-87344819D01*
X216223787Y-87346228D01*
X216270247Y-87342620D01*
X216301129Y-87328597D01*
X216308664Y-87321931D01*
X216329076Y-87285666D01*
X216333812Y-87252773D01*
X216333812Y-87208763D01*
X216272513Y-87208763D01*
X216201256Y-87212395D01*
X216151276Y-87223818D01*
X216119696Y-87243824D01*
X216112626Y-87252743D01*
X216100508Y-87286824D01*
X215976746Y-87286824D01*
X215978971Y-87247456D01*
X216001663Y-87190244D01*
X216032624Y-87151580D01*
X216051376Y-87134864D01*
X216069733Y-87123878D01*
X216093619Y-87117180D01*
X216128957Y-87113326D01*
X216181669Y-87110873D01*
X216202577Y-87110168D01*
X216333812Y-87105879D01*
X216333620Y-87066158D01*
X216328537Y-87024405D01*
X216310162Y-86999158D01*
X216273039Y-86983030D01*
X216272043Y-86982742D01*
X216219410Y-86976400D01*
X216167906Y-86984684D01*
X216129630Y-87004827D01*
X216114272Y-87014773D01*
X216097730Y-87013397D01*
X216072275Y-86998987D01*
X216057328Y-86988817D01*
X216028091Y-86967088D01*
X216009980Y-86950800D01*
X216007074Y-86946137D01*
X216019040Y-86922005D01*
X216054396Y-86893185D01*
X216069753Y-86883461D01*
X216113901Y-86866714D01*
X216173398Y-86857227D01*
X216239487Y-86855095D01*
X216303411Y-86860417D01*
G36*
X215546524Y-86859237D02*
G01*
X215596255Y-86862971D01*
X215726291Y-87252773D01*
X215746678Y-87183614D01*
X215758946Y-87140874D01*
X215775085Y-87083115D01*
X215792512Y-87019625D01*
X215801726Y-86985570D01*
X215836388Y-86856683D01*
X215979391Y-86856683D01*
X215936646Y-86991857D01*
X215915596Y-87058342D01*
X215890167Y-87138539D01*
X215863610Y-87222193D01*
X215839902Y-87296782D01*
X215785902Y-87466535D01*
X215727598Y-87470328D01*
X215669295Y-87474122D01*
X215637679Y-87369734D01*
X215618182Y-87304889D01*
X215596904Y-87233400D01*
X215578308Y-87170263D01*
X215577574Y-87167750D01*
X215563684Y-87124969D01*
X215551429Y-87095779D01*
X215542846Y-87084741D01*
X215541082Y-87086018D01*
X215534891Y-87103130D01*
X215523128Y-87139787D01*
X215507225Y-87191378D01*
X215488614Y-87253294D01*
X215478543Y-87287352D01*
X215424007Y-87472822D01*
X215308264Y-87472822D01*
X215215737Y-87180471D01*
X215189744Y-87098462D01*
X215166066Y-87023987D01*
X215145820Y-86960544D01*
X215130126Y-86911632D01*
X215120102Y-86880749D01*
X215117055Y-86871726D01*
X215119467Y-86862487D01*
X215138408Y-86858441D01*
X215177823Y-86858846D01*
X215183993Y-86859152D01*
X215257086Y-86862971D01*
X215304957Y-87039010D01*
X215322553Y-87103211D01*
X215338277Y-87159649D01*
X215350746Y-87203422D01*
X215358574Y-87229630D01*
X215360020Y-87233903D01*
X215366014Y-87228990D01*
X215378101Y-87203532D01*
X215394893Y-87160997D01*
X215415003Y-87104850D01*
X215432003Y-87054130D01*
X215496794Y-86855504D01*
X215546524Y-86859237D01*
G37*
X215546524Y-86859237D02*
X215596255Y-86862971D01*
X215726291Y-87252773D01*
X215746678Y-87183614D01*
X215758946Y-87140874D01*
X215775085Y-87083115D01*
X215792512Y-87019625D01*
X215801726Y-86985570D01*
X215836388Y-86856683D01*
X215979391Y-86856683D01*
X215936646Y-86991857D01*
X215915596Y-87058342D01*
X215890167Y-87138539D01*
X215863610Y-87222193D01*
X215839902Y-87296782D01*
X215785902Y-87466535D01*
X215727598Y-87470328D01*
X215669295Y-87474122D01*
X215637679Y-87369734D01*
X215618182Y-87304889D01*
X215596904Y-87233400D01*
X215578308Y-87170263D01*
X215577574Y-87167750D01*
X215563684Y-87124969D01*
X215551429Y-87095779D01*
X215542846Y-87084741D01*
X215541082Y-87086018D01*
X215534891Y-87103130D01*
X215523128Y-87139787D01*
X215507225Y-87191378D01*
X215488614Y-87253294D01*
X215478543Y-87287352D01*
X215424007Y-87472822D01*
X215308264Y-87472822D01*
X215215737Y-87180471D01*
X215189744Y-87098462D01*
X215166066Y-87023987D01*
X215145820Y-86960544D01*
X215130126Y-86911632D01*
X215120102Y-86880749D01*
X215117055Y-86871726D01*
X215119467Y-86862487D01*
X215138408Y-86858441D01*
X215177823Y-86858846D01*
X215183993Y-86859152D01*
X215257086Y-86862971D01*
X215304957Y-87039010D01*
X215322553Y-87103211D01*
X215338277Y-87159649D01*
X215350746Y-87203422D01*
X215358574Y-87229630D01*
X215360020Y-87233903D01*
X215366014Y-87228990D01*
X215378101Y-87203532D01*
X215394893Y-87160997D01*
X215415003Y-87104850D01*
X215432003Y-87054130D01*
X215496794Y-86855504D01*
X215546524Y-86859237D01*
G36*
X215063812Y-87472822D02*
G01*
X214994654Y-87472822D01*
X214954512Y-87471645D01*
X214933606Y-87466772D01*
X214926078Y-87456186D01*
X214925495Y-87449029D01*
X214924226Y-87434676D01*
X214916221Y-87431923D01*
X214895185Y-87440771D01*
X214878827Y-87449029D01*
X214816023Y-87468597D01*
X214747752Y-87469729D01*
X214692248Y-87455135D01*
X214640562Y-87419877D01*
X214601162Y-87367835D01*
X214579587Y-87306450D01*
X214579038Y-87303018D01*
X214575833Y-87265571D01*
X214574239Y-87211813D01*
X214574367Y-87171155D01*
X214711721Y-87171155D01*
X214714903Y-87225194D01*
X214722141Y-87269735D01*
X214731940Y-87294888D01*
X214769011Y-87329260D01*
X214813026Y-87341582D01*
X214858416Y-87331618D01*
X214897203Y-87301895D01*
X214911892Y-87281905D01*
X214920481Y-87258050D01*
X214924504Y-87223230D01*
X214925495Y-87170930D01*
X214923722Y-87119139D01*
X214919037Y-87073634D01*
X214912397Y-87043181D01*
X214911290Y-87040452D01*
X214884509Y-87008000D01*
X214845421Y-86990183D01*
X214801685Y-86987306D01*
X214760962Y-86999674D01*
X214730913Y-87027593D01*
X214727796Y-87033148D01*
X214718039Y-87067022D01*
X214712723Y-87115728D01*
X214711721Y-87171155D01*
X214574367Y-87171155D01*
X214574432Y-87150540D01*
X214575336Y-87117563D01*
X214581486Y-87035981D01*
X214594267Y-86974730D01*
X214615529Y-86929449D01*
X214647122Y-86895779D01*
X214677793Y-86876014D01*
X214720646Y-86862120D01*
X214773944Y-86857354D01*
X214828520Y-86861236D01*
X214875208Y-86873282D01*
X214899876Y-86887693D01*
X214925495Y-86910878D01*
X214925495Y-86617773D01*
X215063812Y-86617773D01*
X215063812Y-87472822D01*
G37*
X215063812Y-87472822D02*
X214994654Y-87472822D01*
X214954512Y-87471645D01*
X214933606Y-87466772D01*
X214926078Y-87456186D01*
X214925495Y-87449029D01*
X214924226Y-87434676D01*
X214916221Y-87431923D01*
X214895185Y-87440771D01*
X214878827Y-87449029D01*
X214816023Y-87468597D01*
X214747752Y-87469729D01*
X214692248Y-87455135D01*
X214640562Y-87419877D01*
X214601162Y-87367835D01*
X214579587Y-87306450D01*
X214579038Y-87303018D01*
X214575833Y-87265571D01*
X214574239Y-87211813D01*
X214574367Y-87171155D01*
X214711721Y-87171155D01*
X214714903Y-87225194D01*
X214722141Y-87269735D01*
X214731940Y-87294888D01*
X214769011Y-87329260D01*
X214813026Y-87341582D01*
X214858416Y-87331618D01*
X214897203Y-87301895D01*
X214911892Y-87281905D01*
X214920481Y-87258050D01*
X214924504Y-87223230D01*
X214925495Y-87170930D01*
X214923722Y-87119139D01*
X214919037Y-87073634D01*
X214912397Y-87043181D01*
X214911290Y-87040452D01*
X214884509Y-87008000D01*
X214845421Y-86990183D01*
X214801685Y-86987306D01*
X214760962Y-86999674D01*
X214730913Y-87027593D01*
X214727796Y-87033148D01*
X214718039Y-87067022D01*
X214712723Y-87115728D01*
X214711721Y-87171155D01*
X214574367Y-87171155D01*
X214574432Y-87150540D01*
X214575336Y-87117563D01*
X214581486Y-87035981D01*
X214594267Y-86974730D01*
X214615529Y-86929449D01*
X214647122Y-86895779D01*
X214677793Y-86876014D01*
X214720646Y-86862120D01*
X214773944Y-86857354D01*
X214828520Y-86861236D01*
X214875208Y-86873282D01*
X214899876Y-86887693D01*
X214925495Y-86910878D01*
X214925495Y-86617773D01*
X215063812Y-86617773D01*
X215063812Y-87472822D01*
G36*
X214271644Y-86858020D02*
G01*
X214290461Y-86863660D01*
X214296527Y-86876053D01*
X214296782Y-86881647D01*
X214297871Y-86897230D01*
X214305368Y-86899676D01*
X214325619Y-86888993D01*
X214337649Y-86881694D01*
X214375600Y-86866063D01*
X214420928Y-86858334D01*
X214468456Y-86857740D01*
X214513005Y-86863513D01*
X214549398Y-86874884D01*
X214572457Y-86891088D01*
X214577004Y-86911355D01*
X214574709Y-86916843D01*
X214557980Y-86939626D01*
X214532037Y-86967647D01*
X214527345Y-86972177D01*
X214502617Y-86993005D01*
X214481282Y-86999735D01*
X214451445Y-86995038D01*
X214439492Y-86991917D01*
X214402295Y-86984421D01*
X214376141Y-86987792D01*
X214354054Y-86999681D01*
X214333822Y-87015635D01*
X214318921Y-87035700D01*
X214308566Y-87063702D01*
X214301971Y-87103467D01*
X214298351Y-87158823D01*
X214296922Y-87233594D01*
X214296782Y-87278740D01*
X214296782Y-87472822D01*
X214171040Y-87472822D01*
X214171040Y-86856683D01*
X214233911Y-86856683D01*
X214271644Y-86858020D01*
G37*
X214271644Y-86858020D02*
X214290461Y-86863660D01*
X214296527Y-86876053D01*
X214296782Y-86881647D01*
X214297871Y-86897230D01*
X214305368Y-86899676D01*
X214325619Y-86888993D01*
X214337649Y-86881694D01*
X214375600Y-86866063D01*
X214420928Y-86858334D01*
X214468456Y-86857740D01*
X214513005Y-86863513D01*
X214549398Y-86874884D01*
X214572457Y-86891088D01*
X214577004Y-86911355D01*
X214574709Y-86916843D01*
X214557980Y-86939626D01*
X214532037Y-86967647D01*
X214527345Y-86972177D01*
X214502617Y-86993005D01*
X214481282Y-86999735D01*
X214451445Y-86995038D01*
X214439492Y-86991917D01*
X214402295Y-86984421D01*
X214376141Y-86987792D01*
X214354054Y-86999681D01*
X214333822Y-87015635D01*
X214318921Y-87035700D01*
X214308566Y-87063702D01*
X214301971Y-87103467D01*
X214298351Y-87158823D01*
X214296922Y-87233594D01*
X214296782Y-87278740D01*
X214296782Y-87472822D01*
X214171040Y-87472822D01*
X214171040Y-86856683D01*
X214233911Y-86856683D01*
X214271644Y-86858020D01*
G36*
X213880790Y-86861555D02*
G01*
X213939945Y-86877339D01*
X213984977Y-86905948D01*
X214016754Y-86943419D01*
X214026634Y-86959411D01*
X214033927Y-86976163D01*
X214039026Y-86997592D01*
X214042321Y-87027616D01*
X214044203Y-87070154D01*
X214045063Y-87129122D01*
X214045293Y-87208440D01*
X214045297Y-87229484D01*
X214045297Y-87472822D01*
X213984941Y-87472822D01*
X213946443Y-87470126D01*
X213917977Y-87463295D01*
X213910845Y-87459083D01*
X213891348Y-87451813D01*
X213871434Y-87459083D01*
X213838647Y-87468160D01*
X213791022Y-87471813D01*
X213738236Y-87470228D01*
X213689964Y-87463589D01*
X213661782Y-87455072D01*
X213607247Y-87420063D01*
X213573165Y-87371479D01*
X213557843Y-87306882D01*
X213557701Y-87305223D01*
X213559045Y-87276566D01*
X213680644Y-87276566D01*
X213691274Y-87309161D01*
X213708590Y-87327505D01*
X213743348Y-87341379D01*
X213789227Y-87346917D01*
X213836012Y-87344191D01*
X213873486Y-87333274D01*
X213883985Y-87326269D01*
X213902332Y-87293904D01*
X213906980Y-87257111D01*
X213906980Y-87208763D01*
X213837418Y-87208763D01*
X213771333Y-87213850D01*
X213721236Y-87228263D01*
X213690071Y-87250729D01*
X213680644Y-87276566D01*
X213559045Y-87276566D01*
X213561013Y-87234647D01*
X213584290Y-87178845D01*
X213628052Y-87136647D01*
X213634101Y-87132808D01*
X213660093Y-87120309D01*
X213692265Y-87112740D01*
X213737240Y-87109061D01*
X213790669Y-87108216D01*
X213906980Y-87108169D01*
X213906980Y-87059411D01*
X213902047Y-87021581D01*
X213889457Y-86996236D01*
X213887983Y-86994887D01*
X213859966Y-86983800D01*
X213817674Y-86979503D01*
X213770936Y-86981615D01*
X213729582Y-86989756D01*
X213705043Y-87001965D01*
X213691747Y-87011746D01*
X213677706Y-87013613D01*
X213658329Y-87005600D01*
X213629024Y-86985739D01*
X213585197Y-86952063D01*
X213581175Y-86948909D01*
X213583236Y-86937236D01*
X213600432Y-86917822D01*
X213626567Y-86896248D01*
X213655448Y-86878096D01*
X213664522Y-86873809D01*
X213697620Y-86865256D01*
X213746120Y-86859155D01*
X213800305Y-86856708D01*
X213802839Y-86856703D01*
X213880790Y-86861555D01*
G37*
X213880790Y-86861555D02*
X213939945Y-86877339D01*
X213984977Y-86905948D01*
X214016754Y-86943419D01*
X214026634Y-86959411D01*
X214033927Y-86976163D01*
X214039026Y-86997592D01*
X214042321Y-87027616D01*
X214044203Y-87070154D01*
X214045063Y-87129122D01*
X214045293Y-87208440D01*
X214045297Y-87229484D01*
X214045297Y-87472822D01*
X213984941Y-87472822D01*
X213946443Y-87470126D01*
X213917977Y-87463295D01*
X213910845Y-87459083D01*
X213891348Y-87451813D01*
X213871434Y-87459083D01*
X213838647Y-87468160D01*
X213791022Y-87471813D01*
X213738236Y-87470228D01*
X213689964Y-87463589D01*
X213661782Y-87455072D01*
X213607247Y-87420063D01*
X213573165Y-87371479D01*
X213557843Y-87306882D01*
X213557701Y-87305223D01*
X213559045Y-87276566D01*
X213680644Y-87276566D01*
X213691274Y-87309161D01*
X213708590Y-87327505D01*
X213743348Y-87341379D01*
X213789227Y-87346917D01*
X213836012Y-87344191D01*
X213873486Y-87333274D01*
X213883985Y-87326269D01*
X213902332Y-87293904D01*
X213906980Y-87257111D01*
X213906980Y-87208763D01*
X213837418Y-87208763D01*
X213771333Y-87213850D01*
X213721236Y-87228263D01*
X213690071Y-87250729D01*
X213680644Y-87276566D01*
X213559045Y-87276566D01*
X213561013Y-87234647D01*
X213584290Y-87178845D01*
X213628052Y-87136647D01*
X213634101Y-87132808D01*
X213660093Y-87120309D01*
X213692265Y-87112740D01*
X213737240Y-87109061D01*
X213790669Y-87108216D01*
X213906980Y-87108169D01*
X213906980Y-87059411D01*
X213902047Y-87021581D01*
X213889457Y-86996236D01*
X213887983Y-86994887D01*
X213859966Y-86983800D01*
X213817674Y-86979503D01*
X213770936Y-86981615D01*
X213729582Y-86989756D01*
X213705043Y-87001965D01*
X213691747Y-87011746D01*
X213677706Y-87013613D01*
X213658329Y-87005600D01*
X213629024Y-86985739D01*
X213585197Y-86952063D01*
X213581175Y-86948909D01*
X213583236Y-86937236D01*
X213600432Y-86917822D01*
X213626567Y-86896248D01*
X213655448Y-86878096D01*
X213664522Y-86873809D01*
X213697620Y-86865256D01*
X213746120Y-86859155D01*
X213800305Y-86856708D01*
X213802839Y-86856703D01*
X213880790Y-86861555D01*
G36*
X213356241Y-85924184D02*
G01*
X213382753Y-85937282D01*
X213415447Y-85960106D01*
X213439275Y-85984996D01*
X213455594Y-86016249D01*
X213465760Y-86058166D01*
X213471128Y-86115044D01*
X213473056Y-86191184D01*
X213473169Y-86223917D01*
X213472839Y-86295656D01*
X213471473Y-86346927D01*
X213468500Y-86382404D01*
X213463351Y-86406763D01*
X213455457Y-86424680D01*
X213447243Y-86436902D01*
X213394813Y-86488905D01*
X213333070Y-86520184D01*
X213266464Y-86529592D01*
X213199442Y-86515980D01*
X213178208Y-86506354D01*
X213127376Y-86479859D01*
X213127376Y-86895052D01*
X213164475Y-86875868D01*
X213213357Y-86861025D01*
X213273439Y-86857222D01*
X213333436Y-86864243D01*
X213378744Y-86880013D01*
X213416325Y-86910047D01*
X213448436Y-86953024D01*
X213450850Y-86957436D01*
X213461033Y-86978221D01*
X213468470Y-86999170D01*
X213473589Y-87024548D01*
X213476819Y-87058618D01*
X213478587Y-87105641D01*
X213479323Y-87169882D01*
X213479456Y-87242176D01*
X213479456Y-87472822D01*
X213341139Y-87472822D01*
X213341139Y-87047533D01*
X213302451Y-87014979D01*
X213262262Y-86988940D01*
X213224203Y-86984205D01*
X213185934Y-86996389D01*
X213165538Y-87008320D01*
X213150358Y-87025313D01*
X213139562Y-87050995D01*
X213132317Y-87088991D01*
X213127792Y-87142926D01*
X213125156Y-87216425D01*
X213124228Y-87265347D01*
X213121089Y-87466535D01*
X213055074Y-87470336D01*
X212989060Y-87474136D01*
X212989060Y-86225650D01*
X213127376Y-86225650D01*
X213130903Y-86295254D01*
X213142785Y-86343569D01*
X213164980Y-86373631D01*
X213199441Y-86388471D01*
X213234258Y-86391436D01*
X213273671Y-86388028D01*
X213299829Y-86374617D01*
X213316186Y-86356896D01*
X213329063Y-86337835D01*
X213336728Y-86316601D01*
X213340139Y-86286849D01*
X213340251Y-86242236D01*
X213339103Y-86204880D01*
X213336468Y-86148604D01*
X213332544Y-86111658D01*
X213325937Y-86088223D01*
X213315251Y-86072480D01*
X213305167Y-86063380D01*
X213263030Y-86043537D01*
X213213160Y-86040332D01*
X213184524Y-86047168D01*
X213156172Y-86071464D01*
X213137391Y-86118728D01*
X213128288Y-86188624D01*
X213127376Y-86225650D01*
X212989060Y-86225650D01*
X212989060Y-85913614D01*
X213058218Y-85913614D01*
X213099740Y-85915256D01*
X213121162Y-85921087D01*
X213127374Y-85932461D01*
X213127376Y-85932798D01*
X213130258Y-85943938D01*
X213142970Y-85942673D01*
X213168243Y-85930433D01*
X213227131Y-85911707D01*
X213293385Y-85909739D01*
X213356241Y-85924184D01*
G37*
X213356241Y-85924184D02*
X213382753Y-85937282D01*
X213415447Y-85960106D01*
X213439275Y-85984996D01*
X213455594Y-86016249D01*
X213465760Y-86058166D01*
X213471128Y-86115044D01*
X213473056Y-86191184D01*
X213473169Y-86223917D01*
X213472839Y-86295656D01*
X213471473Y-86346927D01*
X213468500Y-86382404D01*
X213463351Y-86406763D01*
X213455457Y-86424680D01*
X213447243Y-86436902D01*
X213394813Y-86488905D01*
X213333070Y-86520184D01*
X213266464Y-86529592D01*
X213199442Y-86515980D01*
X213178208Y-86506354D01*
X213127376Y-86479859D01*
X213127376Y-86895052D01*
X213164475Y-86875868D01*
X213213357Y-86861025D01*
X213273439Y-86857222D01*
X213333436Y-86864243D01*
X213378744Y-86880013D01*
X213416325Y-86910047D01*
X213448436Y-86953024D01*
X213450850Y-86957436D01*
X213461033Y-86978221D01*
X213468470Y-86999170D01*
X213473589Y-87024548D01*
X213476819Y-87058618D01*
X213478587Y-87105641D01*
X213479323Y-87169882D01*
X213479456Y-87242176D01*
X213479456Y-87472822D01*
X213341139Y-87472822D01*
X213341139Y-87047533D01*
X213302451Y-87014979D01*
X213262262Y-86988940D01*
X213224203Y-86984205D01*
X213185934Y-86996389D01*
X213165538Y-87008320D01*
X213150358Y-87025313D01*
X213139562Y-87050995D01*
X213132317Y-87088991D01*
X213127792Y-87142926D01*
X213125156Y-87216425D01*
X213124228Y-87265347D01*
X213121089Y-87466535D01*
X213055074Y-87470336D01*
X212989060Y-87474136D01*
X212989060Y-86225650D01*
X213127376Y-86225650D01*
X213130903Y-86295254D01*
X213142785Y-86343569D01*
X213164980Y-86373631D01*
X213199441Y-86388471D01*
X213234258Y-86391436D01*
X213273671Y-86388028D01*
X213299829Y-86374617D01*
X213316186Y-86356896D01*
X213329063Y-86337835D01*
X213336728Y-86316601D01*
X213340139Y-86286849D01*
X213340251Y-86242236D01*
X213339103Y-86204880D01*
X213336468Y-86148604D01*
X213332544Y-86111658D01*
X213325937Y-86088223D01*
X213315251Y-86072480D01*
X213305167Y-86063380D01*
X213263030Y-86043537D01*
X213213160Y-86040332D01*
X213184524Y-86047168D01*
X213156172Y-86071464D01*
X213137391Y-86118728D01*
X213128288Y-86188624D01*
X213127376Y-86225650D01*
X212989060Y-86225650D01*
X212989060Y-85913614D01*
X213058218Y-85913614D01*
X213099740Y-85915256D01*
X213121162Y-85921087D01*
X213127374Y-85932461D01*
X213127376Y-85932798D01*
X213130258Y-85943938D01*
X213142970Y-85942673D01*
X213168243Y-85930433D01*
X213227131Y-85911707D01*
X213293385Y-85909739D01*
X213356241Y-85924184D01*
D11*
%TO.C,R3*%
X205197064Y-65765000D02*
X203742936Y-65765000D01*
X205197064Y-67585000D02*
X203742936Y-67585000D01*
%TO.C,D3*%
X195925000Y-67755000D02*
X195925000Y-67911000D01*
X195925000Y-65439000D02*
X195925000Y-65595000D01*
X198526130Y-67754837D02*
G75*
G02*
X196444039Y-67755000I-1041130J1079837D01*
G01*
X198526130Y-65595163D02*
G75*
G03*
X196444039Y-65595000I-1041130J-1079837D01*
G01*
X199157335Y-67753608D02*
G75*
G02*
X195925000Y-67910516I-1672335J1078608D01*
G01*
X199157335Y-65596392D02*
G75*
G03*
X195925000Y-65439484I-1672335J-1078608D01*
G01*
D10*
%TO.C,U1*%
X229000000Y-73146000D02*
X227725000Y-73146000D01*
X229000000Y-79221000D02*
X234550000Y-79221000D01*
X229000000Y-72671000D02*
X234550000Y-72671000D01*
X229000000Y-79221000D02*
X229000000Y-78646000D01*
X234550000Y-79221000D02*
X234550000Y-78646000D01*
X234550000Y-72671000D02*
X234550000Y-73246000D01*
X229000000Y-72671000D02*
X229000000Y-73146000D01*
D11*
%TO.C,R5*%
X241025000Y-65947936D02*
X241025000Y-67402064D01*
X242845000Y-65947936D02*
X242845000Y-67402064D01*
%TO.C,R4*%
X232135000Y-65947936D02*
X232135000Y-67402064D01*
X233955000Y-65947936D02*
X233955000Y-67402064D01*
%TO.C,R2*%
X208372064Y-85450000D02*
X206917936Y-85450000D01*
X208372064Y-87270000D02*
X206917936Y-87270000D01*
%TO.C,R1*%
X202022064Y-85450000D02*
X200567936Y-85450000D01*
X202022064Y-87270000D02*
X200567936Y-87270000D01*
%TO.C,J4*%
X220920000Y-86360000D02*
X220920000Y-85030000D01*
X220920000Y-85030000D02*
X222250000Y-85030000D01*
X223520000Y-85030000D02*
X236280000Y-85030000D01*
X236280000Y-87690000D02*
X236280000Y-85030000D01*
X223520000Y-87690000D02*
X236280000Y-87690000D01*
X223520000Y-87690000D02*
X223520000Y-85030000D01*
%TO.C,J3*%
X216440000Y-79790000D02*
X215940000Y-79290000D01*
X215440000Y-79790000D02*
X216440000Y-79790000D01*
X215940000Y-79290000D02*
X215440000Y-79790000D01*
X223350000Y-62350000D02*
X223350000Y-70710000D01*
X211030000Y-62350000D02*
X223350000Y-62350000D01*
X211030000Y-70710000D02*
X211030000Y-62350000D01*
X223350000Y-79070000D02*
X223350000Y-74810000D01*
X211030000Y-79070000D02*
X223350000Y-79070000D01*
X211030000Y-74810000D02*
X211030000Y-79070000D01*
%TO.C,FB1*%
X203869936Y-77110000D02*
X205324064Y-77110000D01*
X203869936Y-75290000D02*
X205324064Y-75290000D01*
%TO.C,D2*%
X236057000Y-67755000D02*
X236057000Y-67911000D01*
X236057000Y-65439000D02*
X236057000Y-65595000D01*
X238658130Y-67754837D02*
G75*
G02*
X236576039Y-67755000I-1041130J1079837D01*
G01*
X238658130Y-65595163D02*
G75*
G03*
X236576039Y-65595000I-1041130J-1079837D01*
G01*
X239289335Y-67753608D02*
G75*
G02*
X236057000Y-67910516I-1672335J1078608D01*
G01*
X239289335Y-65596392D02*
G75*
G03*
X236057000Y-65439484I-1672335J-1078608D01*
G01*
%TO.C,D1*%
X227040000Y-67755000D02*
X227040000Y-67911000D01*
X227040000Y-65439000D02*
X227040000Y-65595000D01*
X229641130Y-67754837D02*
G75*
G02*
X227559039Y-67755000I-1041130J1079837D01*
G01*
X229641130Y-65595163D02*
G75*
G03*
X227559039Y-65595000I-1041130J-1079837D01*
G01*
X230272335Y-67753608D02*
G75*
G02*
X227040000Y-67910516I-1672335J1078608D01*
G01*
X230272335Y-65596392D02*
G75*
G03*
X227040000Y-65439484I-1672335J-1078608D01*
G01*
%TO.C,C6*%
X199854000Y-76105000D02*
X199854000Y-75605000D01*
X200104000Y-75855000D02*
X199604000Y-75855000D01*
X199364000Y-73099437D02*
X198299563Y-72035000D01*
X199364000Y-75490563D02*
X198299563Y-76555000D01*
X199364000Y-75490563D02*
X199364000Y-75355000D01*
X199364000Y-73099437D02*
X199364000Y-73235000D01*
X198299563Y-72035000D02*
X194844000Y-72035000D01*
X198299563Y-76555000D02*
X194844000Y-76555000D01*
X194844000Y-76555000D02*
X194844000Y-75355000D01*
X194844000Y-72035000D02*
X194844000Y-73235000D01*
%TO.C,C5*%
X239318748Y-77110000D02*
X240741252Y-77110000D01*
X239318748Y-75290000D02*
X240741252Y-75290000D01*
%TO.C,C4*%
X239318748Y-73300000D02*
X240741252Y-73300000D01*
X239318748Y-71480000D02*
X240741252Y-71480000D01*
%TO.C,C3*%
X206933748Y-83079000D02*
X208356252Y-83079000D01*
X206933748Y-81259000D02*
X208356252Y-81259000D01*
%TO.C,C2*%
X200583748Y-83079000D02*
X202006252Y-83079000D01*
X200583748Y-81259000D02*
X202006252Y-81259000D01*
%TO.C,C1*%
X205435252Y-71226000D02*
X204012748Y-71226000D01*
X205435252Y-73046000D02*
X204012748Y-73046000D01*
%TO.C,R3*%
D10*
X204303333Y-65222380D02*
X203970000Y-64746190D01*
X203731904Y-65222380D02*
X203731904Y-64222380D01*
X204112857Y-64222380D01*
X204208095Y-64270000D01*
X204255714Y-64317619D01*
X204303333Y-64412857D01*
X204303333Y-64555714D01*
X204255714Y-64650952D01*
X204208095Y-64698571D01*
X204112857Y-64746190D01*
X203731904Y-64746190D01*
X204636666Y-64222380D02*
X205255714Y-64222380D01*
X204922380Y-64603333D01*
X205065238Y-64603333D01*
X205160476Y-64650952D01*
X205208095Y-64698571D01*
X205255714Y-64793809D01*
X205255714Y-65031904D01*
X205208095Y-65127142D01*
X205160476Y-65174761D01*
X205065238Y-65222380D01*
X204779523Y-65222380D01*
X204684285Y-65174761D01*
X204636666Y-65127142D01*
%TO.C,D3*%
X196746904Y-64167380D02*
X196746904Y-63167380D01*
X196985000Y-63167380D01*
X197127857Y-63215000D01*
X197223095Y-63310238D01*
X197270714Y-63405476D01*
X197318333Y-63595952D01*
X197318333Y-63738809D01*
X197270714Y-63929285D01*
X197223095Y-64024523D01*
X197127857Y-64119761D01*
X196985000Y-64167380D01*
X196746904Y-64167380D01*
X197651666Y-63167380D02*
X198270714Y-63167380D01*
X197937380Y-63548333D01*
X198080238Y-63548333D01*
X198175476Y-63595952D01*
X198223095Y-63643571D01*
X198270714Y-63738809D01*
X198270714Y-63976904D01*
X198223095Y-64072142D01*
X198175476Y-64119761D01*
X198080238Y-64167380D01*
X197794523Y-64167380D01*
X197699285Y-64119761D01*
X197651666Y-64072142D01*
%TO.C,U1*%
X231013095Y-71207380D02*
X231013095Y-72016904D01*
X231060714Y-72112142D01*
X231108333Y-72159761D01*
X231203571Y-72207380D01*
X231394047Y-72207380D01*
X231489285Y-72159761D01*
X231536904Y-72112142D01*
X231584523Y-72016904D01*
X231584523Y-71207380D01*
X232584523Y-72207380D02*
X232013095Y-72207380D01*
X232298809Y-72207380D02*
X232298809Y-71207380D01*
X232203571Y-71350238D01*
X232108333Y-71445476D01*
X232013095Y-71493095D01*
%TO.C,R5*%
X241768333Y-63952380D02*
X241435000Y-63476190D01*
X241196904Y-63952380D02*
X241196904Y-62952380D01*
X241577857Y-62952380D01*
X241673095Y-63000000D01*
X241720714Y-63047619D01*
X241768333Y-63142857D01*
X241768333Y-63285714D01*
X241720714Y-63380952D01*
X241673095Y-63428571D01*
X241577857Y-63476190D01*
X241196904Y-63476190D01*
X242673095Y-62952380D02*
X242196904Y-62952380D01*
X242149285Y-63428571D01*
X242196904Y-63380952D01*
X242292142Y-63333333D01*
X242530238Y-63333333D01*
X242625476Y-63380952D01*
X242673095Y-63428571D01*
X242720714Y-63523809D01*
X242720714Y-63761904D01*
X242673095Y-63857142D01*
X242625476Y-63904761D01*
X242530238Y-63952380D01*
X242292142Y-63952380D01*
X242196904Y-63904761D01*
X242149285Y-63857142D01*
%TO.C,R4*%
X232878333Y-63952380D02*
X232545000Y-63476190D01*
X232306904Y-63952380D02*
X232306904Y-62952380D01*
X232687857Y-62952380D01*
X232783095Y-63000000D01*
X232830714Y-63047619D01*
X232878333Y-63142857D01*
X232878333Y-63285714D01*
X232830714Y-63380952D01*
X232783095Y-63428571D01*
X232687857Y-63476190D01*
X232306904Y-63476190D01*
X233735476Y-63285714D02*
X233735476Y-63952380D01*
X233497380Y-62904761D02*
X233259285Y-63619047D01*
X233878333Y-63619047D01*
%TO.C,R2*%
X207478333Y-84907380D02*
X207145000Y-84431190D01*
X206906904Y-84907380D02*
X206906904Y-83907380D01*
X207287857Y-83907380D01*
X207383095Y-83955000D01*
X207430714Y-84002619D01*
X207478333Y-84097857D01*
X207478333Y-84240714D01*
X207430714Y-84335952D01*
X207383095Y-84383571D01*
X207287857Y-84431190D01*
X206906904Y-84431190D01*
X207859285Y-84002619D02*
X207906904Y-83955000D01*
X208002142Y-83907380D01*
X208240238Y-83907380D01*
X208335476Y-83955000D01*
X208383095Y-84002619D01*
X208430714Y-84097857D01*
X208430714Y-84193095D01*
X208383095Y-84335952D01*
X207811666Y-84907380D01*
X208430714Y-84907380D01*
%TO.C,R1*%
X201128333Y-85034380D02*
X200795000Y-84558190D01*
X200556904Y-85034380D02*
X200556904Y-84034380D01*
X200937857Y-84034380D01*
X201033095Y-84082000D01*
X201080714Y-84129619D01*
X201128333Y-84224857D01*
X201128333Y-84367714D01*
X201080714Y-84462952D01*
X201033095Y-84510571D01*
X200937857Y-84558190D01*
X200556904Y-84558190D01*
X202080714Y-85034380D02*
X201509285Y-85034380D01*
X201795000Y-85034380D02*
X201795000Y-84034380D01*
X201699761Y-84177238D01*
X201604523Y-84272476D01*
X201509285Y-84320095D01*
%TO.C,J4*%
X219162380Y-86693333D02*
X219876666Y-86693333D01*
X220019523Y-86740952D01*
X220114761Y-86836190D01*
X220162380Y-86979047D01*
X220162380Y-87074285D01*
X219495714Y-85788571D02*
X220162380Y-85788571D01*
X219114761Y-86026666D02*
X219829047Y-86264761D01*
X219829047Y-85645714D01*
%TO.C,J3*%
X207622380Y-71043333D02*
X208336666Y-71043333D01*
X208479523Y-71090952D01*
X208574761Y-71186190D01*
X208622380Y-71329047D01*
X208622380Y-71424285D01*
X207622380Y-70662380D02*
X207622380Y-70043333D01*
X208003333Y-70376666D01*
X208003333Y-70233809D01*
X208050952Y-70138571D01*
X208098571Y-70090952D01*
X208193809Y-70043333D01*
X208431904Y-70043333D01*
X208527142Y-70090952D01*
X208574761Y-70138571D01*
X208622380Y-70233809D01*
X208622380Y-70519523D01*
X208574761Y-70614761D01*
X208527142Y-70662380D01*
%TO.C,FB1*%
X203763666Y-74223571D02*
X203430333Y-74223571D01*
X203430333Y-74747380D02*
X203430333Y-73747380D01*
X203906523Y-73747380D01*
X204620809Y-74223571D02*
X204763666Y-74271190D01*
X204811285Y-74318809D01*
X204858904Y-74414047D01*
X204858904Y-74556904D01*
X204811285Y-74652142D01*
X204763666Y-74699761D01*
X204668428Y-74747380D01*
X204287476Y-74747380D01*
X204287476Y-73747380D01*
X204620809Y-73747380D01*
X204716047Y-73795000D01*
X204763666Y-73842619D01*
X204811285Y-73937857D01*
X204811285Y-74033095D01*
X204763666Y-74128333D01*
X204716047Y-74175952D01*
X204620809Y-74223571D01*
X204287476Y-74223571D01*
X205811285Y-74747380D02*
X205239857Y-74747380D01*
X205525571Y-74747380D02*
X205525571Y-73747380D01*
X205430333Y-73890238D01*
X205335095Y-73985476D01*
X205239857Y-74033095D01*
%TO.C,D2*%
X236878904Y-64206380D02*
X236878904Y-63206380D01*
X237117000Y-63206380D01*
X237259857Y-63254000D01*
X237355095Y-63349238D01*
X237402714Y-63444476D01*
X237450333Y-63634952D01*
X237450333Y-63777809D01*
X237402714Y-63968285D01*
X237355095Y-64063523D01*
X237259857Y-64158761D01*
X237117000Y-64206380D01*
X236878904Y-64206380D01*
X237831285Y-63301619D02*
X237878904Y-63254000D01*
X237974142Y-63206380D01*
X238212238Y-63206380D01*
X238307476Y-63254000D01*
X238355095Y-63301619D01*
X238402714Y-63396857D01*
X238402714Y-63492095D01*
X238355095Y-63634952D01*
X237783666Y-64206380D01*
X238402714Y-64206380D01*
%TO.C,D1*%
X227861904Y-64206380D02*
X227861904Y-63206380D01*
X228100000Y-63206380D01*
X228242857Y-63254000D01*
X228338095Y-63349238D01*
X228385714Y-63444476D01*
X228433333Y-63634952D01*
X228433333Y-63777809D01*
X228385714Y-63968285D01*
X228338095Y-64063523D01*
X228242857Y-64158761D01*
X228100000Y-64206380D01*
X227861904Y-64206380D01*
X229385714Y-64206380D02*
X228814285Y-64206380D01*
X229100000Y-64206380D02*
X229100000Y-63206380D01*
X229004761Y-63349238D01*
X228909523Y-63444476D01*
X228814285Y-63492095D01*
%TO.C,C6*%
X196937333Y-77852142D02*
X196889714Y-77899761D01*
X196746857Y-77947380D01*
X196651619Y-77947380D01*
X196508761Y-77899761D01*
X196413523Y-77804523D01*
X196365904Y-77709285D01*
X196318285Y-77518809D01*
X196318285Y-77375952D01*
X196365904Y-77185476D01*
X196413523Y-77090238D01*
X196508761Y-76995000D01*
X196651619Y-76947380D01*
X196746857Y-76947380D01*
X196889714Y-76995000D01*
X196937333Y-77042619D01*
X197794476Y-76947380D02*
X197604000Y-76947380D01*
X197508761Y-76995000D01*
X197461142Y-77042619D01*
X197365904Y-77185476D01*
X197318285Y-77375952D01*
X197318285Y-77756904D01*
X197365904Y-77852142D01*
X197413523Y-77899761D01*
X197508761Y-77947380D01*
X197699238Y-77947380D01*
X197794476Y-77899761D01*
X197842095Y-77852142D01*
X197889714Y-77756904D01*
X197889714Y-77518809D01*
X197842095Y-77423571D01*
X197794476Y-77375952D01*
X197699238Y-77328333D01*
X197508761Y-77328333D01*
X197413523Y-77375952D01*
X197365904Y-77423571D01*
X197318285Y-77518809D01*
%TO.C,C5*%
X239863333Y-74707142D02*
X239815714Y-74754761D01*
X239672857Y-74802380D01*
X239577619Y-74802380D01*
X239434761Y-74754761D01*
X239339523Y-74659523D01*
X239291904Y-74564285D01*
X239244285Y-74373809D01*
X239244285Y-74230952D01*
X239291904Y-74040476D01*
X239339523Y-73945238D01*
X239434761Y-73850000D01*
X239577619Y-73802380D01*
X239672857Y-73802380D01*
X239815714Y-73850000D01*
X239863333Y-73897619D01*
X240768095Y-73802380D02*
X240291904Y-73802380D01*
X240244285Y-74278571D01*
X240291904Y-74230952D01*
X240387142Y-74183333D01*
X240625238Y-74183333D01*
X240720476Y-74230952D01*
X240768095Y-74278571D01*
X240815714Y-74373809D01*
X240815714Y-74611904D01*
X240768095Y-74707142D01*
X240720476Y-74754761D01*
X240625238Y-74802380D01*
X240387142Y-74802380D01*
X240291904Y-74754761D01*
X240244285Y-74707142D01*
%TO.C,C4*%
X239863333Y-70897142D02*
X239815714Y-70944761D01*
X239672857Y-70992380D01*
X239577619Y-70992380D01*
X239434761Y-70944761D01*
X239339523Y-70849523D01*
X239291904Y-70754285D01*
X239244285Y-70563809D01*
X239244285Y-70420952D01*
X239291904Y-70230476D01*
X239339523Y-70135238D01*
X239434761Y-70040000D01*
X239577619Y-69992380D01*
X239672857Y-69992380D01*
X239815714Y-70040000D01*
X239863333Y-70087619D01*
X240720476Y-70325714D02*
X240720476Y-70992380D01*
X240482380Y-69944761D02*
X240244285Y-70659047D01*
X240863333Y-70659047D01*
%TO.C,C3*%
X207478333Y-80676142D02*
X207430714Y-80723761D01*
X207287857Y-80771380D01*
X207192619Y-80771380D01*
X207049761Y-80723761D01*
X206954523Y-80628523D01*
X206906904Y-80533285D01*
X206859285Y-80342809D01*
X206859285Y-80199952D01*
X206906904Y-80009476D01*
X206954523Y-79914238D01*
X207049761Y-79819000D01*
X207192619Y-79771380D01*
X207287857Y-79771380D01*
X207430714Y-79819000D01*
X207478333Y-79866619D01*
X207811666Y-79771380D02*
X208430714Y-79771380D01*
X208097380Y-80152333D01*
X208240238Y-80152333D01*
X208335476Y-80199952D01*
X208383095Y-80247571D01*
X208430714Y-80342809D01*
X208430714Y-80580904D01*
X208383095Y-80676142D01*
X208335476Y-80723761D01*
X208240238Y-80771380D01*
X207954523Y-80771380D01*
X207859285Y-80723761D01*
X207811666Y-80676142D01*
%TO.C,C2*%
X201128333Y-80676142D02*
X201080714Y-80723761D01*
X200937857Y-80771380D01*
X200842619Y-80771380D01*
X200699761Y-80723761D01*
X200604523Y-80628523D01*
X200556904Y-80533285D01*
X200509285Y-80342809D01*
X200509285Y-80199952D01*
X200556904Y-80009476D01*
X200604523Y-79914238D01*
X200699761Y-79819000D01*
X200842619Y-79771380D01*
X200937857Y-79771380D01*
X201080714Y-79819000D01*
X201128333Y-79866619D01*
X201509285Y-79866619D02*
X201556904Y-79819000D01*
X201652142Y-79771380D01*
X201890238Y-79771380D01*
X201985476Y-79819000D01*
X202033095Y-79866619D01*
X202080714Y-79961857D01*
X202080714Y-80057095D01*
X202033095Y-80199952D01*
X201461666Y-80771380D01*
X202080714Y-80771380D01*
%TO.C,C1*%
X204557333Y-70588142D02*
X204509714Y-70635761D01*
X204366857Y-70683380D01*
X204271619Y-70683380D01*
X204128761Y-70635761D01*
X204033523Y-70540523D01*
X203985904Y-70445285D01*
X203938285Y-70254809D01*
X203938285Y-70111952D01*
X203985904Y-69921476D01*
X204033523Y-69826238D01*
X204128761Y-69731000D01*
X204271619Y-69683380D01*
X204366857Y-69683380D01*
X204509714Y-69731000D01*
X204557333Y-69778619D01*
X205509714Y-70683380D02*
X204938285Y-70683380D01*
X205224000Y-70683380D02*
X205224000Y-69683380D01*
X205128761Y-69826238D01*
X205033523Y-69921476D01*
X204938285Y-69969095D01*
%TD*%
M02*
