%TF.GenerationSoftware,KiCad,Pcbnew,(5.1.10-0-10_14)*%
%TF.CreationDate,2021-05-08T11:54:01+02:00*%
%TF.ProjectId,USB_power_serial_breakout,5553425f-706f-4776-9572-5f7365726961,rev?*%
%TF.SameCoordinates,Original*%
%TF.FileFunction,Copper,L1,Top*%
%TF.FilePolarity,Positive*%
%FSLAX46Y46*%
G04 Gerber Fmt 4.6, Leading zero omitted, Abs format (unit mm)*
G04 Created by KiCad (PCBNEW (5.1.10-0-10_14)) date 2021-05-08 11:54:01*
%MOMM*%
%LPD*%
G01*
G04 APERTURE LIST*
%TA.AperFunction,ComponentPad*%
%ADD10C,1.800000*%
%TD*%
%TA.AperFunction,ComponentPad*%
%ADD11R,1.800000X1.800000*%
%TD*%
%TA.AperFunction,SMDPad,CuDef*%
%ADD12R,1.200000X0.400000*%
%TD*%
%TA.AperFunction,ComponentPad*%
%ADD13O,1.700000X1.700000*%
%TD*%
%TA.AperFunction,ComponentPad*%
%ADD14R,1.700000X1.700000*%
%TD*%
%TA.AperFunction,ComponentPad*%
%ADD15C,3.500000*%
%TD*%
%TA.AperFunction,ComponentPad*%
%ADD16C,1.700000*%
%TD*%
%TA.AperFunction,ViaPad*%
%ADD17C,0.600000*%
%TD*%
%TA.AperFunction,Conductor*%
%ADD18C,0.228600*%
%TD*%
%TA.AperFunction,Conductor*%
%ADD19C,0.152400*%
%TD*%
%TA.AperFunction,Conductor*%
%ADD20C,0.254000*%
%TD*%
%TA.AperFunction,Conductor*%
%ADD21C,0.100000*%
%TD*%
G04 APERTURE END LIST*
%TO.P,R3,2*%
%TO.N,Net-(D3-Pad2)*%
%TA.AperFunction,SMDPad,CuDef*%
G36*
G01*
X203570000Y-66050000D02*
X203570000Y-67300000D01*
G75*
G02*
X203320000Y-67550000I-250000J0D01*
G01*
X202520000Y-67550000D01*
G75*
G02*
X202270000Y-67300000I0J250000D01*
G01*
X202270000Y-66050000D01*
G75*
G02*
X202520000Y-65800000I250000J0D01*
G01*
X203320000Y-65800000D01*
G75*
G02*
X203570000Y-66050000I0J-250000D01*
G01*
G37*
%TD.AperFunction*%
%TO.P,R3,1*%
%TO.N,VCC*%
%TA.AperFunction,SMDPad,CuDef*%
G36*
G01*
X206670000Y-66050000D02*
X206670000Y-67300000D01*
G75*
G02*
X206420000Y-67550000I-250000J0D01*
G01*
X205620000Y-67550000D01*
G75*
G02*
X205370000Y-67300000I0J250000D01*
G01*
X205370000Y-66050000D01*
G75*
G02*
X205620000Y-65800000I250000J0D01*
G01*
X206420000Y-65800000D01*
G75*
G02*
X206670000Y-66050000I0J-250000D01*
G01*
G37*
%TD.AperFunction*%
%TD*%
D10*
%TO.P,D3,2*%
%TO.N,Net-(D3-Pad2)*%
X198755000Y-66675000D03*
D11*
%TO.P,D3,1*%
%TO.N,GND*%
X196215000Y-66675000D03*
%TD*%
D12*
%TO.P,U1,16*%
%TO.N,CBUS3*%
X235225000Y-73671000D03*
%TO.P,U1,15*%
%TO.N,CBUS0*%
X235225000Y-74321000D03*
%TO.P,U1,14*%
%TO.N,~RXLED*%
X235225000Y-74971000D03*
%TO.P,U1,13*%
%TO.N,GND*%
X235225000Y-75621000D03*
%TO.P,U1,12*%
%TO.N,VCC*%
X235225000Y-76271000D03*
%TO.P,U1,11*%
%TO.N,Net-(C4-Pad1)*%
X235225000Y-76921000D03*
%TO.P,U1,10*%
X235225000Y-77571000D03*
%TO.P,U1,9*%
%TO.N,USBD-*%
X235225000Y-78221000D03*
%TO.P,U1,8*%
%TO.N,USBD+*%
X228325000Y-78221000D03*
%TO.P,U1,7*%
%TO.N,~TXLED*%
X228325000Y-77571000D03*
%TO.P,U1,6*%
%TO.N,~CTS*%
X228325000Y-76921000D03*
%TO.P,U1,5*%
%TO.N,GND*%
X228325000Y-76271000D03*
%TO.P,U1,4*%
%TO.N,RxD*%
X228325000Y-75621000D03*
%TO.P,U1,3*%
%TO.N,Net-(C4-Pad1)*%
X228325000Y-74971000D03*
%TO.P,U1,2*%
%TO.N,~RTS*%
X228325000Y-74321000D03*
%TO.P,U1,1*%
%TO.N,TxD*%
X228325000Y-73671000D03*
%TD*%
%TO.P,R5,2*%
%TO.N,~RXLED*%
%TA.AperFunction,SMDPad,CuDef*%
G36*
G01*
X241310000Y-67575000D02*
X242560000Y-67575000D01*
G75*
G02*
X242810000Y-67825000I0J-250000D01*
G01*
X242810000Y-68625000D01*
G75*
G02*
X242560000Y-68875000I-250000J0D01*
G01*
X241310000Y-68875000D01*
G75*
G02*
X241060000Y-68625000I0J250000D01*
G01*
X241060000Y-67825000D01*
G75*
G02*
X241310000Y-67575000I250000J0D01*
G01*
G37*
%TD.AperFunction*%
%TO.P,R5,1*%
%TO.N,Net-(D2-Pad1)*%
%TA.AperFunction,SMDPad,CuDef*%
G36*
G01*
X241310000Y-64475000D02*
X242560000Y-64475000D01*
G75*
G02*
X242810000Y-64725000I0J-250000D01*
G01*
X242810000Y-65525000D01*
G75*
G02*
X242560000Y-65775000I-250000J0D01*
G01*
X241310000Y-65775000D01*
G75*
G02*
X241060000Y-65525000I0J250000D01*
G01*
X241060000Y-64725000D01*
G75*
G02*
X241310000Y-64475000I250000J0D01*
G01*
G37*
%TD.AperFunction*%
%TD*%
%TO.P,R4,2*%
%TO.N,~TXLED*%
%TA.AperFunction,SMDPad,CuDef*%
G36*
G01*
X232420000Y-67575000D02*
X233670000Y-67575000D01*
G75*
G02*
X233920000Y-67825000I0J-250000D01*
G01*
X233920000Y-68625000D01*
G75*
G02*
X233670000Y-68875000I-250000J0D01*
G01*
X232420000Y-68875000D01*
G75*
G02*
X232170000Y-68625000I0J250000D01*
G01*
X232170000Y-67825000D01*
G75*
G02*
X232420000Y-67575000I250000J0D01*
G01*
G37*
%TD.AperFunction*%
%TO.P,R4,1*%
%TO.N,Net-(D1-Pad1)*%
%TA.AperFunction,SMDPad,CuDef*%
G36*
G01*
X232420000Y-64475000D02*
X233670000Y-64475000D01*
G75*
G02*
X233920000Y-64725000I0J-250000D01*
G01*
X233920000Y-65525000D01*
G75*
G02*
X233670000Y-65775000I-250000J0D01*
G01*
X232420000Y-65775000D01*
G75*
G02*
X232170000Y-65525000I0J250000D01*
G01*
X232170000Y-64725000D01*
G75*
G02*
X232420000Y-64475000I250000J0D01*
G01*
G37*
%TD.AperFunction*%
%TD*%
%TO.P,R2,2*%
%TO.N,Net-(C3-Pad1)*%
%TA.AperFunction,SMDPad,CuDef*%
G36*
G01*
X206745000Y-85735000D02*
X206745000Y-86985000D01*
G75*
G02*
X206495000Y-87235000I-250000J0D01*
G01*
X205695000Y-87235000D01*
G75*
G02*
X205445000Y-86985000I0J250000D01*
G01*
X205445000Y-85735000D01*
G75*
G02*
X205695000Y-85485000I250000J0D01*
G01*
X206495000Y-85485000D01*
G75*
G02*
X206745000Y-85735000I0J-250000D01*
G01*
G37*
%TD.AperFunction*%
%TO.P,R2,1*%
%TO.N,USBD-*%
%TA.AperFunction,SMDPad,CuDef*%
G36*
G01*
X209845000Y-85735000D02*
X209845000Y-86985000D01*
G75*
G02*
X209595000Y-87235000I-250000J0D01*
G01*
X208795000Y-87235000D01*
G75*
G02*
X208545000Y-86985000I0J250000D01*
G01*
X208545000Y-85735000D01*
G75*
G02*
X208795000Y-85485000I250000J0D01*
G01*
X209595000Y-85485000D01*
G75*
G02*
X209845000Y-85735000I0J-250000D01*
G01*
G37*
%TD.AperFunction*%
%TD*%
%TO.P,R1,2*%
%TO.N,Net-(C2-Pad1)*%
%TA.AperFunction,SMDPad,CuDef*%
G36*
G01*
X200395000Y-85735000D02*
X200395000Y-86985000D01*
G75*
G02*
X200145000Y-87235000I-250000J0D01*
G01*
X199345000Y-87235000D01*
G75*
G02*
X199095000Y-86985000I0J250000D01*
G01*
X199095000Y-85735000D01*
G75*
G02*
X199345000Y-85485000I250000J0D01*
G01*
X200145000Y-85485000D01*
G75*
G02*
X200395000Y-85735000I0J-250000D01*
G01*
G37*
%TD.AperFunction*%
%TO.P,R1,1*%
%TO.N,USBD+*%
%TA.AperFunction,SMDPad,CuDef*%
G36*
G01*
X203495000Y-85735000D02*
X203495000Y-86985000D01*
G75*
G02*
X203245000Y-87235000I-250000J0D01*
G01*
X202445000Y-87235000D01*
G75*
G02*
X202195000Y-86985000I0J250000D01*
G01*
X202195000Y-85735000D01*
G75*
G02*
X202445000Y-85485000I250000J0D01*
G01*
X203245000Y-85485000D01*
G75*
G02*
X203495000Y-85735000I0J-250000D01*
G01*
G37*
%TD.AperFunction*%
%TD*%
D13*
%TO.P,J4,6*%
%TO.N,CBUS0*%
X234950000Y-86360000D03*
%TO.P,J4,5*%
%TO.N,CBUS3*%
X232410000Y-86360000D03*
%TO.P,J4,4*%
%TO.N,TxD*%
X229870000Y-86360000D03*
%TO.P,J4,3*%
%TO.N,RxD*%
X227330000Y-86360000D03*
%TO.P,J4,2*%
%TO.N,~CTS*%
X224790000Y-86360000D03*
D14*
%TO.P,J4,1*%
%TO.N,~RTS*%
X222250000Y-86360000D03*
%TD*%
D15*
%TO.P,J3,5*%
%TO.N,Net-(J3-Pad5)*%
X223210000Y-72760000D03*
X211170000Y-72760000D03*
D16*
%TO.P,J3,4*%
%TO.N,GND*%
X215940000Y-75470000D03*
%TO.P,J3,3*%
%TO.N,Net-(C2-Pad1)*%
X218440000Y-75470000D03*
%TO.P,J3,2*%
%TO.N,Net-(C3-Pad1)*%
X218440000Y-77470000D03*
D14*
%TO.P,J3,1*%
%TO.N,/vbus*%
X215940000Y-77470000D03*
%TD*%
D13*
%TO.P,J2,6*%
%TO.N,GND*%
X241300000Y-81280000D03*
%TO.P,J2,5*%
%TO.N,VCC*%
X238760000Y-81280000D03*
%TO.P,J2,4*%
%TO.N,GND*%
X241300000Y-83820000D03*
%TO.P,J2,3*%
%TO.N,VCC*%
X238760000Y-83820000D03*
%TO.P,J2,2*%
%TO.N,GND*%
X241300000Y-86360000D03*
D14*
%TO.P,J2,1*%
%TO.N,VCC*%
X238760000Y-86360000D03*
%TD*%
D13*
%TO.P,J1,6*%
%TO.N,GND*%
X195580000Y-81280000D03*
%TO.P,J1,5*%
%TO.N,VCC*%
X193040000Y-81280000D03*
%TO.P,J1,4*%
%TO.N,GND*%
X195580000Y-83820000D03*
%TO.P,J1,3*%
%TO.N,VCC*%
X193040000Y-83820000D03*
%TO.P,J1,2*%
%TO.N,GND*%
X195580000Y-86360000D03*
D14*
%TO.P,J1,1*%
%TO.N,VCC*%
X193040000Y-86360000D03*
%TD*%
%TO.P,FB1,2*%
%TO.N,/vbus*%
%TA.AperFunction,SMDPad,CuDef*%
G36*
G01*
X205497000Y-76825000D02*
X205497000Y-75575000D01*
G75*
G02*
X205747000Y-75325000I250000J0D01*
G01*
X206547000Y-75325000D01*
G75*
G02*
X206797000Y-75575000I0J-250000D01*
G01*
X206797000Y-76825000D01*
G75*
G02*
X206547000Y-77075000I-250000J0D01*
G01*
X205747000Y-77075000D01*
G75*
G02*
X205497000Y-76825000I0J250000D01*
G01*
G37*
%TD.AperFunction*%
%TO.P,FB1,1*%
%TO.N,VCC*%
%TA.AperFunction,SMDPad,CuDef*%
G36*
G01*
X202397000Y-76825000D02*
X202397000Y-75575000D01*
G75*
G02*
X202647000Y-75325000I250000J0D01*
G01*
X203447000Y-75325000D01*
G75*
G02*
X203697000Y-75575000I0J-250000D01*
G01*
X203697000Y-76825000D01*
G75*
G02*
X203447000Y-77075000I-250000J0D01*
G01*
X202647000Y-77075000D01*
G75*
G02*
X202397000Y-76825000I0J250000D01*
G01*
G37*
%TD.AperFunction*%
%TD*%
D10*
%TO.P,D2,2*%
%TO.N,Net-(C4-Pad1)*%
X238887000Y-66675000D03*
D11*
%TO.P,D2,1*%
%TO.N,Net-(D2-Pad1)*%
X236347000Y-66675000D03*
%TD*%
D10*
%TO.P,D1,2*%
%TO.N,Net-(C4-Pad1)*%
X229870000Y-66675000D03*
D11*
%TO.P,D1,1*%
%TO.N,Net-(D1-Pad1)*%
X227330000Y-66675000D03*
%TD*%
%TO.P,C6,2*%
%TO.N,GND*%
%TA.AperFunction,SMDPad,CuDef*%
G36*
G01*
X196604000Y-73745000D02*
X196604000Y-74845000D01*
G75*
G02*
X196354000Y-75095000I-250000J0D01*
G01*
X194254000Y-75095000D01*
G75*
G02*
X194004000Y-74845000I0J250000D01*
G01*
X194004000Y-73745000D01*
G75*
G02*
X194254000Y-73495000I250000J0D01*
G01*
X196354000Y-73495000D01*
G75*
G02*
X196604000Y-73745000I0J-250000D01*
G01*
G37*
%TD.AperFunction*%
%TO.P,C6,1*%
%TO.N,VCC*%
%TA.AperFunction,SMDPad,CuDef*%
G36*
G01*
X200204000Y-73745000D02*
X200204000Y-74845000D01*
G75*
G02*
X199954000Y-75095000I-250000J0D01*
G01*
X197854000Y-75095000D01*
G75*
G02*
X197604000Y-74845000I0J250000D01*
G01*
X197604000Y-73745000D01*
G75*
G02*
X197854000Y-73495000I250000J0D01*
G01*
X199954000Y-73495000D01*
G75*
G02*
X200204000Y-73745000I0J-250000D01*
G01*
G37*
%TD.AperFunction*%
%TD*%
%TO.P,C5,2*%
%TO.N,GND*%
%TA.AperFunction,SMDPad,CuDef*%
G36*
G01*
X240930000Y-76850001D02*
X240930000Y-75549999D01*
G75*
G02*
X241179999Y-75300000I249999J0D01*
G01*
X242005001Y-75300000D01*
G75*
G02*
X242255000Y-75549999I0J-249999D01*
G01*
X242255000Y-76850001D01*
G75*
G02*
X242005001Y-77100000I-249999J0D01*
G01*
X241179999Y-77100000D01*
G75*
G02*
X240930000Y-76850001I0J249999D01*
G01*
G37*
%TD.AperFunction*%
%TO.P,C5,1*%
%TO.N,VCC*%
%TA.AperFunction,SMDPad,CuDef*%
G36*
G01*
X237805000Y-76850001D02*
X237805000Y-75549999D01*
G75*
G02*
X238054999Y-75300000I249999J0D01*
G01*
X238880001Y-75300000D01*
G75*
G02*
X239130000Y-75549999I0J-249999D01*
G01*
X239130000Y-76850001D01*
G75*
G02*
X238880001Y-77100000I-249999J0D01*
G01*
X238054999Y-77100000D01*
G75*
G02*
X237805000Y-76850001I0J249999D01*
G01*
G37*
%TD.AperFunction*%
%TD*%
%TO.P,C4,2*%
%TO.N,GND*%
%TA.AperFunction,SMDPad,CuDef*%
G36*
G01*
X240930000Y-73040001D02*
X240930000Y-71739999D01*
G75*
G02*
X241179999Y-71490000I249999J0D01*
G01*
X242005001Y-71490000D01*
G75*
G02*
X242255000Y-71739999I0J-249999D01*
G01*
X242255000Y-73040001D01*
G75*
G02*
X242005001Y-73290000I-249999J0D01*
G01*
X241179999Y-73290000D01*
G75*
G02*
X240930000Y-73040001I0J249999D01*
G01*
G37*
%TD.AperFunction*%
%TO.P,C4,1*%
%TO.N,Net-(C4-Pad1)*%
%TA.AperFunction,SMDPad,CuDef*%
G36*
G01*
X237805000Y-73040001D02*
X237805000Y-71739999D01*
G75*
G02*
X238054999Y-71490000I249999J0D01*
G01*
X238880001Y-71490000D01*
G75*
G02*
X239130000Y-71739999I0J-249999D01*
G01*
X239130000Y-73040001D01*
G75*
G02*
X238880001Y-73290000I-249999J0D01*
G01*
X238054999Y-73290000D01*
G75*
G02*
X237805000Y-73040001I0J249999D01*
G01*
G37*
%TD.AperFunction*%
%TD*%
%TO.P,C3,2*%
%TO.N,GND*%
%TA.AperFunction,SMDPad,CuDef*%
G36*
G01*
X208545000Y-82819001D02*
X208545000Y-81518999D01*
G75*
G02*
X208794999Y-81269000I249999J0D01*
G01*
X209620001Y-81269000D01*
G75*
G02*
X209870000Y-81518999I0J-249999D01*
G01*
X209870000Y-82819001D01*
G75*
G02*
X209620001Y-83069000I-249999J0D01*
G01*
X208794999Y-83069000D01*
G75*
G02*
X208545000Y-82819001I0J249999D01*
G01*
G37*
%TD.AperFunction*%
%TO.P,C3,1*%
%TO.N,Net-(C3-Pad1)*%
%TA.AperFunction,SMDPad,CuDef*%
G36*
G01*
X205420000Y-82819001D02*
X205420000Y-81518999D01*
G75*
G02*
X205669999Y-81269000I249999J0D01*
G01*
X206495001Y-81269000D01*
G75*
G02*
X206745000Y-81518999I0J-249999D01*
G01*
X206745000Y-82819001D01*
G75*
G02*
X206495001Y-83069000I-249999J0D01*
G01*
X205669999Y-83069000D01*
G75*
G02*
X205420000Y-82819001I0J249999D01*
G01*
G37*
%TD.AperFunction*%
%TD*%
%TO.P,C2,2*%
%TO.N,GND*%
%TA.AperFunction,SMDPad,CuDef*%
G36*
G01*
X202195000Y-82819001D02*
X202195000Y-81518999D01*
G75*
G02*
X202444999Y-81269000I249999J0D01*
G01*
X203270001Y-81269000D01*
G75*
G02*
X203520000Y-81518999I0J-249999D01*
G01*
X203520000Y-82819001D01*
G75*
G02*
X203270001Y-83069000I-249999J0D01*
G01*
X202444999Y-83069000D01*
G75*
G02*
X202195000Y-82819001I0J249999D01*
G01*
G37*
%TD.AperFunction*%
%TO.P,C2,1*%
%TO.N,Net-(C2-Pad1)*%
%TA.AperFunction,SMDPad,CuDef*%
G36*
G01*
X199070000Y-82819001D02*
X199070000Y-81518999D01*
G75*
G02*
X199319999Y-81269000I249999J0D01*
G01*
X200145001Y-81269000D01*
G75*
G02*
X200395000Y-81518999I0J-249999D01*
G01*
X200395000Y-82819001D01*
G75*
G02*
X200145001Y-83069000I-249999J0D01*
G01*
X199319999Y-83069000D01*
G75*
G02*
X199070000Y-82819001I0J249999D01*
G01*
G37*
%TD.AperFunction*%
%TD*%
%TO.P,C1,2*%
%TO.N,GND*%
%TA.AperFunction,SMDPad,CuDef*%
G36*
G01*
X203824000Y-71485999D02*
X203824000Y-72786001D01*
G75*
G02*
X203574001Y-73036000I-249999J0D01*
G01*
X202748999Y-73036000D01*
G75*
G02*
X202499000Y-72786001I0J249999D01*
G01*
X202499000Y-71485999D01*
G75*
G02*
X202748999Y-71236000I249999J0D01*
G01*
X203574001Y-71236000D01*
G75*
G02*
X203824000Y-71485999I0J-249999D01*
G01*
G37*
%TD.AperFunction*%
%TO.P,C1,1*%
%TO.N,/vbus*%
%TA.AperFunction,SMDPad,CuDef*%
G36*
G01*
X206949000Y-71485999D02*
X206949000Y-72786001D01*
G75*
G02*
X206699001Y-73036000I-249999J0D01*
G01*
X205873999Y-73036000D01*
G75*
G02*
X205624000Y-72786001I0J249999D01*
G01*
X205624000Y-71485999D01*
G75*
G02*
X205873999Y-71236000I249999J0D01*
G01*
X206699001Y-71236000D01*
G75*
G02*
X206949000Y-71485999I0J-249999D01*
G01*
G37*
%TD.AperFunction*%
%TD*%
D17*
%TO.N,GND*%
X231394000Y-76962000D03*
X231648000Y-75692000D03*
%TO.N,CBUS0*%
X233426000Y-74422000D03*
%TO.N,CBUS3*%
X232918000Y-73660000D03*
%TO.N,TxD*%
X229616000Y-73660000D03*
%TO.N,RxD*%
X226314000Y-76200000D03*
%TO.N,~CTS*%
X225298000Y-77216000D03*
%TO.N,~RTS*%
X224790000Y-74930000D03*
%TO.N,USBD+*%
X204470000Y-84328000D03*
X220218000Y-81534000D03*
%TO.N,~TXLED*%
X230632000Y-77470000D03*
X232410000Y-70866000D03*
%TD*%
D18*
%TO.N,GND*%
X230703000Y-76271000D02*
X231394000Y-76962000D01*
X228325000Y-76271000D02*
X230703000Y-76271000D01*
X235154000Y-75692000D02*
X235225000Y-75621000D01*
X231648000Y-75692000D02*
X235154000Y-75692000D01*
D19*
%TO.N,Net-(C2-Pad1)*%
X217018601Y-78502881D02*
X216146482Y-79375000D01*
X217018601Y-76891399D02*
X217018601Y-78502881D01*
X218440000Y-75470000D02*
X217018601Y-76891399D01*
X216146482Y-79375000D02*
X201295000Y-79375000D01*
X199732500Y-80937500D02*
X199732500Y-82169000D01*
X201295000Y-79375000D02*
X199732500Y-80937500D01*
X199732500Y-86347500D02*
X199745000Y-86360000D01*
X199732500Y-82169000D02*
X199732500Y-86347500D01*
%TO.N,Net-(C3-Pad1)*%
X206095000Y-82181500D02*
X206082500Y-82169000D01*
X206095000Y-86360000D02*
X206095000Y-82181500D01*
X206082500Y-81269000D02*
X207341500Y-80010000D01*
X206082500Y-82169000D02*
X206082500Y-81269000D01*
X207341500Y-80010000D02*
X216916000Y-80010000D01*
X218440000Y-78486000D02*
X218440000Y-77470000D01*
X216916000Y-80010000D02*
X218440000Y-78486000D01*
%TO.N,Net-(C4-Pad1)*%
X228325000Y-74971000D02*
X230165000Y-74971000D01*
X232115000Y-76921000D02*
X235225000Y-76921000D01*
X230165000Y-74971000D02*
X232115000Y-76921000D01*
X235225000Y-76921000D02*
X235225000Y-77571000D01*
X230165000Y-66970000D02*
X229870000Y-66675000D01*
X238467500Y-72390000D02*
X230206000Y-72390000D01*
X230165000Y-72349000D02*
X230165000Y-66970000D01*
X230206000Y-72390000D02*
X230165000Y-72349000D01*
X230165000Y-74971000D02*
X230165000Y-72349000D01*
X238887000Y-71970500D02*
X238467500Y-72390000D01*
X238887000Y-66675000D02*
X238887000Y-71970500D01*
D18*
%TO.N,VCC*%
X200809000Y-76200000D02*
X198904000Y-74295000D01*
X203047000Y-76200000D02*
X200809000Y-76200000D01*
X198904000Y-75416000D02*
X193040000Y-81280000D01*
X198904000Y-74295000D02*
X198904000Y-75416000D01*
X238760000Y-76492500D02*
X238467500Y-76200000D01*
X238760000Y-81280000D02*
X238760000Y-76492500D01*
X235296000Y-76200000D02*
X235225000Y-76271000D01*
X238467500Y-76200000D02*
X235296000Y-76200000D01*
X203047000Y-76200000D02*
X204470000Y-74777000D01*
X204470000Y-68225000D02*
X206020000Y-66675000D01*
X204470000Y-74777000D02*
X204470000Y-68225000D01*
D19*
%TO.N,Net-(D1-Pad1)*%
X227827600Y-65125000D02*
X233045000Y-65125000D01*
X227330000Y-65622600D02*
X227827600Y-65125000D01*
X227330000Y-66675000D02*
X227330000Y-65622600D01*
%TO.N,Net-(D2-Pad1)*%
X237897000Y-65125000D02*
X241935000Y-65125000D01*
X236347000Y-66675000D02*
X237897000Y-65125000D01*
%TO.N,CBUS0*%
X235124000Y-74422000D02*
X235225000Y-74321000D01*
X233426000Y-74422000D02*
X235124000Y-74422000D01*
%TO.N,CBUS3*%
X235214000Y-73660000D02*
X235225000Y-73671000D01*
X232918000Y-73660000D02*
X235214000Y-73660000D01*
%TO.N,TxD*%
X228336000Y-73660000D02*
X228325000Y-73671000D01*
X229616000Y-73660000D02*
X228336000Y-73660000D01*
%TO.N,RxD*%
X226893000Y-75621000D02*
X228325000Y-75621000D01*
X226314000Y-76200000D02*
X226893000Y-75621000D01*
%TO.N,~CTS*%
X225593000Y-76921000D02*
X228325000Y-76921000D01*
X225298000Y-77216000D02*
X225593000Y-76921000D01*
%TO.N,~RTS*%
X225399000Y-74321000D02*
X228325000Y-74321000D01*
X224790000Y-74930000D02*
X225399000Y-74321000D01*
%TO.N,USBD+*%
X202845000Y-86360000D02*
X202845000Y-85953000D01*
X202845000Y-85953000D02*
X204470000Y-84328000D01*
X220218000Y-81534000D02*
X223774000Y-81534000D01*
X227087000Y-78221000D02*
X228325000Y-78221000D01*
X223774000Y-81534000D02*
X227087000Y-78221000D01*
%TO.N,USBD-*%
X230704601Y-82741399D02*
X235225000Y-78221000D01*
X212813601Y-82741399D02*
X230704601Y-82741399D01*
X209195000Y-86360000D02*
X212813601Y-82741399D01*
%TO.N,~TXLED*%
X230531000Y-77571000D02*
X230632000Y-77470000D01*
X228325000Y-77571000D02*
X230531000Y-77571000D01*
X233045000Y-70231000D02*
X233045000Y-68225000D01*
X232410000Y-70866000D02*
X233045000Y-70231000D01*
%TO.N,~RXLED*%
X240701390Y-69458610D02*
X241935000Y-68225000D01*
X240701390Y-71895468D02*
X240701390Y-69458610D01*
X237625858Y-74971000D02*
X240701390Y-71895468D01*
X235225000Y-74971000D02*
X237625858Y-74971000D01*
%TO.N,Net-(D3-Pad2)*%
X198755000Y-66675000D02*
X202920000Y-66675000D01*
D18*
%TO.N,/vbus*%
X207417000Y-77470000D02*
X206147000Y-76200000D01*
X215940000Y-77470000D02*
X207417000Y-77470000D01*
X206147000Y-72275500D02*
X206286500Y-72136000D01*
X206147000Y-76200000D02*
X206147000Y-72275500D01*
%TD*%
D20*
%TO.N,GND*%
X242687869Y-62904722D02*
X242801246Y-62938953D01*
X242905819Y-62994555D01*
X242997596Y-63069407D01*
X243073091Y-63160664D01*
X243129419Y-63264844D01*
X243164440Y-63377976D01*
X243180000Y-63526022D01*
X243180000Y-64090504D01*
X243053386Y-63986595D01*
X242899850Y-63904528D01*
X242733254Y-63853992D01*
X242560000Y-63836928D01*
X241310000Y-63836928D01*
X241136746Y-63853992D01*
X240970150Y-63904528D01*
X240816614Y-63986595D01*
X240682038Y-64097038D01*
X240571595Y-64231614D01*
X240489528Y-64385150D01*
X240480837Y-64413800D01*
X237931925Y-64413800D01*
X237896999Y-64410360D01*
X237862073Y-64413800D01*
X237862064Y-64413800D01*
X237757580Y-64424091D01*
X237623519Y-64464758D01*
X237499967Y-64530798D01*
X237391673Y-64619673D01*
X237369403Y-64646809D01*
X236879284Y-65136928D01*
X235447000Y-65136928D01*
X235322518Y-65149188D01*
X235202820Y-65185498D01*
X235092506Y-65244463D01*
X234995815Y-65323815D01*
X234916463Y-65420506D01*
X234857498Y-65530820D01*
X234821188Y-65650518D01*
X234808928Y-65775000D01*
X234808928Y-67575000D01*
X234821188Y-67699482D01*
X234857498Y-67819180D01*
X234916463Y-67929494D01*
X234995815Y-68026185D01*
X235092506Y-68105537D01*
X235202820Y-68164502D01*
X235322518Y-68200812D01*
X235447000Y-68213072D01*
X237247000Y-68213072D01*
X237371482Y-68200812D01*
X237491180Y-68164502D01*
X237601494Y-68105537D01*
X237698185Y-68026185D01*
X237777537Y-67929494D01*
X237836502Y-67819180D01*
X237842056Y-67800873D01*
X237908495Y-67867312D01*
X238159905Y-68035299D01*
X238175800Y-68041883D01*
X238175801Y-70851928D01*
X238054999Y-70851928D01*
X237881745Y-70868992D01*
X237715149Y-70919528D01*
X237561613Y-71001595D01*
X237427038Y-71112038D01*
X237316595Y-71246613D01*
X237234528Y-71400149D01*
X237183992Y-71566745D01*
X237172956Y-71678800D01*
X232876514Y-71678800D01*
X233006028Y-71592262D01*
X233136262Y-71462028D01*
X233238586Y-71308889D01*
X233309068Y-71138729D01*
X233345000Y-70958089D01*
X233345000Y-70936788D01*
X233523200Y-70758589D01*
X233550326Y-70736327D01*
X233572588Y-70709201D01*
X233572598Y-70709191D01*
X233639202Y-70628033D01*
X233705242Y-70504482D01*
X233745909Y-70370420D01*
X233755802Y-70269972D01*
X233756200Y-70265936D01*
X233756200Y-70265929D01*
X233759640Y-70231000D01*
X233756200Y-70196072D01*
X233756200Y-69504582D01*
X233843254Y-69496008D01*
X234009850Y-69445472D01*
X234163386Y-69363405D01*
X234297962Y-69252962D01*
X234408405Y-69118386D01*
X234490472Y-68964850D01*
X234541008Y-68798254D01*
X234558072Y-68625000D01*
X234558072Y-67825000D01*
X234541008Y-67651746D01*
X234490472Y-67485150D01*
X234408405Y-67331614D01*
X234297962Y-67197038D01*
X234163386Y-67086595D01*
X234009850Y-67004528D01*
X233843254Y-66953992D01*
X233670000Y-66936928D01*
X232420000Y-66936928D01*
X232246746Y-66953992D01*
X232080150Y-67004528D01*
X231926614Y-67086595D01*
X231792038Y-67197038D01*
X231681595Y-67331614D01*
X231599528Y-67485150D01*
X231548992Y-67651746D01*
X231531928Y-67825000D01*
X231531928Y-68625000D01*
X231548992Y-68798254D01*
X231599528Y-68964850D01*
X231681595Y-69118386D01*
X231792038Y-69252962D01*
X231926614Y-69363405D01*
X232080150Y-69445472D01*
X232246746Y-69496008D01*
X232333800Y-69504582D01*
X232333800Y-69931000D01*
X232317911Y-69931000D01*
X232137271Y-69966932D01*
X231967111Y-70037414D01*
X231813972Y-70139738D01*
X231683738Y-70269972D01*
X231581414Y-70423111D01*
X231510932Y-70593271D01*
X231475000Y-70773911D01*
X231475000Y-70958089D01*
X231510932Y-71138729D01*
X231581414Y-71308889D01*
X231683738Y-71462028D01*
X231813972Y-71592262D01*
X231943486Y-71678800D01*
X230876200Y-71678800D01*
X230876200Y-67839617D01*
X231062312Y-67653505D01*
X231230299Y-67402095D01*
X231346011Y-67122743D01*
X231405000Y-66826184D01*
X231405000Y-66523816D01*
X231346011Y-66227257D01*
X231230299Y-65947905D01*
X231155660Y-65836200D01*
X231590837Y-65836200D01*
X231599528Y-65864850D01*
X231681595Y-66018386D01*
X231792038Y-66152962D01*
X231926614Y-66263405D01*
X232080150Y-66345472D01*
X232246746Y-66396008D01*
X232420000Y-66413072D01*
X233670000Y-66413072D01*
X233843254Y-66396008D01*
X234009850Y-66345472D01*
X234163386Y-66263405D01*
X234297962Y-66152962D01*
X234408405Y-66018386D01*
X234490472Y-65864850D01*
X234541008Y-65698254D01*
X234558072Y-65525000D01*
X234558072Y-64725000D01*
X234541008Y-64551746D01*
X234490472Y-64385150D01*
X234408405Y-64231614D01*
X234297962Y-64097038D01*
X234163386Y-63986595D01*
X234009850Y-63904528D01*
X233843254Y-63853992D01*
X233670000Y-63836928D01*
X232420000Y-63836928D01*
X232246746Y-63853992D01*
X232080150Y-63904528D01*
X231926614Y-63986595D01*
X231792038Y-64097038D01*
X231681595Y-64231614D01*
X231599528Y-64385150D01*
X231590837Y-64413800D01*
X227862528Y-64413800D01*
X227827600Y-64410360D01*
X227792671Y-64413800D01*
X227792664Y-64413800D01*
X227688180Y-64424091D01*
X227554118Y-64464758D01*
X227430567Y-64530798D01*
X227349409Y-64597402D01*
X227349404Y-64597407D01*
X227322273Y-64619673D01*
X227300007Y-64646805D01*
X226851809Y-65095004D01*
X226824674Y-65117273D01*
X226808543Y-65136928D01*
X226430000Y-65136928D01*
X226305518Y-65149188D01*
X226185820Y-65185498D01*
X226075506Y-65244463D01*
X225978815Y-65323815D01*
X225899463Y-65420506D01*
X225840498Y-65530820D01*
X225804188Y-65650518D01*
X225791928Y-65775000D01*
X225791928Y-67575000D01*
X225804188Y-67699482D01*
X225840498Y-67819180D01*
X225899463Y-67929494D01*
X225978815Y-68026185D01*
X226075506Y-68105537D01*
X226185820Y-68164502D01*
X226305518Y-68200812D01*
X226430000Y-68213072D01*
X228230000Y-68213072D01*
X228354482Y-68200812D01*
X228474180Y-68164502D01*
X228584494Y-68105537D01*
X228681185Y-68026185D01*
X228760537Y-67929494D01*
X228819502Y-67819180D01*
X228825056Y-67800873D01*
X228891495Y-67867312D01*
X229142905Y-68035299D01*
X229422257Y-68151011D01*
X229453801Y-68157285D01*
X229453800Y-72314074D01*
X229450360Y-72349000D01*
X229453800Y-72383926D01*
X229453800Y-72383935D01*
X229453801Y-72383945D01*
X229453801Y-72738946D01*
X229343271Y-72760932D01*
X229173111Y-72831414D01*
X229120332Y-72866680D01*
X229049482Y-72845188D01*
X228925000Y-72832928D01*
X227725000Y-72832928D01*
X227600518Y-72845188D01*
X227480820Y-72881498D01*
X227370506Y-72940463D01*
X227273815Y-73019815D01*
X227194463Y-73116506D01*
X227135498Y-73226820D01*
X227099188Y-73346518D01*
X227086928Y-73471000D01*
X227086928Y-73609800D01*
X225439507Y-73609800D01*
X225503346Y-73455679D01*
X225595000Y-72994902D01*
X225595000Y-72525098D01*
X225503346Y-72064321D01*
X225323560Y-71630279D01*
X225062550Y-71239651D01*
X224730349Y-70907450D01*
X224339721Y-70646440D01*
X223905679Y-70466654D01*
X223444902Y-70375000D01*
X222975098Y-70375000D01*
X222514321Y-70466654D01*
X222080279Y-70646440D01*
X221689651Y-70907450D01*
X221357450Y-71239651D01*
X221096440Y-71630279D01*
X220916654Y-72064321D01*
X220825000Y-72525098D01*
X220825000Y-72994902D01*
X220916654Y-73455679D01*
X221096440Y-73889721D01*
X221357450Y-74280349D01*
X221689651Y-74612550D01*
X222080279Y-74873560D01*
X222514321Y-75053346D01*
X222975098Y-75145000D01*
X223444902Y-75145000D01*
X223862910Y-75061853D01*
X223890932Y-75202729D01*
X223961414Y-75372889D01*
X224063738Y-75526028D01*
X224193972Y-75656262D01*
X224347111Y-75758586D01*
X224517271Y-75829068D01*
X224697911Y-75865000D01*
X224882089Y-75865000D01*
X225062729Y-75829068D01*
X225232889Y-75758586D01*
X225386028Y-75656262D01*
X225516262Y-75526028D01*
X225618586Y-75372889D01*
X225689068Y-75202729D01*
X225722989Y-75032200D01*
X226489385Y-75032200D01*
X226414809Y-75093402D01*
X226414804Y-75093407D01*
X226387673Y-75115673D01*
X226365407Y-75142805D01*
X226243212Y-75265000D01*
X226221911Y-75265000D01*
X226041271Y-75300932D01*
X225871111Y-75371414D01*
X225717972Y-75473738D01*
X225587738Y-75603972D01*
X225485414Y-75757111D01*
X225414932Y-75927271D01*
X225379000Y-76107911D01*
X225379000Y-76242715D01*
X225319519Y-76260758D01*
X225281649Y-76281000D01*
X225205911Y-76281000D01*
X225025271Y-76316932D01*
X224855111Y-76387414D01*
X224701972Y-76489738D01*
X224571738Y-76619972D01*
X224469414Y-76773111D01*
X224398932Y-76943271D01*
X224363000Y-77123911D01*
X224363000Y-77308089D01*
X224398932Y-77488729D01*
X224469414Y-77658889D01*
X224571738Y-77812028D01*
X224701972Y-77942262D01*
X224855111Y-78044586D01*
X225025271Y-78115068D01*
X225205911Y-78151000D01*
X225390089Y-78151000D01*
X225570729Y-78115068D01*
X225740889Y-78044586D01*
X225894028Y-77942262D01*
X226024262Y-77812028D01*
X226126586Y-77658889D01*
X226137641Y-77632200D01*
X226683385Y-77632200D01*
X226608809Y-77693402D01*
X226608804Y-77693407D01*
X226581673Y-77715673D01*
X226559407Y-77742804D01*
X223479413Y-80822800D01*
X220829090Y-80822800D01*
X220814028Y-80807738D01*
X220660889Y-80705414D01*
X220490729Y-80634932D01*
X220310089Y-80599000D01*
X220125911Y-80599000D01*
X219945271Y-80634932D01*
X219775111Y-80705414D01*
X219621972Y-80807738D01*
X219491738Y-80937972D01*
X219389414Y-81091111D01*
X219318932Y-81261271D01*
X219283000Y-81441911D01*
X219283000Y-81626089D01*
X219318932Y-81806729D01*
X219389414Y-81976889D01*
X219425035Y-82030199D01*
X212848529Y-82030199D01*
X212813601Y-82026759D01*
X212778672Y-82030199D01*
X212778665Y-82030199D01*
X212674181Y-82040490D01*
X212540119Y-82081157D01*
X212416568Y-82147197D01*
X212335410Y-82213801D01*
X212335405Y-82213806D01*
X212308274Y-82236072D01*
X212286008Y-82263203D01*
X209692665Y-84856547D01*
X209595000Y-84846928D01*
X208795000Y-84846928D01*
X208621746Y-84863992D01*
X208455150Y-84914528D01*
X208301614Y-84996595D01*
X208167038Y-85107038D01*
X208056595Y-85241614D01*
X207974528Y-85395150D01*
X207923992Y-85561746D01*
X207906928Y-85735000D01*
X207906928Y-86985000D01*
X207923992Y-87158254D01*
X207974528Y-87324850D01*
X208056595Y-87478386D01*
X208167038Y-87612962D01*
X208301614Y-87723405D01*
X208455150Y-87805472D01*
X208621746Y-87856008D01*
X208795000Y-87873072D01*
X209595000Y-87873072D01*
X209768254Y-87856008D01*
X209934850Y-87805472D01*
X210088386Y-87723405D01*
X210222962Y-87612962D01*
X210333405Y-87478386D01*
X210415472Y-87324850D01*
X210466008Y-87158254D01*
X210483072Y-86985000D01*
X210483072Y-86077715D01*
X211050787Y-85510000D01*
X220761928Y-85510000D01*
X220761928Y-87210000D01*
X220774188Y-87334482D01*
X220810498Y-87454180D01*
X220869463Y-87564494D01*
X220948815Y-87661185D01*
X221045506Y-87740537D01*
X221155820Y-87799502D01*
X221275518Y-87835812D01*
X221400000Y-87848072D01*
X223100000Y-87848072D01*
X223224482Y-87835812D01*
X223344180Y-87799502D01*
X223454494Y-87740537D01*
X223551185Y-87661185D01*
X223630537Y-87564494D01*
X223689502Y-87454180D01*
X223711513Y-87381620D01*
X223843368Y-87513475D01*
X224086589Y-87675990D01*
X224356842Y-87787932D01*
X224643740Y-87845000D01*
X224936260Y-87845000D01*
X225223158Y-87787932D01*
X225493411Y-87675990D01*
X225736632Y-87513475D01*
X225943475Y-87306632D01*
X226060000Y-87132240D01*
X226176525Y-87306632D01*
X226383368Y-87513475D01*
X226626589Y-87675990D01*
X226896842Y-87787932D01*
X227183740Y-87845000D01*
X227476260Y-87845000D01*
X227763158Y-87787932D01*
X228033411Y-87675990D01*
X228276632Y-87513475D01*
X228483475Y-87306632D01*
X228600000Y-87132240D01*
X228716525Y-87306632D01*
X228923368Y-87513475D01*
X229166589Y-87675990D01*
X229436842Y-87787932D01*
X229723740Y-87845000D01*
X230016260Y-87845000D01*
X230303158Y-87787932D01*
X230573411Y-87675990D01*
X230816632Y-87513475D01*
X231023475Y-87306632D01*
X231140000Y-87132240D01*
X231256525Y-87306632D01*
X231463368Y-87513475D01*
X231706589Y-87675990D01*
X231976842Y-87787932D01*
X232263740Y-87845000D01*
X232556260Y-87845000D01*
X232843158Y-87787932D01*
X233113411Y-87675990D01*
X233356632Y-87513475D01*
X233563475Y-87306632D01*
X233680000Y-87132240D01*
X233796525Y-87306632D01*
X234003368Y-87513475D01*
X234246589Y-87675990D01*
X234516842Y-87787932D01*
X234803740Y-87845000D01*
X235096260Y-87845000D01*
X235383158Y-87787932D01*
X235653411Y-87675990D01*
X235896632Y-87513475D01*
X236103475Y-87306632D01*
X236265990Y-87063411D01*
X236377932Y-86793158D01*
X236435000Y-86506260D01*
X236435000Y-86213740D01*
X236377932Y-85926842D01*
X236265990Y-85656589D01*
X236103475Y-85413368D01*
X235896632Y-85206525D01*
X235653411Y-85044010D01*
X235383158Y-84932068D01*
X235096260Y-84875000D01*
X234803740Y-84875000D01*
X234516842Y-84932068D01*
X234246589Y-85044010D01*
X234003368Y-85206525D01*
X233796525Y-85413368D01*
X233680000Y-85587760D01*
X233563475Y-85413368D01*
X233356632Y-85206525D01*
X233113411Y-85044010D01*
X232843158Y-84932068D01*
X232556260Y-84875000D01*
X232263740Y-84875000D01*
X231976842Y-84932068D01*
X231706589Y-85044010D01*
X231463368Y-85206525D01*
X231256525Y-85413368D01*
X231140000Y-85587760D01*
X231023475Y-85413368D01*
X230816632Y-85206525D01*
X230573411Y-85044010D01*
X230303158Y-84932068D01*
X230016260Y-84875000D01*
X229723740Y-84875000D01*
X229436842Y-84932068D01*
X229166589Y-85044010D01*
X228923368Y-85206525D01*
X228716525Y-85413368D01*
X228600000Y-85587760D01*
X228483475Y-85413368D01*
X228276632Y-85206525D01*
X228033411Y-85044010D01*
X227763158Y-84932068D01*
X227476260Y-84875000D01*
X227183740Y-84875000D01*
X226896842Y-84932068D01*
X226626589Y-85044010D01*
X226383368Y-85206525D01*
X226176525Y-85413368D01*
X226060000Y-85587760D01*
X225943475Y-85413368D01*
X225736632Y-85206525D01*
X225493411Y-85044010D01*
X225223158Y-84932068D01*
X224936260Y-84875000D01*
X224643740Y-84875000D01*
X224356842Y-84932068D01*
X224086589Y-85044010D01*
X223843368Y-85206525D01*
X223711513Y-85338380D01*
X223689502Y-85265820D01*
X223630537Y-85155506D01*
X223551185Y-85058815D01*
X223454494Y-84979463D01*
X223344180Y-84920498D01*
X223224482Y-84884188D01*
X223100000Y-84871928D01*
X221400000Y-84871928D01*
X221275518Y-84884188D01*
X221155820Y-84920498D01*
X221045506Y-84979463D01*
X220948815Y-85058815D01*
X220869463Y-85155506D01*
X220810498Y-85265820D01*
X220774188Y-85385518D01*
X220761928Y-85510000D01*
X211050787Y-85510000D01*
X213108190Y-83452599D01*
X230669675Y-83452599D01*
X230704601Y-83456039D01*
X230739527Y-83452599D01*
X230739537Y-83452599D01*
X230844021Y-83442308D01*
X230978082Y-83401641D01*
X231101634Y-83335601D01*
X231209928Y-83246726D01*
X231232203Y-83219584D01*
X235392717Y-79059072D01*
X235825000Y-79059072D01*
X235949482Y-79046812D01*
X236069180Y-79010502D01*
X236179494Y-78951537D01*
X236276185Y-78872185D01*
X236355537Y-78775494D01*
X236414502Y-78665180D01*
X236450812Y-78545482D01*
X236463072Y-78421000D01*
X236463072Y-78021000D01*
X236450812Y-77896518D01*
X236450655Y-77896000D01*
X236450812Y-77895482D01*
X236463072Y-77771000D01*
X236463072Y-77371000D01*
X236450812Y-77246518D01*
X236450655Y-77246000D01*
X236450812Y-77245482D01*
X236463072Y-77121000D01*
X236463072Y-76949300D01*
X237176708Y-76949300D01*
X237183992Y-77023255D01*
X237234528Y-77189851D01*
X237316595Y-77343387D01*
X237427038Y-77477962D01*
X237561613Y-77588405D01*
X237715149Y-77670472D01*
X237881745Y-77721008D01*
X238010701Y-77733709D01*
X238010700Y-79994672D01*
X237813368Y-80126525D01*
X237606525Y-80333368D01*
X237444010Y-80576589D01*
X237332068Y-80846842D01*
X237275000Y-81133740D01*
X237275000Y-81426260D01*
X237332068Y-81713158D01*
X237444010Y-81983411D01*
X237606525Y-82226632D01*
X237813368Y-82433475D01*
X237987760Y-82550000D01*
X237813368Y-82666525D01*
X237606525Y-82873368D01*
X237444010Y-83116589D01*
X237332068Y-83386842D01*
X237275000Y-83673740D01*
X237275000Y-83966260D01*
X237332068Y-84253158D01*
X237444010Y-84523411D01*
X237606525Y-84766632D01*
X237738380Y-84898487D01*
X237665820Y-84920498D01*
X237555506Y-84979463D01*
X237458815Y-85058815D01*
X237379463Y-85155506D01*
X237320498Y-85265820D01*
X237284188Y-85385518D01*
X237271928Y-85510000D01*
X237271928Y-87210000D01*
X237284188Y-87334482D01*
X237320498Y-87454180D01*
X237379463Y-87564494D01*
X237458815Y-87661185D01*
X237555506Y-87740537D01*
X237665820Y-87799502D01*
X237785518Y-87835812D01*
X237910000Y-87848072D01*
X239610000Y-87848072D01*
X239734482Y-87835812D01*
X239854180Y-87799502D01*
X239964494Y-87740537D01*
X240061185Y-87661185D01*
X240140537Y-87564494D01*
X240199502Y-87454180D01*
X240222498Y-87378374D01*
X240418645Y-87555178D01*
X240668748Y-87704157D01*
X240943109Y-87801481D01*
X241173000Y-87680814D01*
X241173000Y-86487000D01*
X241427000Y-86487000D01*
X241427000Y-87680814D01*
X241656891Y-87801481D01*
X241931252Y-87704157D01*
X242181355Y-87555178D01*
X242397588Y-87360269D01*
X242571641Y-87126920D01*
X242696825Y-86864099D01*
X242741476Y-86716890D01*
X242620155Y-86487000D01*
X241427000Y-86487000D01*
X241173000Y-86487000D01*
X241153000Y-86487000D01*
X241153000Y-86233000D01*
X241173000Y-86233000D01*
X241173000Y-83947000D01*
X241427000Y-83947000D01*
X241427000Y-86233000D01*
X242620155Y-86233000D01*
X242741476Y-86003110D01*
X242696825Y-85855901D01*
X242571641Y-85593080D01*
X242397588Y-85359731D01*
X242181355Y-85164822D01*
X242055745Y-85090000D01*
X242181355Y-85015178D01*
X242397588Y-84820269D01*
X242571641Y-84586920D01*
X242696825Y-84324099D01*
X242741476Y-84176890D01*
X242620155Y-83947000D01*
X241427000Y-83947000D01*
X241173000Y-83947000D01*
X241153000Y-83947000D01*
X241153000Y-83693000D01*
X241173000Y-83693000D01*
X241173000Y-81407000D01*
X241427000Y-81407000D01*
X241427000Y-83693000D01*
X242620155Y-83693000D01*
X242741476Y-83463110D01*
X242696825Y-83315901D01*
X242571641Y-83053080D01*
X242397588Y-82819731D01*
X242181355Y-82624822D01*
X242055745Y-82550000D01*
X242181355Y-82475178D01*
X242397588Y-82280269D01*
X242571641Y-82046920D01*
X242696825Y-81784099D01*
X242741476Y-81636890D01*
X242620155Y-81407000D01*
X241427000Y-81407000D01*
X241173000Y-81407000D01*
X241153000Y-81407000D01*
X241153000Y-81153000D01*
X241173000Y-81153000D01*
X241173000Y-79959186D01*
X241427000Y-79959186D01*
X241427000Y-81153000D01*
X242620155Y-81153000D01*
X242741476Y-80923110D01*
X242696825Y-80775901D01*
X242571641Y-80513080D01*
X242397588Y-80279731D01*
X242181355Y-80084822D01*
X241931252Y-79935843D01*
X241656891Y-79838519D01*
X241427000Y-79959186D01*
X241173000Y-79959186D01*
X240943109Y-79838519D01*
X240668748Y-79935843D01*
X240418645Y-80084822D01*
X240202412Y-80279731D01*
X240031100Y-80509406D01*
X239913475Y-80333368D01*
X239706632Y-80126525D01*
X239509300Y-79994672D01*
X239509300Y-77476332D01*
X239618405Y-77343387D01*
X239700472Y-77189851D01*
X239727727Y-77100000D01*
X240291928Y-77100000D01*
X240304188Y-77224482D01*
X240340498Y-77344180D01*
X240399463Y-77454494D01*
X240478815Y-77551185D01*
X240575506Y-77630537D01*
X240685820Y-77689502D01*
X240805518Y-77725812D01*
X240930000Y-77738072D01*
X241306750Y-77735000D01*
X241465500Y-77576250D01*
X241465500Y-76327000D01*
X241719500Y-76327000D01*
X241719500Y-77576250D01*
X241878250Y-77735000D01*
X242255000Y-77738072D01*
X242379482Y-77725812D01*
X242499180Y-77689502D01*
X242609494Y-77630537D01*
X242706185Y-77551185D01*
X242785537Y-77454494D01*
X242844502Y-77344180D01*
X242880812Y-77224482D01*
X242893072Y-77100000D01*
X242890000Y-76485750D01*
X242731250Y-76327000D01*
X241719500Y-76327000D01*
X241465500Y-76327000D01*
X240453750Y-76327000D01*
X240295000Y-76485750D01*
X240291928Y-77100000D01*
X239727727Y-77100000D01*
X239751008Y-77023255D01*
X239768072Y-76850001D01*
X239768072Y-75549999D01*
X239751008Y-75376745D01*
X239727728Y-75300000D01*
X240291928Y-75300000D01*
X240295000Y-75914250D01*
X240453750Y-76073000D01*
X241465500Y-76073000D01*
X241465500Y-74823750D01*
X241719500Y-74823750D01*
X241719500Y-76073000D01*
X242731250Y-76073000D01*
X242890000Y-75914250D01*
X242893072Y-75300000D01*
X242880812Y-75175518D01*
X242844502Y-75055820D01*
X242785537Y-74945506D01*
X242706185Y-74848815D01*
X242609494Y-74769463D01*
X242499180Y-74710498D01*
X242379482Y-74674188D01*
X242255000Y-74661928D01*
X241878250Y-74665000D01*
X241719500Y-74823750D01*
X241465500Y-74823750D01*
X241306750Y-74665000D01*
X240930000Y-74661928D01*
X240805518Y-74674188D01*
X240685820Y-74710498D01*
X240575506Y-74769463D01*
X240478815Y-74848815D01*
X240399463Y-74945506D01*
X240340498Y-75055820D01*
X240304188Y-75175518D01*
X240291928Y-75300000D01*
X239727728Y-75300000D01*
X239700472Y-75210149D01*
X239618405Y-75056613D01*
X239507962Y-74922038D01*
X239373387Y-74811595D01*
X239219851Y-74729528D01*
X239053255Y-74678992D01*
X238935273Y-74667372D01*
X240293786Y-73308860D01*
X240304188Y-73414482D01*
X240340498Y-73534180D01*
X240399463Y-73644494D01*
X240478815Y-73741185D01*
X240575506Y-73820537D01*
X240685820Y-73879502D01*
X240805518Y-73915812D01*
X240930000Y-73928072D01*
X241306750Y-73925000D01*
X241465500Y-73766250D01*
X241465500Y-72517000D01*
X241719500Y-72517000D01*
X241719500Y-73766250D01*
X241878250Y-73925000D01*
X242255000Y-73928072D01*
X242379482Y-73915812D01*
X242499180Y-73879502D01*
X242609494Y-73820537D01*
X242706185Y-73741185D01*
X242785537Y-73644494D01*
X242844502Y-73534180D01*
X242880812Y-73414482D01*
X242893072Y-73290000D01*
X242890000Y-72675750D01*
X242731250Y-72517000D01*
X241719500Y-72517000D01*
X241465500Y-72517000D01*
X241445500Y-72517000D01*
X241445500Y-72263000D01*
X241465500Y-72263000D01*
X241465500Y-71013750D01*
X241719500Y-71013750D01*
X241719500Y-72263000D01*
X242731250Y-72263000D01*
X242890000Y-72104250D01*
X242893072Y-71490000D01*
X242880812Y-71365518D01*
X242844502Y-71245820D01*
X242785537Y-71135506D01*
X242706185Y-71038815D01*
X242609494Y-70959463D01*
X242499180Y-70900498D01*
X242379482Y-70864188D01*
X242255000Y-70851928D01*
X241878250Y-70855000D01*
X241719500Y-71013750D01*
X241465500Y-71013750D01*
X241412590Y-70960840D01*
X241412590Y-69753197D01*
X241652715Y-69513072D01*
X242560000Y-69513072D01*
X242733254Y-69496008D01*
X242899850Y-69445472D01*
X243053386Y-69363405D01*
X243180000Y-69259496D01*
X243180001Y-87597711D01*
X243165278Y-87747869D01*
X243131047Y-87861246D01*
X243075446Y-87965817D01*
X243000594Y-88057595D01*
X242909335Y-88133091D01*
X242805160Y-88189419D01*
X242692024Y-88224440D01*
X242543979Y-88240000D01*
X191802279Y-88240000D01*
X191652131Y-88225278D01*
X191538754Y-88191047D01*
X191434183Y-88135446D01*
X191342405Y-88060594D01*
X191266909Y-87969335D01*
X191210581Y-87865160D01*
X191175560Y-87752024D01*
X191160000Y-87603979D01*
X191160000Y-85510000D01*
X191551928Y-85510000D01*
X191551928Y-87210000D01*
X191564188Y-87334482D01*
X191600498Y-87454180D01*
X191659463Y-87564494D01*
X191738815Y-87661185D01*
X191835506Y-87740537D01*
X191945820Y-87799502D01*
X192065518Y-87835812D01*
X192190000Y-87848072D01*
X193890000Y-87848072D01*
X194014482Y-87835812D01*
X194134180Y-87799502D01*
X194244494Y-87740537D01*
X194341185Y-87661185D01*
X194420537Y-87564494D01*
X194479502Y-87454180D01*
X194502498Y-87378374D01*
X194698645Y-87555178D01*
X194948748Y-87704157D01*
X195223109Y-87801481D01*
X195453000Y-87680814D01*
X195453000Y-86487000D01*
X195707000Y-86487000D01*
X195707000Y-87680814D01*
X195936891Y-87801481D01*
X196211252Y-87704157D01*
X196461355Y-87555178D01*
X196677588Y-87360269D01*
X196851641Y-87126920D01*
X196976825Y-86864099D01*
X197021476Y-86716890D01*
X196900155Y-86487000D01*
X195707000Y-86487000D01*
X195453000Y-86487000D01*
X195433000Y-86487000D01*
X195433000Y-86233000D01*
X195453000Y-86233000D01*
X195453000Y-83947000D01*
X195707000Y-83947000D01*
X195707000Y-86233000D01*
X196900155Y-86233000D01*
X197021476Y-86003110D01*
X196976825Y-85855901D01*
X196851641Y-85593080D01*
X196677588Y-85359731D01*
X196461355Y-85164822D01*
X196335745Y-85090000D01*
X196461355Y-85015178D01*
X196677588Y-84820269D01*
X196851641Y-84586920D01*
X196976825Y-84324099D01*
X197021476Y-84176890D01*
X196900155Y-83947000D01*
X195707000Y-83947000D01*
X195453000Y-83947000D01*
X195433000Y-83947000D01*
X195433000Y-83693000D01*
X195453000Y-83693000D01*
X195453000Y-81407000D01*
X195707000Y-81407000D01*
X195707000Y-83693000D01*
X196900155Y-83693000D01*
X197021476Y-83463110D01*
X196976825Y-83315901D01*
X196851641Y-83053080D01*
X196677588Y-82819731D01*
X196461355Y-82624822D01*
X196335745Y-82550000D01*
X196461355Y-82475178D01*
X196677588Y-82280269D01*
X196851641Y-82046920D01*
X196976825Y-81784099D01*
X197021476Y-81636890D01*
X196900155Y-81407000D01*
X195707000Y-81407000D01*
X195453000Y-81407000D01*
X195433000Y-81407000D01*
X195433000Y-81153000D01*
X195453000Y-81153000D01*
X195453000Y-81133000D01*
X195707000Y-81133000D01*
X195707000Y-81153000D01*
X196900155Y-81153000D01*
X197021476Y-80923110D01*
X196976825Y-80775901D01*
X196851641Y-80513080D01*
X196677588Y-80279731D01*
X196461355Y-80084822D01*
X196211252Y-79935843D01*
X195936891Y-79838519D01*
X195707002Y-79959185D01*
X195707002Y-79795000D01*
X195584669Y-79795000D01*
X199407811Y-75971859D01*
X199436398Y-75948398D01*
X199464043Y-75914713D01*
X200253139Y-76703809D01*
X200276602Y-76732398D01*
X200305188Y-76755858D01*
X200305190Y-76755860D01*
X200390696Y-76826034D01*
X200503005Y-76886064D01*
X200520868Y-76895612D01*
X200662112Y-76938458D01*
X200772194Y-76949300D01*
X200772204Y-76949300D01*
X200809000Y-76952924D01*
X200845796Y-76949300D01*
X201771170Y-76949300D01*
X201775992Y-76998254D01*
X201826528Y-77164850D01*
X201908595Y-77318386D01*
X202019038Y-77452962D01*
X202153614Y-77563405D01*
X202307150Y-77645472D01*
X202473746Y-77696008D01*
X202647000Y-77713072D01*
X203447000Y-77713072D01*
X203620254Y-77696008D01*
X203786850Y-77645472D01*
X203940386Y-77563405D01*
X204074962Y-77452962D01*
X204185405Y-77318386D01*
X204267472Y-77164850D01*
X204318008Y-76998254D01*
X204335072Y-76825000D01*
X204335072Y-75971598D01*
X204872831Y-75433839D01*
X204858928Y-75575000D01*
X204858928Y-76825000D01*
X204875992Y-76998254D01*
X204926528Y-77164850D01*
X205008595Y-77318386D01*
X205119038Y-77452962D01*
X205253614Y-77563405D01*
X205407150Y-77645472D01*
X205573746Y-77696008D01*
X205747000Y-77713072D01*
X206547000Y-77713072D01*
X206595614Y-77708284D01*
X206861141Y-77973811D01*
X206884602Y-78002398D01*
X206913188Y-78025858D01*
X206913190Y-78025860D01*
X206998696Y-78096034D01*
X207068274Y-78133224D01*
X207128868Y-78165612D01*
X207270112Y-78208458D01*
X207380194Y-78219300D01*
X207380203Y-78219300D01*
X207416999Y-78222924D01*
X207453795Y-78219300D01*
X214451928Y-78219300D01*
X214451928Y-78320000D01*
X214464188Y-78444482D01*
X214500498Y-78564180D01*
X214553747Y-78663800D01*
X201329928Y-78663800D01*
X201295000Y-78660360D01*
X201260071Y-78663800D01*
X201260064Y-78663800D01*
X201155580Y-78674091D01*
X201021518Y-78714758D01*
X200897967Y-78780798D01*
X200816809Y-78847402D01*
X200816804Y-78847407D01*
X200789673Y-78869673D01*
X200767407Y-78896804D01*
X199254310Y-80409903D01*
X199227173Y-80432174D01*
X199138298Y-80540468D01*
X199072258Y-80664020D01*
X199070064Y-80671253D01*
X198980149Y-80698528D01*
X198826613Y-80780595D01*
X198692038Y-80891038D01*
X198581595Y-81025613D01*
X198499528Y-81179149D01*
X198448992Y-81345745D01*
X198431928Y-81518999D01*
X198431928Y-82819001D01*
X198448992Y-82992255D01*
X198499528Y-83158851D01*
X198581595Y-83312387D01*
X198692038Y-83446962D01*
X198826613Y-83557405D01*
X198980149Y-83639472D01*
X199021300Y-83651955D01*
X199021301Y-84909629D01*
X199005150Y-84914528D01*
X198851614Y-84996595D01*
X198717038Y-85107038D01*
X198606595Y-85241614D01*
X198524528Y-85395150D01*
X198473992Y-85561746D01*
X198456928Y-85735000D01*
X198456928Y-86985000D01*
X198473992Y-87158254D01*
X198524528Y-87324850D01*
X198606595Y-87478386D01*
X198717038Y-87612962D01*
X198851614Y-87723405D01*
X199005150Y-87805472D01*
X199171746Y-87856008D01*
X199345000Y-87873072D01*
X200145000Y-87873072D01*
X200318254Y-87856008D01*
X200484850Y-87805472D01*
X200638386Y-87723405D01*
X200772962Y-87612962D01*
X200883405Y-87478386D01*
X200965472Y-87324850D01*
X201016008Y-87158254D01*
X201033072Y-86985000D01*
X201033072Y-85735000D01*
X201016008Y-85561746D01*
X200965472Y-85395150D01*
X200883405Y-85241614D01*
X200772962Y-85107038D01*
X200638386Y-84996595D01*
X200484850Y-84914528D01*
X200443700Y-84902045D01*
X200443700Y-83651955D01*
X200484851Y-83639472D01*
X200638387Y-83557405D01*
X200772962Y-83446962D01*
X200883405Y-83312387D01*
X200965472Y-83158851D01*
X200992727Y-83069000D01*
X201556928Y-83069000D01*
X201569188Y-83193482D01*
X201605498Y-83313180D01*
X201664463Y-83423494D01*
X201743815Y-83520185D01*
X201840506Y-83599537D01*
X201950820Y-83658502D01*
X202070518Y-83694812D01*
X202195000Y-83707072D01*
X202571750Y-83704000D01*
X202730500Y-83545250D01*
X202730500Y-82296000D01*
X202984500Y-82296000D01*
X202984500Y-83545250D01*
X203143250Y-83704000D01*
X203520000Y-83707072D01*
X203644482Y-83694812D01*
X203764180Y-83658502D01*
X203874494Y-83599537D01*
X203971185Y-83520185D01*
X204050537Y-83423494D01*
X204109502Y-83313180D01*
X204145812Y-83193482D01*
X204158072Y-83069000D01*
X204155000Y-82454750D01*
X203996250Y-82296000D01*
X202984500Y-82296000D01*
X202730500Y-82296000D01*
X201718750Y-82296000D01*
X201560000Y-82454750D01*
X201556928Y-83069000D01*
X200992727Y-83069000D01*
X201016008Y-82992255D01*
X201033072Y-82819001D01*
X201033072Y-81518999D01*
X201016008Y-81345745D01*
X200992728Y-81269000D01*
X201556928Y-81269000D01*
X201560000Y-81883250D01*
X201718750Y-82042000D01*
X202730500Y-82042000D01*
X202730500Y-80792750D01*
X202984500Y-80792750D01*
X202984500Y-82042000D01*
X203996250Y-82042000D01*
X204155000Y-81883250D01*
X204158072Y-81269000D01*
X204145812Y-81144518D01*
X204109502Y-81024820D01*
X204050537Y-80914506D01*
X203971185Y-80817815D01*
X203874494Y-80738463D01*
X203764180Y-80679498D01*
X203644482Y-80643188D01*
X203520000Y-80630928D01*
X203143250Y-80634000D01*
X202984500Y-80792750D01*
X202730500Y-80792750D01*
X202571750Y-80634000D01*
X202195000Y-80630928D01*
X202070518Y-80643188D01*
X201950820Y-80679498D01*
X201840506Y-80738463D01*
X201743815Y-80817815D01*
X201664463Y-80914506D01*
X201605498Y-81024820D01*
X201569188Y-81144518D01*
X201556928Y-81269000D01*
X200992728Y-81269000D01*
X200965472Y-81179149D01*
X200883405Y-81025613D01*
X200778275Y-80897512D01*
X201589589Y-80086200D01*
X206259512Y-80086200D01*
X205714785Y-80630928D01*
X205669999Y-80630928D01*
X205496745Y-80647992D01*
X205330149Y-80698528D01*
X205176613Y-80780595D01*
X205042038Y-80891038D01*
X204931595Y-81025613D01*
X204849528Y-81179149D01*
X204798992Y-81345745D01*
X204781928Y-81518999D01*
X204781928Y-82819001D01*
X204798992Y-82992255D01*
X204849528Y-83158851D01*
X204931595Y-83312387D01*
X205042038Y-83446962D01*
X205176613Y-83557405D01*
X205330149Y-83639472D01*
X205383801Y-83655747D01*
X205383801Y-84129335D01*
X205369068Y-84055271D01*
X205298586Y-83885111D01*
X205196262Y-83731972D01*
X205066028Y-83601738D01*
X204912889Y-83499414D01*
X204742729Y-83428932D01*
X204562089Y-83393000D01*
X204377911Y-83393000D01*
X204197271Y-83428932D01*
X204027111Y-83499414D01*
X203873972Y-83601738D01*
X203743738Y-83731972D01*
X203641414Y-83885111D01*
X203570932Y-84055271D01*
X203535000Y-84235911D01*
X203535000Y-84257212D01*
X202945285Y-84846928D01*
X202445000Y-84846928D01*
X202271746Y-84863992D01*
X202105150Y-84914528D01*
X201951614Y-84996595D01*
X201817038Y-85107038D01*
X201706595Y-85241614D01*
X201624528Y-85395150D01*
X201573992Y-85561746D01*
X201556928Y-85735000D01*
X201556928Y-86985000D01*
X201573992Y-87158254D01*
X201624528Y-87324850D01*
X201706595Y-87478386D01*
X201817038Y-87612962D01*
X201951614Y-87723405D01*
X202105150Y-87805472D01*
X202271746Y-87856008D01*
X202445000Y-87873072D01*
X203245000Y-87873072D01*
X203418254Y-87856008D01*
X203584850Y-87805472D01*
X203738386Y-87723405D01*
X203872962Y-87612962D01*
X203983405Y-87478386D01*
X204065472Y-87324850D01*
X204116008Y-87158254D01*
X204133072Y-86985000D01*
X204133072Y-85735000D01*
X204127308Y-85676479D01*
X204540788Y-85263000D01*
X204562089Y-85263000D01*
X204742729Y-85227068D01*
X204912889Y-85156586D01*
X205066028Y-85054262D01*
X205196262Y-84924028D01*
X205298586Y-84770889D01*
X205369068Y-84600729D01*
X205383800Y-84526665D01*
X205383800Y-84905837D01*
X205355150Y-84914528D01*
X205201614Y-84996595D01*
X205067038Y-85107038D01*
X204956595Y-85241614D01*
X204874528Y-85395150D01*
X204823992Y-85561746D01*
X204806928Y-85735000D01*
X204806928Y-86985000D01*
X204823992Y-87158254D01*
X204874528Y-87324850D01*
X204956595Y-87478386D01*
X205067038Y-87612962D01*
X205201614Y-87723405D01*
X205355150Y-87805472D01*
X205521746Y-87856008D01*
X205695000Y-87873072D01*
X206495000Y-87873072D01*
X206668254Y-87856008D01*
X206834850Y-87805472D01*
X206988386Y-87723405D01*
X207122962Y-87612962D01*
X207233405Y-87478386D01*
X207315472Y-87324850D01*
X207366008Y-87158254D01*
X207383072Y-86985000D01*
X207383072Y-85735000D01*
X207366008Y-85561746D01*
X207315472Y-85395150D01*
X207233405Y-85241614D01*
X207122962Y-85107038D01*
X206988386Y-84996595D01*
X206834850Y-84914528D01*
X206806200Y-84905837D01*
X206806200Y-83648163D01*
X206834851Y-83639472D01*
X206988387Y-83557405D01*
X207122962Y-83446962D01*
X207233405Y-83312387D01*
X207315472Y-83158851D01*
X207342727Y-83069000D01*
X207906928Y-83069000D01*
X207919188Y-83193482D01*
X207955498Y-83313180D01*
X208014463Y-83423494D01*
X208093815Y-83520185D01*
X208190506Y-83599537D01*
X208300820Y-83658502D01*
X208420518Y-83694812D01*
X208545000Y-83707072D01*
X208921750Y-83704000D01*
X209080500Y-83545250D01*
X209080500Y-82296000D01*
X209334500Y-82296000D01*
X209334500Y-83545250D01*
X209493250Y-83704000D01*
X209870000Y-83707072D01*
X209994482Y-83694812D01*
X210114180Y-83658502D01*
X210224494Y-83599537D01*
X210321185Y-83520185D01*
X210400537Y-83423494D01*
X210459502Y-83313180D01*
X210495812Y-83193482D01*
X210508072Y-83069000D01*
X210505000Y-82454750D01*
X210346250Y-82296000D01*
X209334500Y-82296000D01*
X209080500Y-82296000D01*
X208068750Y-82296000D01*
X207910000Y-82454750D01*
X207906928Y-83069000D01*
X207342727Y-83069000D01*
X207366008Y-82992255D01*
X207383072Y-82819001D01*
X207383072Y-81518999D01*
X207366008Y-81345745D01*
X207315472Y-81179149D01*
X207267635Y-81089653D01*
X207636088Y-80721200D01*
X208222802Y-80721200D01*
X208190506Y-80738463D01*
X208093815Y-80817815D01*
X208014463Y-80914506D01*
X207955498Y-81024820D01*
X207919188Y-81144518D01*
X207906928Y-81269000D01*
X207910000Y-81883250D01*
X208068750Y-82042000D01*
X209080500Y-82042000D01*
X209080500Y-82022000D01*
X209334500Y-82022000D01*
X209334500Y-82042000D01*
X210346250Y-82042000D01*
X210505000Y-81883250D01*
X210508072Y-81269000D01*
X210495812Y-81144518D01*
X210459502Y-81024820D01*
X210400537Y-80914506D01*
X210321185Y-80817815D01*
X210224494Y-80738463D01*
X210192198Y-80721200D01*
X216881074Y-80721200D01*
X216916000Y-80724640D01*
X216950926Y-80721200D01*
X216950936Y-80721200D01*
X217055420Y-80710909D01*
X217189481Y-80670242D01*
X217313033Y-80604202D01*
X217421327Y-80515327D01*
X217443602Y-80488186D01*
X218918201Y-79013588D01*
X218945326Y-78991327D01*
X218967588Y-78964201D01*
X218967597Y-78964192D01*
X219034202Y-78883034D01*
X219069768Y-78816494D01*
X219143411Y-78785990D01*
X219386632Y-78623475D01*
X219593475Y-78416632D01*
X219755990Y-78173411D01*
X219867932Y-77903158D01*
X219925000Y-77616260D01*
X219925000Y-77323740D01*
X219867932Y-77036842D01*
X219755990Y-76766589D01*
X219593475Y-76523368D01*
X219540107Y-76470000D01*
X219593475Y-76416632D01*
X219755990Y-76173411D01*
X219867932Y-75903158D01*
X219925000Y-75616260D01*
X219925000Y-75323740D01*
X219867932Y-75036842D01*
X219755990Y-74766589D01*
X219593475Y-74523368D01*
X219386632Y-74316525D01*
X219143411Y-74154010D01*
X218873158Y-74042068D01*
X218586260Y-73985000D01*
X218293740Y-73985000D01*
X218006842Y-74042068D01*
X217736589Y-74154010D01*
X217493368Y-74316525D01*
X217286525Y-74523368D01*
X217177584Y-74686410D01*
X216968397Y-74621208D01*
X216119605Y-75470000D01*
X216133748Y-75484143D01*
X215954143Y-75663748D01*
X215940000Y-75649605D01*
X215925858Y-75663748D01*
X215746253Y-75484143D01*
X215760395Y-75470000D01*
X214911603Y-74621208D01*
X214662528Y-74698843D01*
X214536629Y-74962883D01*
X214464661Y-75246411D01*
X214449389Y-75538531D01*
X214491401Y-75828019D01*
X214589081Y-76103747D01*
X214629759Y-76179850D01*
X214559463Y-76265506D01*
X214500498Y-76375820D01*
X214464188Y-76495518D01*
X214451928Y-76620000D01*
X214451928Y-76720700D01*
X207727370Y-76720700D01*
X207435072Y-76428402D01*
X207435072Y-75575000D01*
X207418008Y-75401746D01*
X207367472Y-75235150D01*
X207285405Y-75081614D01*
X207174962Y-74947038D01*
X207040386Y-74836595D01*
X206896300Y-74759579D01*
X206896300Y-73649714D01*
X207038851Y-73606472D01*
X207192387Y-73524405D01*
X207326962Y-73413962D01*
X207437405Y-73279387D01*
X207519472Y-73125851D01*
X207570008Y-72959255D01*
X207587072Y-72786001D01*
X207587072Y-72525098D01*
X208785000Y-72525098D01*
X208785000Y-72994902D01*
X208876654Y-73455679D01*
X209056440Y-73889721D01*
X209317450Y-74280349D01*
X209649651Y-74612550D01*
X210040279Y-74873560D01*
X210474321Y-75053346D01*
X210935098Y-75145000D01*
X211404902Y-75145000D01*
X211865679Y-75053346D01*
X212299721Y-74873560D01*
X212690349Y-74612550D01*
X212861296Y-74441603D01*
X215091208Y-74441603D01*
X215940000Y-75290395D01*
X216788792Y-74441603D01*
X216711157Y-74192528D01*
X216447117Y-74066629D01*
X216163589Y-73994661D01*
X215871469Y-73979389D01*
X215581981Y-74021401D01*
X215306253Y-74119081D01*
X215168843Y-74192528D01*
X215091208Y-74441603D01*
X212861296Y-74441603D01*
X213022550Y-74280349D01*
X213283560Y-73889721D01*
X213463346Y-73455679D01*
X213555000Y-72994902D01*
X213555000Y-72525098D01*
X213463346Y-72064321D01*
X213283560Y-71630279D01*
X213022550Y-71239651D01*
X212690349Y-70907450D01*
X212299721Y-70646440D01*
X211865679Y-70466654D01*
X211404902Y-70375000D01*
X210935098Y-70375000D01*
X210474321Y-70466654D01*
X210040279Y-70646440D01*
X209649651Y-70907450D01*
X209317450Y-71239651D01*
X209056440Y-71630279D01*
X208876654Y-72064321D01*
X208785000Y-72525098D01*
X207587072Y-72525098D01*
X207587072Y-71485999D01*
X207570008Y-71312745D01*
X207519472Y-71146149D01*
X207437405Y-70992613D01*
X207326962Y-70858038D01*
X207192387Y-70747595D01*
X207038851Y-70665528D01*
X206872255Y-70614992D01*
X206699001Y-70597928D01*
X205873999Y-70597928D01*
X205700745Y-70614992D01*
X205534149Y-70665528D01*
X205380613Y-70747595D01*
X205246038Y-70858038D01*
X205219300Y-70890618D01*
X205219300Y-68535369D01*
X205571385Y-68183284D01*
X205620000Y-68188072D01*
X206420000Y-68188072D01*
X206593254Y-68171008D01*
X206759850Y-68120472D01*
X206913386Y-68038405D01*
X207047962Y-67927962D01*
X207158405Y-67793386D01*
X207240472Y-67639850D01*
X207291008Y-67473254D01*
X207308072Y-67300000D01*
X207308072Y-66050000D01*
X207291008Y-65876746D01*
X207240472Y-65710150D01*
X207158405Y-65556614D01*
X207047962Y-65422038D01*
X206913386Y-65311595D01*
X206759850Y-65229528D01*
X206593254Y-65178992D01*
X206420000Y-65161928D01*
X205620000Y-65161928D01*
X205446746Y-65178992D01*
X205280150Y-65229528D01*
X205126614Y-65311595D01*
X204992038Y-65422038D01*
X204881595Y-65556614D01*
X204799528Y-65710150D01*
X204748992Y-65876746D01*
X204731928Y-66050000D01*
X204731928Y-66903402D01*
X204194169Y-67441162D01*
X204208072Y-67300000D01*
X204208072Y-66050000D01*
X204191008Y-65876746D01*
X204140472Y-65710150D01*
X204058405Y-65556614D01*
X203947962Y-65422038D01*
X203813386Y-65311595D01*
X203659850Y-65229528D01*
X203493254Y-65178992D01*
X203320000Y-65161928D01*
X202520000Y-65161928D01*
X202346746Y-65178992D01*
X202180150Y-65229528D01*
X202026614Y-65311595D01*
X201892038Y-65422038D01*
X201781595Y-65556614D01*
X201699528Y-65710150D01*
X201648992Y-65876746D01*
X201640418Y-65963800D01*
X200121883Y-65963800D01*
X200115299Y-65947905D01*
X199947312Y-65696495D01*
X199733505Y-65482688D01*
X199482095Y-65314701D01*
X199202743Y-65198989D01*
X198906184Y-65140000D01*
X198603816Y-65140000D01*
X198307257Y-65198989D01*
X198027905Y-65314701D01*
X197776495Y-65482688D01*
X197710056Y-65549127D01*
X197704502Y-65530820D01*
X197645537Y-65420506D01*
X197566185Y-65323815D01*
X197469494Y-65244463D01*
X197359180Y-65185498D01*
X197239482Y-65149188D01*
X197115000Y-65136928D01*
X196500750Y-65140000D01*
X196342000Y-65298750D01*
X196342000Y-66548000D01*
X196362000Y-66548000D01*
X196362000Y-66802000D01*
X196342000Y-66802000D01*
X196342000Y-68051250D01*
X196500750Y-68210000D01*
X197115000Y-68213072D01*
X197239482Y-68200812D01*
X197359180Y-68164502D01*
X197469494Y-68105537D01*
X197566185Y-68026185D01*
X197645537Y-67929494D01*
X197704502Y-67819180D01*
X197710056Y-67800873D01*
X197776495Y-67867312D01*
X198027905Y-68035299D01*
X198307257Y-68151011D01*
X198603816Y-68210000D01*
X198906184Y-68210000D01*
X199202743Y-68151011D01*
X199482095Y-68035299D01*
X199733505Y-67867312D01*
X199947312Y-67653505D01*
X200115299Y-67402095D01*
X200121883Y-67386200D01*
X201640418Y-67386200D01*
X201648992Y-67473254D01*
X201699528Y-67639850D01*
X201781595Y-67793386D01*
X201892038Y-67927962D01*
X202026614Y-68038405D01*
X202180150Y-68120472D01*
X202346746Y-68171008D01*
X202520000Y-68188072D01*
X203320000Y-68188072D01*
X203493254Y-68171008D01*
X203659850Y-68120472D01*
X203731123Y-68082376D01*
X203730807Y-68085581D01*
X203717076Y-68225000D01*
X203720701Y-68261805D01*
X203720701Y-70598770D01*
X203447250Y-70601000D01*
X203288500Y-70759750D01*
X203288500Y-72009000D01*
X203308500Y-72009000D01*
X203308500Y-72263000D01*
X203288500Y-72263000D01*
X203288500Y-73512250D01*
X203447250Y-73671000D01*
X203720700Y-73673230D01*
X203720700Y-74466630D01*
X203495614Y-74691716D01*
X203447000Y-74686928D01*
X202647000Y-74686928D01*
X202473746Y-74703992D01*
X202307150Y-74754528D01*
X202153614Y-74836595D01*
X202019038Y-74947038D01*
X201908595Y-75081614D01*
X201826528Y-75235150D01*
X201775992Y-75401746D01*
X201771170Y-75450700D01*
X201119370Y-75450700D01*
X200792870Y-75124200D01*
X200825008Y-75018254D01*
X200842072Y-74845000D01*
X200842072Y-73745000D01*
X200825008Y-73571746D01*
X200774472Y-73405150D01*
X200692405Y-73251614D01*
X200581962Y-73117038D01*
X200483217Y-73036000D01*
X201860928Y-73036000D01*
X201873188Y-73160482D01*
X201909498Y-73280180D01*
X201968463Y-73390494D01*
X202047815Y-73487185D01*
X202144506Y-73566537D01*
X202254820Y-73625502D01*
X202374518Y-73661812D01*
X202499000Y-73674072D01*
X202875750Y-73671000D01*
X203034500Y-73512250D01*
X203034500Y-72263000D01*
X202022750Y-72263000D01*
X201864000Y-72421750D01*
X201860928Y-73036000D01*
X200483217Y-73036000D01*
X200447386Y-73006595D01*
X200293850Y-72924528D01*
X200127254Y-72873992D01*
X199954000Y-72856928D01*
X197854000Y-72856928D01*
X197680746Y-72873992D01*
X197514150Y-72924528D01*
X197360614Y-73006595D01*
X197226038Y-73117038D01*
X197163031Y-73193813D01*
X197134537Y-73140506D01*
X197055185Y-73043815D01*
X196958494Y-72964463D01*
X196848180Y-72905498D01*
X196728482Y-72869188D01*
X196604000Y-72856928D01*
X195589750Y-72860000D01*
X195431000Y-73018750D01*
X195431000Y-74168000D01*
X195451000Y-74168000D01*
X195451000Y-74422000D01*
X195431000Y-74422000D01*
X195431000Y-75571250D01*
X195589750Y-75730000D01*
X196604000Y-75733072D01*
X196728482Y-75720812D01*
X196848180Y-75684502D01*
X196958494Y-75625537D01*
X197055185Y-75546185D01*
X197134537Y-75449494D01*
X197163031Y-75396187D01*
X197226038Y-75472962D01*
X197360614Y-75583405D01*
X197514150Y-75665472D01*
X197576074Y-75684256D01*
X193419030Y-79841301D01*
X193186260Y-79795000D01*
X192893740Y-79795000D01*
X192606842Y-79852068D01*
X192336589Y-79964010D01*
X192093368Y-80126525D01*
X191886525Y-80333368D01*
X191724010Y-80576589D01*
X191612068Y-80846842D01*
X191555000Y-81133740D01*
X191555000Y-81426260D01*
X191612068Y-81713158D01*
X191724010Y-81983411D01*
X191886525Y-82226632D01*
X192093368Y-82433475D01*
X192267760Y-82550000D01*
X192093368Y-82666525D01*
X191886525Y-82873368D01*
X191724010Y-83116589D01*
X191612068Y-83386842D01*
X191555000Y-83673740D01*
X191555000Y-83966260D01*
X191612068Y-84253158D01*
X191724010Y-84523411D01*
X191886525Y-84766632D01*
X192018380Y-84898487D01*
X191945820Y-84920498D01*
X191835506Y-84979463D01*
X191738815Y-85058815D01*
X191659463Y-85155506D01*
X191600498Y-85265820D01*
X191564188Y-85385518D01*
X191551928Y-85510000D01*
X191160000Y-85510000D01*
X191160000Y-75095000D01*
X193365928Y-75095000D01*
X193378188Y-75219482D01*
X193414498Y-75339180D01*
X193473463Y-75449494D01*
X193552815Y-75546185D01*
X193649506Y-75625537D01*
X193759820Y-75684502D01*
X193879518Y-75720812D01*
X194004000Y-75733072D01*
X195018250Y-75730000D01*
X195177000Y-75571250D01*
X195177000Y-74422000D01*
X193527750Y-74422000D01*
X193369000Y-74580750D01*
X193365928Y-75095000D01*
X191160000Y-75095000D01*
X191160000Y-73495000D01*
X193365928Y-73495000D01*
X193369000Y-74009250D01*
X193527750Y-74168000D01*
X195177000Y-74168000D01*
X195177000Y-73018750D01*
X195018250Y-72860000D01*
X194004000Y-72856928D01*
X193879518Y-72869188D01*
X193759820Y-72905498D01*
X193649506Y-72964463D01*
X193552815Y-73043815D01*
X193473463Y-73140506D01*
X193414498Y-73250820D01*
X193378188Y-73370518D01*
X193365928Y-73495000D01*
X191160000Y-73495000D01*
X191160000Y-71236000D01*
X201860928Y-71236000D01*
X201864000Y-71850250D01*
X202022750Y-72009000D01*
X203034500Y-72009000D01*
X203034500Y-70759750D01*
X202875750Y-70601000D01*
X202499000Y-70597928D01*
X202374518Y-70610188D01*
X202254820Y-70646498D01*
X202144506Y-70705463D01*
X202047815Y-70784815D01*
X201968463Y-70881506D01*
X201909498Y-70991820D01*
X201873188Y-71111518D01*
X201860928Y-71236000D01*
X191160000Y-71236000D01*
X191160000Y-67575000D01*
X194676928Y-67575000D01*
X194689188Y-67699482D01*
X194725498Y-67819180D01*
X194784463Y-67929494D01*
X194863815Y-68026185D01*
X194960506Y-68105537D01*
X195070820Y-68164502D01*
X195190518Y-68200812D01*
X195315000Y-68213072D01*
X195929250Y-68210000D01*
X196088000Y-68051250D01*
X196088000Y-66802000D01*
X194838750Y-66802000D01*
X194680000Y-66960750D01*
X194676928Y-67575000D01*
X191160000Y-67575000D01*
X191160000Y-65775000D01*
X194676928Y-65775000D01*
X194680000Y-66389250D01*
X194838750Y-66548000D01*
X196088000Y-66548000D01*
X196088000Y-65298750D01*
X195929250Y-65140000D01*
X195315000Y-65136928D01*
X195190518Y-65149188D01*
X195070820Y-65185498D01*
X194960506Y-65244463D01*
X194863815Y-65323815D01*
X194784463Y-65420506D01*
X194725498Y-65530820D01*
X194689188Y-65650518D01*
X194676928Y-65775000D01*
X191160000Y-65775000D01*
X191160000Y-63532279D01*
X191174722Y-63382131D01*
X191208953Y-63268754D01*
X191264555Y-63164181D01*
X191339407Y-63072404D01*
X191430664Y-62996909D01*
X191534844Y-62940581D01*
X191647976Y-62905560D01*
X191796022Y-62890000D01*
X242537721Y-62890000D01*
X242687869Y-62904722D01*
%TA.AperFunction,Conductor*%
D21*
G36*
X242687869Y-62904722D02*
G01*
X242801246Y-62938953D01*
X242905819Y-62994555D01*
X242997596Y-63069407D01*
X243073091Y-63160664D01*
X243129419Y-63264844D01*
X243164440Y-63377976D01*
X243180000Y-63526022D01*
X243180000Y-64090504D01*
X243053386Y-63986595D01*
X242899850Y-63904528D01*
X242733254Y-63853992D01*
X242560000Y-63836928D01*
X241310000Y-63836928D01*
X241136746Y-63853992D01*
X240970150Y-63904528D01*
X240816614Y-63986595D01*
X240682038Y-64097038D01*
X240571595Y-64231614D01*
X240489528Y-64385150D01*
X240480837Y-64413800D01*
X237931925Y-64413800D01*
X237896999Y-64410360D01*
X237862073Y-64413800D01*
X237862064Y-64413800D01*
X237757580Y-64424091D01*
X237623519Y-64464758D01*
X237499967Y-64530798D01*
X237391673Y-64619673D01*
X237369403Y-64646809D01*
X236879284Y-65136928D01*
X235447000Y-65136928D01*
X235322518Y-65149188D01*
X235202820Y-65185498D01*
X235092506Y-65244463D01*
X234995815Y-65323815D01*
X234916463Y-65420506D01*
X234857498Y-65530820D01*
X234821188Y-65650518D01*
X234808928Y-65775000D01*
X234808928Y-67575000D01*
X234821188Y-67699482D01*
X234857498Y-67819180D01*
X234916463Y-67929494D01*
X234995815Y-68026185D01*
X235092506Y-68105537D01*
X235202820Y-68164502D01*
X235322518Y-68200812D01*
X235447000Y-68213072D01*
X237247000Y-68213072D01*
X237371482Y-68200812D01*
X237491180Y-68164502D01*
X237601494Y-68105537D01*
X237698185Y-68026185D01*
X237777537Y-67929494D01*
X237836502Y-67819180D01*
X237842056Y-67800873D01*
X237908495Y-67867312D01*
X238159905Y-68035299D01*
X238175800Y-68041883D01*
X238175801Y-70851928D01*
X238054999Y-70851928D01*
X237881745Y-70868992D01*
X237715149Y-70919528D01*
X237561613Y-71001595D01*
X237427038Y-71112038D01*
X237316595Y-71246613D01*
X237234528Y-71400149D01*
X237183992Y-71566745D01*
X237172956Y-71678800D01*
X232876514Y-71678800D01*
X233006028Y-71592262D01*
X233136262Y-71462028D01*
X233238586Y-71308889D01*
X233309068Y-71138729D01*
X233345000Y-70958089D01*
X233345000Y-70936788D01*
X233523200Y-70758589D01*
X233550326Y-70736327D01*
X233572588Y-70709201D01*
X233572598Y-70709191D01*
X233639202Y-70628033D01*
X233705242Y-70504482D01*
X233745909Y-70370420D01*
X233755802Y-70269972D01*
X233756200Y-70265936D01*
X233756200Y-70265929D01*
X233759640Y-70231000D01*
X233756200Y-70196072D01*
X233756200Y-69504582D01*
X233843254Y-69496008D01*
X234009850Y-69445472D01*
X234163386Y-69363405D01*
X234297962Y-69252962D01*
X234408405Y-69118386D01*
X234490472Y-68964850D01*
X234541008Y-68798254D01*
X234558072Y-68625000D01*
X234558072Y-67825000D01*
X234541008Y-67651746D01*
X234490472Y-67485150D01*
X234408405Y-67331614D01*
X234297962Y-67197038D01*
X234163386Y-67086595D01*
X234009850Y-67004528D01*
X233843254Y-66953992D01*
X233670000Y-66936928D01*
X232420000Y-66936928D01*
X232246746Y-66953992D01*
X232080150Y-67004528D01*
X231926614Y-67086595D01*
X231792038Y-67197038D01*
X231681595Y-67331614D01*
X231599528Y-67485150D01*
X231548992Y-67651746D01*
X231531928Y-67825000D01*
X231531928Y-68625000D01*
X231548992Y-68798254D01*
X231599528Y-68964850D01*
X231681595Y-69118386D01*
X231792038Y-69252962D01*
X231926614Y-69363405D01*
X232080150Y-69445472D01*
X232246746Y-69496008D01*
X232333800Y-69504582D01*
X232333800Y-69931000D01*
X232317911Y-69931000D01*
X232137271Y-69966932D01*
X231967111Y-70037414D01*
X231813972Y-70139738D01*
X231683738Y-70269972D01*
X231581414Y-70423111D01*
X231510932Y-70593271D01*
X231475000Y-70773911D01*
X231475000Y-70958089D01*
X231510932Y-71138729D01*
X231581414Y-71308889D01*
X231683738Y-71462028D01*
X231813972Y-71592262D01*
X231943486Y-71678800D01*
X230876200Y-71678800D01*
X230876200Y-67839617D01*
X231062312Y-67653505D01*
X231230299Y-67402095D01*
X231346011Y-67122743D01*
X231405000Y-66826184D01*
X231405000Y-66523816D01*
X231346011Y-66227257D01*
X231230299Y-65947905D01*
X231155660Y-65836200D01*
X231590837Y-65836200D01*
X231599528Y-65864850D01*
X231681595Y-66018386D01*
X231792038Y-66152962D01*
X231926614Y-66263405D01*
X232080150Y-66345472D01*
X232246746Y-66396008D01*
X232420000Y-66413072D01*
X233670000Y-66413072D01*
X233843254Y-66396008D01*
X234009850Y-66345472D01*
X234163386Y-66263405D01*
X234297962Y-66152962D01*
X234408405Y-66018386D01*
X234490472Y-65864850D01*
X234541008Y-65698254D01*
X234558072Y-65525000D01*
X234558072Y-64725000D01*
X234541008Y-64551746D01*
X234490472Y-64385150D01*
X234408405Y-64231614D01*
X234297962Y-64097038D01*
X234163386Y-63986595D01*
X234009850Y-63904528D01*
X233843254Y-63853992D01*
X233670000Y-63836928D01*
X232420000Y-63836928D01*
X232246746Y-63853992D01*
X232080150Y-63904528D01*
X231926614Y-63986595D01*
X231792038Y-64097038D01*
X231681595Y-64231614D01*
X231599528Y-64385150D01*
X231590837Y-64413800D01*
X227862528Y-64413800D01*
X227827600Y-64410360D01*
X227792671Y-64413800D01*
X227792664Y-64413800D01*
X227688180Y-64424091D01*
X227554118Y-64464758D01*
X227430567Y-64530798D01*
X227349409Y-64597402D01*
X227349404Y-64597407D01*
X227322273Y-64619673D01*
X227300007Y-64646805D01*
X226851809Y-65095004D01*
X226824674Y-65117273D01*
X226808543Y-65136928D01*
X226430000Y-65136928D01*
X226305518Y-65149188D01*
X226185820Y-65185498D01*
X226075506Y-65244463D01*
X225978815Y-65323815D01*
X225899463Y-65420506D01*
X225840498Y-65530820D01*
X225804188Y-65650518D01*
X225791928Y-65775000D01*
X225791928Y-67575000D01*
X225804188Y-67699482D01*
X225840498Y-67819180D01*
X225899463Y-67929494D01*
X225978815Y-68026185D01*
X226075506Y-68105537D01*
X226185820Y-68164502D01*
X226305518Y-68200812D01*
X226430000Y-68213072D01*
X228230000Y-68213072D01*
X228354482Y-68200812D01*
X228474180Y-68164502D01*
X228584494Y-68105537D01*
X228681185Y-68026185D01*
X228760537Y-67929494D01*
X228819502Y-67819180D01*
X228825056Y-67800873D01*
X228891495Y-67867312D01*
X229142905Y-68035299D01*
X229422257Y-68151011D01*
X229453801Y-68157285D01*
X229453800Y-72314074D01*
X229450360Y-72349000D01*
X229453800Y-72383926D01*
X229453800Y-72383935D01*
X229453801Y-72383945D01*
X229453801Y-72738946D01*
X229343271Y-72760932D01*
X229173111Y-72831414D01*
X229120332Y-72866680D01*
X229049482Y-72845188D01*
X228925000Y-72832928D01*
X227725000Y-72832928D01*
X227600518Y-72845188D01*
X227480820Y-72881498D01*
X227370506Y-72940463D01*
X227273815Y-73019815D01*
X227194463Y-73116506D01*
X227135498Y-73226820D01*
X227099188Y-73346518D01*
X227086928Y-73471000D01*
X227086928Y-73609800D01*
X225439507Y-73609800D01*
X225503346Y-73455679D01*
X225595000Y-72994902D01*
X225595000Y-72525098D01*
X225503346Y-72064321D01*
X225323560Y-71630279D01*
X225062550Y-71239651D01*
X224730349Y-70907450D01*
X224339721Y-70646440D01*
X223905679Y-70466654D01*
X223444902Y-70375000D01*
X222975098Y-70375000D01*
X222514321Y-70466654D01*
X222080279Y-70646440D01*
X221689651Y-70907450D01*
X221357450Y-71239651D01*
X221096440Y-71630279D01*
X220916654Y-72064321D01*
X220825000Y-72525098D01*
X220825000Y-72994902D01*
X220916654Y-73455679D01*
X221096440Y-73889721D01*
X221357450Y-74280349D01*
X221689651Y-74612550D01*
X222080279Y-74873560D01*
X222514321Y-75053346D01*
X222975098Y-75145000D01*
X223444902Y-75145000D01*
X223862910Y-75061853D01*
X223890932Y-75202729D01*
X223961414Y-75372889D01*
X224063738Y-75526028D01*
X224193972Y-75656262D01*
X224347111Y-75758586D01*
X224517271Y-75829068D01*
X224697911Y-75865000D01*
X224882089Y-75865000D01*
X225062729Y-75829068D01*
X225232889Y-75758586D01*
X225386028Y-75656262D01*
X225516262Y-75526028D01*
X225618586Y-75372889D01*
X225689068Y-75202729D01*
X225722989Y-75032200D01*
X226489385Y-75032200D01*
X226414809Y-75093402D01*
X226414804Y-75093407D01*
X226387673Y-75115673D01*
X226365407Y-75142805D01*
X226243212Y-75265000D01*
X226221911Y-75265000D01*
X226041271Y-75300932D01*
X225871111Y-75371414D01*
X225717972Y-75473738D01*
X225587738Y-75603972D01*
X225485414Y-75757111D01*
X225414932Y-75927271D01*
X225379000Y-76107911D01*
X225379000Y-76242715D01*
X225319519Y-76260758D01*
X225281649Y-76281000D01*
X225205911Y-76281000D01*
X225025271Y-76316932D01*
X224855111Y-76387414D01*
X224701972Y-76489738D01*
X224571738Y-76619972D01*
X224469414Y-76773111D01*
X224398932Y-76943271D01*
X224363000Y-77123911D01*
X224363000Y-77308089D01*
X224398932Y-77488729D01*
X224469414Y-77658889D01*
X224571738Y-77812028D01*
X224701972Y-77942262D01*
X224855111Y-78044586D01*
X225025271Y-78115068D01*
X225205911Y-78151000D01*
X225390089Y-78151000D01*
X225570729Y-78115068D01*
X225740889Y-78044586D01*
X225894028Y-77942262D01*
X226024262Y-77812028D01*
X226126586Y-77658889D01*
X226137641Y-77632200D01*
X226683385Y-77632200D01*
X226608809Y-77693402D01*
X226608804Y-77693407D01*
X226581673Y-77715673D01*
X226559407Y-77742804D01*
X223479413Y-80822800D01*
X220829090Y-80822800D01*
X220814028Y-80807738D01*
X220660889Y-80705414D01*
X220490729Y-80634932D01*
X220310089Y-80599000D01*
X220125911Y-80599000D01*
X219945271Y-80634932D01*
X219775111Y-80705414D01*
X219621972Y-80807738D01*
X219491738Y-80937972D01*
X219389414Y-81091111D01*
X219318932Y-81261271D01*
X219283000Y-81441911D01*
X219283000Y-81626089D01*
X219318932Y-81806729D01*
X219389414Y-81976889D01*
X219425035Y-82030199D01*
X212848529Y-82030199D01*
X212813601Y-82026759D01*
X212778672Y-82030199D01*
X212778665Y-82030199D01*
X212674181Y-82040490D01*
X212540119Y-82081157D01*
X212416568Y-82147197D01*
X212335410Y-82213801D01*
X212335405Y-82213806D01*
X212308274Y-82236072D01*
X212286008Y-82263203D01*
X209692665Y-84856547D01*
X209595000Y-84846928D01*
X208795000Y-84846928D01*
X208621746Y-84863992D01*
X208455150Y-84914528D01*
X208301614Y-84996595D01*
X208167038Y-85107038D01*
X208056595Y-85241614D01*
X207974528Y-85395150D01*
X207923992Y-85561746D01*
X207906928Y-85735000D01*
X207906928Y-86985000D01*
X207923992Y-87158254D01*
X207974528Y-87324850D01*
X208056595Y-87478386D01*
X208167038Y-87612962D01*
X208301614Y-87723405D01*
X208455150Y-87805472D01*
X208621746Y-87856008D01*
X208795000Y-87873072D01*
X209595000Y-87873072D01*
X209768254Y-87856008D01*
X209934850Y-87805472D01*
X210088386Y-87723405D01*
X210222962Y-87612962D01*
X210333405Y-87478386D01*
X210415472Y-87324850D01*
X210466008Y-87158254D01*
X210483072Y-86985000D01*
X210483072Y-86077715D01*
X211050787Y-85510000D01*
X220761928Y-85510000D01*
X220761928Y-87210000D01*
X220774188Y-87334482D01*
X220810498Y-87454180D01*
X220869463Y-87564494D01*
X220948815Y-87661185D01*
X221045506Y-87740537D01*
X221155820Y-87799502D01*
X221275518Y-87835812D01*
X221400000Y-87848072D01*
X223100000Y-87848072D01*
X223224482Y-87835812D01*
X223344180Y-87799502D01*
X223454494Y-87740537D01*
X223551185Y-87661185D01*
X223630537Y-87564494D01*
X223689502Y-87454180D01*
X223711513Y-87381620D01*
X223843368Y-87513475D01*
X224086589Y-87675990D01*
X224356842Y-87787932D01*
X224643740Y-87845000D01*
X224936260Y-87845000D01*
X225223158Y-87787932D01*
X225493411Y-87675990D01*
X225736632Y-87513475D01*
X225943475Y-87306632D01*
X226060000Y-87132240D01*
X226176525Y-87306632D01*
X226383368Y-87513475D01*
X226626589Y-87675990D01*
X226896842Y-87787932D01*
X227183740Y-87845000D01*
X227476260Y-87845000D01*
X227763158Y-87787932D01*
X228033411Y-87675990D01*
X228276632Y-87513475D01*
X228483475Y-87306632D01*
X228600000Y-87132240D01*
X228716525Y-87306632D01*
X228923368Y-87513475D01*
X229166589Y-87675990D01*
X229436842Y-87787932D01*
X229723740Y-87845000D01*
X230016260Y-87845000D01*
X230303158Y-87787932D01*
X230573411Y-87675990D01*
X230816632Y-87513475D01*
X231023475Y-87306632D01*
X231140000Y-87132240D01*
X231256525Y-87306632D01*
X231463368Y-87513475D01*
X231706589Y-87675990D01*
X231976842Y-87787932D01*
X232263740Y-87845000D01*
X232556260Y-87845000D01*
X232843158Y-87787932D01*
X233113411Y-87675990D01*
X233356632Y-87513475D01*
X233563475Y-87306632D01*
X233680000Y-87132240D01*
X233796525Y-87306632D01*
X234003368Y-87513475D01*
X234246589Y-87675990D01*
X234516842Y-87787932D01*
X234803740Y-87845000D01*
X235096260Y-87845000D01*
X235383158Y-87787932D01*
X235653411Y-87675990D01*
X235896632Y-87513475D01*
X236103475Y-87306632D01*
X236265990Y-87063411D01*
X236377932Y-86793158D01*
X236435000Y-86506260D01*
X236435000Y-86213740D01*
X236377932Y-85926842D01*
X236265990Y-85656589D01*
X236103475Y-85413368D01*
X235896632Y-85206525D01*
X235653411Y-85044010D01*
X235383158Y-84932068D01*
X235096260Y-84875000D01*
X234803740Y-84875000D01*
X234516842Y-84932068D01*
X234246589Y-85044010D01*
X234003368Y-85206525D01*
X233796525Y-85413368D01*
X233680000Y-85587760D01*
X233563475Y-85413368D01*
X233356632Y-85206525D01*
X233113411Y-85044010D01*
X232843158Y-84932068D01*
X232556260Y-84875000D01*
X232263740Y-84875000D01*
X231976842Y-84932068D01*
X231706589Y-85044010D01*
X231463368Y-85206525D01*
X231256525Y-85413368D01*
X231140000Y-85587760D01*
X231023475Y-85413368D01*
X230816632Y-85206525D01*
X230573411Y-85044010D01*
X230303158Y-84932068D01*
X230016260Y-84875000D01*
X229723740Y-84875000D01*
X229436842Y-84932068D01*
X229166589Y-85044010D01*
X228923368Y-85206525D01*
X228716525Y-85413368D01*
X228600000Y-85587760D01*
X228483475Y-85413368D01*
X228276632Y-85206525D01*
X228033411Y-85044010D01*
X227763158Y-84932068D01*
X227476260Y-84875000D01*
X227183740Y-84875000D01*
X226896842Y-84932068D01*
X226626589Y-85044010D01*
X226383368Y-85206525D01*
X226176525Y-85413368D01*
X226060000Y-85587760D01*
X225943475Y-85413368D01*
X225736632Y-85206525D01*
X225493411Y-85044010D01*
X225223158Y-84932068D01*
X224936260Y-84875000D01*
X224643740Y-84875000D01*
X224356842Y-84932068D01*
X224086589Y-85044010D01*
X223843368Y-85206525D01*
X223711513Y-85338380D01*
X223689502Y-85265820D01*
X223630537Y-85155506D01*
X223551185Y-85058815D01*
X223454494Y-84979463D01*
X223344180Y-84920498D01*
X223224482Y-84884188D01*
X223100000Y-84871928D01*
X221400000Y-84871928D01*
X221275518Y-84884188D01*
X221155820Y-84920498D01*
X221045506Y-84979463D01*
X220948815Y-85058815D01*
X220869463Y-85155506D01*
X220810498Y-85265820D01*
X220774188Y-85385518D01*
X220761928Y-85510000D01*
X211050787Y-85510000D01*
X213108190Y-83452599D01*
X230669675Y-83452599D01*
X230704601Y-83456039D01*
X230739527Y-83452599D01*
X230739537Y-83452599D01*
X230844021Y-83442308D01*
X230978082Y-83401641D01*
X231101634Y-83335601D01*
X231209928Y-83246726D01*
X231232203Y-83219584D01*
X235392717Y-79059072D01*
X235825000Y-79059072D01*
X235949482Y-79046812D01*
X236069180Y-79010502D01*
X236179494Y-78951537D01*
X236276185Y-78872185D01*
X236355537Y-78775494D01*
X236414502Y-78665180D01*
X236450812Y-78545482D01*
X236463072Y-78421000D01*
X236463072Y-78021000D01*
X236450812Y-77896518D01*
X236450655Y-77896000D01*
X236450812Y-77895482D01*
X236463072Y-77771000D01*
X236463072Y-77371000D01*
X236450812Y-77246518D01*
X236450655Y-77246000D01*
X236450812Y-77245482D01*
X236463072Y-77121000D01*
X236463072Y-76949300D01*
X237176708Y-76949300D01*
X237183992Y-77023255D01*
X237234528Y-77189851D01*
X237316595Y-77343387D01*
X237427038Y-77477962D01*
X237561613Y-77588405D01*
X237715149Y-77670472D01*
X237881745Y-77721008D01*
X238010701Y-77733709D01*
X238010700Y-79994672D01*
X237813368Y-80126525D01*
X237606525Y-80333368D01*
X237444010Y-80576589D01*
X237332068Y-80846842D01*
X237275000Y-81133740D01*
X237275000Y-81426260D01*
X237332068Y-81713158D01*
X237444010Y-81983411D01*
X237606525Y-82226632D01*
X237813368Y-82433475D01*
X237987760Y-82550000D01*
X237813368Y-82666525D01*
X237606525Y-82873368D01*
X237444010Y-83116589D01*
X237332068Y-83386842D01*
X237275000Y-83673740D01*
X237275000Y-83966260D01*
X237332068Y-84253158D01*
X237444010Y-84523411D01*
X237606525Y-84766632D01*
X237738380Y-84898487D01*
X237665820Y-84920498D01*
X237555506Y-84979463D01*
X237458815Y-85058815D01*
X237379463Y-85155506D01*
X237320498Y-85265820D01*
X237284188Y-85385518D01*
X237271928Y-85510000D01*
X237271928Y-87210000D01*
X237284188Y-87334482D01*
X237320498Y-87454180D01*
X237379463Y-87564494D01*
X237458815Y-87661185D01*
X237555506Y-87740537D01*
X237665820Y-87799502D01*
X237785518Y-87835812D01*
X237910000Y-87848072D01*
X239610000Y-87848072D01*
X239734482Y-87835812D01*
X239854180Y-87799502D01*
X239964494Y-87740537D01*
X240061185Y-87661185D01*
X240140537Y-87564494D01*
X240199502Y-87454180D01*
X240222498Y-87378374D01*
X240418645Y-87555178D01*
X240668748Y-87704157D01*
X240943109Y-87801481D01*
X241173000Y-87680814D01*
X241173000Y-86487000D01*
X241427000Y-86487000D01*
X241427000Y-87680814D01*
X241656891Y-87801481D01*
X241931252Y-87704157D01*
X242181355Y-87555178D01*
X242397588Y-87360269D01*
X242571641Y-87126920D01*
X242696825Y-86864099D01*
X242741476Y-86716890D01*
X242620155Y-86487000D01*
X241427000Y-86487000D01*
X241173000Y-86487000D01*
X241153000Y-86487000D01*
X241153000Y-86233000D01*
X241173000Y-86233000D01*
X241173000Y-83947000D01*
X241427000Y-83947000D01*
X241427000Y-86233000D01*
X242620155Y-86233000D01*
X242741476Y-86003110D01*
X242696825Y-85855901D01*
X242571641Y-85593080D01*
X242397588Y-85359731D01*
X242181355Y-85164822D01*
X242055745Y-85090000D01*
X242181355Y-85015178D01*
X242397588Y-84820269D01*
X242571641Y-84586920D01*
X242696825Y-84324099D01*
X242741476Y-84176890D01*
X242620155Y-83947000D01*
X241427000Y-83947000D01*
X241173000Y-83947000D01*
X241153000Y-83947000D01*
X241153000Y-83693000D01*
X241173000Y-83693000D01*
X241173000Y-81407000D01*
X241427000Y-81407000D01*
X241427000Y-83693000D01*
X242620155Y-83693000D01*
X242741476Y-83463110D01*
X242696825Y-83315901D01*
X242571641Y-83053080D01*
X242397588Y-82819731D01*
X242181355Y-82624822D01*
X242055745Y-82550000D01*
X242181355Y-82475178D01*
X242397588Y-82280269D01*
X242571641Y-82046920D01*
X242696825Y-81784099D01*
X242741476Y-81636890D01*
X242620155Y-81407000D01*
X241427000Y-81407000D01*
X241173000Y-81407000D01*
X241153000Y-81407000D01*
X241153000Y-81153000D01*
X241173000Y-81153000D01*
X241173000Y-79959186D01*
X241427000Y-79959186D01*
X241427000Y-81153000D01*
X242620155Y-81153000D01*
X242741476Y-80923110D01*
X242696825Y-80775901D01*
X242571641Y-80513080D01*
X242397588Y-80279731D01*
X242181355Y-80084822D01*
X241931252Y-79935843D01*
X241656891Y-79838519D01*
X241427000Y-79959186D01*
X241173000Y-79959186D01*
X240943109Y-79838519D01*
X240668748Y-79935843D01*
X240418645Y-80084822D01*
X240202412Y-80279731D01*
X240031100Y-80509406D01*
X239913475Y-80333368D01*
X239706632Y-80126525D01*
X239509300Y-79994672D01*
X239509300Y-77476332D01*
X239618405Y-77343387D01*
X239700472Y-77189851D01*
X239727727Y-77100000D01*
X240291928Y-77100000D01*
X240304188Y-77224482D01*
X240340498Y-77344180D01*
X240399463Y-77454494D01*
X240478815Y-77551185D01*
X240575506Y-77630537D01*
X240685820Y-77689502D01*
X240805518Y-77725812D01*
X240930000Y-77738072D01*
X241306750Y-77735000D01*
X241465500Y-77576250D01*
X241465500Y-76327000D01*
X241719500Y-76327000D01*
X241719500Y-77576250D01*
X241878250Y-77735000D01*
X242255000Y-77738072D01*
X242379482Y-77725812D01*
X242499180Y-77689502D01*
X242609494Y-77630537D01*
X242706185Y-77551185D01*
X242785537Y-77454494D01*
X242844502Y-77344180D01*
X242880812Y-77224482D01*
X242893072Y-77100000D01*
X242890000Y-76485750D01*
X242731250Y-76327000D01*
X241719500Y-76327000D01*
X241465500Y-76327000D01*
X240453750Y-76327000D01*
X240295000Y-76485750D01*
X240291928Y-77100000D01*
X239727727Y-77100000D01*
X239751008Y-77023255D01*
X239768072Y-76850001D01*
X239768072Y-75549999D01*
X239751008Y-75376745D01*
X239727728Y-75300000D01*
X240291928Y-75300000D01*
X240295000Y-75914250D01*
X240453750Y-76073000D01*
X241465500Y-76073000D01*
X241465500Y-74823750D01*
X241719500Y-74823750D01*
X241719500Y-76073000D01*
X242731250Y-76073000D01*
X242890000Y-75914250D01*
X242893072Y-75300000D01*
X242880812Y-75175518D01*
X242844502Y-75055820D01*
X242785537Y-74945506D01*
X242706185Y-74848815D01*
X242609494Y-74769463D01*
X242499180Y-74710498D01*
X242379482Y-74674188D01*
X242255000Y-74661928D01*
X241878250Y-74665000D01*
X241719500Y-74823750D01*
X241465500Y-74823750D01*
X241306750Y-74665000D01*
X240930000Y-74661928D01*
X240805518Y-74674188D01*
X240685820Y-74710498D01*
X240575506Y-74769463D01*
X240478815Y-74848815D01*
X240399463Y-74945506D01*
X240340498Y-75055820D01*
X240304188Y-75175518D01*
X240291928Y-75300000D01*
X239727728Y-75300000D01*
X239700472Y-75210149D01*
X239618405Y-75056613D01*
X239507962Y-74922038D01*
X239373387Y-74811595D01*
X239219851Y-74729528D01*
X239053255Y-74678992D01*
X238935273Y-74667372D01*
X240293786Y-73308860D01*
X240304188Y-73414482D01*
X240340498Y-73534180D01*
X240399463Y-73644494D01*
X240478815Y-73741185D01*
X240575506Y-73820537D01*
X240685820Y-73879502D01*
X240805518Y-73915812D01*
X240930000Y-73928072D01*
X241306750Y-73925000D01*
X241465500Y-73766250D01*
X241465500Y-72517000D01*
X241719500Y-72517000D01*
X241719500Y-73766250D01*
X241878250Y-73925000D01*
X242255000Y-73928072D01*
X242379482Y-73915812D01*
X242499180Y-73879502D01*
X242609494Y-73820537D01*
X242706185Y-73741185D01*
X242785537Y-73644494D01*
X242844502Y-73534180D01*
X242880812Y-73414482D01*
X242893072Y-73290000D01*
X242890000Y-72675750D01*
X242731250Y-72517000D01*
X241719500Y-72517000D01*
X241465500Y-72517000D01*
X241445500Y-72517000D01*
X241445500Y-72263000D01*
X241465500Y-72263000D01*
X241465500Y-71013750D01*
X241719500Y-71013750D01*
X241719500Y-72263000D01*
X242731250Y-72263000D01*
X242890000Y-72104250D01*
X242893072Y-71490000D01*
X242880812Y-71365518D01*
X242844502Y-71245820D01*
X242785537Y-71135506D01*
X242706185Y-71038815D01*
X242609494Y-70959463D01*
X242499180Y-70900498D01*
X242379482Y-70864188D01*
X242255000Y-70851928D01*
X241878250Y-70855000D01*
X241719500Y-71013750D01*
X241465500Y-71013750D01*
X241412590Y-70960840D01*
X241412590Y-69753197D01*
X241652715Y-69513072D01*
X242560000Y-69513072D01*
X242733254Y-69496008D01*
X242899850Y-69445472D01*
X243053386Y-69363405D01*
X243180000Y-69259496D01*
X243180001Y-87597711D01*
X243165278Y-87747869D01*
X243131047Y-87861246D01*
X243075446Y-87965817D01*
X243000594Y-88057595D01*
X242909335Y-88133091D01*
X242805160Y-88189419D01*
X242692024Y-88224440D01*
X242543979Y-88240000D01*
X191802279Y-88240000D01*
X191652131Y-88225278D01*
X191538754Y-88191047D01*
X191434183Y-88135446D01*
X191342405Y-88060594D01*
X191266909Y-87969335D01*
X191210581Y-87865160D01*
X191175560Y-87752024D01*
X191160000Y-87603979D01*
X191160000Y-85510000D01*
X191551928Y-85510000D01*
X191551928Y-87210000D01*
X191564188Y-87334482D01*
X191600498Y-87454180D01*
X191659463Y-87564494D01*
X191738815Y-87661185D01*
X191835506Y-87740537D01*
X191945820Y-87799502D01*
X192065518Y-87835812D01*
X192190000Y-87848072D01*
X193890000Y-87848072D01*
X194014482Y-87835812D01*
X194134180Y-87799502D01*
X194244494Y-87740537D01*
X194341185Y-87661185D01*
X194420537Y-87564494D01*
X194479502Y-87454180D01*
X194502498Y-87378374D01*
X194698645Y-87555178D01*
X194948748Y-87704157D01*
X195223109Y-87801481D01*
X195453000Y-87680814D01*
X195453000Y-86487000D01*
X195707000Y-86487000D01*
X195707000Y-87680814D01*
X195936891Y-87801481D01*
X196211252Y-87704157D01*
X196461355Y-87555178D01*
X196677588Y-87360269D01*
X196851641Y-87126920D01*
X196976825Y-86864099D01*
X197021476Y-86716890D01*
X196900155Y-86487000D01*
X195707000Y-86487000D01*
X195453000Y-86487000D01*
X195433000Y-86487000D01*
X195433000Y-86233000D01*
X195453000Y-86233000D01*
X195453000Y-83947000D01*
X195707000Y-83947000D01*
X195707000Y-86233000D01*
X196900155Y-86233000D01*
X197021476Y-86003110D01*
X196976825Y-85855901D01*
X196851641Y-85593080D01*
X196677588Y-85359731D01*
X196461355Y-85164822D01*
X196335745Y-85090000D01*
X196461355Y-85015178D01*
X196677588Y-84820269D01*
X196851641Y-84586920D01*
X196976825Y-84324099D01*
X197021476Y-84176890D01*
X196900155Y-83947000D01*
X195707000Y-83947000D01*
X195453000Y-83947000D01*
X195433000Y-83947000D01*
X195433000Y-83693000D01*
X195453000Y-83693000D01*
X195453000Y-81407000D01*
X195707000Y-81407000D01*
X195707000Y-83693000D01*
X196900155Y-83693000D01*
X197021476Y-83463110D01*
X196976825Y-83315901D01*
X196851641Y-83053080D01*
X196677588Y-82819731D01*
X196461355Y-82624822D01*
X196335745Y-82550000D01*
X196461355Y-82475178D01*
X196677588Y-82280269D01*
X196851641Y-82046920D01*
X196976825Y-81784099D01*
X197021476Y-81636890D01*
X196900155Y-81407000D01*
X195707000Y-81407000D01*
X195453000Y-81407000D01*
X195433000Y-81407000D01*
X195433000Y-81153000D01*
X195453000Y-81153000D01*
X195453000Y-81133000D01*
X195707000Y-81133000D01*
X195707000Y-81153000D01*
X196900155Y-81153000D01*
X197021476Y-80923110D01*
X196976825Y-80775901D01*
X196851641Y-80513080D01*
X196677588Y-80279731D01*
X196461355Y-80084822D01*
X196211252Y-79935843D01*
X195936891Y-79838519D01*
X195707002Y-79959185D01*
X195707002Y-79795000D01*
X195584669Y-79795000D01*
X199407811Y-75971859D01*
X199436398Y-75948398D01*
X199464043Y-75914713D01*
X200253139Y-76703809D01*
X200276602Y-76732398D01*
X200305188Y-76755858D01*
X200305190Y-76755860D01*
X200390696Y-76826034D01*
X200503005Y-76886064D01*
X200520868Y-76895612D01*
X200662112Y-76938458D01*
X200772194Y-76949300D01*
X200772204Y-76949300D01*
X200809000Y-76952924D01*
X200845796Y-76949300D01*
X201771170Y-76949300D01*
X201775992Y-76998254D01*
X201826528Y-77164850D01*
X201908595Y-77318386D01*
X202019038Y-77452962D01*
X202153614Y-77563405D01*
X202307150Y-77645472D01*
X202473746Y-77696008D01*
X202647000Y-77713072D01*
X203447000Y-77713072D01*
X203620254Y-77696008D01*
X203786850Y-77645472D01*
X203940386Y-77563405D01*
X204074962Y-77452962D01*
X204185405Y-77318386D01*
X204267472Y-77164850D01*
X204318008Y-76998254D01*
X204335072Y-76825000D01*
X204335072Y-75971598D01*
X204872831Y-75433839D01*
X204858928Y-75575000D01*
X204858928Y-76825000D01*
X204875992Y-76998254D01*
X204926528Y-77164850D01*
X205008595Y-77318386D01*
X205119038Y-77452962D01*
X205253614Y-77563405D01*
X205407150Y-77645472D01*
X205573746Y-77696008D01*
X205747000Y-77713072D01*
X206547000Y-77713072D01*
X206595614Y-77708284D01*
X206861141Y-77973811D01*
X206884602Y-78002398D01*
X206913188Y-78025858D01*
X206913190Y-78025860D01*
X206998696Y-78096034D01*
X207068274Y-78133224D01*
X207128868Y-78165612D01*
X207270112Y-78208458D01*
X207380194Y-78219300D01*
X207380203Y-78219300D01*
X207416999Y-78222924D01*
X207453795Y-78219300D01*
X214451928Y-78219300D01*
X214451928Y-78320000D01*
X214464188Y-78444482D01*
X214500498Y-78564180D01*
X214553747Y-78663800D01*
X201329928Y-78663800D01*
X201295000Y-78660360D01*
X201260071Y-78663800D01*
X201260064Y-78663800D01*
X201155580Y-78674091D01*
X201021518Y-78714758D01*
X200897967Y-78780798D01*
X200816809Y-78847402D01*
X200816804Y-78847407D01*
X200789673Y-78869673D01*
X200767407Y-78896804D01*
X199254310Y-80409903D01*
X199227173Y-80432174D01*
X199138298Y-80540468D01*
X199072258Y-80664020D01*
X199070064Y-80671253D01*
X198980149Y-80698528D01*
X198826613Y-80780595D01*
X198692038Y-80891038D01*
X198581595Y-81025613D01*
X198499528Y-81179149D01*
X198448992Y-81345745D01*
X198431928Y-81518999D01*
X198431928Y-82819001D01*
X198448992Y-82992255D01*
X198499528Y-83158851D01*
X198581595Y-83312387D01*
X198692038Y-83446962D01*
X198826613Y-83557405D01*
X198980149Y-83639472D01*
X199021300Y-83651955D01*
X199021301Y-84909629D01*
X199005150Y-84914528D01*
X198851614Y-84996595D01*
X198717038Y-85107038D01*
X198606595Y-85241614D01*
X198524528Y-85395150D01*
X198473992Y-85561746D01*
X198456928Y-85735000D01*
X198456928Y-86985000D01*
X198473992Y-87158254D01*
X198524528Y-87324850D01*
X198606595Y-87478386D01*
X198717038Y-87612962D01*
X198851614Y-87723405D01*
X199005150Y-87805472D01*
X199171746Y-87856008D01*
X199345000Y-87873072D01*
X200145000Y-87873072D01*
X200318254Y-87856008D01*
X200484850Y-87805472D01*
X200638386Y-87723405D01*
X200772962Y-87612962D01*
X200883405Y-87478386D01*
X200965472Y-87324850D01*
X201016008Y-87158254D01*
X201033072Y-86985000D01*
X201033072Y-85735000D01*
X201016008Y-85561746D01*
X200965472Y-85395150D01*
X200883405Y-85241614D01*
X200772962Y-85107038D01*
X200638386Y-84996595D01*
X200484850Y-84914528D01*
X200443700Y-84902045D01*
X200443700Y-83651955D01*
X200484851Y-83639472D01*
X200638387Y-83557405D01*
X200772962Y-83446962D01*
X200883405Y-83312387D01*
X200965472Y-83158851D01*
X200992727Y-83069000D01*
X201556928Y-83069000D01*
X201569188Y-83193482D01*
X201605498Y-83313180D01*
X201664463Y-83423494D01*
X201743815Y-83520185D01*
X201840506Y-83599537D01*
X201950820Y-83658502D01*
X202070518Y-83694812D01*
X202195000Y-83707072D01*
X202571750Y-83704000D01*
X202730500Y-83545250D01*
X202730500Y-82296000D01*
X202984500Y-82296000D01*
X202984500Y-83545250D01*
X203143250Y-83704000D01*
X203520000Y-83707072D01*
X203644482Y-83694812D01*
X203764180Y-83658502D01*
X203874494Y-83599537D01*
X203971185Y-83520185D01*
X204050537Y-83423494D01*
X204109502Y-83313180D01*
X204145812Y-83193482D01*
X204158072Y-83069000D01*
X204155000Y-82454750D01*
X203996250Y-82296000D01*
X202984500Y-82296000D01*
X202730500Y-82296000D01*
X201718750Y-82296000D01*
X201560000Y-82454750D01*
X201556928Y-83069000D01*
X200992727Y-83069000D01*
X201016008Y-82992255D01*
X201033072Y-82819001D01*
X201033072Y-81518999D01*
X201016008Y-81345745D01*
X200992728Y-81269000D01*
X201556928Y-81269000D01*
X201560000Y-81883250D01*
X201718750Y-82042000D01*
X202730500Y-82042000D01*
X202730500Y-80792750D01*
X202984500Y-80792750D01*
X202984500Y-82042000D01*
X203996250Y-82042000D01*
X204155000Y-81883250D01*
X204158072Y-81269000D01*
X204145812Y-81144518D01*
X204109502Y-81024820D01*
X204050537Y-80914506D01*
X203971185Y-80817815D01*
X203874494Y-80738463D01*
X203764180Y-80679498D01*
X203644482Y-80643188D01*
X203520000Y-80630928D01*
X203143250Y-80634000D01*
X202984500Y-80792750D01*
X202730500Y-80792750D01*
X202571750Y-80634000D01*
X202195000Y-80630928D01*
X202070518Y-80643188D01*
X201950820Y-80679498D01*
X201840506Y-80738463D01*
X201743815Y-80817815D01*
X201664463Y-80914506D01*
X201605498Y-81024820D01*
X201569188Y-81144518D01*
X201556928Y-81269000D01*
X200992728Y-81269000D01*
X200965472Y-81179149D01*
X200883405Y-81025613D01*
X200778275Y-80897512D01*
X201589589Y-80086200D01*
X206259512Y-80086200D01*
X205714785Y-80630928D01*
X205669999Y-80630928D01*
X205496745Y-80647992D01*
X205330149Y-80698528D01*
X205176613Y-80780595D01*
X205042038Y-80891038D01*
X204931595Y-81025613D01*
X204849528Y-81179149D01*
X204798992Y-81345745D01*
X204781928Y-81518999D01*
X204781928Y-82819001D01*
X204798992Y-82992255D01*
X204849528Y-83158851D01*
X204931595Y-83312387D01*
X205042038Y-83446962D01*
X205176613Y-83557405D01*
X205330149Y-83639472D01*
X205383801Y-83655747D01*
X205383801Y-84129335D01*
X205369068Y-84055271D01*
X205298586Y-83885111D01*
X205196262Y-83731972D01*
X205066028Y-83601738D01*
X204912889Y-83499414D01*
X204742729Y-83428932D01*
X204562089Y-83393000D01*
X204377911Y-83393000D01*
X204197271Y-83428932D01*
X204027111Y-83499414D01*
X203873972Y-83601738D01*
X203743738Y-83731972D01*
X203641414Y-83885111D01*
X203570932Y-84055271D01*
X203535000Y-84235911D01*
X203535000Y-84257212D01*
X202945285Y-84846928D01*
X202445000Y-84846928D01*
X202271746Y-84863992D01*
X202105150Y-84914528D01*
X201951614Y-84996595D01*
X201817038Y-85107038D01*
X201706595Y-85241614D01*
X201624528Y-85395150D01*
X201573992Y-85561746D01*
X201556928Y-85735000D01*
X201556928Y-86985000D01*
X201573992Y-87158254D01*
X201624528Y-87324850D01*
X201706595Y-87478386D01*
X201817038Y-87612962D01*
X201951614Y-87723405D01*
X202105150Y-87805472D01*
X202271746Y-87856008D01*
X202445000Y-87873072D01*
X203245000Y-87873072D01*
X203418254Y-87856008D01*
X203584850Y-87805472D01*
X203738386Y-87723405D01*
X203872962Y-87612962D01*
X203983405Y-87478386D01*
X204065472Y-87324850D01*
X204116008Y-87158254D01*
X204133072Y-86985000D01*
X204133072Y-85735000D01*
X204127308Y-85676479D01*
X204540788Y-85263000D01*
X204562089Y-85263000D01*
X204742729Y-85227068D01*
X204912889Y-85156586D01*
X205066028Y-85054262D01*
X205196262Y-84924028D01*
X205298586Y-84770889D01*
X205369068Y-84600729D01*
X205383800Y-84526665D01*
X205383800Y-84905837D01*
X205355150Y-84914528D01*
X205201614Y-84996595D01*
X205067038Y-85107038D01*
X204956595Y-85241614D01*
X204874528Y-85395150D01*
X204823992Y-85561746D01*
X204806928Y-85735000D01*
X204806928Y-86985000D01*
X204823992Y-87158254D01*
X204874528Y-87324850D01*
X204956595Y-87478386D01*
X205067038Y-87612962D01*
X205201614Y-87723405D01*
X205355150Y-87805472D01*
X205521746Y-87856008D01*
X205695000Y-87873072D01*
X206495000Y-87873072D01*
X206668254Y-87856008D01*
X206834850Y-87805472D01*
X206988386Y-87723405D01*
X207122962Y-87612962D01*
X207233405Y-87478386D01*
X207315472Y-87324850D01*
X207366008Y-87158254D01*
X207383072Y-86985000D01*
X207383072Y-85735000D01*
X207366008Y-85561746D01*
X207315472Y-85395150D01*
X207233405Y-85241614D01*
X207122962Y-85107038D01*
X206988386Y-84996595D01*
X206834850Y-84914528D01*
X206806200Y-84905837D01*
X206806200Y-83648163D01*
X206834851Y-83639472D01*
X206988387Y-83557405D01*
X207122962Y-83446962D01*
X207233405Y-83312387D01*
X207315472Y-83158851D01*
X207342727Y-83069000D01*
X207906928Y-83069000D01*
X207919188Y-83193482D01*
X207955498Y-83313180D01*
X208014463Y-83423494D01*
X208093815Y-83520185D01*
X208190506Y-83599537D01*
X208300820Y-83658502D01*
X208420518Y-83694812D01*
X208545000Y-83707072D01*
X208921750Y-83704000D01*
X209080500Y-83545250D01*
X209080500Y-82296000D01*
X209334500Y-82296000D01*
X209334500Y-83545250D01*
X209493250Y-83704000D01*
X209870000Y-83707072D01*
X209994482Y-83694812D01*
X210114180Y-83658502D01*
X210224494Y-83599537D01*
X210321185Y-83520185D01*
X210400537Y-83423494D01*
X210459502Y-83313180D01*
X210495812Y-83193482D01*
X210508072Y-83069000D01*
X210505000Y-82454750D01*
X210346250Y-82296000D01*
X209334500Y-82296000D01*
X209080500Y-82296000D01*
X208068750Y-82296000D01*
X207910000Y-82454750D01*
X207906928Y-83069000D01*
X207342727Y-83069000D01*
X207366008Y-82992255D01*
X207383072Y-82819001D01*
X207383072Y-81518999D01*
X207366008Y-81345745D01*
X207315472Y-81179149D01*
X207267635Y-81089653D01*
X207636088Y-80721200D01*
X208222802Y-80721200D01*
X208190506Y-80738463D01*
X208093815Y-80817815D01*
X208014463Y-80914506D01*
X207955498Y-81024820D01*
X207919188Y-81144518D01*
X207906928Y-81269000D01*
X207910000Y-81883250D01*
X208068750Y-82042000D01*
X209080500Y-82042000D01*
X209080500Y-82022000D01*
X209334500Y-82022000D01*
X209334500Y-82042000D01*
X210346250Y-82042000D01*
X210505000Y-81883250D01*
X210508072Y-81269000D01*
X210495812Y-81144518D01*
X210459502Y-81024820D01*
X210400537Y-80914506D01*
X210321185Y-80817815D01*
X210224494Y-80738463D01*
X210192198Y-80721200D01*
X216881074Y-80721200D01*
X216916000Y-80724640D01*
X216950926Y-80721200D01*
X216950936Y-80721200D01*
X217055420Y-80710909D01*
X217189481Y-80670242D01*
X217313033Y-80604202D01*
X217421327Y-80515327D01*
X217443602Y-80488186D01*
X218918201Y-79013588D01*
X218945326Y-78991327D01*
X218967588Y-78964201D01*
X218967597Y-78964192D01*
X219034202Y-78883034D01*
X219069768Y-78816494D01*
X219143411Y-78785990D01*
X219386632Y-78623475D01*
X219593475Y-78416632D01*
X219755990Y-78173411D01*
X219867932Y-77903158D01*
X219925000Y-77616260D01*
X219925000Y-77323740D01*
X219867932Y-77036842D01*
X219755990Y-76766589D01*
X219593475Y-76523368D01*
X219540107Y-76470000D01*
X219593475Y-76416632D01*
X219755990Y-76173411D01*
X219867932Y-75903158D01*
X219925000Y-75616260D01*
X219925000Y-75323740D01*
X219867932Y-75036842D01*
X219755990Y-74766589D01*
X219593475Y-74523368D01*
X219386632Y-74316525D01*
X219143411Y-74154010D01*
X218873158Y-74042068D01*
X218586260Y-73985000D01*
X218293740Y-73985000D01*
X218006842Y-74042068D01*
X217736589Y-74154010D01*
X217493368Y-74316525D01*
X217286525Y-74523368D01*
X217177584Y-74686410D01*
X216968397Y-74621208D01*
X216119605Y-75470000D01*
X216133748Y-75484143D01*
X215954143Y-75663748D01*
X215940000Y-75649605D01*
X215925858Y-75663748D01*
X215746253Y-75484143D01*
X215760395Y-75470000D01*
X214911603Y-74621208D01*
X214662528Y-74698843D01*
X214536629Y-74962883D01*
X214464661Y-75246411D01*
X214449389Y-75538531D01*
X214491401Y-75828019D01*
X214589081Y-76103747D01*
X214629759Y-76179850D01*
X214559463Y-76265506D01*
X214500498Y-76375820D01*
X214464188Y-76495518D01*
X214451928Y-76620000D01*
X214451928Y-76720700D01*
X207727370Y-76720700D01*
X207435072Y-76428402D01*
X207435072Y-75575000D01*
X207418008Y-75401746D01*
X207367472Y-75235150D01*
X207285405Y-75081614D01*
X207174962Y-74947038D01*
X207040386Y-74836595D01*
X206896300Y-74759579D01*
X206896300Y-73649714D01*
X207038851Y-73606472D01*
X207192387Y-73524405D01*
X207326962Y-73413962D01*
X207437405Y-73279387D01*
X207519472Y-73125851D01*
X207570008Y-72959255D01*
X207587072Y-72786001D01*
X207587072Y-72525098D01*
X208785000Y-72525098D01*
X208785000Y-72994902D01*
X208876654Y-73455679D01*
X209056440Y-73889721D01*
X209317450Y-74280349D01*
X209649651Y-74612550D01*
X210040279Y-74873560D01*
X210474321Y-75053346D01*
X210935098Y-75145000D01*
X211404902Y-75145000D01*
X211865679Y-75053346D01*
X212299721Y-74873560D01*
X212690349Y-74612550D01*
X212861296Y-74441603D01*
X215091208Y-74441603D01*
X215940000Y-75290395D01*
X216788792Y-74441603D01*
X216711157Y-74192528D01*
X216447117Y-74066629D01*
X216163589Y-73994661D01*
X215871469Y-73979389D01*
X215581981Y-74021401D01*
X215306253Y-74119081D01*
X215168843Y-74192528D01*
X215091208Y-74441603D01*
X212861296Y-74441603D01*
X213022550Y-74280349D01*
X213283560Y-73889721D01*
X213463346Y-73455679D01*
X213555000Y-72994902D01*
X213555000Y-72525098D01*
X213463346Y-72064321D01*
X213283560Y-71630279D01*
X213022550Y-71239651D01*
X212690349Y-70907450D01*
X212299721Y-70646440D01*
X211865679Y-70466654D01*
X211404902Y-70375000D01*
X210935098Y-70375000D01*
X210474321Y-70466654D01*
X210040279Y-70646440D01*
X209649651Y-70907450D01*
X209317450Y-71239651D01*
X209056440Y-71630279D01*
X208876654Y-72064321D01*
X208785000Y-72525098D01*
X207587072Y-72525098D01*
X207587072Y-71485999D01*
X207570008Y-71312745D01*
X207519472Y-71146149D01*
X207437405Y-70992613D01*
X207326962Y-70858038D01*
X207192387Y-70747595D01*
X207038851Y-70665528D01*
X206872255Y-70614992D01*
X206699001Y-70597928D01*
X205873999Y-70597928D01*
X205700745Y-70614992D01*
X205534149Y-70665528D01*
X205380613Y-70747595D01*
X205246038Y-70858038D01*
X205219300Y-70890618D01*
X205219300Y-68535369D01*
X205571385Y-68183284D01*
X205620000Y-68188072D01*
X206420000Y-68188072D01*
X206593254Y-68171008D01*
X206759850Y-68120472D01*
X206913386Y-68038405D01*
X207047962Y-67927962D01*
X207158405Y-67793386D01*
X207240472Y-67639850D01*
X207291008Y-67473254D01*
X207308072Y-67300000D01*
X207308072Y-66050000D01*
X207291008Y-65876746D01*
X207240472Y-65710150D01*
X207158405Y-65556614D01*
X207047962Y-65422038D01*
X206913386Y-65311595D01*
X206759850Y-65229528D01*
X206593254Y-65178992D01*
X206420000Y-65161928D01*
X205620000Y-65161928D01*
X205446746Y-65178992D01*
X205280150Y-65229528D01*
X205126614Y-65311595D01*
X204992038Y-65422038D01*
X204881595Y-65556614D01*
X204799528Y-65710150D01*
X204748992Y-65876746D01*
X204731928Y-66050000D01*
X204731928Y-66903402D01*
X204194169Y-67441162D01*
X204208072Y-67300000D01*
X204208072Y-66050000D01*
X204191008Y-65876746D01*
X204140472Y-65710150D01*
X204058405Y-65556614D01*
X203947962Y-65422038D01*
X203813386Y-65311595D01*
X203659850Y-65229528D01*
X203493254Y-65178992D01*
X203320000Y-65161928D01*
X202520000Y-65161928D01*
X202346746Y-65178992D01*
X202180150Y-65229528D01*
X202026614Y-65311595D01*
X201892038Y-65422038D01*
X201781595Y-65556614D01*
X201699528Y-65710150D01*
X201648992Y-65876746D01*
X201640418Y-65963800D01*
X200121883Y-65963800D01*
X200115299Y-65947905D01*
X199947312Y-65696495D01*
X199733505Y-65482688D01*
X199482095Y-65314701D01*
X199202743Y-65198989D01*
X198906184Y-65140000D01*
X198603816Y-65140000D01*
X198307257Y-65198989D01*
X198027905Y-65314701D01*
X197776495Y-65482688D01*
X197710056Y-65549127D01*
X197704502Y-65530820D01*
X197645537Y-65420506D01*
X197566185Y-65323815D01*
X197469494Y-65244463D01*
X197359180Y-65185498D01*
X197239482Y-65149188D01*
X197115000Y-65136928D01*
X196500750Y-65140000D01*
X196342000Y-65298750D01*
X196342000Y-66548000D01*
X196362000Y-66548000D01*
X196362000Y-66802000D01*
X196342000Y-66802000D01*
X196342000Y-68051250D01*
X196500750Y-68210000D01*
X197115000Y-68213072D01*
X197239482Y-68200812D01*
X197359180Y-68164502D01*
X197469494Y-68105537D01*
X197566185Y-68026185D01*
X197645537Y-67929494D01*
X197704502Y-67819180D01*
X197710056Y-67800873D01*
X197776495Y-67867312D01*
X198027905Y-68035299D01*
X198307257Y-68151011D01*
X198603816Y-68210000D01*
X198906184Y-68210000D01*
X199202743Y-68151011D01*
X199482095Y-68035299D01*
X199733505Y-67867312D01*
X199947312Y-67653505D01*
X200115299Y-67402095D01*
X200121883Y-67386200D01*
X201640418Y-67386200D01*
X201648992Y-67473254D01*
X201699528Y-67639850D01*
X201781595Y-67793386D01*
X201892038Y-67927962D01*
X202026614Y-68038405D01*
X202180150Y-68120472D01*
X202346746Y-68171008D01*
X202520000Y-68188072D01*
X203320000Y-68188072D01*
X203493254Y-68171008D01*
X203659850Y-68120472D01*
X203731123Y-68082376D01*
X203730807Y-68085581D01*
X203717076Y-68225000D01*
X203720701Y-68261805D01*
X203720701Y-70598770D01*
X203447250Y-70601000D01*
X203288500Y-70759750D01*
X203288500Y-72009000D01*
X203308500Y-72009000D01*
X203308500Y-72263000D01*
X203288500Y-72263000D01*
X203288500Y-73512250D01*
X203447250Y-73671000D01*
X203720700Y-73673230D01*
X203720700Y-74466630D01*
X203495614Y-74691716D01*
X203447000Y-74686928D01*
X202647000Y-74686928D01*
X202473746Y-74703992D01*
X202307150Y-74754528D01*
X202153614Y-74836595D01*
X202019038Y-74947038D01*
X201908595Y-75081614D01*
X201826528Y-75235150D01*
X201775992Y-75401746D01*
X201771170Y-75450700D01*
X201119370Y-75450700D01*
X200792870Y-75124200D01*
X200825008Y-75018254D01*
X200842072Y-74845000D01*
X200842072Y-73745000D01*
X200825008Y-73571746D01*
X200774472Y-73405150D01*
X200692405Y-73251614D01*
X200581962Y-73117038D01*
X200483217Y-73036000D01*
X201860928Y-73036000D01*
X201873188Y-73160482D01*
X201909498Y-73280180D01*
X201968463Y-73390494D01*
X202047815Y-73487185D01*
X202144506Y-73566537D01*
X202254820Y-73625502D01*
X202374518Y-73661812D01*
X202499000Y-73674072D01*
X202875750Y-73671000D01*
X203034500Y-73512250D01*
X203034500Y-72263000D01*
X202022750Y-72263000D01*
X201864000Y-72421750D01*
X201860928Y-73036000D01*
X200483217Y-73036000D01*
X200447386Y-73006595D01*
X200293850Y-72924528D01*
X200127254Y-72873992D01*
X199954000Y-72856928D01*
X197854000Y-72856928D01*
X197680746Y-72873992D01*
X197514150Y-72924528D01*
X197360614Y-73006595D01*
X197226038Y-73117038D01*
X197163031Y-73193813D01*
X197134537Y-73140506D01*
X197055185Y-73043815D01*
X196958494Y-72964463D01*
X196848180Y-72905498D01*
X196728482Y-72869188D01*
X196604000Y-72856928D01*
X195589750Y-72860000D01*
X195431000Y-73018750D01*
X195431000Y-74168000D01*
X195451000Y-74168000D01*
X195451000Y-74422000D01*
X195431000Y-74422000D01*
X195431000Y-75571250D01*
X195589750Y-75730000D01*
X196604000Y-75733072D01*
X196728482Y-75720812D01*
X196848180Y-75684502D01*
X196958494Y-75625537D01*
X197055185Y-75546185D01*
X197134537Y-75449494D01*
X197163031Y-75396187D01*
X197226038Y-75472962D01*
X197360614Y-75583405D01*
X197514150Y-75665472D01*
X197576074Y-75684256D01*
X193419030Y-79841301D01*
X193186260Y-79795000D01*
X192893740Y-79795000D01*
X192606842Y-79852068D01*
X192336589Y-79964010D01*
X192093368Y-80126525D01*
X191886525Y-80333368D01*
X191724010Y-80576589D01*
X191612068Y-80846842D01*
X191555000Y-81133740D01*
X191555000Y-81426260D01*
X191612068Y-81713158D01*
X191724010Y-81983411D01*
X191886525Y-82226632D01*
X192093368Y-82433475D01*
X192267760Y-82550000D01*
X192093368Y-82666525D01*
X191886525Y-82873368D01*
X191724010Y-83116589D01*
X191612068Y-83386842D01*
X191555000Y-83673740D01*
X191555000Y-83966260D01*
X191612068Y-84253158D01*
X191724010Y-84523411D01*
X191886525Y-84766632D01*
X192018380Y-84898487D01*
X191945820Y-84920498D01*
X191835506Y-84979463D01*
X191738815Y-85058815D01*
X191659463Y-85155506D01*
X191600498Y-85265820D01*
X191564188Y-85385518D01*
X191551928Y-85510000D01*
X191160000Y-85510000D01*
X191160000Y-75095000D01*
X193365928Y-75095000D01*
X193378188Y-75219482D01*
X193414498Y-75339180D01*
X193473463Y-75449494D01*
X193552815Y-75546185D01*
X193649506Y-75625537D01*
X193759820Y-75684502D01*
X193879518Y-75720812D01*
X194004000Y-75733072D01*
X195018250Y-75730000D01*
X195177000Y-75571250D01*
X195177000Y-74422000D01*
X193527750Y-74422000D01*
X193369000Y-74580750D01*
X193365928Y-75095000D01*
X191160000Y-75095000D01*
X191160000Y-73495000D01*
X193365928Y-73495000D01*
X193369000Y-74009250D01*
X193527750Y-74168000D01*
X195177000Y-74168000D01*
X195177000Y-73018750D01*
X195018250Y-72860000D01*
X194004000Y-72856928D01*
X193879518Y-72869188D01*
X193759820Y-72905498D01*
X193649506Y-72964463D01*
X193552815Y-73043815D01*
X193473463Y-73140506D01*
X193414498Y-73250820D01*
X193378188Y-73370518D01*
X193365928Y-73495000D01*
X191160000Y-73495000D01*
X191160000Y-71236000D01*
X201860928Y-71236000D01*
X201864000Y-71850250D01*
X202022750Y-72009000D01*
X203034500Y-72009000D01*
X203034500Y-70759750D01*
X202875750Y-70601000D01*
X202499000Y-70597928D01*
X202374518Y-70610188D01*
X202254820Y-70646498D01*
X202144506Y-70705463D01*
X202047815Y-70784815D01*
X201968463Y-70881506D01*
X201909498Y-70991820D01*
X201873188Y-71111518D01*
X201860928Y-71236000D01*
X191160000Y-71236000D01*
X191160000Y-67575000D01*
X194676928Y-67575000D01*
X194689188Y-67699482D01*
X194725498Y-67819180D01*
X194784463Y-67929494D01*
X194863815Y-68026185D01*
X194960506Y-68105537D01*
X195070820Y-68164502D01*
X195190518Y-68200812D01*
X195315000Y-68213072D01*
X195929250Y-68210000D01*
X196088000Y-68051250D01*
X196088000Y-66802000D01*
X194838750Y-66802000D01*
X194680000Y-66960750D01*
X194676928Y-67575000D01*
X191160000Y-67575000D01*
X191160000Y-65775000D01*
X194676928Y-65775000D01*
X194680000Y-66389250D01*
X194838750Y-66548000D01*
X196088000Y-66548000D01*
X196088000Y-65298750D01*
X195929250Y-65140000D01*
X195315000Y-65136928D01*
X195190518Y-65149188D01*
X195070820Y-65185498D01*
X194960506Y-65244463D01*
X194863815Y-65323815D01*
X194784463Y-65420506D01*
X194725498Y-65530820D01*
X194689188Y-65650518D01*
X194676928Y-65775000D01*
X191160000Y-65775000D01*
X191160000Y-63532279D01*
X191174722Y-63382131D01*
X191208953Y-63268754D01*
X191264555Y-63164181D01*
X191339407Y-63072404D01*
X191430664Y-62996909D01*
X191534844Y-62940581D01*
X191647976Y-62905560D01*
X191796022Y-62890000D01*
X242537721Y-62890000D01*
X242687869Y-62904722D01*
G37*
%TD.AperFunction*%
%TD*%
M02*
