%TF.GenerationSoftware,KiCad,Pcbnew,(5.1.10-0-10_14)*%
%TF.CreationDate,2021-11-02T11:36:45+01:00*%
%TF.ProjectId,USB_power_serial_breakout,5553425f-706f-4776-9572-5f7365726961,rev?*%
%TF.SameCoordinates,Original*%
%TF.FileFunction,Soldermask,Top*%
%TF.FilePolarity,Negative*%
%FSLAX46Y46*%
G04 Gerber Fmt 4.6, Leading zero omitted, Abs format (unit mm)*
G04 Created by KiCad (PCBNEW (5.1.10-0-10_14)) date 2021-11-02 11:36:45*
%MOMM*%
%LPD*%
G01*
G04 APERTURE LIST*
%ADD10O,1.700000X1.700000*%
%ADD11R,1.700000X1.700000*%
%ADD12R,1.000000X0.400000*%
%ADD13C,1.200000*%
%ADD14R,1.200000X1.200000*%
%ADD15C,3.500000*%
%ADD16C,1.700000*%
G04 APERTURE END LIST*
%TO.C,D3*%
G36*
G01*
X198895000Y-68570000D02*
X198895000Y-67320000D01*
G75*
G02*
X199145000Y-67070000I250000J0D01*
G01*
X200070000Y-67070000D01*
G75*
G02*
X200320000Y-67320000I0J-250000D01*
G01*
X200320000Y-68570000D01*
G75*
G02*
X200070000Y-68820000I-250000J0D01*
G01*
X199145000Y-68820000D01*
G75*
G02*
X198895000Y-68570000I0J250000D01*
G01*
G37*
G36*
G01*
X195920000Y-68570000D02*
X195920000Y-67320000D01*
G75*
G02*
X196170000Y-67070000I250000J0D01*
G01*
X197095000Y-67070000D01*
G75*
G02*
X197345000Y-67320000I0J-250000D01*
G01*
X197345000Y-68570000D01*
G75*
G02*
X197095000Y-68820000I-250000J0D01*
G01*
X196170000Y-68820000D01*
G75*
G02*
X195920000Y-68570000I0J250000D01*
G01*
G37*
%TD*%
%TO.C,D2*%
G36*
G01*
X234960000Y-68085000D02*
X236210000Y-68085000D01*
G75*
G02*
X236460000Y-68335000I0J-250000D01*
G01*
X236460000Y-69260000D01*
G75*
G02*
X236210000Y-69510000I-250000J0D01*
G01*
X234960000Y-69510000D01*
G75*
G02*
X234710000Y-69260000I0J250000D01*
G01*
X234710000Y-68335000D01*
G75*
G02*
X234960000Y-68085000I250000J0D01*
G01*
G37*
G36*
G01*
X234960000Y-65110000D02*
X236210000Y-65110000D01*
G75*
G02*
X236460000Y-65360000I0J-250000D01*
G01*
X236460000Y-66285000D01*
G75*
G02*
X236210000Y-66535000I-250000J0D01*
G01*
X234960000Y-66535000D01*
G75*
G02*
X234710000Y-66285000I0J250000D01*
G01*
X234710000Y-65360000D01*
G75*
G02*
X234960000Y-65110000I250000J0D01*
G01*
G37*
%TD*%
%TO.C,D1*%
G36*
G01*
X226070000Y-68085000D02*
X227320000Y-68085000D01*
G75*
G02*
X227570000Y-68335000I0J-250000D01*
G01*
X227570000Y-69260000D01*
G75*
G02*
X227320000Y-69510000I-250000J0D01*
G01*
X226070000Y-69510000D01*
G75*
G02*
X225820000Y-69260000I0J250000D01*
G01*
X225820000Y-68335000D01*
G75*
G02*
X226070000Y-68085000I250000J0D01*
G01*
G37*
G36*
G01*
X226070000Y-65110000D02*
X227320000Y-65110000D01*
G75*
G02*
X227570000Y-65360000I0J-250000D01*
G01*
X227570000Y-66285000D01*
G75*
G02*
X227320000Y-66535000I-250000J0D01*
G01*
X226070000Y-66535000D01*
G75*
G02*
X225820000Y-66285000I0J250000D01*
G01*
X225820000Y-65360000D01*
G75*
G02*
X226070000Y-65110000I250000J0D01*
G01*
G37*
%TD*%
D10*
%TO.C,J4*%
X233045000Y-86360000D03*
X230505000Y-86360000D03*
X227965000Y-86360000D03*
X225425000Y-86360000D03*
X222885000Y-86360000D03*
X220345000Y-86360000D03*
X217805000Y-86360000D03*
D11*
X215265000Y-86360000D03*
%TD*%
D12*
%TO.C,U1*%
X234040000Y-73671000D03*
X234040000Y-74321000D03*
X234040000Y-74971000D03*
X234040000Y-75621000D03*
X234040000Y-76271000D03*
X234040000Y-76921000D03*
X234040000Y-77571000D03*
X234040000Y-78221000D03*
X228240000Y-78221000D03*
X228240000Y-77571000D03*
X228240000Y-76921000D03*
X228240000Y-76271000D03*
X228240000Y-75621000D03*
X228240000Y-74971000D03*
X228240000Y-74321000D03*
X228240000Y-73671000D03*
%TD*%
D13*
%TO.C,C6*%
X197390000Y-76200000D03*
D14*
X199390000Y-76200000D03*
%TD*%
%TO.C,R3*%
G36*
G01*
X203824000Y-67319999D02*
X203824000Y-68570001D01*
G75*
G02*
X203574001Y-68820000I-249999J0D01*
G01*
X202773999Y-68820000D01*
G75*
G02*
X202524000Y-68570001I0J249999D01*
G01*
X202524000Y-67319999D01*
G75*
G02*
X202773999Y-67070000I249999J0D01*
G01*
X203574001Y-67070000D01*
G75*
G02*
X203824000Y-67319999I0J-249999D01*
G01*
G37*
G36*
G01*
X206924000Y-67319999D02*
X206924000Y-68570001D01*
G75*
G02*
X206674001Y-68820000I-249999J0D01*
G01*
X205873999Y-68820000D01*
G75*
G02*
X205624000Y-68570001I0J249999D01*
G01*
X205624000Y-67319999D01*
G75*
G02*
X205873999Y-67070000I249999J0D01*
G01*
X206674001Y-67070000D01*
G75*
G02*
X206924000Y-67319999I0J-249999D01*
G01*
G37*
%TD*%
%TO.C,R5*%
G36*
G01*
X239404999Y-68210000D02*
X240655001Y-68210000D01*
G75*
G02*
X240905000Y-68459999I0J-249999D01*
G01*
X240905000Y-69260001D01*
G75*
G02*
X240655001Y-69510000I-249999J0D01*
G01*
X239404999Y-69510000D01*
G75*
G02*
X239155000Y-69260001I0J249999D01*
G01*
X239155000Y-68459999D01*
G75*
G02*
X239404999Y-68210000I249999J0D01*
G01*
G37*
G36*
G01*
X239404999Y-65110000D02*
X240655001Y-65110000D01*
G75*
G02*
X240905000Y-65359999I0J-249999D01*
G01*
X240905000Y-66160001D01*
G75*
G02*
X240655001Y-66410000I-249999J0D01*
G01*
X239404999Y-66410000D01*
G75*
G02*
X239155000Y-66160001I0J249999D01*
G01*
X239155000Y-65359999D01*
G75*
G02*
X239404999Y-65110000I249999J0D01*
G01*
G37*
%TD*%
%TO.C,R4*%
G36*
G01*
X230514999Y-68210000D02*
X231765001Y-68210000D01*
G75*
G02*
X232015000Y-68459999I0J-249999D01*
G01*
X232015000Y-69260001D01*
G75*
G02*
X231765001Y-69510000I-249999J0D01*
G01*
X230514999Y-69510000D01*
G75*
G02*
X230265000Y-69260001I0J249999D01*
G01*
X230265000Y-68459999D01*
G75*
G02*
X230514999Y-68210000I249999J0D01*
G01*
G37*
G36*
G01*
X230514999Y-65110000D02*
X231765001Y-65110000D01*
G75*
G02*
X232015000Y-65359999I0J-249999D01*
G01*
X232015000Y-66160001D01*
G75*
G02*
X231765001Y-66410000I-249999J0D01*
G01*
X230514999Y-66410000D01*
G75*
G02*
X230265000Y-66160001I0J249999D01*
G01*
X230265000Y-65359999D01*
G75*
G02*
X230514999Y-65110000I249999J0D01*
G01*
G37*
%TD*%
%TO.C,R2*%
G36*
G01*
X206745000Y-85734999D02*
X206745000Y-86985001D01*
G75*
G02*
X206495001Y-87235000I-249999J0D01*
G01*
X205694999Y-87235000D01*
G75*
G02*
X205445000Y-86985001I0J249999D01*
G01*
X205445000Y-85734999D01*
G75*
G02*
X205694999Y-85485000I249999J0D01*
G01*
X206495001Y-85485000D01*
G75*
G02*
X206745000Y-85734999I0J-249999D01*
G01*
G37*
G36*
G01*
X209845000Y-85734999D02*
X209845000Y-86985001D01*
G75*
G02*
X209595001Y-87235000I-249999J0D01*
G01*
X208794999Y-87235000D01*
G75*
G02*
X208545000Y-86985001I0J249999D01*
G01*
X208545000Y-85734999D01*
G75*
G02*
X208794999Y-85485000I249999J0D01*
G01*
X209595001Y-85485000D01*
G75*
G02*
X209845000Y-85734999I0J-249999D01*
G01*
G37*
%TD*%
%TO.C,R1*%
G36*
G01*
X200395000Y-85734999D02*
X200395000Y-86985001D01*
G75*
G02*
X200145001Y-87235000I-249999J0D01*
G01*
X199344999Y-87235000D01*
G75*
G02*
X199095000Y-86985001I0J249999D01*
G01*
X199095000Y-85734999D01*
G75*
G02*
X199344999Y-85485000I249999J0D01*
G01*
X200145001Y-85485000D01*
G75*
G02*
X200395000Y-85734999I0J-249999D01*
G01*
G37*
G36*
G01*
X203495000Y-85734999D02*
X203495000Y-86985001D01*
G75*
G02*
X203245001Y-87235000I-249999J0D01*
G01*
X202444999Y-87235000D01*
G75*
G02*
X202195000Y-86985001I0J249999D01*
G01*
X202195000Y-85734999D01*
G75*
G02*
X202444999Y-85485000I249999J0D01*
G01*
X203245001Y-85485000D01*
G75*
G02*
X203495000Y-85734999I0J-249999D01*
G01*
G37*
%TD*%
D15*
%TO.C,J3*%
X223210000Y-72760000D03*
X211170000Y-72760000D03*
D16*
X215940000Y-75470000D03*
X218440000Y-75470000D03*
X218440000Y-77470000D03*
D11*
X215940000Y-77470000D03*
%TD*%
D10*
%TO.C,J2*%
X241300000Y-81280000D03*
X238760000Y-81280000D03*
X241300000Y-83820000D03*
X238760000Y-83820000D03*
X241300000Y-86360000D03*
D11*
X238760000Y-86360000D03*
%TD*%
D10*
%TO.C,J1*%
X195580000Y-81280000D03*
X193040000Y-81280000D03*
X195580000Y-83820000D03*
X193040000Y-83820000D03*
X195580000Y-86360000D03*
D11*
X193040000Y-86360000D03*
%TD*%
%TO.C,FB1*%
G36*
G01*
X205624000Y-76825001D02*
X205624000Y-75574999D01*
G75*
G02*
X205873999Y-75325000I249999J0D01*
G01*
X206674001Y-75325000D01*
G75*
G02*
X206924000Y-75574999I0J-249999D01*
G01*
X206924000Y-76825001D01*
G75*
G02*
X206674001Y-77075000I-249999J0D01*
G01*
X205873999Y-77075000D01*
G75*
G02*
X205624000Y-76825001I0J249999D01*
G01*
G37*
G36*
G01*
X202524000Y-76825001D02*
X202524000Y-75574999D01*
G75*
G02*
X202773999Y-75325000I249999J0D01*
G01*
X203574001Y-75325000D01*
G75*
G02*
X203824000Y-75574999I0J-249999D01*
G01*
X203824000Y-76825001D01*
G75*
G02*
X203574001Y-77075000I-249999J0D01*
G01*
X202773999Y-77075000D01*
G75*
G02*
X202524000Y-76825001I0J249999D01*
G01*
G37*
%TD*%
%TO.C,C5*%
G36*
G01*
X240930000Y-76850003D02*
X240930000Y-75549997D01*
G75*
G02*
X241179997Y-75300000I249997J0D01*
G01*
X242005003Y-75300000D01*
G75*
G02*
X242255000Y-75549997I0J-249997D01*
G01*
X242255000Y-76850003D01*
G75*
G02*
X242005003Y-77100000I-249997J0D01*
G01*
X241179997Y-77100000D01*
G75*
G02*
X240930000Y-76850003I0J249997D01*
G01*
G37*
G36*
G01*
X237805000Y-76850003D02*
X237805000Y-75549997D01*
G75*
G02*
X238054997Y-75300000I249997J0D01*
G01*
X238880003Y-75300000D01*
G75*
G02*
X239130000Y-75549997I0J-249997D01*
G01*
X239130000Y-76850003D01*
G75*
G02*
X238880003Y-77100000I-249997J0D01*
G01*
X238054997Y-77100000D01*
G75*
G02*
X237805000Y-76850003I0J249997D01*
G01*
G37*
%TD*%
%TO.C,C4*%
G36*
G01*
X240930000Y-73040003D02*
X240930000Y-71739997D01*
G75*
G02*
X241179997Y-71490000I249997J0D01*
G01*
X242005003Y-71490000D01*
G75*
G02*
X242255000Y-71739997I0J-249997D01*
G01*
X242255000Y-73040003D01*
G75*
G02*
X242005003Y-73290000I-249997J0D01*
G01*
X241179997Y-73290000D01*
G75*
G02*
X240930000Y-73040003I0J249997D01*
G01*
G37*
G36*
G01*
X237805000Y-73040003D02*
X237805000Y-71739997D01*
G75*
G02*
X238054997Y-71490000I249997J0D01*
G01*
X238880003Y-71490000D01*
G75*
G02*
X239130000Y-71739997I0J-249997D01*
G01*
X239130000Y-73040003D01*
G75*
G02*
X238880003Y-73290000I-249997J0D01*
G01*
X238054997Y-73290000D01*
G75*
G02*
X237805000Y-73040003I0J249997D01*
G01*
G37*
%TD*%
%TO.C,C3*%
G36*
G01*
X208545000Y-82819003D02*
X208545000Y-81518997D01*
G75*
G02*
X208794997Y-81269000I249997J0D01*
G01*
X209620003Y-81269000D01*
G75*
G02*
X209870000Y-81518997I0J-249997D01*
G01*
X209870000Y-82819003D01*
G75*
G02*
X209620003Y-83069000I-249997J0D01*
G01*
X208794997Y-83069000D01*
G75*
G02*
X208545000Y-82819003I0J249997D01*
G01*
G37*
G36*
G01*
X205420000Y-82819003D02*
X205420000Y-81518997D01*
G75*
G02*
X205669997Y-81269000I249997J0D01*
G01*
X206495003Y-81269000D01*
G75*
G02*
X206745000Y-81518997I0J-249997D01*
G01*
X206745000Y-82819003D01*
G75*
G02*
X206495003Y-83069000I-249997J0D01*
G01*
X205669997Y-83069000D01*
G75*
G02*
X205420000Y-82819003I0J249997D01*
G01*
G37*
%TD*%
%TO.C,C2*%
G36*
G01*
X202195000Y-82819003D02*
X202195000Y-81518997D01*
G75*
G02*
X202444997Y-81269000I249997J0D01*
G01*
X203270003Y-81269000D01*
G75*
G02*
X203520000Y-81518997I0J-249997D01*
G01*
X203520000Y-82819003D01*
G75*
G02*
X203270003Y-83069000I-249997J0D01*
G01*
X202444997Y-83069000D01*
G75*
G02*
X202195000Y-82819003I0J249997D01*
G01*
G37*
G36*
G01*
X199070000Y-82819003D02*
X199070000Y-81518997D01*
G75*
G02*
X199319997Y-81269000I249997J0D01*
G01*
X200145003Y-81269000D01*
G75*
G02*
X200395000Y-81518997I0J-249997D01*
G01*
X200395000Y-82819003D01*
G75*
G02*
X200145003Y-83069000I-249997J0D01*
G01*
X199319997Y-83069000D01*
G75*
G02*
X199070000Y-82819003I0J249997D01*
G01*
G37*
%TD*%
%TO.C,C1*%
G36*
G01*
X203824000Y-71485997D02*
X203824000Y-72786003D01*
G75*
G02*
X203574003Y-73036000I-249997J0D01*
G01*
X202748997Y-73036000D01*
G75*
G02*
X202499000Y-72786003I0J249997D01*
G01*
X202499000Y-71485997D01*
G75*
G02*
X202748997Y-71236000I249997J0D01*
G01*
X203574003Y-71236000D01*
G75*
G02*
X203824000Y-71485997I0J-249997D01*
G01*
G37*
G36*
G01*
X206949000Y-71485997D02*
X206949000Y-72786003D01*
G75*
G02*
X206699003Y-73036000I-249997J0D01*
G01*
X205873997Y-73036000D01*
G75*
G02*
X205624000Y-72786003I0J249997D01*
G01*
X205624000Y-71485997D01*
G75*
G02*
X205873997Y-71236000I249997J0D01*
G01*
X206699003Y-71236000D01*
G75*
G02*
X206949000Y-71485997I0J-249997D01*
G01*
G37*
%TD*%
M02*
