G04 #@! TF.GenerationSoftware,KiCad,Pcbnew,(5.1.10-0-10_14)*
G04 #@! TF.CreationDate,2021-11-02T10:17:00+01:00*
G04 #@! TF.ProjectId,AVRUPDI_breakout,41565255-5044-4495-9f62-7265616b6f75,rev?*
G04 #@! TF.SameCoordinates,Original*
G04 #@! TF.FileFunction,Legend,Top*
G04 #@! TF.FilePolarity,Positive*
%FSLAX46Y46*%
G04 Gerber Fmt 4.6, Leading zero omitted, Abs format (unit mm)*
G04 Created by KiCad (PCBNEW (5.1.10-0-10_14)) date 2021-11-02 10:17:00*
%MOMM*%
%LPD*%
G01*
G04 APERTURE LIST*
%ADD10C,0.150000*%
%ADD11C,0.120000*%
G04 APERTURE END LIST*
D10*
X130556190Y-76922380D02*
X130556190Y-77731904D01*
X130603809Y-77827142D01*
X130651428Y-77874761D01*
X130746666Y-77922380D01*
X130937142Y-77922380D01*
X131032380Y-77874761D01*
X131080000Y-77827142D01*
X131127619Y-77731904D01*
X131127619Y-76922380D01*
X131603809Y-77922380D02*
X131603809Y-76922380D01*
X131984761Y-76922380D01*
X132080000Y-76970000D01*
X132127619Y-77017619D01*
X132175238Y-77112857D01*
X132175238Y-77255714D01*
X132127619Y-77350952D01*
X132080000Y-77398571D01*
X131984761Y-77446190D01*
X131603809Y-77446190D01*
X132603809Y-77922380D02*
X132603809Y-76922380D01*
X132841904Y-76922380D01*
X132984761Y-76970000D01*
X133080000Y-77065238D01*
X133127619Y-77160476D01*
X133175238Y-77350952D01*
X133175238Y-77493809D01*
X133127619Y-77684285D01*
X133080000Y-77779523D01*
X132984761Y-77874761D01*
X132841904Y-77922380D01*
X132603809Y-77922380D01*
X133603809Y-77922380D02*
X133603809Y-76922380D01*
X126238095Y-84590000D02*
X126142857Y-84542380D01*
X126000000Y-84542380D01*
X125857142Y-84590000D01*
X125761904Y-84685238D01*
X125714285Y-84780476D01*
X125666666Y-84970952D01*
X125666666Y-85113809D01*
X125714285Y-85304285D01*
X125761904Y-85399523D01*
X125857142Y-85494761D01*
X126000000Y-85542380D01*
X126095238Y-85542380D01*
X126238095Y-85494761D01*
X126285714Y-85447142D01*
X126285714Y-85113809D01*
X126095238Y-85113809D01*
X126714285Y-85542380D02*
X126714285Y-84542380D01*
X127285714Y-85542380D01*
X127285714Y-84542380D01*
X127761904Y-85542380D02*
X127761904Y-84542380D01*
X128000000Y-84542380D01*
X128142857Y-84590000D01*
X128238095Y-84685238D01*
X128285714Y-84780476D01*
X128333333Y-84970952D01*
X128333333Y-85113809D01*
X128285714Y-85304285D01*
X128238095Y-85399523D01*
X128142857Y-85494761D01*
X128000000Y-85542380D01*
X127761904Y-85542380D01*
X130746666Y-84542380D02*
X131080000Y-85542380D01*
X131413333Y-84542380D01*
X132318095Y-85447142D02*
X132270476Y-85494761D01*
X132127619Y-85542380D01*
X132032380Y-85542380D01*
X131889523Y-85494761D01*
X131794285Y-85399523D01*
X131746666Y-85304285D01*
X131699047Y-85113809D01*
X131699047Y-84970952D01*
X131746666Y-84780476D01*
X131794285Y-84685238D01*
X131889523Y-84590000D01*
X132032380Y-84542380D01*
X132127619Y-84542380D01*
X132270476Y-84590000D01*
X132318095Y-84637619D01*
X133318095Y-85447142D02*
X133270476Y-85494761D01*
X133127619Y-85542380D01*
X133032380Y-85542380D01*
X132889523Y-85494761D01*
X132794285Y-85399523D01*
X132746666Y-85304285D01*
X132699047Y-85113809D01*
X132699047Y-84970952D01*
X132746666Y-84780476D01*
X132794285Y-84685238D01*
X132889523Y-84590000D01*
X133032380Y-84542380D01*
X133127619Y-84542380D01*
X133270476Y-84590000D01*
X133318095Y-84637619D01*
X130040000Y-73249404D02*
X130087619Y-73154166D01*
X130087619Y-73011309D01*
X130040000Y-72868452D01*
X129944761Y-72773214D01*
X129849523Y-72725595D01*
X129659047Y-72677976D01*
X129516190Y-72677976D01*
X129325714Y-72725595D01*
X129230476Y-72773214D01*
X129135238Y-72868452D01*
X129087619Y-73011309D01*
X129087619Y-73106547D01*
X129135238Y-73249404D01*
X129182857Y-73297023D01*
X129516190Y-73297023D01*
X129516190Y-73106547D01*
X129087619Y-73725595D02*
X130087619Y-73725595D01*
X129087619Y-74297023D01*
X130087619Y-74297023D01*
X129087619Y-74773214D02*
X130087619Y-74773214D01*
X130087619Y-75011309D01*
X130040000Y-75154166D01*
X129944761Y-75249404D01*
X129849523Y-75297023D01*
X129659047Y-75344642D01*
X129516190Y-75344642D01*
X129325714Y-75297023D01*
X129230476Y-75249404D01*
X129135238Y-75154166D01*
X129087619Y-75011309D01*
X129087619Y-74773214D01*
X127547619Y-72582738D02*
X126547619Y-72916071D01*
X127547619Y-73249404D01*
X126642857Y-74154166D02*
X126595238Y-74106547D01*
X126547619Y-73963690D01*
X126547619Y-73868452D01*
X126595238Y-73725595D01*
X126690476Y-73630357D01*
X126785714Y-73582738D01*
X126976190Y-73535119D01*
X127119047Y-73535119D01*
X127309523Y-73582738D01*
X127404761Y-73630357D01*
X127500000Y-73725595D01*
X127547619Y-73868452D01*
X127547619Y-73963690D01*
X127500000Y-74106547D01*
X127452380Y-74154166D01*
X126642857Y-75154166D02*
X126595238Y-75106547D01*
X126547619Y-74963690D01*
X126547619Y-74868452D01*
X126595238Y-74725595D01*
X126690476Y-74630357D01*
X126785714Y-74582738D01*
X126976190Y-74535119D01*
X127119047Y-74535119D01*
X127309523Y-74582738D01*
X127404761Y-74630357D01*
X127500000Y-74725595D01*
X127547619Y-74868452D01*
X127547619Y-74963690D01*
X127500000Y-75106547D01*
X127452380Y-75154166D01*
X132627619Y-72725595D02*
X131818095Y-72725595D01*
X131722857Y-72773214D01*
X131675238Y-72820833D01*
X131627619Y-72916071D01*
X131627619Y-73106547D01*
X131675238Y-73201785D01*
X131722857Y-73249404D01*
X131818095Y-73297023D01*
X132627619Y-73297023D01*
X131627619Y-73773214D02*
X132627619Y-73773214D01*
X132627619Y-74154166D01*
X132580000Y-74249404D01*
X132532380Y-74297023D01*
X132437142Y-74344642D01*
X132294285Y-74344642D01*
X132199047Y-74297023D01*
X132151428Y-74249404D01*
X132103809Y-74154166D01*
X132103809Y-73773214D01*
X131627619Y-74773214D02*
X132627619Y-74773214D01*
X132627619Y-75011309D01*
X132580000Y-75154166D01*
X132484761Y-75249404D01*
X132389523Y-75297023D01*
X132199047Y-75344642D01*
X132056190Y-75344642D01*
X131865714Y-75297023D01*
X131770476Y-75249404D01*
X131675238Y-75154166D01*
X131627619Y-75011309D01*
X131627619Y-74773214D01*
X131627619Y-75773214D02*
X132627619Y-75773214D01*
D11*
X133410000Y-78680000D02*
X133410000Y-80010000D01*
X132080000Y-78680000D02*
X133410000Y-78680000D01*
X133410000Y-81280000D02*
X133410000Y-83880000D01*
X130810000Y-81280000D02*
X133410000Y-81280000D01*
X130810000Y-78680000D02*
X130810000Y-81280000D01*
X133410000Y-83880000D02*
X125670000Y-83880000D01*
X130810000Y-78680000D02*
X125670000Y-78680000D01*
X125670000Y-78680000D02*
X125670000Y-83880000D01*
M02*
