G04 #@! TF.GenerationSoftware,KiCad,Pcbnew,(5.1.6-0-10_14)*
G04 #@! TF.CreationDate,2020-11-19T10:08:44+01:00*
G04 #@! TF.ProjectId,VGA_breakout,5647415f-6272-4656-916b-6f75742e6b69,rev?*
G04 #@! TF.SameCoordinates,Original*
G04 #@! TF.FileFunction,Legend,Bot*
G04 #@! TF.FilePolarity,Positive*
%FSLAX46Y46*%
G04 Gerber Fmt 4.6, Leading zero omitted, Abs format (unit mm)*
G04 Created by KiCad (PCBNEW (5.1.6-0-10_14)) date 2020-11-19 10:08:44*
%MOMM*%
%LPD*%
G01*
G04 APERTURE LIST*
%ADD10C,0.150000*%
%ADD11C,0.010000*%
%ADD12C,0.120000*%
G04 APERTURE END LIST*
D10*
X137434666Y-101333333D02*
X137434666Y-100666666D01*
X137034666Y-101466666D02*
X138434666Y-101000000D01*
X137034666Y-100533333D01*
X137968000Y-99466666D02*
X137034666Y-99466666D01*
X137968000Y-100066666D02*
X137234666Y-100066666D01*
X137101333Y-100000000D01*
X137034666Y-99866666D01*
X137034666Y-99666666D01*
X137101333Y-99533333D01*
X137168000Y-99466666D01*
X137968000Y-99000000D02*
X137968000Y-98466666D01*
X138434666Y-98800000D02*
X137234666Y-98800000D01*
X137101333Y-98733333D01*
X137034666Y-98600000D01*
X137034666Y-98466666D01*
X137034666Y-98000000D02*
X138434666Y-98000000D01*
X137034666Y-97400000D02*
X137768000Y-97400000D01*
X137901333Y-97466666D01*
X137968000Y-97600000D01*
X137968000Y-97800000D01*
X137901333Y-97933333D01*
X137834666Y-98000000D01*
X137034666Y-96533333D02*
X137101333Y-96666666D01*
X137168000Y-96733333D01*
X137301333Y-96800000D01*
X137701333Y-96800000D01*
X137834666Y-96733333D01*
X137901333Y-96666666D01*
X137968000Y-96533333D01*
X137968000Y-96333333D01*
X137901333Y-96200000D01*
X137834666Y-96133333D01*
X137701333Y-96066666D01*
X137301333Y-96066666D01*
X137168000Y-96133333D01*
X137101333Y-96200000D01*
X137034666Y-96333333D01*
X137034666Y-96533333D01*
X137034666Y-95466666D02*
X137968000Y-95466666D01*
X137701333Y-95466666D02*
X137834666Y-95400000D01*
X137901333Y-95333333D01*
X137968000Y-95200000D01*
X137968000Y-95066666D01*
X137168000Y-94600000D02*
X137101333Y-94533333D01*
X137034666Y-94600000D01*
X137101333Y-94666666D01*
X137168000Y-94600000D01*
X137034666Y-94600000D01*
X137901333Y-94600000D02*
X137834666Y-94533333D01*
X137768000Y-94600000D01*
X137834666Y-94666666D01*
X137901333Y-94600000D01*
X137768000Y-94600000D01*
X137034666Y-92866666D02*
X138434666Y-92866666D01*
X138434666Y-92533333D01*
X138368000Y-92333333D01*
X138234666Y-92200000D01*
X138101333Y-92133333D01*
X137834666Y-92066666D01*
X137634666Y-92066666D01*
X137368000Y-92133333D01*
X137234666Y-92200000D01*
X137101333Y-92333333D01*
X137034666Y-92533333D01*
X137034666Y-92866666D01*
X137034666Y-90866666D02*
X137768000Y-90866666D01*
X137901333Y-90933333D01*
X137968000Y-91066666D01*
X137968000Y-91333333D01*
X137901333Y-91466666D01*
X137101333Y-90866666D02*
X137034666Y-91000000D01*
X137034666Y-91333333D01*
X137101333Y-91466666D01*
X137234666Y-91533333D01*
X137368000Y-91533333D01*
X137501333Y-91466666D01*
X137568000Y-91333333D01*
X137568000Y-91000000D01*
X137634666Y-90866666D01*
X137968000Y-90333333D02*
X137034666Y-90066666D01*
X137701333Y-89800000D01*
X137034666Y-89533333D01*
X137968000Y-89266666D01*
X137034666Y-88733333D02*
X137968000Y-88733333D01*
X138434666Y-88733333D02*
X138368000Y-88800000D01*
X138301333Y-88733333D01*
X138368000Y-88666666D01*
X138434666Y-88733333D01*
X138301333Y-88733333D01*
X137034666Y-87466666D02*
X138434666Y-87466666D01*
X137101333Y-87466666D02*
X137034666Y-87600000D01*
X137034666Y-87866666D01*
X137101333Y-88000000D01*
X137168000Y-88066666D01*
X137301333Y-88133333D01*
X137701333Y-88133333D01*
X137834666Y-88066666D01*
X137901333Y-88000000D01*
X137968000Y-87866666D01*
X137968000Y-87600000D01*
X137901333Y-87466666D01*
X137768000Y-85266666D02*
X137701333Y-85066666D01*
X137634666Y-85000000D01*
X137501333Y-84933333D01*
X137301333Y-84933333D01*
X137168000Y-85000000D01*
X137101333Y-85066666D01*
X137034666Y-85200000D01*
X137034666Y-85733333D01*
X138434666Y-85733333D01*
X138434666Y-85266666D01*
X138368000Y-85133333D01*
X138301333Y-85066666D01*
X138168000Y-85000000D01*
X138034666Y-85000000D01*
X137901333Y-85066666D01*
X137834666Y-85133333D01*
X137768000Y-85266666D01*
X137768000Y-85733333D01*
X137968000Y-83733333D02*
X137034666Y-83733333D01*
X137968000Y-84333333D02*
X137234666Y-84333333D01*
X137101333Y-84266666D01*
X137034666Y-84133333D01*
X137034666Y-83933333D01*
X137101333Y-83800000D01*
X137168000Y-83733333D01*
X137101333Y-82466666D02*
X137034666Y-82600000D01*
X137034666Y-82866666D01*
X137101333Y-83000000D01*
X137168000Y-83066666D01*
X137301333Y-83133333D01*
X137701333Y-83133333D01*
X137834666Y-83066666D01*
X137901333Y-83000000D01*
X137968000Y-82866666D01*
X137968000Y-82600000D01*
X137901333Y-82466666D01*
X137034666Y-81866666D02*
X138434666Y-81866666D01*
X137034666Y-81266666D02*
X137768000Y-81266666D01*
X137901333Y-81333333D01*
X137968000Y-81466666D01*
X137968000Y-81666666D01*
X137901333Y-81800000D01*
X137834666Y-81866666D01*
X137968000Y-80733333D02*
X137034666Y-80466666D01*
X137701333Y-80200000D01*
X137034666Y-79933333D01*
X137968000Y-79666666D01*
X137034666Y-78533333D02*
X137768000Y-78533333D01*
X137901333Y-78600000D01*
X137968000Y-78733333D01*
X137968000Y-79000000D01*
X137901333Y-79133333D01*
X137101333Y-78533333D02*
X137034666Y-78666666D01*
X137034666Y-79000000D01*
X137101333Y-79133333D01*
X137234666Y-79200000D01*
X137368000Y-79200000D01*
X137501333Y-79133333D01*
X137568000Y-79000000D01*
X137568000Y-78666666D01*
X137634666Y-78533333D01*
X137034666Y-77666666D02*
X137101333Y-77800000D01*
X137234666Y-77866666D01*
X138434666Y-77866666D01*
X137034666Y-76533333D02*
X138434666Y-76533333D01*
X137101333Y-76533333D02*
X137034666Y-76666666D01*
X137034666Y-76933333D01*
X137101333Y-77066666D01*
X137168000Y-77133333D01*
X137301333Y-77200000D01*
X137701333Y-77200000D01*
X137834666Y-77133333D01*
X137901333Y-77066666D01*
X137968000Y-76933333D01*
X137968000Y-76666666D01*
X137901333Y-76533333D01*
X140247619Y-101019047D02*
X139247619Y-100685714D01*
X140247619Y-100352380D01*
X140200000Y-99495238D02*
X140247619Y-99590476D01*
X140247619Y-99733333D01*
X140200000Y-99876190D01*
X140104761Y-99971428D01*
X140009523Y-100019047D01*
X139819047Y-100066666D01*
X139676190Y-100066666D01*
X139485714Y-100019047D01*
X139390476Y-99971428D01*
X139295238Y-99876190D01*
X139247619Y-99733333D01*
X139247619Y-99638095D01*
X139295238Y-99495238D01*
X139342857Y-99447619D01*
X139676190Y-99447619D01*
X139676190Y-99638095D01*
X139533333Y-99066666D02*
X139533333Y-98590476D01*
X139247619Y-99161904D02*
X140247619Y-98828571D01*
X139247619Y-98495238D01*
X139771428Y-97066666D02*
X139723809Y-96923809D01*
X139676190Y-96876190D01*
X139580952Y-96828571D01*
X139438095Y-96828571D01*
X139342857Y-96876190D01*
X139295238Y-96923809D01*
X139247619Y-97019047D01*
X139247619Y-97400000D01*
X140247619Y-97400000D01*
X140247619Y-97066666D01*
X140200000Y-96971428D01*
X140152380Y-96923809D01*
X140057142Y-96876190D01*
X139961904Y-96876190D01*
X139866666Y-96923809D01*
X139819047Y-96971428D01*
X139771428Y-97066666D01*
X139771428Y-97400000D01*
X139247619Y-96400000D02*
X139914285Y-96400000D01*
X139723809Y-96400000D02*
X139819047Y-96352380D01*
X139866666Y-96304761D01*
X139914285Y-96209523D01*
X139914285Y-96114285D01*
X139295238Y-95400000D02*
X139247619Y-95495238D01*
X139247619Y-95685714D01*
X139295238Y-95780952D01*
X139390476Y-95828571D01*
X139771428Y-95828571D01*
X139866666Y-95780952D01*
X139914285Y-95685714D01*
X139914285Y-95495238D01*
X139866666Y-95400000D01*
X139771428Y-95352380D01*
X139676190Y-95352380D01*
X139580952Y-95828571D01*
X139247619Y-94495238D02*
X139771428Y-94495238D01*
X139866666Y-94542857D01*
X139914285Y-94638095D01*
X139914285Y-94828571D01*
X139866666Y-94923809D01*
X139295238Y-94495238D02*
X139247619Y-94590476D01*
X139247619Y-94828571D01*
X139295238Y-94923809D01*
X139390476Y-94971428D01*
X139485714Y-94971428D01*
X139580952Y-94923809D01*
X139628571Y-94828571D01*
X139628571Y-94590476D01*
X139676190Y-94495238D01*
X139247619Y-93590476D02*
X140247619Y-93590476D01*
X139295238Y-93590476D02*
X139247619Y-93685714D01*
X139247619Y-93876190D01*
X139295238Y-93971428D01*
X139342857Y-94019047D01*
X139438095Y-94066666D01*
X139723809Y-94066666D01*
X139819047Y-94019047D01*
X139866666Y-93971428D01*
X139914285Y-93876190D01*
X139914285Y-93685714D01*
X139866666Y-93590476D01*
X139247619Y-93114285D02*
X140247619Y-93114285D01*
X139866666Y-93114285D02*
X139914285Y-93019047D01*
X139914285Y-92828571D01*
X139866666Y-92733333D01*
X139819047Y-92685714D01*
X139723809Y-92638095D01*
X139438095Y-92638095D01*
X139342857Y-92685714D01*
X139295238Y-92733333D01*
X139247619Y-92828571D01*
X139247619Y-93019047D01*
X139295238Y-93114285D01*
X139247619Y-92066666D02*
X139295238Y-92161904D01*
X139342857Y-92209523D01*
X139438095Y-92257142D01*
X139723809Y-92257142D01*
X139819047Y-92209523D01*
X139866666Y-92161904D01*
X139914285Y-92066666D01*
X139914285Y-91923809D01*
X139866666Y-91828571D01*
X139819047Y-91780952D01*
X139723809Y-91733333D01*
X139438095Y-91733333D01*
X139342857Y-91780952D01*
X139295238Y-91828571D01*
X139247619Y-91923809D01*
X139247619Y-92066666D01*
X139247619Y-90876190D02*
X139771428Y-90876190D01*
X139866666Y-90923809D01*
X139914285Y-91019047D01*
X139914285Y-91209523D01*
X139866666Y-91304761D01*
X139295238Y-90876190D02*
X139247619Y-90971428D01*
X139247619Y-91209523D01*
X139295238Y-91304761D01*
X139390476Y-91352380D01*
X139485714Y-91352380D01*
X139580952Y-91304761D01*
X139628571Y-91209523D01*
X139628571Y-90971428D01*
X139676190Y-90876190D01*
X139247619Y-90400000D02*
X139914285Y-90400000D01*
X139723809Y-90400000D02*
X139819047Y-90352380D01*
X139866666Y-90304761D01*
X139914285Y-90209523D01*
X139914285Y-90114285D01*
X139247619Y-89352380D02*
X140247619Y-89352380D01*
X139295238Y-89352380D02*
X139247619Y-89447619D01*
X139247619Y-89638095D01*
X139295238Y-89733333D01*
X139342857Y-89780952D01*
X139438095Y-89828571D01*
X139723809Y-89828571D01*
X139819047Y-89780952D01*
X139866666Y-89733333D01*
X139914285Y-89638095D01*
X139914285Y-89447619D01*
X139866666Y-89352380D01*
X139771428Y-87780952D02*
X139723809Y-87638095D01*
X139676190Y-87590476D01*
X139580952Y-87542857D01*
X139438095Y-87542857D01*
X139342857Y-87590476D01*
X139295238Y-87638095D01*
X139247619Y-87733333D01*
X139247619Y-88114285D01*
X140247619Y-88114285D01*
X140247619Y-87780952D01*
X140200000Y-87685714D01*
X140152380Y-87638095D01*
X140057142Y-87590476D01*
X139961904Y-87590476D01*
X139866666Y-87638095D01*
X139819047Y-87685714D01*
X139771428Y-87780952D01*
X139771428Y-88114285D01*
X139247619Y-87114285D02*
X139914285Y-87114285D01*
X139723809Y-87114285D02*
X139819047Y-87066666D01*
X139866666Y-87019047D01*
X139914285Y-86923809D01*
X139914285Y-86828571D01*
X139295238Y-86114285D02*
X139247619Y-86209523D01*
X139247619Y-86400000D01*
X139295238Y-86495238D01*
X139390476Y-86542857D01*
X139771428Y-86542857D01*
X139866666Y-86495238D01*
X139914285Y-86400000D01*
X139914285Y-86209523D01*
X139866666Y-86114285D01*
X139771428Y-86066666D01*
X139676190Y-86066666D01*
X139580952Y-86542857D01*
X139247619Y-85209523D02*
X139771428Y-85209523D01*
X139866666Y-85257142D01*
X139914285Y-85352380D01*
X139914285Y-85542857D01*
X139866666Y-85638095D01*
X139295238Y-85209523D02*
X139247619Y-85304761D01*
X139247619Y-85542857D01*
X139295238Y-85638095D01*
X139390476Y-85685714D01*
X139485714Y-85685714D01*
X139580952Y-85638095D01*
X139628571Y-85542857D01*
X139628571Y-85304761D01*
X139676190Y-85209523D01*
X139247619Y-84733333D02*
X140247619Y-84733333D01*
X139628571Y-84638095D02*
X139247619Y-84352380D01*
X139914285Y-84352380D02*
X139533333Y-84733333D01*
X139247619Y-83780952D02*
X139295238Y-83876190D01*
X139342857Y-83923809D01*
X139438095Y-83971428D01*
X139723809Y-83971428D01*
X139819047Y-83923809D01*
X139866666Y-83876190D01*
X139914285Y-83780952D01*
X139914285Y-83638095D01*
X139866666Y-83542857D01*
X139819047Y-83495238D01*
X139723809Y-83447619D01*
X139438095Y-83447619D01*
X139342857Y-83495238D01*
X139295238Y-83542857D01*
X139247619Y-83638095D01*
X139247619Y-83780952D01*
X139914285Y-82590476D02*
X139247619Y-82590476D01*
X139914285Y-83019047D02*
X139390476Y-83019047D01*
X139295238Y-82971428D01*
X139247619Y-82876190D01*
X139247619Y-82733333D01*
X139295238Y-82638095D01*
X139342857Y-82590476D01*
X139914285Y-82257142D02*
X139914285Y-81876190D01*
X140247619Y-82114285D02*
X139390476Y-82114285D01*
X139295238Y-82066666D01*
X139247619Y-81971428D01*
X139247619Y-81876190D01*
X139771428Y-80447619D02*
X139723809Y-80304761D01*
X139676190Y-80257142D01*
X139580952Y-80209523D01*
X139438095Y-80209523D01*
X139342857Y-80257142D01*
X139295238Y-80304761D01*
X139247619Y-80400000D01*
X139247619Y-80780952D01*
X140247619Y-80780952D01*
X140247619Y-80447619D01*
X140200000Y-80352380D01*
X140152380Y-80304761D01*
X140057142Y-80257142D01*
X139961904Y-80257142D01*
X139866666Y-80304761D01*
X139819047Y-80352380D01*
X139771428Y-80447619D01*
X139771428Y-80780952D01*
X139247619Y-79638095D02*
X139295238Y-79733333D01*
X139342857Y-79780952D01*
X139438095Y-79828571D01*
X139723809Y-79828571D01*
X139819047Y-79780952D01*
X139866666Y-79733333D01*
X139914285Y-79638095D01*
X139914285Y-79495238D01*
X139866666Y-79400000D01*
X139819047Y-79352380D01*
X139723809Y-79304761D01*
X139438095Y-79304761D01*
X139342857Y-79352380D01*
X139295238Y-79400000D01*
X139247619Y-79495238D01*
X139247619Y-79638095D01*
X139247619Y-78447619D02*
X139771428Y-78447619D01*
X139866666Y-78495238D01*
X139914285Y-78590476D01*
X139914285Y-78780952D01*
X139866666Y-78876190D01*
X139295238Y-78447619D02*
X139247619Y-78542857D01*
X139247619Y-78780952D01*
X139295238Y-78876190D01*
X139390476Y-78923809D01*
X139485714Y-78923809D01*
X139580952Y-78876190D01*
X139628571Y-78780952D01*
X139628571Y-78542857D01*
X139676190Y-78447619D01*
X139247619Y-77971428D02*
X139914285Y-77971428D01*
X139723809Y-77971428D02*
X139819047Y-77923809D01*
X139866666Y-77876190D01*
X139914285Y-77780952D01*
X139914285Y-77685714D01*
X139247619Y-76923809D02*
X140247619Y-76923809D01*
X139295238Y-76923809D02*
X139247619Y-77019047D01*
X139247619Y-77209523D01*
X139295238Y-77304761D01*
X139342857Y-77352380D01*
X139438095Y-77400000D01*
X139723809Y-77400000D01*
X139819047Y-77352380D01*
X139866666Y-77304761D01*
X139914285Y-77209523D01*
X139914285Y-77019047D01*
X139866666Y-76923809D01*
D11*
G36*
X135860946Y-91846400D02*
G01*
X135747007Y-91835535D01*
X135639384Y-91803918D01*
X135540385Y-91753015D01*
X135452316Y-91684293D01*
X135377484Y-91599219D01*
X135319616Y-91502232D01*
X135279995Y-91395964D01*
X135261427Y-91288950D01*
X135262566Y-91183300D01*
X135282070Y-91081125D01*
X135318594Y-90984534D01*
X135370795Y-90895638D01*
X135437327Y-90816546D01*
X135516848Y-90749369D01*
X135608013Y-90696217D01*
X135709477Y-90659199D01*
X135819898Y-90640427D01*
X135869794Y-90638489D01*
X135957733Y-90638489D01*
X135957733Y-90586560D01*
X135954889Y-90550253D01*
X135943089Y-90523355D01*
X135919351Y-90496249D01*
X135880969Y-90457867D01*
X133689398Y-90457867D01*
X133427261Y-90457876D01*
X133186759Y-90457908D01*
X132966952Y-90457972D01*
X132766899Y-90458076D01*
X132585656Y-90458227D01*
X132422284Y-90458434D01*
X132275840Y-90458706D01*
X132145383Y-90459050D01*
X132029971Y-90459474D01*
X131928662Y-90459987D01*
X131840516Y-90460597D01*
X131764590Y-90461312D01*
X131699943Y-90462140D01*
X131645633Y-90463089D01*
X131600720Y-90464167D01*
X131564260Y-90465383D01*
X131535313Y-90466745D01*
X131512937Y-90468261D01*
X131496191Y-90469938D01*
X131484132Y-90471786D01*
X131475820Y-90473813D01*
X131470313Y-90476025D01*
X131468463Y-90477108D01*
X131461451Y-90481271D01*
X131455004Y-90484805D01*
X131449100Y-90488635D01*
X131443714Y-90493682D01*
X131438822Y-90500871D01*
X131434402Y-90511123D01*
X131430428Y-90525364D01*
X131426879Y-90544514D01*
X131423730Y-90569499D01*
X131420958Y-90601240D01*
X131418539Y-90640662D01*
X131416449Y-90688686D01*
X131414665Y-90746237D01*
X131413163Y-90814237D01*
X131411920Y-90893610D01*
X131410911Y-90985279D01*
X131410115Y-91090166D01*
X131409506Y-91209196D01*
X131409061Y-91343290D01*
X131408757Y-91493373D01*
X131408570Y-91660367D01*
X131408476Y-91845196D01*
X131408452Y-92048783D01*
X131408475Y-92272050D01*
X131408520Y-92515922D01*
X131408563Y-92781321D01*
X131408568Y-92819704D01*
X131408611Y-93086682D01*
X131408682Y-93332002D01*
X131408787Y-93556583D01*
X131408934Y-93761345D01*
X131409131Y-93947206D01*
X131409384Y-94115088D01*
X131409700Y-94265908D01*
X131410087Y-94400587D01*
X131410553Y-94520044D01*
X131411103Y-94625199D01*
X131411747Y-94716971D01*
X131412489Y-94796279D01*
X131413339Y-94864043D01*
X131414303Y-94921182D01*
X131415389Y-94968617D01*
X131416603Y-95007266D01*
X131417953Y-95038049D01*
X131419445Y-95061885D01*
X131421089Y-95079694D01*
X131422889Y-95092395D01*
X131424855Y-95100908D01*
X131426523Y-95105266D01*
X131430094Y-95113728D01*
X131432730Y-95121497D01*
X131435366Y-95128602D01*
X131438938Y-95135073D01*
X131444379Y-95140939D01*
X131452625Y-95146229D01*
X131464610Y-95150974D01*
X131481269Y-95155202D01*
X131503537Y-95158943D01*
X131532348Y-95162227D01*
X131568637Y-95165083D01*
X131613339Y-95167540D01*
X131667389Y-95169629D01*
X131731721Y-95171378D01*
X131807270Y-95172817D01*
X131894970Y-95173976D01*
X131995757Y-95174883D01*
X132110566Y-95175569D01*
X132240330Y-95176063D01*
X132385985Y-95176395D01*
X132548465Y-95176593D01*
X132728705Y-95176687D01*
X132927640Y-95176708D01*
X133146204Y-95176685D01*
X133385332Y-95176646D01*
X133645960Y-95176622D01*
X133688111Y-95176622D01*
X133951008Y-95176636D01*
X134192268Y-95176661D01*
X134412835Y-95176671D01*
X134613648Y-95176642D01*
X134795651Y-95176548D01*
X134959784Y-95176362D01*
X135106989Y-95176059D01*
X135238208Y-95175614D01*
X135348133Y-95175034D01*
X135348133Y-94872197D01*
X135290289Y-94832407D01*
X135274521Y-94821236D01*
X135260559Y-94811166D01*
X135247216Y-94802138D01*
X135233307Y-94794097D01*
X135217644Y-94786986D01*
X135199042Y-94780747D01*
X135176314Y-94775325D01*
X135148273Y-94770662D01*
X135113733Y-94766701D01*
X135071508Y-94763385D01*
X135020411Y-94760659D01*
X134959256Y-94758464D01*
X134886856Y-94756745D01*
X134802025Y-94755444D01*
X134703578Y-94754505D01*
X134590326Y-94753870D01*
X134461084Y-94753484D01*
X134314666Y-94753288D01*
X134149884Y-94753227D01*
X133965553Y-94753243D01*
X133760487Y-94753280D01*
X133637867Y-94753289D01*
X133420918Y-94753265D01*
X133225358Y-94753231D01*
X133050001Y-94753243D01*
X132893659Y-94753358D01*
X132755143Y-94753630D01*
X132633266Y-94754118D01*
X132526840Y-94754876D01*
X132434678Y-94755962D01*
X132355591Y-94757431D01*
X132288392Y-94759340D01*
X132231893Y-94761744D01*
X132184907Y-94764701D01*
X132146245Y-94768266D01*
X132114720Y-94772495D01*
X132089145Y-94777446D01*
X132068330Y-94783173D01*
X132051089Y-94789733D01*
X132036235Y-94797183D01*
X132022578Y-94805579D01*
X132008931Y-94814976D01*
X131994107Y-94825432D01*
X131985217Y-94831523D01*
X131927600Y-94870296D01*
X131927600Y-94338732D01*
X131927635Y-94215483D01*
X131927785Y-94112987D01*
X131928122Y-94029420D01*
X131928714Y-93962956D01*
X131929633Y-93911771D01*
X131930949Y-93874041D01*
X131932731Y-93847940D01*
X131935049Y-93831644D01*
X131937974Y-93823328D01*
X131941576Y-93821168D01*
X131945925Y-93823339D01*
X131947355Y-93824535D01*
X131984427Y-93849685D01*
X132037228Y-93875583D01*
X132099230Y-93899192D01*
X132125643Y-93907461D01*
X132143584Y-93912078D01*
X132164645Y-93915979D01*
X132190911Y-93919248D01*
X132224468Y-93921966D01*
X132267401Y-93924215D01*
X132321796Y-93926077D01*
X132389738Y-93927636D01*
X132473312Y-93928972D01*
X132574605Y-93930169D01*
X132695700Y-93931308D01*
X132740400Y-93931685D01*
X132865551Y-93932702D01*
X132969918Y-93933460D01*
X133055293Y-93933903D01*
X133123467Y-93933970D01*
X133176235Y-93933605D01*
X133215386Y-93932748D01*
X133242715Y-93931341D01*
X133260014Y-93929325D01*
X133269074Y-93926643D01*
X133271688Y-93923236D01*
X133269649Y-93919044D01*
X133265333Y-93914571D01*
X133252398Y-93904216D01*
X133223324Y-93882158D01*
X133180241Y-93849957D01*
X133125282Y-93809174D01*
X133060577Y-93761370D01*
X132988258Y-93708105D01*
X132910456Y-93650940D01*
X132829302Y-93591437D01*
X132746928Y-93531155D01*
X132665464Y-93471655D01*
X132587043Y-93414498D01*
X132513796Y-93361245D01*
X132447853Y-93313457D01*
X132391346Y-93272693D01*
X132346407Y-93240516D01*
X132315166Y-93218485D01*
X132308534Y-93213917D01*
X132271631Y-93190996D01*
X132223641Y-93164188D01*
X132174103Y-93138789D01*
X132167423Y-93135568D01*
X132119228Y-93113890D01*
X132081666Y-93101304D01*
X132045840Y-93095574D01*
X132003800Y-93094456D01*
X131927600Y-93095090D01*
X131927600Y-91940651D01*
X132021331Y-92031815D01*
X132071225Y-92078612D01*
X132127705Y-92128899D01*
X132181974Y-92174944D01*
X132207327Y-92195369D01*
X132246872Y-92225807D01*
X132300084Y-92265862D01*
X132365333Y-92314361D01*
X132440989Y-92370135D01*
X132525423Y-92432011D01*
X132617006Y-92498819D01*
X132714108Y-92569387D01*
X132815099Y-92642545D01*
X132918350Y-92717121D01*
X133022232Y-92791944D01*
X133125115Y-92865843D01*
X133225369Y-92937646D01*
X133321364Y-93006184D01*
X133411473Y-93070284D01*
X133494064Y-93128775D01*
X133567508Y-93180486D01*
X133630176Y-93224247D01*
X133680439Y-93258885D01*
X133716666Y-93283230D01*
X133737229Y-93296111D01*
X133741332Y-93297869D01*
X133752658Y-93289910D01*
X133779838Y-93269115D01*
X133821171Y-93236847D01*
X133874956Y-93194470D01*
X133939494Y-93143347D01*
X134013082Y-93084841D01*
X134094022Y-93020314D01*
X134180612Y-92951131D01*
X134271152Y-92878653D01*
X134363940Y-92804246D01*
X134438298Y-92744517D01*
X134438298Y-91733511D01*
X134425341Y-91727602D01*
X134403092Y-91713272D01*
X134401609Y-91712225D01*
X134371456Y-91693438D01*
X134334625Y-91673791D01*
X134326489Y-91669892D01*
X134318060Y-91666356D01*
X134307941Y-91663230D01*
X134294740Y-91660486D01*
X134277062Y-91658092D01*
X134253516Y-91656019D01*
X134222707Y-91654235D01*
X134183243Y-91652712D01*
X134133731Y-91651419D01*
X134072777Y-91650326D01*
X133998989Y-91649403D01*
X133910972Y-91648619D01*
X133807335Y-91647945D01*
X133686684Y-91647350D01*
X133547626Y-91646805D01*
X133388768Y-91646279D01*
X133209911Y-91645745D01*
X133024793Y-91645206D01*
X132860855Y-91644772D01*
X132716697Y-91644509D01*
X132590921Y-91644484D01*
X132482129Y-91644765D01*
X132388923Y-91645419D01*
X132309903Y-91646514D01*
X132243672Y-91648118D01*
X132188830Y-91650297D01*
X132143979Y-91653119D01*
X132107722Y-91656651D01*
X132078659Y-91660961D01*
X132055391Y-91666117D01*
X132036521Y-91672185D01*
X132020649Y-91679233D01*
X132006378Y-91687329D01*
X131992309Y-91696540D01*
X131979842Y-91705040D01*
X131953548Y-91722176D01*
X131935963Y-91732322D01*
X131932743Y-91733511D01*
X131931666Y-91722604D01*
X131930665Y-91691411D01*
X131929765Y-91642223D01*
X131928990Y-91577333D01*
X131928363Y-91499030D01*
X131927909Y-91409607D01*
X131927651Y-91311356D01*
X131927600Y-91242445D01*
X131927820Y-91137452D01*
X131928452Y-91040610D01*
X131929451Y-90954107D01*
X131930773Y-90880132D01*
X131932374Y-90820874D01*
X131934209Y-90778520D01*
X131936235Y-90755260D01*
X131937507Y-90751378D01*
X131952409Y-90759076D01*
X131960440Y-90767074D01*
X131977566Y-90780246D01*
X132007817Y-90797485D01*
X132032378Y-90809407D01*
X132091289Y-90836045D01*
X133268155Y-90839120D01*
X134445022Y-90842195D01*
X134445022Y-91287853D01*
X134444858Y-91385670D01*
X134444389Y-91476064D01*
X134443653Y-91556630D01*
X134442684Y-91624962D01*
X134441520Y-91678656D01*
X134440197Y-91715305D01*
X134438751Y-91732504D01*
X134438298Y-91733511D01*
X134438298Y-92744517D01*
X134457278Y-92729270D01*
X134549463Y-92655090D01*
X134638796Y-92583069D01*
X134723576Y-92514569D01*
X134802102Y-92450955D01*
X134872674Y-92393588D01*
X134933591Y-92343833D01*
X134983153Y-92303052D01*
X135003822Y-92285888D01*
X135104484Y-92199596D01*
X135187741Y-92122997D01*
X135255562Y-92054183D01*
X135309911Y-91991248D01*
X135317278Y-91981867D01*
X135347883Y-91942356D01*
X135348133Y-93074116D01*
X135300156Y-93068827D01*
X135242812Y-93072130D01*
X135174537Y-93093661D01*
X135094788Y-93133635D01*
X135022505Y-93178943D01*
X134999860Y-93195161D01*
X134962304Y-93223214D01*
X134911979Y-93261430D01*
X134851027Y-93308137D01*
X134781589Y-93361661D01*
X134705806Y-93420331D01*
X134625820Y-93482475D01*
X134543772Y-93546421D01*
X134461804Y-93610495D01*
X134382057Y-93673027D01*
X134306673Y-93732343D01*
X134237793Y-93786771D01*
X134177558Y-93834639D01*
X134128111Y-93874275D01*
X134091592Y-93904006D01*
X134070142Y-93922161D01*
X134066844Y-93925220D01*
X134074851Y-93928079D01*
X134105145Y-93930293D01*
X134157444Y-93931857D01*
X134231469Y-93932767D01*
X134326937Y-93933020D01*
X134443566Y-93932613D01*
X134563555Y-93931704D01*
X134695667Y-93930382D01*
X134807406Y-93928857D01*
X134900975Y-93926881D01*
X134978581Y-93924206D01*
X135042426Y-93920582D01*
X135094717Y-93915761D01*
X135137656Y-93909494D01*
X135173449Y-93901532D01*
X135204300Y-93891627D01*
X135232414Y-93879531D01*
X135259995Y-93864993D01*
X135285034Y-93850311D01*
X135348133Y-93812314D01*
X135348133Y-94872197D01*
X135348133Y-95175034D01*
X135354383Y-95175001D01*
X135456456Y-95174195D01*
X135545367Y-95173170D01*
X135622059Y-95171900D01*
X135687473Y-95170360D01*
X135742551Y-95168524D01*
X135788235Y-95166367D01*
X135825466Y-95163863D01*
X135855187Y-95160987D01*
X135878338Y-95157713D01*
X135895861Y-95154015D01*
X135908699Y-95149869D01*
X135917792Y-95145247D01*
X135924082Y-95140126D01*
X135928512Y-95134478D01*
X135932022Y-95128279D01*
X135935555Y-95121504D01*
X135939124Y-95115508D01*
X135941700Y-95110275D01*
X135944028Y-95102099D01*
X135946122Y-95089886D01*
X135947993Y-95072541D01*
X135949653Y-95048969D01*
X135951116Y-95018077D01*
X135952392Y-94978768D01*
X135953496Y-94929950D01*
X135954439Y-94870527D01*
X135955233Y-94799404D01*
X135955891Y-94715488D01*
X135956425Y-94617683D01*
X135956847Y-94504894D01*
X135957171Y-94376029D01*
X135957408Y-94229991D01*
X135957570Y-94065686D01*
X135957670Y-93882020D01*
X135957720Y-93677897D01*
X135957733Y-93466753D01*
X135957733Y-91846400D01*
X135860946Y-91846400D01*
G37*
X135860946Y-91846400D02*
X135747007Y-91835535D01*
X135639384Y-91803918D01*
X135540385Y-91753015D01*
X135452316Y-91684293D01*
X135377484Y-91599219D01*
X135319616Y-91502232D01*
X135279995Y-91395964D01*
X135261427Y-91288950D01*
X135262566Y-91183300D01*
X135282070Y-91081125D01*
X135318594Y-90984534D01*
X135370795Y-90895638D01*
X135437327Y-90816546D01*
X135516848Y-90749369D01*
X135608013Y-90696217D01*
X135709477Y-90659199D01*
X135819898Y-90640427D01*
X135869794Y-90638489D01*
X135957733Y-90638489D01*
X135957733Y-90586560D01*
X135954889Y-90550253D01*
X135943089Y-90523355D01*
X135919351Y-90496249D01*
X135880969Y-90457867D01*
X133689398Y-90457867D01*
X133427261Y-90457876D01*
X133186759Y-90457908D01*
X132966952Y-90457972D01*
X132766899Y-90458076D01*
X132585656Y-90458227D01*
X132422284Y-90458434D01*
X132275840Y-90458706D01*
X132145383Y-90459050D01*
X132029971Y-90459474D01*
X131928662Y-90459987D01*
X131840516Y-90460597D01*
X131764590Y-90461312D01*
X131699943Y-90462140D01*
X131645633Y-90463089D01*
X131600720Y-90464167D01*
X131564260Y-90465383D01*
X131535313Y-90466745D01*
X131512937Y-90468261D01*
X131496191Y-90469938D01*
X131484132Y-90471786D01*
X131475820Y-90473813D01*
X131470313Y-90476025D01*
X131468463Y-90477108D01*
X131461451Y-90481271D01*
X131455004Y-90484805D01*
X131449100Y-90488635D01*
X131443714Y-90493682D01*
X131438822Y-90500871D01*
X131434402Y-90511123D01*
X131430428Y-90525364D01*
X131426879Y-90544514D01*
X131423730Y-90569499D01*
X131420958Y-90601240D01*
X131418539Y-90640662D01*
X131416449Y-90688686D01*
X131414665Y-90746237D01*
X131413163Y-90814237D01*
X131411920Y-90893610D01*
X131410911Y-90985279D01*
X131410115Y-91090166D01*
X131409506Y-91209196D01*
X131409061Y-91343290D01*
X131408757Y-91493373D01*
X131408570Y-91660367D01*
X131408476Y-91845196D01*
X131408452Y-92048783D01*
X131408475Y-92272050D01*
X131408520Y-92515922D01*
X131408563Y-92781321D01*
X131408568Y-92819704D01*
X131408611Y-93086682D01*
X131408682Y-93332002D01*
X131408787Y-93556583D01*
X131408934Y-93761345D01*
X131409131Y-93947206D01*
X131409384Y-94115088D01*
X131409700Y-94265908D01*
X131410087Y-94400587D01*
X131410553Y-94520044D01*
X131411103Y-94625199D01*
X131411747Y-94716971D01*
X131412489Y-94796279D01*
X131413339Y-94864043D01*
X131414303Y-94921182D01*
X131415389Y-94968617D01*
X131416603Y-95007266D01*
X131417953Y-95038049D01*
X131419445Y-95061885D01*
X131421089Y-95079694D01*
X131422889Y-95092395D01*
X131424855Y-95100908D01*
X131426523Y-95105266D01*
X131430094Y-95113728D01*
X131432730Y-95121497D01*
X131435366Y-95128602D01*
X131438938Y-95135073D01*
X131444379Y-95140939D01*
X131452625Y-95146229D01*
X131464610Y-95150974D01*
X131481269Y-95155202D01*
X131503537Y-95158943D01*
X131532348Y-95162227D01*
X131568637Y-95165083D01*
X131613339Y-95167540D01*
X131667389Y-95169629D01*
X131731721Y-95171378D01*
X131807270Y-95172817D01*
X131894970Y-95173976D01*
X131995757Y-95174883D01*
X132110566Y-95175569D01*
X132240330Y-95176063D01*
X132385985Y-95176395D01*
X132548465Y-95176593D01*
X132728705Y-95176687D01*
X132927640Y-95176708D01*
X133146204Y-95176685D01*
X133385332Y-95176646D01*
X133645960Y-95176622D01*
X133688111Y-95176622D01*
X133951008Y-95176636D01*
X134192268Y-95176661D01*
X134412835Y-95176671D01*
X134613648Y-95176642D01*
X134795651Y-95176548D01*
X134959784Y-95176362D01*
X135106989Y-95176059D01*
X135238208Y-95175614D01*
X135348133Y-95175034D01*
X135348133Y-94872197D01*
X135290289Y-94832407D01*
X135274521Y-94821236D01*
X135260559Y-94811166D01*
X135247216Y-94802138D01*
X135233307Y-94794097D01*
X135217644Y-94786986D01*
X135199042Y-94780747D01*
X135176314Y-94775325D01*
X135148273Y-94770662D01*
X135113733Y-94766701D01*
X135071508Y-94763385D01*
X135020411Y-94760659D01*
X134959256Y-94758464D01*
X134886856Y-94756745D01*
X134802025Y-94755444D01*
X134703578Y-94754505D01*
X134590326Y-94753870D01*
X134461084Y-94753484D01*
X134314666Y-94753288D01*
X134149884Y-94753227D01*
X133965553Y-94753243D01*
X133760487Y-94753280D01*
X133637867Y-94753289D01*
X133420918Y-94753265D01*
X133225358Y-94753231D01*
X133050001Y-94753243D01*
X132893659Y-94753358D01*
X132755143Y-94753630D01*
X132633266Y-94754118D01*
X132526840Y-94754876D01*
X132434678Y-94755962D01*
X132355591Y-94757431D01*
X132288392Y-94759340D01*
X132231893Y-94761744D01*
X132184907Y-94764701D01*
X132146245Y-94768266D01*
X132114720Y-94772495D01*
X132089145Y-94777446D01*
X132068330Y-94783173D01*
X132051089Y-94789733D01*
X132036235Y-94797183D01*
X132022578Y-94805579D01*
X132008931Y-94814976D01*
X131994107Y-94825432D01*
X131985217Y-94831523D01*
X131927600Y-94870296D01*
X131927600Y-94338732D01*
X131927635Y-94215483D01*
X131927785Y-94112987D01*
X131928122Y-94029420D01*
X131928714Y-93962956D01*
X131929633Y-93911771D01*
X131930949Y-93874041D01*
X131932731Y-93847940D01*
X131935049Y-93831644D01*
X131937974Y-93823328D01*
X131941576Y-93821168D01*
X131945925Y-93823339D01*
X131947355Y-93824535D01*
X131984427Y-93849685D01*
X132037228Y-93875583D01*
X132099230Y-93899192D01*
X132125643Y-93907461D01*
X132143584Y-93912078D01*
X132164645Y-93915979D01*
X132190911Y-93919248D01*
X132224468Y-93921966D01*
X132267401Y-93924215D01*
X132321796Y-93926077D01*
X132389738Y-93927636D01*
X132473312Y-93928972D01*
X132574605Y-93930169D01*
X132695700Y-93931308D01*
X132740400Y-93931685D01*
X132865551Y-93932702D01*
X132969918Y-93933460D01*
X133055293Y-93933903D01*
X133123467Y-93933970D01*
X133176235Y-93933605D01*
X133215386Y-93932748D01*
X133242715Y-93931341D01*
X133260014Y-93929325D01*
X133269074Y-93926643D01*
X133271688Y-93923236D01*
X133269649Y-93919044D01*
X133265333Y-93914571D01*
X133252398Y-93904216D01*
X133223324Y-93882158D01*
X133180241Y-93849957D01*
X133125282Y-93809174D01*
X133060577Y-93761370D01*
X132988258Y-93708105D01*
X132910456Y-93650940D01*
X132829302Y-93591437D01*
X132746928Y-93531155D01*
X132665464Y-93471655D01*
X132587043Y-93414498D01*
X132513796Y-93361245D01*
X132447853Y-93313457D01*
X132391346Y-93272693D01*
X132346407Y-93240516D01*
X132315166Y-93218485D01*
X132308534Y-93213917D01*
X132271631Y-93190996D01*
X132223641Y-93164188D01*
X132174103Y-93138789D01*
X132167423Y-93135568D01*
X132119228Y-93113890D01*
X132081666Y-93101304D01*
X132045840Y-93095574D01*
X132003800Y-93094456D01*
X131927600Y-93095090D01*
X131927600Y-91940651D01*
X132021331Y-92031815D01*
X132071225Y-92078612D01*
X132127705Y-92128899D01*
X132181974Y-92174944D01*
X132207327Y-92195369D01*
X132246872Y-92225807D01*
X132300084Y-92265862D01*
X132365333Y-92314361D01*
X132440989Y-92370135D01*
X132525423Y-92432011D01*
X132617006Y-92498819D01*
X132714108Y-92569387D01*
X132815099Y-92642545D01*
X132918350Y-92717121D01*
X133022232Y-92791944D01*
X133125115Y-92865843D01*
X133225369Y-92937646D01*
X133321364Y-93006184D01*
X133411473Y-93070284D01*
X133494064Y-93128775D01*
X133567508Y-93180486D01*
X133630176Y-93224247D01*
X133680439Y-93258885D01*
X133716666Y-93283230D01*
X133737229Y-93296111D01*
X133741332Y-93297869D01*
X133752658Y-93289910D01*
X133779838Y-93269115D01*
X133821171Y-93236847D01*
X133874956Y-93194470D01*
X133939494Y-93143347D01*
X134013082Y-93084841D01*
X134094022Y-93020314D01*
X134180612Y-92951131D01*
X134271152Y-92878653D01*
X134363940Y-92804246D01*
X134438298Y-92744517D01*
X134438298Y-91733511D01*
X134425341Y-91727602D01*
X134403092Y-91713272D01*
X134401609Y-91712225D01*
X134371456Y-91693438D01*
X134334625Y-91673791D01*
X134326489Y-91669892D01*
X134318060Y-91666356D01*
X134307941Y-91663230D01*
X134294740Y-91660486D01*
X134277062Y-91658092D01*
X134253516Y-91656019D01*
X134222707Y-91654235D01*
X134183243Y-91652712D01*
X134133731Y-91651419D01*
X134072777Y-91650326D01*
X133998989Y-91649403D01*
X133910972Y-91648619D01*
X133807335Y-91647945D01*
X133686684Y-91647350D01*
X133547626Y-91646805D01*
X133388768Y-91646279D01*
X133209911Y-91645745D01*
X133024793Y-91645206D01*
X132860855Y-91644772D01*
X132716697Y-91644509D01*
X132590921Y-91644484D01*
X132482129Y-91644765D01*
X132388923Y-91645419D01*
X132309903Y-91646514D01*
X132243672Y-91648118D01*
X132188830Y-91650297D01*
X132143979Y-91653119D01*
X132107722Y-91656651D01*
X132078659Y-91660961D01*
X132055391Y-91666117D01*
X132036521Y-91672185D01*
X132020649Y-91679233D01*
X132006378Y-91687329D01*
X131992309Y-91696540D01*
X131979842Y-91705040D01*
X131953548Y-91722176D01*
X131935963Y-91732322D01*
X131932743Y-91733511D01*
X131931666Y-91722604D01*
X131930665Y-91691411D01*
X131929765Y-91642223D01*
X131928990Y-91577333D01*
X131928363Y-91499030D01*
X131927909Y-91409607D01*
X131927651Y-91311356D01*
X131927600Y-91242445D01*
X131927820Y-91137452D01*
X131928452Y-91040610D01*
X131929451Y-90954107D01*
X131930773Y-90880132D01*
X131932374Y-90820874D01*
X131934209Y-90778520D01*
X131936235Y-90755260D01*
X131937507Y-90751378D01*
X131952409Y-90759076D01*
X131960440Y-90767074D01*
X131977566Y-90780246D01*
X132007817Y-90797485D01*
X132032378Y-90809407D01*
X132091289Y-90836045D01*
X133268155Y-90839120D01*
X134445022Y-90842195D01*
X134445022Y-91287853D01*
X134444858Y-91385670D01*
X134444389Y-91476064D01*
X134443653Y-91556630D01*
X134442684Y-91624962D01*
X134441520Y-91678656D01*
X134440197Y-91715305D01*
X134438751Y-91732504D01*
X134438298Y-91733511D01*
X134438298Y-92744517D01*
X134457278Y-92729270D01*
X134549463Y-92655090D01*
X134638796Y-92583069D01*
X134723576Y-92514569D01*
X134802102Y-92450955D01*
X134872674Y-92393588D01*
X134933591Y-92343833D01*
X134983153Y-92303052D01*
X135003822Y-92285888D01*
X135104484Y-92199596D01*
X135187741Y-92122997D01*
X135255562Y-92054183D01*
X135309911Y-91991248D01*
X135317278Y-91981867D01*
X135347883Y-91942356D01*
X135348133Y-93074116D01*
X135300156Y-93068827D01*
X135242812Y-93072130D01*
X135174537Y-93093661D01*
X135094788Y-93133635D01*
X135022505Y-93178943D01*
X134999860Y-93195161D01*
X134962304Y-93223214D01*
X134911979Y-93261430D01*
X134851027Y-93308137D01*
X134781589Y-93361661D01*
X134705806Y-93420331D01*
X134625820Y-93482475D01*
X134543772Y-93546421D01*
X134461804Y-93610495D01*
X134382057Y-93673027D01*
X134306673Y-93732343D01*
X134237793Y-93786771D01*
X134177558Y-93834639D01*
X134128111Y-93874275D01*
X134091592Y-93904006D01*
X134070142Y-93922161D01*
X134066844Y-93925220D01*
X134074851Y-93928079D01*
X134105145Y-93930293D01*
X134157444Y-93931857D01*
X134231469Y-93932767D01*
X134326937Y-93933020D01*
X134443566Y-93932613D01*
X134563555Y-93931704D01*
X134695667Y-93930382D01*
X134807406Y-93928857D01*
X134900975Y-93926881D01*
X134978581Y-93924206D01*
X135042426Y-93920582D01*
X135094717Y-93915761D01*
X135137656Y-93909494D01*
X135173449Y-93901532D01*
X135204300Y-93891627D01*
X135232414Y-93879531D01*
X135259995Y-93864993D01*
X135285034Y-93850311D01*
X135348133Y-93812314D01*
X135348133Y-94872197D01*
X135348133Y-95175034D01*
X135354383Y-95175001D01*
X135456456Y-95174195D01*
X135545367Y-95173170D01*
X135622059Y-95171900D01*
X135687473Y-95170360D01*
X135742551Y-95168524D01*
X135788235Y-95166367D01*
X135825466Y-95163863D01*
X135855187Y-95160987D01*
X135878338Y-95157713D01*
X135895861Y-95154015D01*
X135908699Y-95149869D01*
X135917792Y-95145247D01*
X135924082Y-95140126D01*
X135928512Y-95134478D01*
X135932022Y-95128279D01*
X135935555Y-95121504D01*
X135939124Y-95115508D01*
X135941700Y-95110275D01*
X135944028Y-95102099D01*
X135946122Y-95089886D01*
X135947993Y-95072541D01*
X135949653Y-95048969D01*
X135951116Y-95018077D01*
X135952392Y-94978768D01*
X135953496Y-94929950D01*
X135954439Y-94870527D01*
X135955233Y-94799404D01*
X135955891Y-94715488D01*
X135956425Y-94617683D01*
X135956847Y-94504894D01*
X135957171Y-94376029D01*
X135957408Y-94229991D01*
X135957570Y-94065686D01*
X135957670Y-93882020D01*
X135957720Y-93677897D01*
X135957733Y-93466753D01*
X135957733Y-91846400D01*
X135860946Y-91846400D01*
G36*
X135400929Y-88571571D02*
G01*
X135379755Y-88411430D01*
X135339615Y-88247490D01*
X135280111Y-88077687D01*
X135200846Y-87899957D01*
X135195301Y-87888690D01*
X135167275Y-87830995D01*
X135143198Y-87779448D01*
X135124751Y-87737809D01*
X135113614Y-87709838D01*
X135111067Y-87700267D01*
X135106059Y-87681050D01*
X135101853Y-87676439D01*
X135091420Y-87681542D01*
X135065132Y-87697582D01*
X135025743Y-87722712D01*
X134976009Y-87755086D01*
X134918685Y-87792857D01*
X134856524Y-87834178D01*
X134792282Y-87877202D01*
X134728715Y-87920083D01*
X134668575Y-87960974D01*
X134614620Y-87998029D01*
X134569603Y-88029400D01*
X134536279Y-88053241D01*
X134517403Y-88067706D01*
X134515213Y-88069691D01*
X134519862Y-88079809D01*
X134537038Y-88102150D01*
X134563560Y-88132720D01*
X134578036Y-88148464D01*
X134653318Y-88244953D01*
X134708759Y-88351664D01*
X134743859Y-88467168D01*
X134758120Y-88590038D01*
X134756949Y-88659439D01*
X134739788Y-88780577D01*
X134703906Y-88889795D01*
X134649041Y-88987418D01*
X134574930Y-89073772D01*
X134481312Y-89149185D01*
X134367924Y-89213982D01*
X134281333Y-89251399D01*
X134145634Y-89295252D01*
X133998150Y-89327572D01*
X133842686Y-89348443D01*
X133683044Y-89357949D01*
X133523027Y-89356173D01*
X133366439Y-89343197D01*
X133217082Y-89319106D01*
X133078760Y-89283982D01*
X132955276Y-89237908D01*
X132921022Y-89221627D01*
X132806936Y-89153380D01*
X132710443Y-89072921D01*
X132632330Y-88981430D01*
X132573383Y-88880089D01*
X132534388Y-88770080D01*
X132516132Y-88652585D01*
X132514789Y-88611117D01*
X132525710Y-88489559D01*
X132558526Y-88369122D01*
X132612561Y-88251334D01*
X132687135Y-88137723D01*
X132765461Y-88046315D01*
X132809992Y-87999785D01*
X132512729Y-87818517D01*
X132438567Y-87773420D01*
X132370354Y-87732181D01*
X132310541Y-87696265D01*
X132261580Y-87667134D01*
X132225921Y-87646250D01*
X132206016Y-87635076D01*
X132202921Y-87633625D01*
X132193282Y-87641854D01*
X132176001Y-87667433D01*
X132152717Y-87707127D01*
X132125066Y-87757703D01*
X132094685Y-87815926D01*
X132063210Y-87878563D01*
X132032278Y-87942379D01*
X132003527Y-88004140D01*
X131978592Y-88060612D01*
X131959111Y-88108562D01*
X131950682Y-88132014D01*
X131912867Y-88265779D01*
X131887864Y-88403673D01*
X131874860Y-88551378D01*
X131872532Y-88678167D01*
X131873627Y-88746122D01*
X131875725Y-88811723D01*
X131878566Y-88869153D01*
X131881894Y-88912597D01*
X131883578Y-88926702D01*
X131912413Y-89065716D01*
X131957532Y-89207243D01*
X132016250Y-89344725D01*
X132085880Y-89471606D01*
X132138559Y-89549111D01*
X132246761Y-89676519D01*
X132373329Y-89794822D01*
X132515134Y-89901828D01*
X132669049Y-89995348D01*
X132831947Y-90073190D01*
X132949244Y-90117044D01*
X133132872Y-90167292D01*
X133327419Y-90200791D01*
X133528675Y-90217551D01*
X133732432Y-90217584D01*
X133934479Y-90200899D01*
X134130608Y-90167507D01*
X134316609Y-90117420D01*
X134328197Y-90113603D01*
X134490250Y-90050719D01*
X134638168Y-89973972D01*
X134776135Y-89880758D01*
X134908339Y-89768473D01*
X134953601Y-89724608D01*
X135077543Y-89588466D01*
X135180085Y-89448509D01*
X135262344Y-89302589D01*
X135325436Y-89148558D01*
X135370477Y-88984268D01*
X135387967Y-88888711D01*
X135403534Y-88729977D01*
X135400929Y-88571571D01*
G37*
X135400929Y-88571571D02*
X135379755Y-88411430D01*
X135339615Y-88247490D01*
X135280111Y-88077687D01*
X135200846Y-87899957D01*
X135195301Y-87888690D01*
X135167275Y-87830995D01*
X135143198Y-87779448D01*
X135124751Y-87737809D01*
X135113614Y-87709838D01*
X135111067Y-87700267D01*
X135106059Y-87681050D01*
X135101853Y-87676439D01*
X135091420Y-87681542D01*
X135065132Y-87697582D01*
X135025743Y-87722712D01*
X134976009Y-87755086D01*
X134918685Y-87792857D01*
X134856524Y-87834178D01*
X134792282Y-87877202D01*
X134728715Y-87920083D01*
X134668575Y-87960974D01*
X134614620Y-87998029D01*
X134569603Y-88029400D01*
X134536279Y-88053241D01*
X134517403Y-88067706D01*
X134515213Y-88069691D01*
X134519862Y-88079809D01*
X134537038Y-88102150D01*
X134563560Y-88132720D01*
X134578036Y-88148464D01*
X134653318Y-88244953D01*
X134708759Y-88351664D01*
X134743859Y-88467168D01*
X134758120Y-88590038D01*
X134756949Y-88659439D01*
X134739788Y-88780577D01*
X134703906Y-88889795D01*
X134649041Y-88987418D01*
X134574930Y-89073772D01*
X134481312Y-89149185D01*
X134367924Y-89213982D01*
X134281333Y-89251399D01*
X134145634Y-89295252D01*
X133998150Y-89327572D01*
X133842686Y-89348443D01*
X133683044Y-89357949D01*
X133523027Y-89356173D01*
X133366439Y-89343197D01*
X133217082Y-89319106D01*
X133078760Y-89283982D01*
X132955276Y-89237908D01*
X132921022Y-89221627D01*
X132806936Y-89153380D01*
X132710443Y-89072921D01*
X132632330Y-88981430D01*
X132573383Y-88880089D01*
X132534388Y-88770080D01*
X132516132Y-88652585D01*
X132514789Y-88611117D01*
X132525710Y-88489559D01*
X132558526Y-88369122D01*
X132612561Y-88251334D01*
X132687135Y-88137723D01*
X132765461Y-88046315D01*
X132809992Y-87999785D01*
X132512729Y-87818517D01*
X132438567Y-87773420D01*
X132370354Y-87732181D01*
X132310541Y-87696265D01*
X132261580Y-87667134D01*
X132225921Y-87646250D01*
X132206016Y-87635076D01*
X132202921Y-87633625D01*
X132193282Y-87641854D01*
X132176001Y-87667433D01*
X132152717Y-87707127D01*
X132125066Y-87757703D01*
X132094685Y-87815926D01*
X132063210Y-87878563D01*
X132032278Y-87942379D01*
X132003527Y-88004140D01*
X131978592Y-88060612D01*
X131959111Y-88108562D01*
X131950682Y-88132014D01*
X131912867Y-88265779D01*
X131887864Y-88403673D01*
X131874860Y-88551378D01*
X131872532Y-88678167D01*
X131873627Y-88746122D01*
X131875725Y-88811723D01*
X131878566Y-88869153D01*
X131881894Y-88912597D01*
X131883578Y-88926702D01*
X131912413Y-89065716D01*
X131957532Y-89207243D01*
X132016250Y-89344725D01*
X132085880Y-89471606D01*
X132138559Y-89549111D01*
X132246761Y-89676519D01*
X132373329Y-89794822D01*
X132515134Y-89901828D01*
X132669049Y-89995348D01*
X132831947Y-90073190D01*
X132949244Y-90117044D01*
X133132872Y-90167292D01*
X133327419Y-90200791D01*
X133528675Y-90217551D01*
X133732432Y-90217584D01*
X133934479Y-90200899D01*
X134130608Y-90167507D01*
X134316609Y-90117420D01*
X134328197Y-90113603D01*
X134490250Y-90050719D01*
X134638168Y-89973972D01*
X134776135Y-89880758D01*
X134908339Y-89768473D01*
X134953601Y-89724608D01*
X135077543Y-89588466D01*
X135180085Y-89448509D01*
X135262344Y-89302589D01*
X135325436Y-89148558D01*
X135370477Y-88984268D01*
X135387967Y-88888711D01*
X135403534Y-88729977D01*
X135400929Y-88571571D01*
G36*
X134483448Y-86226426D02*
G01*
X134463433Y-86074508D01*
X134429798Y-85939244D01*
X134382275Y-85819761D01*
X134320595Y-85715185D01*
X134257035Y-85637576D01*
X134182901Y-85568735D01*
X134103129Y-85514994D01*
X134010909Y-85472090D01*
X133967839Y-85456616D01*
X133928858Y-85443756D01*
X133892711Y-85432554D01*
X133857566Y-85422880D01*
X133821590Y-85414604D01*
X133782950Y-85407597D01*
X133739815Y-85401728D01*
X133690351Y-85396869D01*
X133632727Y-85392890D01*
X133565109Y-85389660D01*
X133485666Y-85387051D01*
X133392564Y-85384933D01*
X133283973Y-85383176D01*
X133158058Y-85381651D01*
X133012988Y-85380228D01*
X132870222Y-85378975D01*
X132714032Y-85377649D01*
X132578761Y-85376444D01*
X132462754Y-85375234D01*
X132364355Y-85373894D01*
X132281907Y-85372300D01*
X132213754Y-85370325D01*
X132158240Y-85367844D01*
X132113708Y-85364731D01*
X132078502Y-85360862D01*
X132050966Y-85356111D01*
X132029444Y-85350352D01*
X132012278Y-85343461D01*
X131997814Y-85335311D01*
X131984394Y-85325777D01*
X131970362Y-85314734D01*
X131964929Y-85310434D01*
X131942090Y-85294614D01*
X131926537Y-85287578D01*
X131926078Y-85287556D01*
X131923879Y-85298433D01*
X131921853Y-85329418D01*
X131920058Y-85378043D01*
X131918549Y-85441837D01*
X131917384Y-85518331D01*
X131916620Y-85605056D01*
X131916314Y-85699543D01*
X131916311Y-85710450D01*
X131916311Y-86133343D01*
X132012378Y-86136605D01*
X132108444Y-86139867D01*
X132057457Y-86201956D01*
X131989943Y-86299286D01*
X131935251Y-86409187D01*
X131905022Y-86495651D01*
X131890334Y-86564722D01*
X131880341Y-86648075D01*
X131875354Y-86737841D01*
X131875687Y-86826155D01*
X131881649Y-86905149D01*
X131887362Y-86941378D01*
X131925224Y-87081397D01*
X131980068Y-87207822D01*
X132051076Y-87319740D01*
X132137432Y-87416238D01*
X132238321Y-87496400D01*
X132352924Y-87559313D01*
X132479016Y-87603688D01*
X132535599Y-87616022D01*
X132597798Y-87623632D01*
X132672637Y-87627261D01*
X132706533Y-87627755D01*
X132709718Y-87627690D01*
X132709718Y-86867752D01*
X132634667Y-86858459D01*
X132570840Y-86830272D01*
X132515202Y-86781803D01*
X132510789Y-86776746D01*
X132475963Y-86728452D01*
X132453380Y-86676743D01*
X132441460Y-86616011D01*
X132438617Y-86540648D01*
X132439022Y-86522541D01*
X132441675Y-86468722D01*
X132447091Y-86428692D01*
X132457255Y-86393676D01*
X132474150Y-86354897D01*
X132479328Y-86344255D01*
X132515156Y-86283604D01*
X132557788Y-86236785D01*
X132573027Y-86224048D01*
X132629538Y-86179378D01*
X132825414Y-86179378D01*
X132904061Y-86179914D01*
X132962012Y-86181604D01*
X133001125Y-86184572D01*
X133023259Y-86188943D01*
X133029726Y-86193028D01*
X133032889Y-86208953D01*
X133035512Y-86242736D01*
X133037345Y-86289660D01*
X133038143Y-86345007D01*
X133038158Y-86353894D01*
X133032904Y-86474670D01*
X133016737Y-86577340D01*
X132989039Y-86663894D01*
X132949192Y-86736319D01*
X132902242Y-86791249D01*
X132844355Y-86835796D01*
X132781307Y-86860520D01*
X132709718Y-86867752D01*
X132709718Y-87627690D01*
X132800288Y-87625822D01*
X132879188Y-87617478D01*
X132950410Y-87601232D01*
X133021136Y-87575595D01*
X133073507Y-87551599D01*
X133168804Y-87492980D01*
X133256830Y-87414883D01*
X133335983Y-87319685D01*
X133404660Y-87209762D01*
X133461259Y-87087490D01*
X133504179Y-86955245D01*
X133519118Y-86890578D01*
X133541223Y-86754396D01*
X133555806Y-86605951D01*
X133562187Y-86454495D01*
X133560555Y-86327936D01*
X133553776Y-86166050D01*
X133612755Y-86173470D01*
X133711908Y-86192762D01*
X133792628Y-86223896D01*
X133855534Y-86267731D01*
X133901244Y-86325129D01*
X133930378Y-86396952D01*
X133943553Y-86484059D01*
X133941389Y-86587314D01*
X133937388Y-86625289D01*
X133912220Y-86766480D01*
X133871186Y-86903293D01*
X133833185Y-86997822D01*
X133813810Y-87042982D01*
X133798240Y-87081415D01*
X133788595Y-87107766D01*
X133786548Y-87115454D01*
X133795626Y-87125198D01*
X133824595Y-87141917D01*
X133873783Y-87165768D01*
X133943516Y-87196907D01*
X134034121Y-87235493D01*
X134049911Y-87242090D01*
X134122228Y-87272147D01*
X134187575Y-87299126D01*
X134243094Y-87321864D01*
X134285928Y-87339194D01*
X134313219Y-87349952D01*
X134322058Y-87353059D01*
X134326813Y-87343060D01*
X134332090Y-87316783D01*
X134335769Y-87288511D01*
X134340526Y-87258354D01*
X134349972Y-87210567D01*
X134363180Y-87149388D01*
X134379224Y-87079054D01*
X134397180Y-87003806D01*
X134404203Y-86975245D01*
X134429791Y-86870184D01*
X134449853Y-86782520D01*
X134465031Y-86707932D01*
X134475965Y-86642097D01*
X134483296Y-86580693D01*
X134487665Y-86519398D01*
X134489713Y-86453890D01*
X134490111Y-86395872D01*
X134483448Y-86226426D01*
G37*
X134483448Y-86226426D02*
X134463433Y-86074508D01*
X134429798Y-85939244D01*
X134382275Y-85819761D01*
X134320595Y-85715185D01*
X134257035Y-85637576D01*
X134182901Y-85568735D01*
X134103129Y-85514994D01*
X134010909Y-85472090D01*
X133967839Y-85456616D01*
X133928858Y-85443756D01*
X133892711Y-85432554D01*
X133857566Y-85422880D01*
X133821590Y-85414604D01*
X133782950Y-85407597D01*
X133739815Y-85401728D01*
X133690351Y-85396869D01*
X133632727Y-85392890D01*
X133565109Y-85389660D01*
X133485666Y-85387051D01*
X133392564Y-85384933D01*
X133283973Y-85383176D01*
X133158058Y-85381651D01*
X133012988Y-85380228D01*
X132870222Y-85378975D01*
X132714032Y-85377649D01*
X132578761Y-85376444D01*
X132462754Y-85375234D01*
X132364355Y-85373894D01*
X132281907Y-85372300D01*
X132213754Y-85370325D01*
X132158240Y-85367844D01*
X132113708Y-85364731D01*
X132078502Y-85360862D01*
X132050966Y-85356111D01*
X132029444Y-85350352D01*
X132012278Y-85343461D01*
X131997814Y-85335311D01*
X131984394Y-85325777D01*
X131970362Y-85314734D01*
X131964929Y-85310434D01*
X131942090Y-85294614D01*
X131926537Y-85287578D01*
X131926078Y-85287556D01*
X131923879Y-85298433D01*
X131921853Y-85329418D01*
X131920058Y-85378043D01*
X131918549Y-85441837D01*
X131917384Y-85518331D01*
X131916620Y-85605056D01*
X131916314Y-85699543D01*
X131916311Y-85710450D01*
X131916311Y-86133343D01*
X132012378Y-86136605D01*
X132108444Y-86139867D01*
X132057457Y-86201956D01*
X131989943Y-86299286D01*
X131935251Y-86409187D01*
X131905022Y-86495651D01*
X131890334Y-86564722D01*
X131880341Y-86648075D01*
X131875354Y-86737841D01*
X131875687Y-86826155D01*
X131881649Y-86905149D01*
X131887362Y-86941378D01*
X131925224Y-87081397D01*
X131980068Y-87207822D01*
X132051076Y-87319740D01*
X132137432Y-87416238D01*
X132238321Y-87496400D01*
X132352924Y-87559313D01*
X132479016Y-87603688D01*
X132535599Y-87616022D01*
X132597798Y-87623632D01*
X132672637Y-87627261D01*
X132706533Y-87627755D01*
X132709718Y-87627690D01*
X132709718Y-86867752D01*
X132634667Y-86858459D01*
X132570840Y-86830272D01*
X132515202Y-86781803D01*
X132510789Y-86776746D01*
X132475963Y-86728452D01*
X132453380Y-86676743D01*
X132441460Y-86616011D01*
X132438617Y-86540648D01*
X132439022Y-86522541D01*
X132441675Y-86468722D01*
X132447091Y-86428692D01*
X132457255Y-86393676D01*
X132474150Y-86354897D01*
X132479328Y-86344255D01*
X132515156Y-86283604D01*
X132557788Y-86236785D01*
X132573027Y-86224048D01*
X132629538Y-86179378D01*
X132825414Y-86179378D01*
X132904061Y-86179914D01*
X132962012Y-86181604D01*
X133001125Y-86184572D01*
X133023259Y-86188943D01*
X133029726Y-86193028D01*
X133032889Y-86208953D01*
X133035512Y-86242736D01*
X133037345Y-86289660D01*
X133038143Y-86345007D01*
X133038158Y-86353894D01*
X133032904Y-86474670D01*
X133016737Y-86577340D01*
X132989039Y-86663894D01*
X132949192Y-86736319D01*
X132902242Y-86791249D01*
X132844355Y-86835796D01*
X132781307Y-86860520D01*
X132709718Y-86867752D01*
X132709718Y-87627690D01*
X132800288Y-87625822D01*
X132879188Y-87617478D01*
X132950410Y-87601232D01*
X133021136Y-87575595D01*
X133073507Y-87551599D01*
X133168804Y-87492980D01*
X133256830Y-87414883D01*
X133335983Y-87319685D01*
X133404660Y-87209762D01*
X133461259Y-87087490D01*
X133504179Y-86955245D01*
X133519118Y-86890578D01*
X133541223Y-86754396D01*
X133555806Y-86605951D01*
X133562187Y-86454495D01*
X133560555Y-86327936D01*
X133553776Y-86166050D01*
X133612755Y-86173470D01*
X133711908Y-86192762D01*
X133792628Y-86223896D01*
X133855534Y-86267731D01*
X133901244Y-86325129D01*
X133930378Y-86396952D01*
X133943553Y-86484059D01*
X133941389Y-86587314D01*
X133937388Y-86625289D01*
X133912220Y-86766480D01*
X133871186Y-86903293D01*
X133833185Y-86997822D01*
X133813810Y-87042982D01*
X133798240Y-87081415D01*
X133788595Y-87107766D01*
X133786548Y-87115454D01*
X133795626Y-87125198D01*
X133824595Y-87141917D01*
X133873783Y-87165768D01*
X133943516Y-87196907D01*
X134034121Y-87235493D01*
X134049911Y-87242090D01*
X134122228Y-87272147D01*
X134187575Y-87299126D01*
X134243094Y-87321864D01*
X134285928Y-87339194D01*
X134313219Y-87349952D01*
X134322058Y-87353059D01*
X134326813Y-87343060D01*
X134332090Y-87316783D01*
X134335769Y-87288511D01*
X134340526Y-87258354D01*
X134349972Y-87210567D01*
X134363180Y-87149388D01*
X134379224Y-87079054D01*
X134397180Y-87003806D01*
X134404203Y-86975245D01*
X134429791Y-86870184D01*
X134449853Y-86782520D01*
X134465031Y-86707932D01*
X134475965Y-86642097D01*
X134483296Y-86580693D01*
X134487665Y-86519398D01*
X134489713Y-86453890D01*
X134490111Y-86395872D01*
X134483448Y-86226426D01*
G36*
X133877755Y-82713493D02*
G01*
X133643338Y-82713474D01*
X133430397Y-82713448D01*
X133237832Y-82713375D01*
X133064541Y-82713218D01*
X132909424Y-82712936D01*
X132771380Y-82712491D01*
X132649308Y-82711844D01*
X132542106Y-82710955D01*
X132448674Y-82709787D01*
X132367910Y-82708299D01*
X132298714Y-82706454D01*
X132239985Y-82704211D01*
X132190621Y-82701531D01*
X132149522Y-82698377D01*
X132115587Y-82694708D01*
X132087714Y-82690487D01*
X132064802Y-82685673D01*
X132045751Y-82680227D01*
X132029460Y-82674112D01*
X132014827Y-82667288D01*
X132000751Y-82659715D01*
X131986132Y-82651355D01*
X131977026Y-82646161D01*
X131916311Y-82611896D01*
X131916311Y-83470045D01*
X132012267Y-83470045D01*
X132055630Y-83470776D01*
X132088795Y-83472728D01*
X132106576Y-83475537D01*
X132108222Y-83476779D01*
X132101338Y-83488201D01*
X132083495Y-83510916D01*
X132064121Y-83533615D01*
X132023386Y-83588200D01*
X131982383Y-83657679D01*
X131944877Y-83734730D01*
X131914636Y-83812035D01*
X131904988Y-83842887D01*
X131890422Y-83911384D01*
X131880461Y-83994236D01*
X131875417Y-84083629D01*
X131875604Y-84171752D01*
X131881334Y-84250793D01*
X131887142Y-84288489D01*
X131925203Y-84426586D01*
X131982927Y-84553887D01*
X132059789Y-84669708D01*
X132155261Y-84773363D01*
X132268821Y-84864167D01*
X132379619Y-84930969D01*
X132496375Y-84985836D01*
X132615724Y-85027837D01*
X132741717Y-85057833D01*
X132878406Y-85076689D01*
X133029842Y-85085268D01*
X133107289Y-85085994D01*
X133164066Y-85083900D01*
X133164066Y-84254783D01*
X133070998Y-84254576D01*
X132983308Y-84251663D01*
X132906228Y-84246000D01*
X132844991Y-84237545D01*
X132832650Y-84234962D01*
X132725367Y-84203160D01*
X132638342Y-84161502D01*
X132571358Y-84109637D01*
X132524195Y-84047219D01*
X132496635Y-83973900D01*
X132488459Y-83889331D01*
X132499449Y-83793165D01*
X132515171Y-83729689D01*
X132533361Y-83680546D01*
X132559209Y-83626417D01*
X132582911Y-83585756D01*
X132629279Y-83515200D01*
X133779470Y-83515200D01*
X133823038Y-83582608D01*
X133863960Y-83661133D01*
X133890611Y-83745319D01*
X133902535Y-83830443D01*
X133899278Y-83911784D01*
X133880385Y-83984620D01*
X133864816Y-84016574D01*
X133821819Y-84074499D01*
X133765047Y-84123456D01*
X133692425Y-84164610D01*
X133601879Y-84199126D01*
X133491334Y-84228167D01*
X133485467Y-84229448D01*
X133423212Y-84239619D01*
X133345406Y-84247261D01*
X133257280Y-84252330D01*
X133164066Y-84254783D01*
X133164066Y-85083900D01*
X133320105Y-85078143D01*
X133515941Y-85056198D01*
X133694668Y-85020214D01*
X133856155Y-84970241D01*
X134000274Y-84906332D01*
X134126894Y-84828538D01*
X134235885Y-84736911D01*
X134327117Y-84631503D01*
X134358068Y-84586338D01*
X134414215Y-84485389D01*
X134453826Y-84382099D01*
X134477986Y-84272011D01*
X134487781Y-84150670D01*
X134486735Y-84058164D01*
X134475769Y-83928510D01*
X134453954Y-83815916D01*
X134420286Y-83717125D01*
X134373764Y-83628879D01*
X134339552Y-83580014D01*
X134317638Y-83550647D01*
X134302667Y-83528957D01*
X134298267Y-83520747D01*
X134309096Y-83519132D01*
X134339749Y-83517841D01*
X134387474Y-83516862D01*
X134449521Y-83516183D01*
X134523138Y-83515790D01*
X134605573Y-83515670D01*
X134694075Y-83515812D01*
X134785893Y-83516203D01*
X134878276Y-83516829D01*
X134968472Y-83517680D01*
X135053729Y-83518740D01*
X135131297Y-83519999D01*
X135198424Y-83521444D01*
X135252359Y-83523062D01*
X135290350Y-83524839D01*
X135297333Y-83525331D01*
X135367749Y-83532908D01*
X135422898Y-83544469D01*
X135470019Y-83562208D01*
X135516353Y-83588318D01*
X135525933Y-83594585D01*
X135562622Y-83619017D01*
X135562622Y-82713689D01*
X133877755Y-82713493D01*
G37*
X133877755Y-82713493D02*
X133643338Y-82713474D01*
X133430397Y-82713448D01*
X133237832Y-82713375D01*
X133064541Y-82713218D01*
X132909424Y-82712936D01*
X132771380Y-82712491D01*
X132649308Y-82711844D01*
X132542106Y-82710955D01*
X132448674Y-82709787D01*
X132367910Y-82708299D01*
X132298714Y-82706454D01*
X132239985Y-82704211D01*
X132190621Y-82701531D01*
X132149522Y-82698377D01*
X132115587Y-82694708D01*
X132087714Y-82690487D01*
X132064802Y-82685673D01*
X132045751Y-82680227D01*
X132029460Y-82674112D01*
X132014827Y-82667288D01*
X132000751Y-82659715D01*
X131986132Y-82651355D01*
X131977026Y-82646161D01*
X131916311Y-82611896D01*
X131916311Y-83470045D01*
X132012267Y-83470045D01*
X132055630Y-83470776D01*
X132088795Y-83472728D01*
X132106576Y-83475537D01*
X132108222Y-83476779D01*
X132101338Y-83488201D01*
X132083495Y-83510916D01*
X132064121Y-83533615D01*
X132023386Y-83588200D01*
X131982383Y-83657679D01*
X131944877Y-83734730D01*
X131914636Y-83812035D01*
X131904988Y-83842887D01*
X131890422Y-83911384D01*
X131880461Y-83994236D01*
X131875417Y-84083629D01*
X131875604Y-84171752D01*
X131881334Y-84250793D01*
X131887142Y-84288489D01*
X131925203Y-84426586D01*
X131982927Y-84553887D01*
X132059789Y-84669708D01*
X132155261Y-84773363D01*
X132268821Y-84864167D01*
X132379619Y-84930969D01*
X132496375Y-84985836D01*
X132615724Y-85027837D01*
X132741717Y-85057833D01*
X132878406Y-85076689D01*
X133029842Y-85085268D01*
X133107289Y-85085994D01*
X133164066Y-85083900D01*
X133164066Y-84254783D01*
X133070998Y-84254576D01*
X132983308Y-84251663D01*
X132906228Y-84246000D01*
X132844991Y-84237545D01*
X132832650Y-84234962D01*
X132725367Y-84203160D01*
X132638342Y-84161502D01*
X132571358Y-84109637D01*
X132524195Y-84047219D01*
X132496635Y-83973900D01*
X132488459Y-83889331D01*
X132499449Y-83793165D01*
X132515171Y-83729689D01*
X132533361Y-83680546D01*
X132559209Y-83626417D01*
X132582911Y-83585756D01*
X132629279Y-83515200D01*
X133779470Y-83515200D01*
X133823038Y-83582608D01*
X133863960Y-83661133D01*
X133890611Y-83745319D01*
X133902535Y-83830443D01*
X133899278Y-83911784D01*
X133880385Y-83984620D01*
X133864816Y-84016574D01*
X133821819Y-84074499D01*
X133765047Y-84123456D01*
X133692425Y-84164610D01*
X133601879Y-84199126D01*
X133491334Y-84228167D01*
X133485467Y-84229448D01*
X133423212Y-84239619D01*
X133345406Y-84247261D01*
X133257280Y-84252330D01*
X133164066Y-84254783D01*
X133164066Y-85083900D01*
X133320105Y-85078143D01*
X133515941Y-85056198D01*
X133694668Y-85020214D01*
X133856155Y-84970241D01*
X134000274Y-84906332D01*
X134126894Y-84828538D01*
X134235885Y-84736911D01*
X134327117Y-84631503D01*
X134358068Y-84586338D01*
X134414215Y-84485389D01*
X134453826Y-84382099D01*
X134477986Y-84272011D01*
X134487781Y-84150670D01*
X134486735Y-84058164D01*
X134475769Y-83928510D01*
X134453954Y-83815916D01*
X134420286Y-83717125D01*
X134373764Y-83628879D01*
X134339552Y-83580014D01*
X134317638Y-83550647D01*
X134302667Y-83528957D01*
X134298267Y-83520747D01*
X134309096Y-83519132D01*
X134339749Y-83517841D01*
X134387474Y-83516862D01*
X134449521Y-83516183D01*
X134523138Y-83515790D01*
X134605573Y-83515670D01*
X134694075Y-83515812D01*
X134785893Y-83516203D01*
X134878276Y-83516829D01*
X134968472Y-83517680D01*
X135053729Y-83518740D01*
X135131297Y-83519999D01*
X135198424Y-83521444D01*
X135252359Y-83523062D01*
X135290350Y-83524839D01*
X135297333Y-83525331D01*
X135367749Y-83532908D01*
X135422898Y-83544469D01*
X135470019Y-83562208D01*
X135516353Y-83588318D01*
X135525933Y-83594585D01*
X135562622Y-83619017D01*
X135562622Y-82713689D01*
X133877755Y-82713493D01*
G36*
X136323429Y-91173043D02*
G01*
X136299191Y-91076768D01*
X136256359Y-90990184D01*
X136196581Y-90915373D01*
X136121506Y-90854418D01*
X136032780Y-90809399D01*
X135936470Y-90783136D01*
X135839205Y-90777286D01*
X135745346Y-90792140D01*
X135657489Y-90825840D01*
X135578230Y-90876528D01*
X135510164Y-90942345D01*
X135455888Y-91021434D01*
X135417998Y-91111934D01*
X135405574Y-91163200D01*
X135398053Y-91207698D01*
X135395081Y-91241999D01*
X135396906Y-91274960D01*
X135403775Y-91315434D01*
X135410750Y-91348531D01*
X135442259Y-91441947D01*
X135493383Y-91525619D01*
X135562571Y-91597665D01*
X135648272Y-91656200D01*
X135675511Y-91670148D01*
X135711878Y-91686586D01*
X135742418Y-91696894D01*
X135774550Y-91702460D01*
X135815693Y-91704669D01*
X135861778Y-91704948D01*
X135946135Y-91700861D01*
X136015414Y-91687446D01*
X136076039Y-91662256D01*
X136134433Y-91622846D01*
X136178698Y-91584298D01*
X136244516Y-91512406D01*
X136289947Y-91437313D01*
X136317150Y-91354562D01*
X136327424Y-91276928D01*
X136323429Y-91173043D01*
G37*
X136323429Y-91173043D02*
X136299191Y-91076768D01*
X136256359Y-90990184D01*
X136196581Y-90915373D01*
X136121506Y-90854418D01*
X136032780Y-90809399D01*
X135936470Y-90783136D01*
X135839205Y-90777286D01*
X135745346Y-90792140D01*
X135657489Y-90825840D01*
X135578230Y-90876528D01*
X135510164Y-90942345D01*
X135455888Y-91021434D01*
X135417998Y-91111934D01*
X135405574Y-91163200D01*
X135398053Y-91207698D01*
X135395081Y-91241999D01*
X135396906Y-91274960D01*
X135403775Y-91315434D01*
X135410750Y-91348531D01*
X135442259Y-91441947D01*
X135493383Y-91525619D01*
X135562571Y-91597665D01*
X135648272Y-91656200D01*
X135675511Y-91670148D01*
X135711878Y-91686586D01*
X135742418Y-91696894D01*
X135774550Y-91702460D01*
X135815693Y-91704669D01*
X135861778Y-91704948D01*
X135946135Y-91700861D01*
X136015414Y-91687446D01*
X136076039Y-91662256D01*
X136134433Y-91622846D01*
X136178698Y-91584298D01*
X136244516Y-91512406D01*
X136289947Y-91437313D01*
X136317150Y-91354562D01*
X136327424Y-91276928D01*
X136323429Y-91173043D01*
G36*
X131080934Y-95021371D02*
G01*
X131080533Y-94981889D01*
X131077741Y-94866200D01*
X131069450Y-94769311D01*
X131054768Y-94687919D01*
X131032807Y-94618723D01*
X131002678Y-94558420D01*
X130963490Y-94503708D01*
X130946468Y-94484167D01*
X130906637Y-94451750D01*
X130852587Y-94422520D01*
X130792677Y-94399991D01*
X130735261Y-94387679D01*
X130714044Y-94386400D01*
X130655231Y-94394417D01*
X130590987Y-94415899D01*
X130530179Y-94446999D01*
X130481670Y-94483866D01*
X130475818Y-94489854D01*
X130434679Y-94540579D01*
X130402565Y-94596125D01*
X130378635Y-94659696D01*
X130362047Y-94734494D01*
X130351959Y-94823722D01*
X130347531Y-94930582D01*
X130347155Y-94979528D01*
X130347455Y-95041762D01*
X130348708Y-95085528D01*
X130351446Y-95114931D01*
X130356199Y-95134079D01*
X130363499Y-95147077D01*
X130369733Y-95154045D01*
X130377306Y-95160626D01*
X130387076Y-95165788D01*
X130401660Y-95169703D01*
X130423674Y-95172543D01*
X130455736Y-95174480D01*
X130500464Y-95175684D01*
X130560474Y-95176328D01*
X130638383Y-95176583D01*
X130714044Y-95176622D01*
X130814959Y-95176870D01*
X130895573Y-95176817D01*
X130934178Y-95175857D01*
X130934178Y-95029867D01*
X130493911Y-95029867D01*
X130493996Y-94936734D01*
X130495604Y-94880693D01*
X130499744Y-94821999D01*
X130505536Y-94773028D01*
X130505774Y-94771538D01*
X130524910Y-94692392D01*
X130554713Y-94631002D01*
X130597122Y-94584305D01*
X130643039Y-94554635D01*
X130693974Y-94536353D01*
X130741800Y-94537771D01*
X130793067Y-94558988D01*
X130846101Y-94600489D01*
X130885400Y-94657998D01*
X130911669Y-94732750D01*
X130920965Y-94782708D01*
X130927493Y-94839416D01*
X130932218Y-94899519D01*
X130934183Y-94950639D01*
X130934192Y-94953667D01*
X130934178Y-95029867D01*
X130934178Y-95175857D01*
X130958149Y-95175260D01*
X131004945Y-95170998D01*
X131038222Y-95162830D01*
X131060241Y-95149556D01*
X131073261Y-95129974D01*
X131079543Y-95102883D01*
X131081347Y-95067082D01*
X131080934Y-95021371D01*
G37*
X131080934Y-95021371D02*
X131080533Y-94981889D01*
X131077741Y-94866200D01*
X131069450Y-94769311D01*
X131054768Y-94687919D01*
X131032807Y-94618723D01*
X131002678Y-94558420D01*
X130963490Y-94503708D01*
X130946468Y-94484167D01*
X130906637Y-94451750D01*
X130852587Y-94422520D01*
X130792677Y-94399991D01*
X130735261Y-94387679D01*
X130714044Y-94386400D01*
X130655231Y-94394417D01*
X130590987Y-94415899D01*
X130530179Y-94446999D01*
X130481670Y-94483866D01*
X130475818Y-94489854D01*
X130434679Y-94540579D01*
X130402565Y-94596125D01*
X130378635Y-94659696D01*
X130362047Y-94734494D01*
X130351959Y-94823722D01*
X130347531Y-94930582D01*
X130347155Y-94979528D01*
X130347455Y-95041762D01*
X130348708Y-95085528D01*
X130351446Y-95114931D01*
X130356199Y-95134079D01*
X130363499Y-95147077D01*
X130369733Y-95154045D01*
X130377306Y-95160626D01*
X130387076Y-95165788D01*
X130401660Y-95169703D01*
X130423674Y-95172543D01*
X130455736Y-95174480D01*
X130500464Y-95175684D01*
X130560474Y-95176328D01*
X130638383Y-95176583D01*
X130714044Y-95176622D01*
X130814959Y-95176870D01*
X130895573Y-95176817D01*
X130934178Y-95175857D01*
X130934178Y-95029867D01*
X130493911Y-95029867D01*
X130493996Y-94936734D01*
X130495604Y-94880693D01*
X130499744Y-94821999D01*
X130505536Y-94773028D01*
X130505774Y-94771538D01*
X130524910Y-94692392D01*
X130554713Y-94631002D01*
X130597122Y-94584305D01*
X130643039Y-94554635D01*
X130693974Y-94536353D01*
X130741800Y-94537771D01*
X130793067Y-94558988D01*
X130846101Y-94600489D01*
X130885400Y-94657998D01*
X130911669Y-94732750D01*
X130920965Y-94782708D01*
X130927493Y-94839416D01*
X130932218Y-94899519D01*
X130934183Y-94950639D01*
X130934192Y-94953667D01*
X130934178Y-95029867D01*
X130934178Y-95175857D01*
X130958149Y-95175260D01*
X131004945Y-95170998D01*
X131038222Y-95162830D01*
X131060241Y-95149556D01*
X131073261Y-95129974D01*
X131079543Y-95102883D01*
X131081347Y-95067082D01*
X131080934Y-95021371D01*
G36*
X131080854Y-93612794D02*
G01*
X131080482Y-93543386D01*
X131079615Y-93490997D01*
X131078054Y-93452847D01*
X131075597Y-93426159D01*
X131072043Y-93408153D01*
X131067190Y-93396049D01*
X131060839Y-93387069D01*
X131057916Y-93383818D01*
X131026858Y-93364043D01*
X130991172Y-93360482D01*
X130959490Y-93373491D01*
X130953087Y-93379506D01*
X130946879Y-93389235D01*
X130942090Y-93404901D01*
X130938486Y-93429408D01*
X130935836Y-93465661D01*
X130933905Y-93516565D01*
X130932461Y-93585026D01*
X130931582Y-93647617D01*
X130928533Y-93895334D01*
X130863622Y-93898719D01*
X130798711Y-93902105D01*
X130798711Y-93733958D01*
X130798081Y-93660959D01*
X130795447Y-93607517D01*
X130789691Y-93570628D01*
X130779696Y-93547288D01*
X130764344Y-93534494D01*
X130742518Y-93529242D01*
X130722262Y-93528445D01*
X130697408Y-93530923D01*
X130679094Y-93540277D01*
X130666363Y-93559383D01*
X130658259Y-93591118D01*
X130653824Y-93638359D01*
X130652101Y-93703983D01*
X130651955Y-93739801D01*
X130651955Y-93900978D01*
X130493911Y-93900978D01*
X130493911Y-93652622D01*
X130493798Y-93571213D01*
X130493288Y-93509342D01*
X130492130Y-93463968D01*
X130490070Y-93432054D01*
X130486854Y-93410559D01*
X130482228Y-93396443D01*
X130475941Y-93386668D01*
X130471333Y-93381689D01*
X130444440Y-93364610D01*
X130420533Y-93359111D01*
X130391333Y-93366963D01*
X130369733Y-93381689D01*
X130362934Y-93389546D01*
X130357654Y-93399688D01*
X130353702Y-93414844D01*
X130350887Y-93437741D01*
X130349018Y-93471109D01*
X130347902Y-93517675D01*
X130347349Y-93580167D01*
X130347167Y-93661314D01*
X130347155Y-93703422D01*
X130347235Y-93793598D01*
X130347602Y-93863924D01*
X130348448Y-93917129D01*
X130349964Y-93955940D01*
X130352341Y-93983087D01*
X130355771Y-94001298D01*
X130360446Y-94013300D01*
X130366556Y-94021822D01*
X130369733Y-94025156D01*
X130377330Y-94031755D01*
X130387130Y-94036927D01*
X130401761Y-94040846D01*
X130423848Y-94043684D01*
X130456018Y-94045615D01*
X130500897Y-94046812D01*
X130561111Y-94047448D01*
X130639287Y-94047697D01*
X130712077Y-94047734D01*
X130805293Y-94047700D01*
X130878569Y-94047465D01*
X130934542Y-94046830D01*
X130975849Y-94045594D01*
X131005128Y-94043556D01*
X131025016Y-94040517D01*
X131038150Y-94036277D01*
X131047168Y-94030635D01*
X131054707Y-94023391D01*
X131056388Y-94021606D01*
X131063828Y-94012945D01*
X131069591Y-94002882D01*
X131073888Y-93988625D01*
X131076936Y-93967383D01*
X131078949Y-93936364D01*
X131080140Y-93892777D01*
X131080725Y-93833831D01*
X131080917Y-93756734D01*
X131080933Y-93702001D01*
X131080854Y-93612794D01*
G37*
X131080854Y-93612794D02*
X131080482Y-93543386D01*
X131079615Y-93490997D01*
X131078054Y-93452847D01*
X131075597Y-93426159D01*
X131072043Y-93408153D01*
X131067190Y-93396049D01*
X131060839Y-93387069D01*
X131057916Y-93383818D01*
X131026858Y-93364043D01*
X130991172Y-93360482D01*
X130959490Y-93373491D01*
X130953087Y-93379506D01*
X130946879Y-93389235D01*
X130942090Y-93404901D01*
X130938486Y-93429408D01*
X130935836Y-93465661D01*
X130933905Y-93516565D01*
X130932461Y-93585026D01*
X130931582Y-93647617D01*
X130928533Y-93895334D01*
X130863622Y-93898719D01*
X130798711Y-93902105D01*
X130798711Y-93733958D01*
X130798081Y-93660959D01*
X130795447Y-93607517D01*
X130789691Y-93570628D01*
X130779696Y-93547288D01*
X130764344Y-93534494D01*
X130742518Y-93529242D01*
X130722262Y-93528445D01*
X130697408Y-93530923D01*
X130679094Y-93540277D01*
X130666363Y-93559383D01*
X130658259Y-93591118D01*
X130653824Y-93638359D01*
X130652101Y-93703983D01*
X130651955Y-93739801D01*
X130651955Y-93900978D01*
X130493911Y-93900978D01*
X130493911Y-93652622D01*
X130493798Y-93571213D01*
X130493288Y-93509342D01*
X130492130Y-93463968D01*
X130490070Y-93432054D01*
X130486854Y-93410559D01*
X130482228Y-93396443D01*
X130475941Y-93386668D01*
X130471333Y-93381689D01*
X130444440Y-93364610D01*
X130420533Y-93359111D01*
X130391333Y-93366963D01*
X130369733Y-93381689D01*
X130362934Y-93389546D01*
X130357654Y-93399688D01*
X130353702Y-93414844D01*
X130350887Y-93437741D01*
X130349018Y-93471109D01*
X130347902Y-93517675D01*
X130347349Y-93580167D01*
X130347167Y-93661314D01*
X130347155Y-93703422D01*
X130347235Y-93793598D01*
X130347602Y-93863924D01*
X130348448Y-93917129D01*
X130349964Y-93955940D01*
X130352341Y-93983087D01*
X130355771Y-94001298D01*
X130360446Y-94013300D01*
X130366556Y-94021822D01*
X130369733Y-94025156D01*
X130377330Y-94031755D01*
X130387130Y-94036927D01*
X130401761Y-94040846D01*
X130423848Y-94043684D01*
X130456018Y-94045615D01*
X130500897Y-94046812D01*
X130561111Y-94047448D01*
X130639287Y-94047697D01*
X130712077Y-94047734D01*
X130805293Y-94047700D01*
X130878569Y-94047465D01*
X130934542Y-94046830D01*
X130975849Y-94045594D01*
X131005128Y-94043556D01*
X131025016Y-94040517D01*
X131038150Y-94036277D01*
X131047168Y-94030635D01*
X131054707Y-94023391D01*
X131056388Y-94021606D01*
X131063828Y-94012945D01*
X131069591Y-94002882D01*
X131073888Y-93988625D01*
X131076936Y-93967383D01*
X131078949Y-93936364D01*
X131080140Y-93892777D01*
X131080725Y-93833831D01*
X131080917Y-93756734D01*
X131080933Y-93702001D01*
X131080854Y-93612794D01*
G36*
X131079649Y-92591703D02*
G01*
X131074419Y-92516888D01*
X131066250Y-92447306D01*
X131055450Y-92387002D01*
X131042327Y-92340020D01*
X131027187Y-92310406D01*
X131022731Y-92305860D01*
X130988150Y-92290054D01*
X130952649Y-92294847D01*
X130922275Y-92319364D01*
X130921404Y-92320534D01*
X130912046Y-92334954D01*
X130907124Y-92350008D01*
X130906527Y-92371005D01*
X130910139Y-92403257D01*
X130917846Y-92452073D01*
X130918495Y-92456000D01*
X130927431Y-92528739D01*
X130931839Y-92607217D01*
X130931881Y-92685927D01*
X130927721Y-92759361D01*
X130919521Y-92822011D01*
X130907443Y-92868370D01*
X130906229Y-92871416D01*
X130887385Y-92905048D01*
X130868315Y-92916864D01*
X130849561Y-92907614D01*
X130831663Y-92878047D01*
X130815163Y-92828911D01*
X130800604Y-92760957D01*
X130793594Y-92715645D01*
X130780111Y-92621456D01*
X130767786Y-92546544D01*
X130755551Y-92487717D01*
X130742339Y-92441785D01*
X130727083Y-92405555D01*
X130708715Y-92375838D01*
X130686169Y-92349442D01*
X130664029Y-92328230D01*
X130633181Y-92303065D01*
X130606655Y-92290681D01*
X130573974Y-92286808D01*
X130562005Y-92286667D01*
X130522288Y-92289576D01*
X130492741Y-92301202D01*
X130466514Y-92321323D01*
X130426424Y-92362216D01*
X130395851Y-92407817D01*
X130373797Y-92461513D01*
X130359265Y-92526692D01*
X130351259Y-92606744D01*
X130348782Y-92705057D01*
X130348823Y-92721289D01*
X130350182Y-92786849D01*
X130353270Y-92851866D01*
X130357644Y-92909252D01*
X130362860Y-92951922D01*
X130363459Y-92955372D01*
X130373509Y-92997796D01*
X130386204Y-93033780D01*
X130397810Y-93054150D01*
X130428428Y-93073107D01*
X130464082Y-93074427D01*
X130495856Y-93058085D01*
X130499449Y-93054429D01*
X130510124Y-93039315D01*
X130514724Y-93020415D01*
X130513941Y-92991162D01*
X130509873Y-92955651D01*
X130506238Y-92915970D01*
X130503172Y-92860345D01*
X130500947Y-92795406D01*
X130499836Y-92727785D01*
X130499763Y-92710000D01*
X130500036Y-92642128D01*
X130501354Y-92592454D01*
X130504173Y-92556610D01*
X130508950Y-92530224D01*
X130516143Y-92508926D01*
X130522133Y-92496126D01*
X130538767Y-92468000D01*
X130553832Y-92450068D01*
X130558103Y-92447447D01*
X130575737Y-92452976D01*
X130592808Y-92479260D01*
X130608542Y-92524478D01*
X130622162Y-92586808D01*
X130625196Y-92605171D01*
X130640262Y-92701090D01*
X130652854Y-92777641D01*
X130663889Y-92837780D01*
X130674280Y-92884460D01*
X130684944Y-92920637D01*
X130696795Y-92949265D01*
X130710749Y-92973298D01*
X130727719Y-92995692D01*
X130748622Y-93019402D01*
X130755951Y-93027380D01*
X130783301Y-93055353D01*
X130804971Y-93070160D01*
X130829768Y-93075952D01*
X130861017Y-93076889D01*
X130922295Y-93066575D01*
X130974360Y-93035752D01*
X131017042Y-92984595D01*
X131050175Y-92913283D01*
X131065036Y-92862400D01*
X131074634Y-92807100D01*
X131080064Y-92740853D01*
X131081633Y-92667706D01*
X131079649Y-92591703D01*
G37*
X131079649Y-92591703D02*
X131074419Y-92516888D01*
X131066250Y-92447306D01*
X131055450Y-92387002D01*
X131042327Y-92340020D01*
X131027187Y-92310406D01*
X131022731Y-92305860D01*
X130988150Y-92290054D01*
X130952649Y-92294847D01*
X130922275Y-92319364D01*
X130921404Y-92320534D01*
X130912046Y-92334954D01*
X130907124Y-92350008D01*
X130906527Y-92371005D01*
X130910139Y-92403257D01*
X130917846Y-92452073D01*
X130918495Y-92456000D01*
X130927431Y-92528739D01*
X130931839Y-92607217D01*
X130931881Y-92685927D01*
X130927721Y-92759361D01*
X130919521Y-92822011D01*
X130907443Y-92868370D01*
X130906229Y-92871416D01*
X130887385Y-92905048D01*
X130868315Y-92916864D01*
X130849561Y-92907614D01*
X130831663Y-92878047D01*
X130815163Y-92828911D01*
X130800604Y-92760957D01*
X130793594Y-92715645D01*
X130780111Y-92621456D01*
X130767786Y-92546544D01*
X130755551Y-92487717D01*
X130742339Y-92441785D01*
X130727083Y-92405555D01*
X130708715Y-92375838D01*
X130686169Y-92349442D01*
X130664029Y-92328230D01*
X130633181Y-92303065D01*
X130606655Y-92290681D01*
X130573974Y-92286808D01*
X130562005Y-92286667D01*
X130522288Y-92289576D01*
X130492741Y-92301202D01*
X130466514Y-92321323D01*
X130426424Y-92362216D01*
X130395851Y-92407817D01*
X130373797Y-92461513D01*
X130359265Y-92526692D01*
X130351259Y-92606744D01*
X130348782Y-92705057D01*
X130348823Y-92721289D01*
X130350182Y-92786849D01*
X130353270Y-92851866D01*
X130357644Y-92909252D01*
X130362860Y-92951922D01*
X130363459Y-92955372D01*
X130373509Y-92997796D01*
X130386204Y-93033780D01*
X130397810Y-93054150D01*
X130428428Y-93073107D01*
X130464082Y-93074427D01*
X130495856Y-93058085D01*
X130499449Y-93054429D01*
X130510124Y-93039315D01*
X130514724Y-93020415D01*
X130513941Y-92991162D01*
X130509873Y-92955651D01*
X130506238Y-92915970D01*
X130503172Y-92860345D01*
X130500947Y-92795406D01*
X130499836Y-92727785D01*
X130499763Y-92710000D01*
X130500036Y-92642128D01*
X130501354Y-92592454D01*
X130504173Y-92556610D01*
X130508950Y-92530224D01*
X130516143Y-92508926D01*
X130522133Y-92496126D01*
X130538767Y-92468000D01*
X130553832Y-92450068D01*
X130558103Y-92447447D01*
X130575737Y-92452976D01*
X130592808Y-92479260D01*
X130608542Y-92524478D01*
X130622162Y-92586808D01*
X130625196Y-92605171D01*
X130640262Y-92701090D01*
X130652854Y-92777641D01*
X130663889Y-92837780D01*
X130674280Y-92884460D01*
X130684944Y-92920637D01*
X130696795Y-92949265D01*
X130710749Y-92973298D01*
X130727719Y-92995692D01*
X130748622Y-93019402D01*
X130755951Y-93027380D01*
X130783301Y-93055353D01*
X130804971Y-93070160D01*
X130829768Y-93075952D01*
X130861017Y-93076889D01*
X130922295Y-93066575D01*
X130974360Y-93035752D01*
X131017042Y-92984595D01*
X131050175Y-92913283D01*
X131065036Y-92862400D01*
X131074634Y-92807100D01*
X131080064Y-92740853D01*
X131081633Y-92667706D01*
X131079649Y-92591703D01*
G36*
X131058355Y-91823822D02*
G01*
X131050782Y-91817242D01*
X131041013Y-91812079D01*
X131026429Y-91808164D01*
X131004415Y-91805324D01*
X130972352Y-91803387D01*
X130927625Y-91802183D01*
X130867615Y-91801539D01*
X130789706Y-91801284D01*
X130714044Y-91801245D01*
X130620198Y-91801314D01*
X130546311Y-91801638D01*
X130489768Y-91802386D01*
X130447951Y-91803732D01*
X130418243Y-91805846D01*
X130398027Y-91808900D01*
X130384686Y-91813066D01*
X130375602Y-91818516D01*
X130369733Y-91823822D01*
X130350053Y-91856826D01*
X130351819Y-91891991D01*
X130373283Y-91923455D01*
X130381663Y-91930684D01*
X130391386Y-91936334D01*
X130405139Y-91940599D01*
X130425611Y-91943673D01*
X130455488Y-91945752D01*
X130497459Y-91947030D01*
X130554211Y-91947701D01*
X130628433Y-91947959D01*
X130712463Y-91948000D01*
X131025515Y-91948000D01*
X131053224Y-91920291D01*
X131076537Y-91886137D01*
X131077377Y-91853006D01*
X131058355Y-91823822D01*
G37*
X131058355Y-91823822D02*
X131050782Y-91817242D01*
X131041013Y-91812079D01*
X131026429Y-91808164D01*
X131004415Y-91805324D01*
X130972352Y-91803387D01*
X130927625Y-91802183D01*
X130867615Y-91801539D01*
X130789706Y-91801284D01*
X130714044Y-91801245D01*
X130620198Y-91801314D01*
X130546311Y-91801638D01*
X130489768Y-91802386D01*
X130447951Y-91803732D01*
X130418243Y-91805846D01*
X130398027Y-91808900D01*
X130384686Y-91813066D01*
X130375602Y-91818516D01*
X130369733Y-91823822D01*
X130350053Y-91856826D01*
X130351819Y-91891991D01*
X130373283Y-91923455D01*
X130381663Y-91930684D01*
X130391386Y-91936334D01*
X130405139Y-91940599D01*
X130425611Y-91943673D01*
X130455488Y-91945752D01*
X130497459Y-91947030D01*
X130554211Y-91947701D01*
X130628433Y-91947959D01*
X130712463Y-91948000D01*
X131025515Y-91948000D01*
X131053224Y-91920291D01*
X131076537Y-91886137D01*
X131077377Y-91853006D01*
X131058355Y-91823822D01*
G36*
X131075401Y-90850081D02*
G01*
X131063905Y-90781565D01*
X131046033Y-90728943D01*
X131022501Y-90694708D01*
X131009076Y-90685379D01*
X130977852Y-90675893D01*
X130949605Y-90682277D01*
X130922818Y-90702430D01*
X130910287Y-90733745D01*
X130911304Y-90779183D01*
X130918094Y-90814326D01*
X130931029Y-90892419D01*
X130932258Y-90972226D01*
X130921759Y-91061555D01*
X130917310Y-91086229D01*
X130893892Y-91169291D01*
X130859055Y-91234273D01*
X130813396Y-91280461D01*
X130757506Y-91307145D01*
X130728612Y-91312663D01*
X130669988Y-91309051D01*
X130618121Y-91285729D01*
X130574022Y-91244824D01*
X130538701Y-91188459D01*
X130513171Y-91118760D01*
X130498441Y-91037852D01*
X130495522Y-90947860D01*
X130505425Y-90850910D01*
X130506359Y-90845436D01*
X130513541Y-90806875D01*
X130520479Y-90785494D01*
X130530773Y-90776227D01*
X130548024Y-90774006D01*
X130557159Y-90773956D01*
X130595511Y-90773956D01*
X130595511Y-90842431D01*
X130599653Y-90902900D01*
X130612853Y-90944165D01*
X130636270Y-90968175D01*
X130671064Y-90976877D01*
X130675606Y-90976983D01*
X130705346Y-90971892D01*
X130726581Y-90954433D01*
X130740634Y-90921939D01*
X130748827Y-90871743D01*
X130751839Y-90823123D01*
X130753567Y-90752456D01*
X130750930Y-90701198D01*
X130741200Y-90666239D01*
X130721647Y-90644470D01*
X130689544Y-90632780D01*
X130642162Y-90628060D01*
X130579929Y-90627200D01*
X130510465Y-90628609D01*
X130463214Y-90632848D01*
X130437988Y-90639936D01*
X130436012Y-90641311D01*
X130404492Y-90680228D01*
X130379530Y-90737286D01*
X130361660Y-90808869D01*
X130351414Y-90891358D01*
X130349327Y-90981139D01*
X130355932Y-91074592D01*
X130364044Y-91129556D01*
X130388446Y-91215766D01*
X130428338Y-91295892D01*
X130480113Y-91362977D01*
X130490461Y-91373173D01*
X130533965Y-91406302D01*
X130587882Y-91436194D01*
X130644408Y-91459357D01*
X130695741Y-91472298D01*
X130715456Y-91473858D01*
X130756581Y-91467218D01*
X130807748Y-91449568D01*
X130861606Y-91424297D01*
X130910805Y-91394789D01*
X130943666Y-91368719D01*
X130992548Y-91307765D01*
X131031455Y-91228969D01*
X131059506Y-91135157D01*
X131075821Y-91029150D01*
X131079808Y-90932000D01*
X131075401Y-90850081D01*
G37*
X131075401Y-90850081D02*
X131063905Y-90781565D01*
X131046033Y-90728943D01*
X131022501Y-90694708D01*
X131009076Y-90685379D01*
X130977852Y-90675893D01*
X130949605Y-90682277D01*
X130922818Y-90702430D01*
X130910287Y-90733745D01*
X130911304Y-90779183D01*
X130918094Y-90814326D01*
X130931029Y-90892419D01*
X130932258Y-90972226D01*
X130921759Y-91061555D01*
X130917310Y-91086229D01*
X130893892Y-91169291D01*
X130859055Y-91234273D01*
X130813396Y-91280461D01*
X130757506Y-91307145D01*
X130728612Y-91312663D01*
X130669988Y-91309051D01*
X130618121Y-91285729D01*
X130574022Y-91244824D01*
X130538701Y-91188459D01*
X130513171Y-91118760D01*
X130498441Y-91037852D01*
X130495522Y-90947860D01*
X130505425Y-90850910D01*
X130506359Y-90845436D01*
X130513541Y-90806875D01*
X130520479Y-90785494D01*
X130530773Y-90776227D01*
X130548024Y-90774006D01*
X130557159Y-90773956D01*
X130595511Y-90773956D01*
X130595511Y-90842431D01*
X130599653Y-90902900D01*
X130612853Y-90944165D01*
X130636270Y-90968175D01*
X130671064Y-90976877D01*
X130675606Y-90976983D01*
X130705346Y-90971892D01*
X130726581Y-90954433D01*
X130740634Y-90921939D01*
X130748827Y-90871743D01*
X130751839Y-90823123D01*
X130753567Y-90752456D01*
X130750930Y-90701198D01*
X130741200Y-90666239D01*
X130721647Y-90644470D01*
X130689544Y-90632780D01*
X130642162Y-90628060D01*
X130579929Y-90627200D01*
X130510465Y-90628609D01*
X130463214Y-90632848D01*
X130437988Y-90639936D01*
X130436012Y-90641311D01*
X130404492Y-90680228D01*
X130379530Y-90737286D01*
X130361660Y-90808869D01*
X130351414Y-90891358D01*
X130349327Y-90981139D01*
X130355932Y-91074592D01*
X130364044Y-91129556D01*
X130388446Y-91215766D01*
X130428338Y-91295892D01*
X130480113Y-91362977D01*
X130490461Y-91373173D01*
X130533965Y-91406302D01*
X130587882Y-91436194D01*
X130644408Y-91459357D01*
X130695741Y-91472298D01*
X130715456Y-91473858D01*
X130756581Y-91467218D01*
X130807748Y-91449568D01*
X130861606Y-91424297D01*
X130910805Y-91394789D01*
X130943666Y-91368719D01*
X130992548Y-91307765D01*
X131031455Y-91228969D01*
X131059506Y-91135157D01*
X131075821Y-91029150D01*
X131079808Y-90932000D01*
X131075401Y-90850081D01*
G36*
X131076552Y-90200114D02*
G01*
X131062727Y-90176548D01*
X131040119Y-90145735D01*
X131007662Y-90106078D01*
X130964292Y-90055980D01*
X130908942Y-89993843D01*
X130840549Y-89918072D01*
X130761916Y-89831334D01*
X130598122Y-89650711D01*
X130817971Y-89645067D01*
X130893649Y-89643029D01*
X130950006Y-89641063D01*
X130990294Y-89638734D01*
X131017765Y-89635606D01*
X131035671Y-89631245D01*
X131047263Y-89625216D01*
X131055792Y-89617084D01*
X131059377Y-89612772D01*
X131078330Y-89578241D01*
X131075559Y-89545383D01*
X131059367Y-89519318D01*
X131037801Y-89492667D01*
X130722849Y-89489352D01*
X130630221Y-89488435D01*
X130557456Y-89487968D01*
X130501839Y-89488113D01*
X130460658Y-89489032D01*
X130431197Y-89490887D01*
X130410745Y-89493839D01*
X130396587Y-89498050D01*
X130386009Y-89503682D01*
X130377526Y-89509927D01*
X130361793Y-89523439D01*
X130351364Y-89536883D01*
X130347361Y-89552124D01*
X130350906Y-89571026D01*
X130363121Y-89595455D01*
X130385129Y-89627273D01*
X130418051Y-89668348D01*
X130463009Y-89720542D01*
X130521125Y-89785722D01*
X130587901Y-89859556D01*
X130828542Y-90124845D01*
X130609411Y-90130489D01*
X130533872Y-90132531D01*
X130477646Y-90134502D01*
X130437476Y-90136839D01*
X130410104Y-90139981D01*
X130392272Y-90144364D01*
X130380721Y-90150424D01*
X130372193Y-90158600D01*
X130368718Y-90162784D01*
X130349628Y-90199765D01*
X130352507Y-90234708D01*
X130376900Y-90265136D01*
X130386714Y-90272097D01*
X130398174Y-90277523D01*
X130414032Y-90281603D01*
X130437037Y-90284529D01*
X130469938Y-90286492D01*
X130515484Y-90287683D01*
X130576427Y-90288292D01*
X130655514Y-90288511D01*
X130714044Y-90288534D01*
X130805593Y-90288460D01*
X130877313Y-90288113D01*
X130931955Y-90287301D01*
X130972268Y-90285833D01*
X131001002Y-90283519D01*
X131020907Y-90280167D01*
X131034732Y-90275588D01*
X131045228Y-90269589D01*
X131051189Y-90265136D01*
X131065309Y-90253850D01*
X131075971Y-90243301D01*
X131082108Y-90231893D01*
X131082657Y-90218030D01*
X131076552Y-90200114D01*
G37*
X131076552Y-90200114D02*
X131062727Y-90176548D01*
X131040119Y-90145735D01*
X131007662Y-90106078D01*
X130964292Y-90055980D01*
X130908942Y-89993843D01*
X130840549Y-89918072D01*
X130761916Y-89831334D01*
X130598122Y-89650711D01*
X130817971Y-89645067D01*
X130893649Y-89643029D01*
X130950006Y-89641063D01*
X130990294Y-89638734D01*
X131017765Y-89635606D01*
X131035671Y-89631245D01*
X131047263Y-89625216D01*
X131055792Y-89617084D01*
X131059377Y-89612772D01*
X131078330Y-89578241D01*
X131075559Y-89545383D01*
X131059367Y-89519318D01*
X131037801Y-89492667D01*
X130722849Y-89489352D01*
X130630221Y-89488435D01*
X130557456Y-89487968D01*
X130501839Y-89488113D01*
X130460658Y-89489032D01*
X130431197Y-89490887D01*
X130410745Y-89493839D01*
X130396587Y-89498050D01*
X130386009Y-89503682D01*
X130377526Y-89509927D01*
X130361793Y-89523439D01*
X130351364Y-89536883D01*
X130347361Y-89552124D01*
X130350906Y-89571026D01*
X130363121Y-89595455D01*
X130385129Y-89627273D01*
X130418051Y-89668348D01*
X130463009Y-89720542D01*
X130521125Y-89785722D01*
X130587901Y-89859556D01*
X130828542Y-90124845D01*
X130609411Y-90130489D01*
X130533872Y-90132531D01*
X130477646Y-90134502D01*
X130437476Y-90136839D01*
X130410104Y-90139981D01*
X130392272Y-90144364D01*
X130380721Y-90150424D01*
X130372193Y-90158600D01*
X130368718Y-90162784D01*
X130349628Y-90199765D01*
X130352507Y-90234708D01*
X130376900Y-90265136D01*
X130386714Y-90272097D01*
X130398174Y-90277523D01*
X130414032Y-90281603D01*
X130437037Y-90284529D01*
X130469938Y-90286492D01*
X130515484Y-90287683D01*
X130576427Y-90288292D01*
X130655514Y-90288511D01*
X130714044Y-90288534D01*
X130805593Y-90288460D01*
X130877313Y-90288113D01*
X130931955Y-90287301D01*
X130972268Y-90285833D01*
X131001002Y-90283519D01*
X131020907Y-90280167D01*
X131034732Y-90275588D01*
X131045228Y-90269589D01*
X131051189Y-90265136D01*
X131065309Y-90253850D01*
X131075971Y-90243301D01*
X131082108Y-90231893D01*
X131082657Y-90218030D01*
X131076552Y-90200114D01*
G36*
X131080740Y-88669657D02*
G01*
X131079826Y-88593299D01*
X131077689Y-88534783D01*
X131073825Y-88491745D01*
X131067733Y-88461817D01*
X131058910Y-88442632D01*
X131046854Y-88431824D01*
X131031061Y-88427027D01*
X131011030Y-88425873D01*
X131008665Y-88425867D01*
X130986008Y-88426869D01*
X130968497Y-88431604D01*
X130955426Y-88442667D01*
X130946087Y-88462652D01*
X130939773Y-88494154D01*
X130935778Y-88539768D01*
X130933394Y-88602087D01*
X130931914Y-88683707D01*
X130931586Y-88708723D01*
X130928533Y-88950800D01*
X130863622Y-88954186D01*
X130798711Y-88957571D01*
X130798711Y-88789424D01*
X130798469Y-88723734D01*
X130797444Y-88676828D01*
X130795189Y-88644917D01*
X130791258Y-88624209D01*
X130785202Y-88610916D01*
X130776576Y-88601245D01*
X130776507Y-88601183D01*
X130742888Y-88583644D01*
X130706552Y-88584278D01*
X130675577Y-88602686D01*
X130672393Y-88606329D01*
X130664188Y-88619259D01*
X130658479Y-88636976D01*
X130654838Y-88663430D01*
X130652833Y-88702568D01*
X130652036Y-88758338D01*
X130651955Y-88794006D01*
X130651955Y-88956445D01*
X130493911Y-88956445D01*
X130493911Y-88709839D01*
X130493769Y-88628420D01*
X130493186Y-88566590D01*
X130491932Y-88521363D01*
X130489773Y-88489752D01*
X130486477Y-88468769D01*
X130481811Y-88455427D01*
X130475543Y-88446739D01*
X130473267Y-88444550D01*
X130441720Y-88428386D01*
X130405832Y-88427203D01*
X130374715Y-88440464D01*
X130364729Y-88450957D01*
X130359231Y-88461871D01*
X130354978Y-88478783D01*
X130351820Y-88504367D01*
X130349608Y-88541299D01*
X130348194Y-88592254D01*
X130347428Y-88659906D01*
X130347162Y-88746931D01*
X130347155Y-88766606D01*
X130347213Y-88855089D01*
X130347533Y-88923773D01*
X130348333Y-88975436D01*
X130349833Y-89012855D01*
X130352251Y-89038810D01*
X130355806Y-89056078D01*
X130360718Y-89067438D01*
X130367205Y-89075668D01*
X130371862Y-89080183D01*
X130380111Y-89086979D01*
X130390331Y-89092288D01*
X130405200Y-89096294D01*
X130427398Y-89099179D01*
X130459607Y-89101126D01*
X130504504Y-89102319D01*
X130564772Y-89102939D01*
X130643089Y-89103171D01*
X130709006Y-89103200D01*
X130801372Y-89103129D01*
X130873883Y-89102792D01*
X130929263Y-89102002D01*
X130970235Y-89100574D01*
X130999522Y-89098321D01*
X131019847Y-89095057D01*
X131033934Y-89090596D01*
X131044505Y-89084752D01*
X131051189Y-89079803D01*
X131080933Y-89056406D01*
X131080933Y-88766226D01*
X131080740Y-88669657D01*
G37*
X131080740Y-88669657D02*
X131079826Y-88593299D01*
X131077689Y-88534783D01*
X131073825Y-88491745D01*
X131067733Y-88461817D01*
X131058910Y-88442632D01*
X131046854Y-88431824D01*
X131031061Y-88427027D01*
X131011030Y-88425873D01*
X131008665Y-88425867D01*
X130986008Y-88426869D01*
X130968497Y-88431604D01*
X130955426Y-88442667D01*
X130946087Y-88462652D01*
X130939773Y-88494154D01*
X130935778Y-88539768D01*
X130933394Y-88602087D01*
X130931914Y-88683707D01*
X130931586Y-88708723D01*
X130928533Y-88950800D01*
X130863622Y-88954186D01*
X130798711Y-88957571D01*
X130798711Y-88789424D01*
X130798469Y-88723734D01*
X130797444Y-88676828D01*
X130795189Y-88644917D01*
X130791258Y-88624209D01*
X130785202Y-88610916D01*
X130776576Y-88601245D01*
X130776507Y-88601183D01*
X130742888Y-88583644D01*
X130706552Y-88584278D01*
X130675577Y-88602686D01*
X130672393Y-88606329D01*
X130664188Y-88619259D01*
X130658479Y-88636976D01*
X130654838Y-88663430D01*
X130652833Y-88702568D01*
X130652036Y-88758338D01*
X130651955Y-88794006D01*
X130651955Y-88956445D01*
X130493911Y-88956445D01*
X130493911Y-88709839D01*
X130493769Y-88628420D01*
X130493186Y-88566590D01*
X130491932Y-88521363D01*
X130489773Y-88489752D01*
X130486477Y-88468769D01*
X130481811Y-88455427D01*
X130475543Y-88446739D01*
X130473267Y-88444550D01*
X130441720Y-88428386D01*
X130405832Y-88427203D01*
X130374715Y-88440464D01*
X130364729Y-88450957D01*
X130359231Y-88461871D01*
X130354978Y-88478783D01*
X130351820Y-88504367D01*
X130349608Y-88541299D01*
X130348194Y-88592254D01*
X130347428Y-88659906D01*
X130347162Y-88746931D01*
X130347155Y-88766606D01*
X130347213Y-88855089D01*
X130347533Y-88923773D01*
X130348333Y-88975436D01*
X130349833Y-89012855D01*
X130352251Y-89038810D01*
X130355806Y-89056078D01*
X130360718Y-89067438D01*
X130367205Y-89075668D01*
X130371862Y-89080183D01*
X130380111Y-89086979D01*
X130390331Y-89092288D01*
X130405200Y-89096294D01*
X130427398Y-89099179D01*
X130459607Y-89101126D01*
X130504504Y-89102319D01*
X130564772Y-89102939D01*
X130643089Y-89103171D01*
X130709006Y-89103200D01*
X130801372Y-89103129D01*
X130873883Y-89102792D01*
X130929263Y-89102002D01*
X130970235Y-89100574D01*
X130999522Y-89098321D01*
X131019847Y-89095057D01*
X131033934Y-89090596D01*
X131044505Y-89084752D01*
X131051189Y-89079803D01*
X131080933Y-89056406D01*
X131080933Y-88766226D01*
X131080740Y-88669657D01*
G36*
X131080725Y-87881691D02*
G01*
X131076364Y-87752712D01*
X131063139Y-87643009D01*
X131040259Y-87550774D01*
X131006930Y-87474198D01*
X130962362Y-87411473D01*
X130905764Y-87360788D01*
X130836342Y-87320337D01*
X130834649Y-87319541D01*
X130772517Y-87295399D01*
X130717491Y-87286797D01*
X130662113Y-87293769D01*
X130598927Y-87316346D01*
X130589311Y-87320628D01*
X130533034Y-87349828D01*
X130489549Y-87382644D01*
X130452583Y-87424998D01*
X130415865Y-87482810D01*
X130413948Y-87486169D01*
X130389773Y-87536496D01*
X130371718Y-87593379D01*
X130359161Y-87660473D01*
X130351478Y-87741435D01*
X130348047Y-87839918D01*
X130347749Y-87874714D01*
X130347155Y-88040406D01*
X130376900Y-88063803D01*
X130386681Y-88070743D01*
X130398103Y-88076158D01*
X130413905Y-88080235D01*
X130436825Y-88083163D01*
X130469604Y-88085133D01*
X130493911Y-88085775D01*
X130493911Y-87929156D01*
X130493911Y-87835274D01*
X130495517Y-87780336D01*
X130499745Y-87723940D01*
X130505708Y-87677655D01*
X130506210Y-87674861D01*
X130528264Y-87592652D01*
X130561400Y-87528886D01*
X130607153Y-87481548D01*
X130667061Y-87448618D01*
X130682939Y-87442892D01*
X130707667Y-87437279D01*
X130732098Y-87439709D01*
X130764600Y-87451533D01*
X130780566Y-87458660D01*
X130822994Y-87482000D01*
X130852760Y-87510120D01*
X130873489Y-87541060D01*
X130900463Y-87603034D01*
X130920002Y-87682349D01*
X130931254Y-87774747D01*
X130933730Y-87841667D01*
X130934178Y-87929156D01*
X130493911Y-87929156D01*
X130493911Y-88085775D01*
X130514979Y-88086332D01*
X130575689Y-88086950D01*
X130654474Y-88087175D01*
X130716080Y-88087200D01*
X131025515Y-88087200D01*
X131053224Y-88059491D01*
X131064456Y-88047194D01*
X131072147Y-88033897D01*
X131076960Y-88015328D01*
X131079554Y-87987214D01*
X131080590Y-87945283D01*
X131080730Y-87885263D01*
X131080725Y-87881691D01*
G37*
X131080725Y-87881691D02*
X131076364Y-87752712D01*
X131063139Y-87643009D01*
X131040259Y-87550774D01*
X131006930Y-87474198D01*
X130962362Y-87411473D01*
X130905764Y-87360788D01*
X130836342Y-87320337D01*
X130834649Y-87319541D01*
X130772517Y-87295399D01*
X130717491Y-87286797D01*
X130662113Y-87293769D01*
X130598927Y-87316346D01*
X130589311Y-87320628D01*
X130533034Y-87349828D01*
X130489549Y-87382644D01*
X130452583Y-87424998D01*
X130415865Y-87482810D01*
X130413948Y-87486169D01*
X130389773Y-87536496D01*
X130371718Y-87593379D01*
X130359161Y-87660473D01*
X130351478Y-87741435D01*
X130348047Y-87839918D01*
X130347749Y-87874714D01*
X130347155Y-88040406D01*
X130376900Y-88063803D01*
X130386681Y-88070743D01*
X130398103Y-88076158D01*
X130413905Y-88080235D01*
X130436825Y-88083163D01*
X130469604Y-88085133D01*
X130493911Y-88085775D01*
X130493911Y-87929156D01*
X130493911Y-87835274D01*
X130495517Y-87780336D01*
X130499745Y-87723940D01*
X130505708Y-87677655D01*
X130506210Y-87674861D01*
X130528264Y-87592652D01*
X130561400Y-87528886D01*
X130607153Y-87481548D01*
X130667061Y-87448618D01*
X130682939Y-87442892D01*
X130707667Y-87437279D01*
X130732098Y-87439709D01*
X130764600Y-87451533D01*
X130780566Y-87458660D01*
X130822994Y-87482000D01*
X130852760Y-87510120D01*
X130873489Y-87541060D01*
X130900463Y-87603034D01*
X130920002Y-87682349D01*
X130931254Y-87774747D01*
X130933730Y-87841667D01*
X130934178Y-87929156D01*
X130493911Y-87929156D01*
X130493911Y-88085775D01*
X130514979Y-88086332D01*
X130575689Y-88086950D01*
X130654474Y-88087175D01*
X130716080Y-88087200D01*
X131025515Y-88087200D01*
X131053224Y-88059491D01*
X131064456Y-88047194D01*
X131072147Y-88033897D01*
X131076960Y-88015328D01*
X131079554Y-87987214D01*
X131080590Y-87945283D01*
X131080730Y-87885263D01*
X131080725Y-87881691D01*
G36*
X131078966Y-85155335D02*
G01*
X131071965Y-85135745D01*
X131071623Y-85134990D01*
X131051322Y-85108387D01*
X131030439Y-85093730D01*
X131020648Y-85090862D01*
X131007639Y-85091004D01*
X130989105Y-85095039D01*
X130962743Y-85103854D01*
X130926248Y-85118331D01*
X130877313Y-85139355D01*
X130813635Y-85167812D01*
X130732907Y-85204585D01*
X130688784Y-85224825D01*
X130610015Y-85261375D01*
X130537577Y-85295685D01*
X130474120Y-85326448D01*
X130422292Y-85352352D01*
X130384741Y-85372090D01*
X130364116Y-85384350D01*
X130361267Y-85386776D01*
X130348698Y-85417817D01*
X130350381Y-85452879D01*
X130365668Y-85481000D01*
X130366911Y-85482146D01*
X130383846Y-85493332D01*
X130416830Y-85512096D01*
X130461620Y-85536125D01*
X130513968Y-85563103D01*
X130533258Y-85572799D01*
X130679850Y-85645986D01*
X130520607Y-85725760D01*
X130465585Y-85754233D01*
X130417868Y-85780650D01*
X130381107Y-85802852D01*
X130358956Y-85818681D01*
X130354259Y-85824046D01*
X130347898Y-85865743D01*
X130361267Y-85900151D01*
X130375554Y-85910272D01*
X130407308Y-85927786D01*
X130453403Y-85951265D01*
X130510715Y-85979280D01*
X130576120Y-86010401D01*
X130646493Y-86043201D01*
X130718709Y-86076250D01*
X130789645Y-86108119D01*
X130856175Y-86137381D01*
X130915174Y-86162605D01*
X130963519Y-86182364D01*
X130998085Y-86195228D01*
X131015747Y-86199769D01*
X131016387Y-86199723D01*
X131038612Y-86188674D01*
X131061247Y-86166590D01*
X131062232Y-86165290D01*
X131077575Y-86138147D01*
X131077426Y-86113042D01*
X131074534Y-86103632D01*
X131068282Y-86092166D01*
X131055986Y-86079990D01*
X131035092Y-86065643D01*
X131003051Y-86047664D01*
X130957312Y-86024593D01*
X130895323Y-85994970D01*
X130838102Y-85968255D01*
X130771774Y-85937520D01*
X130712126Y-85909979D01*
X130662275Y-85887062D01*
X130625336Y-85870202D01*
X130604427Y-85860827D01*
X130601155Y-85859460D01*
X130606503Y-85853311D01*
X130628891Y-85839178D01*
X130665054Y-85818943D01*
X130711723Y-85794485D01*
X130730978Y-85784752D01*
X130795996Y-85751783D01*
X130843346Y-85726357D01*
X130875781Y-85706388D01*
X130896054Y-85689790D01*
X130906918Y-85674476D01*
X130911125Y-85658360D01*
X130911600Y-85647857D01*
X130909958Y-85629330D01*
X130903169Y-85613096D01*
X130888434Y-85596965D01*
X130862956Y-85578749D01*
X130823939Y-85556261D01*
X130768586Y-85527311D01*
X130737097Y-85511338D01*
X130686913Y-85485430D01*
X130645296Y-85462833D01*
X130615758Y-85445542D01*
X130601811Y-85435550D01*
X130601230Y-85434191D01*
X130612207Y-85427739D01*
X130640710Y-85413292D01*
X130683756Y-85392297D01*
X130738362Y-85366203D01*
X130801546Y-85336454D01*
X130832929Y-85321820D01*
X130913922Y-85283750D01*
X130976244Y-85253095D01*
X131021929Y-85228263D01*
X131053011Y-85207663D01*
X131071522Y-85189702D01*
X131079496Y-85172790D01*
X131078966Y-85155335D01*
G37*
X131078966Y-85155335D02*
X131071965Y-85135745D01*
X131071623Y-85134990D01*
X131051322Y-85108387D01*
X131030439Y-85093730D01*
X131020648Y-85090862D01*
X131007639Y-85091004D01*
X130989105Y-85095039D01*
X130962743Y-85103854D01*
X130926248Y-85118331D01*
X130877313Y-85139355D01*
X130813635Y-85167812D01*
X130732907Y-85204585D01*
X130688784Y-85224825D01*
X130610015Y-85261375D01*
X130537577Y-85295685D01*
X130474120Y-85326448D01*
X130422292Y-85352352D01*
X130384741Y-85372090D01*
X130364116Y-85384350D01*
X130361267Y-85386776D01*
X130348698Y-85417817D01*
X130350381Y-85452879D01*
X130365668Y-85481000D01*
X130366911Y-85482146D01*
X130383846Y-85493332D01*
X130416830Y-85512096D01*
X130461620Y-85536125D01*
X130513968Y-85563103D01*
X130533258Y-85572799D01*
X130679850Y-85645986D01*
X130520607Y-85725760D01*
X130465585Y-85754233D01*
X130417868Y-85780650D01*
X130381107Y-85802852D01*
X130358956Y-85818681D01*
X130354259Y-85824046D01*
X130347898Y-85865743D01*
X130361267Y-85900151D01*
X130375554Y-85910272D01*
X130407308Y-85927786D01*
X130453403Y-85951265D01*
X130510715Y-85979280D01*
X130576120Y-86010401D01*
X130646493Y-86043201D01*
X130718709Y-86076250D01*
X130789645Y-86108119D01*
X130856175Y-86137381D01*
X130915174Y-86162605D01*
X130963519Y-86182364D01*
X130998085Y-86195228D01*
X131015747Y-86199769D01*
X131016387Y-86199723D01*
X131038612Y-86188674D01*
X131061247Y-86166590D01*
X131062232Y-86165290D01*
X131077575Y-86138147D01*
X131077426Y-86113042D01*
X131074534Y-86103632D01*
X131068282Y-86092166D01*
X131055986Y-86079990D01*
X131035092Y-86065643D01*
X131003051Y-86047664D01*
X130957312Y-86024593D01*
X130895323Y-85994970D01*
X130838102Y-85968255D01*
X130771774Y-85937520D01*
X130712126Y-85909979D01*
X130662275Y-85887062D01*
X130625336Y-85870202D01*
X130604427Y-85860827D01*
X130601155Y-85859460D01*
X130606503Y-85853311D01*
X130628891Y-85839178D01*
X130665054Y-85818943D01*
X130711723Y-85794485D01*
X130730978Y-85784752D01*
X130795996Y-85751783D01*
X130843346Y-85726357D01*
X130875781Y-85706388D01*
X130896054Y-85689790D01*
X130906918Y-85674476D01*
X130911125Y-85658360D01*
X130911600Y-85647857D01*
X130909958Y-85629330D01*
X130903169Y-85613096D01*
X130888434Y-85596965D01*
X130862956Y-85578749D01*
X130823939Y-85556261D01*
X130768586Y-85527311D01*
X130737097Y-85511338D01*
X130686913Y-85485430D01*
X130645296Y-85462833D01*
X130615758Y-85445542D01*
X130601811Y-85435550D01*
X130601230Y-85434191D01*
X130612207Y-85427739D01*
X130640710Y-85413292D01*
X130683756Y-85392297D01*
X130738362Y-85366203D01*
X130801546Y-85336454D01*
X130832929Y-85321820D01*
X130913922Y-85283750D01*
X130976244Y-85253095D01*
X131021929Y-85228263D01*
X131053011Y-85207663D01*
X131071522Y-85189702D01*
X131079496Y-85172790D01*
X131078966Y-85155335D01*
G36*
X131074123Y-84711386D02*
G01*
X131059353Y-84687673D01*
X131037773Y-84661022D01*
X130716227Y-84661022D01*
X130622170Y-84661107D01*
X130548068Y-84661471D01*
X130491296Y-84662276D01*
X130449232Y-84663687D01*
X130419252Y-84665867D01*
X130398733Y-84668979D01*
X130385051Y-84673186D01*
X130375584Y-84678652D01*
X130370918Y-84682528D01*
X130350425Y-84713966D01*
X130351261Y-84749767D01*
X130368736Y-84781127D01*
X130390316Y-84807778D01*
X131037773Y-84807778D01*
X131059353Y-84781127D01*
X131075051Y-84755406D01*
X131080933Y-84734400D01*
X131074123Y-84711386D01*
G37*
X131074123Y-84711386D02*
X131059353Y-84687673D01*
X131037773Y-84661022D01*
X130716227Y-84661022D01*
X130622170Y-84661107D01*
X130548068Y-84661471D01*
X130491296Y-84662276D01*
X130449232Y-84663687D01*
X130419252Y-84665867D01*
X130398733Y-84668979D01*
X130385051Y-84673186D01*
X130375584Y-84678652D01*
X130370918Y-84682528D01*
X130350425Y-84713966D01*
X130351261Y-84749767D01*
X130368736Y-84781127D01*
X130390316Y-84807778D01*
X131037773Y-84807778D01*
X131059353Y-84781127D01*
X131075051Y-84755406D01*
X131080933Y-84734400D01*
X131074123Y-84711386D01*
G36*
X131080837Y-83936935D02*
G01*
X131080458Y-83858228D01*
X131079667Y-83797137D01*
X131078330Y-83751183D01*
X131076317Y-83717886D01*
X131073494Y-83694764D01*
X131069731Y-83679338D01*
X131064895Y-83669129D01*
X131061178Y-83664187D01*
X131028642Y-83638543D01*
X130994862Y-83635441D01*
X130964174Y-83651289D01*
X130951911Y-83661652D01*
X130943550Y-83672804D01*
X130938343Y-83688965D01*
X130935543Y-83714358D01*
X130934404Y-83753202D01*
X130934179Y-83809720D01*
X130934178Y-83820820D01*
X130934178Y-83966756D01*
X130663244Y-83966756D01*
X130577846Y-83966852D01*
X130512136Y-83967289D01*
X130463226Y-83968288D01*
X130428227Y-83970072D01*
X130404251Y-83972863D01*
X130388407Y-83976883D01*
X130377809Y-83982355D01*
X130369733Y-83989334D01*
X130349888Y-84022266D01*
X130351452Y-84056646D01*
X130374094Y-84087824D01*
X130376900Y-84090114D01*
X130387508Y-84097571D01*
X130399919Y-84103253D01*
X130417150Y-84107399D01*
X130442216Y-84110250D01*
X130478133Y-84112046D01*
X130527917Y-84113028D01*
X130594583Y-84113436D01*
X130670411Y-84113511D01*
X130934178Y-84113511D01*
X130934178Y-84252873D01*
X130934582Y-84312678D01*
X130936160Y-84354082D01*
X130939453Y-84381252D01*
X130945008Y-84398354D01*
X130953369Y-84409557D01*
X130954822Y-84410917D01*
X130988061Y-84427275D01*
X131025638Y-84425828D01*
X131058355Y-84407022D01*
X131064702Y-84399750D01*
X131069734Y-84390373D01*
X131073604Y-84376391D01*
X131076463Y-84355304D01*
X131078465Y-84324611D01*
X131079761Y-84281811D01*
X131080502Y-84224405D01*
X131080842Y-84149890D01*
X131080932Y-84055767D01*
X131080933Y-84035740D01*
X131080837Y-83936935D01*
G37*
X131080837Y-83936935D02*
X131080458Y-83858228D01*
X131079667Y-83797137D01*
X131078330Y-83751183D01*
X131076317Y-83717886D01*
X131073494Y-83694764D01*
X131069731Y-83679338D01*
X131064895Y-83669129D01*
X131061178Y-83664187D01*
X131028642Y-83638543D01*
X130994862Y-83635441D01*
X130964174Y-83651289D01*
X130951911Y-83661652D01*
X130943550Y-83672804D01*
X130938343Y-83688965D01*
X130935543Y-83714358D01*
X130934404Y-83753202D01*
X130934179Y-83809720D01*
X130934178Y-83820820D01*
X130934178Y-83966756D01*
X130663244Y-83966756D01*
X130577846Y-83966852D01*
X130512136Y-83967289D01*
X130463226Y-83968288D01*
X130428227Y-83970072D01*
X130404251Y-83972863D01*
X130388407Y-83976883D01*
X130377809Y-83982355D01*
X130369733Y-83989334D01*
X130349888Y-84022266D01*
X130351452Y-84056646D01*
X130374094Y-84087824D01*
X130376900Y-84090114D01*
X130387508Y-84097571D01*
X130399919Y-84103253D01*
X130417150Y-84107399D01*
X130442216Y-84110250D01*
X130478133Y-84112046D01*
X130527917Y-84113028D01*
X130594583Y-84113436D01*
X130670411Y-84113511D01*
X130934178Y-84113511D01*
X130934178Y-84252873D01*
X130934582Y-84312678D01*
X130936160Y-84354082D01*
X130939453Y-84381252D01*
X130945008Y-84398354D01*
X130953369Y-84409557D01*
X130954822Y-84410917D01*
X130988061Y-84427275D01*
X131025638Y-84425828D01*
X131058355Y-84407022D01*
X131064702Y-84399750D01*
X131069734Y-84390373D01*
X131073604Y-84376391D01*
X131076463Y-84355304D01*
X131078465Y-84324611D01*
X131079761Y-84281811D01*
X131080502Y-84224405D01*
X131080842Y-84149890D01*
X131080932Y-84055767D01*
X131080933Y-84035740D01*
X131080837Y-83936935D01*
G36*
X131075467Y-82671177D02*
G01*
X131053224Y-82639798D01*
X131025515Y-82612089D01*
X130716080Y-82612089D01*
X130624201Y-82612162D01*
X130552160Y-82612505D01*
X130497220Y-82613308D01*
X130456640Y-82614759D01*
X130427683Y-82617048D01*
X130407609Y-82620364D01*
X130393679Y-82624895D01*
X130383155Y-82630831D01*
X130376900Y-82635486D01*
X130352327Y-82666217D01*
X130349659Y-82701504D01*
X130364729Y-82733755D01*
X130373626Y-82744412D01*
X130385443Y-82751536D01*
X130404474Y-82755833D01*
X130435008Y-82758009D01*
X130481338Y-82758772D01*
X130517129Y-82758845D01*
X130651955Y-82758845D01*
X130651955Y-83255556D01*
X130529300Y-83255556D01*
X130473213Y-83256069D01*
X130434667Y-83258124D01*
X130408639Y-83262492D01*
X130390103Y-83269944D01*
X130376900Y-83278953D01*
X130352396Y-83309856D01*
X130349494Y-83344804D01*
X130366911Y-83378262D01*
X130376041Y-83387396D01*
X130388145Y-83393848D01*
X130406999Y-83398103D01*
X130436380Y-83400648D01*
X130480063Y-83401971D01*
X130541825Y-83402557D01*
X130556000Y-83402625D01*
X130672369Y-83403109D01*
X130768273Y-83403359D01*
X130845823Y-83403277D01*
X130907131Y-83402769D01*
X130954310Y-83401738D01*
X130989470Y-83400087D01*
X131014724Y-83397721D01*
X131032183Y-83394543D01*
X131043959Y-83390456D01*
X131052165Y-83385366D01*
X131058355Y-83379734D01*
X131078156Y-83347872D01*
X131075467Y-83314643D01*
X131053224Y-83283265D01*
X131038874Y-83270567D01*
X131023022Y-83262474D01*
X131000446Y-83257958D01*
X130965922Y-83255994D01*
X130914224Y-83255556D01*
X130798711Y-83255556D01*
X130798711Y-82758845D01*
X130917244Y-82758845D01*
X130971852Y-82758338D01*
X131008725Y-82756302D01*
X131032693Y-82751965D01*
X131048585Y-82744553D01*
X131058355Y-82736267D01*
X131078156Y-82704406D01*
X131075467Y-82671177D01*
G37*
X131075467Y-82671177D02*
X131053224Y-82639798D01*
X131025515Y-82612089D01*
X130716080Y-82612089D01*
X130624201Y-82612162D01*
X130552160Y-82612505D01*
X130497220Y-82613308D01*
X130456640Y-82614759D01*
X130427683Y-82617048D01*
X130407609Y-82620364D01*
X130393679Y-82624895D01*
X130383155Y-82630831D01*
X130376900Y-82635486D01*
X130352327Y-82666217D01*
X130349659Y-82701504D01*
X130364729Y-82733755D01*
X130373626Y-82744412D01*
X130385443Y-82751536D01*
X130404474Y-82755833D01*
X130435008Y-82758009D01*
X130481338Y-82758772D01*
X130517129Y-82758845D01*
X130651955Y-82758845D01*
X130651955Y-83255556D01*
X130529300Y-83255556D01*
X130473213Y-83256069D01*
X130434667Y-83258124D01*
X130408639Y-83262492D01*
X130390103Y-83269944D01*
X130376900Y-83278953D01*
X130352396Y-83309856D01*
X130349494Y-83344804D01*
X130366911Y-83378262D01*
X130376041Y-83387396D01*
X130388145Y-83393848D01*
X130406999Y-83398103D01*
X130436380Y-83400648D01*
X130480063Y-83401971D01*
X130541825Y-83402557D01*
X130556000Y-83402625D01*
X130672369Y-83403109D01*
X130768273Y-83403359D01*
X130845823Y-83403277D01*
X130907131Y-83402769D01*
X130954310Y-83401738D01*
X130989470Y-83400087D01*
X131014724Y-83397721D01*
X131032183Y-83394543D01*
X131043959Y-83390456D01*
X131052165Y-83385366D01*
X131058355Y-83379734D01*
X131078156Y-83347872D01*
X131075467Y-83314643D01*
X131053224Y-83283265D01*
X131038874Y-83270567D01*
X131023022Y-83262474D01*
X131000446Y-83257958D01*
X130965922Y-83255994D01*
X130914224Y-83255556D01*
X130798711Y-83255556D01*
X130798711Y-82758845D01*
X130917244Y-82758845D01*
X130971852Y-82758338D01*
X131008725Y-82756302D01*
X131032693Y-82751965D01*
X131048585Y-82744553D01*
X131058355Y-82736267D01*
X131078156Y-82704406D01*
X131075467Y-82671177D01*
G36*
X149210082Y-91300256D02*
G01*
X149182432Y-91244799D01*
X149131520Y-91195852D01*
X149112662Y-91182371D01*
X149087985Y-91167686D01*
X149061184Y-91158158D01*
X149025413Y-91152707D01*
X148973831Y-91150253D01*
X148905733Y-91149714D01*
X148812412Y-91152148D01*
X148742343Y-91160606D01*
X148690069Y-91176826D01*
X148650131Y-91202546D01*
X148617071Y-91239503D01*
X148615114Y-91242218D01*
X148595092Y-91278640D01*
X148585185Y-91322498D01*
X148582743Y-91378276D01*
X148582743Y-91468952D01*
X148494717Y-91468990D01*
X148445692Y-91469834D01*
X148416935Y-91474976D01*
X148399689Y-91488413D01*
X148385192Y-91514142D01*
X148382231Y-91520321D01*
X148368352Y-91549236D01*
X148359586Y-91571624D01*
X148358829Y-91588271D01*
X148368977Y-91599964D01*
X148392927Y-91607490D01*
X148433574Y-91611634D01*
X148493814Y-91613185D01*
X148576545Y-91612929D01*
X148684661Y-91611651D01*
X148717000Y-91611252D01*
X148828476Y-91609815D01*
X148901397Y-91608528D01*
X148901397Y-91469029D01*
X148839501Y-91468245D01*
X148799003Y-91464760D01*
X148772292Y-91456876D01*
X148751756Y-91442895D01*
X148741740Y-91433403D01*
X148712433Y-91394596D01*
X148710048Y-91360237D01*
X148734250Y-91324784D01*
X148735143Y-91323886D01*
X148753847Y-91309461D01*
X148779268Y-91300687D01*
X148818416Y-91296261D01*
X148878303Y-91294882D01*
X148891570Y-91294857D01*
X148974099Y-91298188D01*
X149031309Y-91309031D01*
X149066234Y-91328660D01*
X149081906Y-91358350D01*
X149083486Y-91375509D01*
X149076074Y-91416234D01*
X149051670Y-91444168D01*
X149007020Y-91460983D01*
X148938870Y-91468350D01*
X148901397Y-91469029D01*
X148901397Y-91608528D01*
X148914755Y-91608292D01*
X148979667Y-91606323D01*
X149027042Y-91603550D01*
X149060710Y-91599612D01*
X149084502Y-91594151D01*
X149102247Y-91586808D01*
X149117776Y-91577223D01*
X149123619Y-91573113D01*
X149178815Y-91518595D01*
X149210110Y-91449664D01*
X149218835Y-91369928D01*
X149210082Y-91300256D01*
G37*
X149210082Y-91300256D02*
X149182432Y-91244799D01*
X149131520Y-91195852D01*
X149112662Y-91182371D01*
X149087985Y-91167686D01*
X149061184Y-91158158D01*
X149025413Y-91152707D01*
X148973831Y-91150253D01*
X148905733Y-91149714D01*
X148812412Y-91152148D01*
X148742343Y-91160606D01*
X148690069Y-91176826D01*
X148650131Y-91202546D01*
X148617071Y-91239503D01*
X148615114Y-91242218D01*
X148595092Y-91278640D01*
X148585185Y-91322498D01*
X148582743Y-91378276D01*
X148582743Y-91468952D01*
X148494717Y-91468990D01*
X148445692Y-91469834D01*
X148416935Y-91474976D01*
X148399689Y-91488413D01*
X148385192Y-91514142D01*
X148382231Y-91520321D01*
X148368352Y-91549236D01*
X148359586Y-91571624D01*
X148358829Y-91588271D01*
X148368977Y-91599964D01*
X148392927Y-91607490D01*
X148433574Y-91611634D01*
X148493814Y-91613185D01*
X148576545Y-91612929D01*
X148684661Y-91611651D01*
X148717000Y-91611252D01*
X148828476Y-91609815D01*
X148901397Y-91608528D01*
X148901397Y-91469029D01*
X148839501Y-91468245D01*
X148799003Y-91464760D01*
X148772292Y-91456876D01*
X148751756Y-91442895D01*
X148741740Y-91433403D01*
X148712433Y-91394596D01*
X148710048Y-91360237D01*
X148734250Y-91324784D01*
X148735143Y-91323886D01*
X148753847Y-91309461D01*
X148779268Y-91300687D01*
X148818416Y-91296261D01*
X148878303Y-91294882D01*
X148891570Y-91294857D01*
X148974099Y-91298188D01*
X149031309Y-91309031D01*
X149066234Y-91328660D01*
X149081906Y-91358350D01*
X149083486Y-91375509D01*
X149076074Y-91416234D01*
X149051670Y-91444168D01*
X149007020Y-91460983D01*
X148938870Y-91468350D01*
X148901397Y-91469029D01*
X148901397Y-91608528D01*
X148914755Y-91608292D01*
X148979667Y-91606323D01*
X149027042Y-91603550D01*
X149060710Y-91599612D01*
X149084502Y-91594151D01*
X149102247Y-91586808D01*
X149117776Y-91577223D01*
X149123619Y-91573113D01*
X149178815Y-91518595D01*
X149210110Y-91449664D01*
X149218835Y-91369928D01*
X149210082Y-91300256D01*
G36*
X149202220Y-90183907D02*
G01*
X149175277Y-90137328D01*
X149148534Y-90104943D01*
X149120516Y-90081258D01*
X149086252Y-90064941D01*
X149040773Y-90054661D01*
X148979108Y-90049086D01*
X148896289Y-90046884D01*
X148836754Y-90046629D01*
X148617609Y-90046629D01*
X148589956Y-90108314D01*
X148562303Y-90170000D01*
X148802330Y-90177257D01*
X148891972Y-90180256D01*
X148957038Y-90183402D01*
X149001974Y-90187299D01*
X149031230Y-90192553D01*
X149049252Y-90199769D01*
X149060489Y-90209550D01*
X149062921Y-90212688D01*
X149081917Y-90260239D01*
X149074400Y-90308303D01*
X149054457Y-90336914D01*
X149040325Y-90348553D01*
X149021780Y-90356609D01*
X148993666Y-90361729D01*
X148950827Y-90364559D01*
X148888105Y-90365744D01*
X148822739Y-90365943D01*
X148740732Y-90365982D01*
X148682684Y-90367386D01*
X148643535Y-90372086D01*
X148618220Y-90382013D01*
X148601677Y-90399097D01*
X148588844Y-90425268D01*
X148575509Y-90460225D01*
X148560993Y-90498404D01*
X148818611Y-90493859D01*
X148911481Y-90492029D01*
X148980111Y-90489888D01*
X149029289Y-90486819D01*
X149063802Y-90482206D01*
X149088438Y-90475432D01*
X149107984Y-90465881D01*
X149125230Y-90454366D01*
X149180320Y-90398810D01*
X149212178Y-90331020D01*
X149219809Y-90257287D01*
X149202220Y-90183907D01*
G37*
X149202220Y-90183907D02*
X149175277Y-90137328D01*
X149148534Y-90104943D01*
X149120516Y-90081258D01*
X149086252Y-90064941D01*
X149040773Y-90054661D01*
X148979108Y-90049086D01*
X148896289Y-90046884D01*
X148836754Y-90046629D01*
X148617609Y-90046629D01*
X148589956Y-90108314D01*
X148562303Y-90170000D01*
X148802330Y-90177257D01*
X148891972Y-90180256D01*
X148957038Y-90183402D01*
X149001974Y-90187299D01*
X149031230Y-90192553D01*
X149049252Y-90199769D01*
X149060489Y-90209550D01*
X149062921Y-90212688D01*
X149081917Y-90260239D01*
X149074400Y-90308303D01*
X149054457Y-90336914D01*
X149040325Y-90348553D01*
X149021780Y-90356609D01*
X148993666Y-90361729D01*
X148950827Y-90364559D01*
X148888105Y-90365744D01*
X148822739Y-90365943D01*
X148740732Y-90365982D01*
X148682684Y-90367386D01*
X148643535Y-90372086D01*
X148618220Y-90382013D01*
X148601677Y-90399097D01*
X148588844Y-90425268D01*
X148575509Y-90460225D01*
X148560993Y-90498404D01*
X148818611Y-90493859D01*
X148911481Y-90492029D01*
X148980111Y-90489888D01*
X149029289Y-90486819D01*
X149063802Y-90482206D01*
X149088438Y-90475432D01*
X149107984Y-90465881D01*
X149125230Y-90454366D01*
X149180320Y-90398810D01*
X149212178Y-90331020D01*
X149219809Y-90257287D01*
X149202220Y-90183907D01*
G36*
X149208038Y-91858885D02*
G01*
X149172267Y-91790855D01*
X149114699Y-91740649D01*
X149077688Y-91722815D01*
X149022118Y-91708937D01*
X148951904Y-91701833D01*
X148875273Y-91701160D01*
X148800448Y-91706573D01*
X148735658Y-91717730D01*
X148689127Y-91734286D01*
X148681113Y-91739374D01*
X148621293Y-91799645D01*
X148585465Y-91871231D01*
X148574980Y-91948908D01*
X148591190Y-92027452D01*
X148600908Y-92049311D01*
X148630857Y-92091878D01*
X148670567Y-92129237D01*
X148675603Y-92132768D01*
X148699876Y-92147119D01*
X148725822Y-92156606D01*
X148759978Y-92162210D01*
X148808881Y-92164914D01*
X148879065Y-92165701D01*
X148894800Y-92165714D01*
X148899808Y-92165678D01*
X148899808Y-92020571D01*
X148833570Y-92019727D01*
X148789614Y-92016404D01*
X148761221Y-92009417D01*
X148741675Y-91997584D01*
X148735143Y-91991543D01*
X148710320Y-91956814D01*
X148711452Y-91923097D01*
X148732984Y-91889005D01*
X148755971Y-91868671D01*
X148789522Y-91856629D01*
X148842431Y-91849866D01*
X148848601Y-91849402D01*
X148944487Y-91848248D01*
X149015701Y-91860312D01*
X149061806Y-91885430D01*
X149082365Y-91923440D01*
X149083486Y-91937008D01*
X149077848Y-91972636D01*
X149058314Y-91997006D01*
X149020958Y-92011907D01*
X148961850Y-92019125D01*
X148899808Y-92020571D01*
X148899808Y-92165678D01*
X148969587Y-92165174D01*
X149021841Y-92162904D01*
X149058051Y-92157932D01*
X149084701Y-92149287D01*
X149108278Y-92135995D01*
X149112662Y-92133057D01*
X149171751Y-92083687D01*
X149206053Y-92029891D01*
X149219669Y-91964398D01*
X149220335Y-91942158D01*
X149208038Y-91858885D01*
G37*
X149208038Y-91858885D02*
X149172267Y-91790855D01*
X149114699Y-91740649D01*
X149077688Y-91722815D01*
X149022118Y-91708937D01*
X148951904Y-91701833D01*
X148875273Y-91701160D01*
X148800448Y-91706573D01*
X148735658Y-91717730D01*
X148689127Y-91734286D01*
X148681113Y-91739374D01*
X148621293Y-91799645D01*
X148585465Y-91871231D01*
X148574980Y-91948908D01*
X148591190Y-92027452D01*
X148600908Y-92049311D01*
X148630857Y-92091878D01*
X148670567Y-92129237D01*
X148675603Y-92132768D01*
X148699876Y-92147119D01*
X148725822Y-92156606D01*
X148759978Y-92162210D01*
X148808881Y-92164914D01*
X148879065Y-92165701D01*
X148894800Y-92165714D01*
X148899808Y-92165678D01*
X148899808Y-92020571D01*
X148833570Y-92019727D01*
X148789614Y-92016404D01*
X148761221Y-92009417D01*
X148741675Y-91997584D01*
X148735143Y-91991543D01*
X148710320Y-91956814D01*
X148711452Y-91923097D01*
X148732984Y-91889005D01*
X148755971Y-91868671D01*
X148789522Y-91856629D01*
X148842431Y-91849866D01*
X148848601Y-91849402D01*
X148944487Y-91848248D01*
X149015701Y-91860312D01*
X149061806Y-91885430D01*
X149082365Y-91923440D01*
X149083486Y-91937008D01*
X149077848Y-91972636D01*
X149058314Y-91997006D01*
X149020958Y-92011907D01*
X148961850Y-92019125D01*
X148899808Y-92020571D01*
X148899808Y-92165678D01*
X148969587Y-92165174D01*
X149021841Y-92162904D01*
X149058051Y-92157932D01*
X149084701Y-92149287D01*
X149108278Y-92135995D01*
X149112662Y-92133057D01*
X149171751Y-92083687D01*
X149206053Y-92029891D01*
X149219669Y-91964398D01*
X149220335Y-91942158D01*
X149208038Y-91858885D01*
G36*
X149198761Y-90731697D02*
G01*
X149160265Y-90674473D01*
X149104665Y-90630251D01*
X149033914Y-90603833D01*
X148981838Y-90598490D01*
X148960107Y-90599097D01*
X148943469Y-90604178D01*
X148928563Y-90618145D01*
X148912027Y-90645411D01*
X148890502Y-90690388D01*
X148860626Y-90757489D01*
X148860476Y-90757829D01*
X148832187Y-90819593D01*
X148807067Y-90870241D01*
X148787821Y-90904596D01*
X148777152Y-90917482D01*
X148777066Y-90917486D01*
X148753834Y-90906128D01*
X148728226Y-90879569D01*
X148709779Y-90849077D01*
X148706114Y-90833630D01*
X148718788Y-90791485D01*
X148750529Y-90755192D01*
X148785428Y-90737483D01*
X148811155Y-90720448D01*
X148840454Y-90687078D01*
X148865765Y-90647851D01*
X148879529Y-90613244D01*
X148880286Y-90606007D01*
X148867840Y-90597861D01*
X148836028Y-90597370D01*
X148793134Y-90603357D01*
X148747442Y-90614643D01*
X148707239Y-90630050D01*
X148705678Y-90630829D01*
X148640938Y-90677196D01*
X148596903Y-90737289D01*
X148575289Y-90805535D01*
X148577815Y-90876362D01*
X148606196Y-90944196D01*
X148608192Y-90947212D01*
X148656552Y-91000573D01*
X148719648Y-91035660D01*
X148802613Y-91055078D01*
X148825922Y-91057684D01*
X148935945Y-91062299D01*
X148987252Y-91056767D01*
X148987252Y-90917486D01*
X148955247Y-90915676D01*
X148945907Y-90905778D01*
X148952895Y-90881102D01*
X148969413Y-90842205D01*
X148990119Y-90798725D01*
X148990667Y-90797644D01*
X149010051Y-90760791D01*
X149022987Y-90746000D01*
X149036549Y-90749647D01*
X149054368Y-90765005D01*
X149080155Y-90804077D01*
X149082050Y-90846154D01*
X149063283Y-90883897D01*
X149027085Y-90909966D01*
X148987252Y-90917486D01*
X148987252Y-91056767D01*
X149023973Y-91052806D01*
X149093788Y-91028450D01*
X149142698Y-90994544D01*
X149192122Y-90933347D01*
X149216641Y-90865937D01*
X149218203Y-90797120D01*
X149198761Y-90731697D01*
G37*
X149198761Y-90731697D02*
X149160265Y-90674473D01*
X149104665Y-90630251D01*
X149033914Y-90603833D01*
X148981838Y-90598490D01*
X148960107Y-90599097D01*
X148943469Y-90604178D01*
X148928563Y-90618145D01*
X148912027Y-90645411D01*
X148890502Y-90690388D01*
X148860626Y-90757489D01*
X148860476Y-90757829D01*
X148832187Y-90819593D01*
X148807067Y-90870241D01*
X148787821Y-90904596D01*
X148777152Y-90917482D01*
X148777066Y-90917486D01*
X148753834Y-90906128D01*
X148728226Y-90879569D01*
X148709779Y-90849077D01*
X148706114Y-90833630D01*
X148718788Y-90791485D01*
X148750529Y-90755192D01*
X148785428Y-90737483D01*
X148811155Y-90720448D01*
X148840454Y-90687078D01*
X148865765Y-90647851D01*
X148879529Y-90613244D01*
X148880286Y-90606007D01*
X148867840Y-90597861D01*
X148836028Y-90597370D01*
X148793134Y-90603357D01*
X148747442Y-90614643D01*
X148707239Y-90630050D01*
X148705678Y-90630829D01*
X148640938Y-90677196D01*
X148596903Y-90737289D01*
X148575289Y-90805535D01*
X148577815Y-90876362D01*
X148606196Y-90944196D01*
X148608192Y-90947212D01*
X148656552Y-91000573D01*
X148719648Y-91035660D01*
X148802613Y-91055078D01*
X148825922Y-91057684D01*
X148935945Y-91062299D01*
X148987252Y-91056767D01*
X148987252Y-90917486D01*
X148955247Y-90915676D01*
X148945907Y-90905778D01*
X148952895Y-90881102D01*
X148969413Y-90842205D01*
X148990119Y-90798725D01*
X148990667Y-90797644D01*
X149010051Y-90760791D01*
X149022987Y-90746000D01*
X149036549Y-90749647D01*
X149054368Y-90765005D01*
X149080155Y-90804077D01*
X149082050Y-90846154D01*
X149063283Y-90883897D01*
X149027085Y-90909966D01*
X148987252Y-90917486D01*
X148987252Y-91056767D01*
X149023973Y-91052806D01*
X149093788Y-91028450D01*
X149142698Y-90994544D01*
X149192122Y-90933347D01*
X149216641Y-90865937D01*
X149218203Y-90797120D01*
X149198761Y-90731697D01*
G36*
X149278711Y-89524114D02*
G01*
X149219387Y-89519861D01*
X149184428Y-89514975D01*
X149169180Y-89508205D01*
X149168985Y-89498298D01*
X149170805Y-89495086D01*
X149183985Y-89452356D01*
X149183215Y-89396773D01*
X149169667Y-89340263D01*
X149152139Y-89304918D01*
X149124139Y-89268679D01*
X149092451Y-89242187D01*
X149052187Y-89224001D01*
X148998457Y-89212678D01*
X148926374Y-89206778D01*
X148831049Y-89204857D01*
X148812763Y-89204823D01*
X148607354Y-89204800D01*
X148591420Y-89250509D01*
X148580580Y-89282973D01*
X148575532Y-89300785D01*
X148575486Y-89301309D01*
X148589172Y-89303063D01*
X148626924Y-89304556D01*
X148683776Y-89305674D01*
X148754766Y-89306303D01*
X148797927Y-89306400D01*
X148883027Y-89306602D01*
X148944019Y-89307642D01*
X148985823Y-89310169D01*
X149013358Y-89314836D01*
X149031544Y-89322293D01*
X149045302Y-89333189D01*
X149051927Y-89339993D01*
X149078625Y-89386728D01*
X149080625Y-89437728D01*
X149058045Y-89483999D01*
X149049893Y-89492556D01*
X149034564Y-89505107D01*
X149016382Y-89513812D01*
X148990091Y-89519369D01*
X148950438Y-89522474D01*
X148892168Y-89523824D01*
X148811827Y-89524114D01*
X148607354Y-89524114D01*
X148591420Y-89569823D01*
X148580580Y-89602287D01*
X148575532Y-89620099D01*
X148575486Y-89620623D01*
X148589377Y-89621963D01*
X148628561Y-89623172D01*
X148689300Y-89624199D01*
X148767859Y-89624998D01*
X148860502Y-89625519D01*
X148963491Y-89625714D01*
X149360658Y-89625714D01*
X149380556Y-89578543D01*
X149400453Y-89531371D01*
X149278711Y-89524114D01*
G37*
X149278711Y-89524114D02*
X149219387Y-89519861D01*
X149184428Y-89514975D01*
X149169180Y-89508205D01*
X149168985Y-89498298D01*
X149170805Y-89495086D01*
X149183985Y-89452356D01*
X149183215Y-89396773D01*
X149169667Y-89340263D01*
X149152139Y-89304918D01*
X149124139Y-89268679D01*
X149092451Y-89242187D01*
X149052187Y-89224001D01*
X148998457Y-89212678D01*
X148926374Y-89206778D01*
X148831049Y-89204857D01*
X148812763Y-89204823D01*
X148607354Y-89204800D01*
X148591420Y-89250509D01*
X148580580Y-89282973D01*
X148575532Y-89300785D01*
X148575486Y-89301309D01*
X148589172Y-89303063D01*
X148626924Y-89304556D01*
X148683776Y-89305674D01*
X148754766Y-89306303D01*
X148797927Y-89306400D01*
X148883027Y-89306602D01*
X148944019Y-89307642D01*
X148985823Y-89310169D01*
X149013358Y-89314836D01*
X149031544Y-89322293D01*
X149045302Y-89333189D01*
X149051927Y-89339993D01*
X149078625Y-89386728D01*
X149080625Y-89437728D01*
X149058045Y-89483999D01*
X149049893Y-89492556D01*
X149034564Y-89505107D01*
X149016382Y-89513812D01*
X148990091Y-89519369D01*
X148950438Y-89522474D01*
X148892168Y-89523824D01*
X148811827Y-89524114D01*
X148607354Y-89524114D01*
X148591420Y-89569823D01*
X148580580Y-89602287D01*
X148575532Y-89620099D01*
X148575486Y-89620623D01*
X148589377Y-89621963D01*
X148628561Y-89623172D01*
X148689300Y-89624199D01*
X148767859Y-89624998D01*
X148860502Y-89625519D01*
X148963491Y-89625714D01*
X149360658Y-89625714D01*
X149380556Y-89578543D01*
X149400453Y-89531371D01*
X149278711Y-89524114D01*
G36*
X149179032Y-88860256D02*
G01*
X149157913Y-88803384D01*
X149157507Y-88802733D01*
X149131620Y-88767560D01*
X149101367Y-88741593D01*
X149061942Y-88723330D01*
X149008538Y-88711268D01*
X148936349Y-88703904D01*
X148840568Y-88699736D01*
X148826922Y-88699371D01*
X148621158Y-88694124D01*
X148598322Y-88738284D01*
X148582890Y-88770237D01*
X148575577Y-88789530D01*
X148575486Y-88790422D01*
X148588978Y-88793761D01*
X148625374Y-88796413D01*
X148678548Y-88798044D01*
X148721607Y-88798400D01*
X148791359Y-88798408D01*
X148835163Y-88801597D01*
X148856056Y-88812712D01*
X148857075Y-88836499D01*
X148841259Y-88877704D01*
X148812185Y-88939914D01*
X148788037Y-88985659D01*
X148767087Y-89009187D01*
X148744253Y-89016104D01*
X148743123Y-89016114D01*
X148703788Y-89004701D01*
X148682538Y-88970908D01*
X148679461Y-88919191D01*
X148679994Y-88881939D01*
X148669265Y-88862297D01*
X148643495Y-88850048D01*
X148610663Y-88842998D01*
X148592034Y-88853158D01*
X148589368Y-88856983D01*
X148578660Y-88892999D01*
X148577144Y-88943434D01*
X148584241Y-88995374D01*
X148597212Y-89032178D01*
X148640415Y-89083062D01*
X148700554Y-89111986D01*
X148747538Y-89117714D01*
X148789918Y-89113343D01*
X148824512Y-89097525D01*
X148855237Y-89066203D01*
X148886010Y-89015322D01*
X148920748Y-88940824D01*
X148922712Y-88936286D01*
X148953713Y-88869179D01*
X148979138Y-88827768D01*
X149001986Y-88810019D01*
X149025255Y-88813893D01*
X149051944Y-88837357D01*
X149058086Y-88844373D01*
X149081900Y-88891370D01*
X149080897Y-88940067D01*
X149057549Y-88982478D01*
X149014325Y-89010616D01*
X149005840Y-89013231D01*
X148964692Y-89038692D01*
X148944872Y-89070999D01*
X148925230Y-89117714D01*
X148976050Y-89117714D01*
X149049918Y-89103504D01*
X149117673Y-89061325D01*
X149140339Y-89039376D01*
X149169431Y-88989483D01*
X149182600Y-88926033D01*
X149179032Y-88860256D01*
G37*
X149179032Y-88860256D02*
X149157913Y-88803384D01*
X149157507Y-88802733D01*
X149131620Y-88767560D01*
X149101367Y-88741593D01*
X149061942Y-88723330D01*
X149008538Y-88711268D01*
X148936349Y-88703904D01*
X148840568Y-88699736D01*
X148826922Y-88699371D01*
X148621158Y-88694124D01*
X148598322Y-88738284D01*
X148582890Y-88770237D01*
X148575577Y-88789530D01*
X148575486Y-88790422D01*
X148588978Y-88793761D01*
X148625374Y-88796413D01*
X148678548Y-88798044D01*
X148721607Y-88798400D01*
X148791359Y-88798408D01*
X148835163Y-88801597D01*
X148856056Y-88812712D01*
X148857075Y-88836499D01*
X148841259Y-88877704D01*
X148812185Y-88939914D01*
X148788037Y-88985659D01*
X148767087Y-89009187D01*
X148744253Y-89016104D01*
X148743123Y-89016114D01*
X148703788Y-89004701D01*
X148682538Y-88970908D01*
X148679461Y-88919191D01*
X148679994Y-88881939D01*
X148669265Y-88862297D01*
X148643495Y-88850048D01*
X148610663Y-88842998D01*
X148592034Y-88853158D01*
X148589368Y-88856983D01*
X148578660Y-88892999D01*
X148577144Y-88943434D01*
X148584241Y-88995374D01*
X148597212Y-89032178D01*
X148640415Y-89083062D01*
X148700554Y-89111986D01*
X148747538Y-89117714D01*
X148789918Y-89113343D01*
X148824512Y-89097525D01*
X148855237Y-89066203D01*
X148886010Y-89015322D01*
X148920748Y-88940824D01*
X148922712Y-88936286D01*
X148953713Y-88869179D01*
X148979138Y-88827768D01*
X149001986Y-88810019D01*
X149025255Y-88813893D01*
X149051944Y-88837357D01*
X149058086Y-88844373D01*
X149081900Y-88891370D01*
X149080897Y-88940067D01*
X149057549Y-88982478D01*
X149014325Y-89010616D01*
X149005840Y-89013231D01*
X148964692Y-89038692D01*
X148944872Y-89070999D01*
X148925230Y-89117714D01*
X148976050Y-89117714D01*
X149049918Y-89103504D01*
X149117673Y-89061325D01*
X149140339Y-89039376D01*
X149169431Y-88989483D01*
X149182600Y-88926033D01*
X149179032Y-88860256D01*
G36*
X149180245Y-88370074D02*
G01*
X149155916Y-88304142D01*
X149112883Y-88250727D01*
X149082591Y-88229836D01*
X149027006Y-88207061D01*
X148986814Y-88207534D01*
X148959783Y-88231438D01*
X148955187Y-88240283D01*
X148940856Y-88278470D01*
X148944528Y-88297972D01*
X148968593Y-88304578D01*
X148981886Y-88304914D01*
X149030790Y-88317008D01*
X149065001Y-88348529D01*
X149081524Y-88392341D01*
X149077366Y-88441305D01*
X149055773Y-88481106D01*
X149043456Y-88494550D01*
X149028513Y-88504079D01*
X149005925Y-88510515D01*
X148970672Y-88514683D01*
X148917734Y-88517403D01*
X148842093Y-88519498D01*
X148818143Y-88520040D01*
X148736210Y-88522019D01*
X148678545Y-88524269D01*
X148640392Y-88527643D01*
X148616996Y-88532994D01*
X148603602Y-88541176D01*
X148595455Y-88553041D01*
X148591856Y-88560638D01*
X148579548Y-88592898D01*
X148575486Y-88611889D01*
X148589052Y-88618164D01*
X148630066Y-88621994D01*
X148699001Y-88623400D01*
X148796331Y-88622402D01*
X148811343Y-88622092D01*
X148900141Y-88619899D01*
X148964981Y-88617307D01*
X149010933Y-88613618D01*
X149043065Y-88608136D01*
X149066447Y-88600165D01*
X149086148Y-88589007D01*
X149094590Y-88583170D01*
X149131943Y-88549704D01*
X149160997Y-88512273D01*
X149163533Y-88507691D01*
X149183557Y-88440574D01*
X149180245Y-88370074D01*
G37*
X149180245Y-88370074D02*
X149155916Y-88304142D01*
X149112883Y-88250727D01*
X149082591Y-88229836D01*
X149027006Y-88207061D01*
X148986814Y-88207534D01*
X148959783Y-88231438D01*
X148955187Y-88240283D01*
X148940856Y-88278470D01*
X148944528Y-88297972D01*
X148968593Y-88304578D01*
X148981886Y-88304914D01*
X149030790Y-88317008D01*
X149065001Y-88348529D01*
X149081524Y-88392341D01*
X149077366Y-88441305D01*
X149055773Y-88481106D01*
X149043456Y-88494550D01*
X149028513Y-88504079D01*
X149005925Y-88510515D01*
X148970672Y-88514683D01*
X148917734Y-88517403D01*
X148842093Y-88519498D01*
X148818143Y-88520040D01*
X148736210Y-88522019D01*
X148678545Y-88524269D01*
X148640392Y-88527643D01*
X148616996Y-88532994D01*
X148603602Y-88541176D01*
X148595455Y-88553041D01*
X148591856Y-88560638D01*
X148579548Y-88592898D01*
X148575486Y-88611889D01*
X148589052Y-88618164D01*
X148630066Y-88621994D01*
X148699001Y-88623400D01*
X148796331Y-88622402D01*
X148811343Y-88622092D01*
X148900141Y-88619899D01*
X148964981Y-88617307D01*
X149010933Y-88613618D01*
X149043065Y-88608136D01*
X149066447Y-88600165D01*
X149086148Y-88589007D01*
X149094590Y-88583170D01*
X149131943Y-88549704D01*
X149160997Y-88512273D01*
X149163533Y-88507691D01*
X149183557Y-88440574D01*
X149180245Y-88370074D01*
G36*
X149064642Y-87709883D02*
G01*
X148956163Y-87710067D01*
X148872713Y-87710781D01*
X148810296Y-87712325D01*
X148764915Y-87714999D01*
X148732571Y-87719106D01*
X148709267Y-87724945D01*
X148691005Y-87732818D01*
X148680582Y-87738779D01*
X148624055Y-87788145D01*
X148588623Y-87850736D01*
X148575910Y-87919987D01*
X148587537Y-87989332D01*
X148608432Y-88030625D01*
X148644578Y-88073975D01*
X148688724Y-88103519D01*
X148746538Y-88121345D01*
X148823687Y-88129537D01*
X148880286Y-88130698D01*
X148884353Y-88130542D01*
X148884353Y-88029143D01*
X148819450Y-88028524D01*
X148776486Y-88025686D01*
X148748378Y-88019160D01*
X148728047Y-88007477D01*
X148712712Y-87993517D01*
X148683110Y-87946635D01*
X148680581Y-87896299D01*
X148705295Y-87848724D01*
X148708644Y-87845021D01*
X148726065Y-87829217D01*
X148746791Y-87819307D01*
X148777638Y-87813942D01*
X148825423Y-87811772D01*
X148878252Y-87811429D01*
X148944619Y-87812173D01*
X148988894Y-87815252D01*
X149017991Y-87821939D01*
X149038827Y-87833504D01*
X149049893Y-87842987D01*
X149077802Y-87887040D01*
X149081157Y-87937776D01*
X149059841Y-87986204D01*
X149051927Y-87995550D01*
X149034353Y-88011460D01*
X149013413Y-88021390D01*
X148982218Y-88026722D01*
X148933878Y-88028837D01*
X148884353Y-88029143D01*
X148884353Y-88130542D01*
X148971432Y-88127190D01*
X149039914Y-88115274D01*
X149091400Y-88092865D01*
X149131557Y-88057876D01*
X149152139Y-88030625D01*
X149174375Y-87981093D01*
X149184696Y-87923684D01*
X149181933Y-87870318D01*
X149170788Y-87840457D01*
X149167617Y-87828739D01*
X149179443Y-87820963D01*
X149211134Y-87815535D01*
X149259407Y-87811429D01*
X149313171Y-87806933D01*
X149345518Y-87800687D01*
X149364015Y-87789324D01*
X149376230Y-87769472D01*
X149381638Y-87757000D01*
X149401399Y-87709829D01*
X149064642Y-87709883D01*
G37*
X149064642Y-87709883D02*
X148956163Y-87710067D01*
X148872713Y-87710781D01*
X148810296Y-87712325D01*
X148764915Y-87714999D01*
X148732571Y-87719106D01*
X148709267Y-87724945D01*
X148691005Y-87732818D01*
X148680582Y-87738779D01*
X148624055Y-87788145D01*
X148588623Y-87850736D01*
X148575910Y-87919987D01*
X148587537Y-87989332D01*
X148608432Y-88030625D01*
X148644578Y-88073975D01*
X148688724Y-88103519D01*
X148746538Y-88121345D01*
X148823687Y-88129537D01*
X148880286Y-88130698D01*
X148884353Y-88130542D01*
X148884353Y-88029143D01*
X148819450Y-88028524D01*
X148776486Y-88025686D01*
X148748378Y-88019160D01*
X148728047Y-88007477D01*
X148712712Y-87993517D01*
X148683110Y-87946635D01*
X148680581Y-87896299D01*
X148705295Y-87848724D01*
X148708644Y-87845021D01*
X148726065Y-87829217D01*
X148746791Y-87819307D01*
X148777638Y-87813942D01*
X148825423Y-87811772D01*
X148878252Y-87811429D01*
X148944619Y-87812173D01*
X148988894Y-87815252D01*
X149017991Y-87821939D01*
X149038827Y-87833504D01*
X149049893Y-87842987D01*
X149077802Y-87887040D01*
X149081157Y-87937776D01*
X149059841Y-87986204D01*
X149051927Y-87995550D01*
X149034353Y-88011460D01*
X149013413Y-88021390D01*
X148982218Y-88026722D01*
X148933878Y-88028837D01*
X148884353Y-88029143D01*
X148884353Y-88130542D01*
X148971432Y-88127190D01*
X149039914Y-88115274D01*
X149091400Y-88092865D01*
X149131557Y-88057876D01*
X149152139Y-88030625D01*
X149174375Y-87981093D01*
X149184696Y-87923684D01*
X149181933Y-87870318D01*
X149170788Y-87840457D01*
X149167617Y-87828739D01*
X149179443Y-87820963D01*
X149211134Y-87815535D01*
X149259407Y-87811429D01*
X149313171Y-87806933D01*
X149345518Y-87800687D01*
X149364015Y-87789324D01*
X149376230Y-87769472D01*
X149381638Y-87757000D01*
X149401399Y-87709829D01*
X149064642Y-87709883D01*
G36*
X149171337Y-87120167D02*
G01*
X149133150Y-87117952D01*
X149075114Y-87116216D01*
X149001820Y-87115101D01*
X148924945Y-87114743D01*
X148664804Y-87114743D01*
X148618873Y-87160674D01*
X148590571Y-87192325D01*
X148579107Y-87220110D01*
X148579832Y-87258085D01*
X148581679Y-87273160D01*
X148587052Y-87320274D01*
X148590131Y-87359244D01*
X148590415Y-87368743D01*
X148588555Y-87400767D01*
X148583886Y-87446568D01*
X148581679Y-87464326D01*
X148578265Y-87507943D01*
X148585680Y-87537255D01*
X148608573Y-87566320D01*
X148618873Y-87576812D01*
X148664804Y-87622743D01*
X149151398Y-87622743D01*
X149168242Y-87585774D01*
X149180718Y-87553941D01*
X149185086Y-87535317D01*
X149171282Y-87530542D01*
X149132714Y-87526079D01*
X149073644Y-87522225D01*
X148998337Y-87519278D01*
X148934714Y-87517857D01*
X148684343Y-87513886D01*
X148679444Y-87479241D01*
X148682869Y-87447732D01*
X148693959Y-87432292D01*
X148714692Y-87427977D01*
X148758855Y-87424292D01*
X148820854Y-87421531D01*
X148895091Y-87419988D01*
X148933294Y-87419765D01*
X149153217Y-87419543D01*
X149169151Y-87373834D01*
X149179985Y-87341482D01*
X149185038Y-87323885D01*
X149185086Y-87323377D01*
X149171352Y-87321612D01*
X149133270Y-87319671D01*
X149075518Y-87317718D01*
X149002773Y-87315916D01*
X148934714Y-87314657D01*
X148684343Y-87310686D01*
X148684343Y-87223600D01*
X148912760Y-87219604D01*
X149141178Y-87215608D01*
X149163132Y-87173153D01*
X149178207Y-87141808D01*
X149185049Y-87123256D01*
X149185086Y-87122721D01*
X149171337Y-87120167D01*
G37*
X149171337Y-87120167D02*
X149133150Y-87117952D01*
X149075114Y-87116216D01*
X149001820Y-87115101D01*
X148924945Y-87114743D01*
X148664804Y-87114743D01*
X148618873Y-87160674D01*
X148590571Y-87192325D01*
X148579107Y-87220110D01*
X148579832Y-87258085D01*
X148581679Y-87273160D01*
X148587052Y-87320274D01*
X148590131Y-87359244D01*
X148590415Y-87368743D01*
X148588555Y-87400767D01*
X148583886Y-87446568D01*
X148581679Y-87464326D01*
X148578265Y-87507943D01*
X148585680Y-87537255D01*
X148608573Y-87566320D01*
X148618873Y-87576812D01*
X148664804Y-87622743D01*
X149151398Y-87622743D01*
X149168242Y-87585774D01*
X149180718Y-87553941D01*
X149185086Y-87535317D01*
X149171282Y-87530542D01*
X149132714Y-87526079D01*
X149073644Y-87522225D01*
X148998337Y-87519278D01*
X148934714Y-87517857D01*
X148684343Y-87513886D01*
X148679444Y-87479241D01*
X148682869Y-87447732D01*
X148693959Y-87432292D01*
X148714692Y-87427977D01*
X148758855Y-87424292D01*
X148820854Y-87421531D01*
X148895091Y-87419988D01*
X148933294Y-87419765D01*
X149153217Y-87419543D01*
X149169151Y-87373834D01*
X149179985Y-87341482D01*
X149185038Y-87323885D01*
X149185086Y-87323377D01*
X149171352Y-87321612D01*
X149133270Y-87319671D01*
X149075518Y-87317718D01*
X149002773Y-87315916D01*
X148934714Y-87314657D01*
X148684343Y-87310686D01*
X148684343Y-87223600D01*
X148912760Y-87219604D01*
X149141178Y-87215608D01*
X149163132Y-87173153D01*
X149178207Y-87141808D01*
X149185049Y-87123256D01*
X149185086Y-87122721D01*
X149171337Y-87120167D01*
G36*
X149173665Y-86755124D02*
G01*
X149154656Y-86713333D01*
X149131622Y-86680531D01*
X149105867Y-86656497D01*
X149072642Y-86639903D01*
X149027200Y-86629423D01*
X148964793Y-86623729D01*
X148880673Y-86621493D01*
X148825279Y-86621257D01*
X148609174Y-86621257D01*
X148592330Y-86658226D01*
X148580019Y-86687344D01*
X148575486Y-86701769D01*
X148588975Y-86704528D01*
X148625347Y-86706718D01*
X148678458Y-86708058D01*
X148720628Y-86708343D01*
X148781553Y-86709566D01*
X148829885Y-86712864D01*
X148859482Y-86717679D01*
X148865771Y-86721504D01*
X148859348Y-86747217D01*
X148842875Y-86787582D01*
X148820542Y-86834321D01*
X148796543Y-86879155D01*
X148775070Y-86913807D01*
X148760315Y-86929998D01*
X148760155Y-86930062D01*
X148732848Y-86928670D01*
X148706781Y-86916182D01*
X148685608Y-86894257D01*
X148678526Y-86862257D01*
X148679351Y-86834908D01*
X148679958Y-86796174D01*
X148670884Y-86775842D01*
X148646908Y-86763631D01*
X148642387Y-86762091D01*
X148608194Y-86756797D01*
X148587432Y-86770953D01*
X148577538Y-86807852D01*
X148575708Y-86847711D01*
X148589273Y-86919438D01*
X148608645Y-86956568D01*
X148654155Y-87002424D01*
X148710017Y-87026744D01*
X148769043Y-87028927D01*
X148824047Y-87008371D01*
X148858514Y-86977451D01*
X148877811Y-86946580D01*
X148902241Y-86898058D01*
X148927015Y-86841515D01*
X148930801Y-86832090D01*
X148958209Y-86769981D01*
X148982366Y-86734178D01*
X149006381Y-86722663D01*
X149033365Y-86733420D01*
X149054457Y-86751886D01*
X149080428Y-86795531D01*
X149082376Y-86843554D01*
X149062363Y-86887594D01*
X149022449Y-86919291D01*
X149012152Y-86923451D01*
X148974276Y-86947673D01*
X148946158Y-86983035D01*
X148923083Y-87027657D01*
X148988515Y-87027657D01*
X149028494Y-87025031D01*
X149060003Y-87013770D01*
X149093622Y-86988801D01*
X149119516Y-86964831D01*
X149156183Y-86927559D01*
X149175879Y-86898599D01*
X149183780Y-86867495D01*
X149185086Y-86832287D01*
X149173665Y-86755124D01*
G37*
X149173665Y-86755124D02*
X149154656Y-86713333D01*
X149131622Y-86680531D01*
X149105867Y-86656497D01*
X149072642Y-86639903D01*
X149027200Y-86629423D01*
X148964793Y-86623729D01*
X148880673Y-86621493D01*
X148825279Y-86621257D01*
X148609174Y-86621257D01*
X148592330Y-86658226D01*
X148580019Y-86687344D01*
X148575486Y-86701769D01*
X148588975Y-86704528D01*
X148625347Y-86706718D01*
X148678458Y-86708058D01*
X148720628Y-86708343D01*
X148781553Y-86709566D01*
X148829885Y-86712864D01*
X148859482Y-86717679D01*
X148865771Y-86721504D01*
X148859348Y-86747217D01*
X148842875Y-86787582D01*
X148820542Y-86834321D01*
X148796543Y-86879155D01*
X148775070Y-86913807D01*
X148760315Y-86929998D01*
X148760155Y-86930062D01*
X148732848Y-86928670D01*
X148706781Y-86916182D01*
X148685608Y-86894257D01*
X148678526Y-86862257D01*
X148679351Y-86834908D01*
X148679958Y-86796174D01*
X148670884Y-86775842D01*
X148646908Y-86763631D01*
X148642387Y-86762091D01*
X148608194Y-86756797D01*
X148587432Y-86770953D01*
X148577538Y-86807852D01*
X148575708Y-86847711D01*
X148589273Y-86919438D01*
X148608645Y-86956568D01*
X148654155Y-87002424D01*
X148710017Y-87026744D01*
X148769043Y-87028927D01*
X148824047Y-87008371D01*
X148858514Y-86977451D01*
X148877811Y-86946580D01*
X148902241Y-86898058D01*
X148927015Y-86841515D01*
X148930801Y-86832090D01*
X148958209Y-86769981D01*
X148982366Y-86734178D01*
X149006381Y-86722663D01*
X149033365Y-86733420D01*
X149054457Y-86751886D01*
X149080428Y-86795531D01*
X149082376Y-86843554D01*
X149062363Y-86887594D01*
X149022449Y-86919291D01*
X149012152Y-86923451D01*
X148974276Y-86947673D01*
X148946158Y-86983035D01*
X148923083Y-87027657D01*
X148988515Y-87027657D01*
X149028494Y-87025031D01*
X149060003Y-87013770D01*
X149093622Y-86988801D01*
X149119516Y-86964831D01*
X149156183Y-86927559D01*
X149175879Y-86898599D01*
X149183780Y-86867495D01*
X149185086Y-86832287D01*
X149173665Y-86755124D01*
G36*
X149171248Y-86247400D02*
G01*
X149163666Y-86230052D01*
X149130872Y-86188644D01*
X149083453Y-86153235D01*
X149032849Y-86131336D01*
X149007902Y-86127771D01*
X148973073Y-86139721D01*
X148954643Y-86165933D01*
X148943484Y-86194036D01*
X148941428Y-86206905D01*
X148956351Y-86213171D01*
X148988825Y-86225544D01*
X149003498Y-86230972D01*
X149054256Y-86261410D01*
X149079573Y-86305480D01*
X149078794Y-86361990D01*
X149077797Y-86366175D01*
X149063493Y-86396345D01*
X149035607Y-86418524D01*
X148990713Y-86433673D01*
X148925385Y-86442750D01*
X148836196Y-86446714D01*
X148788739Y-86447086D01*
X148713929Y-86447270D01*
X148662931Y-86448478D01*
X148630529Y-86451691D01*
X148611505Y-86457891D01*
X148600644Y-86468060D01*
X148592728Y-86483181D01*
X148592330Y-86484054D01*
X148580019Y-86513172D01*
X148575486Y-86527597D01*
X148589191Y-86529814D01*
X148627075Y-86531711D01*
X148684285Y-86533153D01*
X148755973Y-86534002D01*
X148808435Y-86534171D01*
X148909953Y-86533308D01*
X148986968Y-86529930D01*
X149043977Y-86522858D01*
X149085474Y-86510912D01*
X149115957Y-86492910D01*
X149139920Y-86467673D01*
X149156645Y-86442753D01*
X149178903Y-86382829D01*
X149183924Y-86313089D01*
X149171248Y-86247400D01*
G37*
X149171248Y-86247400D02*
X149163666Y-86230052D01*
X149130872Y-86188644D01*
X149083453Y-86153235D01*
X149032849Y-86131336D01*
X149007902Y-86127771D01*
X148973073Y-86139721D01*
X148954643Y-86165933D01*
X148943484Y-86194036D01*
X148941428Y-86206905D01*
X148956351Y-86213171D01*
X148988825Y-86225544D01*
X149003498Y-86230972D01*
X149054256Y-86261410D01*
X149079573Y-86305480D01*
X149078794Y-86361990D01*
X149077797Y-86366175D01*
X149063493Y-86396345D01*
X149035607Y-86418524D01*
X148990713Y-86433673D01*
X148925385Y-86442750D01*
X148836196Y-86446714D01*
X148788739Y-86447086D01*
X148713929Y-86447270D01*
X148662931Y-86448478D01*
X148630529Y-86451691D01*
X148611505Y-86457891D01*
X148600644Y-86468060D01*
X148592728Y-86483181D01*
X148592330Y-86484054D01*
X148580019Y-86513172D01*
X148575486Y-86527597D01*
X148589191Y-86529814D01*
X148627075Y-86531711D01*
X148684285Y-86533153D01*
X148755973Y-86534002D01*
X148808435Y-86534171D01*
X148909953Y-86533308D01*
X148986968Y-86529930D01*
X149043977Y-86522858D01*
X149085474Y-86510912D01*
X149115957Y-86492910D01*
X149139920Y-86467673D01*
X149156645Y-86442753D01*
X149178903Y-86382829D01*
X149183924Y-86313089D01*
X149171248Y-86247400D01*
G36*
X149163034Y-85746405D02*
G01*
X149125503Y-85688979D01*
X149091904Y-85661281D01*
X149030936Y-85639338D01*
X148982692Y-85637595D01*
X148918184Y-85641543D01*
X148853066Y-85790314D01*
X148819798Y-85862651D01*
X148793036Y-85909916D01*
X148769856Y-85934493D01*
X148747333Y-85938763D01*
X148722545Y-85925111D01*
X148706114Y-85910057D01*
X148679765Y-85866254D01*
X148677919Y-85818611D01*
X148698454Y-85774855D01*
X148739248Y-85742711D01*
X148753653Y-85736962D01*
X148798644Y-85709424D01*
X148817818Y-85677742D01*
X148834221Y-85634286D01*
X148772034Y-85634286D01*
X148729717Y-85638128D01*
X148694031Y-85653177D01*
X148653057Y-85684720D01*
X148647733Y-85689408D01*
X148611280Y-85724494D01*
X148591717Y-85754653D01*
X148582717Y-85792385D01*
X148579770Y-85823665D01*
X148579035Y-85879615D01*
X148588340Y-85919445D01*
X148602154Y-85944292D01*
X148632533Y-85983344D01*
X148665387Y-86010375D01*
X148706706Y-86027483D01*
X148762479Y-86036762D01*
X148838695Y-86040307D01*
X148877378Y-86040590D01*
X148923753Y-86039628D01*
X148923753Y-85951993D01*
X148898874Y-85950977D01*
X148894800Y-85948444D01*
X148900335Y-85931726D01*
X148914983Y-85895751D01*
X148935810Y-85847669D01*
X148940286Y-85837614D01*
X148971186Y-85776848D01*
X148998343Y-85743368D01*
X149023780Y-85736010D01*
X149049519Y-85753609D01*
X149060891Y-85768144D01*
X149083636Y-85820590D01*
X149079878Y-85869678D01*
X149052116Y-85910773D01*
X149002848Y-85939242D01*
X148963743Y-85948369D01*
X148923753Y-85951993D01*
X148923753Y-86039628D01*
X148967751Y-86038715D01*
X149034616Y-86031804D01*
X149083305Y-86018116D01*
X149119151Y-85995904D01*
X149147487Y-85963426D01*
X149156645Y-85949267D01*
X149180493Y-85884947D01*
X149181994Y-85814527D01*
X149163034Y-85746405D01*
G37*
X149163034Y-85746405D02*
X149125503Y-85688979D01*
X149091904Y-85661281D01*
X149030936Y-85639338D01*
X148982692Y-85637595D01*
X148918184Y-85641543D01*
X148853066Y-85790314D01*
X148819798Y-85862651D01*
X148793036Y-85909916D01*
X148769856Y-85934493D01*
X148747333Y-85938763D01*
X148722545Y-85925111D01*
X148706114Y-85910057D01*
X148679765Y-85866254D01*
X148677919Y-85818611D01*
X148698454Y-85774855D01*
X148739248Y-85742711D01*
X148753653Y-85736962D01*
X148798644Y-85709424D01*
X148817818Y-85677742D01*
X148834221Y-85634286D01*
X148772034Y-85634286D01*
X148729717Y-85638128D01*
X148694031Y-85653177D01*
X148653057Y-85684720D01*
X148647733Y-85689408D01*
X148611280Y-85724494D01*
X148591717Y-85754653D01*
X148582717Y-85792385D01*
X148579770Y-85823665D01*
X148579035Y-85879615D01*
X148588340Y-85919445D01*
X148602154Y-85944292D01*
X148632533Y-85983344D01*
X148665387Y-86010375D01*
X148706706Y-86027483D01*
X148762479Y-86036762D01*
X148838695Y-86040307D01*
X148877378Y-86040590D01*
X148923753Y-86039628D01*
X148923753Y-85951993D01*
X148898874Y-85950977D01*
X148894800Y-85948444D01*
X148900335Y-85931726D01*
X148914983Y-85895751D01*
X148935810Y-85847669D01*
X148940286Y-85837614D01*
X148971186Y-85776848D01*
X148998343Y-85743368D01*
X149023780Y-85736010D01*
X149049519Y-85753609D01*
X149060891Y-85768144D01*
X149083636Y-85820590D01*
X149079878Y-85869678D01*
X149052116Y-85910773D01*
X149002848Y-85939242D01*
X148963743Y-85948369D01*
X148923753Y-85951993D01*
X148923753Y-86039628D01*
X148967751Y-86038715D01*
X149034616Y-86031804D01*
X149083305Y-86018116D01*
X149119151Y-85995904D01*
X149147487Y-85963426D01*
X149156645Y-85949267D01*
X149180493Y-85884947D01*
X149181994Y-85814527D01*
X149163034Y-85746405D01*
G36*
X153887652Y-88796090D02*
G01*
X153887222Y-88717546D01*
X153886058Y-88660702D01*
X153883793Y-88621895D01*
X153880060Y-88597462D01*
X153874494Y-88583738D01*
X153866727Y-88577060D01*
X153856395Y-88573764D01*
X153855057Y-88573444D01*
X153830921Y-88568438D01*
X153783299Y-88559171D01*
X153717259Y-88546608D01*
X153637872Y-88531713D01*
X153550204Y-88515449D01*
X153547125Y-88514881D01*
X153461211Y-88498590D01*
X153385304Y-88483348D01*
X153323955Y-88470139D01*
X153281718Y-88459946D01*
X153263145Y-88453752D01*
X153262816Y-88453457D01*
X153253747Y-88435212D01*
X153238633Y-88397595D01*
X153220738Y-88348729D01*
X153220642Y-88348457D01*
X153197507Y-88286907D01*
X153168035Y-88214343D01*
X153138403Y-88145943D01*
X153136938Y-88142706D01*
X153086374Y-88031298D01*
X153254840Y-87784601D01*
X153306197Y-87708923D01*
X153352111Y-87640369D01*
X153389970Y-87582912D01*
X153417163Y-87540524D01*
X153431079Y-87517175D01*
X153432111Y-87514958D01*
X153427516Y-87497990D01*
X153405345Y-87466299D01*
X153364553Y-87418648D01*
X153304095Y-87353802D01*
X153239773Y-87287603D01*
X153176388Y-87223786D01*
X153118549Y-87166671D01*
X153069825Y-87119695D01*
X153033790Y-87086297D01*
X153014016Y-87069915D01*
X153012998Y-87069306D01*
X152999428Y-87067495D01*
X152977267Y-87074317D01*
X152943522Y-87091460D01*
X152895200Y-87120607D01*
X152829308Y-87163445D01*
X152744483Y-87220552D01*
X152669823Y-87271234D01*
X152602860Y-87316539D01*
X152547484Y-87353850D01*
X152507580Y-87380548D01*
X152487038Y-87394015D01*
X152485644Y-87394863D01*
X152465962Y-87393219D01*
X152427707Y-87380755D01*
X152378111Y-87359952D01*
X152362272Y-87352538D01*
X152291710Y-87320186D01*
X152211647Y-87285672D01*
X152142371Y-87257635D01*
X152090955Y-87237432D01*
X152051881Y-87221385D01*
X152031459Y-87212112D01*
X152029886Y-87210959D01*
X152027279Y-87193904D01*
X152020137Y-87153702D01*
X152009477Y-87095698D01*
X151996315Y-87025237D01*
X151981667Y-86947665D01*
X151966551Y-86868328D01*
X151951982Y-86792569D01*
X151938978Y-86725736D01*
X151928555Y-86673172D01*
X151921730Y-86640224D01*
X151919801Y-86632143D01*
X151915038Y-86623795D01*
X151904282Y-86617494D01*
X151883902Y-86612955D01*
X151850266Y-86609896D01*
X151799745Y-86608033D01*
X151728708Y-86607082D01*
X151633524Y-86606760D01*
X151594508Y-86606743D01*
X151277201Y-86606743D01*
X151262161Y-86682943D01*
X151254005Y-86725337D01*
X151242101Y-86788600D01*
X151227884Y-86865038D01*
X151212790Y-86946957D01*
X151208645Y-86969600D01*
X151193947Y-87045194D01*
X151179495Y-87111047D01*
X151166625Y-87161634D01*
X151156678Y-87191426D01*
X151153713Y-87196388D01*
X151132717Y-87208574D01*
X151092033Y-87226047D01*
X151039678Y-87245423D01*
X151028400Y-87249266D01*
X150958477Y-87274661D01*
X150879582Y-87306183D01*
X150808734Y-87337031D01*
X150808405Y-87337183D01*
X150697267Y-87388553D01*
X150448747Y-87219601D01*
X150200228Y-87050648D01*
X149982942Y-87267571D01*
X149918274Y-87333181D01*
X149861267Y-87393021D01*
X149814967Y-87443733D01*
X149782416Y-87481954D01*
X149766657Y-87504325D01*
X149765657Y-87507534D01*
X149773531Y-87526374D01*
X149795422Y-87564820D01*
X149828733Y-87618670D01*
X149870869Y-87683724D01*
X149918057Y-87754060D01*
X149966190Y-87825445D01*
X150008072Y-87889092D01*
X150041129Y-87940959D01*
X150062782Y-87977005D01*
X150070457Y-87993133D01*
X150063963Y-88012811D01*
X150046850Y-88050125D01*
X150022674Y-88097379D01*
X150019987Y-88102388D01*
X149988073Y-88166023D01*
X149972421Y-88209659D01*
X149972255Y-88236798D01*
X149986796Y-88250943D01*
X149987000Y-88251025D01*
X150004221Y-88258095D01*
X150045101Y-88274958D01*
X150106475Y-88300305D01*
X150185181Y-88332829D01*
X150278053Y-88371222D01*
X150381928Y-88414178D01*
X150482498Y-88455778D01*
X150593484Y-88501496D01*
X150696297Y-88543474D01*
X150787785Y-88580452D01*
X150864799Y-88611173D01*
X150924185Y-88634378D01*
X150962791Y-88648810D01*
X150977200Y-88653257D01*
X150993728Y-88642104D01*
X151020070Y-88612931D01*
X151049113Y-88574029D01*
X151140961Y-88463243D01*
X151246241Y-88376649D01*
X151362734Y-88315284D01*
X151488224Y-88280185D01*
X151620493Y-88272392D01*
X151681543Y-88278057D01*
X151808205Y-88308922D01*
X151920059Y-88362080D01*
X152015999Y-88434233D01*
X152094924Y-88522083D01*
X152155730Y-88622335D01*
X152197313Y-88731690D01*
X152218572Y-88846853D01*
X152218401Y-88964525D01*
X152195699Y-89081410D01*
X152149362Y-89194211D01*
X152078287Y-89299631D01*
X152038089Y-89343632D01*
X151934871Y-89428021D01*
X151822075Y-89486778D01*
X151702990Y-89520296D01*
X151580905Y-89528965D01*
X151459107Y-89513177D01*
X151340884Y-89473322D01*
X151229525Y-89409793D01*
X151128316Y-89322979D01*
X151049113Y-89225971D01*
X151018838Y-89185563D01*
X150992781Y-89157018D01*
X150977175Y-89146743D01*
X150960157Y-89152123D01*
X150919500Y-89167425D01*
X150858358Y-89191388D01*
X150779881Y-89222756D01*
X150687220Y-89260268D01*
X150583528Y-89302667D01*
X150482474Y-89344337D01*
X150371393Y-89390310D01*
X150268459Y-89432893D01*
X150176835Y-89470779D01*
X150099684Y-89502660D01*
X150040169Y-89527229D01*
X150001456Y-89543180D01*
X149987000Y-89549090D01*
X149972315Y-89563052D01*
X149972358Y-89590060D01*
X149987901Y-89633587D01*
X150019716Y-89697110D01*
X150019987Y-89697612D01*
X150044677Y-89745440D01*
X150062662Y-89784103D01*
X150070386Y-89805905D01*
X150070457Y-89806867D01*
X150062622Y-89823279D01*
X150040835Y-89859513D01*
X150007672Y-89911526D01*
X149965709Y-89975275D01*
X149918057Y-90045940D01*
X149869809Y-90117884D01*
X149827849Y-90182726D01*
X149794773Y-90236265D01*
X149773179Y-90274303D01*
X149765657Y-90292467D01*
X149775543Y-90309192D01*
X149803174Y-90342820D01*
X149845505Y-90389990D01*
X149899495Y-90447342D01*
X149962101Y-90511516D01*
X149983017Y-90532503D01*
X150200377Y-90749501D01*
X150442780Y-90584332D01*
X150517219Y-90534136D01*
X150584028Y-90490081D01*
X150639335Y-90454638D01*
X150679271Y-90430281D01*
X150699964Y-90419478D01*
X150701437Y-90419162D01*
X150720942Y-90424857D01*
X150760178Y-90440174D01*
X150812570Y-90462463D01*
X150847645Y-90478107D01*
X150914799Y-90507359D01*
X150982642Y-90534906D01*
X151039966Y-90556263D01*
X151057428Y-90562065D01*
X151104062Y-90578548D01*
X151140095Y-90594660D01*
X151153713Y-90603510D01*
X151162048Y-90623040D01*
X151173863Y-90665666D01*
X151187819Y-90725855D01*
X151202578Y-90798078D01*
X151208645Y-90830400D01*
X151223727Y-90912478D01*
X151238331Y-90991205D01*
X151251020Y-91058891D01*
X151260358Y-91107840D01*
X151262161Y-91117057D01*
X151277201Y-91193257D01*
X151594508Y-91193257D01*
X151698846Y-91193086D01*
X151777787Y-91192384D01*
X151834962Y-91190866D01*
X151874001Y-91188251D01*
X151898535Y-91184254D01*
X151912195Y-91178591D01*
X151918611Y-91170980D01*
X151919801Y-91167857D01*
X151924020Y-91149022D01*
X151932438Y-91107412D01*
X151944039Y-91048370D01*
X151957805Y-90977243D01*
X151972720Y-90899375D01*
X151987768Y-90820113D01*
X152001931Y-90744802D01*
X152014194Y-90678787D01*
X152023539Y-90627413D01*
X152028950Y-90596025D01*
X152029886Y-90589041D01*
X152042404Y-90582715D01*
X152075754Y-90568710D01*
X152123623Y-90549645D01*
X152142371Y-90542366D01*
X152214805Y-90513004D01*
X152294830Y-90478429D01*
X152362272Y-90447463D01*
X152413841Y-90424677D01*
X152456215Y-90409518D01*
X152482166Y-90404458D01*
X152485644Y-90405264D01*
X152502064Y-90415959D01*
X152538583Y-90440380D01*
X152591313Y-90475905D01*
X152656365Y-90519913D01*
X152729849Y-90569783D01*
X152744355Y-90579644D01*
X152830296Y-90637508D01*
X152895739Y-90680044D01*
X152943696Y-90708946D01*
X152977180Y-90725910D01*
X152999205Y-90732633D01*
X153012783Y-90730810D01*
X153012869Y-90730764D01*
X153030703Y-90716414D01*
X153065183Y-90684677D01*
X153112732Y-90638990D01*
X153169778Y-90582796D01*
X153232745Y-90519532D01*
X153239773Y-90512398D01*
X153316980Y-90432670D01*
X153373670Y-90371143D01*
X153410890Y-90326579D01*
X153429685Y-90297743D01*
X153432111Y-90285042D01*
X153421529Y-90266506D01*
X153397084Y-90228039D01*
X153361388Y-90173614D01*
X153317053Y-90107202D01*
X153266689Y-90032775D01*
X153254840Y-90015399D01*
X153086374Y-89768703D01*
X153136938Y-89657294D01*
X153166405Y-89589543D01*
X153196041Y-89516817D01*
X153219670Y-89454297D01*
X153220642Y-89451543D01*
X153238543Y-89402640D01*
X153253680Y-89364943D01*
X153262790Y-89346575D01*
X153262816Y-89346544D01*
X153279283Y-89340715D01*
X153319781Y-89330808D01*
X153379758Y-89317805D01*
X153454660Y-89302691D01*
X153539936Y-89286448D01*
X153547125Y-89285119D01*
X153634986Y-89268825D01*
X153714740Y-89253867D01*
X153781319Y-89241209D01*
X153829653Y-89231814D01*
X153854675Y-89226646D01*
X153855057Y-89226556D01*
X153865701Y-89223411D01*
X153873738Y-89217296D01*
X153879533Y-89204547D01*
X153883453Y-89181500D01*
X153885865Y-89144491D01*
X153887135Y-89089856D01*
X153887629Y-89013933D01*
X153887714Y-88913056D01*
X153887714Y-88900000D01*
X153887652Y-88796090D01*
G37*
X153887652Y-88796090D02*
X153887222Y-88717546D01*
X153886058Y-88660702D01*
X153883793Y-88621895D01*
X153880060Y-88597462D01*
X153874494Y-88583738D01*
X153866727Y-88577060D01*
X153856395Y-88573764D01*
X153855057Y-88573444D01*
X153830921Y-88568438D01*
X153783299Y-88559171D01*
X153717259Y-88546608D01*
X153637872Y-88531713D01*
X153550204Y-88515449D01*
X153547125Y-88514881D01*
X153461211Y-88498590D01*
X153385304Y-88483348D01*
X153323955Y-88470139D01*
X153281718Y-88459946D01*
X153263145Y-88453752D01*
X153262816Y-88453457D01*
X153253747Y-88435212D01*
X153238633Y-88397595D01*
X153220738Y-88348729D01*
X153220642Y-88348457D01*
X153197507Y-88286907D01*
X153168035Y-88214343D01*
X153138403Y-88145943D01*
X153136938Y-88142706D01*
X153086374Y-88031298D01*
X153254840Y-87784601D01*
X153306197Y-87708923D01*
X153352111Y-87640369D01*
X153389970Y-87582912D01*
X153417163Y-87540524D01*
X153431079Y-87517175D01*
X153432111Y-87514958D01*
X153427516Y-87497990D01*
X153405345Y-87466299D01*
X153364553Y-87418648D01*
X153304095Y-87353802D01*
X153239773Y-87287603D01*
X153176388Y-87223786D01*
X153118549Y-87166671D01*
X153069825Y-87119695D01*
X153033790Y-87086297D01*
X153014016Y-87069915D01*
X153012998Y-87069306D01*
X152999428Y-87067495D01*
X152977267Y-87074317D01*
X152943522Y-87091460D01*
X152895200Y-87120607D01*
X152829308Y-87163445D01*
X152744483Y-87220552D01*
X152669823Y-87271234D01*
X152602860Y-87316539D01*
X152547484Y-87353850D01*
X152507580Y-87380548D01*
X152487038Y-87394015D01*
X152485644Y-87394863D01*
X152465962Y-87393219D01*
X152427707Y-87380755D01*
X152378111Y-87359952D01*
X152362272Y-87352538D01*
X152291710Y-87320186D01*
X152211647Y-87285672D01*
X152142371Y-87257635D01*
X152090955Y-87237432D01*
X152051881Y-87221385D01*
X152031459Y-87212112D01*
X152029886Y-87210959D01*
X152027279Y-87193904D01*
X152020137Y-87153702D01*
X152009477Y-87095698D01*
X151996315Y-87025237D01*
X151981667Y-86947665D01*
X151966551Y-86868328D01*
X151951982Y-86792569D01*
X151938978Y-86725736D01*
X151928555Y-86673172D01*
X151921730Y-86640224D01*
X151919801Y-86632143D01*
X151915038Y-86623795D01*
X151904282Y-86617494D01*
X151883902Y-86612955D01*
X151850266Y-86609896D01*
X151799745Y-86608033D01*
X151728708Y-86607082D01*
X151633524Y-86606760D01*
X151594508Y-86606743D01*
X151277201Y-86606743D01*
X151262161Y-86682943D01*
X151254005Y-86725337D01*
X151242101Y-86788600D01*
X151227884Y-86865038D01*
X151212790Y-86946957D01*
X151208645Y-86969600D01*
X151193947Y-87045194D01*
X151179495Y-87111047D01*
X151166625Y-87161634D01*
X151156678Y-87191426D01*
X151153713Y-87196388D01*
X151132717Y-87208574D01*
X151092033Y-87226047D01*
X151039678Y-87245423D01*
X151028400Y-87249266D01*
X150958477Y-87274661D01*
X150879582Y-87306183D01*
X150808734Y-87337031D01*
X150808405Y-87337183D01*
X150697267Y-87388553D01*
X150448747Y-87219601D01*
X150200228Y-87050648D01*
X149982942Y-87267571D01*
X149918274Y-87333181D01*
X149861267Y-87393021D01*
X149814967Y-87443733D01*
X149782416Y-87481954D01*
X149766657Y-87504325D01*
X149765657Y-87507534D01*
X149773531Y-87526374D01*
X149795422Y-87564820D01*
X149828733Y-87618670D01*
X149870869Y-87683724D01*
X149918057Y-87754060D01*
X149966190Y-87825445D01*
X150008072Y-87889092D01*
X150041129Y-87940959D01*
X150062782Y-87977005D01*
X150070457Y-87993133D01*
X150063963Y-88012811D01*
X150046850Y-88050125D01*
X150022674Y-88097379D01*
X150019987Y-88102388D01*
X149988073Y-88166023D01*
X149972421Y-88209659D01*
X149972255Y-88236798D01*
X149986796Y-88250943D01*
X149987000Y-88251025D01*
X150004221Y-88258095D01*
X150045101Y-88274958D01*
X150106475Y-88300305D01*
X150185181Y-88332829D01*
X150278053Y-88371222D01*
X150381928Y-88414178D01*
X150482498Y-88455778D01*
X150593484Y-88501496D01*
X150696297Y-88543474D01*
X150787785Y-88580452D01*
X150864799Y-88611173D01*
X150924185Y-88634378D01*
X150962791Y-88648810D01*
X150977200Y-88653257D01*
X150993728Y-88642104D01*
X151020070Y-88612931D01*
X151049113Y-88574029D01*
X151140961Y-88463243D01*
X151246241Y-88376649D01*
X151362734Y-88315284D01*
X151488224Y-88280185D01*
X151620493Y-88272392D01*
X151681543Y-88278057D01*
X151808205Y-88308922D01*
X151920059Y-88362080D01*
X152015999Y-88434233D01*
X152094924Y-88522083D01*
X152155730Y-88622335D01*
X152197313Y-88731690D01*
X152218572Y-88846853D01*
X152218401Y-88964525D01*
X152195699Y-89081410D01*
X152149362Y-89194211D01*
X152078287Y-89299631D01*
X152038089Y-89343632D01*
X151934871Y-89428021D01*
X151822075Y-89486778D01*
X151702990Y-89520296D01*
X151580905Y-89528965D01*
X151459107Y-89513177D01*
X151340884Y-89473322D01*
X151229525Y-89409793D01*
X151128316Y-89322979D01*
X151049113Y-89225971D01*
X151018838Y-89185563D01*
X150992781Y-89157018D01*
X150977175Y-89146743D01*
X150960157Y-89152123D01*
X150919500Y-89167425D01*
X150858358Y-89191388D01*
X150779881Y-89222756D01*
X150687220Y-89260268D01*
X150583528Y-89302667D01*
X150482474Y-89344337D01*
X150371393Y-89390310D01*
X150268459Y-89432893D01*
X150176835Y-89470779D01*
X150099684Y-89502660D01*
X150040169Y-89527229D01*
X150001456Y-89543180D01*
X149987000Y-89549090D01*
X149972315Y-89563052D01*
X149972358Y-89590060D01*
X149987901Y-89633587D01*
X150019716Y-89697110D01*
X150019987Y-89697612D01*
X150044677Y-89745440D01*
X150062662Y-89784103D01*
X150070386Y-89805905D01*
X150070457Y-89806867D01*
X150062622Y-89823279D01*
X150040835Y-89859513D01*
X150007672Y-89911526D01*
X149965709Y-89975275D01*
X149918057Y-90045940D01*
X149869809Y-90117884D01*
X149827849Y-90182726D01*
X149794773Y-90236265D01*
X149773179Y-90274303D01*
X149765657Y-90292467D01*
X149775543Y-90309192D01*
X149803174Y-90342820D01*
X149845505Y-90389990D01*
X149899495Y-90447342D01*
X149962101Y-90511516D01*
X149983017Y-90532503D01*
X150200377Y-90749501D01*
X150442780Y-90584332D01*
X150517219Y-90534136D01*
X150584028Y-90490081D01*
X150639335Y-90454638D01*
X150679271Y-90430281D01*
X150699964Y-90419478D01*
X150701437Y-90419162D01*
X150720942Y-90424857D01*
X150760178Y-90440174D01*
X150812570Y-90462463D01*
X150847645Y-90478107D01*
X150914799Y-90507359D01*
X150982642Y-90534906D01*
X151039966Y-90556263D01*
X151057428Y-90562065D01*
X151104062Y-90578548D01*
X151140095Y-90594660D01*
X151153713Y-90603510D01*
X151162048Y-90623040D01*
X151173863Y-90665666D01*
X151187819Y-90725855D01*
X151202578Y-90798078D01*
X151208645Y-90830400D01*
X151223727Y-90912478D01*
X151238331Y-90991205D01*
X151251020Y-91058891D01*
X151260358Y-91107840D01*
X151262161Y-91117057D01*
X151277201Y-91193257D01*
X151594508Y-91193257D01*
X151698846Y-91193086D01*
X151777787Y-91192384D01*
X151834962Y-91190866D01*
X151874001Y-91188251D01*
X151898535Y-91184254D01*
X151912195Y-91178591D01*
X151918611Y-91170980D01*
X151919801Y-91167857D01*
X151924020Y-91149022D01*
X151932438Y-91107412D01*
X151944039Y-91048370D01*
X151957805Y-90977243D01*
X151972720Y-90899375D01*
X151987768Y-90820113D01*
X152001931Y-90744802D01*
X152014194Y-90678787D01*
X152023539Y-90627413D01*
X152028950Y-90596025D01*
X152029886Y-90589041D01*
X152042404Y-90582715D01*
X152075754Y-90568710D01*
X152123623Y-90549645D01*
X152142371Y-90542366D01*
X152214805Y-90513004D01*
X152294830Y-90478429D01*
X152362272Y-90447463D01*
X152413841Y-90424677D01*
X152456215Y-90409518D01*
X152482166Y-90404458D01*
X152485644Y-90405264D01*
X152502064Y-90415959D01*
X152538583Y-90440380D01*
X152591313Y-90475905D01*
X152656365Y-90519913D01*
X152729849Y-90569783D01*
X152744355Y-90579644D01*
X152830296Y-90637508D01*
X152895739Y-90680044D01*
X152943696Y-90708946D01*
X152977180Y-90725910D01*
X152999205Y-90732633D01*
X153012783Y-90730810D01*
X153012869Y-90730764D01*
X153030703Y-90716414D01*
X153065183Y-90684677D01*
X153112732Y-90638990D01*
X153169778Y-90582796D01*
X153232745Y-90519532D01*
X153239773Y-90512398D01*
X153316980Y-90432670D01*
X153373670Y-90371143D01*
X153410890Y-90326579D01*
X153429685Y-90297743D01*
X153432111Y-90285042D01*
X153421529Y-90266506D01*
X153397084Y-90228039D01*
X153361388Y-90173614D01*
X153317053Y-90107202D01*
X153266689Y-90032775D01*
X153254840Y-90015399D01*
X153086374Y-89768703D01*
X153136938Y-89657294D01*
X153166405Y-89589543D01*
X153196041Y-89516817D01*
X153219670Y-89454297D01*
X153220642Y-89451543D01*
X153238543Y-89402640D01*
X153253680Y-89364943D01*
X153262790Y-89346575D01*
X153262816Y-89346544D01*
X153279283Y-89340715D01*
X153319781Y-89330808D01*
X153379758Y-89317805D01*
X153454660Y-89302691D01*
X153539936Y-89286448D01*
X153547125Y-89285119D01*
X153634986Y-89268825D01*
X153714740Y-89253867D01*
X153781319Y-89241209D01*
X153829653Y-89231814D01*
X153854675Y-89226646D01*
X153855057Y-89226556D01*
X153865701Y-89223411D01*
X153873738Y-89217296D01*
X153879533Y-89204547D01*
X153883453Y-89181500D01*
X153885865Y-89144491D01*
X153887135Y-89089856D01*
X153887629Y-89013933D01*
X153887714Y-88913056D01*
X153887714Y-88900000D01*
X153887652Y-88796090D01*
D12*
X139760000Y-69790000D02*
X139760000Y-72450000D01*
X137160000Y-69790000D02*
X139760000Y-69790000D01*
X137160000Y-72450000D02*
X139760000Y-72450000D01*
X137160000Y-69790000D02*
X137160000Y-72450000D01*
X135890000Y-69790000D02*
X134560000Y-69790000D01*
X134560000Y-69790000D02*
X134560000Y-71120000D01*
X139760000Y-105350000D02*
X139760000Y-108010000D01*
X137160000Y-105350000D02*
X139760000Y-105350000D01*
X137160000Y-108010000D02*
X139760000Y-108010000D01*
X137160000Y-105350000D02*
X137160000Y-108010000D01*
X135890000Y-105350000D02*
X134560000Y-105350000D01*
X134560000Y-105350000D02*
X134560000Y-106680000D01*
X129600000Y-108010000D02*
X126940000Y-108010000D01*
X129600000Y-72390000D02*
X129600000Y-108010000D01*
X126940000Y-72390000D02*
X126940000Y-108010000D01*
X129600000Y-72390000D02*
X126940000Y-72390000D01*
X129600000Y-71120000D02*
X129600000Y-69790000D01*
X129600000Y-69790000D02*
X128270000Y-69790000D01*
M02*
