M48
; DRILL file {KiCad (5.1.6-0-10_14)} date Sunday, April 25, 2021 at 10:01:35 PM
; FORMAT={2:4/ absolute / inch / suppress leading zeros}
; #@! TF.CreationDate,2021-04-25T22:01:35+02:00
; #@! TF.GenerationSoftware,Kicad,Pcbnew,(5.1.6-0-10_14)
FMAT,2
INCH,TZ
T1C0.0157
T2C0.0354
T3C0.0394
T4C0.1260
T5C0.0787
%
G90
G05
T1
X57600Y-39000
X58200Y-38600
X58800Y-38200
X59400Y-37800
X60000Y-37400
T2
X55500Y-33300
X55500Y-34198
X55500Y-35095
X55500Y-35993
X55500Y-36891
X56500Y-32851
X56500Y-33749
X56500Y-34646
X56500Y-35544
X56500Y-36442
X57500Y-33300
X57500Y-34198
X57500Y-35095
X57500Y-35993
X57500Y-36891
T3
X53500Y-42000
X54500Y-42000
X53500Y-28000
X54500Y-28000
X50500Y-28000
X50500Y-29000
X50500Y-30000
X50500Y-31000
X50500Y-32000
X50500Y-33000
X50500Y-34000
X50500Y-35000
X50500Y-36000
X50500Y-37000
X50500Y-38000
X50500Y-39000
X50500Y-40000
X50500Y-41000
X50500Y-42000
T4
X56500Y-30076
X56500Y-39914
T5
X58500Y-42500
X58500Y-27500
T0
M30
