G04 #@! TF.GenerationSoftware,KiCad,Pcbnew,(5.1.5)-3*
G04 #@! TF.CreationDate,2020-11-30T10:10:13+01:00*
G04 #@! TF.ProjectId,VGA_breakout,5647415f-6272-4656-916b-6f75742e6b69,rev?*
G04 #@! TF.SameCoordinates,Original*
G04 #@! TF.FileFunction,Soldermask,Top*
G04 #@! TF.FilePolarity,Negative*
%FSLAX46Y46*%
G04 Gerber Fmt 4.6, Leading zero omitted, Abs format (unit mm)*
G04 Created by KiCad (PCBNEW (5.1.5)-3) date 2020-11-30 10:10:13*
%MOMM*%
%LPD*%
G04 APERTURE LIST*
%ADD10C,0.100000*%
G04 APERTURE END LIST*
D10*
G36*
X148896564Y-106939389D02*
G01*
X149087833Y-107018615D01*
X149087835Y-107018616D01*
X149259973Y-107133635D01*
X149406365Y-107280027D01*
X149473067Y-107379853D01*
X149521385Y-107452167D01*
X149600611Y-107643436D01*
X149641000Y-107846484D01*
X149641000Y-108053516D01*
X149600611Y-108256564D01*
X149521385Y-108447833D01*
X149521384Y-108447835D01*
X149406365Y-108619973D01*
X149259973Y-108766365D01*
X149087835Y-108881384D01*
X149087834Y-108881385D01*
X149087833Y-108881385D01*
X148896564Y-108960611D01*
X148693516Y-109001000D01*
X148486484Y-109001000D01*
X148283436Y-108960611D01*
X148092167Y-108881385D01*
X148092166Y-108881385D01*
X148092165Y-108881384D01*
X147920027Y-108766365D01*
X147773635Y-108619973D01*
X147658616Y-108447835D01*
X147658615Y-108447833D01*
X147579389Y-108256564D01*
X147539000Y-108053516D01*
X147539000Y-107846484D01*
X147579389Y-107643436D01*
X147658615Y-107452167D01*
X147706934Y-107379853D01*
X147773635Y-107280027D01*
X147920027Y-107133635D01*
X148092165Y-107018616D01*
X148092167Y-107018615D01*
X148283436Y-106939389D01*
X148486484Y-106899000D01*
X148693516Y-106899000D01*
X148896564Y-106939389D01*
G37*
G36*
X138543512Y-105783927D02*
G01*
X138692812Y-105813624D01*
X138856784Y-105881544D01*
X139004354Y-105980147D01*
X139129853Y-106105646D01*
X139228456Y-106253216D01*
X139296376Y-106417188D01*
X139331000Y-106591259D01*
X139331000Y-106768741D01*
X139296376Y-106942812D01*
X139228456Y-107106784D01*
X139129853Y-107254354D01*
X139004354Y-107379853D01*
X138856784Y-107478456D01*
X138692812Y-107546376D01*
X138543512Y-107576073D01*
X138518742Y-107581000D01*
X138341258Y-107581000D01*
X138316488Y-107576073D01*
X138167188Y-107546376D01*
X138003216Y-107478456D01*
X137855646Y-107379853D01*
X137730147Y-107254354D01*
X137631544Y-107106784D01*
X137563624Y-106942812D01*
X137529000Y-106768741D01*
X137529000Y-106591259D01*
X137563624Y-106417188D01*
X137631544Y-106253216D01*
X137730147Y-106105646D01*
X137855646Y-105980147D01*
X138003216Y-105881544D01*
X138167188Y-105813624D01*
X138316488Y-105783927D01*
X138341258Y-105779000D01*
X138518742Y-105779000D01*
X138543512Y-105783927D01*
G37*
G36*
X128383512Y-105783927D02*
G01*
X128532812Y-105813624D01*
X128696784Y-105881544D01*
X128844354Y-105980147D01*
X128969853Y-106105646D01*
X129068456Y-106253216D01*
X129136376Y-106417188D01*
X129171000Y-106591259D01*
X129171000Y-106768741D01*
X129136376Y-106942812D01*
X129068456Y-107106784D01*
X128969853Y-107254354D01*
X128844354Y-107379853D01*
X128696784Y-107478456D01*
X128532812Y-107546376D01*
X128383512Y-107576073D01*
X128358742Y-107581000D01*
X128181258Y-107581000D01*
X128156488Y-107576073D01*
X128007188Y-107546376D01*
X127843216Y-107478456D01*
X127695646Y-107379853D01*
X127570147Y-107254354D01*
X127471544Y-107106784D01*
X127403624Y-106942812D01*
X127369000Y-106768741D01*
X127369000Y-106591259D01*
X127403624Y-106417188D01*
X127471544Y-106253216D01*
X127570147Y-106105646D01*
X127695646Y-105980147D01*
X127843216Y-105881544D01*
X128007188Y-105813624D01*
X128156488Y-105783927D01*
X128181258Y-105779000D01*
X128358742Y-105779000D01*
X128383512Y-105783927D01*
G37*
G36*
X136791000Y-107581000D02*
G01*
X134989000Y-107581000D01*
X134989000Y-105779000D01*
X136791000Y-105779000D01*
X136791000Y-107581000D01*
G37*
G36*
X128383512Y-103243927D02*
G01*
X128532812Y-103273624D01*
X128696784Y-103341544D01*
X128844354Y-103440147D01*
X128969853Y-103565646D01*
X129068456Y-103713216D01*
X129136376Y-103877188D01*
X129171000Y-104051259D01*
X129171000Y-104228741D01*
X129136376Y-104402812D01*
X129068456Y-104566784D01*
X128969853Y-104714354D01*
X128844354Y-104839853D01*
X128696784Y-104938456D01*
X128532812Y-105006376D01*
X128383512Y-105036073D01*
X128358742Y-105041000D01*
X128181258Y-105041000D01*
X128156488Y-105036073D01*
X128007188Y-105006376D01*
X127843216Y-104938456D01*
X127695646Y-104839853D01*
X127570147Y-104714354D01*
X127471544Y-104566784D01*
X127403624Y-104402812D01*
X127369000Y-104228741D01*
X127369000Y-104051259D01*
X127403624Y-103877188D01*
X127471544Y-103713216D01*
X127570147Y-103565646D01*
X127695646Y-103440147D01*
X127843216Y-103341544D01*
X128007188Y-103273624D01*
X128156488Y-103243927D01*
X128181258Y-103239000D01*
X128358742Y-103239000D01*
X128383512Y-103243927D01*
G37*
G36*
X144224929Y-99025190D02*
G01*
X144670982Y-99209951D01*
X144670984Y-99209952D01*
X145072421Y-99478184D01*
X145413816Y-99819579D01*
X145485176Y-99926376D01*
X145682049Y-100221018D01*
X145866810Y-100667071D01*
X145961000Y-101140596D01*
X145961000Y-101623404D01*
X145866810Y-102096929D01*
X145713780Y-102466376D01*
X145682048Y-102542984D01*
X145413816Y-102944421D01*
X145072421Y-103285816D01*
X144670984Y-103554048D01*
X144670983Y-103554049D01*
X144670982Y-103554049D01*
X144224929Y-103738810D01*
X143751404Y-103833000D01*
X143268596Y-103833000D01*
X142795071Y-103738810D01*
X142349018Y-103554049D01*
X142349017Y-103554049D01*
X142349016Y-103554048D01*
X141947579Y-103285816D01*
X141606184Y-102944421D01*
X141337952Y-102542984D01*
X141306220Y-102466376D01*
X141153190Y-102096929D01*
X141059000Y-101623404D01*
X141059000Y-101140596D01*
X141153190Y-100667071D01*
X141337951Y-100221018D01*
X141534825Y-99926376D01*
X141606184Y-99819579D01*
X141947579Y-99478184D01*
X142349016Y-99209952D01*
X142349018Y-99209951D01*
X142795071Y-99025190D01*
X143268596Y-98931000D01*
X143751404Y-98931000D01*
X144224929Y-99025190D01*
G37*
G36*
X128383512Y-100703927D02*
G01*
X128532812Y-100733624D01*
X128696784Y-100801544D01*
X128844354Y-100900147D01*
X128969853Y-101025646D01*
X129068456Y-101173216D01*
X129136376Y-101337188D01*
X129171000Y-101511259D01*
X129171000Y-101688741D01*
X129136376Y-101862812D01*
X129068456Y-102026784D01*
X128969853Y-102174354D01*
X128844354Y-102299853D01*
X128696784Y-102398456D01*
X128532812Y-102466376D01*
X128383512Y-102496073D01*
X128358742Y-102501000D01*
X128181258Y-102501000D01*
X128156488Y-102496073D01*
X128007188Y-102466376D01*
X127843216Y-102398456D01*
X127695646Y-102299853D01*
X127570147Y-102174354D01*
X127471544Y-102026784D01*
X127403624Y-101862812D01*
X127369000Y-101688741D01*
X127369000Y-101511259D01*
X127403624Y-101337188D01*
X127471544Y-101173216D01*
X127570147Y-101025646D01*
X127695646Y-100900147D01*
X127843216Y-100801544D01*
X128007188Y-100733624D01*
X128156488Y-100703927D01*
X128181258Y-100699000D01*
X128358742Y-100699000D01*
X128383512Y-100703927D01*
G37*
G36*
X128383512Y-98163927D02*
G01*
X128532812Y-98193624D01*
X128696784Y-98261544D01*
X128844354Y-98360147D01*
X128969853Y-98485646D01*
X129068456Y-98633216D01*
X129136376Y-98797188D01*
X129171000Y-98971259D01*
X129171000Y-99148741D01*
X129136376Y-99322812D01*
X129068456Y-99486784D01*
X128969853Y-99634354D01*
X128844354Y-99759853D01*
X128696784Y-99858456D01*
X128532812Y-99926376D01*
X128383512Y-99956073D01*
X128358742Y-99961000D01*
X128181258Y-99961000D01*
X128156488Y-99956073D01*
X128007188Y-99926376D01*
X127843216Y-99858456D01*
X127695646Y-99759853D01*
X127570147Y-99634354D01*
X127471544Y-99486784D01*
X127403624Y-99322812D01*
X127369000Y-99148741D01*
X127369000Y-98971259D01*
X127403624Y-98797188D01*
X127471544Y-98633216D01*
X127570147Y-98485646D01*
X127695646Y-98360147D01*
X127843216Y-98261544D01*
X128007188Y-98193624D01*
X128156488Y-98163927D01*
X128181258Y-98159000D01*
X128358742Y-98159000D01*
X128383512Y-98163927D01*
G37*
G36*
X128383512Y-95623927D02*
G01*
X128532812Y-95653624D01*
X128696784Y-95721544D01*
X128844354Y-95820147D01*
X128969853Y-95945646D01*
X129068456Y-96093216D01*
X129136376Y-96257188D01*
X129171000Y-96431259D01*
X129171000Y-96608741D01*
X129136376Y-96782812D01*
X129068456Y-96946784D01*
X128969853Y-97094354D01*
X128844354Y-97219853D01*
X128696784Y-97318456D01*
X128532812Y-97386376D01*
X128383512Y-97416073D01*
X128358742Y-97421000D01*
X128181258Y-97421000D01*
X128156488Y-97416073D01*
X128007188Y-97386376D01*
X127843216Y-97318456D01*
X127695646Y-97219853D01*
X127570147Y-97094354D01*
X127471544Y-96946784D01*
X127403624Y-96782812D01*
X127369000Y-96608741D01*
X127369000Y-96431259D01*
X127403624Y-96257188D01*
X127471544Y-96093216D01*
X127570147Y-95945646D01*
X127695646Y-95820147D01*
X127843216Y-95721544D01*
X128007188Y-95653624D01*
X128156488Y-95623927D01*
X128181258Y-95619000D01*
X128358742Y-95619000D01*
X128383512Y-95623927D01*
G37*
G36*
X128383512Y-93083927D02*
G01*
X128532812Y-93113624D01*
X128696784Y-93181544D01*
X128844354Y-93280147D01*
X128969853Y-93405646D01*
X129068456Y-93553216D01*
X129136376Y-93717188D01*
X129171000Y-93891259D01*
X129171000Y-94068741D01*
X129136376Y-94242812D01*
X129068456Y-94406784D01*
X128969853Y-94554354D01*
X128844354Y-94679853D01*
X128696784Y-94778456D01*
X128532812Y-94846376D01*
X128383512Y-94876073D01*
X128358742Y-94881000D01*
X128181258Y-94881000D01*
X128156488Y-94876073D01*
X128007188Y-94846376D01*
X127843216Y-94778456D01*
X127695646Y-94679853D01*
X127570147Y-94554354D01*
X127471544Y-94406784D01*
X127403624Y-94242812D01*
X127369000Y-94068741D01*
X127369000Y-93891259D01*
X127403624Y-93717188D01*
X127471544Y-93553216D01*
X127570147Y-93405646D01*
X127695646Y-93280147D01*
X127843216Y-93181544D01*
X128007188Y-93113624D01*
X128156488Y-93083927D01*
X128181258Y-93079000D01*
X128358742Y-93079000D01*
X128383512Y-93083927D01*
G37*
G36*
X146269059Y-92979860D02*
G01*
X146405732Y-93036472D01*
X146528735Y-93118660D01*
X146633340Y-93223265D01*
X146633341Y-93223267D01*
X146715529Y-93346270D01*
X146772140Y-93482941D01*
X146801000Y-93628032D01*
X146801000Y-93775968D01*
X146772140Y-93921059D01*
X146715528Y-94057732D01*
X146633340Y-94180735D01*
X146528735Y-94285340D01*
X146405732Y-94367528D01*
X146405731Y-94367529D01*
X146405730Y-94367529D01*
X146269059Y-94424140D01*
X146123968Y-94453000D01*
X145976032Y-94453000D01*
X145830941Y-94424140D01*
X145694270Y-94367529D01*
X145694269Y-94367529D01*
X145694268Y-94367528D01*
X145571265Y-94285340D01*
X145466660Y-94180735D01*
X145384472Y-94057732D01*
X145327860Y-93921059D01*
X145299000Y-93775968D01*
X145299000Y-93628032D01*
X145327860Y-93482941D01*
X145384471Y-93346270D01*
X145466659Y-93223267D01*
X145466660Y-93223265D01*
X145571265Y-93118660D01*
X145694268Y-93036472D01*
X145830941Y-92979860D01*
X145976032Y-92951000D01*
X146123968Y-92951000D01*
X146269059Y-92979860D01*
G37*
G36*
X141189059Y-92979860D02*
G01*
X141325732Y-93036472D01*
X141448735Y-93118660D01*
X141553340Y-93223265D01*
X141553341Y-93223267D01*
X141635529Y-93346270D01*
X141692140Y-93482941D01*
X141721000Y-93628032D01*
X141721000Y-93775968D01*
X141692140Y-93921059D01*
X141635528Y-94057732D01*
X141553340Y-94180735D01*
X141448735Y-94285340D01*
X141325732Y-94367528D01*
X141325731Y-94367529D01*
X141325730Y-94367529D01*
X141189059Y-94424140D01*
X141043968Y-94453000D01*
X140896032Y-94453000D01*
X140750941Y-94424140D01*
X140614270Y-94367529D01*
X140614269Y-94367529D01*
X140614268Y-94367528D01*
X140491265Y-94285340D01*
X140386660Y-94180735D01*
X140304472Y-94057732D01*
X140247860Y-93921059D01*
X140219000Y-93775968D01*
X140219000Y-93628032D01*
X140247860Y-93482941D01*
X140304471Y-93346270D01*
X140386659Y-93223267D01*
X140386660Y-93223265D01*
X140491265Y-93118660D01*
X140614268Y-93036472D01*
X140750941Y-92979860D01*
X140896032Y-92951000D01*
X141043968Y-92951000D01*
X141189059Y-92979860D01*
G37*
G36*
X143729059Y-91839860D02*
G01*
X143865732Y-91896472D01*
X143988735Y-91978660D01*
X144093340Y-92083265D01*
X144175528Y-92206268D01*
X144232140Y-92342941D01*
X144261000Y-92488033D01*
X144261000Y-92635967D01*
X144232140Y-92781059D01*
X144175528Y-92917732D01*
X144093340Y-93040735D01*
X143988735Y-93145340D01*
X143865732Y-93227528D01*
X143865731Y-93227529D01*
X143865730Y-93227529D01*
X143729059Y-93284140D01*
X143583968Y-93313000D01*
X143436032Y-93313000D01*
X143290941Y-93284140D01*
X143154270Y-93227529D01*
X143154269Y-93227529D01*
X143154268Y-93227528D01*
X143031265Y-93145340D01*
X142926660Y-93040735D01*
X142844472Y-92917732D01*
X142787860Y-92781059D01*
X142759000Y-92635967D01*
X142759000Y-92488033D01*
X142787860Y-92342941D01*
X142844472Y-92206268D01*
X142926660Y-92083265D01*
X143031265Y-91978660D01*
X143154268Y-91896472D01*
X143290941Y-91839860D01*
X143436032Y-91811000D01*
X143583968Y-91811000D01*
X143729059Y-91839860D01*
G37*
G36*
X128383512Y-90543927D02*
G01*
X128532812Y-90573624D01*
X128696784Y-90641544D01*
X128844354Y-90740147D01*
X128969853Y-90865646D01*
X129068456Y-91013216D01*
X129136376Y-91177188D01*
X129171000Y-91351259D01*
X129171000Y-91528741D01*
X129136376Y-91702812D01*
X129068456Y-91866784D01*
X128969853Y-92014354D01*
X128844354Y-92139853D01*
X128696784Y-92238456D01*
X128532812Y-92306376D01*
X128383512Y-92336073D01*
X128358742Y-92341000D01*
X128181258Y-92341000D01*
X128156488Y-92336073D01*
X128007188Y-92306376D01*
X127843216Y-92238456D01*
X127695646Y-92139853D01*
X127570147Y-92014354D01*
X127471544Y-91866784D01*
X127403624Y-91702812D01*
X127369000Y-91528741D01*
X127369000Y-91351259D01*
X127403624Y-91177188D01*
X127471544Y-91013216D01*
X127570147Y-90865646D01*
X127695646Y-90740147D01*
X127843216Y-90641544D01*
X128007188Y-90573624D01*
X128156488Y-90543927D01*
X128181258Y-90539000D01*
X128358742Y-90539000D01*
X128383512Y-90543927D01*
G37*
G36*
X141189059Y-90699860D02*
G01*
X141325732Y-90756472D01*
X141448735Y-90838660D01*
X141553340Y-90943265D01*
X141635528Y-91066268D01*
X141692140Y-91202941D01*
X141721000Y-91348033D01*
X141721000Y-91495967D01*
X141692140Y-91641059D01*
X141635528Y-91777732D01*
X141553340Y-91900735D01*
X141448735Y-92005340D01*
X141325732Y-92087528D01*
X141325731Y-92087529D01*
X141325730Y-92087529D01*
X141189059Y-92144140D01*
X141043968Y-92173000D01*
X140896032Y-92173000D01*
X140750941Y-92144140D01*
X140614270Y-92087529D01*
X140614269Y-92087529D01*
X140614268Y-92087528D01*
X140491265Y-92005340D01*
X140386660Y-91900735D01*
X140304472Y-91777732D01*
X140247860Y-91641059D01*
X140219000Y-91495967D01*
X140219000Y-91348033D01*
X140247860Y-91202941D01*
X140304472Y-91066268D01*
X140386660Y-90943265D01*
X140491265Y-90838660D01*
X140614268Y-90756472D01*
X140750941Y-90699860D01*
X140896032Y-90671000D01*
X141043968Y-90671000D01*
X141189059Y-90699860D01*
G37*
G36*
X146269059Y-90699860D02*
G01*
X146405732Y-90756472D01*
X146528735Y-90838660D01*
X146633340Y-90943265D01*
X146715528Y-91066268D01*
X146772140Y-91202941D01*
X146801000Y-91348033D01*
X146801000Y-91495967D01*
X146772140Y-91641059D01*
X146715528Y-91777732D01*
X146633340Y-91900735D01*
X146528735Y-92005340D01*
X146405732Y-92087528D01*
X146405731Y-92087529D01*
X146405730Y-92087529D01*
X146269059Y-92144140D01*
X146123968Y-92173000D01*
X145976032Y-92173000D01*
X145830941Y-92144140D01*
X145694270Y-92087529D01*
X145694269Y-92087529D01*
X145694268Y-92087528D01*
X145571265Y-92005340D01*
X145466660Y-91900735D01*
X145384472Y-91777732D01*
X145327860Y-91641059D01*
X145299000Y-91495967D01*
X145299000Y-91348033D01*
X145327860Y-91202941D01*
X145384472Y-91066268D01*
X145466660Y-90943265D01*
X145571265Y-90838660D01*
X145694268Y-90756472D01*
X145830941Y-90699860D01*
X145976032Y-90671000D01*
X146123968Y-90671000D01*
X146269059Y-90699860D01*
G37*
G36*
X143729059Y-89559860D02*
G01*
X143825611Y-89599853D01*
X143865732Y-89616472D01*
X143988735Y-89698660D01*
X144093340Y-89803265D01*
X144093341Y-89803267D01*
X144175529Y-89926270D01*
X144232140Y-90062941D01*
X144261000Y-90208032D01*
X144261000Y-90355968D01*
X144232140Y-90501059D01*
X144202083Y-90573624D01*
X144175528Y-90637732D01*
X144093340Y-90760735D01*
X143988735Y-90865340D01*
X143865732Y-90947528D01*
X143865731Y-90947529D01*
X143865730Y-90947529D01*
X143729059Y-91004140D01*
X143583968Y-91033000D01*
X143436032Y-91033000D01*
X143290941Y-91004140D01*
X143154270Y-90947529D01*
X143154269Y-90947529D01*
X143154268Y-90947528D01*
X143031265Y-90865340D01*
X142926660Y-90760735D01*
X142844472Y-90637732D01*
X142817918Y-90573624D01*
X142787860Y-90501059D01*
X142759000Y-90355968D01*
X142759000Y-90208032D01*
X142787860Y-90062941D01*
X142844471Y-89926270D01*
X142926659Y-89803267D01*
X142926660Y-89803265D01*
X143031265Y-89698660D01*
X143154268Y-89616472D01*
X143194390Y-89599853D01*
X143290941Y-89559860D01*
X143436032Y-89531000D01*
X143583968Y-89531000D01*
X143729059Y-89559860D01*
G37*
G36*
X141189059Y-88419860D02*
G01*
X141317877Y-88473218D01*
X141325732Y-88476472D01*
X141448735Y-88558660D01*
X141553340Y-88663265D01*
X141635528Y-88786268D01*
X141692140Y-88922941D01*
X141721000Y-89068033D01*
X141721000Y-89215967D01*
X141692140Y-89361059D01*
X141635528Y-89497732D01*
X141553340Y-89620735D01*
X141448735Y-89725340D01*
X141325732Y-89807528D01*
X141325731Y-89807529D01*
X141325730Y-89807529D01*
X141189059Y-89864140D01*
X141043968Y-89893000D01*
X140896032Y-89893000D01*
X140750941Y-89864140D01*
X140614270Y-89807529D01*
X140614269Y-89807529D01*
X140614268Y-89807528D01*
X140491265Y-89725340D01*
X140386660Y-89620735D01*
X140304472Y-89497732D01*
X140247860Y-89361059D01*
X140219000Y-89215967D01*
X140219000Y-89068033D01*
X140247860Y-88922941D01*
X140304472Y-88786268D01*
X140386660Y-88663265D01*
X140491265Y-88558660D01*
X140614268Y-88476472D01*
X140622124Y-88473218D01*
X140750941Y-88419860D01*
X140896032Y-88391000D01*
X141043968Y-88391000D01*
X141189059Y-88419860D01*
G37*
G36*
X146269059Y-88419860D02*
G01*
X146397877Y-88473218D01*
X146405732Y-88476472D01*
X146528735Y-88558660D01*
X146633340Y-88663265D01*
X146715528Y-88786268D01*
X146772140Y-88922941D01*
X146801000Y-89068033D01*
X146801000Y-89215967D01*
X146772140Y-89361059D01*
X146715528Y-89497732D01*
X146633340Y-89620735D01*
X146528735Y-89725340D01*
X146405732Y-89807528D01*
X146405731Y-89807529D01*
X146405730Y-89807529D01*
X146269059Y-89864140D01*
X146123968Y-89893000D01*
X145976032Y-89893000D01*
X145830941Y-89864140D01*
X145694270Y-89807529D01*
X145694269Y-89807529D01*
X145694268Y-89807528D01*
X145571265Y-89725340D01*
X145466660Y-89620735D01*
X145384472Y-89497732D01*
X145327860Y-89361059D01*
X145299000Y-89215967D01*
X145299000Y-89068033D01*
X145327860Y-88922941D01*
X145384472Y-88786268D01*
X145466660Y-88663265D01*
X145571265Y-88558660D01*
X145694268Y-88476472D01*
X145702124Y-88473218D01*
X145830941Y-88419860D01*
X145976032Y-88391000D01*
X146123968Y-88391000D01*
X146269059Y-88419860D01*
G37*
G36*
X128383512Y-88003927D02*
G01*
X128532812Y-88033624D01*
X128696784Y-88101544D01*
X128844354Y-88200147D01*
X128969853Y-88325646D01*
X129068456Y-88473216D01*
X129136376Y-88637188D01*
X129171000Y-88811259D01*
X129171000Y-88988741D01*
X129136376Y-89162812D01*
X129068456Y-89326784D01*
X128969853Y-89474354D01*
X128844354Y-89599853D01*
X128696784Y-89698456D01*
X128532812Y-89766376D01*
X128383512Y-89796073D01*
X128358742Y-89801000D01*
X128181258Y-89801000D01*
X128156488Y-89796073D01*
X128007188Y-89766376D01*
X127843216Y-89698456D01*
X127695646Y-89599853D01*
X127570147Y-89474354D01*
X127471544Y-89326784D01*
X127403624Y-89162812D01*
X127369000Y-88988741D01*
X127369000Y-88811259D01*
X127403624Y-88637188D01*
X127471544Y-88473216D01*
X127570147Y-88325646D01*
X127695646Y-88200147D01*
X127843216Y-88101544D01*
X128007188Y-88033624D01*
X128156488Y-88003927D01*
X128181258Y-87999000D01*
X128358742Y-87999000D01*
X128383512Y-88003927D01*
G37*
G36*
X143729059Y-87279860D02*
G01*
X143865732Y-87336472D01*
X143988735Y-87418660D01*
X144093340Y-87523265D01*
X144175528Y-87646268D01*
X144232140Y-87782941D01*
X144261000Y-87928033D01*
X144261000Y-88075967D01*
X144232140Y-88221059D01*
X144175528Y-88357732D01*
X144093340Y-88480735D01*
X143988735Y-88585340D01*
X143865732Y-88667528D01*
X143865731Y-88667529D01*
X143865730Y-88667529D01*
X143729059Y-88724140D01*
X143583968Y-88753000D01*
X143436032Y-88753000D01*
X143290941Y-88724140D01*
X143154270Y-88667529D01*
X143154269Y-88667529D01*
X143154268Y-88667528D01*
X143031265Y-88585340D01*
X142926660Y-88480735D01*
X142844472Y-88357732D01*
X142787860Y-88221059D01*
X142759000Y-88075967D01*
X142759000Y-87928033D01*
X142787860Y-87782941D01*
X142844472Y-87646268D01*
X142926660Y-87523265D01*
X143031265Y-87418660D01*
X143154268Y-87336472D01*
X143290941Y-87279860D01*
X143436032Y-87251000D01*
X143583968Y-87251000D01*
X143729059Y-87279860D01*
G37*
G36*
X141189059Y-86139860D02*
G01*
X141325732Y-86196472D01*
X141448735Y-86278660D01*
X141553340Y-86383265D01*
X141635528Y-86506268D01*
X141692140Y-86642941D01*
X141721000Y-86788033D01*
X141721000Y-86935967D01*
X141692140Y-87081059D01*
X141635528Y-87217732D01*
X141553340Y-87340735D01*
X141448735Y-87445340D01*
X141325732Y-87527528D01*
X141325731Y-87527529D01*
X141325730Y-87527529D01*
X141189059Y-87584140D01*
X141043968Y-87613000D01*
X140896032Y-87613000D01*
X140750941Y-87584140D01*
X140614270Y-87527529D01*
X140614269Y-87527529D01*
X140614268Y-87527528D01*
X140491265Y-87445340D01*
X140386660Y-87340735D01*
X140304472Y-87217732D01*
X140247860Y-87081059D01*
X140219000Y-86935967D01*
X140219000Y-86788033D01*
X140247860Y-86642941D01*
X140304472Y-86506268D01*
X140386660Y-86383265D01*
X140491265Y-86278660D01*
X140614268Y-86196472D01*
X140750941Y-86139860D01*
X140896032Y-86111000D01*
X141043968Y-86111000D01*
X141189059Y-86139860D01*
G37*
G36*
X146269059Y-86139860D02*
G01*
X146405732Y-86196472D01*
X146528735Y-86278660D01*
X146633340Y-86383265D01*
X146715528Y-86506268D01*
X146772140Y-86642941D01*
X146801000Y-86788033D01*
X146801000Y-86935967D01*
X146772140Y-87081059D01*
X146715528Y-87217732D01*
X146633340Y-87340735D01*
X146528735Y-87445340D01*
X146405732Y-87527528D01*
X146405731Y-87527529D01*
X146405730Y-87527529D01*
X146269059Y-87584140D01*
X146123968Y-87613000D01*
X145976032Y-87613000D01*
X145830941Y-87584140D01*
X145694270Y-87527529D01*
X145694269Y-87527529D01*
X145694268Y-87527528D01*
X145571265Y-87445340D01*
X145466660Y-87340735D01*
X145384472Y-87217732D01*
X145327860Y-87081059D01*
X145299000Y-86935967D01*
X145299000Y-86788033D01*
X145327860Y-86642941D01*
X145384472Y-86506268D01*
X145466660Y-86383265D01*
X145571265Y-86278660D01*
X145694268Y-86196472D01*
X145830941Y-86139860D01*
X145976032Y-86111000D01*
X146123968Y-86111000D01*
X146269059Y-86139860D01*
G37*
G36*
X128383512Y-85463927D02*
G01*
X128532812Y-85493624D01*
X128696784Y-85561544D01*
X128844354Y-85660147D01*
X128969853Y-85785646D01*
X129068456Y-85933216D01*
X129136376Y-86097188D01*
X129171000Y-86271259D01*
X129171000Y-86448741D01*
X129136376Y-86622812D01*
X129068456Y-86786784D01*
X128969853Y-86934354D01*
X128844354Y-87059853D01*
X128696784Y-87158456D01*
X128532812Y-87226376D01*
X128383512Y-87256073D01*
X128358742Y-87261000D01*
X128181258Y-87261000D01*
X128156488Y-87256073D01*
X128007188Y-87226376D01*
X127843216Y-87158456D01*
X127695646Y-87059853D01*
X127570147Y-86934354D01*
X127471544Y-86786784D01*
X127403624Y-86622812D01*
X127369000Y-86448741D01*
X127369000Y-86271259D01*
X127403624Y-86097188D01*
X127471544Y-85933216D01*
X127570147Y-85785646D01*
X127695646Y-85660147D01*
X127843216Y-85561544D01*
X128007188Y-85493624D01*
X128156488Y-85463927D01*
X128181258Y-85459000D01*
X128358742Y-85459000D01*
X128383512Y-85463927D01*
G37*
G36*
X143729059Y-84999860D02*
G01*
X143865732Y-85056472D01*
X143988735Y-85138660D01*
X144093340Y-85243265D01*
X144175528Y-85366268D01*
X144232140Y-85502941D01*
X144261000Y-85648033D01*
X144261000Y-85795967D01*
X144232140Y-85941059D01*
X144175528Y-86077732D01*
X144093340Y-86200735D01*
X143988735Y-86305340D01*
X143865732Y-86387528D01*
X143865731Y-86387529D01*
X143865730Y-86387529D01*
X143729059Y-86444140D01*
X143583968Y-86473000D01*
X143436032Y-86473000D01*
X143290941Y-86444140D01*
X143154270Y-86387529D01*
X143154269Y-86387529D01*
X143154268Y-86387528D01*
X143031265Y-86305340D01*
X142926660Y-86200735D01*
X142844472Y-86077732D01*
X142787860Y-85941059D01*
X142759000Y-85795967D01*
X142759000Y-85648033D01*
X142787860Y-85502941D01*
X142844472Y-85366268D01*
X142926660Y-85243265D01*
X143031265Y-85138660D01*
X143154268Y-85056472D01*
X143290941Y-84999860D01*
X143436032Y-84971000D01*
X143583968Y-84971000D01*
X143729059Y-84999860D01*
G37*
G36*
X141189059Y-83859860D02*
G01*
X141307071Y-83908742D01*
X141325732Y-83916472D01*
X141448735Y-83998660D01*
X141553340Y-84103265D01*
X141553341Y-84103267D01*
X141635529Y-84226270D01*
X141692140Y-84362941D01*
X141721000Y-84508032D01*
X141721000Y-84655968D01*
X141692140Y-84801059D01*
X141635528Y-84937732D01*
X141553340Y-85060735D01*
X141448735Y-85165340D01*
X141325732Y-85247528D01*
X141325731Y-85247529D01*
X141325730Y-85247529D01*
X141189059Y-85304140D01*
X141043968Y-85333000D01*
X140896032Y-85333000D01*
X140750941Y-85304140D01*
X140614270Y-85247529D01*
X140614269Y-85247529D01*
X140614268Y-85247528D01*
X140491265Y-85165340D01*
X140386660Y-85060735D01*
X140304472Y-84937732D01*
X140247860Y-84801059D01*
X140219000Y-84655968D01*
X140219000Y-84508032D01*
X140247860Y-84362941D01*
X140304471Y-84226270D01*
X140386659Y-84103267D01*
X140386660Y-84103265D01*
X140491265Y-83998660D01*
X140614268Y-83916472D01*
X140632930Y-83908742D01*
X140750941Y-83859860D01*
X140896032Y-83831000D01*
X141043968Y-83831000D01*
X141189059Y-83859860D01*
G37*
G36*
X146269059Y-83859860D02*
G01*
X146387071Y-83908742D01*
X146405732Y-83916472D01*
X146528735Y-83998660D01*
X146633340Y-84103265D01*
X146633341Y-84103267D01*
X146715529Y-84226270D01*
X146772140Y-84362941D01*
X146801000Y-84508032D01*
X146801000Y-84655968D01*
X146772140Y-84801059D01*
X146715528Y-84937732D01*
X146633340Y-85060735D01*
X146528735Y-85165340D01*
X146405732Y-85247528D01*
X146405731Y-85247529D01*
X146405730Y-85247529D01*
X146269059Y-85304140D01*
X146123968Y-85333000D01*
X145976032Y-85333000D01*
X145830941Y-85304140D01*
X145694270Y-85247529D01*
X145694269Y-85247529D01*
X145694268Y-85247528D01*
X145571265Y-85165340D01*
X145466660Y-85060735D01*
X145384472Y-84937732D01*
X145327860Y-84801059D01*
X145299000Y-84655968D01*
X145299000Y-84508032D01*
X145327860Y-84362941D01*
X145384471Y-84226270D01*
X145466659Y-84103267D01*
X145466660Y-84103265D01*
X145571265Y-83998660D01*
X145694268Y-83916472D01*
X145712930Y-83908742D01*
X145830941Y-83859860D01*
X145976032Y-83831000D01*
X146123968Y-83831000D01*
X146269059Y-83859860D01*
G37*
G36*
X128383512Y-82923927D02*
G01*
X128532812Y-82953624D01*
X128696784Y-83021544D01*
X128844354Y-83120147D01*
X128969853Y-83245646D01*
X129068456Y-83393216D01*
X129136376Y-83557188D01*
X129166073Y-83706488D01*
X129171000Y-83731258D01*
X129171000Y-83908742D01*
X129169462Y-83916472D01*
X129136376Y-84082812D01*
X129068456Y-84246784D01*
X128969853Y-84394354D01*
X128844354Y-84519853D01*
X128696784Y-84618456D01*
X128532812Y-84686376D01*
X128383512Y-84716073D01*
X128358742Y-84721000D01*
X128181258Y-84721000D01*
X128156488Y-84716073D01*
X128007188Y-84686376D01*
X127843216Y-84618456D01*
X127695646Y-84519853D01*
X127570147Y-84394354D01*
X127471544Y-84246784D01*
X127403624Y-84082812D01*
X127370538Y-83916472D01*
X127369000Y-83908742D01*
X127369000Y-83731258D01*
X127373927Y-83706488D01*
X127403624Y-83557188D01*
X127471544Y-83393216D01*
X127570147Y-83245646D01*
X127695646Y-83120147D01*
X127843216Y-83021544D01*
X128007188Y-82953624D01*
X128156488Y-82923927D01*
X128181258Y-82919000D01*
X128358742Y-82919000D01*
X128383512Y-82923927D01*
G37*
G36*
X143729059Y-82719860D02*
G01*
X143865732Y-82776472D01*
X143988735Y-82858660D01*
X144093340Y-82963265D01*
X144175528Y-83086268D01*
X144232140Y-83222941D01*
X144261000Y-83368033D01*
X144261000Y-83515967D01*
X144232140Y-83661059D01*
X144175528Y-83797732D01*
X144093340Y-83920735D01*
X143988735Y-84025340D01*
X143865732Y-84107528D01*
X143865731Y-84107529D01*
X143865730Y-84107529D01*
X143729059Y-84164140D01*
X143583968Y-84193000D01*
X143436032Y-84193000D01*
X143290941Y-84164140D01*
X143154270Y-84107529D01*
X143154269Y-84107529D01*
X143154268Y-84107528D01*
X143031265Y-84025340D01*
X142926660Y-83920735D01*
X142844472Y-83797732D01*
X142787860Y-83661059D01*
X142759000Y-83515967D01*
X142759000Y-83368033D01*
X142787860Y-83222941D01*
X142844472Y-83086268D01*
X142926660Y-82963265D01*
X143031265Y-82858660D01*
X143154268Y-82776472D01*
X143290941Y-82719860D01*
X143436032Y-82691000D01*
X143583968Y-82691000D01*
X143729059Y-82719860D01*
G37*
G36*
X128383512Y-80383927D02*
G01*
X128532812Y-80413624D01*
X128696784Y-80481544D01*
X128844354Y-80580147D01*
X128969853Y-80705646D01*
X129068456Y-80853216D01*
X129136376Y-81017188D01*
X129171000Y-81191259D01*
X129171000Y-81368741D01*
X129136376Y-81542812D01*
X129068456Y-81706784D01*
X128969853Y-81854354D01*
X128844354Y-81979853D01*
X128696784Y-82078456D01*
X128532812Y-82146376D01*
X128383512Y-82176073D01*
X128358742Y-82181000D01*
X128181258Y-82181000D01*
X128156488Y-82176073D01*
X128007188Y-82146376D01*
X127843216Y-82078456D01*
X127695646Y-81979853D01*
X127570147Y-81854354D01*
X127471544Y-81706784D01*
X127403624Y-81542812D01*
X127369000Y-81368741D01*
X127369000Y-81191259D01*
X127403624Y-81017188D01*
X127471544Y-80853216D01*
X127570147Y-80705646D01*
X127695646Y-80580147D01*
X127843216Y-80481544D01*
X128007188Y-80413624D01*
X128156488Y-80383927D01*
X128181258Y-80379000D01*
X128358742Y-80379000D01*
X128383512Y-80383927D01*
G37*
G36*
X128383512Y-77843927D02*
G01*
X128532812Y-77873624D01*
X128696784Y-77941544D01*
X128844354Y-78040147D01*
X128969853Y-78165646D01*
X129068456Y-78313216D01*
X129136376Y-78477188D01*
X129171000Y-78651259D01*
X129171000Y-78828741D01*
X129136376Y-79002812D01*
X129068456Y-79166784D01*
X128969853Y-79314354D01*
X128844354Y-79439853D01*
X128696784Y-79538456D01*
X128532812Y-79606376D01*
X128383512Y-79636073D01*
X128358742Y-79641000D01*
X128181258Y-79641000D01*
X128156488Y-79636073D01*
X128007188Y-79606376D01*
X127843216Y-79538456D01*
X127695646Y-79439853D01*
X127570147Y-79314354D01*
X127471544Y-79166784D01*
X127403624Y-79002812D01*
X127369000Y-78828741D01*
X127369000Y-78651259D01*
X127403624Y-78477188D01*
X127471544Y-78313216D01*
X127570147Y-78165646D01*
X127695646Y-78040147D01*
X127843216Y-77941544D01*
X128007188Y-77873624D01*
X128156488Y-77843927D01*
X128181258Y-77839000D01*
X128358742Y-77839000D01*
X128383512Y-77843927D01*
G37*
G36*
X144224929Y-74035190D02*
G01*
X144670982Y-74219951D01*
X144670984Y-74219952D01*
X144692538Y-74234354D01*
X145072421Y-74488184D01*
X145413816Y-74829579D01*
X145682049Y-75231018D01*
X145866810Y-75677071D01*
X145961000Y-76150596D01*
X145961000Y-76633404D01*
X145866810Y-77106929D01*
X145682049Y-77552982D01*
X145682048Y-77552984D01*
X145413816Y-77954421D01*
X145072421Y-78295816D01*
X144670984Y-78564048D01*
X144670983Y-78564049D01*
X144670982Y-78564049D01*
X144224929Y-78748810D01*
X143751404Y-78843000D01*
X143268596Y-78843000D01*
X142795071Y-78748810D01*
X142349018Y-78564049D01*
X142349017Y-78564049D01*
X142349016Y-78564048D01*
X141947579Y-78295816D01*
X141606184Y-77954421D01*
X141337952Y-77552984D01*
X141337951Y-77552982D01*
X141153190Y-77106929D01*
X141059000Y-76633404D01*
X141059000Y-76150596D01*
X141153190Y-75677071D01*
X141337951Y-75231018D01*
X141606184Y-74829579D01*
X141947579Y-74488184D01*
X142327462Y-74234354D01*
X142349016Y-74219952D01*
X142349018Y-74219951D01*
X142795071Y-74035190D01*
X143268596Y-73941000D01*
X143751404Y-73941000D01*
X144224929Y-74035190D01*
G37*
G36*
X128383512Y-75303927D02*
G01*
X128532812Y-75333624D01*
X128696784Y-75401544D01*
X128844354Y-75500147D01*
X128969853Y-75625646D01*
X129068456Y-75773216D01*
X129136376Y-75937188D01*
X129171000Y-76111259D01*
X129171000Y-76288741D01*
X129136376Y-76462812D01*
X129068456Y-76626784D01*
X128969853Y-76774354D01*
X128844354Y-76899853D01*
X128696784Y-76998456D01*
X128532812Y-77066376D01*
X128383512Y-77096073D01*
X128358742Y-77101000D01*
X128181258Y-77101000D01*
X128156488Y-77096073D01*
X128007188Y-77066376D01*
X127843216Y-76998456D01*
X127695646Y-76899853D01*
X127570147Y-76774354D01*
X127471544Y-76626784D01*
X127403624Y-76462812D01*
X127369000Y-76288741D01*
X127369000Y-76111259D01*
X127403624Y-75937188D01*
X127471544Y-75773216D01*
X127570147Y-75625646D01*
X127695646Y-75500147D01*
X127843216Y-75401544D01*
X128007188Y-75333624D01*
X128156488Y-75303927D01*
X128181258Y-75299000D01*
X128358742Y-75299000D01*
X128383512Y-75303927D01*
G37*
G36*
X128383512Y-72763927D02*
G01*
X128532812Y-72793624D01*
X128696784Y-72861544D01*
X128844354Y-72960147D01*
X128969853Y-73085646D01*
X129068456Y-73233216D01*
X129136376Y-73397188D01*
X129171000Y-73571259D01*
X129171000Y-73748741D01*
X129136376Y-73922812D01*
X129068456Y-74086784D01*
X128969853Y-74234354D01*
X128844354Y-74359853D01*
X128696784Y-74458456D01*
X128532812Y-74526376D01*
X128383512Y-74556073D01*
X128358742Y-74561000D01*
X128181258Y-74561000D01*
X128156488Y-74556073D01*
X128007188Y-74526376D01*
X127843216Y-74458456D01*
X127695646Y-74359853D01*
X127570147Y-74234354D01*
X127471544Y-74086784D01*
X127403624Y-73922812D01*
X127369000Y-73748741D01*
X127369000Y-73571259D01*
X127403624Y-73397188D01*
X127471544Y-73233216D01*
X127570147Y-73085646D01*
X127695646Y-72960147D01*
X127843216Y-72861544D01*
X128007188Y-72793624D01*
X128156488Y-72763927D01*
X128181258Y-72759000D01*
X128358742Y-72759000D01*
X128383512Y-72763927D01*
G37*
G36*
X138543512Y-70223927D02*
G01*
X138692812Y-70253624D01*
X138856784Y-70321544D01*
X139004354Y-70420147D01*
X139129853Y-70545646D01*
X139228456Y-70693216D01*
X139296376Y-70857188D01*
X139331000Y-71031259D01*
X139331000Y-71208741D01*
X139296376Y-71382812D01*
X139228456Y-71546784D01*
X139129853Y-71694354D01*
X139004354Y-71819853D01*
X138856784Y-71918456D01*
X138692812Y-71986376D01*
X138543512Y-72016073D01*
X138518742Y-72021000D01*
X138341258Y-72021000D01*
X138316488Y-72016073D01*
X138167188Y-71986376D01*
X138003216Y-71918456D01*
X137855646Y-71819853D01*
X137730147Y-71694354D01*
X137631544Y-71546784D01*
X137563624Y-71382812D01*
X137529000Y-71208741D01*
X137529000Y-71031259D01*
X137563624Y-70857188D01*
X137631544Y-70693216D01*
X137730147Y-70545646D01*
X137855646Y-70420147D01*
X138003216Y-70321544D01*
X138167188Y-70253624D01*
X138316488Y-70223927D01*
X138341258Y-70219000D01*
X138518742Y-70219000D01*
X138543512Y-70223927D01*
G37*
G36*
X136791000Y-72021000D02*
G01*
X134989000Y-72021000D01*
X134989000Y-70219000D01*
X136791000Y-70219000D01*
X136791000Y-72021000D01*
G37*
G36*
X129171000Y-72021000D02*
G01*
X127369000Y-72021000D01*
X127369000Y-70219000D01*
X129171000Y-70219000D01*
X129171000Y-72021000D01*
G37*
G36*
X148896564Y-68839389D02*
G01*
X149087833Y-68918615D01*
X149087835Y-68918616D01*
X149259973Y-69033635D01*
X149406365Y-69180027D01*
X149521385Y-69352167D01*
X149600611Y-69543436D01*
X149641000Y-69746484D01*
X149641000Y-69953516D01*
X149600611Y-70156564D01*
X149560407Y-70253625D01*
X149521384Y-70347835D01*
X149406365Y-70519973D01*
X149259973Y-70666365D01*
X149087835Y-70781384D01*
X149087834Y-70781385D01*
X149087833Y-70781385D01*
X148896564Y-70860611D01*
X148693516Y-70901000D01*
X148486484Y-70901000D01*
X148283436Y-70860611D01*
X148092167Y-70781385D01*
X148092166Y-70781385D01*
X148092165Y-70781384D01*
X147920027Y-70666365D01*
X147773635Y-70519973D01*
X147658616Y-70347835D01*
X147619593Y-70253625D01*
X147579389Y-70156564D01*
X147539000Y-69953516D01*
X147539000Y-69746484D01*
X147579389Y-69543436D01*
X147658615Y-69352167D01*
X147773635Y-69180027D01*
X147920027Y-69033635D01*
X148092165Y-68918616D01*
X148092167Y-68918615D01*
X148283436Y-68839389D01*
X148486484Y-68799000D01*
X148693516Y-68799000D01*
X148896564Y-68839389D01*
G37*
M02*
