M48
INCH,TZ
T1C0.0157
T2C0.0394
T3C0.1260
T4C0.0787
%
G90
G05
T1
X57600Y-39000
X58200Y-38600
X58800Y-38200
X59400Y-37800
X60000Y-37400
T2
X56200Y-33300
X56200Y-34202
X56200Y-35103
X56200Y-36005
X56200Y-36906
X56980Y-32849
X56980Y-33751
X56980Y-34652
X56980Y-35554
X56980Y-36456
X57759Y-33300
X57759Y-34202
X57759Y-35103
X57759Y-36005
X57759Y-36906
X53500Y-42000
X54500Y-42000
X50500Y-28000
X50500Y-29000
X50500Y-30000
X50500Y-31000
X50500Y-32000
X50500Y-33000
X50500Y-34000
X50500Y-35000
X50500Y-36000
X50500Y-37000
X50500Y-38000
X50500Y-39000
X50500Y-40000
X50500Y-41000
X50500Y-42000
X53500Y-28000
X54500Y-28000
T3
X56759Y-30078
X56759Y-39920
T4
X58500Y-42500
X58500Y-27500
T0
M30
