G04 #@! TF.GenerationSoftware,KiCad,Pcbnew,(5.1.5)-3*
G04 #@! TF.CreationDate,2020-11-30T10:10:13+01:00*
G04 #@! TF.ProjectId,VGA_breakout,5647415f-6272-4656-916b-6f75742e6b69,rev?*
G04 #@! TF.SameCoordinates,Original*
G04 #@! TF.FileFunction,Copper,L1,Top*
G04 #@! TF.FilePolarity,Positive*
%FSLAX46Y46*%
G04 Gerber Fmt 4.6, Leading zero omitted, Abs format (unit mm)*
G04 Created by KiCad (PCBNEW (5.1.5)-3) date 2020-11-30 10:10:13*
%MOMM*%
%LPD*%
G04 APERTURE LIST*
%ADD10C,1.400000*%
%ADD11C,4.800000*%
%ADD12O,1.700000X1.700000*%
%ADD13R,1.700000X1.700000*%
%ADD14C,0.800000*%
%ADD15C,0.250000*%
G04 APERTURE END LIST*
D10*
X140970000Y-84582000D03*
X140970000Y-86862000D03*
X140970000Y-89142000D03*
X140970000Y-91422000D03*
X140970000Y-93702000D03*
X143510000Y-83442000D03*
X143510000Y-85722000D03*
X143510000Y-88002000D03*
X143510000Y-90282000D03*
X143510000Y-92562000D03*
X146050000Y-84582000D03*
X146050000Y-86862000D03*
X146050000Y-89142000D03*
X146050000Y-91422000D03*
X146050000Y-93702000D03*
D11*
X143510000Y-76392000D03*
X143510000Y-101382000D03*
D12*
X138430000Y-71120000D03*
D13*
X135890000Y-71120000D03*
D12*
X138430000Y-106680000D03*
D13*
X135890000Y-106680000D03*
D12*
X128270000Y-106680000D03*
X128270000Y-104140000D03*
X128270000Y-101600000D03*
X128270000Y-99060000D03*
X128270000Y-96520000D03*
X128270000Y-93980000D03*
X128270000Y-91440000D03*
X128270000Y-88900000D03*
X128270000Y-86360000D03*
X128270000Y-83820000D03*
X128270000Y-81280000D03*
X128270000Y-78740000D03*
X128270000Y-76200000D03*
X128270000Y-73660000D03*
D13*
X128270000Y-71120000D03*
D14*
X146304000Y-99060000D03*
X147828000Y-98044000D03*
X149352000Y-97028000D03*
X150876000Y-96012000D03*
X152400000Y-94996000D03*
D15*
X146708000Y-98656000D02*
X146304000Y-99060000D01*
X146708000Y-98656000D02*
X146708000Y-93742000D01*
X147833001Y-98038999D02*
X147828000Y-98044000D01*
X148227999Y-97644001D02*
X148227999Y-92971999D01*
X148227999Y-92971999D02*
X146708000Y-91452000D01*
X147828000Y-98044000D02*
X148227999Y-97644001D01*
X149352000Y-91806000D02*
X146708000Y-89162000D01*
X149352000Y-97028000D02*
X149352000Y-91806000D01*
X150876000Y-91040000D02*
X146708000Y-86872000D01*
X150876000Y-96012000D02*
X150876000Y-91040000D01*
X152400000Y-90274000D02*
X146708000Y-84582000D01*
X152400000Y-94996000D02*
X152400000Y-90274000D01*
X140692000Y-93702000D02*
X140970000Y-93702000D01*
X128270000Y-81280000D02*
X140692000Y-93702000D01*
X140952000Y-91422000D02*
X140970000Y-91422000D01*
X128270000Y-78740000D02*
X140952000Y-91422000D01*
X140970000Y-88900000D02*
X140970000Y-89142000D01*
X128270000Y-76200000D02*
X140970000Y-88900000D01*
X140970000Y-86360000D02*
X140970000Y-86862000D01*
X128270000Y-73660000D02*
X140970000Y-86360000D01*
X140970000Y-83592051D02*
X140970000Y-84582000D01*
X140970000Y-82720000D02*
X140970000Y-83592051D01*
X129370000Y-71120000D02*
X140970000Y-82720000D01*
X128270000Y-71120000D02*
X129370000Y-71120000D01*
M02*
