G04 #@! TF.GenerationSoftware,KiCad,Pcbnew,(5.1.6-0-10_14)*
G04 #@! TF.CreationDate,2020-11-19T10:08:44+01:00*
G04 #@! TF.ProjectId,VGA_breakout,5647415f-6272-4656-916b-6f75742e6b69,rev?*
G04 #@! TF.SameCoordinates,Original*
G04 #@! TF.FileFunction,Soldermask,Top*
G04 #@! TF.FilePolarity,Negative*
%FSLAX46Y46*%
G04 Gerber Fmt 4.6, Leading zero omitted, Abs format (unit mm)*
G04 Created by KiCad (PCBNEW (5.1.6-0-10_14)) date 2020-11-19 10:08:44*
%MOMM*%
%LPD*%
G01*
G04 APERTURE LIST*
%ADD10C,0.100000*%
G04 APERTURE END LIST*
D10*
G36*
X148896564Y-106939389D02*
G01*
X149087833Y-107018615D01*
X149087835Y-107018616D01*
X149259973Y-107133635D01*
X149406365Y-107280027D01*
X149473067Y-107379853D01*
X149521385Y-107452167D01*
X149600611Y-107643436D01*
X149641000Y-107846484D01*
X149641000Y-108053516D01*
X149600611Y-108256564D01*
X149521385Y-108447833D01*
X149521384Y-108447835D01*
X149406365Y-108619973D01*
X149259973Y-108766365D01*
X149087835Y-108881384D01*
X149087834Y-108881385D01*
X149087833Y-108881385D01*
X148896564Y-108960611D01*
X148693516Y-109001000D01*
X148486484Y-109001000D01*
X148283436Y-108960611D01*
X148092167Y-108881385D01*
X148092166Y-108881385D01*
X148092165Y-108881384D01*
X147920027Y-108766365D01*
X147773635Y-108619973D01*
X147658616Y-108447835D01*
X147658615Y-108447833D01*
X147579389Y-108256564D01*
X147539000Y-108053516D01*
X147539000Y-107846484D01*
X147579389Y-107643436D01*
X147658615Y-107452167D01*
X147706934Y-107379853D01*
X147773635Y-107280027D01*
X147920027Y-107133635D01*
X148092165Y-107018616D01*
X148092167Y-107018615D01*
X148283436Y-106939389D01*
X148486484Y-106899000D01*
X148693516Y-106899000D01*
X148896564Y-106939389D01*
G37*
G36*
X136791000Y-107581000D02*
G01*
X134989000Y-107581000D01*
X134989000Y-105779000D01*
X136791000Y-105779000D01*
X136791000Y-107581000D01*
G37*
G36*
X128383512Y-105783927D02*
G01*
X128532812Y-105813624D01*
X128696784Y-105881544D01*
X128844354Y-105980147D01*
X128969853Y-106105646D01*
X129068456Y-106253216D01*
X129136376Y-106417188D01*
X129171000Y-106591259D01*
X129171000Y-106768741D01*
X129136376Y-106942812D01*
X129068456Y-107106784D01*
X128969853Y-107254354D01*
X128844354Y-107379853D01*
X128696784Y-107478456D01*
X128532812Y-107546376D01*
X128383512Y-107576073D01*
X128358742Y-107581000D01*
X128181258Y-107581000D01*
X128156488Y-107576073D01*
X128007188Y-107546376D01*
X127843216Y-107478456D01*
X127695646Y-107379853D01*
X127570147Y-107254354D01*
X127471544Y-107106784D01*
X127403624Y-106942812D01*
X127369000Y-106768741D01*
X127369000Y-106591259D01*
X127403624Y-106417188D01*
X127471544Y-106253216D01*
X127570147Y-106105646D01*
X127695646Y-105980147D01*
X127843216Y-105881544D01*
X128007188Y-105813624D01*
X128156488Y-105783927D01*
X128181258Y-105779000D01*
X128358742Y-105779000D01*
X128383512Y-105783927D01*
G37*
G36*
X138543512Y-105783927D02*
G01*
X138692812Y-105813624D01*
X138856784Y-105881544D01*
X139004354Y-105980147D01*
X139129853Y-106105646D01*
X139228456Y-106253216D01*
X139296376Y-106417188D01*
X139331000Y-106591259D01*
X139331000Y-106768741D01*
X139296376Y-106942812D01*
X139228456Y-107106784D01*
X139129853Y-107254354D01*
X139004354Y-107379853D01*
X138856784Y-107478456D01*
X138692812Y-107546376D01*
X138543512Y-107576073D01*
X138518742Y-107581000D01*
X138341258Y-107581000D01*
X138316488Y-107576073D01*
X138167188Y-107546376D01*
X138003216Y-107478456D01*
X137855646Y-107379853D01*
X137730147Y-107254354D01*
X137631544Y-107106784D01*
X137563624Y-106942812D01*
X137529000Y-106768741D01*
X137529000Y-106591259D01*
X137563624Y-106417188D01*
X137631544Y-106253216D01*
X137730147Y-106105646D01*
X137855646Y-105980147D01*
X138003216Y-105881544D01*
X138167188Y-105813624D01*
X138316488Y-105783927D01*
X138341258Y-105779000D01*
X138518742Y-105779000D01*
X138543512Y-105783927D01*
G37*
G36*
X128383512Y-103243927D02*
G01*
X128532812Y-103273624D01*
X128696784Y-103341544D01*
X128844354Y-103440147D01*
X128969853Y-103565646D01*
X129068456Y-103713216D01*
X129136376Y-103877188D01*
X129171000Y-104051259D01*
X129171000Y-104228741D01*
X129136376Y-104402812D01*
X129068456Y-104566784D01*
X128969853Y-104714354D01*
X128844354Y-104839853D01*
X128696784Y-104938456D01*
X128532812Y-105006376D01*
X128383512Y-105036073D01*
X128358742Y-105041000D01*
X128181258Y-105041000D01*
X128156488Y-105036073D01*
X128007188Y-105006376D01*
X127843216Y-104938456D01*
X127695646Y-104839853D01*
X127570147Y-104714354D01*
X127471544Y-104566784D01*
X127403624Y-104402812D01*
X127369000Y-104228741D01*
X127369000Y-104051259D01*
X127403624Y-103877188D01*
X127471544Y-103713216D01*
X127570147Y-103565646D01*
X127695646Y-103440147D01*
X127843216Y-103341544D01*
X128007188Y-103273624D01*
X128156488Y-103243927D01*
X128181258Y-103239000D01*
X128358742Y-103239000D01*
X128383512Y-103243927D01*
G37*
G36*
X144766254Y-99424818D02*
G01*
X145139511Y-99579426D01*
X145139513Y-99579427D01*
X145409539Y-99759853D01*
X145475436Y-99803884D01*
X145761116Y-100089564D01*
X145985574Y-100425489D01*
X146140182Y-100798746D01*
X146219000Y-101194993D01*
X146219000Y-101599007D01*
X146140182Y-101995254D01*
X146065996Y-102174354D01*
X145985573Y-102368513D01*
X145761116Y-102704436D01*
X145475436Y-102990116D01*
X145139513Y-103214573D01*
X145139512Y-103214574D01*
X145139511Y-103214574D01*
X144766254Y-103369182D01*
X144370007Y-103448000D01*
X143965993Y-103448000D01*
X143569746Y-103369182D01*
X143196489Y-103214574D01*
X143196488Y-103214574D01*
X143196487Y-103214573D01*
X142860564Y-102990116D01*
X142574884Y-102704436D01*
X142350427Y-102368513D01*
X142270004Y-102174354D01*
X142195818Y-101995254D01*
X142117000Y-101599007D01*
X142117000Y-101194993D01*
X142195818Y-100798746D01*
X142350426Y-100425489D01*
X142574884Y-100089564D01*
X142860564Y-99803884D01*
X142926461Y-99759853D01*
X143196487Y-99579427D01*
X143196489Y-99579426D01*
X143569746Y-99424818D01*
X143965993Y-99346000D01*
X144370007Y-99346000D01*
X144766254Y-99424818D01*
G37*
G36*
X128383512Y-100703927D02*
G01*
X128532812Y-100733624D01*
X128696784Y-100801544D01*
X128844354Y-100900147D01*
X128969853Y-101025646D01*
X129068456Y-101173216D01*
X129136376Y-101337188D01*
X129171000Y-101511259D01*
X129171000Y-101688741D01*
X129136376Y-101862812D01*
X129068456Y-102026784D01*
X128969853Y-102174354D01*
X128844354Y-102299853D01*
X128696784Y-102398456D01*
X128532812Y-102466376D01*
X128383512Y-102496073D01*
X128358742Y-102501000D01*
X128181258Y-102501000D01*
X128156488Y-102496073D01*
X128007188Y-102466376D01*
X127843216Y-102398456D01*
X127695646Y-102299853D01*
X127570147Y-102174354D01*
X127471544Y-102026784D01*
X127403624Y-101862812D01*
X127369000Y-101688741D01*
X127369000Y-101511259D01*
X127403624Y-101337188D01*
X127471544Y-101173216D01*
X127570147Y-101025646D01*
X127695646Y-100900147D01*
X127843216Y-100801544D01*
X128007188Y-100733624D01*
X128156488Y-100703927D01*
X128181258Y-100699000D01*
X128358742Y-100699000D01*
X128383512Y-100703927D01*
G37*
G36*
X128383512Y-98163927D02*
G01*
X128532812Y-98193624D01*
X128696784Y-98261544D01*
X128844354Y-98360147D01*
X128969853Y-98485646D01*
X129068456Y-98633216D01*
X129136376Y-98797188D01*
X129171000Y-98971259D01*
X129171000Y-99148741D01*
X129136376Y-99322812D01*
X129068456Y-99486784D01*
X128969853Y-99634354D01*
X128844354Y-99759853D01*
X128696784Y-99858456D01*
X128532812Y-99926376D01*
X128383512Y-99956073D01*
X128358742Y-99961000D01*
X128181258Y-99961000D01*
X128156488Y-99956073D01*
X128007188Y-99926376D01*
X127843216Y-99858456D01*
X127695646Y-99759853D01*
X127570147Y-99634354D01*
X127471544Y-99486784D01*
X127403624Y-99322812D01*
X127369000Y-99148741D01*
X127369000Y-98971259D01*
X127403624Y-98797188D01*
X127471544Y-98633216D01*
X127570147Y-98485646D01*
X127695646Y-98360147D01*
X127843216Y-98261544D01*
X128007188Y-98193624D01*
X128156488Y-98163927D01*
X128181258Y-98159000D01*
X128358742Y-98159000D01*
X128383512Y-98163927D01*
G37*
G36*
X128383512Y-95623927D02*
G01*
X128532812Y-95653624D01*
X128696784Y-95721544D01*
X128844354Y-95820147D01*
X128969853Y-95945646D01*
X129068456Y-96093216D01*
X129136376Y-96257188D01*
X129171000Y-96431259D01*
X129171000Y-96608741D01*
X129136376Y-96782812D01*
X129068456Y-96946784D01*
X128969853Y-97094354D01*
X128844354Y-97219853D01*
X128696784Y-97318456D01*
X128532812Y-97386376D01*
X128383512Y-97416073D01*
X128358742Y-97421000D01*
X128181258Y-97421000D01*
X128156488Y-97416073D01*
X128007188Y-97386376D01*
X127843216Y-97318456D01*
X127695646Y-97219853D01*
X127570147Y-97094354D01*
X127471544Y-96946784D01*
X127403624Y-96782812D01*
X127369000Y-96608741D01*
X127369000Y-96431259D01*
X127403624Y-96257188D01*
X127471544Y-96093216D01*
X127570147Y-95945646D01*
X127695646Y-95820147D01*
X127843216Y-95721544D01*
X128007188Y-95653624D01*
X128156488Y-95623927D01*
X128181258Y-95619000D01*
X128358742Y-95619000D01*
X128383512Y-95623927D01*
G37*
G36*
X128368721Y-93080985D02*
G01*
X128532812Y-93113624D01*
X128696784Y-93181544D01*
X128844354Y-93280147D01*
X128969853Y-93405646D01*
X129068456Y-93553216D01*
X129136376Y-93717188D01*
X129171000Y-93891259D01*
X129171000Y-94068741D01*
X129136376Y-94242812D01*
X129068456Y-94406784D01*
X128969853Y-94554354D01*
X128844354Y-94679853D01*
X128696784Y-94778456D01*
X128532812Y-94846376D01*
X128383512Y-94876073D01*
X128358742Y-94881000D01*
X128181258Y-94881000D01*
X128156488Y-94876073D01*
X128007188Y-94846376D01*
X127843216Y-94778456D01*
X127695646Y-94679853D01*
X127570147Y-94554354D01*
X127471544Y-94406784D01*
X127403624Y-94242812D01*
X127369000Y-94068741D01*
X127369000Y-93891259D01*
X127403624Y-93717188D01*
X127471544Y-93553216D01*
X127570147Y-93405646D01*
X127695646Y-93280147D01*
X127843216Y-93181544D01*
X128007188Y-93113624D01*
X128171279Y-93080985D01*
X128181258Y-93079000D01*
X128358742Y-93079000D01*
X128368721Y-93080985D01*
G37*
G36*
X146956228Y-92923703D02*
G01*
X147111100Y-92987853D01*
X147250481Y-93080985D01*
X147369015Y-93199519D01*
X147462147Y-93338900D01*
X147526297Y-93493772D01*
X147559000Y-93658184D01*
X147559000Y-93825816D01*
X147526297Y-93990228D01*
X147462147Y-94145100D01*
X147369015Y-94284481D01*
X147250481Y-94403015D01*
X147111100Y-94496147D01*
X146956228Y-94560297D01*
X146791816Y-94593000D01*
X146624184Y-94593000D01*
X146459772Y-94560297D01*
X146304900Y-94496147D01*
X146165519Y-94403015D01*
X146046985Y-94284481D01*
X145953853Y-94145100D01*
X145889703Y-93990228D01*
X145857000Y-93825816D01*
X145857000Y-93658184D01*
X145889703Y-93493772D01*
X145953853Y-93338900D01*
X146046985Y-93199519D01*
X146165519Y-93080985D01*
X146304900Y-92987853D01*
X146459772Y-92923703D01*
X146624184Y-92891000D01*
X146791816Y-92891000D01*
X146956228Y-92923703D01*
G37*
G36*
X142996228Y-92923703D02*
G01*
X143151100Y-92987853D01*
X143290481Y-93080985D01*
X143409015Y-93199519D01*
X143502147Y-93338900D01*
X143566297Y-93493772D01*
X143599000Y-93658184D01*
X143599000Y-93825816D01*
X143566297Y-93990228D01*
X143502147Y-94145100D01*
X143409015Y-94284481D01*
X143290481Y-94403015D01*
X143151100Y-94496147D01*
X142996228Y-94560297D01*
X142831816Y-94593000D01*
X142664184Y-94593000D01*
X142499772Y-94560297D01*
X142344900Y-94496147D01*
X142205519Y-94403015D01*
X142086985Y-94284481D01*
X141993853Y-94145100D01*
X141929703Y-93990228D01*
X141897000Y-93825816D01*
X141897000Y-93658184D01*
X141929703Y-93493772D01*
X141993853Y-93338900D01*
X142086985Y-93199519D01*
X142205519Y-93080985D01*
X142344900Y-92987853D01*
X142499772Y-92923703D01*
X142664184Y-92891000D01*
X142831816Y-92891000D01*
X142996228Y-92923703D01*
G37*
G36*
X144976228Y-91778703D02*
G01*
X145131100Y-91842853D01*
X145270481Y-91935985D01*
X145389015Y-92054519D01*
X145482147Y-92193900D01*
X145546297Y-92348772D01*
X145579000Y-92513184D01*
X145579000Y-92680816D01*
X145546297Y-92845228D01*
X145482147Y-93000100D01*
X145389015Y-93139481D01*
X145270481Y-93258015D01*
X145131100Y-93351147D01*
X144976228Y-93415297D01*
X144811816Y-93448000D01*
X144644184Y-93448000D01*
X144479772Y-93415297D01*
X144324900Y-93351147D01*
X144185519Y-93258015D01*
X144066985Y-93139481D01*
X143973853Y-93000100D01*
X143909703Y-92845228D01*
X143877000Y-92680816D01*
X143877000Y-92513184D01*
X143909703Y-92348772D01*
X143973853Y-92193900D01*
X144066985Y-92054519D01*
X144185519Y-91935985D01*
X144324900Y-91842853D01*
X144479772Y-91778703D01*
X144644184Y-91746000D01*
X144811816Y-91746000D01*
X144976228Y-91778703D01*
G37*
G36*
X128383512Y-90543927D02*
G01*
X128532812Y-90573624D01*
X128696784Y-90641544D01*
X128844354Y-90740147D01*
X128969853Y-90865646D01*
X129068456Y-91013216D01*
X129136376Y-91177188D01*
X129171000Y-91351259D01*
X129171000Y-91528741D01*
X129136376Y-91702812D01*
X129068456Y-91866784D01*
X128969853Y-92014354D01*
X128844354Y-92139853D01*
X128696784Y-92238456D01*
X128532812Y-92306376D01*
X128383512Y-92336073D01*
X128358742Y-92341000D01*
X128181258Y-92341000D01*
X128156488Y-92336073D01*
X128007188Y-92306376D01*
X127843216Y-92238456D01*
X127695646Y-92139853D01*
X127570147Y-92014354D01*
X127471544Y-91866784D01*
X127403624Y-91702812D01*
X127369000Y-91528741D01*
X127369000Y-91351259D01*
X127403624Y-91177188D01*
X127471544Y-91013216D01*
X127570147Y-90865646D01*
X127695646Y-90740147D01*
X127843216Y-90641544D01*
X128007188Y-90573624D01*
X128156488Y-90543927D01*
X128181258Y-90539000D01*
X128358742Y-90539000D01*
X128383512Y-90543927D01*
G37*
G36*
X146956228Y-90633703D02*
G01*
X147111100Y-90697853D01*
X147250481Y-90790985D01*
X147369015Y-90909519D01*
X147462147Y-91048900D01*
X147526297Y-91203772D01*
X147559000Y-91368184D01*
X147559000Y-91535816D01*
X147526297Y-91700228D01*
X147462147Y-91855100D01*
X147369015Y-91994481D01*
X147250481Y-92113015D01*
X147111100Y-92206147D01*
X146956228Y-92270297D01*
X146791816Y-92303000D01*
X146624184Y-92303000D01*
X146459772Y-92270297D01*
X146304900Y-92206147D01*
X146165519Y-92113015D01*
X146046985Y-91994481D01*
X145953853Y-91855100D01*
X145889703Y-91700228D01*
X145857000Y-91535816D01*
X145857000Y-91368184D01*
X145889703Y-91203772D01*
X145953853Y-91048900D01*
X146046985Y-90909519D01*
X146165519Y-90790985D01*
X146304900Y-90697853D01*
X146459772Y-90633703D01*
X146624184Y-90601000D01*
X146791816Y-90601000D01*
X146956228Y-90633703D01*
G37*
G36*
X142996228Y-90633703D02*
G01*
X143151100Y-90697853D01*
X143290481Y-90790985D01*
X143409015Y-90909519D01*
X143502147Y-91048900D01*
X143566297Y-91203772D01*
X143599000Y-91368184D01*
X143599000Y-91535816D01*
X143566297Y-91700228D01*
X143502147Y-91855100D01*
X143409015Y-91994481D01*
X143290481Y-92113015D01*
X143151100Y-92206147D01*
X142996228Y-92270297D01*
X142831816Y-92303000D01*
X142664184Y-92303000D01*
X142499772Y-92270297D01*
X142344900Y-92206147D01*
X142205519Y-92113015D01*
X142086985Y-91994481D01*
X141993853Y-91855100D01*
X141929703Y-91700228D01*
X141897000Y-91535816D01*
X141897000Y-91368184D01*
X141929703Y-91203772D01*
X141993853Y-91048900D01*
X142086985Y-90909519D01*
X142205519Y-90790985D01*
X142344900Y-90697853D01*
X142499772Y-90633703D01*
X142664184Y-90601000D01*
X142831816Y-90601000D01*
X142996228Y-90633703D01*
G37*
G36*
X144976228Y-89488703D02*
G01*
X145131100Y-89552853D01*
X145270481Y-89645985D01*
X145389015Y-89764519D01*
X145482147Y-89903900D01*
X145546297Y-90058772D01*
X145579000Y-90223184D01*
X145579000Y-90390816D01*
X145546297Y-90555228D01*
X145482147Y-90710100D01*
X145389015Y-90849481D01*
X145270481Y-90968015D01*
X145131100Y-91061147D01*
X144976228Y-91125297D01*
X144811816Y-91158000D01*
X144644184Y-91158000D01*
X144479772Y-91125297D01*
X144324900Y-91061147D01*
X144185519Y-90968015D01*
X144066985Y-90849481D01*
X143973853Y-90710100D01*
X143909703Y-90555228D01*
X143877000Y-90390816D01*
X143877000Y-90223184D01*
X143909703Y-90058772D01*
X143973853Y-89903900D01*
X144066985Y-89764519D01*
X144185519Y-89645985D01*
X144324900Y-89552853D01*
X144479772Y-89488703D01*
X144644184Y-89456000D01*
X144811816Y-89456000D01*
X144976228Y-89488703D01*
G37*
G36*
X146956228Y-88343703D02*
G01*
X147111100Y-88407853D01*
X147250481Y-88500985D01*
X147369015Y-88619519D01*
X147462147Y-88758900D01*
X147526297Y-88913772D01*
X147559000Y-89078184D01*
X147559000Y-89245816D01*
X147526297Y-89410228D01*
X147462147Y-89565100D01*
X147369015Y-89704481D01*
X147250481Y-89823015D01*
X147111100Y-89916147D01*
X146956228Y-89980297D01*
X146791816Y-90013000D01*
X146624184Y-90013000D01*
X146459772Y-89980297D01*
X146304900Y-89916147D01*
X146165519Y-89823015D01*
X146046985Y-89704481D01*
X145953853Y-89565100D01*
X145889703Y-89410228D01*
X145857000Y-89245816D01*
X145857000Y-89078184D01*
X145889703Y-88913772D01*
X145953853Y-88758900D01*
X146046985Y-88619519D01*
X146165519Y-88500985D01*
X146304900Y-88407853D01*
X146459772Y-88343703D01*
X146624184Y-88311000D01*
X146791816Y-88311000D01*
X146956228Y-88343703D01*
G37*
G36*
X142996228Y-88343703D02*
G01*
X143151100Y-88407853D01*
X143290481Y-88500985D01*
X143409015Y-88619519D01*
X143502147Y-88758900D01*
X143566297Y-88913772D01*
X143599000Y-89078184D01*
X143599000Y-89245816D01*
X143566297Y-89410228D01*
X143502147Y-89565100D01*
X143409015Y-89704481D01*
X143290481Y-89823015D01*
X143151100Y-89916147D01*
X142996228Y-89980297D01*
X142831816Y-90013000D01*
X142664184Y-90013000D01*
X142499772Y-89980297D01*
X142344900Y-89916147D01*
X142205519Y-89823015D01*
X142086985Y-89704481D01*
X141993853Y-89565100D01*
X141929703Y-89410228D01*
X141897000Y-89245816D01*
X141897000Y-89078184D01*
X141929703Y-88913772D01*
X141993853Y-88758900D01*
X142086985Y-88619519D01*
X142205519Y-88500985D01*
X142344900Y-88407853D01*
X142499772Y-88343703D01*
X142664184Y-88311000D01*
X142831816Y-88311000D01*
X142996228Y-88343703D01*
G37*
G36*
X128383512Y-88003927D02*
G01*
X128532812Y-88033624D01*
X128696784Y-88101544D01*
X128844354Y-88200147D01*
X128969853Y-88325646D01*
X129068456Y-88473216D01*
X129136376Y-88637188D01*
X129171000Y-88811259D01*
X129171000Y-88988741D01*
X129136376Y-89162812D01*
X129068456Y-89326784D01*
X128969853Y-89474354D01*
X128844354Y-89599853D01*
X128696784Y-89698456D01*
X128532812Y-89766376D01*
X128383512Y-89796073D01*
X128358742Y-89801000D01*
X128181258Y-89801000D01*
X128156488Y-89796073D01*
X128007188Y-89766376D01*
X127843216Y-89698456D01*
X127695646Y-89599853D01*
X127570147Y-89474354D01*
X127471544Y-89326784D01*
X127403624Y-89162812D01*
X127369000Y-88988741D01*
X127369000Y-88811259D01*
X127403624Y-88637188D01*
X127471544Y-88473216D01*
X127570147Y-88325646D01*
X127695646Y-88200147D01*
X127843216Y-88101544D01*
X128007188Y-88033624D01*
X128156488Y-88003927D01*
X128181258Y-87999000D01*
X128358742Y-87999000D01*
X128383512Y-88003927D01*
G37*
G36*
X144976228Y-87198703D02*
G01*
X145131100Y-87262853D01*
X145270481Y-87355985D01*
X145389015Y-87474519D01*
X145482147Y-87613900D01*
X145546297Y-87768772D01*
X145579000Y-87933184D01*
X145579000Y-88100816D01*
X145546297Y-88265228D01*
X145482147Y-88420100D01*
X145389015Y-88559481D01*
X145270481Y-88678015D01*
X145131100Y-88771147D01*
X144976228Y-88835297D01*
X144811816Y-88868000D01*
X144644184Y-88868000D01*
X144479772Y-88835297D01*
X144324900Y-88771147D01*
X144185519Y-88678015D01*
X144066985Y-88559481D01*
X143973853Y-88420100D01*
X143909703Y-88265228D01*
X143877000Y-88100816D01*
X143877000Y-87933184D01*
X143909703Y-87768772D01*
X143973853Y-87613900D01*
X144066985Y-87474519D01*
X144185519Y-87355985D01*
X144324900Y-87262853D01*
X144479772Y-87198703D01*
X144644184Y-87166000D01*
X144811816Y-87166000D01*
X144976228Y-87198703D01*
G37*
G36*
X142996228Y-86053703D02*
G01*
X143151100Y-86117853D01*
X143290481Y-86210985D01*
X143409015Y-86329519D01*
X143502147Y-86468900D01*
X143566297Y-86623772D01*
X143599000Y-86788184D01*
X143599000Y-86955816D01*
X143566297Y-87120228D01*
X143502147Y-87275100D01*
X143409015Y-87414481D01*
X143290481Y-87533015D01*
X143151100Y-87626147D01*
X142996228Y-87690297D01*
X142831816Y-87723000D01*
X142664184Y-87723000D01*
X142499772Y-87690297D01*
X142344900Y-87626147D01*
X142205519Y-87533015D01*
X142086985Y-87414481D01*
X141993853Y-87275100D01*
X141929703Y-87120228D01*
X141897000Y-86955816D01*
X141897000Y-86788184D01*
X141929703Y-86623772D01*
X141993853Y-86468900D01*
X142086985Y-86329519D01*
X142205519Y-86210985D01*
X142344900Y-86117853D01*
X142499772Y-86053703D01*
X142664184Y-86021000D01*
X142831816Y-86021000D01*
X142996228Y-86053703D01*
G37*
G36*
X146956228Y-86053703D02*
G01*
X147111100Y-86117853D01*
X147250481Y-86210985D01*
X147369015Y-86329519D01*
X147462147Y-86468900D01*
X147526297Y-86623772D01*
X147559000Y-86788184D01*
X147559000Y-86955816D01*
X147526297Y-87120228D01*
X147462147Y-87275100D01*
X147369015Y-87414481D01*
X147250481Y-87533015D01*
X147111100Y-87626147D01*
X146956228Y-87690297D01*
X146791816Y-87723000D01*
X146624184Y-87723000D01*
X146459772Y-87690297D01*
X146304900Y-87626147D01*
X146165519Y-87533015D01*
X146046985Y-87414481D01*
X145953853Y-87275100D01*
X145889703Y-87120228D01*
X145857000Y-86955816D01*
X145857000Y-86788184D01*
X145889703Y-86623772D01*
X145953853Y-86468900D01*
X146046985Y-86329519D01*
X146165519Y-86210985D01*
X146304900Y-86117853D01*
X146459772Y-86053703D01*
X146624184Y-86021000D01*
X146791816Y-86021000D01*
X146956228Y-86053703D01*
G37*
G36*
X128383512Y-85463927D02*
G01*
X128532812Y-85493624D01*
X128696784Y-85561544D01*
X128844354Y-85660147D01*
X128969853Y-85785646D01*
X129068456Y-85933216D01*
X129136376Y-86097188D01*
X129142922Y-86130100D01*
X129170647Y-86269481D01*
X129171000Y-86271259D01*
X129171000Y-86448741D01*
X129136376Y-86622812D01*
X129068456Y-86786784D01*
X128969853Y-86934354D01*
X128844354Y-87059853D01*
X128696784Y-87158456D01*
X128532812Y-87226376D01*
X128383512Y-87256073D01*
X128358742Y-87261000D01*
X128181258Y-87261000D01*
X128156488Y-87256073D01*
X128007188Y-87226376D01*
X127843216Y-87158456D01*
X127695646Y-87059853D01*
X127570147Y-86934354D01*
X127471544Y-86786784D01*
X127403624Y-86622812D01*
X127369000Y-86448741D01*
X127369000Y-86271259D01*
X127369354Y-86269481D01*
X127397078Y-86130100D01*
X127403624Y-86097188D01*
X127471544Y-85933216D01*
X127570147Y-85785646D01*
X127695646Y-85660147D01*
X127843216Y-85561544D01*
X128007188Y-85493624D01*
X128156488Y-85463927D01*
X128181258Y-85459000D01*
X128358742Y-85459000D01*
X128383512Y-85463927D01*
G37*
G36*
X144976228Y-84908703D02*
G01*
X145131100Y-84972853D01*
X145270481Y-85065985D01*
X145389015Y-85184519D01*
X145482147Y-85323900D01*
X145546297Y-85478772D01*
X145579000Y-85643184D01*
X145579000Y-85810816D01*
X145546297Y-85975228D01*
X145482147Y-86130100D01*
X145389015Y-86269481D01*
X145270481Y-86388015D01*
X145131100Y-86481147D01*
X144976228Y-86545297D01*
X144811816Y-86578000D01*
X144644184Y-86578000D01*
X144479772Y-86545297D01*
X144324900Y-86481147D01*
X144185519Y-86388015D01*
X144066985Y-86269481D01*
X143973853Y-86130100D01*
X143909703Y-85975228D01*
X143877000Y-85810816D01*
X143877000Y-85643184D01*
X143909703Y-85478772D01*
X143973853Y-85323900D01*
X144066985Y-85184519D01*
X144185519Y-85065985D01*
X144324900Y-84972853D01*
X144479772Y-84908703D01*
X144644184Y-84876000D01*
X144811816Y-84876000D01*
X144976228Y-84908703D01*
G37*
G36*
X143599000Y-85433000D02*
G01*
X141897000Y-85433000D01*
X141897000Y-83731000D01*
X143599000Y-83731000D01*
X143599000Y-85433000D01*
G37*
G36*
X146956228Y-83763703D02*
G01*
X147111100Y-83827853D01*
X147250481Y-83920985D01*
X147369015Y-84039519D01*
X147462147Y-84178900D01*
X147526297Y-84333772D01*
X147559000Y-84498184D01*
X147559000Y-84665816D01*
X147526297Y-84830228D01*
X147462147Y-84985100D01*
X147369015Y-85124481D01*
X147250481Y-85243015D01*
X147111100Y-85336147D01*
X146956228Y-85400297D01*
X146791816Y-85433000D01*
X146624184Y-85433000D01*
X146459772Y-85400297D01*
X146304900Y-85336147D01*
X146165519Y-85243015D01*
X146046985Y-85124481D01*
X145953853Y-84985100D01*
X145889703Y-84830228D01*
X145857000Y-84665816D01*
X145857000Y-84498184D01*
X145889703Y-84333772D01*
X145953853Y-84178900D01*
X146046985Y-84039519D01*
X146165519Y-83920985D01*
X146304900Y-83827853D01*
X146459772Y-83763703D01*
X146624184Y-83731000D01*
X146791816Y-83731000D01*
X146956228Y-83763703D01*
G37*
G36*
X128383512Y-82923927D02*
G01*
X128532812Y-82953624D01*
X128696784Y-83021544D01*
X128844354Y-83120147D01*
X128969853Y-83245646D01*
X129068456Y-83393216D01*
X129136376Y-83557188D01*
X129161844Y-83685228D01*
X129170949Y-83731000D01*
X129171000Y-83731259D01*
X129171000Y-83908741D01*
X129136376Y-84082812D01*
X129068456Y-84246784D01*
X128969853Y-84394354D01*
X128844354Y-84519853D01*
X128696784Y-84618456D01*
X128532812Y-84686376D01*
X128383512Y-84716073D01*
X128358742Y-84721000D01*
X128181258Y-84721000D01*
X128156488Y-84716073D01*
X128007188Y-84686376D01*
X127843216Y-84618456D01*
X127695646Y-84519853D01*
X127570147Y-84394354D01*
X127471544Y-84246784D01*
X127403624Y-84082812D01*
X127369000Y-83908741D01*
X127369000Y-83731259D01*
X127369052Y-83731000D01*
X127378156Y-83685228D01*
X127403624Y-83557188D01*
X127471544Y-83393216D01*
X127570147Y-83245646D01*
X127695646Y-83120147D01*
X127843216Y-83021544D01*
X128007188Y-82953624D01*
X128156488Y-82923927D01*
X128181258Y-82919000D01*
X128358742Y-82919000D01*
X128383512Y-82923927D01*
G37*
G36*
X144976228Y-82618703D02*
G01*
X145131100Y-82682853D01*
X145270481Y-82775985D01*
X145389015Y-82894519D01*
X145482147Y-83033900D01*
X145546297Y-83188772D01*
X145579000Y-83353184D01*
X145579000Y-83520816D01*
X145546297Y-83685228D01*
X145482147Y-83840100D01*
X145389015Y-83979481D01*
X145270481Y-84098015D01*
X145131100Y-84191147D01*
X144976228Y-84255297D01*
X144811816Y-84288000D01*
X144644184Y-84288000D01*
X144479772Y-84255297D01*
X144324900Y-84191147D01*
X144185519Y-84098015D01*
X144066985Y-83979481D01*
X143973853Y-83840100D01*
X143909703Y-83685228D01*
X143877000Y-83520816D01*
X143877000Y-83353184D01*
X143909703Y-83188772D01*
X143973853Y-83033900D01*
X144066985Y-82894519D01*
X144185519Y-82775985D01*
X144324900Y-82682853D01*
X144479772Y-82618703D01*
X144644184Y-82586000D01*
X144811816Y-82586000D01*
X144976228Y-82618703D01*
G37*
G36*
X128383512Y-80383927D02*
G01*
X128532812Y-80413624D01*
X128696784Y-80481544D01*
X128844354Y-80580147D01*
X128969853Y-80705646D01*
X129068456Y-80853216D01*
X129136376Y-81017188D01*
X129171000Y-81191259D01*
X129171000Y-81368741D01*
X129136376Y-81542812D01*
X129068456Y-81706784D01*
X128969853Y-81854354D01*
X128844354Y-81979853D01*
X128696784Y-82078456D01*
X128532812Y-82146376D01*
X128383512Y-82176073D01*
X128358742Y-82181000D01*
X128181258Y-82181000D01*
X128156488Y-82176073D01*
X128007188Y-82146376D01*
X127843216Y-82078456D01*
X127695646Y-81979853D01*
X127570147Y-81854354D01*
X127471544Y-81706784D01*
X127403624Y-81542812D01*
X127369000Y-81368741D01*
X127369000Y-81191259D01*
X127403624Y-81017188D01*
X127471544Y-80853216D01*
X127570147Y-80705646D01*
X127695646Y-80580147D01*
X127843216Y-80481544D01*
X128007188Y-80413624D01*
X128156488Y-80383927D01*
X128181258Y-80379000D01*
X128358742Y-80379000D01*
X128383512Y-80383927D01*
G37*
G36*
X128383512Y-77843927D02*
G01*
X128532812Y-77873624D01*
X128696784Y-77941544D01*
X128844354Y-78040147D01*
X128969853Y-78165646D01*
X129068456Y-78313216D01*
X129136376Y-78477188D01*
X129171000Y-78651259D01*
X129171000Y-78828741D01*
X129136376Y-79002812D01*
X129068456Y-79166784D01*
X128969853Y-79314354D01*
X128844354Y-79439853D01*
X128696784Y-79538456D01*
X128532812Y-79606376D01*
X128383512Y-79636073D01*
X128358742Y-79641000D01*
X128181258Y-79641000D01*
X128156488Y-79636073D01*
X128007188Y-79606376D01*
X127843216Y-79538456D01*
X127695646Y-79439853D01*
X127570147Y-79314354D01*
X127471544Y-79166784D01*
X127403624Y-79002812D01*
X127369000Y-78828741D01*
X127369000Y-78651259D01*
X127403624Y-78477188D01*
X127471544Y-78313216D01*
X127570147Y-78165646D01*
X127695646Y-78040147D01*
X127843216Y-77941544D01*
X128007188Y-77873624D01*
X128156488Y-77843927D01*
X128181258Y-77839000D01*
X128358742Y-77839000D01*
X128383512Y-77843927D01*
G37*
G36*
X144766254Y-74424818D02*
G01*
X145139511Y-74579426D01*
X145139513Y-74579427D01*
X145475436Y-74803884D01*
X145761116Y-75089564D01*
X145969575Y-75401544D01*
X145985574Y-75425489D01*
X146140182Y-75798746D01*
X146219000Y-76194993D01*
X146219000Y-76599007D01*
X146140182Y-76995254D01*
X145985574Y-77368511D01*
X145985573Y-77368513D01*
X145761116Y-77704436D01*
X145475436Y-77990116D01*
X145139513Y-78214573D01*
X145139512Y-78214574D01*
X145139511Y-78214574D01*
X144766254Y-78369182D01*
X144370007Y-78448000D01*
X143965993Y-78448000D01*
X143569746Y-78369182D01*
X143196489Y-78214574D01*
X143196488Y-78214574D01*
X143196487Y-78214573D01*
X142860564Y-77990116D01*
X142574884Y-77704436D01*
X142350427Y-77368513D01*
X142350426Y-77368511D01*
X142195818Y-76995254D01*
X142117000Y-76599007D01*
X142117000Y-76194993D01*
X142195818Y-75798746D01*
X142350426Y-75425489D01*
X142366426Y-75401544D01*
X142574884Y-75089564D01*
X142860564Y-74803884D01*
X143196487Y-74579427D01*
X143196489Y-74579426D01*
X143569746Y-74424818D01*
X143965993Y-74346000D01*
X144370007Y-74346000D01*
X144766254Y-74424818D01*
G37*
G36*
X128383512Y-75303927D02*
G01*
X128532812Y-75333624D01*
X128696784Y-75401544D01*
X128844354Y-75500147D01*
X128969853Y-75625646D01*
X129068456Y-75773216D01*
X129136376Y-75937188D01*
X129171000Y-76111259D01*
X129171000Y-76288741D01*
X129136376Y-76462812D01*
X129068456Y-76626784D01*
X128969853Y-76774354D01*
X128844354Y-76899853D01*
X128696784Y-76998456D01*
X128532812Y-77066376D01*
X128383512Y-77096073D01*
X128358742Y-77101000D01*
X128181258Y-77101000D01*
X128156488Y-77096073D01*
X128007188Y-77066376D01*
X127843216Y-76998456D01*
X127695646Y-76899853D01*
X127570147Y-76774354D01*
X127471544Y-76626784D01*
X127403624Y-76462812D01*
X127369000Y-76288741D01*
X127369000Y-76111259D01*
X127403624Y-75937188D01*
X127471544Y-75773216D01*
X127570147Y-75625646D01*
X127695646Y-75500147D01*
X127843216Y-75401544D01*
X128007188Y-75333624D01*
X128156488Y-75303927D01*
X128181258Y-75299000D01*
X128358742Y-75299000D01*
X128383512Y-75303927D01*
G37*
G36*
X128383512Y-72763927D02*
G01*
X128532812Y-72793624D01*
X128696784Y-72861544D01*
X128844354Y-72960147D01*
X128969853Y-73085646D01*
X129068456Y-73233216D01*
X129136376Y-73397188D01*
X129171000Y-73571259D01*
X129171000Y-73748741D01*
X129136376Y-73922812D01*
X129068456Y-74086784D01*
X128969853Y-74234354D01*
X128844354Y-74359853D01*
X128696784Y-74458456D01*
X128532812Y-74526376D01*
X128383512Y-74556073D01*
X128358742Y-74561000D01*
X128181258Y-74561000D01*
X128156488Y-74556073D01*
X128007188Y-74526376D01*
X127843216Y-74458456D01*
X127695646Y-74359853D01*
X127570147Y-74234354D01*
X127471544Y-74086784D01*
X127403624Y-73922812D01*
X127369000Y-73748741D01*
X127369000Y-73571259D01*
X127403624Y-73397188D01*
X127471544Y-73233216D01*
X127570147Y-73085646D01*
X127695646Y-72960147D01*
X127843216Y-72861544D01*
X128007188Y-72793624D01*
X128156488Y-72763927D01*
X128181258Y-72759000D01*
X128358742Y-72759000D01*
X128383512Y-72763927D01*
G37*
G36*
X136791000Y-72021000D02*
G01*
X134989000Y-72021000D01*
X134989000Y-70219000D01*
X136791000Y-70219000D01*
X136791000Y-72021000D01*
G37*
G36*
X138543512Y-70223927D02*
G01*
X138692812Y-70253624D01*
X138856784Y-70321544D01*
X139004354Y-70420147D01*
X139129853Y-70545646D01*
X139228456Y-70693216D01*
X139296376Y-70857188D01*
X139331000Y-71031259D01*
X139331000Y-71208741D01*
X139296376Y-71382812D01*
X139228456Y-71546784D01*
X139129853Y-71694354D01*
X139004354Y-71819853D01*
X138856784Y-71918456D01*
X138692812Y-71986376D01*
X138543512Y-72016073D01*
X138518742Y-72021000D01*
X138341258Y-72021000D01*
X138316488Y-72016073D01*
X138167188Y-71986376D01*
X138003216Y-71918456D01*
X137855646Y-71819853D01*
X137730147Y-71694354D01*
X137631544Y-71546784D01*
X137563624Y-71382812D01*
X137529000Y-71208741D01*
X137529000Y-71031259D01*
X137563624Y-70857188D01*
X137631544Y-70693216D01*
X137730147Y-70545646D01*
X137855646Y-70420147D01*
X138003216Y-70321544D01*
X138167188Y-70253624D01*
X138316488Y-70223927D01*
X138341258Y-70219000D01*
X138518742Y-70219000D01*
X138543512Y-70223927D01*
G37*
G36*
X129171000Y-72021000D02*
G01*
X127369000Y-72021000D01*
X127369000Y-70219000D01*
X129171000Y-70219000D01*
X129171000Y-72021000D01*
G37*
G36*
X148896564Y-68839389D02*
G01*
X149087833Y-68918615D01*
X149087835Y-68918616D01*
X149259973Y-69033635D01*
X149406365Y-69180027D01*
X149521385Y-69352167D01*
X149600611Y-69543436D01*
X149641000Y-69746484D01*
X149641000Y-69953516D01*
X149600611Y-70156564D01*
X149560407Y-70253625D01*
X149521384Y-70347835D01*
X149406365Y-70519973D01*
X149259973Y-70666365D01*
X149087835Y-70781384D01*
X149087834Y-70781385D01*
X149087833Y-70781385D01*
X148896564Y-70860611D01*
X148693516Y-70901000D01*
X148486484Y-70901000D01*
X148283436Y-70860611D01*
X148092167Y-70781385D01*
X148092166Y-70781385D01*
X148092165Y-70781384D01*
X147920027Y-70666365D01*
X147773635Y-70519973D01*
X147658616Y-70347835D01*
X147619593Y-70253625D01*
X147579389Y-70156564D01*
X147539000Y-69953516D01*
X147539000Y-69746484D01*
X147579389Y-69543436D01*
X147658615Y-69352167D01*
X147773635Y-69180027D01*
X147920027Y-69033635D01*
X148092165Y-68918616D01*
X148092167Y-68918615D01*
X148283436Y-68839389D01*
X148486484Y-68799000D01*
X148693516Y-68799000D01*
X148896564Y-68839389D01*
G37*
M02*
