G04 #@! TF.GenerationSoftware,KiCad,Pcbnew,(5.1.5)-3*
G04 #@! TF.CreationDate,2020-11-18T22:27:50+01:00*
G04 #@! TF.ProjectId,VGA_breakout,5647415f-6272-4656-916b-6f75742e6b69,rev?*
G04 #@! TF.SameCoordinates,Original*
G04 #@! TF.FileFunction,Legend,Top*
G04 #@! TF.FilePolarity,Positive*
%FSLAX46Y46*%
G04 Gerber Fmt 4.6, Leading zero omitted, Abs format (unit mm)*
G04 Created by KiCad (PCBNEW (5.1.5)-3) date 2020-11-18 22:27:50*
%MOMM*%
%LPD*%
G04 APERTURE LIST*
%ADD10C,0.150000*%
%ADD11C,0.120000*%
G04 APERTURE END LIST*
D10*
X130383595Y-107132380D02*
X130383595Y-106132380D01*
X130859785Y-107132380D02*
X130859785Y-106132380D01*
X131097880Y-106132380D01*
X131240738Y-106180000D01*
X131335976Y-106275238D01*
X131383595Y-106370476D01*
X131431214Y-106560952D01*
X131431214Y-106703809D01*
X131383595Y-106894285D01*
X131335976Y-106989523D01*
X131240738Y-107084761D01*
X131097880Y-107132380D01*
X130859785Y-107132380D01*
X131764547Y-106132380D02*
X132383595Y-106132380D01*
X132050261Y-106513333D01*
X132193119Y-106513333D01*
X132288357Y-106560952D01*
X132335976Y-106608571D01*
X132383595Y-106703809D01*
X132383595Y-106941904D01*
X132335976Y-107037142D01*
X132288357Y-107084761D01*
X132193119Y-107132380D01*
X131907404Y-107132380D01*
X131812166Y-107084761D01*
X131764547Y-107037142D01*
X130240738Y-103592380D02*
X130574071Y-104592380D01*
X130907404Y-103592380D01*
X131193119Y-104544761D02*
X131335976Y-104592380D01*
X131574071Y-104592380D01*
X131669309Y-104544761D01*
X131716928Y-104497142D01*
X131764547Y-104401904D01*
X131764547Y-104306666D01*
X131716928Y-104211428D01*
X131669309Y-104163809D01*
X131574071Y-104116190D01*
X131383595Y-104068571D01*
X131288357Y-104020952D01*
X131240738Y-103973333D01*
X131193119Y-103878095D01*
X131193119Y-103782857D01*
X131240738Y-103687619D01*
X131288357Y-103640000D01*
X131383595Y-103592380D01*
X131621690Y-103592380D01*
X131764547Y-103640000D01*
X132097880Y-103925714D02*
X132335976Y-104592380D01*
X132574071Y-103925714D02*
X132335976Y-104592380D01*
X132240738Y-104830476D01*
X132193119Y-104878095D01*
X132097880Y-104925714D01*
X132955023Y-103925714D02*
X132955023Y-104592380D01*
X132955023Y-104020952D02*
X133002642Y-103973333D01*
X133097880Y-103925714D01*
X133240738Y-103925714D01*
X133335976Y-103973333D01*
X133383595Y-104068571D01*
X133383595Y-104592380D01*
X134288357Y-104544761D02*
X134193119Y-104592380D01*
X134002642Y-104592380D01*
X133907404Y-104544761D01*
X133859785Y-104497142D01*
X133812166Y-104401904D01*
X133812166Y-104116190D01*
X133859785Y-104020952D01*
X133907404Y-103973333D01*
X134002642Y-103925714D01*
X134193119Y-103925714D01*
X134288357Y-103973333D01*
X130383595Y-102052380D02*
X130383595Y-101052380D01*
X130383595Y-101528571D02*
X130955023Y-101528571D01*
X130955023Y-102052380D02*
X130955023Y-101052380D01*
X131383595Y-102004761D02*
X131526452Y-102052380D01*
X131764547Y-102052380D01*
X131859785Y-102004761D01*
X131907404Y-101957142D01*
X131955023Y-101861904D01*
X131955023Y-101766666D01*
X131907404Y-101671428D01*
X131859785Y-101623809D01*
X131764547Y-101576190D01*
X131574071Y-101528571D01*
X131478833Y-101480952D01*
X131431214Y-101433333D01*
X131383595Y-101338095D01*
X131383595Y-101242857D01*
X131431214Y-101147619D01*
X131478833Y-101100000D01*
X131574071Y-101052380D01*
X131812166Y-101052380D01*
X131955023Y-101100000D01*
X132288357Y-101385714D02*
X132526452Y-102052380D01*
X132764547Y-101385714D02*
X132526452Y-102052380D01*
X132431214Y-102290476D01*
X132383595Y-102338095D01*
X132288357Y-102385714D01*
X133145500Y-101385714D02*
X133145500Y-102052380D01*
X133145500Y-101480952D02*
X133193119Y-101433333D01*
X133288357Y-101385714D01*
X133431214Y-101385714D01*
X133526452Y-101433333D01*
X133574071Y-101528571D01*
X133574071Y-102052380D01*
X134478833Y-102004761D02*
X134383595Y-102052380D01*
X134193119Y-102052380D01*
X134097880Y-102004761D01*
X134050261Y-101957142D01*
X134002642Y-101861904D01*
X134002642Y-101576190D01*
X134050261Y-101480952D01*
X134097880Y-101433333D01*
X134193119Y-101385714D01*
X134383595Y-101385714D01*
X134478833Y-101433333D01*
X130383595Y-99512380D02*
X130383595Y-98512380D01*
X130859785Y-99512380D02*
X130859785Y-98512380D01*
X131097880Y-98512380D01*
X131240738Y-98560000D01*
X131335976Y-98655238D01*
X131383595Y-98750476D01*
X131431214Y-98940952D01*
X131431214Y-99083809D01*
X131383595Y-99274285D01*
X131335976Y-99369523D01*
X131240738Y-99464761D01*
X131097880Y-99512380D01*
X130859785Y-99512380D01*
X132383595Y-99512380D02*
X131812166Y-99512380D01*
X132097880Y-99512380D02*
X132097880Y-98512380D01*
X132002642Y-98655238D01*
X131907404Y-98750476D01*
X131812166Y-98798095D01*
X130383595Y-96972380D02*
X130383595Y-95972380D01*
X130859785Y-96972380D02*
X130859785Y-95972380D01*
X131097880Y-95972380D01*
X131240738Y-96020000D01*
X131335976Y-96115238D01*
X131383595Y-96210476D01*
X131431214Y-96400952D01*
X131431214Y-96543809D01*
X131383595Y-96734285D01*
X131335976Y-96829523D01*
X131240738Y-96924761D01*
X131097880Y-96972380D01*
X130859785Y-96972380D01*
X132050261Y-95972380D02*
X132145500Y-95972380D01*
X132240738Y-96020000D01*
X132288357Y-96067619D01*
X132335976Y-96162857D01*
X132383595Y-96353333D01*
X132383595Y-96591428D01*
X132335976Y-96781904D01*
X132288357Y-96877142D01*
X132240738Y-96924761D01*
X132145500Y-96972380D01*
X132050261Y-96972380D01*
X131955023Y-96924761D01*
X131907404Y-96877142D01*
X131859785Y-96781904D01*
X131812166Y-96591428D01*
X131812166Y-96353333D01*
X131859785Y-96162857D01*
X131907404Y-96067619D01*
X131955023Y-96020000D01*
X132050261Y-95972380D01*
X130907404Y-93480000D02*
X130812166Y-93432380D01*
X130669309Y-93432380D01*
X130526452Y-93480000D01*
X130431214Y-93575238D01*
X130383595Y-93670476D01*
X130335976Y-93860952D01*
X130335976Y-94003809D01*
X130383595Y-94194285D01*
X130431214Y-94289523D01*
X130526452Y-94384761D01*
X130669309Y-94432380D01*
X130764547Y-94432380D01*
X130907404Y-94384761D01*
X130955023Y-94337142D01*
X130955023Y-94003809D01*
X130764547Y-94003809D01*
X131383595Y-94432380D02*
X131383595Y-93432380D01*
X131955023Y-94432380D01*
X131955023Y-93432380D01*
X132431214Y-94432380D02*
X132431214Y-93432380D01*
X132669309Y-93432380D01*
X132812166Y-93480000D01*
X132907404Y-93575238D01*
X132955023Y-93670476D01*
X133002642Y-93860952D01*
X133002642Y-94003809D01*
X132955023Y-94194285D01*
X132907404Y-94289523D01*
X132812166Y-94384761D01*
X132669309Y-94432380D01*
X132431214Y-94432380D01*
X134478833Y-94813333D02*
X134431214Y-94765714D01*
X134335976Y-94622857D01*
X134288357Y-94527619D01*
X134240738Y-94384761D01*
X134193119Y-94146666D01*
X134193119Y-93956190D01*
X134240738Y-93718095D01*
X134288357Y-93575238D01*
X134335976Y-93480000D01*
X134431214Y-93337142D01*
X134478833Y-93289523D01*
X134716928Y-93432380D02*
X135050261Y-94432380D01*
X135383595Y-93432380D01*
X135669309Y-94384761D02*
X135812166Y-94432380D01*
X136050261Y-94432380D01*
X136145500Y-94384761D01*
X136193119Y-94337142D01*
X136240738Y-94241904D01*
X136240738Y-94146666D01*
X136193119Y-94051428D01*
X136145500Y-94003809D01*
X136050261Y-93956190D01*
X135859785Y-93908571D01*
X135764547Y-93860952D01*
X135716928Y-93813333D01*
X135669309Y-93718095D01*
X135669309Y-93622857D01*
X135716928Y-93527619D01*
X135764547Y-93480000D01*
X135859785Y-93432380D01*
X136097880Y-93432380D01*
X136240738Y-93480000D01*
X136574071Y-93765714D02*
X136812166Y-94432380D01*
X137050261Y-93765714D02*
X136812166Y-94432380D01*
X136716928Y-94670476D01*
X136669309Y-94718095D01*
X136574071Y-94765714D01*
X137431214Y-93765714D02*
X137431214Y-94432380D01*
X137431214Y-93860952D02*
X137478833Y-93813333D01*
X137574071Y-93765714D01*
X137716928Y-93765714D01*
X137812166Y-93813333D01*
X137859785Y-93908571D01*
X137859785Y-94432380D01*
X138764547Y-94384761D02*
X138669309Y-94432380D01*
X138478833Y-94432380D01*
X138383595Y-94384761D01*
X138335976Y-94337142D01*
X138288357Y-94241904D01*
X138288357Y-93956190D01*
X138335976Y-93860952D01*
X138383595Y-93813333D01*
X138478833Y-93765714D01*
X138669309Y-93765714D01*
X138764547Y-93813333D01*
X139097880Y-94813333D02*
X139145500Y-94765714D01*
X139240738Y-94622857D01*
X139288357Y-94527619D01*
X139335976Y-94384761D01*
X139383595Y-94146666D01*
X139383595Y-93956190D01*
X139335976Y-93718095D01*
X139288357Y-93575238D01*
X139240738Y-93480000D01*
X139145500Y-93337142D01*
X139097880Y-93289523D01*
X130907404Y-90940000D02*
X130812166Y-90892380D01*
X130669309Y-90892380D01*
X130526452Y-90940000D01*
X130431214Y-91035238D01*
X130383595Y-91130476D01*
X130335976Y-91320952D01*
X130335976Y-91463809D01*
X130383595Y-91654285D01*
X130431214Y-91749523D01*
X130526452Y-91844761D01*
X130669309Y-91892380D01*
X130764547Y-91892380D01*
X130907404Y-91844761D01*
X130955023Y-91797142D01*
X130955023Y-91463809D01*
X130764547Y-91463809D01*
X131383595Y-91892380D02*
X131383595Y-90892380D01*
X131955023Y-91892380D01*
X131955023Y-90892380D01*
X132431214Y-91892380D02*
X132431214Y-90892380D01*
X132669309Y-90892380D01*
X132812166Y-90940000D01*
X132907404Y-91035238D01*
X132955023Y-91130476D01*
X133002642Y-91320952D01*
X133002642Y-91463809D01*
X132955023Y-91654285D01*
X132907404Y-91749523D01*
X132812166Y-91844761D01*
X132669309Y-91892380D01*
X132431214Y-91892380D01*
X134478833Y-92273333D02*
X134431214Y-92225714D01*
X134335976Y-92082857D01*
X134288357Y-91987619D01*
X134240738Y-91844761D01*
X134193119Y-91606666D01*
X134193119Y-91416190D01*
X134240738Y-91178095D01*
X134288357Y-91035238D01*
X134335976Y-90940000D01*
X134431214Y-90797142D01*
X134478833Y-90749523D01*
X134859785Y-91892380D02*
X134859785Y-90892380D01*
X135431214Y-91892380D02*
X135002642Y-91320952D01*
X135431214Y-90892380D02*
X134859785Y-91463809D01*
X136240738Y-91844761D02*
X136145500Y-91892380D01*
X135955023Y-91892380D01*
X135859785Y-91844761D01*
X135812166Y-91749523D01*
X135812166Y-91368571D01*
X135859785Y-91273333D01*
X135955023Y-91225714D01*
X136145500Y-91225714D01*
X136240738Y-91273333D01*
X136288357Y-91368571D01*
X136288357Y-91463809D01*
X135812166Y-91559047D01*
X136621690Y-91225714D02*
X136859785Y-91892380D01*
X137097880Y-91225714D02*
X136859785Y-91892380D01*
X136764547Y-92130476D01*
X136716928Y-92178095D01*
X136621690Y-92225714D01*
X137383595Y-92273333D02*
X137431214Y-92225714D01*
X137526452Y-92082857D01*
X137574071Y-91987619D01*
X137621690Y-91844761D01*
X137669309Y-91606666D01*
X137669309Y-91416190D01*
X137621690Y-91178095D01*
X137574071Y-91035238D01*
X137526452Y-90940000D01*
X137431214Y-90797142D01*
X137383595Y-90749523D01*
X130907404Y-88400000D02*
X130812166Y-88352380D01*
X130669309Y-88352380D01*
X130526452Y-88400000D01*
X130431214Y-88495238D01*
X130383595Y-88590476D01*
X130335976Y-88780952D01*
X130335976Y-88923809D01*
X130383595Y-89114285D01*
X130431214Y-89209523D01*
X130526452Y-89304761D01*
X130669309Y-89352380D01*
X130764547Y-89352380D01*
X130907404Y-89304761D01*
X130955023Y-89257142D01*
X130955023Y-88923809D01*
X130764547Y-88923809D01*
X131383595Y-89352380D02*
X131383595Y-88352380D01*
X131955023Y-89352380D01*
X131955023Y-88352380D01*
X132431214Y-89352380D02*
X132431214Y-88352380D01*
X132669309Y-88352380D01*
X132812166Y-88400000D01*
X132907404Y-88495238D01*
X132955023Y-88590476D01*
X133002642Y-88780952D01*
X133002642Y-88923809D01*
X132955023Y-89114285D01*
X132907404Y-89209523D01*
X132812166Y-89304761D01*
X132669309Y-89352380D01*
X132431214Y-89352380D01*
X134478833Y-89733333D02*
X134431214Y-89685714D01*
X134335976Y-89542857D01*
X134288357Y-89447619D01*
X134240738Y-89304761D01*
X134193119Y-89066666D01*
X134193119Y-88876190D01*
X134240738Y-88638095D01*
X134288357Y-88495238D01*
X134335976Y-88400000D01*
X134431214Y-88257142D01*
X134478833Y-88209523D01*
X135193119Y-88828571D02*
X135335976Y-88876190D01*
X135383595Y-88923809D01*
X135431214Y-89019047D01*
X135431214Y-89161904D01*
X135383595Y-89257142D01*
X135335976Y-89304761D01*
X135240738Y-89352380D01*
X134859785Y-89352380D01*
X134859785Y-88352380D01*
X135193119Y-88352380D01*
X135288357Y-88400000D01*
X135335976Y-88447619D01*
X135383595Y-88542857D01*
X135383595Y-88638095D01*
X135335976Y-88733333D01*
X135288357Y-88780952D01*
X135193119Y-88828571D01*
X134859785Y-88828571D01*
X136002642Y-89352380D02*
X135907404Y-89304761D01*
X135859785Y-89209523D01*
X135859785Y-88352380D01*
X136812166Y-88685714D02*
X136812166Y-89352380D01*
X136383595Y-88685714D02*
X136383595Y-89209523D01*
X136431214Y-89304761D01*
X136526452Y-89352380D01*
X136669309Y-89352380D01*
X136764547Y-89304761D01*
X136812166Y-89257142D01*
X137669309Y-89304761D02*
X137574071Y-89352380D01*
X137383595Y-89352380D01*
X137288357Y-89304761D01*
X137240738Y-89209523D01*
X137240738Y-88828571D01*
X137288357Y-88733333D01*
X137383595Y-88685714D01*
X137574071Y-88685714D01*
X137669309Y-88733333D01*
X137716928Y-88828571D01*
X137716928Y-88923809D01*
X137240738Y-89019047D01*
X138050261Y-89733333D02*
X138097880Y-89685714D01*
X138193119Y-89542857D01*
X138240738Y-89447619D01*
X138288357Y-89304761D01*
X138335976Y-89066666D01*
X138335976Y-88876190D01*
X138288357Y-88638095D01*
X138240738Y-88495238D01*
X138193119Y-88400000D01*
X138097880Y-88257142D01*
X138050261Y-88209523D01*
X130907404Y-85860000D02*
X130812166Y-85812380D01*
X130669309Y-85812380D01*
X130526452Y-85860000D01*
X130431214Y-85955238D01*
X130383595Y-86050476D01*
X130335976Y-86240952D01*
X130335976Y-86383809D01*
X130383595Y-86574285D01*
X130431214Y-86669523D01*
X130526452Y-86764761D01*
X130669309Y-86812380D01*
X130764547Y-86812380D01*
X130907404Y-86764761D01*
X130955023Y-86717142D01*
X130955023Y-86383809D01*
X130764547Y-86383809D01*
X131383595Y-86812380D02*
X131383595Y-85812380D01*
X131955023Y-86812380D01*
X131955023Y-85812380D01*
X132431214Y-86812380D02*
X132431214Y-85812380D01*
X132669309Y-85812380D01*
X132812166Y-85860000D01*
X132907404Y-85955238D01*
X132955023Y-86050476D01*
X133002642Y-86240952D01*
X133002642Y-86383809D01*
X132955023Y-86574285D01*
X132907404Y-86669523D01*
X132812166Y-86764761D01*
X132669309Y-86812380D01*
X132431214Y-86812380D01*
X134478833Y-87193333D02*
X134431214Y-87145714D01*
X134335976Y-87002857D01*
X134288357Y-86907619D01*
X134240738Y-86764761D01*
X134193119Y-86526666D01*
X134193119Y-86336190D01*
X134240738Y-86098095D01*
X134288357Y-85955238D01*
X134335976Y-85860000D01*
X134431214Y-85717142D01*
X134478833Y-85669523D01*
X135383595Y-85860000D02*
X135288357Y-85812380D01*
X135145500Y-85812380D01*
X135002642Y-85860000D01*
X134907404Y-85955238D01*
X134859785Y-86050476D01*
X134812166Y-86240952D01*
X134812166Y-86383809D01*
X134859785Y-86574285D01*
X134907404Y-86669523D01*
X135002642Y-86764761D01*
X135145500Y-86812380D01*
X135240738Y-86812380D01*
X135383595Y-86764761D01*
X135431214Y-86717142D01*
X135431214Y-86383809D01*
X135240738Y-86383809D01*
X135859785Y-86812380D02*
X135859785Y-86145714D01*
X135859785Y-86336190D02*
X135907404Y-86240952D01*
X135955023Y-86193333D01*
X136050261Y-86145714D01*
X136145500Y-86145714D01*
X136859785Y-86764761D02*
X136764547Y-86812380D01*
X136574071Y-86812380D01*
X136478833Y-86764761D01*
X136431214Y-86669523D01*
X136431214Y-86288571D01*
X136478833Y-86193333D01*
X136574071Y-86145714D01*
X136764547Y-86145714D01*
X136859785Y-86193333D01*
X136907404Y-86288571D01*
X136907404Y-86383809D01*
X136431214Y-86479047D01*
X137716928Y-86764761D02*
X137621690Y-86812380D01*
X137431214Y-86812380D01*
X137335976Y-86764761D01*
X137288357Y-86669523D01*
X137288357Y-86288571D01*
X137335976Y-86193333D01*
X137431214Y-86145714D01*
X137621690Y-86145714D01*
X137716928Y-86193333D01*
X137764547Y-86288571D01*
X137764547Y-86383809D01*
X137288357Y-86479047D01*
X138193119Y-86145714D02*
X138193119Y-86812380D01*
X138193119Y-86240952D02*
X138240738Y-86193333D01*
X138335976Y-86145714D01*
X138478833Y-86145714D01*
X138574071Y-86193333D01*
X138621690Y-86288571D01*
X138621690Y-86812380D01*
X139002642Y-87193333D02*
X139050261Y-87145714D01*
X139145500Y-87002857D01*
X139193119Y-86907619D01*
X139240738Y-86764761D01*
X139288357Y-86526666D01*
X139288357Y-86336190D01*
X139240738Y-86098095D01*
X139193119Y-85955238D01*
X139145500Y-85860000D01*
X139050261Y-85717142D01*
X139002642Y-85669523D01*
X130907404Y-83320000D02*
X130812166Y-83272380D01*
X130669309Y-83272380D01*
X130526452Y-83320000D01*
X130431214Y-83415238D01*
X130383595Y-83510476D01*
X130335976Y-83700952D01*
X130335976Y-83843809D01*
X130383595Y-84034285D01*
X130431214Y-84129523D01*
X130526452Y-84224761D01*
X130669309Y-84272380D01*
X130764547Y-84272380D01*
X130907404Y-84224761D01*
X130955023Y-84177142D01*
X130955023Y-83843809D01*
X130764547Y-83843809D01*
X131383595Y-84272380D02*
X131383595Y-83272380D01*
X131955023Y-84272380D01*
X131955023Y-83272380D01*
X132431214Y-84272380D02*
X132431214Y-83272380D01*
X132669309Y-83272380D01*
X132812166Y-83320000D01*
X132907404Y-83415238D01*
X132955023Y-83510476D01*
X133002642Y-83700952D01*
X133002642Y-83843809D01*
X132955023Y-84034285D01*
X132907404Y-84129523D01*
X132812166Y-84224761D01*
X132669309Y-84272380D01*
X132431214Y-84272380D01*
X134478833Y-84653333D02*
X134431214Y-84605714D01*
X134335976Y-84462857D01*
X134288357Y-84367619D01*
X134240738Y-84224761D01*
X134193119Y-83986666D01*
X134193119Y-83796190D01*
X134240738Y-83558095D01*
X134288357Y-83415238D01*
X134335976Y-83320000D01*
X134431214Y-83177142D01*
X134478833Y-83129523D01*
X135431214Y-84272380D02*
X135097880Y-83796190D01*
X134859785Y-84272380D02*
X134859785Y-83272380D01*
X135240738Y-83272380D01*
X135335976Y-83320000D01*
X135383595Y-83367619D01*
X135431214Y-83462857D01*
X135431214Y-83605714D01*
X135383595Y-83700952D01*
X135335976Y-83748571D01*
X135240738Y-83796190D01*
X134859785Y-83796190D01*
X136240738Y-84224761D02*
X136145500Y-84272380D01*
X135955023Y-84272380D01*
X135859785Y-84224761D01*
X135812166Y-84129523D01*
X135812166Y-83748571D01*
X135859785Y-83653333D01*
X135955023Y-83605714D01*
X136145500Y-83605714D01*
X136240738Y-83653333D01*
X136288357Y-83748571D01*
X136288357Y-83843809D01*
X135812166Y-83939047D01*
X137145500Y-84272380D02*
X137145500Y-83272380D01*
X137145500Y-84224761D02*
X137050261Y-84272380D01*
X136859785Y-84272380D01*
X136764547Y-84224761D01*
X136716928Y-84177142D01*
X136669309Y-84081904D01*
X136669309Y-83796190D01*
X136716928Y-83700952D01*
X136764547Y-83653333D01*
X136859785Y-83605714D01*
X137050261Y-83605714D01*
X137145500Y-83653333D01*
X137526452Y-84653333D02*
X137574071Y-84605714D01*
X137669309Y-84462857D01*
X137716928Y-84367619D01*
X137764547Y-84224761D01*
X137812166Y-83986666D01*
X137812166Y-83796190D01*
X137764547Y-83558095D01*
X137716928Y-83415238D01*
X137669309Y-83320000D01*
X137574071Y-83177142D01*
X137526452Y-83129523D01*
X130907404Y-80780000D02*
X130812166Y-80732380D01*
X130669309Y-80732380D01*
X130526452Y-80780000D01*
X130431214Y-80875238D01*
X130383595Y-80970476D01*
X130335976Y-81160952D01*
X130335976Y-81303809D01*
X130383595Y-81494285D01*
X130431214Y-81589523D01*
X130526452Y-81684761D01*
X130669309Y-81732380D01*
X130764547Y-81732380D01*
X130907404Y-81684761D01*
X130955023Y-81637142D01*
X130955023Y-81303809D01*
X130764547Y-81303809D01*
X131383595Y-81732380D02*
X131383595Y-80732380D01*
X131955023Y-81732380D01*
X131955023Y-80732380D01*
X132431214Y-81732380D02*
X132431214Y-80732380D01*
X132669309Y-80732380D01*
X132812166Y-80780000D01*
X132907404Y-80875238D01*
X132955023Y-80970476D01*
X133002642Y-81160952D01*
X133002642Y-81303809D01*
X132955023Y-81494285D01*
X132907404Y-81589523D01*
X132812166Y-81684761D01*
X132669309Y-81732380D01*
X132431214Y-81732380D01*
X134478833Y-82113333D02*
X134431214Y-82065714D01*
X134335976Y-81922857D01*
X134288357Y-81827619D01*
X134240738Y-81684761D01*
X134193119Y-81446666D01*
X134193119Y-81256190D01*
X134240738Y-81018095D01*
X134288357Y-80875238D01*
X134335976Y-80780000D01*
X134431214Y-80637142D01*
X134478833Y-80589523D01*
X134859785Y-81732380D02*
X134859785Y-80732380D01*
X134859785Y-81208571D02*
X135431214Y-81208571D01*
X135431214Y-81732380D02*
X135431214Y-80732380D01*
X135859785Y-81684761D02*
X136002642Y-81732380D01*
X136240738Y-81732380D01*
X136335976Y-81684761D01*
X136383595Y-81637142D01*
X136431214Y-81541904D01*
X136431214Y-81446666D01*
X136383595Y-81351428D01*
X136335976Y-81303809D01*
X136240738Y-81256190D01*
X136050261Y-81208571D01*
X135955023Y-81160952D01*
X135907404Y-81113333D01*
X135859785Y-81018095D01*
X135859785Y-80922857D01*
X135907404Y-80827619D01*
X135955023Y-80780000D01*
X136050261Y-80732380D01*
X136288357Y-80732380D01*
X136431214Y-80780000D01*
X136764547Y-81065714D02*
X137002642Y-81732380D01*
X137240738Y-81065714D02*
X137002642Y-81732380D01*
X136907404Y-81970476D01*
X136859785Y-82018095D01*
X136764547Y-82065714D01*
X137621690Y-81065714D02*
X137621690Y-81732380D01*
X137621690Y-81160952D02*
X137669309Y-81113333D01*
X137764547Y-81065714D01*
X137907404Y-81065714D01*
X138002642Y-81113333D01*
X138050261Y-81208571D01*
X138050261Y-81732380D01*
X138955023Y-81684761D02*
X138859785Y-81732380D01*
X138669309Y-81732380D01*
X138574071Y-81684761D01*
X138526452Y-81637142D01*
X138478833Y-81541904D01*
X138478833Y-81256190D01*
X138526452Y-81160952D01*
X138574071Y-81113333D01*
X138669309Y-81065714D01*
X138859785Y-81065714D01*
X138955023Y-81113333D01*
X139288357Y-82113333D02*
X139335976Y-82065714D01*
X139431214Y-81922857D01*
X139478833Y-81827619D01*
X139526452Y-81684761D01*
X139574071Y-81446666D01*
X139574071Y-81256190D01*
X139526452Y-81018095D01*
X139478833Y-80875238D01*
X139431214Y-80780000D01*
X139335976Y-80637142D01*
X139288357Y-80589523D01*
X130383595Y-79192380D02*
X130383595Y-78192380D01*
X130859785Y-79192380D02*
X130859785Y-78192380D01*
X131097880Y-78192380D01*
X131240738Y-78240000D01*
X131335976Y-78335238D01*
X131383595Y-78430476D01*
X131431214Y-78620952D01*
X131431214Y-78763809D01*
X131383595Y-78954285D01*
X131335976Y-79049523D01*
X131240738Y-79144761D01*
X131097880Y-79192380D01*
X130859785Y-79192380D01*
X131812166Y-78287619D02*
X131859785Y-78240000D01*
X131955023Y-78192380D01*
X132193119Y-78192380D01*
X132288357Y-78240000D01*
X132335976Y-78287619D01*
X132383595Y-78382857D01*
X132383595Y-78478095D01*
X132335976Y-78620952D01*
X131764547Y-79192380D01*
X132383595Y-79192380D01*
X130716928Y-76128571D02*
X130859785Y-76176190D01*
X130907404Y-76223809D01*
X130955023Y-76319047D01*
X130955023Y-76461904D01*
X130907404Y-76557142D01*
X130859785Y-76604761D01*
X130764547Y-76652380D01*
X130383595Y-76652380D01*
X130383595Y-75652380D01*
X130716928Y-75652380D01*
X130812166Y-75700000D01*
X130859785Y-75747619D01*
X130907404Y-75842857D01*
X130907404Y-75938095D01*
X130859785Y-76033333D01*
X130812166Y-76080952D01*
X130716928Y-76128571D01*
X130383595Y-76128571D01*
X131526452Y-76652380D02*
X131431214Y-76604761D01*
X131383595Y-76509523D01*
X131383595Y-75652380D01*
X132335976Y-75985714D02*
X132335976Y-76652380D01*
X131907404Y-75985714D02*
X131907404Y-76509523D01*
X131955023Y-76604761D01*
X132050261Y-76652380D01*
X132193119Y-76652380D01*
X132288357Y-76604761D01*
X132335976Y-76557142D01*
X133193119Y-76604761D02*
X133097880Y-76652380D01*
X132907404Y-76652380D01*
X132812166Y-76604761D01*
X132764547Y-76509523D01*
X132764547Y-76128571D01*
X132812166Y-76033333D01*
X132907404Y-75985714D01*
X133097880Y-75985714D01*
X133193119Y-76033333D01*
X133240738Y-76128571D01*
X133240738Y-76223809D01*
X132764547Y-76319047D01*
X130907404Y-73160000D02*
X130812166Y-73112380D01*
X130669309Y-73112380D01*
X130526452Y-73160000D01*
X130431214Y-73255238D01*
X130383595Y-73350476D01*
X130335976Y-73540952D01*
X130335976Y-73683809D01*
X130383595Y-73874285D01*
X130431214Y-73969523D01*
X130526452Y-74064761D01*
X130669309Y-74112380D01*
X130764547Y-74112380D01*
X130907404Y-74064761D01*
X130955023Y-74017142D01*
X130955023Y-73683809D01*
X130764547Y-73683809D01*
X131383595Y-74112380D02*
X131383595Y-73445714D01*
X131383595Y-73636190D02*
X131431214Y-73540952D01*
X131478833Y-73493333D01*
X131574071Y-73445714D01*
X131669309Y-73445714D01*
X132383595Y-74064761D02*
X132288357Y-74112380D01*
X132097880Y-74112380D01*
X132002642Y-74064761D01*
X131955023Y-73969523D01*
X131955023Y-73588571D01*
X132002642Y-73493333D01*
X132097880Y-73445714D01*
X132288357Y-73445714D01*
X132383595Y-73493333D01*
X132431214Y-73588571D01*
X132431214Y-73683809D01*
X131955023Y-73779047D01*
X133240738Y-74064761D02*
X133145500Y-74112380D01*
X132955023Y-74112380D01*
X132859785Y-74064761D01*
X132812166Y-73969523D01*
X132812166Y-73588571D01*
X132859785Y-73493333D01*
X132955023Y-73445714D01*
X133145500Y-73445714D01*
X133240738Y-73493333D01*
X133288357Y-73588571D01*
X133288357Y-73683809D01*
X132812166Y-73779047D01*
X133716928Y-73445714D02*
X133716928Y-74112380D01*
X133716928Y-73540952D02*
X133764547Y-73493333D01*
X133859785Y-73445714D01*
X134002642Y-73445714D01*
X134097880Y-73493333D01*
X134145500Y-73588571D01*
X134145500Y-74112380D01*
X130955023Y-71572380D02*
X130621690Y-71096190D01*
X130383595Y-71572380D02*
X130383595Y-70572380D01*
X130764547Y-70572380D01*
X130859785Y-70620000D01*
X130907404Y-70667619D01*
X130955023Y-70762857D01*
X130955023Y-70905714D01*
X130907404Y-71000952D01*
X130859785Y-71048571D01*
X130764547Y-71096190D01*
X130383595Y-71096190D01*
X131764547Y-71524761D02*
X131669309Y-71572380D01*
X131478833Y-71572380D01*
X131383595Y-71524761D01*
X131335976Y-71429523D01*
X131335976Y-71048571D01*
X131383595Y-70953333D01*
X131478833Y-70905714D01*
X131669309Y-70905714D01*
X131764547Y-70953333D01*
X131812166Y-71048571D01*
X131812166Y-71143809D01*
X131335976Y-71239047D01*
X132669309Y-71572380D02*
X132669309Y-70572380D01*
X132669309Y-71524761D02*
X132574071Y-71572380D01*
X132383595Y-71572380D01*
X132288357Y-71524761D01*
X132240738Y-71477142D01*
X132193119Y-71381904D01*
X132193119Y-71096190D01*
X132240738Y-71000952D01*
X132288357Y-70953333D01*
X132383595Y-70905714D01*
X132574071Y-70905714D01*
X132669309Y-70953333D01*
D11*
X140646675Y-84582000D02*
X140213662Y-84832000D01*
X140213662Y-84332000D02*
X140646675Y-84582000D01*
X140213662Y-84832000D02*
X140213662Y-84332000D01*
X141108000Y-73412000D02*
X154998000Y-73412000D01*
X141108000Y-104382000D02*
X141108000Y-73412000D01*
X154998000Y-104382000D02*
X141108000Y-104382000D01*
D10*
X139620380Y-89230333D02*
X140334666Y-89230333D01*
X140477523Y-89277952D01*
X140572761Y-89373190D01*
X140620380Y-89516047D01*
X140620380Y-89611285D01*
X140620380Y-88230333D02*
X140620380Y-88801761D01*
X140620380Y-88516047D02*
X139620380Y-88516047D01*
X139763238Y-88611285D01*
X139858476Y-88706523D01*
X139906095Y-88801761D01*
M02*
