G04 #@! TF.GenerationSoftware,KiCad,Pcbnew,(5.1.6-0-10_14)*
G04 #@! TF.CreationDate,2021-04-25T22:01:39+02:00*
G04 #@! TF.ProjectId,VGA_breakout,5647415f-6272-4656-916b-6f75742e6b69,rev?*
G04 #@! TF.SameCoordinates,Original*
G04 #@! TF.FileFunction,Legend,Top*
G04 #@! TF.FilePolarity,Positive*
%FSLAX46Y46*%
G04 Gerber Fmt 4.6, Leading zero omitted, Abs format (unit mm)*
G04 Created by KiCad (PCBNEW (5.1.6-0-10_14)) date 2021-04-25 22:01:39*
%MOMM*%
%LPD*%
G01*
G04 APERTURE LIST*
%ADD10C,0.150000*%
%ADD11C,0.200000*%
%ADD12C,0.100000*%
G04 APERTURE END LIST*
D10*
X129875595Y-107132380D02*
X129875595Y-106132380D01*
X130351785Y-107132380D02*
X130351785Y-106132380D01*
X130589880Y-106132380D01*
X130732738Y-106180000D01*
X130827976Y-106275238D01*
X130875595Y-106370476D01*
X130923214Y-106560952D01*
X130923214Y-106703809D01*
X130875595Y-106894285D01*
X130827976Y-106989523D01*
X130732738Y-107084761D01*
X130589880Y-107132380D01*
X130351785Y-107132380D01*
X131256547Y-106132380D02*
X131875595Y-106132380D01*
X131542261Y-106513333D01*
X131685119Y-106513333D01*
X131780357Y-106560952D01*
X131827976Y-106608571D01*
X131875595Y-106703809D01*
X131875595Y-106941904D01*
X131827976Y-107037142D01*
X131780357Y-107084761D01*
X131685119Y-107132380D01*
X131399404Y-107132380D01*
X131304166Y-107084761D01*
X131256547Y-107037142D01*
X129732738Y-103592380D02*
X130066071Y-104592380D01*
X130399404Y-103592380D01*
X130685119Y-104544761D02*
X130827976Y-104592380D01*
X131066071Y-104592380D01*
X131161309Y-104544761D01*
X131208928Y-104497142D01*
X131256547Y-104401904D01*
X131256547Y-104306666D01*
X131208928Y-104211428D01*
X131161309Y-104163809D01*
X131066071Y-104116190D01*
X130875595Y-104068571D01*
X130780357Y-104020952D01*
X130732738Y-103973333D01*
X130685119Y-103878095D01*
X130685119Y-103782857D01*
X130732738Y-103687619D01*
X130780357Y-103640000D01*
X130875595Y-103592380D01*
X131113690Y-103592380D01*
X131256547Y-103640000D01*
X131589880Y-103925714D02*
X131827976Y-104592380D01*
X132066071Y-103925714D02*
X131827976Y-104592380D01*
X131732738Y-104830476D01*
X131685119Y-104878095D01*
X131589880Y-104925714D01*
X132447023Y-103925714D02*
X132447023Y-104592380D01*
X132447023Y-104020952D02*
X132494642Y-103973333D01*
X132589880Y-103925714D01*
X132732738Y-103925714D01*
X132827976Y-103973333D01*
X132875595Y-104068571D01*
X132875595Y-104592380D01*
X133780357Y-104544761D02*
X133685119Y-104592380D01*
X133494642Y-104592380D01*
X133399404Y-104544761D01*
X133351785Y-104497142D01*
X133304166Y-104401904D01*
X133304166Y-104116190D01*
X133351785Y-104020952D01*
X133399404Y-103973333D01*
X133494642Y-103925714D01*
X133685119Y-103925714D01*
X133780357Y-103973333D01*
X129875595Y-102052380D02*
X129875595Y-101052380D01*
X129875595Y-101528571D02*
X130447023Y-101528571D01*
X130447023Y-102052380D02*
X130447023Y-101052380D01*
X130875595Y-102004761D02*
X131018452Y-102052380D01*
X131256547Y-102052380D01*
X131351785Y-102004761D01*
X131399404Y-101957142D01*
X131447023Y-101861904D01*
X131447023Y-101766666D01*
X131399404Y-101671428D01*
X131351785Y-101623809D01*
X131256547Y-101576190D01*
X131066071Y-101528571D01*
X130970833Y-101480952D01*
X130923214Y-101433333D01*
X130875595Y-101338095D01*
X130875595Y-101242857D01*
X130923214Y-101147619D01*
X130970833Y-101100000D01*
X131066071Y-101052380D01*
X131304166Y-101052380D01*
X131447023Y-101100000D01*
X131780357Y-101385714D02*
X132018452Y-102052380D01*
X132256547Y-101385714D02*
X132018452Y-102052380D01*
X131923214Y-102290476D01*
X131875595Y-102338095D01*
X131780357Y-102385714D01*
X132637500Y-101385714D02*
X132637500Y-102052380D01*
X132637500Y-101480952D02*
X132685119Y-101433333D01*
X132780357Y-101385714D01*
X132923214Y-101385714D01*
X133018452Y-101433333D01*
X133066071Y-101528571D01*
X133066071Y-102052380D01*
X133970833Y-102004761D02*
X133875595Y-102052380D01*
X133685119Y-102052380D01*
X133589880Y-102004761D01*
X133542261Y-101957142D01*
X133494642Y-101861904D01*
X133494642Y-101576190D01*
X133542261Y-101480952D01*
X133589880Y-101433333D01*
X133685119Y-101385714D01*
X133875595Y-101385714D01*
X133970833Y-101433333D01*
X129875595Y-99512380D02*
X129875595Y-98512380D01*
X130351785Y-99512380D02*
X130351785Y-98512380D01*
X130589880Y-98512380D01*
X130732738Y-98560000D01*
X130827976Y-98655238D01*
X130875595Y-98750476D01*
X130923214Y-98940952D01*
X130923214Y-99083809D01*
X130875595Y-99274285D01*
X130827976Y-99369523D01*
X130732738Y-99464761D01*
X130589880Y-99512380D01*
X130351785Y-99512380D01*
X131875595Y-99512380D02*
X131304166Y-99512380D01*
X131589880Y-99512380D02*
X131589880Y-98512380D01*
X131494642Y-98655238D01*
X131399404Y-98750476D01*
X131304166Y-98798095D01*
X129875595Y-96972380D02*
X129875595Y-95972380D01*
X130351785Y-96972380D02*
X130351785Y-95972380D01*
X130589880Y-95972380D01*
X130732738Y-96020000D01*
X130827976Y-96115238D01*
X130875595Y-96210476D01*
X130923214Y-96400952D01*
X130923214Y-96543809D01*
X130875595Y-96734285D01*
X130827976Y-96829523D01*
X130732738Y-96924761D01*
X130589880Y-96972380D01*
X130351785Y-96972380D01*
X131542261Y-95972380D02*
X131637500Y-95972380D01*
X131732738Y-96020000D01*
X131780357Y-96067619D01*
X131827976Y-96162857D01*
X131875595Y-96353333D01*
X131875595Y-96591428D01*
X131827976Y-96781904D01*
X131780357Y-96877142D01*
X131732738Y-96924761D01*
X131637500Y-96972380D01*
X131542261Y-96972380D01*
X131447023Y-96924761D01*
X131399404Y-96877142D01*
X131351785Y-96781904D01*
X131304166Y-96591428D01*
X131304166Y-96353333D01*
X131351785Y-96162857D01*
X131399404Y-96067619D01*
X131447023Y-96020000D01*
X131542261Y-95972380D01*
X130399404Y-93480000D02*
X130304166Y-93432380D01*
X130161309Y-93432380D01*
X130018452Y-93480000D01*
X129923214Y-93575238D01*
X129875595Y-93670476D01*
X129827976Y-93860952D01*
X129827976Y-94003809D01*
X129875595Y-94194285D01*
X129923214Y-94289523D01*
X130018452Y-94384761D01*
X130161309Y-94432380D01*
X130256547Y-94432380D01*
X130399404Y-94384761D01*
X130447023Y-94337142D01*
X130447023Y-94003809D01*
X130256547Y-94003809D01*
X130875595Y-94432380D02*
X130875595Y-93432380D01*
X131447023Y-94432380D01*
X131447023Y-93432380D01*
X131923214Y-94432380D02*
X131923214Y-93432380D01*
X132161309Y-93432380D01*
X132304166Y-93480000D01*
X132399404Y-93575238D01*
X132447023Y-93670476D01*
X132494642Y-93860952D01*
X132494642Y-94003809D01*
X132447023Y-94194285D01*
X132399404Y-94289523D01*
X132304166Y-94384761D01*
X132161309Y-94432380D01*
X131923214Y-94432380D01*
X133970833Y-94813333D02*
X133923214Y-94765714D01*
X133827976Y-94622857D01*
X133780357Y-94527619D01*
X133732738Y-94384761D01*
X133685119Y-94146666D01*
X133685119Y-93956190D01*
X133732738Y-93718095D01*
X133780357Y-93575238D01*
X133827976Y-93480000D01*
X133923214Y-93337142D01*
X133970833Y-93289523D01*
X134208928Y-93432380D02*
X134542261Y-94432380D01*
X134875595Y-93432380D01*
X135161309Y-94384761D02*
X135304166Y-94432380D01*
X135542261Y-94432380D01*
X135637500Y-94384761D01*
X135685119Y-94337142D01*
X135732738Y-94241904D01*
X135732738Y-94146666D01*
X135685119Y-94051428D01*
X135637500Y-94003809D01*
X135542261Y-93956190D01*
X135351785Y-93908571D01*
X135256547Y-93860952D01*
X135208928Y-93813333D01*
X135161309Y-93718095D01*
X135161309Y-93622857D01*
X135208928Y-93527619D01*
X135256547Y-93480000D01*
X135351785Y-93432380D01*
X135589880Y-93432380D01*
X135732738Y-93480000D01*
X136066071Y-93765714D02*
X136304166Y-94432380D01*
X136542261Y-93765714D02*
X136304166Y-94432380D01*
X136208928Y-94670476D01*
X136161309Y-94718095D01*
X136066071Y-94765714D01*
X136923214Y-93765714D02*
X136923214Y-94432380D01*
X136923214Y-93860952D02*
X136970833Y-93813333D01*
X137066071Y-93765714D01*
X137208928Y-93765714D01*
X137304166Y-93813333D01*
X137351785Y-93908571D01*
X137351785Y-94432380D01*
X138256547Y-94384761D02*
X138161309Y-94432380D01*
X137970833Y-94432380D01*
X137875595Y-94384761D01*
X137827976Y-94337142D01*
X137780357Y-94241904D01*
X137780357Y-93956190D01*
X137827976Y-93860952D01*
X137875595Y-93813333D01*
X137970833Y-93765714D01*
X138161309Y-93765714D01*
X138256547Y-93813333D01*
X138589880Y-94813333D02*
X138637500Y-94765714D01*
X138732738Y-94622857D01*
X138780357Y-94527619D01*
X138827976Y-94384761D01*
X138875595Y-94146666D01*
X138875595Y-93956190D01*
X138827976Y-93718095D01*
X138780357Y-93575238D01*
X138732738Y-93480000D01*
X138637500Y-93337142D01*
X138589880Y-93289523D01*
X130399404Y-90940000D02*
X130304166Y-90892380D01*
X130161309Y-90892380D01*
X130018452Y-90940000D01*
X129923214Y-91035238D01*
X129875595Y-91130476D01*
X129827976Y-91320952D01*
X129827976Y-91463809D01*
X129875595Y-91654285D01*
X129923214Y-91749523D01*
X130018452Y-91844761D01*
X130161309Y-91892380D01*
X130256547Y-91892380D01*
X130399404Y-91844761D01*
X130447023Y-91797142D01*
X130447023Y-91463809D01*
X130256547Y-91463809D01*
X130875595Y-91892380D02*
X130875595Y-90892380D01*
X131447023Y-91892380D01*
X131447023Y-90892380D01*
X131923214Y-91892380D02*
X131923214Y-90892380D01*
X132161309Y-90892380D01*
X132304166Y-90940000D01*
X132399404Y-91035238D01*
X132447023Y-91130476D01*
X132494642Y-91320952D01*
X132494642Y-91463809D01*
X132447023Y-91654285D01*
X132399404Y-91749523D01*
X132304166Y-91844761D01*
X132161309Y-91892380D01*
X131923214Y-91892380D01*
X133970833Y-92273333D02*
X133923214Y-92225714D01*
X133827976Y-92082857D01*
X133780357Y-91987619D01*
X133732738Y-91844761D01*
X133685119Y-91606666D01*
X133685119Y-91416190D01*
X133732738Y-91178095D01*
X133780357Y-91035238D01*
X133827976Y-90940000D01*
X133923214Y-90797142D01*
X133970833Y-90749523D01*
X134351785Y-91892380D02*
X134351785Y-90892380D01*
X134923214Y-91892380D02*
X134494642Y-91320952D01*
X134923214Y-90892380D02*
X134351785Y-91463809D01*
X135732738Y-91844761D02*
X135637500Y-91892380D01*
X135447023Y-91892380D01*
X135351785Y-91844761D01*
X135304166Y-91749523D01*
X135304166Y-91368571D01*
X135351785Y-91273333D01*
X135447023Y-91225714D01*
X135637500Y-91225714D01*
X135732738Y-91273333D01*
X135780357Y-91368571D01*
X135780357Y-91463809D01*
X135304166Y-91559047D01*
X136113690Y-91225714D02*
X136351785Y-91892380D01*
X136589880Y-91225714D02*
X136351785Y-91892380D01*
X136256547Y-92130476D01*
X136208928Y-92178095D01*
X136113690Y-92225714D01*
X136875595Y-92273333D02*
X136923214Y-92225714D01*
X137018452Y-92082857D01*
X137066071Y-91987619D01*
X137113690Y-91844761D01*
X137161309Y-91606666D01*
X137161309Y-91416190D01*
X137113690Y-91178095D01*
X137066071Y-91035238D01*
X137018452Y-90940000D01*
X136923214Y-90797142D01*
X136875595Y-90749523D01*
X130399404Y-88400000D02*
X130304166Y-88352380D01*
X130161309Y-88352380D01*
X130018452Y-88400000D01*
X129923214Y-88495238D01*
X129875595Y-88590476D01*
X129827976Y-88780952D01*
X129827976Y-88923809D01*
X129875595Y-89114285D01*
X129923214Y-89209523D01*
X130018452Y-89304761D01*
X130161309Y-89352380D01*
X130256547Y-89352380D01*
X130399404Y-89304761D01*
X130447023Y-89257142D01*
X130447023Y-88923809D01*
X130256547Y-88923809D01*
X130875595Y-89352380D02*
X130875595Y-88352380D01*
X131447023Y-89352380D01*
X131447023Y-88352380D01*
X131923214Y-89352380D02*
X131923214Y-88352380D01*
X132161309Y-88352380D01*
X132304166Y-88400000D01*
X132399404Y-88495238D01*
X132447023Y-88590476D01*
X132494642Y-88780952D01*
X132494642Y-88923809D01*
X132447023Y-89114285D01*
X132399404Y-89209523D01*
X132304166Y-89304761D01*
X132161309Y-89352380D01*
X131923214Y-89352380D01*
X133970833Y-89733333D02*
X133923214Y-89685714D01*
X133827976Y-89542857D01*
X133780357Y-89447619D01*
X133732738Y-89304761D01*
X133685119Y-89066666D01*
X133685119Y-88876190D01*
X133732738Y-88638095D01*
X133780357Y-88495238D01*
X133827976Y-88400000D01*
X133923214Y-88257142D01*
X133970833Y-88209523D01*
X134685119Y-88828571D02*
X134827976Y-88876190D01*
X134875595Y-88923809D01*
X134923214Y-89019047D01*
X134923214Y-89161904D01*
X134875595Y-89257142D01*
X134827976Y-89304761D01*
X134732738Y-89352380D01*
X134351785Y-89352380D01*
X134351785Y-88352380D01*
X134685119Y-88352380D01*
X134780357Y-88400000D01*
X134827976Y-88447619D01*
X134875595Y-88542857D01*
X134875595Y-88638095D01*
X134827976Y-88733333D01*
X134780357Y-88780952D01*
X134685119Y-88828571D01*
X134351785Y-88828571D01*
X135494642Y-89352380D02*
X135399404Y-89304761D01*
X135351785Y-89209523D01*
X135351785Y-88352380D01*
X136304166Y-88685714D02*
X136304166Y-89352380D01*
X135875595Y-88685714D02*
X135875595Y-89209523D01*
X135923214Y-89304761D01*
X136018452Y-89352380D01*
X136161309Y-89352380D01*
X136256547Y-89304761D01*
X136304166Y-89257142D01*
X137161309Y-89304761D02*
X137066071Y-89352380D01*
X136875595Y-89352380D01*
X136780357Y-89304761D01*
X136732738Y-89209523D01*
X136732738Y-88828571D01*
X136780357Y-88733333D01*
X136875595Y-88685714D01*
X137066071Y-88685714D01*
X137161309Y-88733333D01*
X137208928Y-88828571D01*
X137208928Y-88923809D01*
X136732738Y-89019047D01*
X137542261Y-89733333D02*
X137589880Y-89685714D01*
X137685119Y-89542857D01*
X137732738Y-89447619D01*
X137780357Y-89304761D01*
X137827976Y-89066666D01*
X137827976Y-88876190D01*
X137780357Y-88638095D01*
X137732738Y-88495238D01*
X137685119Y-88400000D01*
X137589880Y-88257142D01*
X137542261Y-88209523D01*
X130399404Y-85860000D02*
X130304166Y-85812380D01*
X130161309Y-85812380D01*
X130018452Y-85860000D01*
X129923214Y-85955238D01*
X129875595Y-86050476D01*
X129827976Y-86240952D01*
X129827976Y-86383809D01*
X129875595Y-86574285D01*
X129923214Y-86669523D01*
X130018452Y-86764761D01*
X130161309Y-86812380D01*
X130256547Y-86812380D01*
X130399404Y-86764761D01*
X130447023Y-86717142D01*
X130447023Y-86383809D01*
X130256547Y-86383809D01*
X130875595Y-86812380D02*
X130875595Y-85812380D01*
X131447023Y-86812380D01*
X131447023Y-85812380D01*
X131923214Y-86812380D02*
X131923214Y-85812380D01*
X132161309Y-85812380D01*
X132304166Y-85860000D01*
X132399404Y-85955238D01*
X132447023Y-86050476D01*
X132494642Y-86240952D01*
X132494642Y-86383809D01*
X132447023Y-86574285D01*
X132399404Y-86669523D01*
X132304166Y-86764761D01*
X132161309Y-86812380D01*
X131923214Y-86812380D01*
X133970833Y-87193333D02*
X133923214Y-87145714D01*
X133827976Y-87002857D01*
X133780357Y-86907619D01*
X133732738Y-86764761D01*
X133685119Y-86526666D01*
X133685119Y-86336190D01*
X133732738Y-86098095D01*
X133780357Y-85955238D01*
X133827976Y-85860000D01*
X133923214Y-85717142D01*
X133970833Y-85669523D01*
X134875595Y-85860000D02*
X134780357Y-85812380D01*
X134637500Y-85812380D01*
X134494642Y-85860000D01*
X134399404Y-85955238D01*
X134351785Y-86050476D01*
X134304166Y-86240952D01*
X134304166Y-86383809D01*
X134351785Y-86574285D01*
X134399404Y-86669523D01*
X134494642Y-86764761D01*
X134637500Y-86812380D01*
X134732738Y-86812380D01*
X134875595Y-86764761D01*
X134923214Y-86717142D01*
X134923214Y-86383809D01*
X134732738Y-86383809D01*
X135351785Y-86812380D02*
X135351785Y-86145714D01*
X135351785Y-86336190D02*
X135399404Y-86240952D01*
X135447023Y-86193333D01*
X135542261Y-86145714D01*
X135637500Y-86145714D01*
X136351785Y-86764761D02*
X136256547Y-86812380D01*
X136066071Y-86812380D01*
X135970833Y-86764761D01*
X135923214Y-86669523D01*
X135923214Y-86288571D01*
X135970833Y-86193333D01*
X136066071Y-86145714D01*
X136256547Y-86145714D01*
X136351785Y-86193333D01*
X136399404Y-86288571D01*
X136399404Y-86383809D01*
X135923214Y-86479047D01*
X137208928Y-86764761D02*
X137113690Y-86812380D01*
X136923214Y-86812380D01*
X136827976Y-86764761D01*
X136780357Y-86669523D01*
X136780357Y-86288571D01*
X136827976Y-86193333D01*
X136923214Y-86145714D01*
X137113690Y-86145714D01*
X137208928Y-86193333D01*
X137256547Y-86288571D01*
X137256547Y-86383809D01*
X136780357Y-86479047D01*
X137685119Y-86145714D02*
X137685119Y-86812380D01*
X137685119Y-86240952D02*
X137732738Y-86193333D01*
X137827976Y-86145714D01*
X137970833Y-86145714D01*
X138066071Y-86193333D01*
X138113690Y-86288571D01*
X138113690Y-86812380D01*
X138494642Y-87193333D02*
X138542261Y-87145714D01*
X138637500Y-87002857D01*
X138685119Y-86907619D01*
X138732738Y-86764761D01*
X138780357Y-86526666D01*
X138780357Y-86336190D01*
X138732738Y-86098095D01*
X138685119Y-85955238D01*
X138637500Y-85860000D01*
X138542261Y-85717142D01*
X138494642Y-85669523D01*
X130399404Y-83320000D02*
X130304166Y-83272380D01*
X130161309Y-83272380D01*
X130018452Y-83320000D01*
X129923214Y-83415238D01*
X129875595Y-83510476D01*
X129827976Y-83700952D01*
X129827976Y-83843809D01*
X129875595Y-84034285D01*
X129923214Y-84129523D01*
X130018452Y-84224761D01*
X130161309Y-84272380D01*
X130256547Y-84272380D01*
X130399404Y-84224761D01*
X130447023Y-84177142D01*
X130447023Y-83843809D01*
X130256547Y-83843809D01*
X130875595Y-84272380D02*
X130875595Y-83272380D01*
X131447023Y-84272380D01*
X131447023Y-83272380D01*
X131923214Y-84272380D02*
X131923214Y-83272380D01*
X132161309Y-83272380D01*
X132304166Y-83320000D01*
X132399404Y-83415238D01*
X132447023Y-83510476D01*
X132494642Y-83700952D01*
X132494642Y-83843809D01*
X132447023Y-84034285D01*
X132399404Y-84129523D01*
X132304166Y-84224761D01*
X132161309Y-84272380D01*
X131923214Y-84272380D01*
X133970833Y-84653333D02*
X133923214Y-84605714D01*
X133827976Y-84462857D01*
X133780357Y-84367619D01*
X133732738Y-84224761D01*
X133685119Y-83986666D01*
X133685119Y-83796190D01*
X133732738Y-83558095D01*
X133780357Y-83415238D01*
X133827976Y-83320000D01*
X133923214Y-83177142D01*
X133970833Y-83129523D01*
X134923214Y-84272380D02*
X134589880Y-83796190D01*
X134351785Y-84272380D02*
X134351785Y-83272380D01*
X134732738Y-83272380D01*
X134827976Y-83320000D01*
X134875595Y-83367619D01*
X134923214Y-83462857D01*
X134923214Y-83605714D01*
X134875595Y-83700952D01*
X134827976Y-83748571D01*
X134732738Y-83796190D01*
X134351785Y-83796190D01*
X135732738Y-84224761D02*
X135637500Y-84272380D01*
X135447023Y-84272380D01*
X135351785Y-84224761D01*
X135304166Y-84129523D01*
X135304166Y-83748571D01*
X135351785Y-83653333D01*
X135447023Y-83605714D01*
X135637500Y-83605714D01*
X135732738Y-83653333D01*
X135780357Y-83748571D01*
X135780357Y-83843809D01*
X135304166Y-83939047D01*
X136637500Y-84272380D02*
X136637500Y-83272380D01*
X136637500Y-84224761D02*
X136542261Y-84272380D01*
X136351785Y-84272380D01*
X136256547Y-84224761D01*
X136208928Y-84177142D01*
X136161309Y-84081904D01*
X136161309Y-83796190D01*
X136208928Y-83700952D01*
X136256547Y-83653333D01*
X136351785Y-83605714D01*
X136542261Y-83605714D01*
X136637500Y-83653333D01*
X137018452Y-84653333D02*
X137066071Y-84605714D01*
X137161309Y-84462857D01*
X137208928Y-84367619D01*
X137256547Y-84224761D01*
X137304166Y-83986666D01*
X137304166Y-83796190D01*
X137256547Y-83558095D01*
X137208928Y-83415238D01*
X137161309Y-83320000D01*
X137066071Y-83177142D01*
X137018452Y-83129523D01*
X130399404Y-80780000D02*
X130304166Y-80732380D01*
X130161309Y-80732380D01*
X130018452Y-80780000D01*
X129923214Y-80875238D01*
X129875595Y-80970476D01*
X129827976Y-81160952D01*
X129827976Y-81303809D01*
X129875595Y-81494285D01*
X129923214Y-81589523D01*
X130018452Y-81684761D01*
X130161309Y-81732380D01*
X130256547Y-81732380D01*
X130399404Y-81684761D01*
X130447023Y-81637142D01*
X130447023Y-81303809D01*
X130256547Y-81303809D01*
X130875595Y-81732380D02*
X130875595Y-80732380D01*
X131447023Y-81732380D01*
X131447023Y-80732380D01*
X131923214Y-81732380D02*
X131923214Y-80732380D01*
X132161309Y-80732380D01*
X132304166Y-80780000D01*
X132399404Y-80875238D01*
X132447023Y-80970476D01*
X132494642Y-81160952D01*
X132494642Y-81303809D01*
X132447023Y-81494285D01*
X132399404Y-81589523D01*
X132304166Y-81684761D01*
X132161309Y-81732380D01*
X131923214Y-81732380D01*
X133970833Y-82113333D02*
X133923214Y-82065714D01*
X133827976Y-81922857D01*
X133780357Y-81827619D01*
X133732738Y-81684761D01*
X133685119Y-81446666D01*
X133685119Y-81256190D01*
X133732738Y-81018095D01*
X133780357Y-80875238D01*
X133827976Y-80780000D01*
X133923214Y-80637142D01*
X133970833Y-80589523D01*
X134351785Y-81732380D02*
X134351785Y-80732380D01*
X134351785Y-81208571D02*
X134923214Y-81208571D01*
X134923214Y-81732380D02*
X134923214Y-80732380D01*
X135351785Y-81684761D02*
X135494642Y-81732380D01*
X135732738Y-81732380D01*
X135827976Y-81684761D01*
X135875595Y-81637142D01*
X135923214Y-81541904D01*
X135923214Y-81446666D01*
X135875595Y-81351428D01*
X135827976Y-81303809D01*
X135732738Y-81256190D01*
X135542261Y-81208571D01*
X135447023Y-81160952D01*
X135399404Y-81113333D01*
X135351785Y-81018095D01*
X135351785Y-80922857D01*
X135399404Y-80827619D01*
X135447023Y-80780000D01*
X135542261Y-80732380D01*
X135780357Y-80732380D01*
X135923214Y-80780000D01*
X136256547Y-81065714D02*
X136494642Y-81732380D01*
X136732738Y-81065714D02*
X136494642Y-81732380D01*
X136399404Y-81970476D01*
X136351785Y-82018095D01*
X136256547Y-82065714D01*
X137113690Y-81065714D02*
X137113690Y-81732380D01*
X137113690Y-81160952D02*
X137161309Y-81113333D01*
X137256547Y-81065714D01*
X137399404Y-81065714D01*
X137494642Y-81113333D01*
X137542261Y-81208571D01*
X137542261Y-81732380D01*
X138447023Y-81684761D02*
X138351785Y-81732380D01*
X138161309Y-81732380D01*
X138066071Y-81684761D01*
X138018452Y-81637142D01*
X137970833Y-81541904D01*
X137970833Y-81256190D01*
X138018452Y-81160952D01*
X138066071Y-81113333D01*
X138161309Y-81065714D01*
X138351785Y-81065714D01*
X138447023Y-81113333D01*
X138780357Y-82113333D02*
X138827976Y-82065714D01*
X138923214Y-81922857D01*
X138970833Y-81827619D01*
X139018452Y-81684761D01*
X139066071Y-81446666D01*
X139066071Y-81256190D01*
X139018452Y-81018095D01*
X138970833Y-80875238D01*
X138923214Y-80780000D01*
X138827976Y-80637142D01*
X138780357Y-80589523D01*
X129875595Y-79192380D02*
X129875595Y-78192380D01*
X130351785Y-79192380D02*
X130351785Y-78192380D01*
X130589880Y-78192380D01*
X130732738Y-78240000D01*
X130827976Y-78335238D01*
X130875595Y-78430476D01*
X130923214Y-78620952D01*
X130923214Y-78763809D01*
X130875595Y-78954285D01*
X130827976Y-79049523D01*
X130732738Y-79144761D01*
X130589880Y-79192380D01*
X130351785Y-79192380D01*
X131304166Y-78287619D02*
X131351785Y-78240000D01*
X131447023Y-78192380D01*
X131685119Y-78192380D01*
X131780357Y-78240000D01*
X131827976Y-78287619D01*
X131875595Y-78382857D01*
X131875595Y-78478095D01*
X131827976Y-78620952D01*
X131256547Y-79192380D01*
X131875595Y-79192380D01*
X130208928Y-76128571D02*
X130351785Y-76176190D01*
X130399404Y-76223809D01*
X130447023Y-76319047D01*
X130447023Y-76461904D01*
X130399404Y-76557142D01*
X130351785Y-76604761D01*
X130256547Y-76652380D01*
X129875595Y-76652380D01*
X129875595Y-75652380D01*
X130208928Y-75652380D01*
X130304166Y-75700000D01*
X130351785Y-75747619D01*
X130399404Y-75842857D01*
X130399404Y-75938095D01*
X130351785Y-76033333D01*
X130304166Y-76080952D01*
X130208928Y-76128571D01*
X129875595Y-76128571D01*
X131018452Y-76652380D02*
X130923214Y-76604761D01*
X130875595Y-76509523D01*
X130875595Y-75652380D01*
X131827976Y-75985714D02*
X131827976Y-76652380D01*
X131399404Y-75985714D02*
X131399404Y-76509523D01*
X131447023Y-76604761D01*
X131542261Y-76652380D01*
X131685119Y-76652380D01*
X131780357Y-76604761D01*
X131827976Y-76557142D01*
X132685119Y-76604761D02*
X132589880Y-76652380D01*
X132399404Y-76652380D01*
X132304166Y-76604761D01*
X132256547Y-76509523D01*
X132256547Y-76128571D01*
X132304166Y-76033333D01*
X132399404Y-75985714D01*
X132589880Y-75985714D01*
X132685119Y-76033333D01*
X132732738Y-76128571D01*
X132732738Y-76223809D01*
X132256547Y-76319047D01*
X130399404Y-73160000D02*
X130304166Y-73112380D01*
X130161309Y-73112380D01*
X130018452Y-73160000D01*
X129923214Y-73255238D01*
X129875595Y-73350476D01*
X129827976Y-73540952D01*
X129827976Y-73683809D01*
X129875595Y-73874285D01*
X129923214Y-73969523D01*
X130018452Y-74064761D01*
X130161309Y-74112380D01*
X130256547Y-74112380D01*
X130399404Y-74064761D01*
X130447023Y-74017142D01*
X130447023Y-73683809D01*
X130256547Y-73683809D01*
X130875595Y-74112380D02*
X130875595Y-73445714D01*
X130875595Y-73636190D02*
X130923214Y-73540952D01*
X130970833Y-73493333D01*
X131066071Y-73445714D01*
X131161309Y-73445714D01*
X131875595Y-74064761D02*
X131780357Y-74112380D01*
X131589880Y-74112380D01*
X131494642Y-74064761D01*
X131447023Y-73969523D01*
X131447023Y-73588571D01*
X131494642Y-73493333D01*
X131589880Y-73445714D01*
X131780357Y-73445714D01*
X131875595Y-73493333D01*
X131923214Y-73588571D01*
X131923214Y-73683809D01*
X131447023Y-73779047D01*
X132732738Y-74064761D02*
X132637500Y-74112380D01*
X132447023Y-74112380D01*
X132351785Y-74064761D01*
X132304166Y-73969523D01*
X132304166Y-73588571D01*
X132351785Y-73493333D01*
X132447023Y-73445714D01*
X132637500Y-73445714D01*
X132732738Y-73493333D01*
X132780357Y-73588571D01*
X132780357Y-73683809D01*
X132304166Y-73779047D01*
X133208928Y-73445714D02*
X133208928Y-74112380D01*
X133208928Y-73540952D02*
X133256547Y-73493333D01*
X133351785Y-73445714D01*
X133494642Y-73445714D01*
X133589880Y-73493333D01*
X133637500Y-73588571D01*
X133637500Y-74112380D01*
X130447023Y-71572380D02*
X130113690Y-71096190D01*
X129875595Y-71572380D02*
X129875595Y-70572380D01*
X130256547Y-70572380D01*
X130351785Y-70620000D01*
X130399404Y-70667619D01*
X130447023Y-70762857D01*
X130447023Y-70905714D01*
X130399404Y-71000952D01*
X130351785Y-71048571D01*
X130256547Y-71096190D01*
X129875595Y-71096190D01*
X131256547Y-71524761D02*
X131161309Y-71572380D01*
X130970833Y-71572380D01*
X130875595Y-71524761D01*
X130827976Y-71429523D01*
X130827976Y-71048571D01*
X130875595Y-70953333D01*
X130970833Y-70905714D01*
X131161309Y-70905714D01*
X131256547Y-70953333D01*
X131304166Y-71048571D01*
X131304166Y-71143809D01*
X130827976Y-71239047D01*
X132161309Y-71572380D02*
X132161309Y-70572380D01*
X132161309Y-71524761D02*
X132066071Y-71572380D01*
X131875595Y-71572380D01*
X131780357Y-71524761D01*
X131732738Y-71477142D01*
X131685119Y-71381904D01*
X131685119Y-71096190D01*
X131732738Y-71000952D01*
X131780357Y-70953333D01*
X131875595Y-70905714D01*
X132066071Y-70905714D01*
X132161309Y-70953333D01*
D11*
X139902000Y-84582000D02*
X139902000Y-84582000D01*
X139802000Y-84582000D02*
X139802000Y-84582000D01*
X139902000Y-84582000D02*
X139902000Y-84582000D01*
D12*
X154940000Y-104292000D02*
X139410000Y-104292000D01*
X139410000Y-73482000D02*
X154940000Y-73482000D01*
X139410000Y-104292000D02*
X139410000Y-73482000D01*
D11*
X139802000Y-84582000D02*
G75*
G02*
X139902000Y-84582000I50000J0D01*
G01*
X139902000Y-84582000D02*
G75*
G02*
X139802000Y-84582000I-50000J0D01*
G01*
X139802000Y-84582000D02*
G75*
G02*
X139902000Y-84582000I50000J0D01*
G01*
M02*
